<?xml version="1.0" encoding="UTF-8" standalone="no"?>
<!DOCTYPE svg PUBLIC "-//W3C//DTD SVG 1.1//EN"
 "http://www.w3.org/Graphics/SVG/1.1/DTD/svg11.dtd">
<!-- Generated by graphviz version 2.47.0 (20210316.0004)
 -->
<!-- Title: dependencies Pages: 1 -->
<svg width="1391pt" height="211pt"
 viewBox="0.00 0.00 1391.00 211.00" xmlns="http://www.w3.org/2000/svg" xmlns:xlink="http://www.w3.org/1999/xlink">
<g id="graph0" class="graph" transform="scale(1 1) rotate(0) translate(4 207)">
<title>dependencies</title>
<polygon fill="white" stroke="transparent" points="-4,4 -4,-207 1387,-207 1387,4 -4,4"/>
<text text-anchor="start" x="670.51" y="-42.4" font-family="Times-12" font-weight="bold" font-size="14.00">Legend</text>
<polygon fill="#ffffb3" stroke="transparent" points="457.5,-10 457.5,-30 477.5,-30 477.5,-10 457.5,-10"/>
<text text-anchor="start" x="481.13" y="-15.4" font-family="Times-12" font-size="14.00"> &#160;Declarations</text>
<polygon fill="#8dd3c7" stroke="transparent" points="570.5,-10 570.5,-30 590.5,-30 590.5,-10 570.5,-10"/>
<text text-anchor="start" x="594.23" y="-15.4" font-family="Times-12" font-size="14.00"> &#160;Module</text>
<polygon fill="#80b1d3" stroke="transparent" points="656.5,-10 656.5,-30 676.5,-30 676.5,-10 656.5,-10"/>
<text text-anchor="start" x="680.28" y="-15.4" font-family="Times-12" font-size="14.00"> &#160;Bootstrap</text>
<polygon fill="#fdb462" stroke="transparent" points="753.5,-10 753.5,-30 773.5,-30 773.5,-10 753.5,-10"/>
<text text-anchor="start" x="777.17" y="-15.4" font-family="Times-12" font-size="14.00"> &#160;Providers</text>
<polygon fill="#fb8072" stroke="transparent" points="849.5,-10 849.5,-30 869.5,-30 869.5,-10 849.5,-10"/>
<text text-anchor="start" x="873.23" y="-15.4" font-family="Times-12" font-size="14.00"> &#160;Exports</text>
<g id="clust1" class="cluster">
<title>cluster_AppModule</title>
<polygon fill="none" stroke="black" stroke-dasharray="1,5" points="8,-70 8,-195 1375,-195 1375,-70 8,-70"/>
</g>
<g id="clust3" class="cluster">
<title>cluster_AppModule_imports</title>
<polygon fill="none" stroke="black" points="16,-78 16,-130 1367,-130 1367,-78 16,-78"/>
</g>
<!-- AuthModule -->
<g id="node1" class="node">
<title>AuthModule</title>
<polygon fill="#8dd3c7" stroke="black" points="1358.55,-122 1355.55,-126 1334.55,-126 1331.55,-122 1271.45,-122 1271.45,-86 1358.55,-86 1358.55,-122"/>
<text text-anchor="middle" x="1315" y="-99.8" font-family="Times,serif" font-size="14.00">AuthModule</text>
</g>
<!-- AppModule -->
<g id="node12" class="node">
<title>AppModule</title>
<polygon fill="#8dd3c7" stroke="black" points="728.66,-187 725.66,-191 704.66,-191 701.66,-187 645.34,-187 645.34,-151 728.66,-151 728.66,-187"/>
<text text-anchor="middle" x="687" y="-164.8" font-family="Times,serif" font-size="14.00">AppModule</text>
</g>
<!-- AuthModule&#45;&gt;AppModule -->
<g id="edge1" class="edge">
<title>AuthModule&#45;&gt;AppModule</title>
<path fill="none" stroke="black" d="M1315,-122.09C1315,-145.13 1315,-182 1315,-182 1315,-182 738.69,-182 738.69,-182"/>
<polygon fill="black" stroke="black" points="738.69,-178.5 728.69,-182 738.69,-185.5 738.69,-178.5"/>
</g>
<!-- ConfigImportModule -->
<g id="node2" class="node">
<title>ConfigImportModule</title>
<polygon fill="#8dd3c7" stroke="black" points="1253.04,-122 1250.04,-126 1229.04,-126 1226.04,-122 1116.96,-122 1116.96,-86 1253.04,-86 1253.04,-122"/>
<text text-anchor="middle" x="1185" y="-99.8" font-family="Times,serif" font-size="14.00">ConfigImportModule</text>
</g>
<!-- ConfigImportModule&#45;&gt;AppModule -->
<g id="edge2" class="edge">
<title>ConfigImportModule&#45;&gt;AppModule</title>
<path fill="none" stroke="black" d="M1185,-122.28C1185,-143.32 1185,-175 1185,-175 1185,-175 739.03,-175 739.03,-175"/>
<polygon fill="black" stroke="black" points="739.03,-171.5 729.03,-175 739.03,-178.5 739.03,-171.5"/>
</g>
<!-- CoreModule -->
<g id="node3" class="node">
<title>CoreModule</title>
<polygon fill="#8dd3c7" stroke="black" points="1098.26,-122 1095.26,-126 1074.26,-126 1071.26,-122 1011.74,-122 1011.74,-86 1098.26,-86 1098.26,-122"/>
<text text-anchor="middle" x="1055" y="-99.8" font-family="Times,serif" font-size="14.00">CoreModule</text>
</g>
<!-- CoreModule&#45;&gt;AppModule -->
<g id="edge3" class="edge">
<title>CoreModule&#45;&gt;AppModule</title>
<path fill="none" stroke="black" d="M1055,-122.11C1055,-141.34 1055,-169 1055,-169 1055,-169 738.86,-169 738.86,-169"/>
<polygon fill="black" stroke="black" points="738.86,-165.5 728.86,-169 738.86,-172.5 738.86,-165.5"/>
</g>
<!-- CryptoModule -->
<g id="node4" class="node">
<title>CryptoModule</title>
<polygon fill="#8dd3c7" stroke="black" points="993.44,-122 990.44,-126 969.44,-126 966.44,-122 894.56,-122 894.56,-86 993.44,-86 993.44,-122"/>
<text text-anchor="middle" x="944" y="-99.8" font-family="Times,serif" font-size="14.00">CryptoModule</text>
</g>
<!-- CryptoModule&#45;&gt;AppModule -->
<g id="edge4" class="edge">
<title>CryptoModule&#45;&gt;AppModule</title>
<path fill="none" stroke="black" d="M944,-122.02C944,-139.37 944,-163 944,-163 944,-163 738.86,-163 738.86,-163"/>
<polygon fill="black" stroke="black" points="738.86,-159.5 728.86,-163 738.86,-166.5 738.86,-159.5"/>
</g>
<!-- DatabaseModule -->
<g id="node5" class="node">
<title>DatabaseModule</title>
<polygon fill="#8dd3c7" stroke="black" points="876.35,-122 873.35,-126 852.35,-126 849.35,-122 765.65,-122 765.65,-86 876.35,-86 876.35,-122"/>
<text text-anchor="middle" x="821" y="-99.8" font-family="Times,serif" font-size="14.00">DatabaseModule</text>
</g>
<!-- DatabaseModule&#45;&gt;AppModule -->
<g id="edge5" class="edge">
<title>DatabaseModule&#45;&gt;AppModule</title>
<path fill="none" stroke="black" d="M821,-122.24C821,-137.57 821,-157 821,-157 821,-157 738.66,-157 738.66,-157"/>
<polygon fill="black" stroke="black" points="738.66,-153.5 728.66,-157 738.66,-160.5 738.66,-153.5"/>
</g>
<!-- EncryptionModule -->
<g id="node6" class="node">
<title>EncryptionModule</title>
<polygon fill="#8dd3c7" stroke="black" points="747.76,-122 744.76,-126 723.76,-126 720.76,-122 626.24,-122 626.24,-86 747.76,-86 747.76,-122"/>
<text text-anchor="middle" x="687" y="-99.8" font-family="Times,serif" font-size="14.00">EncryptionModule</text>
</g>
<!-- EncryptionModule&#45;&gt;AppModule -->
<g id="edge6" class="edge">
<title>EncryptionModule&#45;&gt;AppModule</title>
<path fill="none" stroke="black" d="M687,-122.11C687,-122.11 687,-140.99 687,-140.99"/>
<polygon fill="black" stroke="black" points="683.5,-140.99 687,-150.99 690.5,-140.99 683.5,-140.99"/>
</g>
<!-- IssuerModule -->
<g id="node7" class="node">
<title>IssuerModule</title>
<polygon fill="#8dd3c7" stroke="black" points="608.47,-122 605.47,-126 584.47,-126 581.47,-122 515.53,-122 515.53,-86 608.47,-86 608.47,-122"/>
<text text-anchor="middle" x="562" y="-99.8" font-family="Times,serif" font-size="14.00">IssuerModule</text>
</g>
<!-- IssuerModule&#45;&gt;AppModule -->
<g id="edge7" class="edge">
<title>IssuerModule&#45;&gt;AppModule</title>
<path fill="none" stroke="black" d="M562,-122.24C562,-137.57 562,-157 562,-157 562,-157 635.03,-157 635.03,-157"/>
<polygon fill="black" stroke="black" points="635.03,-160.5 645.03,-157 635.03,-153.5 635.03,-160.5"/>
</g>
<!-- RegistrarModule -->
<g id="node8" class="node">
<title>RegistrarModule</title>
<polygon fill="#8dd3c7" stroke="black" points="497.36,-122 494.36,-126 473.36,-126 470.36,-122 386.64,-122 386.64,-86 497.36,-86 497.36,-122"/>
<text text-anchor="middle" x="442" y="-99.8" font-family="Times,serif" font-size="14.00">RegistrarModule</text>
</g>
<!-- RegistrarModule&#45;&gt;AppModule -->
<g id="edge8" class="edge">
<title>RegistrarModule&#45;&gt;AppModule</title>
<path fill="none" stroke="black" d="M442,-122.02C442,-139.37 442,-163 442,-163 442,-163 635.16,-163 635.16,-163"/>
<polygon fill="black" stroke="black" points="635.16,-166.5 645.16,-163 635.16,-159.5 635.16,-166.5"/>
</g>
<!-- SessionModule -->
<g id="node9" class="node">
<title>SessionModule</title>
<polygon fill="#8dd3c7" stroke="black" points="368.33,-122 365.33,-126 344.33,-126 341.33,-122 265.67,-122 265.67,-86 368.33,-86 368.33,-122"/>
<text text-anchor="middle" x="317" y="-99.8" font-family="Times,serif" font-size="14.00">SessionModule</text>
</g>
<!-- SessionModule&#45;&gt;AppModule -->
<g id="edge9" class="edge">
<title>SessionModule&#45;&gt;AppModule</title>
<path fill="none" stroke="black" d="M317,-122.11C317,-141.34 317,-169 317,-169 317,-169 635.28,-169 635.28,-169"/>
<polygon fill="black" stroke="black" points="635.28,-172.5 645.28,-169 635.28,-165.5 635.28,-172.5"/>
</g>
<!-- StorageModule -->
<g id="node10" class="node">
<title>StorageModule</title>
<polygon fill="#8dd3c7" stroke="black" points="248.31,-122 245.31,-126 224.31,-126 221.31,-122 145.69,-122 145.69,-86 248.31,-86 248.31,-122"/>
<text text-anchor="middle" x="197" y="-99.8" font-family="Times,serif" font-size="14.00">StorageModule</text>
</g>
<!-- StorageModule&#45;&gt;AppModule -->
<g id="edge10" class="edge">
<title>StorageModule&#45;&gt;AppModule</title>
<path fill="none" stroke="black" d="M197,-122.28C197,-143.32 197,-175 197,-175 197,-175 635.22,-175 635.22,-175"/>
<polygon fill="black" stroke="black" points="635.22,-178.5 645.22,-175 635.22,-171.5 635.22,-178.5"/>
</g>
<!-- VerifierModule -->
<g id="node11" class="node">
<title>VerifierModule</title>
<polygon fill="#8dd3c7" stroke="black" points="127.85,-122 124.85,-126 103.85,-126 100.85,-122 24.15,-122 24.15,-86 127.85,-86 127.85,-122"/>
<text text-anchor="middle" x="76" y="-99.8" font-family="Times,serif" font-size="14.00">VerifierModule</text>
</g>
<!-- VerifierModule&#45;&gt;AppModule -->
<g id="edge11" class="edge">
<title>VerifierModule&#45;&gt;AppModule</title>
<path fill="none" stroke="black" d="M76,-122.09C76,-145.13 76,-182 76,-182 76,-182 635,-182 635,-182"/>
<polygon fill="black" stroke="black" points="635,-185.5 645,-182 635,-178.5 635,-185.5"/>
</g>
</g>
</svg>
