<?xml version="1.0" encoding="UTF-8" standalone="no"?>
<!DOCTYPE svg PUBLIC "-//W3C//DTD SVG 1.1//EN"
 "http://www.w3.org/Graphics/SVG/1.1/DTD/svg11.dtd">
<!-- Generated by graphviz version 2.47.0 (20210316.0004)
 -->
<!-- Title: dependencies Pages: 1 -->
<svg width="1401pt" height="211pt"
 viewBox="0.00 0.00 1401.00 211.00" xmlns="http://www.w3.org/2000/svg" xmlns:xlink="http://www.w3.org/1999/xlink">
<g id="graph0" class="graph" transform="scale(1 1) rotate(0) translate(4 207)">
<title>dependencies</title>
<polygon fill="white" stroke="transparent" points="-4,4 -4,-207 1397,-207 1397,4 -4,4"/>
<text text-anchor="start" x="675.51" y="-42.4" font-family="Times-12" font-weight="bold" font-size="14.00">Legend</text>
<polygon fill="#ffffb3" stroke="transparent" points="462.5,-10 462.5,-30 482.5,-30 482.5,-10 462.5,-10"/>
<text text-anchor="start" x="486.13" y="-15.4" font-family="Times-12" font-size="14.00"> &#160;Declarations</text>
<polygon fill="#8dd3c7" stroke="transparent" points="575.5,-10 575.5,-30 595.5,-30 595.5,-10 575.5,-10"/>
<text text-anchor="start" x="599.23" y="-15.4" font-family="Times-12" font-size="14.00"> &#160;Module</text>
<polygon fill="#80b1d3" stroke="transparent" points="661.5,-10 661.5,-30 681.5,-30 681.5,-10 661.5,-10"/>
<text text-anchor="start" x="685.28" y="-15.4" font-family="Times-12" font-size="14.00"> &#160;Bootstrap</text>
<polygon fill="#fdb462" stroke="transparent" points="758.5,-10 758.5,-30 778.5,-30 778.5,-10 758.5,-10"/>
<text text-anchor="start" x="782.17" y="-15.4" font-family="Times-12" font-size="14.00"> &#160;Providers</text>
<polygon fill="#fb8072" stroke="transparent" points="854.5,-10 854.5,-30 874.5,-30 874.5,-10 854.5,-10"/>
<text text-anchor="start" x="878.23" y="-15.4" font-family="Times-12" font-size="14.00"> &#160;Exports</text>
<g id="clust1" class="cluster">
<title>cluster_AppModule</title>
<polygon fill="none" stroke="black" stroke-dasharray="1,5" points="8,-70 8,-195 1385,-195 1385,-70 8,-70"/>
</g>
<g id="clust6" class="cluster">
<title>cluster_AppModule_providers</title>
<polygon fill="none" stroke="black" points="1187,-78 1187,-130 1377,-130 1377,-78 1187,-78"/>
</g>
<g id="clust3" class="cluster">
<title>cluster_AppModule_imports</title>
<polygon fill="none" stroke="black" points="16,-78 16,-130 1179,-130 1179,-78 16,-78"/>
</g>
<!-- AuthModule -->
<g id="node1" class="node">
<title>AuthModule</title>
<polygon fill="#8dd3c7" stroke="black" points="1170.55,-122 1167.55,-126 1146.55,-126 1143.55,-122 1083.45,-122 1083.45,-86 1170.55,-86 1170.55,-122"/>
<text text-anchor="middle" x="1127" y="-99.8" font-family="Times,serif" font-size="14.00">AuthModule</text>
</g>
<!-- AppModule -->
<g id="node11" class="node">
<title>AppModule</title>
<polygon fill="#8dd3c7" stroke="black" points="755.66,-187 752.66,-191 731.66,-191 728.66,-187 672.34,-187 672.34,-151 755.66,-151 755.66,-187"/>
<text text-anchor="middle" x="714" y="-164.8" font-family="Times,serif" font-size="14.00">AppModule</text>
</g>
<!-- AuthModule&#45;&gt;AppModule -->
<g id="edge1" class="edge">
<title>AuthModule&#45;&gt;AppModule</title>
<path fill="none" stroke="black" d="M1127,-122.28C1127,-143.32 1127,-175 1127,-175 1127,-175 765.87,-175 765.87,-175"/>
<polygon fill="black" stroke="black" points="765.87,-171.5 755.87,-175 765.87,-178.5 765.87,-171.5"/>
</g>
<!-- CryptoModule -->
<g id="node2" class="node">
<title>CryptoModule</title>
<polygon fill="#8dd3c7" stroke="black" points="1065.44,-122 1062.44,-126 1041.44,-126 1038.44,-122 966.56,-122 966.56,-86 1065.44,-86 1065.44,-122"/>
<text text-anchor="middle" x="1016" y="-99.8" font-family="Times,serif" font-size="14.00">CryptoModule</text>
</g>
<!-- CryptoModule&#45;&gt;AppModule -->
<g id="edge2" class="edge">
<title>CryptoModule&#45;&gt;AppModule</title>
<path fill="none" stroke="black" d="M1016,-122.11C1016,-141.34 1016,-169 1016,-169 1016,-169 765.67,-169 765.67,-169"/>
<polygon fill="black" stroke="black" points="765.67,-165.5 755.67,-169 765.67,-172.5 765.67,-165.5"/>
</g>
<!-- DatabaseModule -->
<g id="node3" class="node">
<title>DatabaseModule</title>
<polygon fill="#8dd3c7" stroke="black" points="948.35,-122 945.35,-126 924.35,-126 921.35,-122 837.65,-122 837.65,-86 948.35,-86 948.35,-122"/>
<text text-anchor="middle" x="893" y="-99.8" font-family="Times,serif" font-size="14.00">DatabaseModule</text>
</g>
<!-- DatabaseModule&#45;&gt;AppModule -->
<g id="edge3" class="edge">
<title>DatabaseModule&#45;&gt;AppModule</title>
<path fill="none" stroke="black" d="M911.48,-122.02C911.48,-139.37 911.48,-163 911.48,-163 911.48,-163 765.88,-163 765.88,-163"/>
<polygon fill="black" stroke="black" points="765.88,-159.5 755.88,-163 765.88,-166.5 765.88,-159.5"/>
</g>
<!-- DatabaseModule&#45;&gt;AppModule -->
<g id="edge4" class="edge">
<title>DatabaseModule&#45;&gt;AppModule</title>
<path fill="none" stroke="black" d="M874.52,-122.24C874.52,-137.57 874.52,-157 874.52,-157 874.52,-157 765.76,-157 765.76,-157"/>
<polygon fill="black" stroke="black" points="765.76,-153.5 755.76,-157 765.76,-160.5 765.76,-153.5"/>
</g>
<!-- HealthModule -->
<g id="node4" class="node">
<title>HealthModule</title>
<polygon fill="#8dd3c7" stroke="black" points="819.37,-122 816.37,-126 795.37,-126 792.37,-122 722.63,-122 722.63,-86 819.37,-86 819.37,-122"/>
<text text-anchor="middle" x="771" y="-99.8" font-family="Times,serif" font-size="14.00">HealthModule</text>
</g>
<!-- HealthModule&#45;&gt;AppModule -->
<g id="edge5" class="edge">
<title>HealthModule&#45;&gt;AppModule</title>
<path fill="none" stroke="black" d="M739.2,-122.11C739.2,-122.11 739.2,-140.99 739.2,-140.99"/>
<polygon fill="black" stroke="black" points="735.7,-140.99 739.2,-150.99 742.7,-140.99 735.7,-140.99"/>
</g>
<!-- IssuerModule -->
<g id="node5" class="node">
<title>IssuerModule</title>
<polygon fill="#8dd3c7" stroke="black" points="704.47,-122 701.47,-126 680.47,-126 677.47,-122 611.53,-122 611.53,-86 704.47,-86 704.47,-122"/>
<text text-anchor="middle" x="658" y="-99.8" font-family="Times,serif" font-size="14.00">IssuerModule</text>
</g>
<!-- IssuerModule&#45;&gt;AppModule -->
<g id="edge6" class="edge">
<title>IssuerModule&#45;&gt;AppModule</title>
<path fill="none" stroke="black" d="M688.33,-122.11C688.33,-122.11 688.33,-140.99 688.33,-140.99"/>
<polygon fill="black" stroke="black" points="684.83,-140.99 688.33,-150.99 691.83,-140.99 684.83,-140.99"/>
</g>
<!-- KeyModule -->
<g id="node6" class="node">
<title>KeyModule</title>
<polygon fill="#8dd3c7" stroke="black" points="593.37,-122 590.37,-126 569.37,-126 566.37,-122 510.63,-122 510.63,-86 593.37,-86 593.37,-122"/>
<text text-anchor="middle" x="552" y="-99.8" font-family="Times,serif" font-size="14.00">KeyModule</text>
</g>
<!-- KeyModule&#45;&gt;AppModule -->
<g id="edge7" class="edge">
<title>KeyModule&#45;&gt;AppModule</title>
<path fill="none" stroke="black" d="M552,-122.24C552,-137.57 552,-157 552,-157 552,-157 662.28,-157 662.28,-157"/>
<polygon fill="black" stroke="black" points="662.28,-160.5 672.28,-157 662.28,-153.5 662.28,-160.5"/>
</g>
<!-- MetricModule -->
<g id="node7" class="node">
<title>MetricModule</title>
<polygon fill="#8dd3c7" stroke="black" points="492.37,-122 489.37,-126 468.37,-126 465.37,-122 395.63,-122 395.63,-86 492.37,-86 492.37,-122"/>
<text text-anchor="middle" x="444" y="-99.8" font-family="Times,serif" font-size="14.00">MetricModule</text>
</g>
<!-- MetricModule&#45;&gt;AppModule -->
<g id="edge8" class="edge">
<title>MetricModule&#45;&gt;AppModule</title>
<path fill="none" stroke="black" d="M444,-122.02C444,-139.37 444,-163 444,-163 444,-163 662.11,-163 662.11,-163"/>
<polygon fill="black" stroke="black" points="662.11,-166.5 672.11,-163 662.11,-159.5 662.11,-166.5"/>
</g>
<!-- RegistrarModule -->
<g id="node8" class="node">
<title>RegistrarModule</title>
<polygon fill="#8dd3c7" stroke="black" points="377.36,-122 374.36,-126 353.36,-126 350.36,-122 266.64,-122 266.64,-86 377.36,-86 377.36,-122"/>
<text text-anchor="middle" x="322" y="-99.8" font-family="Times,serif" font-size="14.00">RegistrarModule</text>
</g>
<!-- RegistrarModule&#45;&gt;AppModule -->
<g id="edge9" class="edge">
<title>RegistrarModule&#45;&gt;AppModule</title>
<path fill="none" stroke="black" d="M322,-122.11C322,-141.34 322,-169 322,-169 322,-169 662.05,-169 662.05,-169"/>
<polygon fill="black" stroke="black" points="662.05,-172.5 672.05,-169 662.05,-165.5 662.05,-172.5"/>
</g>
<!-- SessionModule -->
<g id="node9" class="node">
<title>SessionModule</title>
<polygon fill="#8dd3c7" stroke="black" points="248.33,-122 245.33,-126 224.33,-126 221.33,-122 145.67,-122 145.67,-86 248.33,-86 248.33,-122"/>
<text text-anchor="middle" x="197" y="-99.8" font-family="Times,serif" font-size="14.00">SessionModule</text>
</g>
<!-- SessionModule&#45;&gt;AppModule -->
<g id="edge10" class="edge">
<title>SessionModule&#45;&gt;AppModule</title>
<path fill="none" stroke="black" d="M197,-122.28C197,-143.32 197,-175 197,-175 197,-175 662.13,-175 662.13,-175"/>
<polygon fill="black" stroke="black" points="662.13,-178.5 672.13,-175 662.13,-171.5 662.13,-178.5"/>
</g>
<!-- VerifierModule -->
<g id="node10" class="node">
<title>VerifierModule</title>
<polygon fill="#8dd3c7" stroke="black" points="127.85,-122 124.85,-126 103.85,-126 100.85,-122 24.15,-122 24.15,-86 127.85,-86 127.85,-122"/>
<text text-anchor="middle" x="76" y="-99.8" font-family="Times,serif" font-size="14.00">VerifierModule</text>
</g>
<!-- VerifierModule&#45;&gt;AppModule -->
<g id="edge11" class="edge">
<title>VerifierModule&#45;&gt;AppModule</title>
<path fill="none" stroke="black" d="M76,-122.09C76,-145.13 76,-182 76,-182 76,-182 662.14,-182 662.14,-182"/>
<polygon fill="black" stroke="black" points="662.14,-185.5 672.14,-182 662.14,-178.5 662.14,-185.5"/>
</g>
<!-- WellKnownService -->
<g id="node12" class="node">
<title>WellKnownService</title>
<ellipse fill="#fdb462" stroke="black" cx="1282" cy="-104" rx="87.38" ry="18"/>
<text text-anchor="middle" x="1282" y="-99.8" font-family="Times,serif" font-size="14.00">WellKnownService</text>
</g>
<!-- WellKnownService&#45;&gt;AppModule -->
<g id="edge12" class="edge">
<title>WellKnownService&#45;&gt;AppModule</title>
<path fill="none" stroke="black" d="M1282,-122.09C1282,-145.13 1282,-182 1282,-182 1282,-182 765.77,-182 765.77,-182"/>
<polygon fill="black" stroke="black" points="765.77,-178.5 755.77,-182 765.77,-185.5 765.77,-178.5"/>
</g>
</g>
</svg>
