<?xml version="1.0" encoding="UTF-8" standalone="no"?>
<!DOCTYPE svg PUBLIC "-//W3C//DTD SVG 1.1//EN"
 "http://www.w3.org/Graphics/SVG/1.1/DTD/svg11.dtd">
<!-- Generated by graphviz version 2.47.0 (20210316.0004)
 -->
<!-- Title: dependencies Pages: 1 -->
<svg width="1521pt" height="211pt"
 viewBox="0.00 0.00 1521.00 211.00" xmlns="http://www.w3.org/2000/svg" xmlns:xlink="http://www.w3.org/1999/xlink">
<g id="graph0" class="graph" transform="scale(1 1) rotate(0) translate(4 207)">
<title>dependencies</title>
<polygon fill="white" stroke="transparent" points="-4,4 -4,-207 1517,-207 1517,4 -4,4"/>
<text text-anchor="start" x="735.51" y="-42.4" font-family="Times-12" font-weight="bold" font-size="14.00">Legend</text>
<polygon fill="#ffffb3" stroke="transparent" points="522.5,-10 522.5,-30 542.5,-30 542.5,-10 522.5,-10"/>
<text text-anchor="start" x="546.13" y="-15.4" font-family="Times-12" font-size="14.00"> &#160;Declarations</text>
<polygon fill="#8dd3c7" stroke="transparent" points="635.5,-10 635.5,-30 655.5,-30 655.5,-10 635.5,-10"/>
<text text-anchor="start" x="659.23" y="-15.4" font-family="Times-12" font-size="14.00"> &#160;Module</text>
<polygon fill="#80b1d3" stroke="transparent" points="721.5,-10 721.5,-30 741.5,-30 741.5,-10 721.5,-10"/>
<text text-anchor="start" x="745.28" y="-15.4" font-family="Times-12" font-size="14.00"> &#160;Bootstrap</text>
<polygon fill="#fdb462" stroke="transparent" points="818.5,-10 818.5,-30 838.5,-30 838.5,-10 818.5,-10"/>
<text text-anchor="start" x="842.17" y="-15.4" font-family="Times-12" font-size="14.00"> &#160;Providers</text>
<polygon fill="#fb8072" stroke="transparent" points="914.5,-10 914.5,-30 934.5,-30 934.5,-10 914.5,-10"/>
<text text-anchor="start" x="938.23" y="-15.4" font-family="Times-12" font-size="14.00"> &#160;Exports</text>
<g id="clust1" class="cluster">
<title>cluster_AppModule</title>
<polygon fill="none" stroke="black" stroke-dasharray="1,5" points="8,-70 8,-195 1505,-195 1505,-70 8,-70"/>
</g>
<g id="clust6" class="cluster">
<title>cluster_AppModule_providers</title>
<polygon fill="none" stroke="black" points="1307,-78 1307,-130 1497,-130 1497,-78 1307,-78"/>
</g>
<g id="clust3" class="cluster">
<title>cluster_AppModule_imports</title>
<polygon fill="none" stroke="black" points="16,-78 16,-130 1299,-130 1299,-78 16,-78"/>
</g>
<!-- AuthModule -->
<g id="node1" class="node">
<title>AuthModule</title>
<polygon fill="#8dd3c7" stroke="black" points="1290.55,-122 1287.55,-126 1266.55,-126 1263.55,-122 1203.45,-122 1203.45,-86 1290.55,-86 1290.55,-122"/>
<text text-anchor="middle" x="1247" y="-99.8" font-family="Times,serif" font-size="14.00">AuthModule</text>
</g>
<!-- AppModule -->
<g id="node12" class="node">
<title>AppModule</title>
<polygon fill="#8dd3c7" stroke="black" points="819.66,-187 816.66,-191 795.66,-191 792.66,-187 736.34,-187 736.34,-151 819.66,-151 819.66,-187"/>
<text text-anchor="middle" x="778" y="-164.8" font-family="Times,serif" font-size="14.00">AppModule</text>
</g>
<!-- AuthModule&#45;&gt;AppModule -->
<g id="edge1" class="edge">
<title>AuthModule&#45;&gt;AppModule</title>
<path fill="none" stroke="black" d="M1247,-122.04C1247,-143.66 1247,-177 1247,-177 1247,-177 830.03,-177 830.03,-177"/>
<polygon fill="black" stroke="black" points="830.03,-173.5 820.03,-177 830.03,-180.5 830.03,-173.5"/>
</g>
<!-- CryptoModule -->
<g id="node2" class="node">
<title>CryptoModule</title>
<polygon fill="#8dd3c7" stroke="black" points="1185.44,-122 1182.44,-126 1161.44,-126 1158.44,-122 1086.56,-122 1086.56,-86 1185.44,-86 1185.44,-122"/>
<text text-anchor="middle" x="1136" y="-99.8" font-family="Times,serif" font-size="14.00">CryptoModule</text>
</g>
<!-- CryptoModule&#45;&gt;AppModule -->
<g id="edge2" class="edge">
<title>CryptoModule&#45;&gt;AppModule</title>
<path fill="none" stroke="black" d="M1136,-122.22C1136,-142.37 1136,-172 1136,-172 1136,-172 829.77,-172 829.77,-172"/>
<polygon fill="black" stroke="black" points="829.77,-168.5 819.77,-172 829.77,-175.5 829.77,-168.5"/>
</g>
<!-- DatabaseModule -->
<g id="node3" class="node">
<title>DatabaseModule</title>
<polygon fill="#8dd3c7" stroke="black" points="1068.35,-122 1065.35,-126 1044.35,-126 1041.35,-122 957.65,-122 957.65,-86 1068.35,-86 1068.35,-122"/>
<text text-anchor="middle" x="1013" y="-99.8" font-family="Times,serif" font-size="14.00">DatabaseModule</text>
</g>
<!-- DatabaseModule&#45;&gt;AppModule -->
<g id="edge3" class="edge">
<title>DatabaseModule&#45;&gt;AppModule</title>
<path fill="none" stroke="black" d="M1031.47,-122.22C1031.47,-140.83 1031.47,-167 1031.47,-167 1031.47,-167 829.86,-167 829.86,-167"/>
<polygon fill="black" stroke="black" points="829.86,-163.5 819.86,-167 829.86,-170.5 829.86,-163.5"/>
</g>
<!-- DatabaseModule&#45;&gt;AppModule -->
<g id="edge4" class="edge">
<title>DatabaseModule&#45;&gt;AppModule</title>
<path fill="none" stroke="black" d="M994.52,-122.03C994.52,-139.06 994.52,-162 994.52,-162 994.52,-162 829.75,-162 829.75,-162"/>
<polygon fill="black" stroke="black" points="829.75,-158.5 819.75,-162 829.75,-165.5 829.75,-158.5"/>
</g>
<!-- HealthModule -->
<g id="node4" class="node">
<title>HealthModule</title>
<polygon fill="#8dd3c7" stroke="black" points="939.37,-122 936.37,-126 915.37,-126 912.37,-122 842.63,-122 842.63,-86 939.37,-86 939.37,-122"/>
<text text-anchor="middle" x="891" y="-99.8" font-family="Times,serif" font-size="14.00">HealthModule</text>
</g>
<!-- HealthModule&#45;&gt;AppModule -->
<g id="edge5" class="edge">
<title>HealthModule&#45;&gt;AppModule</title>
<path fill="none" stroke="black" d="M891,-122.24C891,-137.57 891,-157 891,-157 891,-157 829.76,-157 829.76,-157"/>
<polygon fill="black" stroke="black" points="829.76,-153.5 819.76,-157 829.76,-160.5 829.76,-153.5"/>
</g>
<!-- IssuerModule -->
<g id="node5" class="node">
<title>IssuerModule</title>
<polygon fill="#8dd3c7" stroke="black" points="824.47,-122 821.47,-126 800.47,-126 797.47,-122 731.53,-122 731.53,-86 824.47,-86 824.47,-122"/>
<text text-anchor="middle" x="778" y="-99.8" font-family="Times,serif" font-size="14.00">IssuerModule</text>
</g>
<!-- IssuerModule&#45;&gt;AppModule -->
<g id="edge6" class="edge">
<title>IssuerModule&#45;&gt;AppModule</title>
<path fill="none" stroke="black" d="M778,-122.11C778,-122.11 778,-140.99 778,-140.99"/>
<polygon fill="black" stroke="black" points="774.5,-140.99 778,-150.99 781.5,-140.99 774.5,-140.99"/>
</g>
<!-- KeyModule -->
<g id="node6" class="node">
<title>KeyModule</title>
<polygon fill="#8dd3c7" stroke="black" points="713.37,-122 710.37,-126 689.37,-126 686.37,-122 630.63,-122 630.63,-86 713.37,-86 713.37,-122"/>
<text text-anchor="middle" x="672" y="-99.8" font-family="Times,serif" font-size="14.00">KeyModule</text>
</g>
<!-- KeyModule&#45;&gt;AppModule -->
<g id="edge7" class="edge">
<title>KeyModule&#45;&gt;AppModule</title>
<path fill="none" stroke="black" d="M672,-122.24C672,-137.57 672,-157 672,-157 672,-157 726.11,-157 726.11,-157"/>
<polygon fill="black" stroke="black" points="726.11,-160.5 736.11,-157 726.11,-153.5 726.11,-160.5"/>
</g>
<!-- MetricModule -->
<g id="node7" class="node">
<title>MetricModule</title>
<polygon fill="#8dd3c7" stroke="black" points="612.37,-122 609.37,-126 588.37,-126 585.37,-122 515.63,-122 515.63,-86 612.37,-86 612.37,-122"/>
<text text-anchor="middle" x="564" y="-99.8" font-family="Times,serif" font-size="14.00">MetricModule</text>
</g>
<!-- MetricModule&#45;&gt;AppModule -->
<g id="edge8" class="edge">
<title>MetricModule&#45;&gt;AppModule</title>
<path fill="none" stroke="black" d="M564,-122.03C564,-139.06 564,-162 564,-162 564,-162 726.23,-162 726.23,-162"/>
<polygon fill="black" stroke="black" points="726.23,-165.5 736.23,-162 726.23,-158.5 726.23,-165.5"/>
</g>
<!-- RegistrarModule -->
<g id="node8" class="node">
<title>RegistrarModule</title>
<polygon fill="#8dd3c7" stroke="black" points="497.36,-122 494.36,-126 473.36,-126 470.36,-122 386.64,-122 386.64,-86 497.36,-86 497.36,-122"/>
<text text-anchor="middle" x="442" y="-99.8" font-family="Times,serif" font-size="14.00">RegistrarModule</text>
</g>
<!-- RegistrarModule&#45;&gt;AppModule -->
<g id="edge9" class="edge">
<title>RegistrarModule&#45;&gt;AppModule</title>
<path fill="none" stroke="black" d="M442,-122.22C442,-140.83 442,-167 442,-167 442,-167 726.12,-167 726.12,-167"/>
<polygon fill="black" stroke="black" points="726.12,-170.5 736.12,-167 726.12,-163.5 726.12,-170.5"/>
</g>
<!-- SessionModule -->
<g id="node9" class="node">
<title>SessionModule</title>
<polygon fill="#8dd3c7" stroke="black" points="368.33,-122 365.33,-126 344.33,-126 341.33,-122 265.67,-122 265.67,-86 368.33,-86 368.33,-122"/>
<text text-anchor="middle" x="317" y="-99.8" font-family="Times,serif" font-size="14.00">SessionModule</text>
</g>
<!-- SessionModule&#45;&gt;AppModule -->
<g id="edge10" class="edge">
<title>SessionModule&#45;&gt;AppModule</title>
<path fill="none" stroke="black" d="M317,-122.22C317,-142.37 317,-172 317,-172 317,-172 726.28,-172 726.28,-172"/>
<polygon fill="black" stroke="black" points="726.28,-175.5 736.28,-172 726.28,-168.5 726.28,-175.5"/>
</g>
<!-- StorageModule -->
<g id="node10" class="node">
<title>StorageModule</title>
<polygon fill="#8dd3c7" stroke="black" points="248.31,-122 245.31,-126 224.31,-126 221.31,-122 145.69,-122 145.69,-86 248.31,-86 248.31,-122"/>
<text text-anchor="middle" x="197" y="-99.8" font-family="Times,serif" font-size="14.00">StorageModule</text>
</g>
<!-- StorageModule&#45;&gt;AppModule -->
<g id="edge11" class="edge">
<title>StorageModule&#45;&gt;AppModule</title>
<path fill="none" stroke="black" d="M197,-122.04C197,-143.66 197,-177 197,-177 197,-177 726.22,-177 726.22,-177"/>
<polygon fill="black" stroke="black" points="726.22,-180.5 736.22,-177 726.22,-173.5 726.22,-180.5"/>
</g>
<!-- VerifierModule -->
<g id="node11" class="node">
<title>VerifierModule</title>
<polygon fill="#8dd3c7" stroke="black" points="127.85,-122 124.85,-126 103.85,-126 100.85,-122 24.15,-122 24.15,-86 127.85,-86 127.85,-122"/>
<text text-anchor="middle" x="76" y="-99.8" font-family="Times,serif" font-size="14.00">VerifierModule</text>
</g>
<!-- VerifierModule&#45;&gt;AppModule -->
<g id="edge12" class="edge">
<title>VerifierModule&#45;&gt;AppModule</title>
<path fill="none" stroke="black" d="M76,-122.09C76,-145.13 76,-182 76,-182 76,-182 726.19,-182 726.19,-182"/>
<polygon fill="black" stroke="black" points="726.19,-185.5 736.19,-182 726.19,-178.5 726.19,-185.5"/>
</g>
<!-- WellKnownService -->
<g id="node13" class="node">
<title>WellKnownService</title>
<ellipse fill="#fdb462" stroke="black" cx="1402" cy="-104" rx="87.38" ry="18"/>
<text text-anchor="middle" x="1402" y="-99.8" font-family="Times,serif" font-size="14.00">WellKnownService</text>
</g>
<!-- WellKnownService&#45;&gt;AppModule -->
<g id="edge13" class="edge">
<title>WellKnownService&#45;&gt;AppModule</title>
<path fill="none" stroke="black" d="M1402,-122.09C1402,-145.13 1402,-182 1402,-182 1402,-182 829.91,-182 829.91,-182"/>
<polygon fill="black" stroke="black" points="829.91,-178.5 819.91,-182 829.91,-185.5 829.91,-178.5"/>
</g>
</g>
</svg>
