<?xml version="1.0" encoding="UTF-8" standalone="no"?>
<!DOCTYPE svg PUBLIC "-//W3C//DTD SVG 1.1//EN"
 "http://www.w3.org/Graphics/SVG/1.1/DTD/svg11.dtd">
<!-- Generated by graphviz version 2.47.0 (20210316.0004)
 -->
<!-- Title: dependencies Pages: 1 -->
<svg width="1508pt" height="211pt"
 viewBox="0.00 0.00 1508.00 211.00" xmlns="http://www.w3.org/2000/svg" xmlns:xlink="http://www.w3.org/1999/xlink">
<g id="graph0" class="graph" transform="scale(1 1) rotate(0) translate(4 207)">
<title>dependencies</title>
<polygon fill="white" stroke="transparent" points="-4,4 -4,-207 1504,-207 1504,4 -4,4"/>
<text text-anchor="start" x="729.01" y="-42.4" font-family="Times-12" font-weight="bold" font-size="14.00">Legend</text>
<polygon fill="#ffffb3" stroke="transparent" points="516,-10 516,-30 536,-30 536,-10 516,-10"/>
<text text-anchor="start" x="539.63" y="-15.4" font-family="Times-12" font-size="14.00"> &#160;Declarations</text>
<polygon fill="#8dd3c7" stroke="transparent" points="629,-10 629,-30 649,-30 649,-10 629,-10"/>
<text text-anchor="start" x="652.73" y="-15.4" font-family="Times-12" font-size="14.00"> &#160;Module</text>
<polygon fill="#80b1d3" stroke="transparent" points="715,-10 715,-30 735,-30 735,-10 715,-10"/>
<text text-anchor="start" x="738.78" y="-15.4" font-family="Times-12" font-size="14.00"> &#160;Bootstrap</text>
<polygon fill="#fdb462" stroke="transparent" points="812,-10 812,-30 832,-30 832,-10 812,-10"/>
<text text-anchor="start" x="835.67" y="-15.4" font-family="Times-12" font-size="14.00"> &#160;Providers</text>
<polygon fill="#fb8072" stroke="transparent" points="908,-10 908,-30 928,-30 928,-10 908,-10"/>
<text text-anchor="start" x="931.73" y="-15.4" font-family="Times-12" font-size="14.00"> &#160;Exports</text>
<g id="clust1" class="cluster">
<title>cluster_AppModule</title>
<polygon fill="none" stroke="black" stroke-dasharray="1,5" points="8,-70 8,-195 1492,-195 1492,-70 8,-70"/>
</g>
<g id="clust3" class="cluster">
<title>cluster_AppModule_imports</title>
<polygon fill="none" stroke="black" points="16,-78 16,-130 1484,-130 1484,-78 16,-78"/>
</g>
<!-- AuthModule -->
<g id="node1" class="node">
<title>AuthModule</title>
<polygon fill="#8dd3c7" stroke="black" points="1475.55,-122 1472.55,-126 1451.55,-126 1448.55,-122 1388.45,-122 1388.45,-86 1475.55,-86 1475.55,-122"/>
<text text-anchor="middle" x="1432" y="-99.8" font-family="Times,serif" font-size="14.00">AuthModule</text>
</g>
<!-- AppModule -->
<g id="node13" class="node">
<title>AppModule</title>
<polygon fill="#8dd3c7" stroke="black" points="782.66,-187 779.66,-191 758.66,-191 755.66,-187 699.34,-187 699.34,-151 782.66,-151 782.66,-187"/>
<text text-anchor="middle" x="741" y="-164.8" font-family="Times,serif" font-size="14.00">AppModule</text>
</g>
<!-- AuthModule&#45;&gt;AppModule -->
<g id="edge1" class="edge">
<title>AuthModule&#45;&gt;AppModule</title>
<path fill="none" stroke="black" d="M1432,-122.09C1432,-145.13 1432,-182 1432,-182 1432,-182 792.67,-182 792.67,-182"/>
<polygon fill="black" stroke="black" points="792.67,-178.5 782.67,-182 792.67,-185.5 792.67,-178.5"/>
</g>
<!-- ConfigImportModule -->
<g id="node2" class="node">
<title>ConfigImportModule</title>
<polygon fill="#8dd3c7" stroke="black" points="1370.04,-122 1367.04,-126 1346.04,-126 1343.04,-122 1233.96,-122 1233.96,-86 1370.04,-86 1370.04,-122"/>
<text text-anchor="middle" x="1302" y="-99.8" font-family="Times,serif" font-size="14.00">ConfigImportModule</text>
</g>
<!-- ConfigImportModule&#45;&gt;AppModule -->
<g id="edge2" class="edge">
<title>ConfigImportModule&#45;&gt;AppModule</title>
<path fill="none" stroke="black" d="M1302,-122.28C1302,-143.32 1302,-175 1302,-175 1302,-175 792.71,-175 792.71,-175"/>
<polygon fill="black" stroke="black" points="792.71,-171.5 782.71,-175 792.71,-178.5 792.71,-171.5"/>
</g>
<!-- CoreModule -->
<g id="node3" class="node">
<title>CoreModule</title>
<polygon fill="#8dd3c7" stroke="black" points="1215.26,-122 1212.26,-126 1191.26,-126 1188.26,-122 1128.74,-122 1128.74,-86 1215.26,-86 1215.26,-122"/>
<text text-anchor="middle" x="1172" y="-99.8" font-family="Times,serif" font-size="14.00">CoreModule</text>
</g>
<!-- CoreModule&#45;&gt;AppModule -->
<g id="edge3" class="edge">
<title>CoreModule&#45;&gt;AppModule</title>
<path fill="none" stroke="black" d="M1172,-122.11C1172,-141.34 1172,-169 1172,-169 1172,-169 792.72,-169 792.72,-169"/>
<polygon fill="black" stroke="black" points="792.72,-165.5 782.72,-169 792.72,-172.5 792.72,-165.5"/>
</g>
<!-- CryptoModule -->
<g id="node4" class="node">
<title>CryptoModule</title>
<polygon fill="#8dd3c7" stroke="black" points="1110.44,-122 1107.44,-126 1086.44,-126 1083.44,-122 1011.56,-122 1011.56,-86 1110.44,-86 1110.44,-122"/>
<text text-anchor="middle" x="1061" y="-99.8" font-family="Times,serif" font-size="14.00">CryptoModule</text>
</g>
<!-- CryptoModule&#45;&gt;AppModule -->
<g id="edge4" class="edge">
<title>CryptoModule&#45;&gt;AppModule</title>
<path fill="none" stroke="black" d="M1061,-122.02C1061,-139.37 1061,-163 1061,-163 1061,-163 792.83,-163 792.83,-163"/>
<polygon fill="black" stroke="black" points="792.83,-159.5 782.83,-163 792.83,-166.5 792.83,-159.5"/>
</g>
<!-- DatabaseModule -->
<g id="node5" class="node">
<title>DatabaseModule</title>
<polygon fill="#8dd3c7" stroke="black" points="993.35,-122 990.35,-126 969.35,-126 966.35,-122 882.65,-122 882.65,-86 993.35,-86 993.35,-122"/>
<text text-anchor="middle" x="938" y="-99.8" font-family="Times,serif" font-size="14.00">DatabaseModule</text>
</g>
<!-- DatabaseModule&#45;&gt;AppModule -->
<g id="edge5" class="edge">
<title>DatabaseModule&#45;&gt;AppModule</title>
<path fill="none" stroke="black" d="M938,-122.24C938,-137.57 938,-157 938,-157 938,-157 792.78,-157 792.78,-157"/>
<polygon fill="black" stroke="black" points="792.78,-153.5 782.78,-157 792.78,-160.5 792.78,-153.5"/>
</g>
<!-- EncryptionModule -->
<g id="node6" class="node">
<title>EncryptionModule</title>
<polygon fill="#8dd3c7" stroke="black" points="864.76,-122 861.76,-126 840.76,-126 837.76,-122 743.24,-122 743.24,-86 864.76,-86 864.76,-122"/>
<text text-anchor="middle" x="804" y="-99.8" font-family="Times,serif" font-size="14.00">EncryptionModule</text>
</g>
<!-- EncryptionModule&#45;&gt;AppModule -->
<g id="edge6" class="edge">
<title>EncryptionModule&#45;&gt;AppModule</title>
<path fill="none" stroke="black" d="M762.97,-122.11C762.97,-122.11 762.97,-140.99 762.97,-140.99"/>
<polygon fill="black" stroke="black" points="759.47,-140.99 762.97,-150.99 766.47,-140.99 759.47,-140.99"/>
</g>
<!-- IssuerModule -->
<g id="node7" class="node">
<title>IssuerModule</title>
<polygon fill="#8dd3c7" stroke="black" points="725.47,-122 722.47,-126 701.47,-126 698.47,-122 632.53,-122 632.53,-86 725.47,-86 725.47,-122"/>
<text text-anchor="middle" x="679" y="-99.8" font-family="Times,serif" font-size="14.00">IssuerModule</text>
</g>
<!-- IssuerModule&#45;&gt;AppModule -->
<g id="edge7" class="edge">
<title>IssuerModule&#45;&gt;AppModule</title>
<path fill="none" stroke="black" d="M712.33,-122.11C712.33,-122.11 712.33,-140.99 712.33,-140.99"/>
<polygon fill="black" stroke="black" points="708.83,-140.99 712.33,-150.99 715.83,-140.99 708.83,-140.99"/>
</g>
<!-- LoggerModule -->
<g id="node8" class="node">
<title>LoggerModule</title>
<polygon fill="#8dd3c7" stroke="black" points="614.98,-122 611.98,-126 590.98,-126 587.98,-122 515.02,-122 515.02,-86 614.98,-86 614.98,-122"/>
<text text-anchor="middle" x="565" y="-99.8" font-family="Times,serif" font-size="14.00">LoggerModule</text>
</g>
<!-- LoggerModule&#45;&gt;AppModule -->
<g id="edge8" class="edge">
<title>LoggerModule&#45;&gt;AppModule</title>
<path fill="none" stroke="black" d="M565,-122.24C565,-137.57 565,-157 565,-157 565,-157 689.29,-157 689.29,-157"/>
<polygon fill="black" stroke="black" points="689.29,-160.5 699.29,-157 689.29,-153.5 689.29,-160.5"/>
</g>
<!-- RegistrarModule -->
<g id="node9" class="node">
<title>RegistrarModule</title>
<polygon fill="#8dd3c7" stroke="black" points="497.36,-122 494.36,-126 473.36,-126 470.36,-122 386.64,-122 386.64,-86 497.36,-86 497.36,-122"/>
<text text-anchor="middle" x="442" y="-99.8" font-family="Times,serif" font-size="14.00">RegistrarModule</text>
</g>
<!-- RegistrarModule&#45;&gt;AppModule -->
<g id="edge9" class="edge">
<title>RegistrarModule&#45;&gt;AppModule</title>
<path fill="none" stroke="black" d="M442,-122.02C442,-139.37 442,-163 442,-163 442,-163 689.11,-163 689.11,-163"/>
<polygon fill="black" stroke="black" points="689.11,-166.5 699.11,-163 689.11,-159.5 689.11,-166.5"/>
</g>
<!-- SessionModule -->
<g id="node10" class="node">
<title>SessionModule</title>
<polygon fill="#8dd3c7" stroke="black" points="368.33,-122 365.33,-126 344.33,-126 341.33,-122 265.67,-122 265.67,-86 368.33,-86 368.33,-122"/>
<text text-anchor="middle" x="317" y="-99.8" font-family="Times,serif" font-size="14.00">SessionModule</text>
</g>
<!-- SessionModule&#45;&gt;AppModule -->
<g id="edge10" class="edge">
<title>SessionModule&#45;&gt;AppModule</title>
<path fill="none" stroke="black" d="M317,-122.11C317,-141.34 317,-169 317,-169 317,-169 689.18,-169 689.18,-169"/>
<polygon fill="black" stroke="black" points="689.18,-172.5 699.18,-169 689.18,-165.5 689.18,-172.5"/>
</g>
<!-- StorageModule -->
<g id="node11" class="node">
<title>StorageModule</title>
<polygon fill="#8dd3c7" stroke="black" points="248.31,-122 245.31,-126 224.31,-126 221.31,-122 145.69,-122 145.69,-86 248.31,-86 248.31,-122"/>
<text text-anchor="middle" x="197" y="-99.8" font-family="Times,serif" font-size="14.00">StorageModule</text>
</g>
<!-- StorageModule&#45;&gt;AppModule -->
<g id="edge11" class="edge">
<title>StorageModule&#45;&gt;AppModule</title>
<path fill="none" stroke="black" d="M197,-122.28C197,-143.32 197,-175 197,-175 197,-175 689.22,-175 689.22,-175"/>
<polygon fill="black" stroke="black" points="689.22,-178.5 699.22,-175 689.22,-171.5 689.22,-178.5"/>
</g>
<!-- VerifierModule -->
<g id="node12" class="node">
<title>VerifierModule</title>
<polygon fill="#8dd3c7" stroke="black" points="127.85,-122 124.85,-126 103.85,-126 100.85,-122 24.15,-122 24.15,-86 127.85,-86 127.85,-122"/>
<text text-anchor="middle" x="76" y="-99.8" font-family="Times,serif" font-size="14.00">VerifierModule</text>
</g>
<!-- VerifierModule&#45;&gt;AppModule -->
<g id="edge12" class="edge">
<title>VerifierModule&#45;&gt;AppModule</title>
<path fill="none" stroke="black" d="M76,-122.09C76,-145.13 76,-182 76,-182 76,-182 689.15,-182 689.15,-182"/>
<polygon fill="black" stroke="black" points="689.15,-185.5 699.15,-182 689.15,-178.5 689.15,-185.5"/>
</g>
</g>
</svg>
