<?xml version="1.0" encoding="UTF-8" standalone="no"?>
<!DOCTYPE svg PUBLIC "-//W3C//DTD SVG 1.1//EN"
 "http://www.w3.org/Graphics/SVG/1.1/DTD/svg11.dtd">
<!-- Generated by graphviz version 2.47.0 (20210316.0004)
 -->
<!-- Title: dependencies Pages: 1 -->
<svg width="1792pt" height="211pt"
 viewBox="0.00 0.00 1792.00 211.00" xmlns="http://www.w3.org/2000/svg" xmlns:xlink="http://www.w3.org/1999/xlink">
<g id="graph0" class="graph" transform="scale(1 1) rotate(0) translate(4 207)">
<title>dependencies</title>
<polygon fill="white" stroke="transparent" points="-4,4 -4,-207 1788,-207 1788,4 -4,4"/>
<text text-anchor="start" x="871.01" y="-42.4" font-family="Times-12" font-weight="bold" font-size="14.00">Legend</text>
<polygon fill="#ffffb3" stroke="transparent" points="658,-10 658,-30 678,-30 678,-10 658,-10"/>
<text text-anchor="start" x="681.63" y="-15.4" font-family="Times-12" font-size="14.00"> &#160;Declarations</text>
<polygon fill="#8dd3c7" stroke="transparent" points="771,-10 771,-30 791,-30 791,-10 771,-10"/>
<text text-anchor="start" x="794.73" y="-15.4" font-family="Times-12" font-size="14.00"> &#160;Module</text>
<polygon fill="#80b1d3" stroke="transparent" points="857,-10 857,-30 877,-30 877,-10 857,-10"/>
<text text-anchor="start" x="880.78" y="-15.4" font-family="Times-12" font-size="14.00"> &#160;Bootstrap</text>
<polygon fill="#fdb462" stroke="transparent" points="954,-10 954,-30 974,-30 974,-10 954,-10"/>
<text text-anchor="start" x="977.67" y="-15.4" font-family="Times-12" font-size="14.00"> &#160;Providers</text>
<polygon fill="#fb8072" stroke="transparent" points="1050,-10 1050,-30 1070,-30 1070,-10 1050,-10"/>
<text text-anchor="start" x="1073.73" y="-15.4" font-family="Times-12" font-size="14.00"> &#160;Exports</text>
<g id="clust1" class="cluster">
<title>cluster_AppModule</title>
<polygon fill="none" stroke="black" stroke-dasharray="1,5" points="8,-70 8,-195 1776,-195 1776,-70 8,-70"/>
</g>
<g id="clust6" class="cluster">
<title>cluster_AppModule_providers</title>
<polygon fill="none" stroke="black" points="1578,-78 1578,-130 1768,-130 1768,-78 1578,-78"/>
</g>
<g id="clust3" class="cluster">
<title>cluster_AppModule_imports</title>
<polygon fill="none" stroke="black" points="16,-78 16,-130 1570,-130 1570,-78 16,-78"/>
</g>
<!-- AuthModule -->
<g id="node1" class="node">
<title>AuthModule</title>
<polygon fill="#8dd3c7" stroke="black" points="1561.55,-122 1558.55,-126 1537.55,-126 1534.55,-122 1474.45,-122 1474.45,-86 1561.55,-86 1561.55,-122"/>
<text text-anchor="middle" x="1518" y="-99.8" font-family="Times,serif" font-size="14.00">AuthModule</text>
</g>
<!-- AppModule -->
<g id="node14" class="node">
<title>AppModule</title>
<polygon fill="#8dd3c7" stroke="black" points="936.66,-187 933.66,-191 912.66,-191 909.66,-187 853.34,-187 853.34,-151 936.66,-151 936.66,-187"/>
<text text-anchor="middle" x="895" y="-164.8" font-family="Times,serif" font-size="14.00">AppModule</text>
</g>
<!-- AuthModule&#45;&gt;AppModule -->
<g id="edge1" class="edge">
<title>AuthModule&#45;&gt;AppModule</title>
<path fill="none" stroke="black" d="M1518,-122.29C1518,-144.21 1518,-178 1518,-178 1518,-178 946.84,-178 946.84,-178"/>
<polygon fill="black" stroke="black" points="946.84,-174.5 936.84,-178 946.84,-181.5 946.84,-174.5"/>
</g>
<!-- ConfigImportModule -->
<g id="node2" class="node">
<title>ConfigImportModule</title>
<polygon fill="#8dd3c7" stroke="black" points="1456.04,-122 1453.04,-126 1432.04,-126 1429.04,-122 1319.96,-122 1319.96,-86 1456.04,-86 1456.04,-122"/>
<text text-anchor="middle" x="1388" y="-99.8" font-family="Times,serif" font-size="14.00">ConfigImportModule</text>
</g>
<!-- ConfigImportModule&#45;&gt;AppModule -->
<g id="edge2" class="edge">
<title>ConfigImportModule&#45;&gt;AppModule</title>
<path fill="none" stroke="black" d="M1388,-122.03C1388,-142.77 1388,-174 1388,-174 1388,-174 947.03,-174 947.03,-174"/>
<polygon fill="black" stroke="black" points="947.03,-170.5 937.03,-174 947.03,-177.5 947.03,-170.5"/>
</g>
<!-- CryptoModule -->
<g id="node3" class="node">
<title>CryptoModule</title>
<polygon fill="#8dd3c7" stroke="black" points="1302.44,-122 1299.44,-126 1278.44,-126 1275.44,-122 1203.56,-122 1203.56,-86 1302.44,-86 1302.44,-122"/>
<text text-anchor="middle" x="1253" y="-99.8" font-family="Times,serif" font-size="14.00">CryptoModule</text>
</g>
<!-- CryptoModule&#45;&gt;AppModule -->
<g id="edge3" class="edge">
<title>CryptoModule&#45;&gt;AppModule</title>
<path fill="none" stroke="black" d="M1253,-122.11C1253,-141.34 1253,-169 1253,-169 1253,-169 946.77,-169 946.77,-169"/>
<polygon fill="black" stroke="black" points="946.77,-165.5 936.77,-169 946.77,-172.5 946.77,-165.5"/>
</g>
<!-- DatabaseModule -->
<g id="node4" class="node">
<title>DatabaseModule</title>
<polygon fill="#8dd3c7" stroke="black" points="1185.35,-122 1182.35,-126 1161.35,-126 1158.35,-122 1074.65,-122 1074.65,-86 1185.35,-86 1185.35,-122"/>
<text text-anchor="middle" x="1130" y="-99.8" font-family="Times,serif" font-size="14.00">DatabaseModule</text>
</g>
<!-- DatabaseModule&#45;&gt;AppModule -->
<g id="edge4" class="edge">
<title>DatabaseModule&#45;&gt;AppModule</title>
<path fill="none" stroke="black" d="M1111.53,-122.03C1111.53,-138.4 1111.53,-160 1111.53,-160 1111.53,-160 946.75,-160 946.75,-160"/>
<polygon fill="black" stroke="black" points="946.75,-156.5 936.75,-160 946.75,-163.5 946.75,-156.5"/>
</g>
<!-- DatabaseModule&#45;&gt;AppModule -->
<g id="edge5" class="edge">
<title>DatabaseModule&#45;&gt;AppModule</title>
<path fill="none" stroke="black" d="M1148.47,-122.3C1148.47,-140.27 1148.47,-165 1148.47,-165 1148.47,-165 946.86,-165 946.86,-165"/>
<polygon fill="black" stroke="black" points="946.86,-161.5 936.86,-165 946.86,-168.5 946.86,-161.5"/>
</g>
<!-- HealthModule -->
<g id="node5" class="node">
<title>HealthModule</title>
<polygon fill="#8dd3c7" stroke="black" points="1056.37,-122 1053.37,-126 1032.37,-126 1029.37,-122 959.63,-122 959.63,-86 1056.37,-86 1056.37,-122"/>
<text text-anchor="middle" x="1008" y="-99.8" font-family="Times,serif" font-size="14.00">HealthModule</text>
</g>
<!-- HealthModule&#45;&gt;AppModule -->
<g id="edge6" class="edge">
<title>HealthModule&#45;&gt;AppModule</title>
<path fill="none" stroke="black" d="M1008,-122.19C1008,-137.18 1008,-156 1008,-156 1008,-156 946.76,-156 946.76,-156"/>
<polygon fill="black" stroke="black" points="946.76,-152.5 936.76,-156 946.76,-159.5 946.76,-152.5"/>
</g>
<!-- IssuerModule -->
<g id="node6" class="node">
<title>IssuerModule</title>
<polygon fill="#8dd3c7" stroke="black" points="941.47,-122 938.47,-126 917.47,-126 914.47,-122 848.53,-122 848.53,-86 941.47,-86 941.47,-122"/>
<text text-anchor="middle" x="895" y="-99.8" font-family="Times,serif" font-size="14.00">IssuerModule</text>
</g>
<!-- IssuerModule&#45;&gt;AppModule -->
<g id="edge7" class="edge">
<title>IssuerModule&#45;&gt;AppModule</title>
<path fill="none" stroke="black" d="M895,-122.11C895,-122.11 895,-140.99 895,-140.99"/>
<polygon fill="black" stroke="black" points="891.5,-140.99 895,-150.99 898.5,-140.99 891.5,-140.99"/>
</g>
<!-- KeyModule -->
<g id="node7" class="node">
<title>KeyModule</title>
<polygon fill="#8dd3c7" stroke="black" points="830.37,-122 827.37,-126 806.37,-126 803.37,-122 747.63,-122 747.63,-86 830.37,-86 830.37,-122"/>
<text text-anchor="middle" x="789" y="-99.8" font-family="Times,serif" font-size="14.00">KeyModule</text>
</g>
<!-- KeyModule&#45;&gt;AppModule -->
<g id="edge8" class="edge">
<title>KeyModule&#45;&gt;AppModule</title>
<path fill="none" stroke="black" d="M789,-122.19C789,-137.18 789,-156 789,-156 789,-156 843.11,-156 843.11,-156"/>
<polygon fill="black" stroke="black" points="843.11,-159.5 853.11,-156 843.11,-152.5 843.11,-159.5"/>
</g>
<!-- LoggerModule -->
<g id="node8" class="node">
<title>LoggerModule</title>
<polygon fill="#8dd3c7" stroke="black" points="729.98,-122 726.98,-126 705.98,-126 702.98,-122 630.02,-122 630.02,-86 729.98,-86 729.98,-122"/>
<text text-anchor="middle" x="680" y="-99.8" font-family="Times,serif" font-size="14.00">LoggerModule</text>
</g>
<!-- LoggerModule&#45;&gt;AppModule -->
<g id="edge9" class="edge">
<title>LoggerModule&#45;&gt;AppModule</title>
<path fill="none" stroke="black" d="M680,-122.03C680,-138.4 680,-160 680,-160 680,-160 843.29,-160 843.29,-160"/>
<polygon fill="black" stroke="black" points="843.29,-163.5 853.29,-160 843.29,-156.5 843.29,-163.5"/>
</g>
<!-- MetricModule -->
<g id="node9" class="node">
<title>MetricModule</title>
<polygon fill="#8dd3c7" stroke="black" points="612.37,-122 609.37,-126 588.37,-126 585.37,-122 515.63,-122 515.63,-86 612.37,-86 612.37,-122"/>
<text text-anchor="middle" x="564" y="-99.8" font-family="Times,serif" font-size="14.00">MetricModule</text>
</g>
<!-- MetricModule&#45;&gt;AppModule -->
<g id="edge10" class="edge">
<title>MetricModule&#45;&gt;AppModule</title>
<path fill="none" stroke="black" d="M564,-122.3C564,-140.27 564,-165 564,-165 564,-165 843.08,-165 843.08,-165"/>
<polygon fill="black" stroke="black" points="843.08,-168.5 853.08,-165 843.08,-161.5 843.08,-168.5"/>
</g>
<!-- RegistrarModule -->
<g id="node10" class="node">
<title>RegistrarModule</title>
<polygon fill="#8dd3c7" stroke="black" points="497.36,-122 494.36,-126 473.36,-126 470.36,-122 386.64,-122 386.64,-86 497.36,-86 497.36,-122"/>
<text text-anchor="middle" x="442" y="-99.8" font-family="Times,serif" font-size="14.00">RegistrarModule</text>
</g>
<!-- RegistrarModule&#45;&gt;AppModule -->
<g id="edge11" class="edge">
<title>RegistrarModule&#45;&gt;AppModule</title>
<path fill="none" stroke="black" d="M442,-122.11C442,-141.34 442,-169 442,-169 442,-169 843.19,-169 843.19,-169"/>
<polygon fill="black" stroke="black" points="843.19,-172.5 853.19,-169 843.19,-165.5 843.19,-172.5"/>
</g>
<!-- SessionModule -->
<g id="node11" class="node">
<title>SessionModule</title>
<polygon fill="#8dd3c7" stroke="black" points="368.33,-122 365.33,-126 344.33,-126 341.33,-122 265.67,-122 265.67,-86 368.33,-86 368.33,-122"/>
<text text-anchor="middle" x="317" y="-99.8" font-family="Times,serif" font-size="14.00">SessionModule</text>
</g>
<!-- SessionModule&#45;&gt;AppModule -->
<g id="edge12" class="edge">
<title>SessionModule&#45;&gt;AppModule</title>
<path fill="none" stroke="black" d="M317,-122.03C317,-142.77 317,-174 317,-174 317,-174 842.97,-174 842.97,-174"/>
<polygon fill="black" stroke="black" points="842.97,-177.5 852.97,-174 842.97,-170.5 842.97,-177.5"/>
</g>
<!-- StorageModule -->
<g id="node12" class="node">
<title>StorageModule</title>
<polygon fill="#8dd3c7" stroke="black" points="248.31,-122 245.31,-126 224.31,-126 221.31,-122 145.69,-122 145.69,-86 248.31,-86 248.31,-122"/>
<text text-anchor="middle" x="197" y="-99.8" font-family="Times,serif" font-size="14.00">StorageModule</text>
</g>
<!-- StorageModule&#45;&gt;AppModule -->
<g id="edge13" class="edge">
<title>StorageModule&#45;&gt;AppModule</title>
<path fill="none" stroke="black" d="M197,-122.29C197,-144.21 197,-178 197,-178 197,-178 843.17,-178 843.17,-178"/>
<polygon fill="black" stroke="black" points="843.17,-181.5 853.17,-178 843.17,-174.5 843.17,-181.5"/>
</g>
<!-- VerifierModule -->
<g id="node13" class="node">
<title>VerifierModule</title>
<polygon fill="#8dd3c7" stroke="black" points="127.85,-122 124.85,-126 103.85,-126 100.85,-122 24.15,-122 24.15,-86 127.85,-86 127.85,-122"/>
<text text-anchor="middle" x="76" y="-99.8" font-family="Times,serif" font-size="14.00">VerifierModule</text>
</g>
<!-- VerifierModule&#45;&gt;AppModule -->
<g id="edge14" class="edge">
<title>VerifierModule&#45;&gt;AppModule</title>
<path fill="none" stroke="black" d="M76,-122.32C76,-145.66 76,-183 76,-183 76,-183 843.26,-183 843.26,-183"/>
<polygon fill="black" stroke="black" points="843.26,-186.5 853.26,-183 843.26,-179.5 843.26,-186.5"/>
</g>
<!-- WellKnownService -->
<g id="node15" class="node">
<title>WellKnownService</title>
<ellipse fill="#fdb462" stroke="black" cx="1673" cy="-104" rx="87.38" ry="18"/>
<text text-anchor="middle" x="1673" y="-99.8" font-family="Times,serif" font-size="14.00">WellKnownService</text>
</g>
<!-- WellKnownService&#45;&gt;AppModule -->
<g id="edge15" class="edge">
<title>WellKnownService&#45;&gt;AppModule</title>
<path fill="none" stroke="black" d="M1673,-122.32C1673,-145.66 1673,-183 1673,-183 1673,-183 946.83,-183 946.83,-183"/>
<polygon fill="black" stroke="black" points="946.83,-179.5 936.83,-183 946.83,-186.5 946.83,-179.5"/>
</g>
</g>
</svg>
