<?xml version="1.0" encoding="UTF-8" standalone="no"?>
<!DOCTYPE svg PUBLIC "-//W3C//DTD SVG 1.1//EN"
 "http://www.w3.org/Graphics/SVG/1.1/DTD/svg11.dtd">
<!-- Generated by graphviz version 2.47.0 (20210316.0004)
 -->
<!-- Title: dependencies Pages: 1 -->
<svg width="1286pt" height="211pt"
 viewBox="0.00 0.00 1286.00 211.00" xmlns="http://www.w3.org/2000/svg" xmlns:xlink="http://www.w3.org/1999/xlink">
<g id="graph0" class="graph" transform="scale(1 1) rotate(0) translate(4 207)">
<title>dependencies</title>
<polygon fill="white" stroke="transparent" points="-4,4 -4,-207 1282,-207 1282,4 -4,4"/>
<text text-anchor="start" x="618.01" y="-42.4" font-family="Times-12" font-weight="bold" font-size="14.00">Legend</text>
<polygon fill="#ffffb3" stroke="transparent" points="405,-10 405,-30 425,-30 425,-10 405,-10"/>
<text text-anchor="start" x="428.63" y="-15.4" font-family="Times-12" font-size="14.00"> &#160;Declarations</text>
<polygon fill="#8dd3c7" stroke="transparent" points="518,-10 518,-30 538,-30 538,-10 518,-10"/>
<text text-anchor="start" x="541.73" y="-15.4" font-family="Times-12" font-size="14.00"> &#160;Module</text>
<polygon fill="#80b1d3" stroke="transparent" points="604,-10 604,-30 624,-30 624,-10 604,-10"/>
<text text-anchor="start" x="627.78" y="-15.4" font-family="Times-12" font-size="14.00"> &#160;Bootstrap</text>
<polygon fill="#fdb462" stroke="transparent" points="701,-10 701,-30 721,-30 721,-10 701,-10"/>
<text text-anchor="start" x="724.67" y="-15.4" font-family="Times-12" font-size="14.00"> &#160;Providers</text>
<polygon fill="#fb8072" stroke="transparent" points="797,-10 797,-30 817,-30 817,-10 797,-10"/>
<text text-anchor="start" x="820.73" y="-15.4" font-family="Times-12" font-size="14.00"> &#160;Exports</text>
<g id="clust1" class="cluster">
<title>cluster_AppModule</title>
<polygon fill="none" stroke="black" stroke-dasharray="1,5" points="8,-70 8,-195 1270,-195 1270,-70 8,-70"/>
</g>
<g id="clust6" class="cluster">
<title>cluster_AppModule_providers</title>
<polygon fill="none" stroke="black" points="1072,-78 1072,-130 1262,-130 1262,-78 1072,-78"/>
</g>
<g id="clust3" class="cluster">
<title>cluster_AppModule_imports</title>
<polygon fill="none" stroke="black" points="16,-78 16,-130 1064,-130 1064,-78 16,-78"/>
</g>
<!-- AuthModule -->
<g id="node1" class="node">
<title>AuthModule</title>
<polygon fill="#8dd3c7" stroke="black" points="1055.55,-122 1052.55,-126 1031.55,-126 1028.55,-122 968.45,-122 968.45,-86 1055.55,-86 1055.55,-122"/>
<text text-anchor="middle" x="1012" y="-99.8" font-family="Times,serif" font-size="14.00">AuthModule</text>
</g>
<!-- AppModule -->
<g id="node10" class="node">
<title>AppModule</title>
<polygon fill="#8dd3c7" stroke="black" points="697.66,-187 694.66,-191 673.66,-191 670.66,-187 614.34,-187 614.34,-151 697.66,-151 697.66,-187"/>
<text text-anchor="middle" x="656" y="-164.8" font-family="Times,serif" font-size="14.00">AppModule</text>
</g>
<!-- AuthModule&#45;&gt;AppModule -->
<g id="edge1" class="edge">
<title>AuthModule&#45;&gt;AppModule</title>
<path fill="none" stroke="black" d="M1012,-122.28C1012,-143.32 1012,-175 1012,-175 1012,-175 707.88,-175 707.88,-175"/>
<polygon fill="black" stroke="black" points="707.88,-171.5 697.88,-175 707.88,-178.5 707.88,-171.5"/>
</g>
<!-- CryptoModule -->
<g id="node2" class="node">
<title>CryptoModule</title>
<polygon fill="#8dd3c7" stroke="black" points="950.44,-122 947.44,-126 926.44,-126 923.44,-122 851.56,-122 851.56,-86 950.44,-86 950.44,-122"/>
<text text-anchor="middle" x="901" y="-99.8" font-family="Times,serif" font-size="14.00">CryptoModule</text>
</g>
<!-- CryptoModule&#45;&gt;AppModule -->
<g id="edge2" class="edge">
<title>CryptoModule&#45;&gt;AppModule</title>
<path fill="none" stroke="black" d="M901,-122.11C901,-141.34 901,-169 901,-169 901,-169 707.84,-169 707.84,-169"/>
<polygon fill="black" stroke="black" points="707.84,-165.5 697.84,-169 707.84,-172.5 707.84,-165.5"/>
</g>
<!-- DatabaseModule -->
<g id="node3" class="node">
<title>DatabaseModule</title>
<polygon fill="#8dd3c7" stroke="black" points="833.35,-122 830.35,-126 809.35,-126 806.35,-122 722.65,-122 722.65,-86 833.35,-86 833.35,-122"/>
<text text-anchor="middle" x="778" y="-99.8" font-family="Times,serif" font-size="14.00">DatabaseModule</text>
</g>
<!-- DatabaseModule&#45;&gt;AppModule -->
<g id="edge3" class="edge">
<title>DatabaseModule&#45;&gt;AppModule</title>
<path fill="none" stroke="black" d="M759.52,-122.24C759.52,-137.57 759.52,-157 759.52,-157 759.52,-157 707.81,-157 707.81,-157"/>
<polygon fill="black" stroke="black" points="707.81,-153.5 697.81,-157 707.81,-160.5 707.81,-153.5"/>
</g>
<!-- DatabaseModule&#45;&gt;AppModule -->
<g id="edge4" class="edge">
<title>DatabaseModule&#45;&gt;AppModule</title>
<path fill="none" stroke="black" d="M796.48,-122.02C796.48,-139.37 796.48,-163 796.48,-163 796.48,-163 707.77,-163 707.77,-163"/>
<polygon fill="black" stroke="black" points="707.77,-159.5 697.77,-163 707.77,-166.5 707.77,-159.5"/>
</g>
<!-- HealthModule -->
<g id="node4" class="node">
<title>HealthModule</title>
<polygon fill="#8dd3c7" stroke="black" points="704.37,-122 701.37,-126 680.37,-126 677.37,-122 607.63,-122 607.63,-86 704.37,-86 704.37,-122"/>
<text text-anchor="middle" x="656" y="-99.8" font-family="Times,serif" font-size="14.00">HealthModule</text>
</g>
<!-- HealthModule&#45;&gt;AppModule -->
<g id="edge5" class="edge">
<title>HealthModule&#45;&gt;AppModule</title>
<path fill="none" stroke="black" d="M656,-122.11C656,-122.11 656,-140.99 656,-140.99"/>
<polygon fill="black" stroke="black" points="652.5,-140.99 656,-150.99 659.5,-140.99 652.5,-140.99"/>
</g>
<!-- IssuerModule -->
<g id="node5" class="node">
<title>IssuerModule</title>
<polygon fill="#8dd3c7" stroke="black" points="589.47,-122 586.47,-126 565.47,-126 562.47,-122 496.53,-122 496.53,-86 589.47,-86 589.47,-122"/>
<text text-anchor="middle" x="543" y="-99.8" font-family="Times,serif" font-size="14.00">IssuerModule</text>
</g>
<!-- IssuerModule&#45;&gt;AppModule -->
<g id="edge6" class="edge">
<title>IssuerModule&#45;&gt;AppModule</title>
<path fill="none" stroke="black" d="M543,-122.24C543,-137.57 543,-157 543,-157 543,-157 604.24,-157 604.24,-157"/>
<polygon fill="black" stroke="black" points="604.24,-160.5 614.24,-157 604.24,-153.5 604.24,-160.5"/>
</g>
<!-- KeyModule -->
<g id="node6" class="node">
<title>KeyModule</title>
<polygon fill="#8dd3c7" stroke="black" points="478.37,-122 475.37,-126 454.37,-126 451.37,-122 395.63,-122 395.63,-86 478.37,-86 478.37,-122"/>
<text text-anchor="middle" x="437" y="-99.8" font-family="Times,serif" font-size="14.00">KeyModule</text>
</g>
<!-- KeyModule&#45;&gt;AppModule -->
<g id="edge7" class="edge">
<title>KeyModule&#45;&gt;AppModule</title>
<path fill="none" stroke="black" d="M437,-122.02C437,-139.37 437,-163 437,-163 437,-163 604.29,-163 604.29,-163"/>
<polygon fill="black" stroke="black" points="604.29,-166.5 614.29,-163 604.29,-159.5 604.29,-166.5"/>
</g>
<!-- RegistrarModule -->
<g id="node7" class="node">
<title>RegistrarModule</title>
<polygon fill="#8dd3c7" stroke="black" points="377.36,-122 374.36,-126 353.36,-126 350.36,-122 266.64,-122 266.64,-86 377.36,-86 377.36,-122"/>
<text text-anchor="middle" x="322" y="-99.8" font-family="Times,serif" font-size="14.00">RegistrarModule</text>
</g>
<!-- RegistrarModule&#45;&gt;AppModule -->
<g id="edge8" class="edge">
<title>RegistrarModule&#45;&gt;AppModule</title>
<path fill="none" stroke="black" d="M322,-122.11C322,-141.34 322,-169 322,-169 322,-169 604.04,-169 604.04,-169"/>
<polygon fill="black" stroke="black" points="604.04,-172.5 614.04,-169 604.04,-165.5 604.04,-172.5"/>
</g>
<!-- SessionModule -->
<g id="node8" class="node">
<title>SessionModule</title>
<polygon fill="#8dd3c7" stroke="black" points="248.33,-122 245.33,-126 224.33,-126 221.33,-122 145.67,-122 145.67,-86 248.33,-86 248.33,-122"/>
<text text-anchor="middle" x="197" y="-99.8" font-family="Times,serif" font-size="14.00">SessionModule</text>
</g>
<!-- SessionModule&#45;&gt;AppModule -->
<g id="edge9" class="edge">
<title>SessionModule&#45;&gt;AppModule</title>
<path fill="none" stroke="black" d="M197,-122.28C197,-143.32 197,-175 197,-175 197,-175 604.05,-175 604.05,-175"/>
<polygon fill="black" stroke="black" points="604.05,-178.5 614.05,-175 604.05,-171.5 604.05,-178.5"/>
</g>
<!-- VerifierModule -->
<g id="node9" class="node">
<title>VerifierModule</title>
<polygon fill="#8dd3c7" stroke="black" points="127.85,-122 124.85,-126 103.85,-126 100.85,-122 24.15,-122 24.15,-86 127.85,-86 127.85,-122"/>
<text text-anchor="middle" x="76" y="-99.8" font-family="Times,serif" font-size="14.00">VerifierModule</text>
</g>
<!-- VerifierModule&#45;&gt;AppModule -->
<g id="edge10" class="edge">
<title>VerifierModule&#45;&gt;AppModule</title>
<path fill="none" stroke="black" d="M76,-122.09C76,-145.13 76,-182 76,-182 76,-182 604.29,-182 604.29,-182"/>
<polygon fill="black" stroke="black" points="604.29,-185.5 614.29,-182 604.29,-178.5 604.29,-185.5"/>
</g>
<!-- WellKnownService -->
<g id="node11" class="node">
<title>WellKnownService</title>
<ellipse fill="#fdb462" stroke="black" cx="1167" cy="-104" rx="87.38" ry="18"/>
<text text-anchor="middle" x="1167" y="-99.8" font-family="Times,serif" font-size="14.00">WellKnownService</text>
</g>
<!-- WellKnownService&#45;&gt;AppModule -->
<g id="edge11" class="edge">
<title>WellKnownService&#45;&gt;AppModule</title>
<path fill="none" stroke="black" d="M1167,-122.09C1167,-145.13 1167,-182 1167,-182 1167,-182 707.82,-182 707.82,-182"/>
<polygon fill="black" stroke="black" points="707.82,-178.5 697.82,-182 707.82,-185.5 707.82,-178.5"/>
</g>
</g>
</svg>
