<?xml version="1.0" encoding="UTF-8" standalone="no"?>
<!DOCTYPE svg PUBLIC "-//W3C//DTD SVG 1.1//EN"
 "http://www.w3.org/Graphics/SVG/1.1/DTD/svg11.dtd">
<!-- Generated by graphviz version 2.47.0 (20210316.0004)
 -->
<!-- Title: dependencies Pages: 1 -->
<svg width="1470pt" height="211pt"
 viewBox="0.00 0.00 1470.00 211.00" xmlns="http://www.w3.org/2000/svg" xmlns:xlink="http://www.w3.org/1999/xlink">
<g id="graph0" class="graph" transform="scale(1 1) rotate(0) translate(4 207)">
<title>dependencies</title>
<polygon fill="white" stroke="transparent" points="-4,4 -4,-207 1466,-207 1466,4 -4,4"/>
<text text-anchor="start" x="710.01" y="-42.4" font-family="Times-12" font-weight="bold" font-size="14.00">Legend</text>
<polygon fill="#ffffb3" stroke="transparent" points="497,-10 497,-30 517,-30 517,-10 497,-10"/>
<text text-anchor="start" x="520.63" y="-15.4" font-family="Times-12" font-size="14.00"> &#160;Declarations</text>
<polygon fill="#8dd3c7" stroke="transparent" points="610,-10 610,-30 630,-30 630,-10 610,-10"/>
<text text-anchor="start" x="633.73" y="-15.4" font-family="Times-12" font-size="14.00"> &#160;Module</text>
<polygon fill="#80b1d3" stroke="transparent" points="696,-10 696,-30 716,-30 716,-10 696,-10"/>
<text text-anchor="start" x="719.78" y="-15.4" font-family="Times-12" font-size="14.00"> &#160;Bootstrap</text>
<polygon fill="#fdb462" stroke="transparent" points="793,-10 793,-30 813,-30 813,-10 793,-10"/>
<text text-anchor="start" x="816.67" y="-15.4" font-family="Times-12" font-size="14.00"> &#160;Providers</text>
<polygon fill="#fb8072" stroke="transparent" points="889,-10 889,-30 909,-30 909,-10 889,-10"/>
<text text-anchor="start" x="912.73" y="-15.4" font-family="Times-12" font-size="14.00"> &#160;Exports</text>
<g id="clust1" class="cluster">
<title>cluster_AppModule</title>
<polygon fill="none" stroke="black" stroke-dasharray="1,5" points="8,-70 8,-195 1454,-195 1454,-70 8,-70"/>
</g>
<g id="clust3" class="cluster">
<title>cluster_AppModule_imports</title>
<polygon fill="none" stroke="black" points="16,-78 16,-130 1446,-130 1446,-78 16,-78"/>
</g>
<!-- AuthModule -->
<g id="node1" class="node">
<title>AuthModule</title>
<polygon fill="#8dd3c7" stroke="black" points="1437.55,-122 1434.55,-126 1413.55,-126 1410.55,-122 1350.45,-122 1350.45,-86 1437.55,-86 1437.55,-122"/>
<text text-anchor="middle" x="1394" y="-99.8" font-family="Times,serif" font-size="14.00">AuthModule</text>
</g>
<!-- AppModule -->
<g id="node13" class="node">
<title>AppModule</title>
<polygon fill="#8dd3c7" stroke="black" points="768.66,-187 765.66,-191 744.66,-191 741.66,-187 685.34,-187 685.34,-151 768.66,-151 768.66,-187"/>
<text text-anchor="middle" x="727" y="-164.8" font-family="Times,serif" font-size="14.00">AppModule</text>
</g>
<!-- AuthModule&#45;&gt;AppModule -->
<g id="edge1" class="edge">
<title>AuthModule&#45;&gt;AppModule</title>
<path fill="none" stroke="black" d="M1394,-122.09C1394,-145.13 1394,-182 1394,-182 1394,-182 778.72,-182 778.72,-182"/>
<polygon fill="black" stroke="black" points="778.72,-178.5 768.72,-182 778.72,-185.5 778.72,-178.5"/>
</g>
<!-- ConfigImportModule -->
<g id="node2" class="node">
<title>ConfigImportModule</title>
<polygon fill="#8dd3c7" stroke="black" points="1332.04,-122 1329.04,-126 1308.04,-126 1305.04,-122 1195.96,-122 1195.96,-86 1332.04,-86 1332.04,-122"/>
<text text-anchor="middle" x="1264" y="-99.8" font-family="Times,serif" font-size="14.00">ConfigImportModule</text>
</g>
<!-- ConfigImportModule&#45;&gt;AppModule -->
<g id="edge2" class="edge">
<title>ConfigImportModule&#45;&gt;AppModule</title>
<path fill="none" stroke="black" d="M1264,-122.28C1264,-143.32 1264,-175 1264,-175 1264,-175 778.69,-175 778.69,-175"/>
<polygon fill="black" stroke="black" points="778.69,-171.5 768.69,-175 778.69,-178.5 778.69,-171.5"/>
</g>
<!-- CoreModule -->
<g id="node3" class="node">
<title>CoreModule</title>
<polygon fill="#8dd3c7" stroke="black" points="1177.26,-122 1174.26,-126 1153.26,-126 1150.26,-122 1090.74,-122 1090.74,-86 1177.26,-86 1177.26,-122"/>
<text text-anchor="middle" x="1134" y="-99.8" font-family="Times,serif" font-size="14.00">CoreModule</text>
</g>
<!-- CoreModule&#45;&gt;AppModule -->
<g id="edge3" class="edge">
<title>CoreModule&#45;&gt;AppModule</title>
<path fill="none" stroke="black" d="M1134,-122.11C1134,-141.34 1134,-169 1134,-169 1134,-169 779.02,-169 779.02,-169"/>
<polygon fill="black" stroke="black" points="779.02,-165.5 769.02,-169 779.02,-172.5 779.02,-165.5"/>
</g>
<!-- CryptoModule -->
<g id="node4" class="node">
<title>CryptoModule</title>
<polygon fill="#8dd3c7" stroke="black" points="1072.44,-122 1069.44,-126 1048.44,-126 1045.44,-122 973.56,-122 973.56,-86 1072.44,-86 1072.44,-122"/>
<text text-anchor="middle" x="1023" y="-99.8" font-family="Times,serif" font-size="14.00">CryptoModule</text>
</g>
<!-- CryptoModule&#45;&gt;AppModule -->
<g id="edge4" class="edge">
<title>CryptoModule&#45;&gt;AppModule</title>
<path fill="none" stroke="black" d="M1023,-122.02C1023,-139.37 1023,-163 1023,-163 1023,-163 778.78,-163 778.78,-163"/>
<polygon fill="black" stroke="black" points="778.78,-159.5 768.78,-163 778.78,-166.5 778.78,-159.5"/>
</g>
<!-- DatabaseModule -->
<g id="node5" class="node">
<title>DatabaseModule</title>
<polygon fill="#8dd3c7" stroke="black" points="955.35,-122 952.35,-126 931.35,-126 928.35,-122 844.65,-122 844.65,-86 955.35,-86 955.35,-122"/>
<text text-anchor="middle" x="900" y="-99.8" font-family="Times,serif" font-size="14.00">DatabaseModule</text>
</g>
<!-- DatabaseModule&#45;&gt;AppModule -->
<g id="edge5" class="edge">
<title>DatabaseModule&#45;&gt;AppModule</title>
<path fill="none" stroke="black" d="M900,-122.24C900,-137.57 900,-157 900,-157 900,-157 778.88,-157 778.88,-157"/>
<polygon fill="black" stroke="black" points="778.88,-153.5 768.88,-157 778.88,-160.5 778.88,-153.5"/>
</g>
<!-- IssuerModule -->
<g id="node6" class="node">
<title>IssuerModule</title>
<polygon fill="#8dd3c7" stroke="black" points="826.47,-122 823.47,-126 802.47,-126 799.47,-122 733.53,-122 733.53,-86 826.47,-86 826.47,-122"/>
<text text-anchor="middle" x="780" y="-99.8" font-family="Times,serif" font-size="14.00">IssuerModule</text>
</g>
<!-- IssuerModule&#45;&gt;AppModule -->
<g id="edge6" class="edge">
<title>IssuerModule&#45;&gt;AppModule</title>
<path fill="none" stroke="black" d="M751.17,-122.11C751.17,-122.11 751.17,-140.99 751.17,-140.99"/>
<polygon fill="black" stroke="black" points="747.67,-140.99 751.17,-150.99 754.67,-140.99 747.67,-140.99"/>
</g>
<!-- KeyModule -->
<g id="node7" class="node">
<title>KeyModule</title>
<polygon fill="#8dd3c7" stroke="black" points="715.37,-122 712.37,-126 691.37,-126 688.37,-122 632.63,-122 632.63,-86 715.37,-86 715.37,-122"/>
<text text-anchor="middle" x="674" y="-99.8" font-family="Times,serif" font-size="14.00">KeyModule</text>
</g>
<!-- KeyModule&#45;&gt;AppModule -->
<g id="edge7" class="edge">
<title>KeyModule&#45;&gt;AppModule</title>
<path fill="none" stroke="black" d="M700.3,-122.11C700.3,-122.11 700.3,-140.99 700.3,-140.99"/>
<polygon fill="black" stroke="black" points="696.8,-140.99 700.3,-150.99 703.8,-140.99 696.8,-140.99"/>
</g>
<!-- LoggerModule -->
<g id="node8" class="node">
<title>LoggerModule</title>
<polygon fill="#8dd3c7" stroke="black" points="614.98,-122 611.98,-126 590.98,-126 587.98,-122 515.02,-122 515.02,-86 614.98,-86 614.98,-122"/>
<text text-anchor="middle" x="565" y="-99.8" font-family="Times,serif" font-size="14.00">LoggerModule</text>
</g>
<!-- LoggerModule&#45;&gt;AppModule -->
<g id="edge8" class="edge">
<title>LoggerModule&#45;&gt;AppModule</title>
<path fill="none" stroke="black" d="M565,-122.24C565,-137.57 565,-157 565,-157 565,-157 675.28,-157 675.28,-157"/>
<polygon fill="black" stroke="black" points="675.28,-160.5 685.28,-157 675.28,-153.5 675.28,-160.5"/>
</g>
<!-- RegistrarModule -->
<g id="node9" class="node">
<title>RegistrarModule</title>
<polygon fill="#8dd3c7" stroke="black" points="497.36,-122 494.36,-126 473.36,-126 470.36,-122 386.64,-122 386.64,-86 497.36,-86 497.36,-122"/>
<text text-anchor="middle" x="442" y="-99.8" font-family="Times,serif" font-size="14.00">RegistrarModule</text>
</g>
<!-- RegistrarModule&#45;&gt;AppModule -->
<g id="edge9" class="edge">
<title>RegistrarModule&#45;&gt;AppModule</title>
<path fill="none" stroke="black" d="M442,-122.02C442,-139.37 442,-163 442,-163 442,-163 675.25,-163 675.25,-163"/>
<polygon fill="black" stroke="black" points="675.25,-166.5 685.25,-163 675.25,-159.5 675.25,-166.5"/>
</g>
<!-- SessionModule -->
<g id="node10" class="node">
<title>SessionModule</title>
<polygon fill="#8dd3c7" stroke="black" points="368.33,-122 365.33,-126 344.33,-126 341.33,-122 265.67,-122 265.67,-86 368.33,-86 368.33,-122"/>
<text text-anchor="middle" x="317" y="-99.8" font-family="Times,serif" font-size="14.00">SessionModule</text>
</g>
<!-- SessionModule&#45;&gt;AppModule -->
<g id="edge10" class="edge">
<title>SessionModule&#45;&gt;AppModule</title>
<path fill="none" stroke="black" d="M317,-122.11C317,-141.34 317,-169 317,-169 317,-169 675.05,-169 675.05,-169"/>
<polygon fill="black" stroke="black" points="675.05,-172.5 685.05,-169 675.05,-165.5 675.05,-172.5"/>
</g>
<!-- StorageModule -->
<g id="node11" class="node">
<title>StorageModule</title>
<polygon fill="#8dd3c7" stroke="black" points="248.31,-122 245.31,-126 224.31,-126 221.31,-122 145.69,-122 145.69,-86 248.31,-86 248.31,-122"/>
<text text-anchor="middle" x="197" y="-99.8" font-family="Times,serif" font-size="14.00">StorageModule</text>
</g>
<!-- StorageModule&#45;&gt;AppModule -->
<g id="edge11" class="edge">
<title>StorageModule&#45;&gt;AppModule</title>
<path fill="none" stroke="black" d="M197,-122.28C197,-143.32 197,-175 197,-175 197,-175 674.97,-175 674.97,-175"/>
<polygon fill="black" stroke="black" points="674.97,-178.5 684.97,-175 674.97,-171.5 674.97,-178.5"/>
</g>
<!-- VerifierModule -->
<g id="node12" class="node">
<title>VerifierModule</title>
<polygon fill="#8dd3c7" stroke="black" points="127.85,-122 124.85,-126 103.85,-126 100.85,-122 24.15,-122 24.15,-86 127.85,-86 127.85,-122"/>
<text text-anchor="middle" x="76" y="-99.8" font-family="Times,serif" font-size="14.00">VerifierModule</text>
</g>
<!-- VerifierModule&#45;&gt;AppModule -->
<g id="edge12" class="edge">
<title>VerifierModule&#45;&gt;AppModule</title>
<path fill="none" stroke="black" d="M76,-122.09C76,-145.13 76,-182 76,-182 76,-182 675.29,-182 675.29,-182"/>
<polygon fill="black" stroke="black" points="675.29,-185.5 685.29,-182 675.29,-178.5 675.29,-185.5"/>
</g>
</g>
</svg>
