<?xml version="1.0" encoding="UTF-8" standalone="no"?>
<!DOCTYPE svg PUBLIC "-//W3C//DTD SVG 1.1//EN"
 "http://www.w3.org/Graphics/SVG/1.1/DTD/svg11.dtd">
<!-- Generated by graphviz version 2.47.0 (20210316.0004)
 -->
<!-- Title: dependencies Pages: 1 -->
<svg width="1725pt" height="211pt"
 viewBox="0.00 0.00 1725.00 211.00" xmlns="http://www.w3.org/2000/svg" xmlns:xlink="http://www.w3.org/1999/xlink">
<g id="graph0" class="graph" transform="scale(1 1) rotate(0) translate(4 207)">
<title>dependencies</title>
<polygon fill="white" stroke="transparent" points="-4,4 -4,-207 1721,-207 1721,4 -4,4"/>
<text text-anchor="start" x="837.51" y="-42.4" font-family="Times-12" font-weight="bold" font-size="14.00">Legend</text>
<polygon fill="#ffffb3" stroke="transparent" points="624.5,-10 624.5,-30 644.5,-30 644.5,-10 624.5,-10"/>
<text text-anchor="start" x="648.13" y="-15.4" font-family="Times-12" font-size="14.00"> &#160;Declarations</text>
<polygon fill="#8dd3c7" stroke="transparent" points="737.5,-10 737.5,-30 757.5,-30 757.5,-10 737.5,-10"/>
<text text-anchor="start" x="761.23" y="-15.4" font-family="Times-12" font-size="14.00"> &#160;Module</text>
<polygon fill="#80b1d3" stroke="transparent" points="823.5,-10 823.5,-30 843.5,-30 843.5,-10 823.5,-10"/>
<text text-anchor="start" x="847.28" y="-15.4" font-family="Times-12" font-size="14.00"> &#160;Bootstrap</text>
<polygon fill="#fdb462" stroke="transparent" points="920.5,-10 920.5,-30 940.5,-30 940.5,-10 920.5,-10"/>
<text text-anchor="start" x="944.17" y="-15.4" font-family="Times-12" font-size="14.00"> &#160;Providers</text>
<polygon fill="#fb8072" stroke="transparent" points="1016.5,-10 1016.5,-30 1036.5,-30 1036.5,-10 1016.5,-10"/>
<text text-anchor="start" x="1040.23" y="-15.4" font-family="Times-12" font-size="14.00"> &#160;Exports</text>
<g id="clust1" class="cluster">
<title>cluster_AppModule</title>
<polygon fill="none" stroke="black" stroke-dasharray="1,5" points="8,-70 8,-195 1709,-195 1709,-70 8,-70"/>
</g>
<g id="clust3" class="cluster">
<title>cluster_AppModule_imports</title>
<polygon fill="none" stroke="black" points="418,-78 418,-130 1701,-130 1701,-78 418,-78"/>
</g>
<g id="clust6" class="cluster">
<title>cluster_AppModule_providers</title>
<polygon fill="none" stroke="black" points="16,-78 16,-130 410,-130 410,-78 16,-78"/>
</g>
<!-- AuthModule -->
<g id="node1" class="node">
<title>AuthModule</title>
<polygon fill="#8dd3c7" stroke="black" points="1692.55,-122 1689.55,-126 1668.55,-126 1665.55,-122 1605.45,-122 1605.45,-86 1692.55,-86 1692.55,-122"/>
<text text-anchor="middle" x="1649" y="-99.8" font-family="Times,serif" font-size="14.00">AuthModule</text>
</g>
<!-- AppModule -->
<g id="node12" class="node">
<title>AppModule</title>
<polygon fill="#8dd3c7" stroke="black" points="1061.66,-187 1058.66,-191 1037.66,-191 1034.66,-187 978.34,-187 978.34,-151 1061.66,-151 1061.66,-187"/>
<text text-anchor="middle" x="1020" y="-164.8" font-family="Times,serif" font-size="14.00">AppModule</text>
</g>
<!-- AuthModule&#45;&gt;AppModule -->
<g id="edge1" class="edge">
<title>AuthModule&#45;&gt;AppModule</title>
<path fill="none" stroke="black" d="M1649,-122.09C1649,-145.13 1649,-182 1649,-182 1649,-182 1071.76,-182 1071.76,-182"/>
<polygon fill="black" stroke="black" points="1071.76,-178.5 1061.76,-182 1071.76,-185.5 1071.76,-178.5"/>
</g>
<!-- CryptoModule -->
<g id="node2" class="node">
<title>CryptoModule</title>
<polygon fill="#8dd3c7" stroke="black" points="1587.44,-122 1584.44,-126 1563.44,-126 1560.44,-122 1488.56,-122 1488.56,-86 1587.44,-86 1587.44,-122"/>
<text text-anchor="middle" x="1538" y="-99.8" font-family="Times,serif" font-size="14.00">CryptoModule</text>
</g>
<!-- CryptoModule&#45;&gt;AppModule -->
<g id="edge2" class="edge">
<title>CryptoModule&#45;&gt;AppModule</title>
<path fill="none" stroke="black" d="M1538,-122.04C1538,-143.66 1538,-177 1538,-177 1538,-177 1071.95,-177 1071.95,-177"/>
<polygon fill="black" stroke="black" points="1071.95,-173.5 1061.95,-177 1071.95,-180.5 1071.95,-173.5"/>
</g>
<!-- DatabaseModule -->
<g id="node3" class="node">
<title>DatabaseModule</title>
<polygon fill="#8dd3c7" stroke="black" points="1470.35,-122 1467.35,-126 1446.35,-126 1443.35,-122 1359.65,-122 1359.65,-86 1470.35,-86 1470.35,-122"/>
<text text-anchor="middle" x="1415" y="-99.8" font-family="Times,serif" font-size="14.00">DatabaseModule</text>
</g>
<!-- DatabaseModule&#45;&gt;AppModule -->
<g id="edge3" class="edge">
<title>DatabaseModule&#45;&gt;AppModule</title>
<path fill="none" stroke="black" d="M1433.47,-122.22C1433.47,-142.37 1433.47,-172 1433.47,-172 1433.47,-172 1071.92,-172 1071.92,-172"/>
<polygon fill="black" stroke="black" points="1071.92,-168.5 1061.92,-172 1071.92,-175.5 1071.92,-168.5"/>
</g>
<!-- DatabaseModule&#45;&gt;AppModule -->
<g id="edge4" class="edge">
<title>DatabaseModule&#45;&gt;AppModule</title>
<path fill="none" stroke="black" d="M1396.53,-122.22C1396.53,-140.83 1396.53,-167 1396.53,-167 1396.53,-167 1071.73,-167 1071.73,-167"/>
<polygon fill="black" stroke="black" points="1071.73,-163.5 1061.73,-167 1071.73,-170.5 1071.73,-163.5"/>
</g>
<!-- HealthModule -->
<g id="node4" class="node">
<title>HealthModule</title>
<polygon fill="#8dd3c7" stroke="black" points="1341.37,-122 1338.37,-126 1317.37,-126 1314.37,-122 1244.63,-122 1244.63,-86 1341.37,-86 1341.37,-122"/>
<text text-anchor="middle" x="1293" y="-99.8" font-family="Times,serif" font-size="14.00">HealthModule</text>
</g>
<!-- HealthModule&#45;&gt;AppModule -->
<g id="edge5" class="edge">
<title>HealthModule&#45;&gt;AppModule</title>
<path fill="none" stroke="black" d="M1293,-122.03C1293,-139.06 1293,-162 1293,-162 1293,-162 1071.76,-162 1071.76,-162"/>
<polygon fill="black" stroke="black" points="1071.76,-158.5 1061.76,-162 1071.76,-165.5 1071.76,-158.5"/>
</g>
<!-- IssuerModule -->
<g id="node5" class="node">
<title>IssuerModule</title>
<polygon fill="#8dd3c7" stroke="black" points="1226.47,-122 1223.47,-126 1202.47,-126 1199.47,-122 1133.53,-122 1133.53,-86 1226.47,-86 1226.47,-122"/>
<text text-anchor="middle" x="1180" y="-99.8" font-family="Times,serif" font-size="14.00">IssuerModule</text>
</g>
<!-- IssuerModule&#45;&gt;AppModule -->
<g id="edge6" class="edge">
<title>IssuerModule&#45;&gt;AppModule</title>
<path fill="none" stroke="black" d="M1180,-122.24C1180,-137.57 1180,-157 1180,-157 1180,-157 1072.04,-157 1072.04,-157"/>
<polygon fill="black" stroke="black" points="1072.04,-153.5 1062.04,-157 1072.04,-160.5 1072.04,-153.5"/>
</g>
<!-- KeyModule -->
<g id="node6" class="node">
<title>KeyModule</title>
<polygon fill="#8dd3c7" stroke="black" points="1115.37,-122 1112.37,-126 1091.37,-126 1088.37,-122 1032.63,-122 1032.63,-86 1115.37,-86 1115.37,-122"/>
<text text-anchor="middle" x="1074" y="-99.8" font-family="Times,serif" font-size="14.00">KeyModule</text>
</g>
<!-- KeyModule&#45;&gt;AppModule -->
<g id="edge7" class="edge">
<title>KeyModule&#45;&gt;AppModule</title>
<path fill="none" stroke="black" d="M1047.2,-122.11C1047.2,-122.11 1047.2,-140.99 1047.2,-140.99"/>
<polygon fill="black" stroke="black" points="1043.7,-140.99 1047.2,-150.99 1050.7,-140.99 1043.7,-140.99"/>
</g>
<!-- MetricModule -->
<g id="node7" class="node">
<title>MetricModule</title>
<polygon fill="#8dd3c7" stroke="black" points="1014.37,-122 1011.37,-126 990.37,-126 987.37,-122 917.63,-122 917.63,-86 1014.37,-86 1014.37,-122"/>
<text text-anchor="middle" x="966" y="-99.8" font-family="Times,serif" font-size="14.00">MetricModule</text>
</g>
<!-- MetricModule&#45;&gt;AppModule -->
<g id="edge8" class="edge">
<title>MetricModule&#45;&gt;AppModule</title>
<path fill="none" stroke="black" d="M996.3,-122.11C996.3,-122.11 996.3,-140.99 996.3,-140.99"/>
<polygon fill="black" stroke="black" points="992.8,-140.99 996.3,-150.99 999.8,-140.99 992.8,-140.99"/>
</g>
<!-- RegistrarModule -->
<g id="node8" class="node">
<title>RegistrarModule</title>
<polygon fill="#8dd3c7" stroke="black" points="899.36,-122 896.36,-126 875.36,-126 872.36,-122 788.64,-122 788.64,-86 899.36,-86 899.36,-122"/>
<text text-anchor="middle" x="844" y="-99.8" font-family="Times,serif" font-size="14.00">RegistrarModule</text>
</g>
<!-- RegistrarModule&#45;&gt;AppModule -->
<g id="edge9" class="edge">
<title>RegistrarModule&#45;&gt;AppModule</title>
<path fill="none" stroke="black" d="M844,-122.24C844,-137.57 844,-157 844,-157 844,-157 968.29,-157 968.29,-157"/>
<polygon fill="black" stroke="black" points="968.29,-160.5 978.29,-157 968.29,-153.5 968.29,-160.5"/>
</g>
<!-- SessionModule -->
<g id="node9" class="node">
<title>SessionModule</title>
<polygon fill="#8dd3c7" stroke="black" points="770.33,-122 767.33,-126 746.33,-126 743.33,-122 667.67,-122 667.67,-86 770.33,-86 770.33,-122"/>
<text text-anchor="middle" x="719" y="-99.8" font-family="Times,serif" font-size="14.00">SessionModule</text>
</g>
<!-- SessionModule&#45;&gt;AppModule -->
<g id="edge10" class="edge">
<title>SessionModule&#45;&gt;AppModule</title>
<path fill="none" stroke="black" d="M719,-122.03C719,-139.06 719,-162 719,-162 719,-162 968.15,-162 968.15,-162"/>
<polygon fill="black" stroke="black" points="968.15,-165.5 978.15,-162 968.15,-158.5 968.15,-165.5"/>
</g>
<!-- StorageModule -->
<g id="node10" class="node">
<title>StorageModule</title>
<polygon fill="#8dd3c7" stroke="black" points="650.31,-122 647.31,-126 626.31,-126 623.31,-122 547.69,-122 547.69,-86 650.31,-86 650.31,-122"/>
<text text-anchor="middle" x="599" y="-99.8" font-family="Times,serif" font-size="14.00">StorageModule</text>
</g>
<!-- StorageModule&#45;&gt;AppModule -->
<g id="edge11" class="edge">
<title>StorageModule&#45;&gt;AppModule</title>
<path fill="none" stroke="black" d="M599,-122.22C599,-140.83 599,-167 599,-167 599,-167 968.09,-167 968.09,-167"/>
<polygon fill="black" stroke="black" points="968.09,-170.5 978.09,-167 968.09,-163.5 968.09,-170.5"/>
</g>
<!-- VerifierModule -->
<g id="node11" class="node">
<title>VerifierModule</title>
<polygon fill="#8dd3c7" stroke="black" points="529.85,-122 526.85,-126 505.85,-126 502.85,-122 426.15,-122 426.15,-86 529.85,-86 529.85,-122"/>
<text text-anchor="middle" x="478" y="-99.8" font-family="Times,serif" font-size="14.00">VerifierModule</text>
</g>
<!-- VerifierModule&#45;&gt;AppModule -->
<g id="edge12" class="edge">
<title>VerifierModule&#45;&gt;AppModule</title>
<path fill="none" stroke="black" d="M478,-122.22C478,-142.37 478,-172 478,-172 478,-172 967.92,-172 967.92,-172"/>
<polygon fill="black" stroke="black" points="967.92,-175.5 977.92,-172 967.92,-168.5 967.92,-175.5"/>
</g>
<!-- ConfigPrinterService -->
<g id="node13" class="node">
<title>ConfigPrinterService</title>
<ellipse fill="#fdb462" stroke="black" cx="309" cy="-104" rx="93.19" ry="18"/>
<text text-anchor="middle" x="309" y="-99.8" font-family="Times,serif" font-size="14.00">ConfigPrinterService</text>
</g>
<!-- ConfigPrinterService&#45;&gt;AppModule -->
<g id="edge13" class="edge">
<title>ConfigPrinterService&#45;&gt;AppModule</title>
<path fill="none" stroke="black" d="M309,-122.04C309,-143.66 309,-177 309,-177 309,-177 968.18,-177 968.18,-177"/>
<polygon fill="black" stroke="black" points="968.18,-180.5 978.18,-177 968.18,-173.5 968.18,-180.5"/>
</g>
<!-- WellKnownService -->
<g id="node14" class="node">
<title>WellKnownService</title>
<ellipse fill="#fdb462" stroke="black" cx="111" cy="-104" rx="87.38" ry="18"/>
<text text-anchor="middle" x="111" y="-99.8" font-family="Times,serif" font-size="14.00">WellKnownService</text>
</g>
<!-- WellKnownService&#45;&gt;AppModule -->
<g id="edge14" class="edge">
<title>WellKnownService&#45;&gt;AppModule</title>
<path fill="none" stroke="black" d="M111,-122.09C111,-145.13 111,-182 111,-182 111,-182 968.28,-182 968.28,-182"/>
<polygon fill="black" stroke="black" points="968.28,-185.5 978.28,-182 968.28,-178.5 968.28,-185.5"/>
</g>
</g>
</svg>
