<?xml version="1.0" encoding="UTF-8" standalone="no"?>
<!DOCTYPE svg PUBLIC "-//W3C//DTD SVG 1.1//EN"
 "http://www.w3.org/Graphics/SVG/1.1/DTD/svg11.dtd">
<!-- Generated by graphviz version 2.47.0 (20210316.0004)
 -->
<!-- Title: dependencies Pages: 1 -->
<svg width="1521pt" height="211pt"
 viewBox="0.00 0.00 1521.00 211.00" xmlns="http://www.w3.org/2000/svg" xmlns:xlink="http://www.w3.org/1999/xlink">
<g id="graph0" class="graph" transform="scale(1 1) rotate(0) translate(4 207)">
<title>dependencies</title>
<polygon fill="white" stroke="transparent" points="-4,4 -4,-207 1517,-207 1517,4 -4,4"/>
<text text-anchor="start" x="735.51" y="-42.4" font-family="Times-12" font-weight="bold" font-size="14.00">Legend</text>
<polygon fill="#ffffb3" stroke="transparent" points="522.5,-10 522.5,-30 542.5,-30 542.5,-10 522.5,-10"/>
<text text-anchor="start" x="546.13" y="-15.4" font-family="Times-12" font-size="14.00"> &#160;Declarations</text>
<polygon fill="#8dd3c7" stroke="transparent" points="635.5,-10 635.5,-30 655.5,-30 655.5,-10 635.5,-10"/>
<text text-anchor="start" x="659.23" y="-15.4" font-family="Times-12" font-size="14.00"> &#160;Module</text>
<polygon fill="#80b1d3" stroke="transparent" points="721.5,-10 721.5,-30 741.5,-30 741.5,-10 721.5,-10"/>
<text text-anchor="start" x="745.28" y="-15.4" font-family="Times-12" font-size="14.00"> &#160;Bootstrap</text>
<polygon fill="#fdb462" stroke="transparent" points="818.5,-10 818.5,-30 838.5,-30 838.5,-10 818.5,-10"/>
<text text-anchor="start" x="842.17" y="-15.4" font-family="Times-12" font-size="14.00"> &#160;Providers</text>
<polygon fill="#fb8072" stroke="transparent" points="914.5,-10 914.5,-30 934.5,-30 934.5,-10 914.5,-10"/>
<text text-anchor="start" x="938.23" y="-15.4" font-family="Times-12" font-size="14.00"> &#160;Exports</text>
<g id="clust1" class="cluster">
<title>cluster_AppModule</title>
<polygon fill="none" stroke="black" stroke-dasharray="1,5" points="8,-70 8,-195 1505,-195 1505,-70 8,-70"/>
</g>
<g id="clust3" class="cluster">
<title>cluster_AppModule_imports</title>
<polygon fill="none" stroke="black" points="214,-78 214,-130 1497,-130 1497,-78 214,-78"/>
</g>
<g id="clust6" class="cluster">
<title>cluster_AppModule_providers</title>
<polygon fill="none" stroke="black" points="16,-78 16,-130 206,-130 206,-78 16,-78"/>
</g>
<!-- AuthModule -->
<g id="node1" class="node">
<title>AuthModule</title>
<polygon fill="#8dd3c7" stroke="black" points="1488.55,-122 1485.55,-126 1464.55,-126 1461.55,-122 1401.45,-122 1401.45,-86 1488.55,-86 1488.55,-122"/>
<text text-anchor="middle" x="1445" y="-99.8" font-family="Times,serif" font-size="14.00">AuthModule</text>
</g>
<!-- AppModule -->
<g id="node12" class="node">
<title>AppModule</title>
<polygon fill="#8dd3c7" stroke="black" points="911.66,-187 908.66,-191 887.66,-191 884.66,-187 828.34,-187 828.34,-151 911.66,-151 911.66,-187"/>
<text text-anchor="middle" x="870" y="-164.8" font-family="Times,serif" font-size="14.00">AppModule</text>
</g>
<!-- AuthModule&#45;&gt;AppModule -->
<g id="edge1" class="edge">
<title>AuthModule&#45;&gt;AppModule</title>
<path fill="none" stroke="black" d="M1445,-122.09C1445,-145.13 1445,-182 1445,-182 1445,-182 921.82,-182 921.82,-182"/>
<polygon fill="black" stroke="black" points="921.82,-178.5 911.82,-182 921.82,-185.5 921.82,-178.5"/>
</g>
<!-- CryptoModule -->
<g id="node2" class="node">
<title>CryptoModule</title>
<polygon fill="#8dd3c7" stroke="black" points="1383.44,-122 1380.44,-126 1359.44,-126 1356.44,-122 1284.56,-122 1284.56,-86 1383.44,-86 1383.44,-122"/>
<text text-anchor="middle" x="1334" y="-99.8" font-family="Times,serif" font-size="14.00">CryptoModule</text>
</g>
<!-- CryptoModule&#45;&gt;AppModule -->
<g id="edge2" class="edge">
<title>CryptoModule&#45;&gt;AppModule</title>
<path fill="none" stroke="black" d="M1334,-122.04C1334,-143.66 1334,-177 1334,-177 1334,-177 922,-177 922,-177"/>
<polygon fill="black" stroke="black" points="922,-173.5 912,-177 922,-180.5 922,-173.5"/>
</g>
<!-- DatabaseModule -->
<g id="node3" class="node">
<title>DatabaseModule</title>
<polygon fill="#8dd3c7" stroke="black" points="1266.35,-122 1263.35,-126 1242.35,-126 1239.35,-122 1155.65,-122 1155.65,-86 1266.35,-86 1266.35,-122"/>
<text text-anchor="middle" x="1211" y="-99.8" font-family="Times,serif" font-size="14.00">DatabaseModule</text>
</g>
<!-- DatabaseModule&#45;&gt;AppModule -->
<g id="edge3" class="edge">
<title>DatabaseModule&#45;&gt;AppModule</title>
<path fill="none" stroke="black" d="M1229.47,-122.22C1229.47,-142.37 1229.47,-172 1229.47,-172 1229.47,-172 921.94,-172 921.94,-172"/>
<polygon fill="black" stroke="black" points="921.94,-168.5 911.94,-172 921.94,-175.5 921.94,-168.5"/>
</g>
<!-- DatabaseModule&#45;&gt;AppModule -->
<g id="edge4" class="edge">
<title>DatabaseModule&#45;&gt;AppModule</title>
<path fill="none" stroke="black" d="M1192.53,-122.22C1192.53,-140.83 1192.53,-167 1192.53,-167 1192.53,-167 921.83,-167 921.83,-167"/>
<polygon fill="black" stroke="black" points="921.83,-163.5 911.83,-167 921.83,-170.5 921.83,-163.5"/>
</g>
<!-- HealthModule -->
<g id="node4" class="node">
<title>HealthModule</title>
<polygon fill="#8dd3c7" stroke="black" points="1137.37,-122 1134.37,-126 1113.37,-126 1110.37,-122 1040.63,-122 1040.63,-86 1137.37,-86 1137.37,-122"/>
<text text-anchor="middle" x="1089" y="-99.8" font-family="Times,serif" font-size="14.00">HealthModule</text>
</g>
<!-- HealthModule&#45;&gt;AppModule -->
<g id="edge5" class="edge">
<title>HealthModule&#45;&gt;AppModule</title>
<path fill="none" stroke="black" d="M1089,-122.03C1089,-139.06 1089,-162 1089,-162 1089,-162 921.71,-162 921.71,-162"/>
<polygon fill="black" stroke="black" points="921.71,-158.5 911.71,-162 921.71,-165.5 921.71,-158.5"/>
</g>
<!-- IssuerModule -->
<g id="node5" class="node">
<title>IssuerModule</title>
<polygon fill="#8dd3c7" stroke="black" points="1022.47,-122 1019.47,-126 998.47,-126 995.47,-122 929.53,-122 929.53,-86 1022.47,-86 1022.47,-122"/>
<text text-anchor="middle" x="976" y="-99.8" font-family="Times,serif" font-size="14.00">IssuerModule</text>
</g>
<!-- IssuerModule&#45;&gt;AppModule -->
<g id="edge6" class="edge">
<title>IssuerModule&#45;&gt;AppModule</title>
<path fill="none" stroke="black" d="M976,-122.24C976,-137.57 976,-157 976,-157 976,-157 921.89,-157 921.89,-157"/>
<polygon fill="black" stroke="black" points="921.89,-153.5 911.89,-157 921.89,-160.5 921.89,-153.5"/>
</g>
<!-- KeyModule -->
<g id="node6" class="node">
<title>KeyModule</title>
<polygon fill="#8dd3c7" stroke="black" points="911.37,-122 908.37,-126 887.37,-126 884.37,-122 828.63,-122 828.63,-86 911.37,-86 911.37,-122"/>
<text text-anchor="middle" x="870" y="-99.8" font-family="Times,serif" font-size="14.00">KeyModule</text>
</g>
<!-- KeyModule&#45;&gt;AppModule -->
<g id="edge7" class="edge">
<title>KeyModule&#45;&gt;AppModule</title>
<path fill="none" stroke="black" d="M870,-122.11C870,-122.11 870,-140.99 870,-140.99"/>
<polygon fill="black" stroke="black" points="866.5,-140.99 870,-150.99 873.5,-140.99 866.5,-140.99"/>
</g>
<!-- MetricModule -->
<g id="node7" class="node">
<title>MetricModule</title>
<polygon fill="#8dd3c7" stroke="black" points="810.37,-122 807.37,-126 786.37,-126 783.37,-122 713.63,-122 713.63,-86 810.37,-86 810.37,-122"/>
<text text-anchor="middle" x="762" y="-99.8" font-family="Times,serif" font-size="14.00">MetricModule</text>
</g>
<!-- MetricModule&#45;&gt;AppModule -->
<g id="edge8" class="edge">
<title>MetricModule&#45;&gt;AppModule</title>
<path fill="none" stroke="black" d="M762,-122.24C762,-137.57 762,-157 762,-157 762,-157 818.24,-157 818.24,-157"/>
<polygon fill="black" stroke="black" points="818.24,-160.5 828.24,-157 818.24,-153.5 818.24,-160.5"/>
</g>
<!-- RegistrarModule -->
<g id="node8" class="node">
<title>RegistrarModule</title>
<polygon fill="#8dd3c7" stroke="black" points="695.36,-122 692.36,-126 671.36,-126 668.36,-122 584.64,-122 584.64,-86 695.36,-86 695.36,-122"/>
<text text-anchor="middle" x="640" y="-99.8" font-family="Times,serif" font-size="14.00">RegistrarModule</text>
</g>
<!-- RegistrarModule&#45;&gt;AppModule -->
<g id="edge9" class="edge">
<title>RegistrarModule&#45;&gt;AppModule</title>
<path fill="none" stroke="black" d="M640,-122.03C640,-139.06 640,-162 640,-162 640,-162 818.08,-162 818.08,-162"/>
<polygon fill="black" stroke="black" points="818.08,-165.5 828.08,-162 818.08,-158.5 818.08,-165.5"/>
</g>
<!-- SessionModule -->
<g id="node9" class="node">
<title>SessionModule</title>
<polygon fill="#8dd3c7" stroke="black" points="566.33,-122 563.33,-126 542.33,-126 539.33,-122 463.67,-122 463.67,-86 566.33,-86 566.33,-122"/>
<text text-anchor="middle" x="515" y="-99.8" font-family="Times,serif" font-size="14.00">SessionModule</text>
</g>
<!-- SessionModule&#45;&gt;AppModule -->
<g id="edge10" class="edge">
<title>SessionModule&#45;&gt;AppModule</title>
<path fill="none" stroke="black" d="M515,-122.22C515,-140.83 515,-167 515,-167 515,-167 818.23,-167 818.23,-167"/>
<polygon fill="black" stroke="black" points="818.23,-170.5 828.23,-167 818.23,-163.5 818.23,-170.5"/>
</g>
<!-- StorageModule -->
<g id="node10" class="node">
<title>StorageModule</title>
<polygon fill="#8dd3c7" stroke="black" points="446.31,-122 443.31,-126 422.31,-126 419.31,-122 343.69,-122 343.69,-86 446.31,-86 446.31,-122"/>
<text text-anchor="middle" x="395" y="-99.8" font-family="Times,serif" font-size="14.00">StorageModule</text>
</g>
<!-- StorageModule&#45;&gt;AppModule -->
<g id="edge11" class="edge">
<title>StorageModule&#45;&gt;AppModule</title>
<path fill="none" stroke="black" d="M395,-122.22C395,-142.37 395,-172 395,-172 395,-172 818.26,-172 818.26,-172"/>
<polygon fill="black" stroke="black" points="818.26,-175.5 828.26,-172 818.26,-168.5 818.26,-175.5"/>
</g>
<!-- VerifierModule -->
<g id="node11" class="node">
<title>VerifierModule</title>
<polygon fill="#8dd3c7" stroke="black" points="325.85,-122 322.85,-126 301.85,-126 298.85,-122 222.15,-122 222.15,-86 325.85,-86 325.85,-122"/>
<text text-anchor="middle" x="274" y="-99.8" font-family="Times,serif" font-size="14.00">VerifierModule</text>
</g>
<!-- VerifierModule&#45;&gt;AppModule -->
<g id="edge12" class="edge">
<title>VerifierModule&#45;&gt;AppModule</title>
<path fill="none" stroke="black" d="M274,-122.04C274,-143.66 274,-177 274,-177 274,-177 818.09,-177 818.09,-177"/>
<polygon fill="black" stroke="black" points="818.09,-180.5 828.09,-177 818.09,-173.5 818.09,-180.5"/>
</g>
<!-- WellKnownService -->
<g id="node13" class="node">
<title>WellKnownService</title>
<ellipse fill="#fdb462" stroke="black" cx="111" cy="-104" rx="87.38" ry="18"/>
<text text-anchor="middle" x="111" y="-99.8" font-family="Times,serif" font-size="14.00">WellKnownService</text>
</g>
<!-- WellKnownService&#45;&gt;AppModule -->
<g id="edge13" class="edge">
<title>WellKnownService&#45;&gt;AppModule</title>
<path fill="none" stroke="black" d="M111,-122.09C111,-145.13 111,-182 111,-182 111,-182 818.11,-182 818.11,-182"/>
<polygon fill="black" stroke="black" points="818.11,-185.5 828.11,-182 818.11,-178.5 818.11,-185.5"/>
</g>
</g>
</svg>
