<?xml version="1.0" encoding="UTF-8" standalone="no"?>
<!DOCTYPE svg PUBLIC "-//W3C//DTD SVG 1.1//EN"
 "http://www.w3.org/Graphics/SVG/1.1/DTD/svg11.dtd">
<!-- Generated by graphviz version 2.47.0 (20210316.0004)
 -->
<!-- Title: dependencies Pages: 1 -->
<svg width="1088pt" height="211pt"
 viewBox="0.00 0.00 1088.00 211.00" xmlns="http://www.w3.org/2000/svg" xmlns:xlink="http://www.w3.org/1999/xlink">
<g id="graph0" class="graph" transform="scale(1 1) rotate(0) translate(4 207)">
<title>dependencies</title>
<polygon fill="white" stroke="transparent" points="-4,4 -4,-207 1084,-207 1084,4 -4,4"/>
<text text-anchor="start" x="519.01" y="-42.4" font-family="Times-12" font-weight="bold" font-size="14.00">Legend</text>
<polygon fill="#ffffb3" stroke="transparent" points="306,-10 306,-30 326,-30 326,-10 306,-10"/>
<text text-anchor="start" x="329.63" y="-15.4" font-family="Times-12" font-size="14.00"> &#160;Declarations</text>
<polygon fill="#8dd3c7" stroke="transparent" points="419,-10 419,-30 439,-30 439,-10 419,-10"/>
<text text-anchor="start" x="442.73" y="-15.4" font-family="Times-12" font-size="14.00"> &#160;Module</text>
<polygon fill="#80b1d3" stroke="transparent" points="505,-10 505,-30 525,-30 525,-10 505,-10"/>
<text text-anchor="start" x="528.78" y="-15.4" font-family="Times-12" font-size="14.00"> &#160;Bootstrap</text>
<polygon fill="#fdb462" stroke="transparent" points="602,-10 602,-30 622,-30 622,-10 602,-10"/>
<text text-anchor="start" x="625.67" y="-15.4" font-family="Times-12" font-size="14.00"> &#160;Providers</text>
<polygon fill="#fb8072" stroke="transparent" points="698,-10 698,-30 718,-30 718,-10 698,-10"/>
<text text-anchor="start" x="721.73" y="-15.4" font-family="Times-12" font-size="14.00"> &#160;Exports</text>
<g id="clust1" class="cluster">
<title>cluster_AppModule</title>
<polygon fill="none" stroke="black" stroke-dasharray="1,5" points="8,-70 8,-195 1072,-195 1072,-70 8,-70"/>
</g>
<g id="clust3" class="cluster">
<title>cluster_AppModule_imports</title>
<polygon fill="none" stroke="black" points="16,-78 16,-130 1064,-130 1064,-78 16,-78"/>
</g>
<!-- AuthModule -->
<g id="node1" class="node">
<title>AuthModule</title>
<polygon fill="#8dd3c7" stroke="black" points="1055.55,-122 1052.55,-126 1031.55,-126 1028.55,-122 968.45,-122 968.45,-86 1055.55,-86 1055.55,-122"/>
<text text-anchor="middle" x="1012" y="-99.8" font-family="Times,serif" font-size="14.00">AuthModule</text>
</g>
<!-- AppModule -->
<g id="node10" class="node">
<title>AppModule</title>
<polygon fill="#8dd3c7" stroke="black" points="640.66,-187 637.66,-191 616.66,-191 613.66,-187 557.34,-187 557.34,-151 640.66,-151 640.66,-187"/>
<text text-anchor="middle" x="599" y="-164.8" font-family="Times,serif" font-size="14.00">AppModule</text>
</g>
<!-- AuthModule&#45;&gt;AppModule -->
<g id="edge1" class="edge">
<title>AuthModule&#45;&gt;AppModule</title>
<path fill="none" stroke="black" d="M1012,-122.01C1012,-144.49 1012,-180 1012,-180 1012,-180 650.87,-180 650.87,-180"/>
<polygon fill="black" stroke="black" points="650.87,-176.5 640.87,-180 650.87,-183.5 650.87,-176.5"/>
</g>
<!-- CryptoModule -->
<g id="node2" class="node">
<title>CryptoModule</title>
<polygon fill="#8dd3c7" stroke="black" points="950.44,-122 947.44,-126 926.44,-126 923.44,-122 851.56,-122 851.56,-86 950.44,-86 950.44,-122"/>
<text text-anchor="middle" x="901" y="-99.8" font-family="Times,serif" font-size="14.00">CryptoModule</text>
</g>
<!-- CryptoModule&#45;&gt;AppModule -->
<g id="edge2" class="edge">
<title>CryptoModule&#45;&gt;AppModule</title>
<path fill="none" stroke="black" d="M901,-122.13C901,-142.57 901,-173 901,-173 901,-173 650.67,-173 650.67,-173"/>
<polygon fill="black" stroke="black" points="650.67,-169.5 640.67,-173 650.67,-176.5 650.67,-169.5"/>
</g>
<!-- DatabaseModule -->
<g id="node3" class="node">
<title>DatabaseModule</title>
<polygon fill="#8dd3c7" stroke="black" points="833.35,-122 830.35,-126 809.35,-126 806.35,-122 722.65,-122 722.65,-86 833.35,-86 833.35,-122"/>
<text text-anchor="middle" x="778" y="-99.8" font-family="Times,serif" font-size="14.00">DatabaseModule</text>
</g>
<!-- DatabaseModule&#45;&gt;AppModule -->
<g id="edge3" class="edge">
<title>DatabaseModule&#45;&gt;AppModule</title>
<path fill="none" stroke="black" d="M796.48,-122.27C796.48,-140.56 796.48,-166 796.48,-166 796.48,-166 650.88,-166 650.88,-166"/>
<polygon fill="black" stroke="black" points="650.88,-162.5 640.88,-166 650.88,-169.5 650.88,-162.5"/>
</g>
<!-- DatabaseModule&#45;&gt;AppModule -->
<g id="edge4" class="edge">
<title>DatabaseModule&#45;&gt;AppModule</title>
<path fill="none" stroke="black" d="M759.52,-122.01C759.52,-138.05 759.52,-159 759.52,-159 759.52,-159 650.76,-159 650.76,-159"/>
<polygon fill="black" stroke="black" points="650.76,-155.5 640.76,-159 650.76,-162.5 650.76,-155.5"/>
</g>
<!-- HealthModule -->
<g id="node4" class="node">
<title>HealthModule</title>
<polygon fill="#8dd3c7" stroke="black" points="704.37,-122 701.37,-126 680.37,-126 677.37,-122 607.63,-122 607.63,-86 704.37,-86 704.37,-122"/>
<text text-anchor="middle" x="656" y="-99.8" font-family="Times,serif" font-size="14.00">HealthModule</text>
</g>
<!-- HealthModule&#45;&gt;AppModule -->
<g id="edge5" class="edge">
<title>HealthModule&#45;&gt;AppModule</title>
<path fill="none" stroke="black" d="M624.2,-122.11C624.2,-122.11 624.2,-140.99 624.2,-140.99"/>
<polygon fill="black" stroke="black" points="620.7,-140.99 624.2,-150.99 627.7,-140.99 620.7,-140.99"/>
</g>
<!-- IssuerModule -->
<g id="node5" class="node">
<title>IssuerModule</title>
<polygon fill="#8dd3c7" stroke="black" points="589.47,-122 586.47,-126 565.47,-126 562.47,-122 496.53,-122 496.53,-86 589.47,-86 589.47,-122"/>
<text text-anchor="middle" x="543" y="-99.8" font-family="Times,serif" font-size="14.00">IssuerModule</text>
</g>
<!-- IssuerModule&#45;&gt;AppModule -->
<g id="edge6" class="edge">
<title>IssuerModule&#45;&gt;AppModule</title>
<path fill="none" stroke="black" d="M573.33,-122.11C573.33,-122.11 573.33,-140.99 573.33,-140.99"/>
<polygon fill="black" stroke="black" points="569.83,-140.99 573.33,-150.99 576.83,-140.99 569.83,-140.99"/>
</g>
<!-- KeyModule -->
<g id="node6" class="node">
<title>KeyModule</title>
<polygon fill="#8dd3c7" stroke="black" points="478.37,-122 475.37,-126 454.37,-126 451.37,-122 395.63,-122 395.63,-86 478.37,-86 478.37,-122"/>
<text text-anchor="middle" x="437" y="-99.8" font-family="Times,serif" font-size="14.00">KeyModule</text>
</g>
<!-- KeyModule&#45;&gt;AppModule -->
<g id="edge7" class="edge">
<title>KeyModule&#45;&gt;AppModule</title>
<path fill="none" stroke="black" d="M437,-122.01C437,-138.05 437,-159 437,-159 437,-159 547.28,-159 547.28,-159"/>
<polygon fill="black" stroke="black" points="547.28,-162.5 557.28,-159 547.28,-155.5 547.28,-162.5"/>
</g>
<!-- RegistrarModule -->
<g id="node7" class="node">
<title>RegistrarModule</title>
<polygon fill="#8dd3c7" stroke="black" points="377.36,-122 374.36,-126 353.36,-126 350.36,-122 266.64,-122 266.64,-86 377.36,-86 377.36,-122"/>
<text text-anchor="middle" x="322" y="-99.8" font-family="Times,serif" font-size="14.00">RegistrarModule</text>
</g>
<!-- RegistrarModule&#45;&gt;AppModule -->
<g id="edge8" class="edge">
<title>RegistrarModule&#45;&gt;AppModule</title>
<path fill="none" stroke="black" d="M322,-122.27C322,-140.56 322,-166 322,-166 322,-166 547.23,-166 547.23,-166"/>
<polygon fill="black" stroke="black" points="547.23,-169.5 557.23,-166 547.23,-162.5 547.23,-169.5"/>
</g>
<!-- SessionModule -->
<g id="node8" class="node">
<title>SessionModule</title>
<polygon fill="#8dd3c7" stroke="black" points="248.33,-122 245.33,-126 224.33,-126 221.33,-122 145.67,-122 145.67,-86 248.33,-86 248.33,-122"/>
<text text-anchor="middle" x="197" y="-99.8" font-family="Times,serif" font-size="14.00">SessionModule</text>
</g>
<!-- SessionModule&#45;&gt;AppModule -->
<g id="edge9" class="edge">
<title>SessionModule&#45;&gt;AppModule</title>
<path fill="none" stroke="black" d="M197,-122.13C197,-142.57 197,-173 197,-173 197,-173 547.12,-173 547.12,-173"/>
<polygon fill="black" stroke="black" points="547.12,-176.5 557.12,-173 547.12,-169.5 547.12,-176.5"/>
</g>
<!-- VerifierModule -->
<g id="node9" class="node">
<title>VerifierModule</title>
<polygon fill="#8dd3c7" stroke="black" points="127.85,-122 124.85,-126 103.85,-126 100.85,-122 24.15,-122 24.15,-86 127.85,-86 127.85,-122"/>
<text text-anchor="middle" x="76" y="-99.8" font-family="Times,serif" font-size="14.00">VerifierModule</text>
</g>
<!-- VerifierModule&#45;&gt;AppModule -->
<g id="edge10" class="edge">
<title>VerifierModule&#45;&gt;AppModule</title>
<path fill="none" stroke="black" d="M76,-122.01C76,-144.49 76,-180 76,-180 76,-180 547.08,-180 547.08,-180"/>
<polygon fill="black" stroke="black" points="547.08,-183.5 557.08,-180 547.08,-176.5 547.08,-183.5"/>
</g>
</g>
</svg>
