<?xml version="1.0" encoding="UTF-8" standalone="no"?>
<!DOCTYPE svg PUBLIC "-//W3C//DTD SVG 1.1//EN"
 "http://www.w3.org/Graphics/SVG/1.1/DTD/svg11.dtd">
<!-- Generated by graphviz version 2.47.0 (20210316.0004)
 -->
<!-- Title: dependencies Pages: 1 -->
<svg width="1638pt" height="211pt"
 viewBox="0.00 0.00 1638.00 211.00" xmlns="http://www.w3.org/2000/svg" xmlns:xlink="http://www.w3.org/1999/xlink">
<g id="graph0" class="graph" transform="scale(1 1) rotate(0) translate(4 207)">
<title>dependencies</title>
<polygon fill="white" stroke="transparent" points="-4,4 -4,-207 1634,-207 1634,4 -4,4"/>
<text text-anchor="start" x="794.01" y="-42.4" font-family="Times-12" font-weight="bold" font-size="14.00">Legend</text>
<polygon fill="#ffffb3" stroke="transparent" points="581,-10 581,-30 601,-30 601,-10 581,-10"/>
<text text-anchor="start" x="604.63" y="-15.4" font-family="Times-12" font-size="14.00"> &#160;Declarations</text>
<polygon fill="#8dd3c7" stroke="transparent" points="694,-10 694,-30 714,-30 714,-10 694,-10"/>
<text text-anchor="start" x="717.73" y="-15.4" font-family="Times-12" font-size="14.00"> &#160;Module</text>
<polygon fill="#80b1d3" stroke="transparent" points="780,-10 780,-30 800,-30 800,-10 780,-10"/>
<text text-anchor="start" x="803.78" y="-15.4" font-family="Times-12" font-size="14.00"> &#160;Bootstrap</text>
<polygon fill="#fdb462" stroke="transparent" points="877,-10 877,-30 897,-30 897,-10 877,-10"/>
<text text-anchor="start" x="900.67" y="-15.4" font-family="Times-12" font-size="14.00"> &#160;Providers</text>
<polygon fill="#fb8072" stroke="transparent" points="973,-10 973,-30 993,-30 993,-10 973,-10"/>
<text text-anchor="start" x="996.73" y="-15.4" font-family="Times-12" font-size="14.00"> &#160;Exports</text>
<g id="clust1" class="cluster">
<title>cluster_AppModule</title>
<polygon fill="none" stroke="black" stroke-dasharray="1,5" points="8,-70 8,-195 1622,-195 1622,-70 8,-70"/>
</g>
<g id="clust6" class="cluster">
<title>cluster_AppModule_providers</title>
<polygon fill="none" stroke="black" points="1424,-78 1424,-130 1614,-130 1614,-78 1424,-78"/>
</g>
<g id="clust3" class="cluster">
<title>cluster_AppModule_imports</title>
<polygon fill="none" stroke="black" points="16,-78 16,-130 1416,-130 1416,-78 16,-78"/>
</g>
<!-- AuthModule -->
<g id="node1" class="node">
<title>AuthModule</title>
<polygon fill="#8dd3c7" stroke="black" points="1407.55,-122 1404.55,-126 1383.55,-126 1380.55,-122 1320.45,-122 1320.45,-86 1407.55,-86 1407.55,-122"/>
<text text-anchor="middle" x="1364" y="-99.8" font-family="Times,serif" font-size="14.00">AuthModule</text>
</g>
<!-- AppModule -->
<g id="node13" class="node">
<title>AppModule</title>
<polygon fill="#8dd3c7" stroke="black" points="883.66,-187 880.66,-191 859.66,-191 856.66,-187 800.34,-187 800.34,-151 883.66,-151 883.66,-187"/>
<text text-anchor="middle" x="842" y="-164.8" font-family="Times,serif" font-size="14.00">AppModule</text>
</g>
<!-- AuthModule&#45;&gt;AppModule -->
<g id="edge1" class="edge">
<title>AuthModule&#45;&gt;AppModule</title>
<path fill="none" stroke="black" d="M1364,-122.04C1364,-143.66 1364,-177 1364,-177 1364,-177 893.84,-177 893.84,-177"/>
<polygon fill="black" stroke="black" points="893.84,-173.5 883.84,-177 893.84,-180.5 893.84,-173.5"/>
</g>
<!-- CryptoModule -->
<g id="node2" class="node">
<title>CryptoModule</title>
<polygon fill="#8dd3c7" stroke="black" points="1302.44,-122 1299.44,-126 1278.44,-126 1275.44,-122 1203.56,-122 1203.56,-86 1302.44,-86 1302.44,-122"/>
<text text-anchor="middle" x="1253" y="-99.8" font-family="Times,serif" font-size="14.00">CryptoModule</text>
</g>
<!-- CryptoModule&#45;&gt;AppModule -->
<g id="edge2" class="edge">
<title>CryptoModule&#45;&gt;AppModule</title>
<path fill="none" stroke="black" d="M1253,-122.22C1253,-142.37 1253,-172 1253,-172 1253,-172 893.67,-172 893.67,-172"/>
<polygon fill="black" stroke="black" points="893.67,-168.5 883.67,-172 893.67,-175.5 893.67,-168.5"/>
</g>
<!-- DatabaseModule -->
<g id="node3" class="node">
<title>DatabaseModule</title>
<polygon fill="#8dd3c7" stroke="black" points="1185.35,-122 1182.35,-126 1161.35,-126 1158.35,-122 1074.65,-122 1074.65,-86 1185.35,-86 1185.35,-122"/>
<text text-anchor="middle" x="1130" y="-99.8" font-family="Times,serif" font-size="14.00">DatabaseModule</text>
</g>
<!-- DatabaseModule&#45;&gt;AppModule -->
<g id="edge3" class="edge">
<title>DatabaseModule&#45;&gt;AppModule</title>
<path fill="none" stroke="black" d="M1148.47,-122.22C1148.47,-140.83 1148.47,-167 1148.47,-167 1148.47,-167 893.97,-167 893.97,-167"/>
<polygon fill="black" stroke="black" points="893.97,-163.5 883.97,-167 893.97,-170.5 893.97,-163.5"/>
</g>
<!-- DatabaseModule&#45;&gt;AppModule -->
<g id="edge4" class="edge">
<title>DatabaseModule&#45;&gt;AppModule</title>
<path fill="none" stroke="black" d="M1111.53,-122.03C1111.53,-139.06 1111.53,-162 1111.53,-162 1111.53,-162 893.82,-162 893.82,-162"/>
<polygon fill="black" stroke="black" points="893.82,-158.5 883.82,-162 893.82,-165.5 893.82,-158.5"/>
</g>
<!-- HealthModule -->
<g id="node4" class="node">
<title>HealthModule</title>
<polygon fill="#8dd3c7" stroke="black" points="1056.37,-122 1053.37,-126 1032.37,-126 1029.37,-122 959.63,-122 959.63,-86 1056.37,-86 1056.37,-122"/>
<text text-anchor="middle" x="1008" y="-99.8" font-family="Times,serif" font-size="14.00">HealthModule</text>
</g>
<!-- HealthModule&#45;&gt;AppModule -->
<g id="edge5" class="edge">
<title>HealthModule&#45;&gt;AppModule</title>
<path fill="none" stroke="black" d="M1008,-122.24C1008,-137.57 1008,-157 1008,-157 1008,-157 893.89,-157 893.89,-157"/>
<polygon fill="black" stroke="black" points="893.89,-153.5 883.89,-157 893.89,-160.5 893.89,-153.5"/>
</g>
<!-- IssuerModule -->
<g id="node5" class="node">
<title>IssuerModule</title>
<polygon fill="#8dd3c7" stroke="black" points="941.47,-122 938.47,-126 917.47,-126 914.47,-122 848.53,-122 848.53,-86 941.47,-86 941.47,-122"/>
<text text-anchor="middle" x="895" y="-99.8" font-family="Times,serif" font-size="14.00">IssuerModule</text>
</g>
<!-- IssuerModule&#45;&gt;AppModule -->
<g id="edge6" class="edge">
<title>IssuerModule&#45;&gt;AppModule</title>
<path fill="none" stroke="black" d="M866.17,-122.11C866.17,-122.11 866.17,-140.99 866.17,-140.99"/>
<polygon fill="black" stroke="black" points="862.67,-140.99 866.17,-150.99 869.67,-140.99 862.67,-140.99"/>
</g>
<!-- KeyModule -->
<g id="node6" class="node">
<title>KeyModule</title>
<polygon fill="#8dd3c7" stroke="black" points="830.37,-122 827.37,-126 806.37,-126 803.37,-122 747.63,-122 747.63,-86 830.37,-86 830.37,-122"/>
<text text-anchor="middle" x="789" y="-99.8" font-family="Times,serif" font-size="14.00">KeyModule</text>
</g>
<!-- KeyModule&#45;&gt;AppModule -->
<g id="edge7" class="edge">
<title>KeyModule&#45;&gt;AppModule</title>
<path fill="none" stroke="black" d="M815.3,-122.11C815.3,-122.11 815.3,-140.99 815.3,-140.99"/>
<polygon fill="black" stroke="black" points="811.8,-140.99 815.3,-150.99 818.8,-140.99 811.8,-140.99"/>
</g>
<!-- LoggerModule -->
<g id="node7" class="node">
<title>LoggerModule</title>
<polygon fill="#8dd3c7" stroke="black" points="729.98,-122 726.98,-126 705.98,-126 702.98,-122 630.02,-122 630.02,-86 729.98,-86 729.98,-122"/>
<text text-anchor="middle" x="680" y="-99.8" font-family="Times,serif" font-size="14.00">LoggerModule</text>
</g>
<!-- LoggerModule&#45;&gt;AppModule -->
<g id="edge8" class="edge">
<title>LoggerModule&#45;&gt;AppModule</title>
<path fill="none" stroke="black" d="M680,-122.24C680,-137.57 680,-157 680,-157 680,-157 790.28,-157 790.28,-157"/>
<polygon fill="black" stroke="black" points="790.28,-160.5 800.28,-157 790.28,-153.5 790.28,-160.5"/>
</g>
<!-- MetricModule -->
<g id="node8" class="node">
<title>MetricModule</title>
<polygon fill="#8dd3c7" stroke="black" points="612.37,-122 609.37,-126 588.37,-126 585.37,-122 515.63,-122 515.63,-86 612.37,-86 612.37,-122"/>
<text text-anchor="middle" x="564" y="-99.8" font-family="Times,serif" font-size="14.00">MetricModule</text>
</g>
<!-- MetricModule&#45;&gt;AppModule -->
<g id="edge9" class="edge">
<title>MetricModule&#45;&gt;AppModule</title>
<path fill="none" stroke="black" d="M564,-122.03C564,-139.06 564,-162 564,-162 564,-162 790.08,-162 790.08,-162"/>
<polygon fill="black" stroke="black" points="790.08,-165.5 800.08,-162 790.08,-158.5 790.08,-165.5"/>
</g>
<!-- RegistrarModule -->
<g id="node9" class="node">
<title>RegistrarModule</title>
<polygon fill="#8dd3c7" stroke="black" points="497.36,-122 494.36,-126 473.36,-126 470.36,-122 386.64,-122 386.64,-86 497.36,-86 497.36,-122"/>
<text text-anchor="middle" x="442" y="-99.8" font-family="Times,serif" font-size="14.00">RegistrarModule</text>
</g>
<!-- RegistrarModule&#45;&gt;AppModule -->
<g id="edge10" class="edge">
<title>RegistrarModule&#45;&gt;AppModule</title>
<path fill="none" stroke="black" d="M442,-122.22C442,-140.83 442,-167 442,-167 442,-167 790.32,-167 790.32,-167"/>
<polygon fill="black" stroke="black" points="790.33,-170.5 800.32,-167 790.32,-163.5 790.33,-170.5"/>
</g>
<!-- SessionModule -->
<g id="node10" class="node">
<title>SessionModule</title>
<polygon fill="#8dd3c7" stroke="black" points="368.33,-122 365.33,-126 344.33,-126 341.33,-122 265.67,-122 265.67,-86 368.33,-86 368.33,-122"/>
<text text-anchor="middle" x="317" y="-99.8" font-family="Times,serif" font-size="14.00">SessionModule</text>
</g>
<!-- SessionModule&#45;&gt;AppModule -->
<g id="edge11" class="edge">
<title>SessionModule&#45;&gt;AppModule</title>
<path fill="none" stroke="black" d="M317,-122.22C317,-142.37 317,-172 317,-172 317,-172 789.92,-172 789.92,-172"/>
<polygon fill="black" stroke="black" points="789.92,-175.5 799.92,-172 789.92,-168.5 789.92,-175.5"/>
</g>
<!-- StorageModule -->
<g id="node11" class="node">
<title>StorageModule</title>
<polygon fill="#8dd3c7" stroke="black" points="248.31,-122 245.31,-126 224.31,-126 221.31,-122 145.69,-122 145.69,-86 248.31,-86 248.31,-122"/>
<text text-anchor="middle" x="197" y="-99.8" font-family="Times,serif" font-size="14.00">StorageModule</text>
</g>
<!-- StorageModule&#45;&gt;AppModule -->
<g id="edge12" class="edge">
<title>StorageModule&#45;&gt;AppModule</title>
<path fill="none" stroke="black" d="M197,-122.04C197,-143.66 197,-177 197,-177 197,-177 790.18,-177 790.18,-177"/>
<polygon fill="black" stroke="black" points="790.18,-180.5 800.18,-177 790.18,-173.5 790.18,-180.5"/>
</g>
<!-- VerifierModule -->
<g id="node12" class="node">
<title>VerifierModule</title>
<polygon fill="#8dd3c7" stroke="black" points="127.85,-122 124.85,-126 103.85,-126 100.85,-122 24.15,-122 24.15,-86 127.85,-86 127.85,-122"/>
<text text-anchor="middle" x="76" y="-99.8" font-family="Times,serif" font-size="14.00">VerifierModule</text>
</g>
<!-- VerifierModule&#45;&gt;AppModule -->
<g id="edge13" class="edge">
<title>VerifierModule&#45;&gt;AppModule</title>
<path fill="none" stroke="black" d="M76,-122.09C76,-145.13 76,-182 76,-182 76,-182 790.27,-182 790.27,-182"/>
<polygon fill="black" stroke="black" points="790.27,-185.5 800.27,-182 790.27,-178.5 790.27,-185.5"/>
</g>
<!-- WellKnownService -->
<g id="node14" class="node">
<title>WellKnownService</title>
<ellipse fill="#fdb462" stroke="black" cx="1519" cy="-104" rx="87.38" ry="18"/>
<text text-anchor="middle" x="1519" y="-99.8" font-family="Times,serif" font-size="14.00">WellKnownService</text>
</g>
<!-- WellKnownService&#45;&gt;AppModule -->
<g id="edge14" class="edge">
<title>WellKnownService&#45;&gt;AppModule</title>
<path fill="none" stroke="black" d="M1519,-122.09C1519,-145.13 1519,-182 1519,-182 1519,-182 893.84,-182 893.84,-182"/>
<polygon fill="black" stroke="black" points="893.84,-178.5 883.84,-182 893.84,-185.5 893.84,-178.5"/>
</g>
</g>
</svg>
