<?xml version="1.0" encoding="UTF-8" standalone="no"?>
<!DOCTYPE svg PUBLIC "-//W3C//DTD SVG 1.1//EN"
 "http://www.w3.org/Graphics/SVG/1.1/DTD/svg11.dtd">
<!-- Generated by graphviz version 2.47.0 (20210316.0004)
 -->
<!-- Title: dependencies Pages: 1 -->
<svg width="1792pt" height="211pt"
 viewBox="0.00 0.00 1792.00 211.00" xmlns="http://www.w3.org/2000/svg" xmlns:xlink="http://www.w3.org/1999/xlink">
<g id="graph0" class="graph" transform="scale(1 1) rotate(0) translate(4 207)">
<title>dependencies</title>
<polygon fill="white" stroke="transparent" points="-4,4 -4,-207 1788,-207 1788,4 -4,4"/>
<text text-anchor="start" x="871.01" y="-42.4" font-family="Times-12" font-weight="bold" font-size="14.00">Legend</text>
<polygon fill="#ffffb3" stroke="transparent" points="658,-10 658,-30 678,-30 678,-10 658,-10"/>
<text text-anchor="start" x="681.63" y="-15.4" font-family="Times-12" font-size="14.00"> &#160;Declarations</text>
<polygon fill="#8dd3c7" stroke="transparent" points="771,-10 771,-30 791,-30 791,-10 771,-10"/>
<text text-anchor="start" x="794.73" y="-15.4" font-family="Times-12" font-size="14.00"> &#160;Module</text>
<polygon fill="#80b1d3" stroke="transparent" points="857,-10 857,-30 877,-30 877,-10 857,-10"/>
<text text-anchor="start" x="880.78" y="-15.4" font-family="Times-12" font-size="14.00"> &#160;Bootstrap</text>
<polygon fill="#fdb462" stroke="transparent" points="954,-10 954,-30 974,-30 974,-10 954,-10"/>
<text text-anchor="start" x="977.67" y="-15.4" font-family="Times-12" font-size="14.00"> &#160;Providers</text>
<polygon fill="#fb8072" stroke="transparent" points="1050,-10 1050,-30 1070,-30 1070,-10 1050,-10"/>
<text text-anchor="start" x="1073.73" y="-15.4" font-family="Times-12" font-size="14.00"> &#160;Exports</text>
<g id="clust1" class="cluster">
<title>cluster_AppModule</title>
<polygon fill="none" stroke="black" stroke-dasharray="1,5" points="8,-70 8,-195 1776,-195 1776,-70 8,-70"/>
</g>
<g id="clust3" class="cluster">
<title>cluster_AppModule_imports</title>
<polygon fill="none" stroke="black" points="214,-78 214,-130 1768,-130 1768,-78 214,-78"/>
</g>
<g id="clust6" class="cluster">
<title>cluster_AppModule_providers</title>
<polygon fill="none" stroke="black" points="16,-78 16,-130 206,-130 206,-78 16,-78"/>
</g>
<!-- AuthModule -->
<g id="node1" class="node">
<title>AuthModule</title>
<polygon fill="#8dd3c7" stroke="black" points="1759.55,-122 1756.55,-126 1735.55,-126 1732.55,-122 1672.45,-122 1672.45,-86 1759.55,-86 1759.55,-122"/>
<text text-anchor="middle" x="1716" y="-99.8" font-family="Times,serif" font-size="14.00">AuthModule</text>
</g>
<!-- AppModule -->
<g id="node14" class="node">
<title>AppModule</title>
<polygon fill="#8dd3c7" stroke="black" points="1028.66,-187 1025.66,-191 1004.66,-191 1001.66,-187 945.34,-187 945.34,-151 1028.66,-151 1028.66,-187"/>
<text text-anchor="middle" x="987" y="-164.8" font-family="Times,serif" font-size="14.00">AppModule</text>
</g>
<!-- AuthModule&#45;&gt;AppModule -->
<g id="edge1" class="edge">
<title>AuthModule&#45;&gt;AppModule</title>
<path fill="none" stroke="black" d="M1716,-122.32C1716,-145.66 1716,-183 1716,-183 1716,-183 1038.81,-183 1038.81,-183"/>
<polygon fill="black" stroke="black" points="1038.81,-179.5 1028.81,-183 1038.81,-186.5 1038.81,-179.5"/>
</g>
<!-- ConfigImportModule -->
<g id="node2" class="node">
<title>ConfigImportModule</title>
<polygon fill="#8dd3c7" stroke="black" points="1654.04,-122 1651.04,-126 1630.04,-126 1627.04,-122 1517.96,-122 1517.96,-86 1654.04,-86 1654.04,-122"/>
<text text-anchor="middle" x="1586" y="-99.8" font-family="Times,serif" font-size="14.00">ConfigImportModule</text>
</g>
<!-- ConfigImportModule&#45;&gt;AppModule -->
<g id="edge2" class="edge">
<title>ConfigImportModule&#45;&gt;AppModule</title>
<path fill="none" stroke="black" d="M1586,-122.29C1586,-144.21 1586,-178 1586,-178 1586,-178 1039.12,-178 1039.12,-178"/>
<polygon fill="black" stroke="black" points="1039.12,-174.5 1029.12,-178 1039.12,-181.5 1039.12,-174.5"/>
</g>
<!-- CryptoModule -->
<g id="node3" class="node">
<title>CryptoModule</title>
<polygon fill="#8dd3c7" stroke="black" points="1500.44,-122 1497.44,-126 1476.44,-126 1473.44,-122 1401.56,-122 1401.56,-86 1500.44,-86 1500.44,-122"/>
<text text-anchor="middle" x="1451" y="-99.8" font-family="Times,serif" font-size="14.00">CryptoModule</text>
</g>
<!-- CryptoModule&#45;&gt;AppModule -->
<g id="edge3" class="edge">
<title>CryptoModule&#45;&gt;AppModule</title>
<path fill="none" stroke="black" d="M1451,-122.03C1451,-142.77 1451,-174 1451,-174 1451,-174 1039,-174 1039,-174"/>
<polygon fill="black" stroke="black" points="1039,-170.5 1029,-174 1039,-177.5 1039,-170.5"/>
</g>
<!-- DatabaseModule -->
<g id="node4" class="node">
<title>DatabaseModule</title>
<polygon fill="#8dd3c7" stroke="black" points="1383.35,-122 1380.35,-126 1359.35,-126 1356.35,-122 1272.65,-122 1272.65,-86 1383.35,-86 1383.35,-122"/>
<text text-anchor="middle" x="1328" y="-99.8" font-family="Times,serif" font-size="14.00">DatabaseModule</text>
</g>
<!-- DatabaseModule&#45;&gt;AppModule -->
<g id="edge4" class="edge">
<title>DatabaseModule&#45;&gt;AppModule</title>
<path fill="none" stroke="black" d="M1309.53,-122.3C1309.53,-140.27 1309.53,-165 1309.53,-165 1309.53,-165 1038.83,-165 1038.83,-165"/>
<polygon fill="black" stroke="black" points="1038.83,-161.5 1028.83,-165 1038.83,-168.5 1038.83,-161.5"/>
</g>
<!-- DatabaseModule&#45;&gt;AppModule -->
<g id="edge5" class="edge">
<title>DatabaseModule&#45;&gt;AppModule</title>
<path fill="none" stroke="black" d="M1346.47,-122.11C1346.47,-141.34 1346.47,-169 1346.47,-169 1346.47,-169 1038.94,-169 1038.94,-169"/>
<polygon fill="black" stroke="black" points="1038.94,-165.5 1028.94,-169 1038.94,-172.5 1038.94,-165.5"/>
</g>
<!-- HealthModule -->
<g id="node5" class="node">
<title>HealthModule</title>
<polygon fill="#8dd3c7" stroke="black" points="1254.37,-122 1251.37,-126 1230.37,-126 1227.37,-122 1157.63,-122 1157.63,-86 1254.37,-86 1254.37,-122"/>
<text text-anchor="middle" x="1206" y="-99.8" font-family="Times,serif" font-size="14.00">HealthModule</text>
</g>
<!-- HealthModule&#45;&gt;AppModule -->
<g id="edge6" class="edge">
<title>HealthModule&#45;&gt;AppModule</title>
<path fill="none" stroke="black" d="M1206,-122.03C1206,-138.4 1206,-160 1206,-160 1206,-160 1038.71,-160 1038.71,-160"/>
<polygon fill="black" stroke="black" points="1038.71,-156.5 1028.71,-160 1038.71,-163.5 1038.71,-156.5"/>
</g>
<!-- IssuerModule -->
<g id="node6" class="node">
<title>IssuerModule</title>
<polygon fill="#8dd3c7" stroke="black" points="1139.47,-122 1136.47,-126 1115.47,-126 1112.47,-122 1046.53,-122 1046.53,-86 1139.47,-86 1139.47,-122"/>
<text text-anchor="middle" x="1093" y="-99.8" font-family="Times,serif" font-size="14.00">IssuerModule</text>
</g>
<!-- IssuerModule&#45;&gt;AppModule -->
<g id="edge7" class="edge">
<title>IssuerModule&#45;&gt;AppModule</title>
<path fill="none" stroke="black" d="M1093,-122.19C1093,-137.18 1093,-156 1093,-156 1093,-156 1038.89,-156 1038.89,-156"/>
<polygon fill="black" stroke="black" points="1038.89,-152.5 1028.89,-156 1038.89,-159.5 1038.89,-152.5"/>
</g>
<!-- KeyModule -->
<g id="node7" class="node">
<title>KeyModule</title>
<polygon fill="#8dd3c7" stroke="black" points="1028.37,-122 1025.37,-126 1004.37,-126 1001.37,-122 945.63,-122 945.63,-86 1028.37,-86 1028.37,-122"/>
<text text-anchor="middle" x="987" y="-99.8" font-family="Times,serif" font-size="14.00">KeyModule</text>
</g>
<!-- KeyModule&#45;&gt;AppModule -->
<g id="edge8" class="edge">
<title>KeyModule&#45;&gt;AppModule</title>
<path fill="none" stroke="black" d="M987,-122.11C987,-122.11 987,-140.99 987,-140.99"/>
<polygon fill="black" stroke="black" points="983.5,-140.99 987,-150.99 990.5,-140.99 983.5,-140.99"/>
</g>
<!-- LoggerModule -->
<g id="node8" class="node">
<title>LoggerModule</title>
<polygon fill="#8dd3c7" stroke="black" points="927.98,-122 924.98,-126 903.98,-126 900.98,-122 828.02,-122 828.02,-86 927.98,-86 927.98,-122"/>
<text text-anchor="middle" x="878" y="-99.8" font-family="Times,serif" font-size="14.00">LoggerModule</text>
</g>
<!-- LoggerModule&#45;&gt;AppModule -->
<g id="edge9" class="edge">
<title>LoggerModule&#45;&gt;AppModule</title>
<path fill="none" stroke="black" d="M878,-122.19C878,-137.18 878,-156 878,-156 878,-156 935.17,-156 935.17,-156"/>
<polygon fill="black" stroke="black" points="935.17,-159.5 945.17,-156 935.17,-152.5 935.17,-159.5"/>
</g>
<!-- MetricModule -->
<g id="node9" class="node">
<title>MetricModule</title>
<polygon fill="#8dd3c7" stroke="black" points="810.37,-122 807.37,-126 786.37,-126 783.37,-122 713.63,-122 713.63,-86 810.37,-86 810.37,-122"/>
<text text-anchor="middle" x="762" y="-99.8" font-family="Times,serif" font-size="14.00">MetricModule</text>
</g>
<!-- MetricModule&#45;&gt;AppModule -->
<g id="edge10" class="edge">
<title>MetricModule&#45;&gt;AppModule</title>
<path fill="none" stroke="black" d="M762,-122.03C762,-138.4 762,-160 762,-160 762,-160 935.21,-160 935.21,-160"/>
<polygon fill="black" stroke="black" points="935.21,-163.5 945.21,-160 935.21,-156.5 935.21,-163.5"/>
</g>
<!-- RegistrarModule -->
<g id="node10" class="node">
<title>RegistrarModule</title>
<polygon fill="#8dd3c7" stroke="black" points="695.36,-122 692.36,-126 671.36,-126 668.36,-122 584.64,-122 584.64,-86 695.36,-86 695.36,-122"/>
<text text-anchor="middle" x="640" y="-99.8" font-family="Times,serif" font-size="14.00">RegistrarModule</text>
</g>
<!-- RegistrarModule&#45;&gt;AppModule -->
<g id="edge11" class="edge">
<title>RegistrarModule&#45;&gt;AppModule</title>
<path fill="none" stroke="black" d="M640,-122.3C640,-140.27 640,-165 640,-165 640,-165 935.14,-165 935.14,-165"/>
<polygon fill="black" stroke="black" points="935.14,-168.5 945.14,-165 935.14,-161.5 935.14,-168.5"/>
</g>
<!-- SessionModule -->
<g id="node11" class="node">
<title>SessionModule</title>
<polygon fill="#8dd3c7" stroke="black" points="566.33,-122 563.33,-126 542.33,-126 539.33,-122 463.67,-122 463.67,-86 566.33,-86 566.33,-122"/>
<text text-anchor="middle" x="515" y="-99.8" font-family="Times,serif" font-size="14.00">SessionModule</text>
</g>
<!-- SessionModule&#45;&gt;AppModule -->
<g id="edge12" class="edge">
<title>SessionModule&#45;&gt;AppModule</title>
<path fill="none" stroke="black" d="M515,-122.11C515,-141.34 515,-169 515,-169 515,-169 935.11,-169 935.11,-169"/>
<polygon fill="black" stroke="black" points="935.11,-172.5 945.11,-169 935.11,-165.5 935.11,-172.5"/>
</g>
<!-- StorageModule -->
<g id="node12" class="node">
<title>StorageModule</title>
<polygon fill="#8dd3c7" stroke="black" points="446.31,-122 443.31,-126 422.31,-126 419.31,-122 343.69,-122 343.69,-86 446.31,-86 446.31,-122"/>
<text text-anchor="middle" x="395" y="-99.8" font-family="Times,serif" font-size="14.00">StorageModule</text>
</g>
<!-- StorageModule&#45;&gt;AppModule -->
<g id="edge13" class="edge">
<title>StorageModule&#45;&gt;AppModule</title>
<path fill="none" stroke="black" d="M395,-122.03C395,-142.77 395,-174 395,-174 395,-174 934.9,-174 934.9,-174"/>
<polygon fill="black" stroke="black" points="934.9,-177.5 944.9,-174 934.9,-170.5 934.9,-177.5"/>
</g>
<!-- VerifierModule -->
<g id="node13" class="node">
<title>VerifierModule</title>
<polygon fill="#8dd3c7" stroke="black" points="325.85,-122 322.85,-126 301.85,-126 298.85,-122 222.15,-122 222.15,-86 325.85,-86 325.85,-122"/>
<text text-anchor="middle" x="274" y="-99.8" font-family="Times,serif" font-size="14.00">VerifierModule</text>
</g>
<!-- VerifierModule&#45;&gt;AppModule -->
<g id="edge14" class="edge">
<title>VerifierModule&#45;&gt;AppModule</title>
<path fill="none" stroke="black" d="M274,-122.29C274,-144.21 274,-178 274,-178 274,-178 935.32,-178 935.32,-178"/>
<polygon fill="black" stroke="black" points="935.32,-181.5 945.32,-178 935.32,-174.5 935.32,-181.5"/>
</g>
<!-- WellKnownService -->
<g id="node15" class="node">
<title>WellKnownService</title>
<ellipse fill="#fdb462" stroke="black" cx="111" cy="-104" rx="87.38" ry="18"/>
<text text-anchor="middle" x="111" y="-99.8" font-family="Times,serif" font-size="14.00">WellKnownService</text>
</g>
<!-- WellKnownService&#45;&gt;AppModule -->
<g id="edge15" class="edge">
<title>WellKnownService&#45;&gt;AppModule</title>
<path fill="none" stroke="black" d="M111,-122.32C111,-145.66 111,-183 111,-183 111,-183 935.34,-183 935.34,-183"/>
<polygon fill="black" stroke="black" points="935.34,-186.5 945.34,-183 935.34,-179.5 935.34,-186.5"/>
</g>
</g>
</svg>
