<?xml version="1.0" encoding="UTF-8" standalone="no"?>
<!DOCTYPE svg PUBLIC "-//W3C//DTD SVG 1.1//EN"
 "http://www.w3.org/Graphics/SVG/1.1/DTD/svg11.dtd">
<!-- Generated by graphviz version 2.47.0 (20210316.0004)
 -->
<!-- Title: dependencies Pages: 1 -->
<svg width="1401pt" height="211pt"
 viewBox="0.00 0.00 1401.00 211.00" xmlns="http://www.w3.org/2000/svg" xmlns:xlink="http://www.w3.org/1999/xlink">
<g id="graph0" class="graph" transform="scale(1 1) rotate(0) translate(4 207)">
<title>dependencies</title>
<polygon fill="white" stroke="transparent" points="-4,4 -4,-207 1397,-207 1397,4 -4,4"/>
<text text-anchor="start" x="675.51" y="-42.4" font-family="Times-12" font-weight="bold" font-size="14.00">Legend</text>
<polygon fill="#ffffb3" stroke="transparent" points="462.5,-10 462.5,-30 482.5,-30 482.5,-10 462.5,-10"/>
<text text-anchor="start" x="486.13" y="-15.4" font-family="Times-12" font-size="14.00"> &#160;Declarations</text>
<polygon fill="#8dd3c7" stroke="transparent" points="575.5,-10 575.5,-30 595.5,-30 595.5,-10 575.5,-10"/>
<text text-anchor="start" x="599.23" y="-15.4" font-family="Times-12" font-size="14.00"> &#160;Module</text>
<polygon fill="#80b1d3" stroke="transparent" points="661.5,-10 661.5,-30 681.5,-30 681.5,-10 661.5,-10"/>
<text text-anchor="start" x="685.28" y="-15.4" font-family="Times-12" font-size="14.00"> &#160;Bootstrap</text>
<polygon fill="#fdb462" stroke="transparent" points="758.5,-10 758.5,-30 778.5,-30 778.5,-10 758.5,-10"/>
<text text-anchor="start" x="782.17" y="-15.4" font-family="Times-12" font-size="14.00"> &#160;Providers</text>
<polygon fill="#fb8072" stroke="transparent" points="854.5,-10 854.5,-30 874.5,-30 874.5,-10 854.5,-10"/>
<text text-anchor="start" x="878.23" y="-15.4" font-family="Times-12" font-size="14.00"> &#160;Exports</text>
<g id="clust1" class="cluster">
<title>cluster_AppModule</title>
<polygon fill="none" stroke="black" stroke-dasharray="1,5" points="8,-70 8,-195 1385,-195 1385,-70 8,-70"/>
</g>
<g id="clust3" class="cluster">
<title>cluster_AppModule_imports</title>
<polygon fill="none" stroke="black" points="214,-78 214,-130 1377,-130 1377,-78 214,-78"/>
</g>
<g id="clust6" class="cluster">
<title>cluster_AppModule_providers</title>
<polygon fill="none" stroke="black" points="16,-78 16,-130 206,-130 206,-78 16,-78"/>
</g>
<!-- AuthModule -->
<g id="node1" class="node">
<title>AuthModule</title>
<polygon fill="#8dd3c7" stroke="black" points="1368.55,-122 1365.55,-126 1344.55,-126 1341.55,-122 1281.45,-122 1281.45,-86 1368.55,-86 1368.55,-122"/>
<text text-anchor="middle" x="1325" y="-99.8" font-family="Times,serif" font-size="14.00">AuthModule</text>
</g>
<!-- AppModule -->
<g id="node11" class="node">
<title>AppModule</title>
<polygon fill="#8dd3c7" stroke="black" points="844.66,-187 841.66,-191 820.66,-191 817.66,-187 761.34,-187 761.34,-151 844.66,-151 844.66,-187"/>
<text text-anchor="middle" x="803" y="-164.8" font-family="Times,serif" font-size="14.00">AppModule</text>
</g>
<!-- AuthModule&#45;&gt;AppModule -->
<g id="edge1" class="edge">
<title>AuthModule&#45;&gt;AppModule</title>
<path fill="none" stroke="black" d="M1325,-122.09C1325,-145.13 1325,-182 1325,-182 1325,-182 854.84,-182 854.84,-182"/>
<polygon fill="black" stroke="black" points="854.84,-178.5 844.84,-182 854.84,-185.5 854.84,-178.5"/>
</g>
<!-- CryptoModule -->
<g id="node2" class="node">
<title>CryptoModule</title>
<polygon fill="#8dd3c7" stroke="black" points="1263.44,-122 1260.44,-126 1239.44,-126 1236.44,-122 1164.56,-122 1164.56,-86 1263.44,-86 1263.44,-122"/>
<text text-anchor="middle" x="1214" y="-99.8" font-family="Times,serif" font-size="14.00">CryptoModule</text>
</g>
<!-- CryptoModule&#45;&gt;AppModule -->
<g id="edge2" class="edge">
<title>CryptoModule&#45;&gt;AppModule</title>
<path fill="none" stroke="black" d="M1214,-122.28C1214,-143.32 1214,-175 1214,-175 1214,-175 854.67,-175 854.67,-175"/>
<polygon fill="black" stroke="black" points="854.67,-171.5 844.67,-175 854.67,-178.5 854.67,-171.5"/>
</g>
<!-- DatabaseModule -->
<g id="node3" class="node">
<title>DatabaseModule</title>
<polygon fill="#8dd3c7" stroke="black" points="1146.35,-122 1143.35,-126 1122.35,-126 1119.35,-122 1035.65,-122 1035.65,-86 1146.35,-86 1146.35,-122"/>
<text text-anchor="middle" x="1091" y="-99.8" font-family="Times,serif" font-size="14.00">DatabaseModule</text>
</g>
<!-- DatabaseModule&#45;&gt;AppModule -->
<g id="edge3" class="edge">
<title>DatabaseModule&#45;&gt;AppModule</title>
<path fill="none" stroke="black" d="M1109.47,-122.11C1109.47,-141.34 1109.47,-169 1109.47,-169 1109.47,-169 854.97,-169 854.97,-169"/>
<polygon fill="black" stroke="black" points="854.97,-165.5 844.97,-169 854.97,-172.5 854.97,-165.5"/>
</g>
<!-- DatabaseModule&#45;&gt;AppModule -->
<g id="edge4" class="edge">
<title>DatabaseModule&#45;&gt;AppModule</title>
<path fill="none" stroke="black" d="M1072.53,-122.02C1072.53,-139.37 1072.53,-163 1072.53,-163 1072.53,-163 854.82,-163 854.82,-163"/>
<polygon fill="black" stroke="black" points="854.82,-159.5 844.82,-163 854.82,-166.5 854.82,-159.5"/>
</g>
<!-- HealthModule -->
<g id="node4" class="node">
<title>HealthModule</title>
<polygon fill="#8dd3c7" stroke="black" points="1017.37,-122 1014.37,-126 993.37,-126 990.37,-122 920.63,-122 920.63,-86 1017.37,-86 1017.37,-122"/>
<text text-anchor="middle" x="969" y="-99.8" font-family="Times,serif" font-size="14.00">HealthModule</text>
</g>
<!-- HealthModule&#45;&gt;AppModule -->
<g id="edge5" class="edge">
<title>HealthModule&#45;&gt;AppModule</title>
<path fill="none" stroke="black" d="M969,-122.24C969,-137.57 969,-157 969,-157 969,-157 854.89,-157 854.89,-157"/>
<polygon fill="black" stroke="black" points="854.89,-153.5 844.89,-157 854.89,-160.5 854.89,-153.5"/>
</g>
<!-- IssuerModule -->
<g id="node5" class="node">
<title>IssuerModule</title>
<polygon fill="#8dd3c7" stroke="black" points="902.47,-122 899.47,-126 878.47,-126 875.47,-122 809.53,-122 809.53,-86 902.47,-86 902.47,-122"/>
<text text-anchor="middle" x="856" y="-99.8" font-family="Times,serif" font-size="14.00">IssuerModule</text>
</g>
<!-- IssuerModule&#45;&gt;AppModule -->
<g id="edge6" class="edge">
<title>IssuerModule&#45;&gt;AppModule</title>
<path fill="none" stroke="black" d="M827.17,-122.11C827.17,-122.11 827.17,-140.99 827.17,-140.99"/>
<polygon fill="black" stroke="black" points="823.67,-140.99 827.17,-150.99 830.67,-140.99 823.67,-140.99"/>
</g>
<!-- KeyModule -->
<g id="node6" class="node">
<title>KeyModule</title>
<polygon fill="#8dd3c7" stroke="black" points="791.37,-122 788.37,-126 767.37,-126 764.37,-122 708.63,-122 708.63,-86 791.37,-86 791.37,-122"/>
<text text-anchor="middle" x="750" y="-99.8" font-family="Times,serif" font-size="14.00">KeyModule</text>
</g>
<!-- KeyModule&#45;&gt;AppModule -->
<g id="edge7" class="edge">
<title>KeyModule&#45;&gt;AppModule</title>
<path fill="none" stroke="black" d="M776.3,-122.11C776.3,-122.11 776.3,-140.99 776.3,-140.99"/>
<polygon fill="black" stroke="black" points="772.8,-140.99 776.3,-150.99 779.8,-140.99 772.8,-140.99"/>
</g>
<!-- MetricModule -->
<g id="node7" class="node">
<title>MetricModule</title>
<polygon fill="#8dd3c7" stroke="black" points="690.37,-122 687.37,-126 666.37,-126 663.37,-122 593.63,-122 593.63,-86 690.37,-86 690.37,-122"/>
<text text-anchor="middle" x="642" y="-99.8" font-family="Times,serif" font-size="14.00">MetricModule</text>
</g>
<!-- MetricModule&#45;&gt;AppModule -->
<g id="edge8" class="edge">
<title>MetricModule&#45;&gt;AppModule</title>
<path fill="none" stroke="black" d="M642,-122.24C642,-137.57 642,-157 642,-157 642,-157 751.12,-157 751.12,-157"/>
<polygon fill="black" stroke="black" points="751.12,-160.5 761.12,-157 751.12,-153.5 751.12,-160.5"/>
</g>
<!-- RegistrarModule -->
<g id="node8" class="node">
<title>RegistrarModule</title>
<polygon fill="#8dd3c7" stroke="black" points="575.36,-122 572.36,-126 551.36,-126 548.36,-122 464.64,-122 464.64,-86 575.36,-86 575.36,-122"/>
<text text-anchor="middle" x="520" y="-99.8" font-family="Times,serif" font-size="14.00">RegistrarModule</text>
</g>
<!-- RegistrarModule&#45;&gt;AppModule -->
<g id="edge9" class="edge">
<title>RegistrarModule&#45;&gt;AppModule</title>
<path fill="none" stroke="black" d="M520,-122.02C520,-139.37 520,-163 520,-163 520,-163 751.24,-163 751.24,-163"/>
<polygon fill="black" stroke="black" points="751.24,-166.5 761.24,-163 751.24,-159.5 751.24,-166.5"/>
</g>
<!-- SessionModule -->
<g id="node9" class="node">
<title>SessionModule</title>
<polygon fill="#8dd3c7" stroke="black" points="446.33,-122 443.33,-126 422.33,-126 419.33,-122 343.67,-122 343.67,-86 446.33,-86 446.33,-122"/>
<text text-anchor="middle" x="395" y="-99.8" font-family="Times,serif" font-size="14.00">SessionModule</text>
</g>
<!-- SessionModule&#45;&gt;AppModule -->
<g id="edge10" class="edge">
<title>SessionModule&#45;&gt;AppModule</title>
<path fill="none" stroke="black" d="M395,-122.11C395,-141.34 395,-169 395,-169 395,-169 751.25,-169 751.25,-169"/>
<polygon fill="black" stroke="black" points="751.25,-172.5 761.25,-169 751.25,-165.5 751.25,-172.5"/>
</g>
<!-- VerifierModule -->
<g id="node10" class="node">
<title>VerifierModule</title>
<polygon fill="#8dd3c7" stroke="black" points="325.85,-122 322.85,-126 301.85,-126 298.85,-122 222.15,-122 222.15,-86 325.85,-86 325.85,-122"/>
<text text-anchor="middle" x="274" y="-99.8" font-family="Times,serif" font-size="14.00">VerifierModule</text>
</g>
<!-- VerifierModule&#45;&gt;AppModule -->
<g id="edge11" class="edge">
<title>VerifierModule&#45;&gt;AppModule</title>
<path fill="none" stroke="black" d="M274,-122.28C274,-143.32 274,-175 274,-175 274,-175 751.05,-175 751.05,-175"/>
<polygon fill="black" stroke="black" points="751.05,-178.5 761.05,-175 751.05,-171.5 751.05,-178.5"/>
</g>
<!-- WellKnownService -->
<g id="node12" class="node">
<title>WellKnownService</title>
<ellipse fill="#fdb462" stroke="black" cx="111" cy="-104" rx="87.38" ry="18"/>
<text text-anchor="middle" x="111" y="-99.8" font-family="Times,serif" font-size="14.00">WellKnownService</text>
</g>
<!-- WellKnownService&#45;&gt;AppModule -->
<g id="edge12" class="edge">
<title>WellKnownService&#45;&gt;AppModule</title>
<path fill="none" stroke="black" d="M111,-122.09C111,-145.13 111,-182 111,-182 111,-182 751.27,-182 751.27,-182"/>
<polygon fill="black" stroke="black" points="751.27,-185.5 761.27,-182 751.27,-178.5 751.27,-185.5"/>
</g>
</g>
</svg>
