<?xml version="1.0" encoding="UTF-8" standalone="no"?>
<!DOCTYPE svg PUBLIC "-//W3C//DTD SVG 1.1//EN"
 "http://www.w3.org/Graphics/SVG/1.1/DTD/svg11.dtd">
<!-- Generated by graphviz version 2.47.0 (20210316.0004)
 -->
<!-- Title: dependencies Pages: 1 -->
<svg width="504pt" height="284pt"
 viewBox="0.00 0.00 504.00 284.00" xmlns="http://www.w3.org/2000/svg" xmlns:xlink="http://www.w3.org/1999/xlink">
<g id="graph0" class="graph" transform="scale(1 1) rotate(0) translate(4 280)">
<title>dependencies</title>
<polygon fill="white" stroke="transparent" points="-4,4 -4,-280 500,-280 500,4 -4,4"/>
<text text-anchor="start" x="227.01" y="-42.4" font-family="Times-12" font-weight="bold" font-size="14.00">Legend</text>
<polygon fill="#ffffb3" stroke="transparent" points="14,-10 14,-30 34,-30 34,-10 14,-10"/>
<text text-anchor="start" x="37.63" y="-15.4" font-family="Times-12" font-size="14.00"> &#160;Declarations</text>
<polygon fill="#8dd3c7" stroke="transparent" points="127,-10 127,-30 147,-30 147,-10 127,-10"/>
<text text-anchor="start" x="150.73" y="-15.4" font-family="Times-12" font-size="14.00"> &#160;Module</text>
<polygon fill="#80b1d3" stroke="transparent" points="213,-10 213,-30 233,-30 233,-10 213,-10"/>
<text text-anchor="start" x="236.78" y="-15.4" font-family="Times-12" font-size="14.00"> &#160;Bootstrap</text>
<polygon fill="#fdb462" stroke="transparent" points="310,-10 310,-30 330,-30 330,-10 310,-10"/>
<text text-anchor="start" x="333.67" y="-15.4" font-family="Times-12" font-size="14.00"> &#160;Providers</text>
<polygon fill="#fb8072" stroke="transparent" points="406,-10 406,-30 426,-30 426,-10 406,-10"/>
<text text-anchor="start" x="429.73" y="-15.4" font-family="Times-12" font-size="14.00"> &#160;Exports</text>
<g id="clust1" class="cluster">
<title>cluster_RegistrarModule</title>
<polygon fill="none" stroke="black" stroke-dasharray="1,5" points="96,-70 96,-268 400,-268 400,-70 96,-70"/>
</g>
<g id="clust4" class="cluster">
<title>cluster_RegistrarModule_exports</title>
<polygon fill="none" stroke="black" points="193,-208 193,-260 321,-260 321,-208 193,-208"/>
</g>
<g id="clust3" class="cluster">
<title>cluster_RegistrarModule_imports</title>
<polygon fill="none" stroke="black" points="278,-78 278,-130 392,-130 392,-78 278,-78"/>
</g>
<g id="clust6" class="cluster">
<title>cluster_RegistrarModule_providers</title>
<polygon fill="none" stroke="black" points="104,-78 104,-130 270,-130 270,-78 104,-78"/>
</g>
<!-- CryptoModule -->
<g id="node1" class="node">
<title>CryptoModule</title>
<polygon fill="#8dd3c7" stroke="black" points="384.44,-122 381.44,-126 360.44,-126 357.44,-122 285.56,-122 285.56,-86 384.44,-86 384.44,-122"/>
<text text-anchor="middle" x="335" y="-99.8" font-family="Times,serif" font-size="14.00">CryptoModule</text>
</g>
<!-- RegistrarModule -->
<g id="node2" class="node">
<title>RegistrarModule</title>
<polygon fill="#8dd3c7" stroke="black" points="312.36,-187 309.36,-191 288.36,-191 285.36,-187 201.64,-187 201.64,-151 312.36,-151 312.36,-187"/>
<text text-anchor="middle" x="257" y="-164.8" font-family="Times,serif" font-size="14.00">RegistrarModule</text>
</g>
<!-- CryptoModule&#45;&gt;RegistrarModule -->
<g id="edge1" class="edge">
<title>CryptoModule&#45;&gt;RegistrarModule</title>
<path fill="none" stroke="black" d="M299.11,-122.11C299.11,-122.11 299.11,-140.99 299.11,-140.99"/>
<polygon fill="black" stroke="black" points="295.61,-140.99 299.11,-150.99 302.61,-140.99 295.61,-140.99"/>
</g>
<!-- RegistrarService  -->
<g id="node3" class="node">
<title>RegistrarService </title>
<polygon fill="#fb8072" stroke="black" points="313.29,-252 200.71,-252 200.71,-216 313.29,-216 313.29,-252"/>
<text text-anchor="middle" x="257" y="-229.8" font-family="Times,serif" font-size="14.00">RegistrarService </text>
</g>
<!-- RegistrarModule&#45;&gt;RegistrarService  -->
<g id="edge2" class="edge">
<title>RegistrarModule&#45;&gt;RegistrarService </title>
<path fill="none" stroke="black" stroke-dasharray="5,2" d="M257,-187.11C257,-187.11 257,-205.99 257,-205.99"/>
<polygon fill="black" stroke="black" points="253.5,-205.99 257,-215.99 260.5,-205.99 253.5,-205.99"/>
</g>
<!-- RegistrarService -->
<g id="node4" class="node">
<title>RegistrarService</title>
<ellipse fill="#fdb462" stroke="black" cx="187" cy="-104" rx="75.27" ry="18"/>
<text text-anchor="middle" x="187" y="-99.8" font-family="Times,serif" font-size="14.00">RegistrarService</text>
</g>
<!-- RegistrarService&#45;&gt;RegistrarModule -->
<g id="edge3" class="edge">
<title>RegistrarService&#45;&gt;RegistrarModule</title>
<path fill="none" stroke="black" d="M231.98,-118.75C231.98,-118.75 231.98,-140.59 231.98,-140.59"/>
<polygon fill="black" stroke="black" points="228.48,-140.59 231.98,-150.59 235.48,-140.59 228.48,-140.59"/>
</g>
</g>
</svg>
