<?xml version="1.0" encoding="UTF-8" standalone="no"?>
<!DOCTYPE svg PUBLIC "-//W3C//DTD SVG 1.1//EN"
 "http://www.w3.org/Graphics/SVG/1.1/DTD/svg11.dtd">
<!-- Generated by graphviz version 2.47.0 (20210316.0004)
 -->
<!-- Title: dependencies Pages: 1 -->
<svg width="504pt" height="284pt"
 viewBox="0.00 0.00 504.00 284.00" xmlns="http://www.w3.org/2000/svg" xmlns:xlink="http://www.w3.org/1999/xlink">
<g id="graph0" class="graph" transform="scale(1 1) rotate(0) translate(4 280)">
<title>dependencies</title>
<polygon fill="white" stroke="transparent" points="-4,4 -4,-280 500,-280 500,4 -4,4"/>
<text text-anchor="start" x="227.01" y="-42.4" font-family="Times-12" font-weight="bold" font-size="14.00">Legend</text>
<polygon fill="#ffffb3" stroke="transparent" points="14,-10 14,-30 34,-30 34,-10 14,-10"/>
<text text-anchor="start" x="37.63" y="-15.4" font-family="Times-12" font-size="14.00"> &#160;Declarations</text>
<polygon fill="#8dd3c7" stroke="transparent" points="127,-10 127,-30 147,-30 147,-10 127,-10"/>
<text text-anchor="start" x="150.73" y="-15.4" font-family="Times-12" font-size="14.00"> &#160;Module</text>
<polygon fill="#80b1d3" stroke="transparent" points="213,-10 213,-30 233,-30 233,-10 213,-10"/>
<text text-anchor="start" x="236.78" y="-15.4" font-family="Times-12" font-size="14.00"> &#160;Bootstrap</text>
<polygon fill="#fdb462" stroke="transparent" points="310,-10 310,-30 330,-30 330,-10 310,-10"/>
<text text-anchor="start" x="333.67" y="-15.4" font-family="Times-12" font-size="14.00"> &#160;Providers</text>
<polygon fill="#fb8072" stroke="transparent" points="406,-10 406,-30 426,-30 426,-10 406,-10"/>
<text text-anchor="start" x="429.73" y="-15.4" font-family="Times-12" font-size="14.00"> &#160;Exports</text>
<g id="clust1" class="cluster">
<title>cluster_RegistrarModule</title>
<polygon fill="none" stroke="black" stroke-dasharray="1,5" points="96,-70 96,-268 400,-268 400,-70 96,-70"/>
</g>
<g id="clust6" class="cluster">
<title>cluster_RegistrarModule_providers</title>
<polygon fill="none" stroke="black" points="226,-78 226,-130 392,-130 392,-78 226,-78"/>
</g>
<g id="clust3" class="cluster">
<title>cluster_RegistrarModule_imports</title>
<polygon fill="none" stroke="black" points="104,-78 104,-130 218,-130 218,-78 104,-78"/>
</g>
<g id="clust4" class="cluster">
<title>cluster_RegistrarModule_exports</title>
<polygon fill="none" stroke="black" points="174,-208 174,-260 302,-260 302,-208 174,-208"/>
</g>
<!-- CryptoModule -->
<g id="node1" class="node">
<title>CryptoModule</title>
<polygon fill="#8dd3c7" stroke="black" points="210.44,-122 207.44,-126 186.44,-126 183.44,-122 111.56,-122 111.56,-86 210.44,-86 210.44,-122"/>
<text text-anchor="middle" x="161" y="-99.8" font-family="Times,serif" font-size="14.00">CryptoModule</text>
</g>
<!-- RegistrarModule -->
<g id="node2" class="node">
<title>RegistrarModule</title>
<polygon fill="#8dd3c7" stroke="black" points="293.36,-187 290.36,-191 269.36,-191 266.36,-187 182.64,-187 182.64,-151 293.36,-151 293.36,-187"/>
<text text-anchor="middle" x="238" y="-164.8" font-family="Times,serif" font-size="14.00">RegistrarModule</text>
</g>
<!-- CryptoModule&#45;&gt;RegistrarModule -->
<g id="edge1" class="edge">
<title>CryptoModule&#45;&gt;RegistrarModule</title>
<path fill="none" stroke="black" d="M196.39,-122.11C196.39,-122.11 196.39,-140.99 196.39,-140.99"/>
<polygon fill="black" stroke="black" points="192.89,-140.99 196.39,-150.99 199.89,-140.99 192.89,-140.99"/>
</g>
<!-- RegistrarService  -->
<g id="node3" class="node">
<title>RegistrarService </title>
<polygon fill="#fb8072" stroke="black" points="294.29,-252 181.71,-252 181.71,-216 294.29,-216 294.29,-252"/>
<text text-anchor="middle" x="238" y="-229.8" font-family="Times,serif" font-size="14.00">RegistrarService </text>
</g>
<!-- RegistrarModule&#45;&gt;RegistrarService  -->
<g id="edge2" class="edge">
<title>RegistrarModule&#45;&gt;RegistrarService </title>
<path fill="none" stroke="black" stroke-dasharray="5,2" d="M238,-187.11C238,-187.11 238,-205.99 238,-205.99"/>
<polygon fill="black" stroke="black" points="234.5,-205.99 238,-215.99 241.5,-205.99 234.5,-205.99"/>
</g>
<!-- RegistrarService -->
<g id="node4" class="node">
<title>RegistrarService</title>
<ellipse fill="#fdb462" stroke="black" cx="309" cy="-104" rx="75.27" ry="18"/>
<text text-anchor="middle" x="309" y="-99.8" font-family="Times,serif" font-size="14.00">RegistrarService</text>
</g>
<!-- RegistrarService&#45;&gt;RegistrarModule -->
<g id="edge3" class="edge">
<title>RegistrarService&#45;&gt;RegistrarModule</title>
<path fill="none" stroke="black" d="M263.52,-118.43C263.52,-118.43 263.52,-140.89 263.52,-140.89"/>
<polygon fill="black" stroke="black" points="260.02,-140.89 263.52,-150.89 267.02,-140.89 260.02,-140.89"/>
</g>
</g>
</svg>
