<?xml version="1.0" encoding="UTF-8" standalone="no"?>
<!DOCTYPE svg PUBLIC "-//W3C//DTD SVG 1.1//EN"
 "http://www.w3.org/Graphics/SVG/1.1/DTD/svg11.dtd">
<!-- Generated by graphviz version 2.47.0 (20210316.0004)
 -->
<!-- Title: dependencies Pages: 1 -->
<svg width="1267pt" height="284pt"
 viewBox="0.00 0.00 1267.00 284.00" xmlns="http://www.w3.org/2000/svg" xmlns:xlink="http://www.w3.org/1999/xlink">
<g id="graph0" class="graph" transform="scale(1 1) rotate(0) translate(4 280)">
<title>dependencies</title>
<polygon fill="white" stroke="transparent" points="-4,4 -4,-280 1263,-280 1263,4 -4,4"/>
<text text-anchor="start" x="608.51" y="-42.4" font-family="Times-12" font-weight="bold" font-size="14.00">Legend</text>
<polygon fill="#ffffb3" stroke="transparent" points="395.5,-10 395.5,-30 415.5,-30 415.5,-10 395.5,-10"/>
<text text-anchor="start" x="419.13" y="-15.4" font-family="Times-12" font-size="14.00"> &#160;Declarations</text>
<polygon fill="#8dd3c7" stroke="transparent" points="508.5,-10 508.5,-30 528.5,-30 528.5,-10 508.5,-10"/>
<text text-anchor="start" x="532.23" y="-15.4" font-family="Times-12" font-size="14.00"> &#160;Module</text>
<polygon fill="#80b1d3" stroke="transparent" points="594.5,-10 594.5,-30 614.5,-30 614.5,-10 594.5,-10"/>
<text text-anchor="start" x="618.28" y="-15.4" font-family="Times-12" font-size="14.00"> &#160;Bootstrap</text>
<polygon fill="#fdb462" stroke="transparent" points="691.5,-10 691.5,-30 711.5,-30 711.5,-10 691.5,-10"/>
<text text-anchor="start" x="715.17" y="-15.4" font-family="Times-12" font-size="14.00"> &#160;Providers</text>
<polygon fill="#fb8072" stroke="transparent" points="787.5,-10 787.5,-30 807.5,-30 807.5,-10 787.5,-10"/>
<text text-anchor="start" x="811.23" y="-15.4" font-family="Times-12" font-size="14.00"> &#160;Exports</text>
<g id="clust1" class="cluster">
<title>cluster_RegistrarModule</title>
<polygon fill="none" stroke="black" stroke-dasharray="1,5" points="8,-70 8,-268 1251,-268 1251,-70 8,-70"/>
</g>
<g id="clust4" class="cluster">
<title>cluster_RegistrarModule_exports</title>
<polygon fill="none" stroke="black" points="529,-208 529,-260 657,-260 657,-208 529,-208"/>
</g>
<g id="clust6" class="cluster">
<title>cluster_RegistrarModule_providers</title>
<polygon fill="none" stroke="black" points="138,-78 138,-130 1243,-130 1243,-78 138,-78"/>
</g>
<g id="clust3" class="cluster">
<title>cluster_RegistrarModule_imports</title>
<polygon fill="none" stroke="black" points="16,-78 16,-130 130,-130 130,-78 16,-78"/>
</g>
<!-- CryptoModule -->
<g id="node1" class="node">
<title>CryptoModule</title>
<polygon fill="#8dd3c7" stroke="black" points="122.44,-122 119.44,-126 98.44,-126 95.44,-122 23.56,-122 23.56,-86 122.44,-86 122.44,-122"/>
<text text-anchor="middle" x="73" y="-99.8" font-family="Times,serif" font-size="14.00">CryptoModule</text>
</g>
<!-- RegistrarModule -->
<g id="node2" class="node">
<title>RegistrarModule</title>
<polygon fill="#8dd3c7" stroke="black" points="648.36,-187 645.36,-191 624.36,-191 621.36,-187 537.64,-187 537.64,-151 648.36,-151 648.36,-187"/>
<text text-anchor="middle" x="593" y="-164.8" font-family="Times,serif" font-size="14.00">RegistrarModule</text>
</g>
<!-- CryptoModule&#45;&gt;RegistrarModule -->
<g id="edge1" class="edge">
<title>CryptoModule&#45;&gt;RegistrarModule</title>
<path fill="none" stroke="black" d="M73,-122.28C73,-143.32 73,-175 73,-175 73,-175 527.35,-175 527.35,-175"/>
<polygon fill="black" stroke="black" points="527.35,-178.5 537.35,-175 527.35,-171.5 527.35,-178.5"/>
</g>
<!-- RegistrarService  -->
<g id="node3" class="node">
<title>RegistrarService </title>
<polygon fill="#fb8072" stroke="black" points="649.29,-252 536.71,-252 536.71,-216 649.29,-216 649.29,-252"/>
<text text-anchor="middle" x="593" y="-229.8" font-family="Times,serif" font-size="14.00">RegistrarService </text>
</g>
<!-- RegistrarModule&#45;&gt;RegistrarService  -->
<g id="edge2" class="edge">
<title>RegistrarModule&#45;&gt;RegistrarService </title>
<path fill="none" stroke="black" stroke-dasharray="5,2" d="M593,-187.11C593,-187.11 593,-205.99 593,-205.99"/>
<polygon fill="black" stroke="black" points="589.5,-205.99 593,-215.99 596.5,-205.99 589.5,-205.99"/>
</g>
<!-- AccessCertificateService -->
<g id="node4" class="node">
<title>AccessCertificateService</title>
<ellipse fill="#fdb462" stroke="black" cx="1127" cy="-104" rx="108.17" ry="18"/>
<text text-anchor="middle" x="1127" y="-99.8" font-family="Times,serif" font-size="14.00">AccessCertificateService</text>
</g>
<!-- AccessCertificateService&#45;&gt;RegistrarModule -->
<g id="edge3" class="edge">
<title>AccessCertificateService&#45;&gt;RegistrarModule</title>
<path fill="none" stroke="black" d="M1127,-122.28C1127,-143.32 1127,-175 1127,-175 1127,-175 658.39,-175 658.39,-175"/>
<polygon fill="black" stroke="black" points="658.39,-171.5 648.39,-175 658.39,-178.5 658.39,-171.5"/>
</g>
<!-- RegistrarAuthService -->
<g id="node5" class="node">
<title>RegistrarAuthService</title>
<ellipse fill="#fdb462" stroke="black" cx="906" cy="-104" rx="94.9" ry="18"/>
<text text-anchor="middle" x="906" y="-99.8" font-family="Times,serif" font-size="14.00">RegistrarAuthService</text>
</g>
<!-- RegistrarAuthService&#45;&gt;RegistrarModule -->
<g id="edge4" class="edge">
<title>RegistrarAuthService&#45;&gt;RegistrarModule</title>
<path fill="none" stroke="black" d="M906,-122.02C906,-139.37 906,-163 906,-163 906,-163 658.6,-163 658.6,-163"/>
<polygon fill="black" stroke="black" points="658.6,-159.5 648.6,-163 658.6,-166.5 658.6,-159.5"/>
</g>
<!-- RegistrarConfigService -->
<g id="node6" class="node">
<title>RegistrarConfigService</title>
<ellipse fill="#fdb462" stroke="black" cx="691" cy="-104" rx="102.42" ry="18"/>
<text text-anchor="middle" x="691" y="-99.8" font-family="Times,serif" font-size="14.00">RegistrarConfigService</text>
</g>
<!-- RegistrarConfigService&#45;&gt;RegistrarModule -->
<g id="edge5" class="edge">
<title>RegistrarConfigService&#45;&gt;RegistrarModule</title>
<path fill="none" stroke="black" d="M618.61,-116.84C618.61,-116.84 618.61,-140.52 618.61,-140.52"/>
<polygon fill="black" stroke="black" points="615.11,-140.52 618.61,-150.52 622.11,-140.52 615.11,-140.52"/>
</g>
<!-- RegistrarService -->
<g id="node7" class="node">
<title>RegistrarService</title>
<ellipse fill="#fdb462" stroke="black" cx="495" cy="-104" rx="75.27" ry="18"/>
<text text-anchor="middle" x="495" y="-99.8" font-family="Times,serif" font-size="14.00">RegistrarService</text>
</g>
<!-- RegistrarService&#45;&gt;RegistrarModule -->
<g id="edge6" class="edge">
<title>RegistrarService&#45;&gt;RegistrarModule</title>
<path fill="none" stroke="black" d="M553.98,-115.32C553.98,-115.32 553.98,-140.94 553.98,-140.94"/>
<polygon fill="black" stroke="black" points="550.48,-140.94 553.98,-150.94 557.48,-140.94 550.48,-140.94"/>
</g>
<!-- RegistrationCertificateService -->
<g id="node8" class="node">
<title>RegistrationCertificateService</title>
<ellipse fill="#fdb462" stroke="black" cx="274" cy="-104" rx="127.89" ry="18"/>
<text text-anchor="middle" x="274" y="-99.8" font-family="Times,serif" font-size="14.00">RegistrationCertificateService</text>
</g>
<!-- RegistrationCertificateService&#45;&gt;RegistrarModule -->
<g id="edge7" class="edge">
<title>RegistrationCertificateService&#45;&gt;RegistrarModule</title>
<path fill="none" stroke="black" d="M274,-122.02C274,-139.37 274,-163 274,-163 274,-163 527.43,-163 527.43,-163"/>
<polygon fill="black" stroke="black" points="527.43,-166.5 537.43,-163 527.43,-159.5 527.43,-166.5"/>
</g>
</g>
</svg>
