<?xml version="1.0" encoding="UTF-8" standalone="no"?>
<!DOCTYPE svg PUBLIC "-//W3C//DTD SVG 1.1//EN"
 "http://www.w3.org/Graphics/SVG/1.1/DTD/svg11.dtd">
<!-- Generated by graphviz version 2.47.0 (20210316.0004)
 -->
<!-- Title: dependencies Pages: 1 -->
<svg width="504pt" height="284pt"
 viewBox="0.00 0.00 504.00 284.00" xmlns="http://www.w3.org/2000/svg" xmlns:xlink="http://www.w3.org/1999/xlink">
<g id="graph0" class="graph" transform="scale(1 1) rotate(0) translate(4 280)">
<title>dependencies</title>
<polygon fill="white" stroke="transparent" points="-4,4 -4,-280 500,-280 500,4 -4,4"/>
<text text-anchor="start" x="227.01" y="-42.4" font-family="Times-12" font-weight="bold" font-size="14.00">Legend</text>
<polygon fill="#ffffb3" stroke="transparent" points="14,-10 14,-30 34,-30 34,-10 14,-10"/>
<text text-anchor="start" x="37.63" y="-15.4" font-family="Times-12" font-size="14.00"> &#160;Declarations</text>
<polygon fill="#8dd3c7" stroke="transparent" points="127,-10 127,-30 147,-30 147,-10 127,-10"/>
<text text-anchor="start" x="150.73" y="-15.4" font-family="Times-12" font-size="14.00"> &#160;Module</text>
<polygon fill="#80b1d3" stroke="transparent" points="213,-10 213,-30 233,-30 233,-10 213,-10"/>
<text text-anchor="start" x="236.78" y="-15.4" font-family="Times-12" font-size="14.00"> &#160;Bootstrap</text>
<polygon fill="#fdb462" stroke="transparent" points="310,-10 310,-30 330,-30 330,-10 310,-10"/>
<text text-anchor="start" x="333.67" y="-15.4" font-family="Times-12" font-size="14.00"> &#160;Providers</text>
<polygon fill="#fb8072" stroke="transparent" points="406,-10 406,-30 426,-30 426,-10 406,-10"/>
<text text-anchor="start" x="429.73" y="-15.4" font-family="Times-12" font-size="14.00"> &#160;Exports</text>
<g id="clust1" class="cluster">
<title>cluster_CryptoModule</title>
<polygon fill="none" stroke="black" stroke-dasharray="1,5" points="73,-70 73,-268 423,-268 423,-70 73,-70"/>
</g>
<g id="clust4" class="cluster">
<title>cluster_CryptoModule_exports</title>
<polygon fill="none" stroke="black" points="105,-208 105,-260 363,-260 363,-208 105,-208"/>
</g>
<g id="clust6" class="cluster">
<title>cluster_CryptoModule_providers</title>
<polygon fill="none" stroke="black" points="81,-78 81,-130 415,-130 415,-78 81,-78"/>
</g>
<!-- CryptoService  -->
<g id="node1" class="node">
<title>CryptoService </title>
<polygon fill="#fb8072" stroke="black" points="355.37,-252 254.63,-252 254.63,-216 355.37,-216 355.37,-252"/>
<text text-anchor="middle" x="305" y="-229.8" font-family="Times,serif" font-size="14.00">CryptoService </text>
</g>
<!-- EncryptionService  -->
<g id="node2" class="node">
<title>EncryptionService </title>
<polygon fill="#fb8072" stroke="black" points="236.69,-252 113.31,-252 113.31,-216 236.69,-216 236.69,-252"/>
<text text-anchor="middle" x="175" y="-229.8" font-family="Times,serif" font-size="14.00">EncryptionService </text>
</g>
<!-- CryptoModule -->
<g id="node3" class="node">
<title>CryptoModule</title>
<polygon fill="#8dd3c7" stroke="black" points="248.44,-187 245.44,-191 224.44,-191 221.44,-187 149.56,-187 149.56,-151 248.44,-151 248.44,-187"/>
<text text-anchor="middle" x="199" y="-164.8" font-family="Times,serif" font-size="14.00">CryptoModule</text>
</g>
<!-- CryptoModule&#45;&gt;CryptoService  -->
<g id="edge1" class="edge">
<title>CryptoModule&#45;&gt;CryptoService </title>
<path fill="none" stroke="black" stroke-dasharray="5,2" d="M242.53,-187.11C242.53,-206.34 242.53,-234 242.53,-234 242.53,-234 244.58,-234 244.58,-234"/>
<polygon fill="black" stroke="black" points="244.58,-237.5 254.58,-234 244.58,-230.5 244.58,-237.5"/>
</g>
<!-- CryptoModule&#45;&gt;EncryptionService  -->
<g id="edge2" class="edge">
<title>CryptoModule&#45;&gt;EncryptionService </title>
<path fill="none" stroke="black" stroke-dasharray="5,2" d="M193.31,-187.11C193.31,-187.11 193.31,-205.99 193.31,-205.99"/>
<polygon fill="black" stroke="black" points="189.81,-205.99 193.31,-215.99 196.81,-205.99 189.81,-205.99"/>
</g>
<!-- CryptoService -->
<g id="node4" class="node">
<title>CryptoService</title>
<ellipse fill="#fdb462" stroke="black" cx="340" cy="-104" rx="66.63" ry="18"/>
<text text-anchor="middle" x="340" y="-99.8" font-family="Times,serif" font-size="14.00">CryptoService</text>
</g>
<!-- CryptoService&#45;&gt;CryptoModule -->
<g id="edge3" class="edge">
<title>CryptoService&#45;&gt;CryptoModule</title>
<path fill="none" stroke="black" d="M314.18,-120.74C314.18,-140 314.18,-169 314.18,-169 314.18,-169 258.52,-169 258.52,-169"/>
<polygon fill="black" stroke="black" points="258.52,-165.5 248.52,-169 258.52,-172.5 258.52,-165.5"/>
</g>
<!-- EncryptionService -->
<g id="node5" class="node">
<title>EncryptionService</title>
<ellipse fill="#fdb462" stroke="black" cx="172" cy="-104" rx="82.81" ry="18"/>
<text text-anchor="middle" x="172" y="-99.8" font-family="Times,serif" font-size="14.00">EncryptionService</text>
</g>
<!-- EncryptionService&#45;&gt;CryptoModule -->
<g id="edge4" class="edge">
<title>EncryptionService&#45;&gt;CryptoModule</title>
<path fill="none" stroke="black" d="M199,-121.08C199,-121.08 199,-140.9 199,-140.9"/>
<polygon fill="black" stroke="black" points="195.5,-140.9 199,-150.9 202.5,-140.9 195.5,-140.9"/>
</g>
</g>
</svg>
