<?xml version="1.0" encoding="UTF-8" standalone="no"?>
<!DOCTYPE svg PUBLIC "-//W3C//DTD SVG 1.1//EN"
 "http://www.w3.org/Graphics/SVG/1.1/DTD/svg11.dtd">
<!-- Generated by graphviz version 2.47.0 (20210316.0004)
 -->
<!-- Title: dependencies Pages: 1 -->
<svg width="696pt" height="284pt"
 viewBox="0.00 0.00 696.00 284.00" xmlns="http://www.w3.org/2000/svg" xmlns:xlink="http://www.w3.org/1999/xlink">
<g id="graph0" class="graph" transform="scale(1 1) rotate(0) translate(4 280)">
<title>dependencies</title>
<polygon fill="white" stroke="transparent" points="-4,4 -4,-280 692,-280 692,4 -4,4"/>
<text text-anchor="start" x="323.01" y="-42.4" font-family="Times-12" font-weight="bold" font-size="14.00">Legend</text>
<polygon fill="#ffffb3" stroke="transparent" points="110,-10 110,-30 130,-30 130,-10 110,-10"/>
<text text-anchor="start" x="133.63" y="-15.4" font-family="Times-12" font-size="14.00"> &#160;Declarations</text>
<polygon fill="#8dd3c7" stroke="transparent" points="223,-10 223,-30 243,-30 243,-10 223,-10"/>
<text text-anchor="start" x="246.73" y="-15.4" font-family="Times-12" font-size="14.00"> &#160;Module</text>
<polygon fill="#80b1d3" stroke="transparent" points="309,-10 309,-30 329,-30 329,-10 309,-10"/>
<text text-anchor="start" x="332.78" y="-15.4" font-family="Times-12" font-size="14.00"> &#160;Bootstrap</text>
<polygon fill="#fdb462" stroke="transparent" points="406,-10 406,-30 426,-30 426,-10 406,-10"/>
<text text-anchor="start" x="429.67" y="-15.4" font-family="Times-12" font-size="14.00"> &#160;Providers</text>
<polygon fill="#fb8072" stroke="transparent" points="502,-10 502,-30 522,-30 522,-10 502,-10"/>
<text text-anchor="start" x="525.73" y="-15.4" font-family="Times-12" font-size="14.00"> &#160;Exports</text>
<g id="clust1" class="cluster">
<title>cluster_StatusListModule</title>
<polygon fill="none" stroke="black" stroke-dasharray="1,5" points="8,-70 8,-268 680,-268 680,-70 8,-70"/>
</g>
<g id="clust4" class="cluster">
<title>cluster_StatusListModule_exports</title>
<polygon fill="none" stroke="black" points="133,-208 133,-260 441,-260 441,-208 133,-208"/>
</g>
<g id="clust6" class="cluster">
<title>cluster_StatusListModule_providers</title>
<polygon fill="none" stroke="black" points="270,-78 270,-130 672,-130 672,-78 270,-78"/>
</g>
<g id="clust3" class="cluster">
<title>cluster_StatusListModule_imports</title>
<polygon fill="none" stroke="black" points="16,-78 16,-130 262,-130 262,-78 16,-78"/>
</g>
<!-- AuditLogModule -->
<g id="node1" class="node">
<title>AuditLogModule</title>
<polygon fill="#8dd3c7" stroke="black" points="253.99,-122 250.99,-126 229.99,-126 226.99,-122 140.01,-122 140.01,-86 253.99,-86 253.99,-122"/>
<text text-anchor="middle" x="197" y="-99.8" font-family="Times,serif" font-size="14.00">AuditLogModule</text>
</g>
<!-- StatusListModule -->
<g id="node3" class="node">
<title>StatusListModule</title>
<polygon fill="#8dd3c7" stroke="black" points="334.55,-187 331.55,-191 310.55,-191 307.55,-187 219.45,-187 219.45,-151 334.55,-151 334.55,-187"/>
<text text-anchor="middle" x="277" y="-164.8" font-family="Times,serif" font-size="14.00">StatusListModule</text>
</g>
<!-- AuditLogModule&#45;&gt;StatusListModule -->
<g id="edge1" class="edge">
<title>AuditLogModule&#45;&gt;StatusListModule</title>
<path fill="none" stroke="black" d="M236.61,-122.11C236.61,-122.11 236.61,-140.99 236.61,-140.99"/>
<polygon fill="black" stroke="black" points="233.11,-140.99 236.61,-150.99 240.11,-140.99 233.11,-140.99"/>
</g>
<!-- CryptoModule -->
<g id="node2" class="node">
<title>CryptoModule</title>
<polygon fill="#8dd3c7" stroke="black" points="122.44,-122 119.44,-126 98.44,-126 95.44,-122 23.56,-122 23.56,-86 122.44,-86 122.44,-122"/>
<text text-anchor="middle" x="73" y="-99.8" font-family="Times,serif" font-size="14.00">CryptoModule</text>
</g>
<!-- CryptoModule&#45;&gt;StatusListModule -->
<g id="edge2" class="edge">
<title>CryptoModule&#45;&gt;StatusListModule</title>
<path fill="none" stroke="black" d="M73,-122.11C73,-141.34 73,-169 73,-169 73,-169 209.36,-169 209.36,-169"/>
<polygon fill="black" stroke="black" points="209.36,-172.5 219.36,-169 209.36,-165.5 209.36,-172.5"/>
</g>
<!-- StatusListConfigService  -->
<g id="node4" class="node">
<title>StatusListConfigService </title>
<polygon fill="#fb8072" stroke="black" points="433.37,-252 276.63,-252 276.63,-216 433.37,-216 433.37,-252"/>
<text text-anchor="middle" x="355" y="-229.8" font-family="Times,serif" font-size="14.00">StatusListConfigService </text>
</g>
<!-- StatusListModule&#45;&gt;StatusListConfigService  -->
<g id="edge3" class="edge">
<title>StatusListModule&#45;&gt;StatusListConfigService </title>
<path fill="none" stroke="black" stroke-dasharray="5,2" d="M305.8,-187.11C305.8,-187.11 305.8,-205.99 305.8,-205.99"/>
<polygon fill="black" stroke="black" points="302.3,-205.99 305.8,-215.99 309.3,-205.99 302.3,-205.99"/>
</g>
<!-- StatusListService  -->
<g id="node5" class="node">
<title>StatusListService </title>
<polygon fill="#fb8072" stroke="black" points="258.98,-252 141.02,-252 141.02,-216 258.98,-216 258.98,-252"/>
<text text-anchor="middle" x="200" y="-229.8" font-family="Times,serif" font-size="14.00">StatusListService </text>
</g>
<!-- StatusListModule&#45;&gt;StatusListService  -->
<g id="edge4" class="edge">
<title>StatusListModule&#45;&gt;StatusListService </title>
<path fill="none" stroke="black" stroke-dasharray="5,2" d="M238.98,-187.11C238.98,-187.11 238.98,-205.99 238.98,-205.99"/>
<polygon fill="black" stroke="black" points="235.48,-205.99 238.98,-215.99 242.48,-205.99 235.48,-205.99"/>
</g>
<!-- StatusListConfigService -->
<g id="node6" class="node">
<title>StatusListConfigService</title>
<ellipse fill="#fdb462" stroke="black" cx="559" cy="-104" rx="105.39" ry="18"/>
<text text-anchor="middle" x="559" y="-99.8" font-family="Times,serif" font-size="14.00">StatusListConfigService</text>
</g>
<!-- StatusListConfigService&#45;&gt;StatusListModule -->
<g id="edge5" class="edge">
<title>StatusListConfigService&#45;&gt;StatusListModule</title>
<path fill="none" stroke="black" d="M559,-122.11C559,-141.34 559,-169 559,-169 559,-169 344.75,-169 344.75,-169"/>
<polygon fill="black" stroke="black" points="344.75,-165.5 334.75,-169 344.75,-172.5 344.75,-165.5"/>
</g>
<!-- StatusListService -->
<g id="node7" class="node">
<title>StatusListService</title>
<ellipse fill="#fdb462" stroke="black" cx="357" cy="-104" rx="78.74" ry="18"/>
<text text-anchor="middle" x="357" y="-99.8" font-family="Times,serif" font-size="14.00">StatusListService</text>
</g>
<!-- StatusListService&#45;&gt;StatusListModule -->
<g id="edge6" class="edge">
<title>StatusListService&#45;&gt;StatusListModule</title>
<path fill="none" stroke="black" d="M306.58,-118.1C306.58,-118.1 306.58,-140.72 306.58,-140.72"/>
<polygon fill="black" stroke="black" points="303.08,-140.72 306.58,-150.72 310.08,-140.72 303.08,-140.72"/>
</g>
</g>
</svg>
