<?xml version="1.0" encoding="UTF-8" standalone="no"?>
<!DOCTYPE svg PUBLIC "-//W3C//DTD SVG 1.1//EN"
 "http://www.w3.org/Graphics/SVG/1.1/DTD/svg11.dtd">
<!-- Generated by graphviz version 2.47.0 (20210316.0004)
 -->
<!-- Title: dependencies Pages: 1 -->
<svg width="1806pt" height="284pt"
 viewBox="0.00 0.00 1806.00 284.00" xmlns="http://www.w3.org/2000/svg" xmlns:xlink="http://www.w3.org/1999/xlink">
<g id="graph0" class="graph" transform="scale(1 1) rotate(0) translate(4 280)">
<title>dependencies</title>
<polygon fill="white" stroke="transparent" points="-4,4 -4,-280 1802,-280 1802,4 -4,4"/>
<text text-anchor="start" x="878.01" y="-42.4" font-family="Times-12" font-weight="bold" font-size="14.00">Legend</text>
<polygon fill="#ffffb3" stroke="transparent" points="665,-10 665,-30 685,-30 685,-10 665,-10"/>
<text text-anchor="start" x="688.63" y="-15.4" font-family="Times-12" font-size="14.00"> &#160;Declarations</text>
<polygon fill="#8dd3c7" stroke="transparent" points="778,-10 778,-30 798,-30 798,-10 778,-10"/>
<text text-anchor="start" x="801.73" y="-15.4" font-family="Times-12" font-size="14.00"> &#160;Module</text>
<polygon fill="#80b1d3" stroke="transparent" points="864,-10 864,-30 884,-30 884,-10 864,-10"/>
<text text-anchor="start" x="887.78" y="-15.4" font-family="Times-12" font-size="14.00"> &#160;Bootstrap</text>
<polygon fill="#fdb462" stroke="transparent" points="961,-10 961,-30 981,-30 981,-10 961,-10"/>
<text text-anchor="start" x="984.67" y="-15.4" font-family="Times-12" font-size="14.00"> &#160;Providers</text>
<polygon fill="#fb8072" stroke="transparent" points="1057,-10 1057,-30 1077,-30 1077,-10 1057,-10"/>
<text text-anchor="start" x="1080.73" y="-15.4" font-family="Times-12" font-size="14.00"> &#160;Exports</text>
<g id="clust1" class="cluster">
<title>cluster_IssuanceModule</title>
<polygon fill="none" stroke="black" stroke-dasharray="1,5" points="8,-70 8,-268 1790,-268 1790,-70 8,-70"/>
</g>
<g id="clust6" class="cluster">
<title>cluster_IssuanceModule_providers</title>
<polygon fill="none" stroke="black" points="794,-78 794,-130 1782,-130 1782,-78 794,-78"/>
</g>
<g id="clust3" class="cluster">
<title>cluster_IssuanceModule_imports</title>
<polygon fill="none" stroke="black" points="16,-78 16,-130 786,-130 786,-78 16,-78"/>
</g>
<g id="clust4" class="cluster">
<title>cluster_IssuanceModule_exports</title>
<polygon fill="none" stroke="black" points="477,-208 477,-260 952,-260 952,-208 477,-208"/>
</g>
<!-- ConfigurationModule -->
<g id="node1" class="node">
<title>ConfigurationModule</title>
<polygon fill="#8dd3c7" stroke="black" points="778.09,-122 775.09,-126 754.09,-126 751.09,-122 639.91,-122 639.91,-86 778.09,-86 778.09,-122"/>
<text text-anchor="middle" x="709" y="-99.8" font-family="Times,serif" font-size="14.00">ConfigurationModule</text>
</g>
<!-- IssuanceModule -->
<g id="node7" class="node">
<title>IssuanceModule</title>
<polygon fill="#8dd3c7" stroke="black" points="762.74,-187 759.74,-191 738.74,-191 735.74,-187 655.26,-187 655.26,-151 762.74,-151 762.74,-187"/>
<text text-anchor="middle" x="709" y="-164.8" font-family="Times,serif" font-size="14.00">IssuanceModule</text>
</g>
<!-- ConfigurationModule&#45;&gt;IssuanceModule -->
<g id="edge1" class="edge">
<title>ConfigurationModule&#45;&gt;IssuanceModule</title>
<path fill="none" stroke="black" d="M709,-122.11C709,-122.11 709,-140.99 709,-140.99"/>
<polygon fill="black" stroke="black" points="705.5,-140.99 709,-150.99 712.5,-140.99 705.5,-140.99"/>
</g>
<!-- CryptoModule -->
<g id="node2" class="node">
<title>CryptoModule</title>
<polygon fill="#8dd3c7" stroke="black" points="622.44,-122 619.44,-126 598.44,-126 595.44,-122 523.56,-122 523.56,-86 622.44,-86 622.44,-122"/>
<text text-anchor="middle" x="573" y="-99.8" font-family="Times,serif" font-size="14.00">CryptoModule</text>
</g>
<!-- CryptoModule&#45;&gt;IssuanceModule -->
<g id="edge2" class="edge">
<title>CryptoModule&#45;&gt;IssuanceModule</title>
<path fill="none" stroke="black" d="M615.84,-122.24C615.84,-137.57 615.84,-157 615.84,-157 615.84,-157 645.08,-157 645.08,-157"/>
<polygon fill="black" stroke="black" points="645.08,-160.5 655.08,-157 645.08,-153.5 645.08,-160.5"/>
</g>
<!-- Oid4vpModule -->
<g id="node3" class="node">
<title>Oid4vpModule</title>
<polygon fill="#8dd3c7" stroke="black" points="505.55,-122 502.55,-126 481.55,-126 478.55,-122 404.45,-122 404.45,-86 505.55,-86 505.55,-122"/>
<text text-anchor="middle" x="455" y="-99.8" font-family="Times,serif" font-size="14.00">Oid4vpModule</text>
</g>
<!-- Oid4vpModule&#45;&gt;IssuanceModule -->
<g id="edge3" class="edge">
<title>Oid4vpModule&#45;&gt;IssuanceModule</title>
<path fill="none" stroke="black" d="M495.24,-122.03C495.24,-139.06 495.24,-162 495.24,-162 495.24,-162 645.06,-162 645.06,-162"/>
<polygon fill="black" stroke="black" points="645.06,-165.5 655.06,-162 645.06,-158.5 645.06,-165.5"/>
</g>
<!-- PresentationsModule -->
<g id="node4" class="node">
<title>PresentationsModule</title>
<polygon fill="#8dd3c7" stroke="black" points="386.2,-122 383.2,-126 362.2,-126 359.2,-122 251.8,-122 251.8,-86 386.2,-86 386.2,-122"/>
<text text-anchor="middle" x="319" y="-99.8" font-family="Times,serif" font-size="14.00">PresentationsModule</text>
</g>
<!-- PresentationsModule&#45;&gt;IssuanceModule -->
<g id="edge4" class="edge">
<title>PresentationsModule&#45;&gt;IssuanceModule</title>
<path fill="none" stroke="black" d="M319,-122.22C319,-140.83 319,-167 319,-167 319,-167 645.18,-167 645.18,-167"/>
<polygon fill="black" stroke="black" points="645.18,-170.5 655.18,-167 645.18,-163.5 645.18,-170.5"/>
</g>
<!-- SessionModule -->
<g id="node5" class="node">
<title>SessionModule</title>
<polygon fill="#8dd3c7" stroke="black" points="234.33,-122 231.33,-126 210.33,-126 207.33,-122 131.67,-122 131.67,-86 234.33,-86 234.33,-122"/>
<text text-anchor="middle" x="183" y="-99.8" font-family="Times,serif" font-size="14.00">SessionModule</text>
</g>
<!-- SessionModule&#45;&gt;IssuanceModule -->
<g id="edge5" class="edge">
<title>SessionModule&#45;&gt;IssuanceModule</title>
<path fill="none" stroke="black" d="M183,-122.22C183,-142.37 183,-172 183,-172 183,-172 645.18,-172 645.18,-172"/>
<polygon fill="black" stroke="black" points="645.18,-175.5 655.18,-172 645.18,-168.5 645.18,-175.5"/>
</g>
<!-- TrustModule -->
<g id="node6" class="node">
<title>TrustModule</title>
<polygon fill="#8dd3c7" stroke="black" points="113.6,-122 110.6,-126 89.6,-126 86.6,-122 24.4,-122 24.4,-86 113.6,-86 113.6,-122"/>
<text text-anchor="middle" x="69" y="-99.8" font-family="Times,serif" font-size="14.00">TrustModule</text>
</g>
<!-- TrustModule&#45;&gt;IssuanceModule -->
<g id="edge6" class="edge">
<title>TrustModule&#45;&gt;IssuanceModule</title>
<path fill="none" stroke="black" d="M69,-122.04C69,-143.66 69,-177 69,-177 69,-177 644.99,-177 644.99,-177"/>
<polygon fill="black" stroke="black" points="644.99,-180.5 654.99,-177 644.99,-173.5 644.99,-180.5"/>
</g>
<!-- AuthorizeService  -->
<g id="node8" class="node">
<title>AuthorizeService </title>
<polygon fill="#fb8072" stroke="black" points="943.96,-252 826.04,-252 826.04,-216 943.96,-216 943.96,-252"/>
<text text-anchor="middle" x="885" y="-229.8" font-family="Times,serif" font-size="14.00">AuthorizeService </text>
</g>
<!-- IssuanceModule&#45;&gt;AuthorizeService  -->
<g id="edge7" class="edge">
<title>IssuanceModule&#45;&gt;AuthorizeService </title>
<path fill="none" stroke="black" stroke-dasharray="5,2" d="M762.76,-182C814.52,-182 885,-182 885,-182 885,-182 885,-205.81 885,-205.81"/>
<polygon fill="black" stroke="black" points="881.5,-205.81 885,-215.81 888.5,-205.81 881.5,-205.81"/>
</g>
<!-- InteractiveAuthorizationService  -->
<g id="node9" class="node">
<title>InteractiveAuthorizationService </title>
<polygon fill="#fb8072" stroke="black" points="808.59,-252 609.41,-252 609.41,-216 808.59,-216 808.59,-252"/>
<text text-anchor="middle" x="709" y="-229.8" font-family="Times,serif" font-size="14.00">InteractiveAuthorizationService </text>
</g>
<!-- IssuanceModule&#45;&gt;InteractiveAuthorizationService  -->
<g id="edge8" class="edge">
<title>IssuanceModule&#45;&gt;InteractiveAuthorizationService </title>
<path fill="none" stroke="black" stroke-dasharray="5,2" d="M709,-187.11C709,-187.11 709,-205.99 709,-205.99"/>
<polygon fill="black" stroke="black" points="705.5,-205.99 709,-215.99 712.5,-205.99 705.5,-205.99"/>
</g>
<!-- Oid4vciService  -->
<g id="node10" class="node">
<title>Oid4vciService </title>
<polygon fill="#fb8072" stroke="black" points="591.08,-252 484.92,-252 484.92,-216 591.08,-216 591.08,-252"/>
<text text-anchor="middle" x="538" y="-229.8" font-family="Times,serif" font-size="14.00">Oid4vciService </text>
</g>
<!-- IssuanceModule&#45;&gt;Oid4vciService  -->
<g id="edge9" class="edge">
<title>IssuanceModule&#45;&gt;Oid4vciService </title>
<path fill="none" stroke="black" stroke-dasharray="5,2" d="M655.17,-182C611.64,-182 557.54,-182 557.54,-182 557.54,-182 557.54,-205.81 557.54,-205.81"/>
<polygon fill="black" stroke="black" points="554.04,-205.81 557.54,-215.81 561.04,-205.81 554.04,-205.81"/>
</g>
<!-- AuthorizeService -->
<g id="node11" class="node">
<title>AuthorizeService</title>
<ellipse fill="#fdb462" stroke="black" cx="1695" cy="-104" rx="78.71" ry="18"/>
<text text-anchor="middle" x="1695" y="-99.8" font-family="Times,serif" font-size="14.00">AuthorizeService</text>
</g>
<!-- AuthorizeService&#45;&gt;IssuanceModule -->
<g id="edge10" class="edge">
<title>AuthorizeService&#45;&gt;IssuanceModule</title>
<path fill="none" stroke="black" d="M1695,-122.04C1695,-143.66 1695,-177 1695,-177 1695,-177 773.06,-177 773.06,-177"/>
<polygon fill="black" stroke="black" points="773.06,-173.5 763.06,-177 773.06,-180.5 773.06,-173.5"/>
</g>
<!-- InteractiveAuthorizationService -->
<g id="node12" class="node">
<title>InteractiveAuthorizationService</title>
<ellipse fill="#fdb462" stroke="black" cx="1463" cy="-104" rx="134.83" ry="18"/>
<text text-anchor="middle" x="1463" y="-99.8" font-family="Times,serif" font-size="14.00">InteractiveAuthorizationService</text>
</g>
<!-- InteractiveAuthorizationService&#45;&gt;IssuanceModule -->
<g id="edge11" class="edge">
<title>InteractiveAuthorizationService&#45;&gt;IssuanceModule</title>
<path fill="none" stroke="black" d="M1463,-122.22C1463,-142.37 1463,-172 1463,-172 1463,-172 772.92,-172 772.92,-172"/>
<polygon fill="black" stroke="black" points="772.92,-168.5 762.92,-172 772.92,-175.5 772.92,-168.5"/>
</g>
<!-- Oid4vciService -->
<g id="node13" class="node">
<title>Oid4vciService</title>
<ellipse fill="#fdb462" stroke="black" cx="1239" cy="-104" rx="71.21" ry="18"/>
<text text-anchor="middle" x="1239" y="-99.8" font-family="Times,serif" font-size="14.00">Oid4vciService</text>
</g>
<!-- Oid4vciService&#45;&gt;IssuanceModule -->
<g id="edge12" class="edge">
<title>Oid4vciService&#45;&gt;IssuanceModule</title>
<path fill="none" stroke="black" d="M1239,-122.22C1239,-140.83 1239,-167 1239,-167 1239,-167 773.23,-167 773.23,-167"/>
<polygon fill="black" stroke="black" points="773.23,-163.5 763.23,-167 773.23,-170.5 773.23,-163.5"/>
</g>
<!-- WebhookService -->
<g id="node14" class="node">
<title>WebhookService</title>
<ellipse fill="#fdb462" stroke="black" cx="1072" cy="-104" rx="77.57" ry="18"/>
<text text-anchor="middle" x="1072" y="-99.8" font-family="Times,serif" font-size="14.00">WebhookService</text>
</g>
<!-- WebhookService&#45;&gt;IssuanceModule -->
<g id="edge13" class="edge">
<title>WebhookService&#45;&gt;IssuanceModule</title>
<path fill="none" stroke="black" d="M1072,-122.03C1072,-139.06 1072,-162 1072,-162 1072,-162 772.95,-162 772.95,-162"/>
<polygon fill="black" stroke="black" points="772.95,-158.5 762.95,-162 772.95,-165.5 772.95,-158.5"/>
</g>
<!-- WellKnownService -->
<g id="node15" class="node">
<title>WellKnownService</title>
<ellipse fill="#fdb462" stroke="black" cx="889" cy="-104" rx="87.38" ry="18"/>
<text text-anchor="middle" x="889" y="-99.8" font-family="Times,serif" font-size="14.00">WellKnownService</text>
</g>
<!-- WellKnownService&#45;&gt;IssuanceModule -->
<g id="edge14" class="edge">
<title>WellKnownService&#45;&gt;IssuanceModule</title>
<path fill="none" stroke="black" d="M817.41,-114.47C817.41,-129.92 817.41,-157 817.41,-157 817.41,-157 772.89,-157 772.89,-157"/>
<polygon fill="black" stroke="black" points="772.89,-153.5 762.89,-157 772.89,-160.5 772.89,-153.5"/>
</g>
</g>
</svg>
