<?xml version="1.0" encoding="UTF-8" standalone="no"?>
<!DOCTYPE svg PUBLIC "-//W3C//DTD SVG 1.1//EN"
 "http://www.w3.org/Graphics/SVG/1.1/DTD/svg11.dtd">
<!-- Generated by graphviz version 2.47.0 (20210316.0004)
 -->
<!-- Title: dependencies Pages: 1 -->
<svg width="1990pt" height="284pt"
 viewBox="0.00 0.00 1990.00 284.00" xmlns="http://www.w3.org/2000/svg" xmlns:xlink="http://www.w3.org/1999/xlink">
<g id="graph0" class="graph" transform="scale(1 1) rotate(0) translate(4 280)">
<title>dependencies</title>
<polygon fill="white" stroke="transparent" points="-4,4 -4,-280 1986,-280 1986,4 -4,4"/>
<text text-anchor="start" x="970.01" y="-42.4" font-family="Times-12" font-weight="bold" font-size="14.00">Legend</text>
<polygon fill="#ffffb3" stroke="transparent" points="757,-10 757,-30 777,-30 777,-10 757,-10"/>
<text text-anchor="start" x="780.63" y="-15.4" font-family="Times-12" font-size="14.00"> &#160;Declarations</text>
<polygon fill="#8dd3c7" stroke="transparent" points="870,-10 870,-30 890,-30 890,-10 870,-10"/>
<text text-anchor="start" x="893.73" y="-15.4" font-family="Times-12" font-size="14.00"> &#160;Module</text>
<polygon fill="#80b1d3" stroke="transparent" points="956,-10 956,-30 976,-30 976,-10 956,-10"/>
<text text-anchor="start" x="979.78" y="-15.4" font-family="Times-12" font-size="14.00"> &#160;Bootstrap</text>
<polygon fill="#fdb462" stroke="transparent" points="1053,-10 1053,-30 1073,-30 1073,-10 1053,-10"/>
<text text-anchor="start" x="1076.67" y="-15.4" font-family="Times-12" font-size="14.00"> &#160;Providers</text>
<polygon fill="#fb8072" stroke="transparent" points="1149,-10 1149,-30 1169,-30 1169,-10 1149,-10"/>
<text text-anchor="start" x="1172.73" y="-15.4" font-family="Times-12" font-size="14.00"> &#160;Exports</text>
<g id="clust1" class="cluster">
<title>cluster_IssuanceModule</title>
<polygon fill="none" stroke="black" stroke-dasharray="1,5" points="8,-70 8,-268 1974,-268 1974,-70 8,-70"/>
</g>
<g id="clust4" class="cluster">
<title>cluster_IssuanceModule_exports</title>
<polygon fill="none" stroke="black" points="854,-208 854,-260 1471,-260 1471,-208 854,-208"/>
</g>
<g id="clust3" class="cluster">
<title>cluster_IssuanceModule_imports</title>
<polygon fill="none" stroke="black" points="1196,-78 1196,-130 1966,-130 1966,-78 1196,-78"/>
</g>
<g id="clust6" class="cluster">
<title>cluster_IssuanceModule_providers</title>
<polygon fill="none" stroke="black" points="16,-78 16,-130 1188,-130 1188,-78 16,-78"/>
</g>
<!-- ConfigurationModule -->
<g id="node1" class="node">
<title>ConfigurationModule</title>
<polygon fill="#8dd3c7" stroke="black" points="1958.09,-122 1955.09,-126 1934.09,-126 1931.09,-122 1819.91,-122 1819.91,-86 1958.09,-86 1958.09,-122"/>
<text text-anchor="middle" x="1889" y="-99.8" font-family="Times,serif" font-size="14.00">ConfigurationModule</text>
</g>
<!-- IssuanceModule -->
<g id="node7" class="node">
<title>IssuanceModule</title>
<polygon fill="#8dd3c7" stroke="black" points="1228.74,-187 1225.74,-191 1204.74,-191 1201.74,-187 1121.26,-187 1121.26,-151 1228.74,-151 1228.74,-187"/>
<text text-anchor="middle" x="1175" y="-164.8" font-family="Times,serif" font-size="14.00">IssuanceModule</text>
</g>
<!-- ConfigurationModule&#45;&gt;IssuanceModule -->
<g id="edge1" class="edge">
<title>ConfigurationModule&#45;&gt;IssuanceModule</title>
<path fill="none" stroke="black" d="M1889,-122.04C1889,-143.66 1889,-177 1889,-177 1889,-177 1238.96,-177 1238.96,-177"/>
<polygon fill="black" stroke="black" points="1238.96,-173.5 1228.96,-177 1238.96,-180.5 1238.96,-173.5"/>
</g>
<!-- CryptoModule -->
<g id="node2" class="node">
<title>CryptoModule</title>
<polygon fill="#8dd3c7" stroke="black" points="1802.44,-122 1799.44,-126 1778.44,-126 1775.44,-122 1703.56,-122 1703.56,-86 1802.44,-86 1802.44,-122"/>
<text text-anchor="middle" x="1753" y="-99.8" font-family="Times,serif" font-size="14.00">CryptoModule</text>
</g>
<!-- CryptoModule&#45;&gt;IssuanceModule -->
<g id="edge2" class="edge">
<title>CryptoModule&#45;&gt;IssuanceModule</title>
<path fill="none" stroke="black" d="M1753,-122.22C1753,-142.37 1753,-172 1753,-172 1753,-172 1238.86,-172 1238.86,-172"/>
<polygon fill="black" stroke="black" points="1238.86,-168.5 1228.86,-172 1238.86,-175.5 1238.86,-168.5"/>
</g>
<!-- Oid4vpModule -->
<g id="node3" class="node">
<title>Oid4vpModule</title>
<polygon fill="#8dd3c7" stroke="black" points="1685.55,-122 1682.55,-126 1661.55,-126 1658.55,-122 1584.45,-122 1584.45,-86 1685.55,-86 1685.55,-122"/>
<text text-anchor="middle" x="1635" y="-99.8" font-family="Times,serif" font-size="14.00">Oid4vpModule</text>
</g>
<!-- Oid4vpModule&#45;&gt;IssuanceModule -->
<g id="edge3" class="edge">
<title>Oid4vpModule&#45;&gt;IssuanceModule</title>
<path fill="none" stroke="black" d="M1635,-122.22C1635,-140.83 1635,-167 1635,-167 1635,-167 1239.12,-167 1239.12,-167"/>
<polygon fill="black" stroke="black" points="1239.12,-163.5 1229.12,-167 1239.12,-170.5 1239.12,-163.5"/>
</g>
<!-- PresentationsModule -->
<g id="node4" class="node">
<title>PresentationsModule</title>
<polygon fill="#8dd3c7" stroke="black" points="1566.2,-122 1563.2,-126 1542.2,-126 1539.2,-122 1431.8,-122 1431.8,-86 1566.2,-86 1566.2,-122"/>
<text text-anchor="middle" x="1499" y="-99.8" font-family="Times,serif" font-size="14.00">PresentationsModule</text>
</g>
<!-- PresentationsModule&#45;&gt;IssuanceModule -->
<g id="edge4" class="edge">
<title>PresentationsModule&#45;&gt;IssuanceModule</title>
<path fill="none" stroke="black" d="M1447.31,-122.03C1447.31,-139.06 1447.31,-162 1447.31,-162 1447.31,-162 1238.8,-162 1238.8,-162"/>
<polygon fill="black" stroke="black" points="1238.8,-158.5 1228.8,-162 1238.8,-165.5 1238.8,-158.5"/>
</g>
<!-- SessionModule -->
<g id="node5" class="node">
<title>SessionModule</title>
<polygon fill="#8dd3c7" stroke="black" points="1414.33,-122 1411.33,-126 1390.33,-126 1387.33,-122 1311.67,-122 1311.67,-86 1414.33,-86 1414.33,-122"/>
<text text-anchor="middle" x="1363" y="-99.8" font-family="Times,serif" font-size="14.00">SessionModule</text>
</g>
<!-- SessionModule&#45;&gt;IssuanceModule -->
<g id="edge5" class="edge">
<title>SessionModule&#45;&gt;IssuanceModule</title>
<path fill="none" stroke="black" d="M1319.34,-122.24C1319.34,-137.57 1319.34,-157 1319.34,-157 1319.34,-157 1238.75,-157 1238.75,-157"/>
<polygon fill="black" stroke="black" points="1238.75,-153.5 1228.75,-157 1238.75,-160.5 1238.75,-153.5"/>
</g>
<!-- TrustModule -->
<g id="node6" class="node">
<title>TrustModule</title>
<polygon fill="#8dd3c7" stroke="black" points="1293.6,-122 1290.6,-126 1269.6,-126 1266.6,-122 1204.4,-122 1204.4,-86 1293.6,-86 1293.6,-122"/>
<text text-anchor="middle" x="1249" y="-99.8" font-family="Times,serif" font-size="14.00">TrustModule</text>
</g>
<!-- TrustModule&#45;&gt;IssuanceModule -->
<g id="edge6" class="edge">
<title>TrustModule&#45;&gt;IssuanceModule</title>
<path fill="none" stroke="black" d="M1216.66,-122.11C1216.66,-122.11 1216.66,-140.99 1216.66,-140.99"/>
<polygon fill="black" stroke="black" points="1213.16,-140.99 1216.66,-150.99 1220.16,-140.99 1213.16,-140.99"/>
</g>
<!-- AuthorizeService  -->
<g id="node8" class="node">
<title>AuthorizeService </title>
<polygon fill="#fb8072" stroke="black" points="1462.96,-252 1345.04,-252 1345.04,-216 1462.96,-216 1462.96,-252"/>
<text text-anchor="middle" x="1404" y="-229.8" font-family="Times,serif" font-size="14.00">AuthorizeService </text>
</g>
<!-- IssuanceModule&#45;&gt;AuthorizeService  -->
<g id="edge7" class="edge">
<title>IssuanceModule&#45;&gt;AuthorizeService </title>
<path fill="none" stroke="black" stroke-dasharray="5,2" d="M1228.79,-182C1289.44,-182 1379.72,-182 1379.72,-182 1379.72,-182 1379.72,-205.81 1379.72,-205.81"/>
<polygon fill="black" stroke="black" points="1376.22,-205.81 1379.72,-215.81 1383.22,-205.81 1376.22,-205.81"/>
</g>
<!-- ChainedAsService  -->
<g id="node9" class="node">
<title>ChainedAsService </title>
<polygon fill="#fb8072" stroke="black" points="1326.69,-252 1203.31,-252 1203.31,-216 1326.69,-216 1326.69,-252"/>
<text text-anchor="middle" x="1265" y="-229.8" font-family="Times,serif" font-size="14.00">ChainedAsService </text>
</g>
<!-- IssuanceModule&#45;&gt;ChainedAsService  -->
<g id="edge8" class="edge">
<title>IssuanceModule&#45;&gt;ChainedAsService </title>
<path fill="none" stroke="black" stroke-dasharray="5,2" d="M1216.01,-187.11C1216.01,-187.11 1216.01,-205.99 1216.01,-205.99"/>
<polygon fill="black" stroke="black" points="1212.51,-205.99 1216.01,-215.99 1219.51,-205.99 1212.51,-205.99"/>
</g>
<!-- InteractiveAuthorizationService  -->
<g id="node10" class="node">
<title>InteractiveAuthorizationService </title>
<polygon fill="#fb8072" stroke="black" points="1185.59,-252 986.41,-252 986.41,-216 1185.59,-216 1185.59,-252"/>
<text text-anchor="middle" x="1086" y="-229.8" font-family="Times,serif" font-size="14.00">InteractiveAuthorizationService </text>
</g>
<!-- IssuanceModule&#45;&gt;InteractiveAuthorizationService  -->
<g id="edge9" class="edge">
<title>IssuanceModule&#45;&gt;InteractiveAuthorizationService </title>
<path fill="none" stroke="black" stroke-dasharray="5,2" d="M1153.34,-187.11C1153.34,-187.11 1153.34,-205.99 1153.34,-205.99"/>
<polygon fill="black" stroke="black" points="1149.84,-205.99 1153.34,-215.99 1156.84,-205.99 1149.84,-205.99"/>
</g>
<!-- Oid4vciService  -->
<g id="node11" class="node">
<title>Oid4vciService </title>
<polygon fill="#fb8072" stroke="black" points="968.08,-252 861.92,-252 861.92,-216 968.08,-216 968.08,-252"/>
<text text-anchor="middle" x="915" y="-229.8" font-family="Times,serif" font-size="14.00">Oid4vciService </text>
</g>
<!-- IssuanceModule&#45;&gt;Oid4vciService  -->
<g id="edge10" class="edge">
<title>IssuanceModule&#45;&gt;Oid4vciService </title>
<path fill="none" stroke="black" stroke-dasharray="5,2" d="M1121.13,-182C1044.97,-182 915,-182 915,-182 915,-182 915,-205.81 915,-205.81"/>
<polygon fill="black" stroke="black" points="911.5,-205.81 915,-215.81 918.5,-205.81 911.5,-205.81"/>
</g>
<!-- AuthorizeService -->
<g id="node12" class="node">
<title>AuthorizeService</title>
<ellipse fill="#fdb462" stroke="black" cx="1101" cy="-104" rx="78.71" ry="18"/>
<text text-anchor="middle" x="1101" y="-99.8" font-family="Times,serif" font-size="14.00">AuthorizeService</text>
</g>
<!-- AuthorizeService&#45;&gt;IssuanceModule -->
<g id="edge11" class="edge">
<title>AuthorizeService&#45;&gt;IssuanceModule</title>
<path fill="none" stroke="black" d="M1150.37,-118.1C1150.37,-118.1 1150.37,-140.72 1150.37,-140.72"/>
<polygon fill="black" stroke="black" points="1146.87,-140.72 1150.37,-150.72 1153.87,-140.72 1146.87,-140.72"/>
</g>
<!-- ChainedAsService -->
<g id="node13" class="node">
<title>ChainedAsService</title>
<ellipse fill="#fdb462" stroke="black" cx="921" cy="-104" rx="82.8" ry="18"/>
<text text-anchor="middle" x="921" y="-99.8" font-family="Times,serif" font-size="14.00">ChainedAsService</text>
</g>
<!-- ChainedAsService&#45;&gt;IssuanceModule -->
<g id="edge12" class="edge">
<title>ChainedAsService&#45;&gt;IssuanceModule</title>
<path fill="none" stroke="black" d="M995.18,-112.28C995.18,-127.19 995.18,-157 995.18,-157 995.18,-157 1111.05,-157 1111.05,-157"/>
<polygon fill="black" stroke="black" points="1111.05,-160.5 1121.05,-157 1111.05,-153.5 1111.05,-160.5"/>
</g>
<!-- InteractiveAuthorizationService -->
<g id="node14" class="node">
<title>InteractiveAuthorizationService</title>
<ellipse fill="#fdb462" stroke="black" cx="685" cy="-104" rx="134.83" ry="18"/>
<text text-anchor="middle" x="685" y="-99.8" font-family="Times,serif" font-size="14.00">InteractiveAuthorizationService</text>
</g>
<!-- InteractiveAuthorizationService&#45;&gt;IssuanceModule -->
<g id="edge13" class="edge">
<title>InteractiveAuthorizationService&#45;&gt;IssuanceModule</title>
<path fill="none" stroke="black" d="M685,-122.03C685,-139.06 685,-162 685,-162 685,-162 1111.16,-162 1111.16,-162"/>
<polygon fill="black" stroke="black" points="1111.16,-165.5 1121.16,-162 1111.16,-158.5 1111.16,-165.5"/>
</g>
<!-- Oid4vciService -->
<g id="node15" class="node">
<title>Oid4vciService</title>
<ellipse fill="#fdb462" stroke="black" cx="461" cy="-104" rx="71.21" ry="18"/>
<text text-anchor="middle" x="461" y="-99.8" font-family="Times,serif" font-size="14.00">Oid4vciService</text>
</g>
<!-- Oid4vciService&#45;&gt;IssuanceModule -->
<g id="edge14" class="edge">
<title>Oid4vciService&#45;&gt;IssuanceModule</title>
<path fill="none" stroke="black" d="M461,-122.22C461,-140.83 461,-167 461,-167 461,-167 1111.04,-167 1111.04,-167"/>
<polygon fill="black" stroke="black" points="1111.04,-170.5 1121.04,-167 1111.04,-163.5 1111.04,-170.5"/>
</g>
<!-- WebhookService -->
<g id="node16" class="node">
<title>WebhookService</title>
<ellipse fill="#fdb462" stroke="black" cx="294" cy="-104" rx="77.57" ry="18"/>
<text text-anchor="middle" x="294" y="-99.8" font-family="Times,serif" font-size="14.00">WebhookService</text>
</g>
<!-- WebhookService&#45;&gt;IssuanceModule -->
<g id="edge15" class="edge">
<title>WebhookService&#45;&gt;IssuanceModule</title>
<path fill="none" stroke="black" d="M294,-122.22C294,-142.37 294,-172 294,-172 294,-172 1111.22,-172 1111.22,-172"/>
<polygon fill="black" stroke="black" points="1111.22,-175.5 1121.22,-172 1111.22,-168.5 1111.22,-175.5"/>
</g>
<!-- WellKnownService -->
<g id="node17" class="node">
<title>WellKnownService</title>
<ellipse fill="#fdb462" stroke="black" cx="111" cy="-104" rx="87.38" ry="18"/>
<text text-anchor="middle" x="111" y="-99.8" font-family="Times,serif" font-size="14.00">WellKnownService</text>
</g>
<!-- WellKnownService&#45;&gt;IssuanceModule -->
<g id="edge16" class="edge">
<title>WellKnownService&#45;&gt;IssuanceModule</title>
<path fill="none" stroke="black" d="M111,-122.04C111,-143.66 111,-177 111,-177 111,-177 1111.14,-177 1111.14,-177"/>
<polygon fill="black" stroke="black" points="1111.14,-180.5 1121.14,-177 1111.14,-173.5 1111.14,-180.5"/>
</g>
</g>
</svg>
