<?xml version="1.0" encoding="UTF-8" standalone="no"?>
<!DOCTYPE svg PUBLIC "-//W3C//DTD SVG 1.1//EN"
 "http://www.w3.org/Graphics/SVG/1.1/DTD/svg11.dtd">
<!-- Generated by graphviz version 2.47.0 (20210316.0004)
 -->
<!-- Title: dependencies Pages: 1 -->
<svg width="1366pt" height="284pt"
 viewBox="0.00 0.00 1366.00 284.00" xmlns="http://www.w3.org/2000/svg" xmlns:xlink="http://www.w3.org/1999/xlink">
<g id="graph0" class="graph" transform="scale(1 1) rotate(0) translate(4 280)">
<title>dependencies</title>
<polygon fill="white" stroke="transparent" points="-4,4 -4,-280 1362,-280 1362,4 -4,4"/>
<text text-anchor="start" x="658.01" y="-42.4" font-family="Times-12" font-weight="bold" font-size="14.00">Legend</text>
<polygon fill="#ffffb3" stroke="transparent" points="445,-10 445,-30 465,-30 465,-10 445,-10"/>
<text text-anchor="start" x="468.63" y="-15.4" font-family="Times-12" font-size="14.00"> &#160;Declarations</text>
<polygon fill="#8dd3c7" stroke="transparent" points="558,-10 558,-30 578,-30 578,-10 558,-10"/>
<text text-anchor="start" x="581.73" y="-15.4" font-family="Times-12" font-size="14.00"> &#160;Module</text>
<polygon fill="#80b1d3" stroke="transparent" points="644,-10 644,-30 664,-30 664,-10 644,-10"/>
<text text-anchor="start" x="667.78" y="-15.4" font-family="Times-12" font-size="14.00"> &#160;Bootstrap</text>
<polygon fill="#fdb462" stroke="transparent" points="741,-10 741,-30 761,-30 761,-10 741,-10"/>
<text text-anchor="start" x="764.67" y="-15.4" font-family="Times-12" font-size="14.00"> &#160;Providers</text>
<polygon fill="#fb8072" stroke="transparent" points="837,-10 837,-30 857,-30 857,-10 837,-10"/>
<text text-anchor="start" x="860.73" y="-15.4" font-family="Times-12" font-size="14.00"> &#160;Exports</text>
<g id="clust1" class="cluster">
<title>cluster_IssuanceModule</title>
<polygon fill="none" stroke="black" stroke-dasharray="1,5" points="8,-70 8,-268 1350,-268 1350,-70 8,-70"/>
</g>
<g id="clust3" class="cluster">
<title>cluster_IssuanceModule_imports</title>
<polygon fill="none" stroke="black" points="724,-78 724,-130 1342,-130 1342,-78 724,-78"/>
</g>
<g id="clust6" class="cluster">
<title>cluster_IssuanceModule_providers</title>
<polygon fill="none" stroke="black" points="16,-78 16,-130 716,-130 716,-78 16,-78"/>
</g>
<g id="clust4" class="cluster">
<title>cluster_IssuanceModule_exports</title>
<polygon fill="none" stroke="black" points="651,-208 651,-260 909,-260 909,-208 651,-208"/>
</g>
<!-- ConfigurationModule -->
<g id="node1" class="node">
<title>ConfigurationModule</title>
<polygon fill="#8dd3c7" stroke="black" points="1334.09,-122 1331.09,-126 1310.09,-126 1307.09,-122 1195.91,-122 1195.91,-86 1334.09,-86 1334.09,-122"/>
<text text-anchor="middle" x="1265" y="-99.8" font-family="Times,serif" font-size="14.00">ConfigurationModule</text>
</g>
<!-- IssuanceModule -->
<g id="node6" class="node">
<title>IssuanceModule</title>
<polygon fill="#8dd3c7" stroke="black" points="830.74,-187 827.74,-191 806.74,-191 803.74,-187 723.26,-187 723.26,-151 830.74,-151 830.74,-187"/>
<text text-anchor="middle" x="777" y="-164.8" font-family="Times,serif" font-size="14.00">IssuanceModule</text>
</g>
<!-- ConfigurationModule&#45;&gt;IssuanceModule -->
<g id="edge1" class="edge">
<title>ConfigurationModule&#45;&gt;IssuanceModule</title>
<path fill="none" stroke="black" d="M1265,-122.29C1265,-144.21 1265,-178 1265,-178 1265,-178 841.09,-178 841.09,-178"/>
<polygon fill="black" stroke="black" points="841.09,-174.5 831.09,-178 841.09,-181.5 841.09,-174.5"/>
</g>
<!-- CryptoModule -->
<g id="node2" class="node">
<title>CryptoModule</title>
<polygon fill="#8dd3c7" stroke="black" points="1178.44,-122 1175.44,-126 1154.44,-126 1151.44,-122 1079.56,-122 1079.56,-86 1178.44,-86 1178.44,-122"/>
<text text-anchor="middle" x="1129" y="-99.8" font-family="Times,serif" font-size="14.00">CryptoModule</text>
</g>
<!-- CryptoModule&#45;&gt;IssuanceModule -->
<g id="edge2" class="edge">
<title>CryptoModule&#45;&gt;IssuanceModule</title>
<path fill="none" stroke="black" d="M1129,-122.11C1129,-141.34 1129,-169 1129,-169 1129,-169 840.84,-169 840.84,-169"/>
<polygon fill="black" stroke="black" points="840.84,-165.5 830.84,-169 840.84,-172.5 840.84,-165.5"/>
</g>
<!-- Oid4vpModule -->
<g id="node3" class="node">
<title>Oid4vpModule</title>
<polygon fill="#8dd3c7" stroke="black" points="1061.55,-122 1058.55,-126 1037.55,-126 1034.55,-122 960.45,-122 960.45,-86 1061.55,-86 1061.55,-122"/>
<text text-anchor="middle" x="1011" y="-99.8" font-family="Times,serif" font-size="14.00">Oid4vpModule</text>
</g>
<!-- Oid4vpModule&#45;&gt;IssuanceModule -->
<g id="edge3" class="edge">
<title>Oid4vpModule&#45;&gt;IssuanceModule</title>
<path fill="none" stroke="black" d="M1011,-122.03C1011,-138.4 1011,-160 1011,-160 1011,-160 840.98,-160 840.98,-160"/>
<polygon fill="black" stroke="black" points="840.98,-156.5 830.98,-160 840.98,-163.5 840.98,-156.5"/>
</g>
<!-- SessionModule -->
<g id="node4" class="node">
<title>SessionModule</title>
<polygon fill="#8dd3c7" stroke="black" points="942.33,-122 939.33,-126 918.33,-126 915.33,-122 839.67,-122 839.67,-86 942.33,-86 942.33,-122"/>
<text text-anchor="middle" x="891" y="-99.8" font-family="Times,serif" font-size="14.00">SessionModule</text>
</g>
<!-- SessionModule&#45;&gt;IssuanceModule -->
<g id="edge4" class="edge">
<title>SessionModule&#45;&gt;IssuanceModule</title>
<path fill="none" stroke="black" d="M839.63,-104C831.77,-104 826.21,-104 826.21,-104 826.21,-104 826.21,-140.89 826.21,-140.89"/>
<polygon fill="black" stroke="black" points="822.71,-140.89 826.21,-150.89 829.71,-140.89 822.71,-140.89"/>
</g>
<!-- TrustModule -->
<g id="node5" class="node">
<title>TrustModule</title>
<polygon fill="#8dd3c7" stroke="black" points="821.6,-122 818.6,-126 797.6,-126 794.6,-122 732.4,-122 732.4,-86 821.6,-86 821.6,-122"/>
<text text-anchor="middle" x="777" y="-99.8" font-family="Times,serif" font-size="14.00">TrustModule</text>
</g>
<!-- TrustModule&#45;&gt;IssuanceModule -->
<g id="edge5" class="edge">
<title>TrustModule&#45;&gt;IssuanceModule</title>
<path fill="none" stroke="black" d="M777,-122.11C777,-122.11 777,-140.99 777,-140.99"/>
<polygon fill="black" stroke="black" points="773.5,-140.99 777,-150.99 780.5,-140.99 773.5,-140.99"/>
</g>
<!-- AuthorizeService  -->
<g id="node7" class="node">
<title>AuthorizeService </title>
<polygon fill="#fb8072" stroke="black" points="900.96,-252 783.04,-252 783.04,-216 900.96,-216 900.96,-252"/>
<text text-anchor="middle" x="842" y="-229.8" font-family="Times,serif" font-size="14.00">AuthorizeService </text>
</g>
<!-- IssuanceModule&#45;&gt;AuthorizeService  -->
<g id="edge6" class="edge">
<title>IssuanceModule&#45;&gt;AuthorizeService </title>
<path fill="none" stroke="black" stroke-dasharray="5,2" d="M807.07,-187.11C807.07,-187.11 807.07,-205.99 807.07,-205.99"/>
<polygon fill="black" stroke="black" points="803.57,-205.99 807.07,-215.99 810.57,-205.99 803.57,-205.99"/>
</g>
<!-- Oid4vciService  -->
<g id="node8" class="node">
<title>Oid4vciService </title>
<polygon fill="#fb8072" stroke="black" points="765.08,-252 658.92,-252 658.92,-216 765.08,-216 765.08,-252"/>
<text text-anchor="middle" x="712" y="-229.8" font-family="Times,serif" font-size="14.00">Oid4vciService </text>
</g>
<!-- IssuanceModule&#45;&gt;Oid4vciService  -->
<g id="edge7" class="edge">
<title>IssuanceModule&#45;&gt;Oid4vciService </title>
<path fill="none" stroke="black" stroke-dasharray="5,2" d="M744.21,-187.11C744.21,-187.11 744.21,-205.99 744.21,-205.99"/>
<polygon fill="black" stroke="black" points="740.71,-205.99 744.21,-215.99 747.71,-205.99 740.71,-205.99"/>
</g>
<!-- AuthorizeService -->
<g id="node9" class="node">
<title>AuthorizeService</title>
<ellipse fill="#fdb462" stroke="black" cx="629" cy="-104" rx="78.71" ry="18"/>
<text text-anchor="middle" x="629" y="-99.8" font-family="Times,serif" font-size="14.00">AuthorizeService</text>
</g>
<!-- AuthorizeService&#45;&gt;IssuanceModule -->
<g id="edge8" class="edge">
<title>AuthorizeService&#45;&gt;IssuanceModule</title>
<path fill="none" stroke="black" d="M707.8,-104C719.54,-104 727.79,-104 727.79,-104 727.79,-104 727.79,-140.89 727.79,-140.89"/>
<polygon fill="black" stroke="black" points="724.29,-140.89 727.79,-150.89 731.29,-140.89 724.29,-140.89"/>
</g>
<!-- Oid4vciService -->
<g id="node10" class="node">
<title>Oid4vciService</title>
<ellipse fill="#fdb462" stroke="black" cx="461" cy="-104" rx="71.21" ry="18"/>
<text text-anchor="middle" x="461" y="-99.8" font-family="Times,serif" font-size="14.00">Oid4vciService</text>
</g>
<!-- Oid4vciService&#45;&gt;IssuanceModule -->
<g id="edge9" class="edge">
<title>Oid4vciService&#45;&gt;IssuanceModule</title>
<path fill="none" stroke="black" d="M461,-122.03C461,-138.4 461,-160 461,-160 461,-160 713.04,-160 713.04,-160"/>
<polygon fill="black" stroke="black" points="713.04,-163.5 723.04,-160 713.04,-156.5 713.04,-163.5"/>
</g>
<!-- WebhookService -->
<g id="node11" class="node">
<title>WebhookService</title>
<ellipse fill="#fdb462" stroke="black" cx="294" cy="-104" rx="77.57" ry="18"/>
<text text-anchor="middle" x="294" y="-99.8" font-family="Times,serif" font-size="14.00">WebhookService</text>
</g>
<!-- WebhookService&#45;&gt;IssuanceModule -->
<g id="edge10" class="edge">
<title>WebhookService&#45;&gt;IssuanceModule</title>
<path fill="none" stroke="black" d="M294,-122.11C294,-141.34 294,-169 294,-169 294,-169 713,-169 713,-169"/>
<polygon fill="black" stroke="black" points="713,-172.5 723,-169 713,-165.5 713,-172.5"/>
</g>
<!-- WellKnownService -->
<g id="node12" class="node">
<title>WellKnownService</title>
<ellipse fill="#fdb462" stroke="black" cx="111" cy="-104" rx="87.38" ry="18"/>
<text text-anchor="middle" x="111" y="-99.8" font-family="Times,serif" font-size="14.00">WellKnownService</text>
</g>
<!-- WellKnownService&#45;&gt;IssuanceModule -->
<g id="edge11" class="edge">
<title>WellKnownService&#45;&gt;IssuanceModule</title>
<path fill="none" stroke="black" d="M111,-122.29C111,-144.21 111,-178 111,-178 111,-178 713.06,-178 713.06,-178"/>
<polygon fill="black" stroke="black" points="713.06,-181.5 723.06,-178 713.06,-174.5 713.06,-181.5"/>
</g>
</g>
</svg>
