<?xml version="1.0" encoding="UTF-8" standalone="no"?>
<!DOCTYPE svg PUBLIC "-//W3C//DTD SVG 1.1//EN"
 "http://www.w3.org/Graphics/SVG/1.1/DTD/svg11.dtd">
<!-- Generated by graphviz version 2.47.0 (20210316.0004)
 -->
<!-- Title: dependencies Pages: 1 -->
<svg width="1258pt" height="284pt"
 viewBox="0.00 0.00 1258.00 284.00" xmlns="http://www.w3.org/2000/svg" xmlns:xlink="http://www.w3.org/1999/xlink">
<g id="graph0" class="graph" transform="scale(1 1) rotate(0) translate(4 280)">
<title>dependencies</title>
<polygon fill="white" stroke="transparent" points="-4,4 -4,-280 1254,-280 1254,4 -4,4"/>
<text text-anchor="start" x="604.01" y="-42.4" font-family="Times-12" font-weight="bold" font-size="14.00">Legend</text>
<polygon fill="#ffffb3" stroke="transparent" points="391,-10 391,-30 411,-30 411,-10 391,-10"/>
<text text-anchor="start" x="414.63" y="-15.4" font-family="Times-12" font-size="14.00"> &#160;Declarations</text>
<polygon fill="#8dd3c7" stroke="transparent" points="504,-10 504,-30 524,-30 524,-10 504,-10"/>
<text text-anchor="start" x="527.73" y="-15.4" font-family="Times-12" font-size="14.00"> &#160;Module</text>
<polygon fill="#80b1d3" stroke="transparent" points="590,-10 590,-30 610,-30 610,-10 590,-10"/>
<text text-anchor="start" x="613.78" y="-15.4" font-family="Times-12" font-size="14.00"> &#160;Bootstrap</text>
<polygon fill="#fdb462" stroke="transparent" points="687,-10 687,-30 707,-30 707,-10 687,-10"/>
<text text-anchor="start" x="710.67" y="-15.4" font-family="Times-12" font-size="14.00"> &#160;Providers</text>
<polygon fill="#fb8072" stroke="transparent" points="783,-10 783,-30 803,-30 803,-10 783,-10"/>
<text text-anchor="start" x="806.73" y="-15.4" font-family="Times-12" font-size="14.00"> &#160;Exports</text>
<g id="clust1" class="cluster">
<title>cluster_IssuanceModule</title>
<polygon fill="none" stroke="black" stroke-dasharray="1,5" points="8,-70 8,-268 1242,-268 1242,-70 8,-70"/>
</g>
<g id="clust4" class="cluster">
<title>cluster_IssuanceModule_exports</title>
<polygon fill="none" stroke="black" points="580,-208 580,-260 838,-260 838,-208 580,-208"/>
</g>
<g id="clust3" class="cluster">
<title>cluster_IssuanceModule_imports</title>
<polygon fill="none" stroke="black" points="724,-78 724,-130 1234,-130 1234,-78 724,-78"/>
</g>
<g id="clust6" class="cluster">
<title>cluster_IssuanceModule_providers</title>
<polygon fill="none" stroke="black" points="16,-78 16,-130 716,-130 716,-78 16,-78"/>
</g>
<!-- ConfigurationModule -->
<g id="node1" class="node">
<title>ConfigurationModule</title>
<polygon fill="#8dd3c7" stroke="black" points="1226.09,-122 1223.09,-126 1202.09,-126 1199.09,-122 1087.91,-122 1087.91,-86 1226.09,-86 1226.09,-122"/>
<text text-anchor="middle" x="1157" y="-99.8" font-family="Times,serif" font-size="14.00">ConfigurationModule</text>
</g>
<!-- IssuanceModule -->
<g id="node5" class="node">
<title>IssuanceModule</title>
<polygon fill="#8dd3c7" stroke="black" points="759.74,-187 756.74,-191 735.74,-191 732.74,-187 652.26,-187 652.26,-151 759.74,-151 759.74,-187"/>
<text text-anchor="middle" x="706" y="-164.8" font-family="Times,serif" font-size="14.00">IssuanceModule</text>
</g>
<!-- ConfigurationModule&#45;&gt;IssuanceModule -->
<g id="edge1" class="edge">
<title>ConfigurationModule&#45;&gt;IssuanceModule</title>
<path fill="none" stroke="black" d="M1157,-122.29C1157,-144.21 1157,-178 1157,-178 1157,-178 769.95,-178 769.95,-178"/>
<polygon fill="black" stroke="black" points="769.95,-174.5 759.95,-178 769.95,-181.5 769.95,-174.5"/>
</g>
<!-- CryptoModule -->
<g id="node2" class="node">
<title>CryptoModule</title>
<polygon fill="#8dd3c7" stroke="black" points="1070.44,-122 1067.44,-126 1046.44,-126 1043.44,-122 971.56,-122 971.56,-86 1070.44,-86 1070.44,-122"/>
<text text-anchor="middle" x="1021" y="-99.8" font-family="Times,serif" font-size="14.00">CryptoModule</text>
</g>
<!-- CryptoModule&#45;&gt;IssuanceModule -->
<g id="edge2" class="edge">
<title>CryptoModule&#45;&gt;IssuanceModule</title>
<path fill="none" stroke="black" d="M1021,-122.11C1021,-141.34 1021,-169 1021,-169 1021,-169 769.79,-169 769.79,-169"/>
<polygon fill="black" stroke="black" points="769.79,-165.5 759.79,-169 769.79,-172.5 769.79,-165.5"/>
</g>
<!-- Oid4vpModule -->
<g id="node3" class="node">
<title>Oid4vpModule</title>
<polygon fill="#8dd3c7" stroke="black" points="953.55,-122 950.55,-126 929.55,-126 926.55,-122 852.45,-122 852.45,-86 953.55,-86 953.55,-122"/>
<text text-anchor="middle" x="903" y="-99.8" font-family="Times,serif" font-size="14.00">Oid4vpModule</text>
</g>
<!-- Oid4vpModule&#45;&gt;IssuanceModule -->
<g id="edge3" class="edge">
<title>Oid4vpModule&#45;&gt;IssuanceModule</title>
<path fill="none" stroke="black" d="M903,-122.03C903,-138.4 903,-160 903,-160 903,-160 769.83,-160 769.83,-160"/>
<polygon fill="black" stroke="black" points="769.83,-156.5 759.83,-160 769.83,-163.5 769.83,-156.5"/>
</g>
<!-- SessionModule -->
<g id="node4" class="node">
<title>SessionModule</title>
<polygon fill="#8dd3c7" stroke="black" points="834.33,-122 831.33,-126 810.33,-126 807.33,-122 731.67,-122 731.67,-86 834.33,-86 834.33,-122"/>
<text text-anchor="middle" x="783" y="-99.8" font-family="Times,serif" font-size="14.00">SessionModule</text>
</g>
<!-- SessionModule&#45;&gt;IssuanceModule -->
<g id="edge4" class="edge">
<title>SessionModule&#45;&gt;IssuanceModule</title>
<path fill="none" stroke="black" d="M745.85,-122.11C745.85,-122.11 745.85,-140.99 745.85,-140.99"/>
<polygon fill="black" stroke="black" points="742.35,-140.99 745.85,-150.99 749.35,-140.99 742.35,-140.99"/>
</g>
<!-- AuthorizeService  -->
<g id="node6" class="node">
<title>AuthorizeService </title>
<polygon fill="#fb8072" stroke="black" points="829.96,-252 712.04,-252 712.04,-216 829.96,-216 829.96,-252"/>
<text text-anchor="middle" x="771" y="-229.8" font-family="Times,serif" font-size="14.00">AuthorizeService </text>
</g>
<!-- IssuanceModule&#45;&gt;AuthorizeService  -->
<g id="edge5" class="edge">
<title>IssuanceModule&#45;&gt;AuthorizeService </title>
<path fill="none" stroke="black" stroke-dasharray="5,2" d="M736.07,-187.11C736.07,-187.11 736.07,-205.99 736.07,-205.99"/>
<polygon fill="black" stroke="black" points="732.57,-205.99 736.07,-215.99 739.57,-205.99 732.57,-205.99"/>
</g>
<!-- Oid4vciService  -->
<g id="node7" class="node">
<title>Oid4vciService </title>
<polygon fill="#fb8072" stroke="black" points="694.08,-252 587.92,-252 587.92,-216 694.08,-216 694.08,-252"/>
<text text-anchor="middle" x="641" y="-229.8" font-family="Times,serif" font-size="14.00">Oid4vciService </text>
</g>
<!-- IssuanceModule&#45;&gt;Oid4vciService  -->
<g id="edge6" class="edge">
<title>IssuanceModule&#45;&gt;Oid4vciService </title>
<path fill="none" stroke="black" stroke-dasharray="5,2" d="M673.21,-187.11C673.21,-187.11 673.21,-205.99 673.21,-205.99"/>
<polygon fill="black" stroke="black" points="669.71,-205.99 673.21,-215.99 676.71,-205.99 669.71,-205.99"/>
</g>
<!-- AuthorizeService -->
<g id="node8" class="node">
<title>AuthorizeService</title>
<ellipse fill="#fdb462" stroke="black" cx="629" cy="-104" rx="78.71" ry="18"/>
<text text-anchor="middle" x="629" y="-99.8" font-family="Times,serif" font-size="14.00">AuthorizeService</text>
</g>
<!-- AuthorizeService&#45;&gt;IssuanceModule -->
<g id="edge7" class="edge">
<title>AuthorizeService&#45;&gt;IssuanceModule</title>
<path fill="none" stroke="black" d="M679.87,-117.78C679.87,-117.78 679.87,-140.55 679.87,-140.55"/>
<polygon fill="black" stroke="black" points="676.37,-140.55 679.87,-150.55 683.37,-140.55 676.37,-140.55"/>
</g>
<!-- Oid4vciService -->
<g id="node9" class="node">
<title>Oid4vciService</title>
<ellipse fill="#fdb462" stroke="black" cx="461" cy="-104" rx="71.21" ry="18"/>
<text text-anchor="middle" x="461" y="-99.8" font-family="Times,serif" font-size="14.00">Oid4vciService</text>
</g>
<!-- Oid4vciService&#45;&gt;IssuanceModule -->
<g id="edge8" class="edge">
<title>Oid4vciService&#45;&gt;IssuanceModule</title>
<path fill="none" stroke="black" d="M461,-122.03C461,-138.4 461,-160 461,-160 461,-160 642.23,-160 642.23,-160"/>
<polygon fill="black" stroke="black" points="642.23,-163.5 652.23,-160 642.23,-156.5 642.23,-163.5"/>
</g>
<!-- WebhookService -->
<g id="node10" class="node">
<title>WebhookService</title>
<ellipse fill="#fdb462" stroke="black" cx="294" cy="-104" rx="77.57" ry="18"/>
<text text-anchor="middle" x="294" y="-99.8" font-family="Times,serif" font-size="14.00">WebhookService</text>
</g>
<!-- WebhookService&#45;&gt;IssuanceModule -->
<g id="edge9" class="edge">
<title>WebhookService&#45;&gt;IssuanceModule</title>
<path fill="none" stroke="black" d="M294,-122.11C294,-141.34 294,-169 294,-169 294,-169 642.14,-169 642.14,-169"/>
<polygon fill="black" stroke="black" points="642.14,-172.5 652.14,-169 642.14,-165.5 642.14,-172.5"/>
</g>
<!-- WellKnownService -->
<g id="node11" class="node">
<title>WellKnownService</title>
<ellipse fill="#fdb462" stroke="black" cx="111" cy="-104" rx="87.38" ry="18"/>
<text text-anchor="middle" x="111" y="-99.8" font-family="Times,serif" font-size="14.00">WellKnownService</text>
</g>
<!-- WellKnownService&#45;&gt;IssuanceModule -->
<g id="edge10" class="edge">
<title>WellKnownService&#45;&gt;IssuanceModule</title>
<path fill="none" stroke="black" d="M111,-122.29C111,-144.21 111,-178 111,-178 111,-178 642.15,-178 642.15,-178"/>
<polygon fill="black" stroke="black" points="642.15,-181.5 652.15,-178 642.15,-174.5 642.15,-181.5"/>
</g>
</g>
</svg>
