<?xml version="1.0" encoding="UTF-8" standalone="no"?>
<!DOCTYPE svg PUBLIC "-//W3C//DTD SVG 1.1//EN"
 "http://www.w3.org/Graphics/SVG/1.1/DTD/svg11.dtd">
<!-- Generated by graphviz version 2.47.0 (20210316.0004)
 -->
<!-- Title: dependencies Pages: 1 -->
<svg width="2236pt" height="284pt"
 viewBox="0.00 0.00 2236.00 284.00" xmlns="http://www.w3.org/2000/svg" xmlns:xlink="http://www.w3.org/1999/xlink">
<g id="graph0" class="graph" transform="scale(1 1) rotate(0) translate(4 280)">
<title>dependencies</title>
<polygon fill="white" stroke="transparent" points="-4,4 -4,-280 2232,-280 2232,4 -4,4"/>
<text text-anchor="start" x="1093.01" y="-42.4" font-family="Times-12" font-weight="bold" font-size="14.00">Legend</text>
<polygon fill="#ffffb3" stroke="transparent" points="880,-10 880,-30 900,-30 900,-10 880,-10"/>
<text text-anchor="start" x="903.63" y="-15.4" font-family="Times-12" font-size="14.00"> &#160;Declarations</text>
<polygon fill="#8dd3c7" stroke="transparent" points="993,-10 993,-30 1013,-30 1013,-10 993,-10"/>
<text text-anchor="start" x="1016.73" y="-15.4" font-family="Times-12" font-size="14.00"> &#160;Module</text>
<polygon fill="#80b1d3" stroke="transparent" points="1079,-10 1079,-30 1099,-30 1099,-10 1079,-10"/>
<text text-anchor="start" x="1102.78" y="-15.4" font-family="Times-12" font-size="14.00"> &#160;Bootstrap</text>
<polygon fill="#fdb462" stroke="transparent" points="1176,-10 1176,-30 1196,-30 1196,-10 1176,-10"/>
<text text-anchor="start" x="1199.67" y="-15.4" font-family="Times-12" font-size="14.00"> &#160;Providers</text>
<polygon fill="#fb8072" stroke="transparent" points="1272,-10 1272,-30 1292,-30 1292,-10 1272,-10"/>
<text text-anchor="start" x="1295.73" y="-15.4" font-family="Times-12" font-size="14.00"> &#160;Exports</text>
<g id="clust1" class="cluster">
<title>cluster_IssuanceModule</title>
<polygon fill="none" stroke="black" stroke-dasharray="1,5" points="8,-70 8,-268 2220,-268 2220,-70 8,-70"/>
</g>
<g id="clust3" class="cluster">
<title>cluster_IssuanceModule_imports</title>
<polygon fill="none" stroke="black" points="1442,-78 1442,-130 2212,-130 2212,-78 1442,-78"/>
</g>
<g id="clust6" class="cluster">
<title>cluster_IssuanceModule_providers</title>
<polygon fill="none" stroke="black" points="16,-78 16,-130 1434,-130 1434,-78 16,-78"/>
</g>
<g id="clust4" class="cluster">
<title>cluster_IssuanceModule_exports</title>
<polygon fill="none" stroke="black" points="1026,-208 1026,-260 1643,-260 1643,-208 1026,-208"/>
</g>
<!-- ConfigurationModule -->
<g id="node1" class="node">
<title>ConfigurationModule</title>
<polygon fill="#8dd3c7" stroke="black" points="2204.09,-122 2201.09,-126 2180.09,-126 2177.09,-122 2065.91,-122 2065.91,-86 2204.09,-86 2204.09,-122"/>
<text text-anchor="middle" x="2135" y="-99.8" font-family="Times,serif" font-size="14.00">ConfigurationModule</text>
</g>
<!-- IssuanceModule -->
<g id="node7" class="node">
<title>IssuanceModule</title>
<polygon fill="#8dd3c7" stroke="black" points="1400.74,-187 1397.74,-191 1376.74,-191 1373.74,-187 1293.26,-187 1293.26,-151 1400.74,-151 1400.74,-187"/>
<text text-anchor="middle" x="1347" y="-164.8" font-family="Times,serif" font-size="14.00">IssuanceModule</text>
</g>
<!-- ConfigurationModule&#45;&gt;IssuanceModule -->
<g id="edge1" class="edge">
<title>ConfigurationModule&#45;&gt;IssuanceModule</title>
<path fill="none" stroke="black" d="M2135,-122.29C2135,-144.21 2135,-178 2135,-178 2135,-178 1410.85,-178 1410.85,-178"/>
<polygon fill="black" stroke="black" points="1410.85,-174.5 1400.85,-178 1410.85,-181.5 1410.85,-174.5"/>
</g>
<!-- CryptoModule -->
<g id="node2" class="node">
<title>CryptoModule</title>
<polygon fill="#8dd3c7" stroke="black" points="2048.44,-122 2045.44,-126 2024.44,-126 2021.44,-122 1949.56,-122 1949.56,-86 2048.44,-86 2048.44,-122"/>
<text text-anchor="middle" x="1999" y="-99.8" font-family="Times,serif" font-size="14.00">CryptoModule</text>
</g>
<!-- CryptoModule&#45;&gt;IssuanceModule -->
<g id="edge2" class="edge">
<title>CryptoModule&#45;&gt;IssuanceModule</title>
<path fill="none" stroke="black" d="M1999,-122.03C1999,-142.77 1999,-174 1999,-174 1999,-174 1410.91,-174 1410.91,-174"/>
<polygon fill="black" stroke="black" points="1410.91,-170.5 1400.91,-174 1410.91,-177.5 1410.91,-170.5"/>
</g>
<!-- Oid4vpModule -->
<g id="node3" class="node">
<title>Oid4vpModule</title>
<polygon fill="#8dd3c7" stroke="black" points="1931.55,-122 1928.55,-126 1907.55,-126 1904.55,-122 1830.45,-122 1830.45,-86 1931.55,-86 1931.55,-122"/>
<text text-anchor="middle" x="1881" y="-99.8" font-family="Times,serif" font-size="14.00">Oid4vpModule</text>
</g>
<!-- Oid4vpModule&#45;&gt;IssuanceModule -->
<g id="edge3" class="edge">
<title>Oid4vpModule&#45;&gt;IssuanceModule</title>
<path fill="none" stroke="black" d="M1881,-122.11C1881,-141.34 1881,-169 1881,-169 1881,-169 1411.14,-169 1411.14,-169"/>
<polygon fill="black" stroke="black" points="1411.14,-165.5 1401.14,-169 1411.14,-172.5 1411.14,-165.5"/>
</g>
<!-- PresentationsModule -->
<g id="node4" class="node">
<title>PresentationsModule</title>
<polygon fill="#8dd3c7" stroke="black" points="1812.2,-122 1809.2,-126 1788.2,-126 1785.2,-122 1677.8,-122 1677.8,-86 1812.2,-86 1812.2,-122"/>
<text text-anchor="middle" x="1745" y="-99.8" font-family="Times,serif" font-size="14.00">PresentationsModule</text>
</g>
<!-- PresentationsModule&#45;&gt;IssuanceModule -->
<g id="edge4" class="edge">
<title>PresentationsModule&#45;&gt;IssuanceModule</title>
<path fill="none" stroke="black" d="M1745,-122.3C1745,-140.27 1745,-165 1745,-165 1745,-165 1411.09,-165 1411.09,-165"/>
<polygon fill="black" stroke="black" points="1411.09,-161.5 1401.09,-165 1411.09,-168.5 1411.09,-161.5"/>
</g>
<!-- SessionModule -->
<g id="node5" class="node">
<title>SessionModule</title>
<polygon fill="#8dd3c7" stroke="black" points="1660.33,-122 1657.33,-126 1636.33,-126 1633.33,-122 1557.67,-122 1557.67,-86 1660.33,-86 1660.33,-122"/>
<text text-anchor="middle" x="1609" y="-99.8" font-family="Times,serif" font-size="14.00">SessionModule</text>
</g>
<!-- SessionModule&#45;&gt;IssuanceModule -->
<g id="edge5" class="edge">
<title>SessionModule&#45;&gt;IssuanceModule</title>
<path fill="none" stroke="black" d="M1596.28,-122.03C1596.28,-138.4 1596.28,-160 1596.28,-160 1596.28,-160 1410.78,-160 1410.78,-160"/>
<polygon fill="black" stroke="black" points="1410.78,-156.5 1400.78,-160 1410.78,-163.5 1410.78,-156.5"/>
</g>
<!-- TrustModule -->
<g id="node6" class="node">
<title>TrustModule</title>
<polygon fill="#8dd3c7" stroke="black" points="1539.6,-122 1536.6,-126 1515.6,-126 1512.6,-122 1450.4,-122 1450.4,-86 1539.6,-86 1539.6,-122"/>
<text text-anchor="middle" x="1495" y="-99.8" font-family="Times,serif" font-size="14.00">TrustModule</text>
</g>
<!-- TrustModule&#45;&gt;IssuanceModule -->
<g id="edge6" class="edge">
<title>TrustModule&#45;&gt;IssuanceModule</title>
<path fill="none" stroke="black" d="M1474.65,-122.19C1474.65,-137.18 1474.65,-156 1474.65,-156 1474.65,-156 1410.76,-156 1410.76,-156"/>
<polygon fill="black" stroke="black" points="1410.76,-152.5 1400.76,-156 1410.76,-159.5 1410.76,-152.5"/>
</g>
<!-- AuthorizeService  -->
<g id="node8" class="node">
<title>AuthorizeService </title>
<polygon fill="#fb8072" stroke="black" points="1634.96,-252 1517.04,-252 1517.04,-216 1634.96,-216 1634.96,-252"/>
<text text-anchor="middle" x="1576" y="-229.8" font-family="Times,serif" font-size="14.00">AuthorizeService </text>
</g>
<!-- IssuanceModule&#45;&gt;AuthorizeService  -->
<g id="edge7" class="edge">
<title>IssuanceModule&#45;&gt;AuthorizeService </title>
<path fill="none" stroke="black" stroke-dasharray="5,2" d="M1400.94,-183C1454.41,-183 1528.41,-183 1528.41,-183 1528.41,-183 1528.41,-205.88 1528.41,-205.88"/>
<polygon fill="black" stroke="black" points="1524.91,-205.88 1528.41,-215.88 1531.91,-205.88 1524.91,-205.88"/>
</g>
<!-- ChainedAsService  -->
<g id="node9" class="node">
<title>ChainedAsService </title>
<polygon fill="#fb8072" stroke="black" points="1498.69,-252 1375.31,-252 1375.31,-216 1498.69,-216 1498.69,-252"/>
<text text-anchor="middle" x="1437" y="-229.8" font-family="Times,serif" font-size="14.00">ChainedAsService </text>
</g>
<!-- IssuanceModule&#45;&gt;ChainedAsService  -->
<g id="edge8" class="edge">
<title>IssuanceModule&#45;&gt;ChainedAsService </title>
<path fill="none" stroke="black" stroke-dasharray="5,2" d="M1388.01,-187.11C1388.01,-187.11 1388.01,-205.99 1388.01,-205.99"/>
<polygon fill="black" stroke="black" points="1384.51,-205.99 1388.01,-215.99 1391.51,-205.99 1384.51,-205.99"/>
</g>
<!-- InteractiveAuthorizationService  -->
<g id="node10" class="node">
<title>InteractiveAuthorizationService </title>
<polygon fill="#fb8072" stroke="black" points="1357.59,-252 1158.41,-252 1158.41,-216 1357.59,-216 1357.59,-252"/>
<text text-anchor="middle" x="1258" y="-229.8" font-family="Times,serif" font-size="14.00">InteractiveAuthorizationService </text>
</g>
<!-- IssuanceModule&#45;&gt;InteractiveAuthorizationService  -->
<g id="edge9" class="edge">
<title>IssuanceModule&#45;&gt;InteractiveAuthorizationService </title>
<path fill="none" stroke="black" stroke-dasharray="5,2" d="M1325.34,-187.11C1325.34,-187.11 1325.34,-205.99 1325.34,-205.99"/>
<polygon fill="black" stroke="black" points="1321.84,-205.99 1325.34,-215.99 1328.84,-205.99 1321.84,-205.99"/>
</g>
<!-- Oid4vciService  -->
<g id="node11" class="node">
<title>Oid4vciService </title>
<polygon fill="#fb8072" stroke="black" points="1140.08,-252 1033.92,-252 1033.92,-216 1140.08,-216 1140.08,-252"/>
<text text-anchor="middle" x="1087" y="-229.8" font-family="Times,serif" font-size="14.00">Oid4vciService </text>
</g>
<!-- IssuanceModule&#45;&gt;Oid4vciService  -->
<g id="edge10" class="edge">
<title>IssuanceModule&#45;&gt;Oid4vciService </title>
<path fill="none" stroke="black" stroke-dasharray="5,2" d="M1293.13,-183C1223.81,-183 1112.19,-183 1112.19,-183 1112.19,-183 1112.19,-205.88 1112.19,-205.88"/>
<polygon fill="black" stroke="black" points="1108.69,-205.88 1112.19,-215.88 1115.69,-205.88 1108.69,-205.88"/>
</g>
<!-- AuthorizeService -->
<g id="node12" class="node">
<title>AuthorizeService</title>
<ellipse fill="#fdb462" stroke="black" cx="1347" cy="-104" rx="78.71" ry="18"/>
<text text-anchor="middle" x="1347" y="-99.8" font-family="Times,serif" font-size="14.00">AuthorizeService</text>
</g>
<!-- AuthorizeService&#45;&gt;IssuanceModule -->
<g id="edge11" class="edge">
<title>AuthorizeService&#45;&gt;IssuanceModule</title>
<path fill="none" stroke="black" d="M1347,-122.11C1347,-122.11 1347,-140.99 1347,-140.99"/>
<polygon fill="black" stroke="black" points="1343.5,-140.99 1347,-150.99 1350.5,-140.99 1343.5,-140.99"/>
</g>
<!-- ChainedAsService -->
<g id="node13" class="node">
<title>ChainedAsService</title>
<ellipse fill="#fdb462" stroke="black" cx="1167" cy="-104" rx="82.8" ry="18"/>
<text text-anchor="middle" x="1167" y="-99.8" font-family="Times,serif" font-size="14.00">ChainedAsService</text>
</g>
<!-- ChainedAsService&#45;&gt;IssuanceModule -->
<g id="edge12" class="edge">
<title>ChainedAsService&#45;&gt;IssuanceModule</title>
<path fill="none" stroke="black" d="M1204.18,-120.17C1204.18,-135.43 1204.18,-156 1204.18,-156 1204.18,-156 1283.01,-156 1283.01,-156"/>
<polygon fill="black" stroke="black" points="1283.01,-159.5 1293.01,-156 1283.01,-152.5 1283.01,-159.5"/>
</g>
<!-- DeferredCredentialService -->
<g id="node14" class="node">
<title>DeferredCredentialService</title>
<ellipse fill="#fdb462" stroke="black" cx="952" cy="-104" rx="114.54" ry="18"/>
<text text-anchor="middle" x="952" y="-99.8" font-family="Times,serif" font-size="14.00">DeferredCredentialService</text>
</g>
<!-- DeferredCredentialService&#45;&gt;IssuanceModule -->
<g id="edge13" class="edge">
<title>DeferredCredentialService&#45;&gt;IssuanceModule</title>
<path fill="none" stroke="black" d="M1050.11,-113.5C1050.11,-129.48 1050.11,-160 1050.11,-160 1050.11,-160 1283.24,-160 1283.24,-160"/>
<polygon fill="black" stroke="black" points="1283.24,-163.5 1293.24,-160 1283.24,-156.5 1283.24,-163.5"/>
</g>
<!-- InteractiveAuthorizationService -->
<g id="node15" class="node">
<title>InteractiveAuthorizationService</title>
<ellipse fill="#fdb462" stroke="black" cx="685" cy="-104" rx="134.83" ry="18"/>
<text text-anchor="middle" x="685" y="-99.8" font-family="Times,serif" font-size="14.00">InteractiveAuthorizationService</text>
</g>
<!-- InteractiveAuthorizationService&#45;&gt;IssuanceModule -->
<g id="edge14" class="edge">
<title>InteractiveAuthorizationService&#45;&gt;IssuanceModule</title>
<path fill="none" stroke="black" d="M685,-122.3C685,-140.27 685,-165 685,-165 685,-165 1283.11,-165 1283.11,-165"/>
<polygon fill="black" stroke="black" points="1283.11,-168.5 1293.11,-165 1283.11,-161.5 1283.11,-168.5"/>
</g>
<!-- Oid4vciService -->
<g id="node16" class="node">
<title>Oid4vciService</title>
<ellipse fill="#fdb462" stroke="black" cx="461" cy="-104" rx="71.21" ry="18"/>
<text text-anchor="middle" x="461" y="-99.8" font-family="Times,serif" font-size="14.00">Oid4vciService</text>
</g>
<!-- Oid4vciService&#45;&gt;IssuanceModule -->
<g id="edge15" class="edge">
<title>Oid4vciService&#45;&gt;IssuanceModule</title>
<path fill="none" stroke="black" d="M461,-122.11C461,-141.34 461,-169 461,-169 461,-169 1283.24,-169 1283.24,-169"/>
<polygon fill="black" stroke="black" points="1283.24,-172.5 1293.24,-169 1283.24,-165.5 1283.24,-172.5"/>
</g>
<!-- WebhookService -->
<g id="node17" class="node">
<title>WebhookService</title>
<ellipse fill="#fdb462" stroke="black" cx="294" cy="-104" rx="77.57" ry="18"/>
<text text-anchor="middle" x="294" y="-99.8" font-family="Times,serif" font-size="14.00">WebhookService</text>
</g>
<!-- WebhookService&#45;&gt;IssuanceModule -->
<g id="edge16" class="edge">
<title>WebhookService&#45;&gt;IssuanceModule</title>
<path fill="none" stroke="black" d="M294,-122.03C294,-142.77 294,-174 294,-174 294,-174 1282.97,-174 1282.97,-174"/>
<polygon fill="black" stroke="black" points="1282.97,-177.5 1292.97,-174 1282.97,-170.5 1282.97,-177.5"/>
</g>
<!-- WellKnownService -->
<g id="node18" class="node">
<title>WellKnownService</title>
<ellipse fill="#fdb462" stroke="black" cx="111" cy="-104" rx="87.38" ry="18"/>
<text text-anchor="middle" x="111" y="-99.8" font-family="Times,serif" font-size="14.00">WellKnownService</text>
</g>
<!-- WellKnownService&#45;&gt;IssuanceModule -->
<g id="edge17" class="edge">
<title>WellKnownService&#45;&gt;IssuanceModule</title>
<path fill="none" stroke="black" d="M111,-122.29C111,-144.21 111,-178 111,-178 111,-178 1283.1,-178 1283.1,-178"/>
<polygon fill="black" stroke="black" points="1283.1,-181.5 1293.1,-178 1283.1,-174.5 1283.1,-181.5"/>
</g>
</g>
</svg>
