<?xml version="1.0" encoding="UTF-8" standalone="no"?>
<!DOCTYPE svg PUBLIC "-//W3C//DTD SVG 1.1//EN"
 "http://www.w3.org/Graphics/SVG/1.1/DTD/svg11.dtd">
<!-- Generated by graphviz version 2.47.0 (20210316.0004)
 -->
<!-- Title: dependencies Pages: 1 -->
<svg width="1258pt" height="284pt"
 viewBox="0.00 0.00 1258.00 284.00" xmlns="http://www.w3.org/2000/svg" xmlns:xlink="http://www.w3.org/1999/xlink">
<g id="graph0" class="graph" transform="scale(1 1) rotate(0) translate(4 280)">
<title>dependencies</title>
<polygon fill="white" stroke="transparent" points="-4,4 -4,-280 1254,-280 1254,4 -4,4"/>
<text text-anchor="start" x="604.01" y="-42.4" font-family="Times-12" font-weight="bold" font-size="14.00">Legend</text>
<polygon fill="#ffffb3" stroke="transparent" points="391,-10 391,-30 411,-30 411,-10 391,-10"/>
<text text-anchor="start" x="414.63" y="-15.4" font-family="Times-12" font-size="14.00"> &#160;Declarations</text>
<polygon fill="#8dd3c7" stroke="transparent" points="504,-10 504,-30 524,-30 524,-10 504,-10"/>
<text text-anchor="start" x="527.73" y="-15.4" font-family="Times-12" font-size="14.00"> &#160;Module</text>
<polygon fill="#80b1d3" stroke="transparent" points="590,-10 590,-30 610,-30 610,-10 590,-10"/>
<text text-anchor="start" x="613.78" y="-15.4" font-family="Times-12" font-size="14.00"> &#160;Bootstrap</text>
<polygon fill="#fdb462" stroke="transparent" points="687,-10 687,-30 707,-30 707,-10 687,-10"/>
<text text-anchor="start" x="710.67" y="-15.4" font-family="Times-12" font-size="14.00"> &#160;Providers</text>
<polygon fill="#fb8072" stroke="transparent" points="783,-10 783,-30 803,-30 803,-10 783,-10"/>
<text text-anchor="start" x="806.73" y="-15.4" font-family="Times-12" font-size="14.00"> &#160;Exports</text>
<g id="clust1" class="cluster">
<title>cluster_IssuanceModule</title>
<polygon fill="none" stroke="black" stroke-dasharray="1,5" points="8,-70 8,-268 1242,-268 1242,-70 8,-70"/>
</g>
<g id="clust4" class="cluster">
<title>cluster_IssuanceModule_exports</title>
<polygon fill="none" stroke="black" points="413,-208 413,-260 671,-260 671,-208 413,-208"/>
</g>
<g id="clust6" class="cluster">
<title>cluster_IssuanceModule_providers</title>
<polygon fill="none" stroke="black" points="534,-78 534,-130 1234,-130 1234,-78 534,-78"/>
</g>
<g id="clust3" class="cluster">
<title>cluster_IssuanceModule_imports</title>
<polygon fill="none" stroke="black" points="16,-78 16,-130 526,-130 526,-78 16,-78"/>
</g>
<!-- ConfigurationModule -->
<g id="node1" class="node">
<title>ConfigurationModule</title>
<polygon fill="#8dd3c7" stroke="black" points="518.09,-122 515.09,-126 494.09,-126 491.09,-122 379.91,-122 379.91,-86 518.09,-86 518.09,-122"/>
<text text-anchor="middle" x="449" y="-99.8" font-family="Times,serif" font-size="14.00">ConfigurationModule</text>
</g>
<!-- IssuanceModule -->
<g id="node5" class="node">
<title>IssuanceModule</title>
<polygon fill="#8dd3c7" stroke="black" points="592.74,-187 589.74,-191 568.74,-191 565.74,-187 485.26,-187 485.26,-151 592.74,-151 592.74,-187"/>
<text text-anchor="middle" x="539" y="-164.8" font-family="Times,serif" font-size="14.00">IssuanceModule</text>
</g>
<!-- ConfigurationModule&#45;&gt;IssuanceModule -->
<g id="edge1" class="edge">
<title>ConfigurationModule&#45;&gt;IssuanceModule</title>
<path fill="none" stroke="black" d="M501.59,-122.11C501.59,-122.11 501.59,-140.99 501.59,-140.99"/>
<polygon fill="black" stroke="black" points="498.09,-140.99 501.59,-150.99 505.09,-140.99 498.09,-140.99"/>
</g>
<!-- CryptoModule -->
<g id="node2" class="node">
<title>CryptoModule</title>
<polygon fill="#8dd3c7" stroke="black" points="362.44,-122 359.44,-126 338.44,-126 335.44,-122 263.56,-122 263.56,-86 362.44,-86 362.44,-122"/>
<text text-anchor="middle" x="313" y="-99.8" font-family="Times,serif" font-size="14.00">CryptoModule</text>
</g>
<!-- CryptoModule&#45;&gt;IssuanceModule -->
<g id="edge2" class="edge">
<title>CryptoModule&#45;&gt;IssuanceModule</title>
<path fill="none" stroke="black" d="M313,-122.03C313,-138.4 313,-160 313,-160 313,-160 475.15,-160 475.15,-160"/>
<polygon fill="black" stroke="black" points="475.15,-163.5 485.15,-160 475.15,-156.5 475.15,-163.5"/>
</g>
<!-- Oid4vpModule -->
<g id="node3" class="node">
<title>Oid4vpModule</title>
<polygon fill="#8dd3c7" stroke="black" points="245.55,-122 242.55,-126 221.55,-126 218.55,-122 144.45,-122 144.45,-86 245.55,-86 245.55,-122"/>
<text text-anchor="middle" x="195" y="-99.8" font-family="Times,serif" font-size="14.00">Oid4vpModule</text>
</g>
<!-- Oid4vpModule&#45;&gt;IssuanceModule -->
<g id="edge3" class="edge">
<title>Oid4vpModule&#45;&gt;IssuanceModule</title>
<path fill="none" stroke="black" d="M195,-122.11C195,-141.34 195,-169 195,-169 195,-169 475.25,-169 475.25,-169"/>
<polygon fill="black" stroke="black" points="475.25,-172.5 485.25,-169 475.25,-165.5 475.25,-172.5"/>
</g>
<!-- SessionModule -->
<g id="node4" class="node">
<title>SessionModule</title>
<polygon fill="#8dd3c7" stroke="black" points="126.33,-122 123.33,-126 102.33,-126 99.33,-122 23.67,-122 23.67,-86 126.33,-86 126.33,-122"/>
<text text-anchor="middle" x="75" y="-99.8" font-family="Times,serif" font-size="14.00">SessionModule</text>
</g>
<!-- SessionModule&#45;&gt;IssuanceModule -->
<g id="edge4" class="edge">
<title>SessionModule&#45;&gt;IssuanceModule</title>
<path fill="none" stroke="black" d="M75,-122.29C75,-144.21 75,-178 75,-178 75,-178 474.87,-178 474.87,-178"/>
<polygon fill="black" stroke="black" points="474.87,-181.5 484.87,-178 474.87,-174.5 474.87,-181.5"/>
</g>
<!-- AuthorizeService  -->
<g id="node6" class="node">
<title>AuthorizeService </title>
<polygon fill="#fb8072" stroke="black" points="662.96,-252 545.04,-252 545.04,-216 662.96,-216 662.96,-252"/>
<text text-anchor="middle" x="604" y="-229.8" font-family="Times,serif" font-size="14.00">AuthorizeService </text>
</g>
<!-- IssuanceModule&#45;&gt;AuthorizeService  -->
<g id="edge5" class="edge">
<title>IssuanceModule&#45;&gt;AuthorizeService </title>
<path fill="none" stroke="black" stroke-dasharray="5,2" d="M569.07,-187.11C569.07,-187.11 569.07,-205.99 569.07,-205.99"/>
<polygon fill="black" stroke="black" points="565.57,-205.99 569.07,-215.99 572.57,-205.99 565.57,-205.99"/>
</g>
<!-- Oid4vciService  -->
<g id="node7" class="node">
<title>Oid4vciService </title>
<polygon fill="#fb8072" stroke="black" points="527.08,-252 420.92,-252 420.92,-216 527.08,-216 527.08,-252"/>
<text text-anchor="middle" x="474" y="-229.8" font-family="Times,serif" font-size="14.00">Oid4vciService </text>
</g>
<!-- IssuanceModule&#45;&gt;Oid4vciService  -->
<g id="edge6" class="edge">
<title>IssuanceModule&#45;&gt;Oid4vciService </title>
<path fill="none" stroke="black" stroke-dasharray="5,2" d="M506.21,-187.11C506.21,-187.11 506.21,-205.99 506.21,-205.99"/>
<polygon fill="black" stroke="black" points="502.71,-205.99 506.21,-215.99 509.71,-205.99 502.71,-205.99"/>
</g>
<!-- AuthorizeService -->
<g id="node8" class="node">
<title>AuthorizeService</title>
<ellipse fill="#fdb462" stroke="black" cx="1147" cy="-104" rx="78.71" ry="18"/>
<text text-anchor="middle" x="1147" y="-99.8" font-family="Times,serif" font-size="14.00">AuthorizeService</text>
</g>
<!-- AuthorizeService&#45;&gt;IssuanceModule -->
<g id="edge7" class="edge">
<title>AuthorizeService&#45;&gt;IssuanceModule</title>
<path fill="none" stroke="black" d="M1147,-122.29C1147,-144.21 1147,-178 1147,-178 1147,-178 602.96,-178 602.96,-178"/>
<polygon fill="black" stroke="black" points="602.96,-174.5 592.96,-178 602.96,-181.5 602.96,-174.5"/>
</g>
<!-- Oid4vciService -->
<g id="node9" class="node">
<title>Oid4vciService</title>
<ellipse fill="#fdb462" stroke="black" cx="979" cy="-104" rx="71.21" ry="18"/>
<text text-anchor="middle" x="979" y="-99.8" font-family="Times,serif" font-size="14.00">Oid4vciService</text>
</g>
<!-- Oid4vciService&#45;&gt;IssuanceModule -->
<g id="edge8" class="edge">
<title>Oid4vciService&#45;&gt;IssuanceModule</title>
<path fill="none" stroke="black" d="M979,-122.11C979,-141.34 979,-169 979,-169 979,-169 602.95,-169 602.95,-169"/>
<polygon fill="black" stroke="black" points="602.95,-165.5 592.95,-169 602.95,-172.5 602.95,-165.5"/>
</g>
<!-- WebhookService -->
<g id="node10" class="node">
<title>WebhookService</title>
<ellipse fill="#fdb462" stroke="black" cx="812" cy="-104" rx="77.57" ry="18"/>
<text text-anchor="middle" x="812" y="-99.8" font-family="Times,serif" font-size="14.00">WebhookService</text>
</g>
<!-- WebhookService&#45;&gt;IssuanceModule -->
<g id="edge9" class="edge">
<title>WebhookService&#45;&gt;IssuanceModule</title>
<path fill="none" stroke="black" d="M812,-122.03C812,-138.4 812,-160 812,-160 812,-160 602.94,-160 602.94,-160"/>
<polygon fill="black" stroke="black" points="602.94,-156.5 592.94,-160 602.94,-163.5 602.94,-156.5"/>
</g>
<!-- WellKnownService -->
<g id="node11" class="node">
<title>WellKnownService</title>
<ellipse fill="#fdb462" stroke="black" cx="629" cy="-104" rx="87.38" ry="18"/>
<text text-anchor="middle" x="629" y="-99.8" font-family="Times,serif" font-size="14.00">WellKnownService</text>
</g>
<!-- WellKnownService&#45;&gt;IssuanceModule -->
<g id="edge10" class="edge">
<title>WellKnownService&#45;&gt;IssuanceModule</title>
<path fill="none" stroke="black" d="M567.34,-116.84C567.34,-116.84 567.34,-140.52 567.34,-140.52"/>
<polygon fill="black" stroke="black" points="563.84,-140.52 567.34,-150.52 570.84,-140.52 563.84,-140.52"/>
</g>
</g>
</svg>
