<?xml version="1.0" encoding="UTF-8" standalone="no"?>
<!DOCTYPE svg PUBLIC "-//W3C//DTD SVG 1.1//EN"
 "http://www.w3.org/Graphics/SVG/1.1/DTD/svg11.dtd">
<!-- Generated by graphviz version 2.47.0 (20210316.0004)
 -->
<!-- Title: dependencies Pages: 1 -->
<svg width="1366pt" height="284pt"
 viewBox="0.00 0.00 1366.00 284.00" xmlns="http://www.w3.org/2000/svg" xmlns:xlink="http://www.w3.org/1999/xlink">
<g id="graph0" class="graph" transform="scale(1 1) rotate(0) translate(4 280)">
<title>dependencies</title>
<polygon fill="white" stroke="transparent" points="-4,4 -4,-280 1362,-280 1362,4 -4,4"/>
<text text-anchor="start" x="658.01" y="-42.4" font-family="Times-12" font-weight="bold" font-size="14.00">Legend</text>
<polygon fill="#ffffb3" stroke="transparent" points="445,-10 445,-30 465,-30 465,-10 445,-10"/>
<text text-anchor="start" x="468.63" y="-15.4" font-family="Times-12" font-size="14.00"> &#160;Declarations</text>
<polygon fill="#8dd3c7" stroke="transparent" points="558,-10 558,-30 578,-30 578,-10 558,-10"/>
<text text-anchor="start" x="581.73" y="-15.4" font-family="Times-12" font-size="14.00"> &#160;Module</text>
<polygon fill="#80b1d3" stroke="transparent" points="644,-10 644,-30 664,-30 664,-10 644,-10"/>
<text text-anchor="start" x="667.78" y="-15.4" font-family="Times-12" font-size="14.00"> &#160;Bootstrap</text>
<polygon fill="#fdb462" stroke="transparent" points="741,-10 741,-30 761,-30 761,-10 741,-10"/>
<text text-anchor="start" x="764.67" y="-15.4" font-family="Times-12" font-size="14.00"> &#160;Providers</text>
<polygon fill="#fb8072" stroke="transparent" points="837,-10 837,-30 857,-30 857,-10 837,-10"/>
<text text-anchor="start" x="860.73" y="-15.4" font-family="Times-12" font-size="14.00"> &#160;Exports</text>
<g id="clust1" class="cluster">
<title>cluster_IssuanceModule</title>
<polygon fill="none" stroke="black" stroke-dasharray="1,5" points="8,-70 8,-268 1350,-268 1350,-70 8,-70"/>
</g>
<g id="clust4" class="cluster">
<title>cluster_IssuanceModule_exports</title>
<polygon fill="none" stroke="black" points="431,-208 431,-260 689,-260 689,-208 431,-208"/>
</g>
<g id="clust6" class="cluster">
<title>cluster_IssuanceModule_providers</title>
<polygon fill="none" stroke="black" points="642,-78 642,-130 1342,-130 1342,-78 642,-78"/>
</g>
<g id="clust3" class="cluster">
<title>cluster_IssuanceModule_imports</title>
<polygon fill="none" stroke="black" points="16,-78 16,-130 634,-130 634,-78 16,-78"/>
</g>
<!-- ConfigurationModule -->
<g id="node1" class="node">
<title>ConfigurationModule</title>
<polygon fill="#8dd3c7" stroke="black" points="626.09,-122 623.09,-126 602.09,-126 599.09,-122 487.91,-122 487.91,-86 626.09,-86 626.09,-122"/>
<text text-anchor="middle" x="557" y="-99.8" font-family="Times,serif" font-size="14.00">ConfigurationModule</text>
</g>
<!-- IssuanceModule -->
<g id="node6" class="node">
<title>IssuanceModule</title>
<polygon fill="#8dd3c7" stroke="black" points="610.74,-187 607.74,-191 586.74,-191 583.74,-187 503.26,-187 503.26,-151 610.74,-151 610.74,-187"/>
<text text-anchor="middle" x="557" y="-164.8" font-family="Times,serif" font-size="14.00">IssuanceModule</text>
</g>
<!-- ConfigurationModule&#45;&gt;IssuanceModule -->
<g id="edge1" class="edge">
<title>ConfigurationModule&#45;&gt;IssuanceModule</title>
<path fill="none" stroke="black" d="M557,-122.11C557,-122.11 557,-140.99 557,-140.99"/>
<polygon fill="black" stroke="black" points="553.5,-140.99 557,-150.99 560.5,-140.99 553.5,-140.99"/>
</g>
<!-- CryptoModule -->
<g id="node2" class="node">
<title>CryptoModule</title>
<polygon fill="#8dd3c7" stroke="black" points="470.44,-122 467.44,-126 446.44,-126 443.44,-122 371.56,-122 371.56,-86 470.44,-86 470.44,-122"/>
<text text-anchor="middle" x="421" y="-99.8" font-family="Times,serif" font-size="14.00">CryptoModule</text>
</g>
<!-- CryptoModule&#45;&gt;IssuanceModule -->
<g id="edge2" class="edge">
<title>CryptoModule&#45;&gt;IssuanceModule</title>
<path fill="none" stroke="black" d="M454.46,-122.01C454.46,-138.05 454.46,-159 454.46,-159 454.46,-159 493.03,-159 493.03,-159"/>
<polygon fill="black" stroke="black" points="493.03,-162.5 503.03,-159 493.03,-155.5 493.03,-162.5"/>
</g>
<!-- Oid4vpModule -->
<g id="node3" class="node">
<title>Oid4vpModule</title>
<polygon fill="#8dd3c7" stroke="black" points="353.55,-122 350.55,-126 329.55,-126 326.55,-122 252.45,-122 252.45,-86 353.55,-86 353.55,-122"/>
<text text-anchor="middle" x="303" y="-99.8" font-family="Times,serif" font-size="14.00">Oid4vpModule</text>
</g>
<!-- Oid4vpModule&#45;&gt;IssuanceModule -->
<g id="edge3" class="edge">
<title>Oid4vpModule&#45;&gt;IssuanceModule</title>
<path fill="none" stroke="black" d="M303,-122.27C303,-140.56 303,-166 303,-166 303,-166 493.13,-166 493.13,-166"/>
<polygon fill="black" stroke="black" points="493.13,-169.5 503.13,-166 493.13,-162.5 493.13,-169.5"/>
</g>
<!-- SessionModule -->
<g id="node4" class="node">
<title>SessionModule</title>
<polygon fill="#8dd3c7" stroke="black" points="234.33,-122 231.33,-126 210.33,-126 207.33,-122 131.67,-122 131.67,-86 234.33,-86 234.33,-122"/>
<text text-anchor="middle" x="183" y="-99.8" font-family="Times,serif" font-size="14.00">SessionModule</text>
</g>
<!-- SessionModule&#45;&gt;IssuanceModule -->
<g id="edge4" class="edge">
<title>SessionModule&#45;&gt;IssuanceModule</title>
<path fill="none" stroke="black" d="M183,-122.13C183,-142.57 183,-173 183,-173 183,-173 493.02,-173 493.02,-173"/>
<polygon fill="black" stroke="black" points="493.02,-176.5 503.02,-173 493.02,-169.5 493.02,-176.5"/>
</g>
<!-- TrustModule -->
<g id="node5" class="node">
<title>TrustModule</title>
<polygon fill="#8dd3c7" stroke="black" points="113.6,-122 110.6,-126 89.6,-126 86.6,-122 24.4,-122 24.4,-86 113.6,-86 113.6,-122"/>
<text text-anchor="middle" x="69" y="-99.8" font-family="Times,serif" font-size="14.00">TrustModule</text>
</g>
<!-- TrustModule&#45;&gt;IssuanceModule -->
<g id="edge5" class="edge">
<title>TrustModule&#45;&gt;IssuanceModule</title>
<path fill="none" stroke="black" d="M69,-122.01C69,-144.49 69,-180 69,-180 69,-180 492.91,-180 492.91,-180"/>
<polygon fill="black" stroke="black" points="492.91,-183.5 502.91,-180 492.91,-176.5 492.91,-183.5"/>
</g>
<!-- AuthorizeService  -->
<g id="node7" class="node">
<title>AuthorizeService </title>
<polygon fill="#fb8072" stroke="black" points="680.96,-252 563.04,-252 563.04,-216 680.96,-216 680.96,-252"/>
<text text-anchor="middle" x="622" y="-229.8" font-family="Times,serif" font-size="14.00">AuthorizeService </text>
</g>
<!-- IssuanceModule&#45;&gt;AuthorizeService  -->
<g id="edge6" class="edge">
<title>IssuanceModule&#45;&gt;AuthorizeService </title>
<path fill="none" stroke="black" stroke-dasharray="5,2" d="M587.07,-187.11C587.07,-187.11 587.07,-205.99 587.07,-205.99"/>
<polygon fill="black" stroke="black" points="583.57,-205.99 587.07,-215.99 590.57,-205.99 583.57,-205.99"/>
</g>
<!-- Oid4vciService  -->
<g id="node8" class="node">
<title>Oid4vciService </title>
<polygon fill="#fb8072" stroke="black" points="545.08,-252 438.92,-252 438.92,-216 545.08,-216 545.08,-252"/>
<text text-anchor="middle" x="492" y="-229.8" font-family="Times,serif" font-size="14.00">Oid4vciService </text>
</g>
<!-- IssuanceModule&#45;&gt;Oid4vciService  -->
<g id="edge7" class="edge">
<title>IssuanceModule&#45;&gt;Oid4vciService </title>
<path fill="none" stroke="black" stroke-dasharray="5,2" d="M524.21,-187.11C524.21,-187.11 524.21,-205.99 524.21,-205.99"/>
<polygon fill="black" stroke="black" points="520.71,-205.99 524.21,-215.99 527.71,-205.99 520.71,-205.99"/>
</g>
<!-- AuthorizeService -->
<g id="node9" class="node">
<title>AuthorizeService</title>
<ellipse fill="#fdb462" stroke="black" cx="1255" cy="-104" rx="78.71" ry="18"/>
<text text-anchor="middle" x="1255" y="-99.8" font-family="Times,serif" font-size="14.00">AuthorizeService</text>
</g>
<!-- AuthorizeService&#45;&gt;IssuanceModule -->
<g id="edge8" class="edge">
<title>AuthorizeService&#45;&gt;IssuanceModule</title>
<path fill="none" stroke="black" d="M1255,-122.01C1255,-144.49 1255,-180 1255,-180 1255,-180 620.9,-180 620.9,-180"/>
<polygon fill="black" stroke="black" points="620.9,-176.5 610.9,-180 620.9,-183.5 620.9,-176.5"/>
</g>
<!-- Oid4vciService -->
<g id="node10" class="node">
<title>Oid4vciService</title>
<ellipse fill="#fdb462" stroke="black" cx="1087" cy="-104" rx="71.21" ry="18"/>
<text text-anchor="middle" x="1087" y="-99.8" font-family="Times,serif" font-size="14.00">Oid4vciService</text>
</g>
<!-- Oid4vciService&#45;&gt;IssuanceModule -->
<g id="edge9" class="edge">
<title>Oid4vciService&#45;&gt;IssuanceModule</title>
<path fill="none" stroke="black" d="M1087,-122.13C1087,-142.57 1087,-173 1087,-173 1087,-173 621.23,-173 621.23,-173"/>
<polygon fill="black" stroke="black" points="621.23,-169.5 611.23,-173 621.23,-176.5 621.23,-169.5"/>
</g>
<!-- WebhookService -->
<g id="node11" class="node">
<title>WebhookService</title>
<ellipse fill="#fdb462" stroke="black" cx="920" cy="-104" rx="77.57" ry="18"/>
<text text-anchor="middle" x="920" y="-99.8" font-family="Times,serif" font-size="14.00">WebhookService</text>
</g>
<!-- WebhookService&#45;&gt;IssuanceModule -->
<g id="edge10" class="edge">
<title>WebhookService&#45;&gt;IssuanceModule</title>
<path fill="none" stroke="black" d="M920,-122.27C920,-140.56 920,-166 920,-166 920,-166 620.95,-166 620.95,-166"/>
<polygon fill="black" stroke="black" points="620.95,-162.5 610.95,-166 620.95,-169.5 620.95,-162.5"/>
</g>
<!-- WellKnownService -->
<g id="node12" class="node">
<title>WellKnownService</title>
<ellipse fill="#fdb462" stroke="black" cx="737" cy="-104" rx="87.38" ry="18"/>
<text text-anchor="middle" x="737" y="-99.8" font-family="Times,serif" font-size="14.00">WellKnownService</text>
</g>
<!-- WellKnownService&#45;&gt;IssuanceModule -->
<g id="edge11" class="edge">
<title>WellKnownService&#45;&gt;IssuanceModule</title>
<path fill="none" stroke="black" d="M665.27,-114.35C665.27,-130.28 665.27,-159 665.27,-159 665.27,-159 620.82,-159 620.82,-159"/>
<polygon fill="black" stroke="black" points="620.82,-155.5 610.82,-159 620.82,-162.5 620.82,-155.5"/>
</g>
</g>
</svg>
