<?xml version="1.0" encoding="UTF-8" standalone="no"?>
<!DOCTYPE svg PUBLIC "-//W3C//DTD SVG 1.1//EN"
 "http://www.w3.org/Graphics/SVG/1.1/DTD/svg11.dtd">
<!-- Generated by graphviz version 2.47.0 (20210316.0004)
 -->
<!-- Title: dependencies Pages: 1 -->
<svg width="1990pt" height="284pt"
 viewBox="0.00 0.00 1990.00 284.00" xmlns="http://www.w3.org/2000/svg" xmlns:xlink="http://www.w3.org/1999/xlink">
<g id="graph0" class="graph" transform="scale(1 1) rotate(0) translate(4 280)">
<title>dependencies</title>
<polygon fill="white" stroke="transparent" points="-4,4 -4,-280 1986,-280 1986,4 -4,4"/>
<text text-anchor="start" x="970.01" y="-42.4" font-family="Times-12" font-weight="bold" font-size="14.00">Legend</text>
<polygon fill="#ffffb3" stroke="transparent" points="757,-10 757,-30 777,-30 777,-10 757,-10"/>
<text text-anchor="start" x="780.63" y="-15.4" font-family="Times-12" font-size="14.00"> &#160;Declarations</text>
<polygon fill="#8dd3c7" stroke="transparent" points="870,-10 870,-30 890,-30 890,-10 870,-10"/>
<text text-anchor="start" x="893.73" y="-15.4" font-family="Times-12" font-size="14.00"> &#160;Module</text>
<polygon fill="#80b1d3" stroke="transparent" points="956,-10 956,-30 976,-30 976,-10 956,-10"/>
<text text-anchor="start" x="979.78" y="-15.4" font-family="Times-12" font-size="14.00"> &#160;Bootstrap</text>
<polygon fill="#fdb462" stroke="transparent" points="1053,-10 1053,-30 1073,-30 1073,-10 1053,-10"/>
<text text-anchor="start" x="1076.67" y="-15.4" font-family="Times-12" font-size="14.00"> &#160;Providers</text>
<polygon fill="#fb8072" stroke="transparent" points="1149,-10 1149,-30 1169,-30 1169,-10 1149,-10"/>
<text text-anchor="start" x="1172.73" y="-15.4" font-family="Times-12" font-size="14.00"> &#160;Exports</text>
<g id="clust1" class="cluster">
<title>cluster_IssuanceModule</title>
<polygon fill="none" stroke="black" stroke-dasharray="1,5" points="8,-70 8,-268 1974,-268 1974,-70 8,-70"/>
</g>
<g id="clust6" class="cluster">
<title>cluster_IssuanceModule_providers</title>
<polygon fill="none" stroke="black" points="794,-78 794,-130 1966,-130 1966,-78 794,-78"/>
</g>
<g id="clust4" class="cluster">
<title>cluster_IssuanceModule_exports</title>
<polygon fill="none" stroke="black" points="478,-208 478,-260 1095,-260 1095,-208 478,-208"/>
</g>
<g id="clust3" class="cluster">
<title>cluster_IssuanceModule_imports</title>
<polygon fill="none" stroke="black" points="16,-78 16,-130 786,-130 786,-78 16,-78"/>
</g>
<!-- ConfigurationModule -->
<g id="node1" class="node">
<title>ConfigurationModule</title>
<polygon fill="#8dd3c7" stroke="black" points="778.09,-122 775.09,-126 754.09,-126 751.09,-122 639.91,-122 639.91,-86 778.09,-86 778.09,-122"/>
<text text-anchor="middle" x="709" y="-99.8" font-family="Times,serif" font-size="14.00">ConfigurationModule</text>
</g>
<!-- IssuanceModule -->
<g id="node7" class="node">
<title>IssuanceModule</title>
<polygon fill="#8dd3c7" stroke="black" points="852.74,-187 849.74,-191 828.74,-191 825.74,-187 745.26,-187 745.26,-151 852.74,-151 852.74,-187"/>
<text text-anchor="middle" x="799" y="-164.8" font-family="Times,serif" font-size="14.00">IssuanceModule</text>
</g>
<!-- ConfigurationModule&#45;&gt;IssuanceModule -->
<g id="edge1" class="edge">
<title>ConfigurationModule&#45;&gt;IssuanceModule</title>
<path fill="none" stroke="black" d="M761.59,-122.11C761.59,-122.11 761.59,-140.99 761.59,-140.99"/>
<polygon fill="black" stroke="black" points="758.09,-140.99 761.59,-150.99 765.09,-140.99 758.09,-140.99"/>
</g>
<!-- CryptoModule -->
<g id="node2" class="node">
<title>CryptoModule</title>
<polygon fill="#8dd3c7" stroke="black" points="622.44,-122 619.44,-126 598.44,-126 595.44,-122 523.56,-122 523.56,-86 622.44,-86 622.44,-122"/>
<text text-anchor="middle" x="573" y="-99.8" font-family="Times,serif" font-size="14.00">CryptoModule</text>
</g>
<!-- CryptoModule&#45;&gt;IssuanceModule -->
<g id="edge2" class="edge">
<title>CryptoModule&#45;&gt;IssuanceModule</title>
<path fill="none" stroke="black" d="M616.34,-122.24C616.34,-137.57 616.34,-157 616.34,-157 616.34,-157 735.18,-157 735.18,-157"/>
<polygon fill="black" stroke="black" points="735.18,-160.5 745.18,-157 735.18,-153.5 735.18,-160.5"/>
</g>
<!-- Oid4vpModule -->
<g id="node3" class="node">
<title>Oid4vpModule</title>
<polygon fill="#8dd3c7" stroke="black" points="505.55,-122 502.55,-126 481.55,-126 478.55,-122 404.45,-122 404.45,-86 505.55,-86 505.55,-122"/>
<text text-anchor="middle" x="455" y="-99.8" font-family="Times,serif" font-size="14.00">Oid4vpModule</text>
</g>
<!-- Oid4vpModule&#45;&gt;IssuanceModule -->
<g id="edge3" class="edge">
<title>Oid4vpModule&#45;&gt;IssuanceModule</title>
<path fill="none" stroke="black" d="M495.74,-122.03C495.74,-139.06 495.74,-162 495.74,-162 495.74,-162 735.13,-162 735.13,-162"/>
<polygon fill="black" stroke="black" points="735.13,-165.5 745.13,-162 735.13,-158.5 735.13,-165.5"/>
</g>
<!-- PresentationsModule -->
<g id="node4" class="node">
<title>PresentationsModule</title>
<polygon fill="#8dd3c7" stroke="black" points="386.2,-122 383.2,-126 362.2,-126 359.2,-122 251.8,-122 251.8,-86 386.2,-86 386.2,-122"/>
<text text-anchor="middle" x="319" y="-99.8" font-family="Times,serif" font-size="14.00">PresentationsModule</text>
</g>
<!-- PresentationsModule&#45;&gt;IssuanceModule -->
<g id="edge4" class="edge">
<title>PresentationsModule&#45;&gt;IssuanceModule</title>
<path fill="none" stroke="black" d="M319,-122.22C319,-140.83 319,-167 319,-167 319,-167 734.87,-167 734.87,-167"/>
<polygon fill="black" stroke="black" points="734.87,-170.5 744.87,-167 734.87,-163.5 734.87,-170.5"/>
</g>
<!-- SessionModule -->
<g id="node5" class="node">
<title>SessionModule</title>
<polygon fill="#8dd3c7" stroke="black" points="234.33,-122 231.33,-126 210.33,-126 207.33,-122 131.67,-122 131.67,-86 234.33,-86 234.33,-122"/>
<text text-anchor="middle" x="183" y="-99.8" font-family="Times,serif" font-size="14.00">SessionModule</text>
</g>
<!-- SessionModule&#45;&gt;IssuanceModule -->
<g id="edge5" class="edge">
<title>SessionModule&#45;&gt;IssuanceModule</title>
<path fill="none" stroke="black" d="M183,-122.22C183,-142.37 183,-172 183,-172 183,-172 735.14,-172 735.14,-172"/>
<polygon fill="black" stroke="black" points="735.14,-175.5 745.14,-172 735.14,-168.5 735.14,-175.5"/>
</g>
<!-- TrustModule -->
<g id="node6" class="node">
<title>TrustModule</title>
<polygon fill="#8dd3c7" stroke="black" points="113.6,-122 110.6,-126 89.6,-126 86.6,-122 24.4,-122 24.4,-86 113.6,-86 113.6,-122"/>
<text text-anchor="middle" x="69" y="-99.8" font-family="Times,serif" font-size="14.00">TrustModule</text>
</g>
<!-- TrustModule&#45;&gt;IssuanceModule -->
<g id="edge6" class="edge">
<title>TrustModule&#45;&gt;IssuanceModule</title>
<path fill="none" stroke="black" d="M69,-122.04C69,-143.66 69,-177 69,-177 69,-177 735.02,-177 735.02,-177"/>
<polygon fill="black" stroke="black" points="735.02,-180.5 745.02,-177 735.02,-173.5 735.02,-180.5"/>
</g>
<!-- AuthorizeService  -->
<g id="node8" class="node">
<title>AuthorizeService </title>
<polygon fill="#fb8072" stroke="black" points="1086.96,-252 969.04,-252 969.04,-216 1086.96,-216 1086.96,-252"/>
<text text-anchor="middle" x="1028" y="-229.8" font-family="Times,serif" font-size="14.00">AuthorizeService </text>
</g>
<!-- IssuanceModule&#45;&gt;AuthorizeService  -->
<g id="edge7" class="edge">
<title>IssuanceModule&#45;&gt;AuthorizeService </title>
<path fill="none" stroke="black" stroke-dasharray="5,2" d="M852.89,-182C907.92,-182 985.33,-182 985.33,-182 985.33,-182 985.33,-205.81 985.33,-205.81"/>
<polygon fill="black" stroke="black" points="981.83,-205.81 985.33,-215.81 988.83,-205.81 981.83,-205.81"/>
</g>
<!-- ChainedAsService  -->
<g id="node9" class="node">
<title>ChainedAsService </title>
<polygon fill="#fb8072" stroke="black" points="950.69,-252 827.31,-252 827.31,-216 950.69,-216 950.69,-252"/>
<text text-anchor="middle" x="889" y="-229.8" font-family="Times,serif" font-size="14.00">ChainedAsService </text>
</g>
<!-- IssuanceModule&#45;&gt;ChainedAsService  -->
<g id="edge8" class="edge">
<title>IssuanceModule&#45;&gt;ChainedAsService </title>
<path fill="none" stroke="black" stroke-dasharray="5,2" d="M840.01,-187.11C840.01,-187.11 840.01,-205.99 840.01,-205.99"/>
<polygon fill="black" stroke="black" points="836.51,-205.99 840.01,-215.99 843.51,-205.99 836.51,-205.99"/>
</g>
<!-- InteractiveAuthorizationService  -->
<g id="node10" class="node">
<title>InteractiveAuthorizationService </title>
<polygon fill="#fb8072" stroke="black" points="809.59,-252 610.41,-252 610.41,-216 809.59,-216 809.59,-252"/>
<text text-anchor="middle" x="710" y="-229.8" font-family="Times,serif" font-size="14.00">InteractiveAuthorizationService </text>
</g>
<!-- IssuanceModule&#45;&gt;InteractiveAuthorizationService  -->
<g id="edge9" class="edge">
<title>IssuanceModule&#45;&gt;InteractiveAuthorizationService </title>
<path fill="none" stroke="black" stroke-dasharray="5,2" d="M777.34,-187.11C777.34,-187.11 777.34,-205.99 777.34,-205.99"/>
<polygon fill="black" stroke="black" points="773.84,-205.99 777.34,-215.99 780.84,-205.99 773.84,-205.99"/>
</g>
<!-- Oid4vciService  -->
<g id="node11" class="node">
<title>Oid4vciService </title>
<polygon fill="#fb8072" stroke="black" points="592.08,-252 485.92,-252 485.92,-216 592.08,-216 592.08,-252"/>
<text text-anchor="middle" x="539" y="-229.8" font-family="Times,serif" font-size="14.00">Oid4vciService </text>
</g>
<!-- IssuanceModule&#45;&gt;Oid4vciService  -->
<g id="edge10" class="edge">
<title>IssuanceModule&#45;&gt;Oid4vciService </title>
<path fill="none" stroke="black" stroke-dasharray="5,2" d="M745.22,-182C674.21,-182 558.04,-182 558.04,-182 558.04,-182 558.04,-205.81 558.04,-205.81"/>
<polygon fill="black" stroke="black" points="554.54,-205.81 558.04,-215.81 561.54,-205.81 554.54,-205.81"/>
</g>
<!-- AuthorizeService -->
<g id="node12" class="node">
<title>AuthorizeService</title>
<ellipse fill="#fdb462" stroke="black" cx="1879" cy="-104" rx="78.71" ry="18"/>
<text text-anchor="middle" x="1879" y="-99.8" font-family="Times,serif" font-size="14.00">AuthorizeService</text>
</g>
<!-- AuthorizeService&#45;&gt;IssuanceModule -->
<g id="edge11" class="edge">
<title>AuthorizeService&#45;&gt;IssuanceModule</title>
<path fill="none" stroke="black" d="M1879,-122.04C1879,-143.66 1879,-177 1879,-177 1879,-177 862.93,-177 862.93,-177"/>
<polygon fill="black" stroke="black" points="862.93,-173.5 852.93,-177 862.93,-180.5 862.93,-173.5"/>
</g>
<!-- ChainedAsService -->
<g id="node13" class="node">
<title>ChainedAsService</title>
<ellipse fill="#fdb462" stroke="black" cx="1699" cy="-104" rx="82.8" ry="18"/>
<text text-anchor="middle" x="1699" y="-99.8" font-family="Times,serif" font-size="14.00">ChainedAsService</text>
</g>
<!-- ChainedAsService&#45;&gt;IssuanceModule -->
<g id="edge12" class="edge">
<title>ChainedAsService&#45;&gt;IssuanceModule</title>
<path fill="none" stroke="black" d="M1699,-122.22C1699,-142.37 1699,-172 1699,-172 1699,-172 862.94,-172 862.94,-172"/>
<polygon fill="black" stroke="black" points="862.94,-168.5 852.94,-172 862.94,-175.5 862.94,-168.5"/>
</g>
<!-- InteractiveAuthorizationService -->
<g id="node14" class="node">
<title>InteractiveAuthorizationService</title>
<ellipse fill="#fdb462" stroke="black" cx="1463" cy="-104" rx="134.83" ry="18"/>
<text text-anchor="middle" x="1463" y="-99.8" font-family="Times,serif" font-size="14.00">InteractiveAuthorizationService</text>
</g>
<!-- InteractiveAuthorizationService&#45;&gt;IssuanceModule -->
<g id="edge13" class="edge">
<title>InteractiveAuthorizationService&#45;&gt;IssuanceModule</title>
<path fill="none" stroke="black" d="M1463,-122.22C1463,-140.83 1463,-167 1463,-167 1463,-167 862.78,-167 862.78,-167"/>
<polygon fill="black" stroke="black" points="862.78,-163.5 852.78,-167 862.78,-170.5 862.78,-163.5"/>
</g>
<!-- Oid4vciService -->
<g id="node15" class="node">
<title>Oid4vciService</title>
<ellipse fill="#fdb462" stroke="black" cx="1239" cy="-104" rx="71.21" ry="18"/>
<text text-anchor="middle" x="1239" y="-99.8" font-family="Times,serif" font-size="14.00">Oid4vciService</text>
</g>
<!-- Oid4vciService&#45;&gt;IssuanceModule -->
<g id="edge14" class="edge">
<title>Oid4vciService&#45;&gt;IssuanceModule</title>
<path fill="none" stroke="black" d="M1239,-122.03C1239,-139.06 1239,-162 1239,-162 1239,-162 862.95,-162 862.95,-162"/>
<polygon fill="black" stroke="black" points="862.95,-158.5 852.95,-162 862.95,-165.5 862.95,-158.5"/>
</g>
<!-- WebhookService -->
<g id="node16" class="node">
<title>WebhookService</title>
<ellipse fill="#fdb462" stroke="black" cx="1072" cy="-104" rx="77.57" ry="18"/>
<text text-anchor="middle" x="1072" y="-99.8" font-family="Times,serif" font-size="14.00">WebhookService</text>
</g>
<!-- WebhookService&#45;&gt;IssuanceModule -->
<g id="edge15" class="edge">
<title>WebhookService&#45;&gt;IssuanceModule</title>
<path fill="none" stroke="black" d="M1040.6,-120.48C1040.6,-136.04 1040.6,-157 1040.6,-157 1040.6,-157 862.92,-157 862.92,-157"/>
<polygon fill="black" stroke="black" points="862.92,-153.5 852.92,-157 862.92,-160.5 862.92,-153.5"/>
</g>
<!-- WellKnownService -->
<g id="node17" class="node">
<title>WellKnownService</title>
<ellipse fill="#fdb462" stroke="black" cx="889" cy="-104" rx="87.38" ry="18"/>
<text text-anchor="middle" x="889" y="-99.8" font-family="Times,serif" font-size="14.00">WellKnownService</text>
</g>
<!-- WellKnownService&#45;&gt;IssuanceModule -->
<g id="edge16" class="edge">
<title>WellKnownService&#45;&gt;IssuanceModule</title>
<path fill="none" stroke="black" d="M827.34,-116.84C827.34,-116.84 827.34,-140.52 827.34,-140.52"/>
<polygon fill="black" stroke="black" points="823.84,-140.52 827.34,-150.52 830.84,-140.52 823.84,-140.52"/>
</g>
</g>
</svg>
