<?xml version="1.0" encoding="UTF-8" standalone="no"?>
<!DOCTYPE svg PUBLIC "-//W3C//DTD SVG 1.1//EN"
 "http://www.w3.org/Graphics/SVG/1.1/DTD/svg11.dtd">
<!-- Generated by graphviz version 2.47.0 (20210316.0004)
 -->
<!-- Title: dependencies Pages: 1 -->
<svg width="2236pt" height="284pt"
 viewBox="0.00 0.00 2236.00 284.00" xmlns="http://www.w3.org/2000/svg" xmlns:xlink="http://www.w3.org/1999/xlink">
<g id="graph0" class="graph" transform="scale(1 1) rotate(0) translate(4 280)">
<title>dependencies</title>
<polygon fill="white" stroke="transparent" points="-4,4 -4,-280 2232,-280 2232,4 -4,4"/>
<text text-anchor="start" x="1093.01" y="-42.4" font-family="Times-12" font-weight="bold" font-size="14.00">Legend</text>
<polygon fill="#ffffb3" stroke="transparent" points="880,-10 880,-30 900,-30 900,-10 880,-10"/>
<text text-anchor="start" x="903.63" y="-15.4" font-family="Times-12" font-size="14.00"> &#160;Declarations</text>
<polygon fill="#8dd3c7" stroke="transparent" points="993,-10 993,-30 1013,-30 1013,-10 993,-10"/>
<text text-anchor="start" x="1016.73" y="-15.4" font-family="Times-12" font-size="14.00"> &#160;Module</text>
<polygon fill="#80b1d3" stroke="transparent" points="1079,-10 1079,-30 1099,-30 1099,-10 1079,-10"/>
<text text-anchor="start" x="1102.78" y="-15.4" font-family="Times-12" font-size="14.00"> &#160;Bootstrap</text>
<polygon fill="#fdb462" stroke="transparent" points="1176,-10 1176,-30 1196,-30 1196,-10 1176,-10"/>
<text text-anchor="start" x="1199.67" y="-15.4" font-family="Times-12" font-size="14.00"> &#160;Providers</text>
<polygon fill="#fb8072" stroke="transparent" points="1272,-10 1272,-30 1292,-30 1292,-10 1272,-10"/>
<text text-anchor="start" x="1295.73" y="-15.4" font-family="Times-12" font-size="14.00"> &#160;Exports</text>
<g id="clust1" class="cluster">
<title>cluster_IssuanceModule</title>
<polygon fill="none" stroke="black" stroke-dasharray="1,5" points="8,-70 8,-268 2220,-268 2220,-70 8,-70"/>
</g>
<g id="clust6" class="cluster">
<title>cluster_IssuanceModule_providers</title>
<polygon fill="none" stroke="black" points="794,-78 794,-130 2212,-130 2212,-78 794,-78"/>
</g>
<g id="clust4" class="cluster">
<title>cluster_IssuanceModule_exports</title>
<polygon fill="none" stroke="black" points="568,-208 568,-260 1185,-260 1185,-208 568,-208"/>
</g>
<g id="clust3" class="cluster">
<title>cluster_IssuanceModule_imports</title>
<polygon fill="none" stroke="black" points="16,-78 16,-130 786,-130 786,-78 16,-78"/>
</g>
<!-- ConfigurationModule -->
<g id="node1" class="node">
<title>ConfigurationModule</title>
<polygon fill="#8dd3c7" stroke="black" points="778.09,-122 775.09,-126 754.09,-126 751.09,-122 639.91,-122 639.91,-86 778.09,-86 778.09,-122"/>
<text text-anchor="middle" x="709" y="-99.8" font-family="Times,serif" font-size="14.00">ConfigurationModule</text>
</g>
<!-- IssuanceModule -->
<g id="node7" class="node">
<title>IssuanceModule</title>
<polygon fill="#8dd3c7" stroke="black" points="942.74,-187 939.74,-191 918.74,-191 915.74,-187 835.26,-187 835.26,-151 942.74,-151 942.74,-187"/>
<text text-anchor="middle" x="889" y="-164.8" font-family="Times,serif" font-size="14.00">IssuanceModule</text>
</g>
<!-- ConfigurationModule&#45;&gt;IssuanceModule -->
<g id="edge1" class="edge">
<title>ConfigurationModule&#45;&gt;IssuanceModule</title>
<path fill="none" stroke="black" d="M739.25,-122.19C739.25,-137.18 739.25,-156 739.25,-156 739.25,-156 824.94,-156 824.94,-156"/>
<polygon fill="black" stroke="black" points="824.94,-159.5 834.94,-156 824.94,-152.5 824.94,-159.5"/>
</g>
<!-- CryptoModule -->
<g id="node2" class="node">
<title>CryptoModule</title>
<polygon fill="#8dd3c7" stroke="black" points="622.44,-122 619.44,-126 598.44,-126 595.44,-122 523.56,-122 523.56,-86 622.44,-86 622.44,-122"/>
<text text-anchor="middle" x="573" y="-99.8" font-family="Times,serif" font-size="14.00">CryptoModule</text>
</g>
<!-- CryptoModule&#45;&gt;IssuanceModule -->
<g id="edge2" class="edge">
<title>CryptoModule&#45;&gt;IssuanceModule</title>
<path fill="none" stroke="black" d="M598.96,-122.03C598.96,-138.4 598.96,-160 598.96,-160 598.96,-160 825.13,-160 825.13,-160"/>
<polygon fill="black" stroke="black" points="825.13,-163.5 835.13,-160 825.13,-156.5 825.13,-163.5"/>
</g>
<!-- Oid4vpModule -->
<g id="node3" class="node">
<title>Oid4vpModule</title>
<polygon fill="#8dd3c7" stroke="black" points="505.55,-122 502.55,-126 481.55,-126 478.55,-122 404.45,-122 404.45,-86 505.55,-86 505.55,-122"/>
<text text-anchor="middle" x="455" y="-99.8" font-family="Times,serif" font-size="14.00">Oid4vpModule</text>
</g>
<!-- Oid4vpModule&#45;&gt;IssuanceModule -->
<g id="edge3" class="edge">
<title>Oid4vpModule&#45;&gt;IssuanceModule</title>
<path fill="none" stroke="black" d="M455,-122.3C455,-140.27 455,-165 455,-165 455,-165 824.91,-165 824.91,-165"/>
<polygon fill="black" stroke="black" points="824.91,-168.5 834.91,-165 824.91,-161.5 824.91,-168.5"/>
</g>
<!-- PresentationsModule -->
<g id="node4" class="node">
<title>PresentationsModule</title>
<polygon fill="#8dd3c7" stroke="black" points="386.2,-122 383.2,-126 362.2,-126 359.2,-122 251.8,-122 251.8,-86 386.2,-86 386.2,-122"/>
<text text-anchor="middle" x="319" y="-99.8" font-family="Times,serif" font-size="14.00">PresentationsModule</text>
</g>
<!-- PresentationsModule&#45;&gt;IssuanceModule -->
<g id="edge4" class="edge">
<title>PresentationsModule&#45;&gt;IssuanceModule</title>
<path fill="none" stroke="black" d="M319,-122.11C319,-141.34 319,-169 319,-169 319,-169 825.12,-169 825.12,-169"/>
<polygon fill="black" stroke="black" points="825.12,-172.5 835.12,-169 825.12,-165.5 825.12,-172.5"/>
</g>
<!-- SessionModule -->
<g id="node5" class="node">
<title>SessionModule</title>
<polygon fill="#8dd3c7" stroke="black" points="234.33,-122 231.33,-126 210.33,-126 207.33,-122 131.67,-122 131.67,-86 234.33,-86 234.33,-122"/>
<text text-anchor="middle" x="183" y="-99.8" font-family="Times,serif" font-size="14.00">SessionModule</text>
</g>
<!-- SessionModule&#45;&gt;IssuanceModule -->
<g id="edge5" class="edge">
<title>SessionModule&#45;&gt;IssuanceModule</title>
<path fill="none" stroke="black" d="M183,-122.03C183,-142.77 183,-174 183,-174 183,-174 825.07,-174 825.07,-174"/>
<polygon fill="black" stroke="black" points="825.07,-177.5 835.07,-174 825.07,-170.5 825.07,-177.5"/>
</g>
<!-- TrustModule -->
<g id="node6" class="node">
<title>TrustModule</title>
<polygon fill="#8dd3c7" stroke="black" points="113.6,-122 110.6,-126 89.6,-126 86.6,-122 24.4,-122 24.4,-86 113.6,-86 113.6,-122"/>
<text text-anchor="middle" x="69" y="-99.8" font-family="Times,serif" font-size="14.00">TrustModule</text>
</g>
<!-- TrustModule&#45;&gt;IssuanceModule -->
<g id="edge6" class="edge">
<title>TrustModule&#45;&gt;IssuanceModule</title>
<path fill="none" stroke="black" d="M69,-122.29C69,-144.21 69,-178 69,-178 69,-178 825.2,-178 825.2,-178"/>
<polygon fill="black" stroke="black" points="825.2,-181.5 835.2,-178 825.2,-174.5 825.2,-181.5"/>
</g>
<!-- AuthorizeService  -->
<g id="node8" class="node">
<title>AuthorizeService </title>
<polygon fill="#fb8072" stroke="black" points="1176.96,-252 1059.04,-252 1059.04,-216 1176.96,-216 1176.96,-252"/>
<text text-anchor="middle" x="1118" y="-229.8" font-family="Times,serif" font-size="14.00">AuthorizeService </text>
</g>
<!-- IssuanceModule&#45;&gt;AuthorizeService  -->
<g id="edge7" class="edge">
<title>IssuanceModule&#45;&gt;AuthorizeService </title>
<path fill="none" stroke="black" stroke-dasharray="5,2" d="M942.8,-183C1006.6,-183 1104.4,-183 1104.4,-183 1104.4,-183 1104.4,-205.88 1104.4,-205.88"/>
<polygon fill="black" stroke="black" points="1100.9,-205.88 1104.4,-215.88 1107.9,-205.88 1100.9,-205.88"/>
</g>
<!-- ChainedAsService  -->
<g id="node9" class="node">
<title>ChainedAsService </title>
<polygon fill="#fb8072" stroke="black" points="1040.69,-252 917.31,-252 917.31,-216 1040.69,-216 1040.69,-252"/>
<text text-anchor="middle" x="979" y="-229.8" font-family="Times,serif" font-size="14.00">ChainedAsService </text>
</g>
<!-- IssuanceModule&#45;&gt;ChainedAsService  -->
<g id="edge8" class="edge">
<title>IssuanceModule&#45;&gt;ChainedAsService </title>
<path fill="none" stroke="black" stroke-dasharray="5,2" d="M930.01,-187.11C930.01,-187.11 930.01,-205.99 930.01,-205.99"/>
<polygon fill="black" stroke="black" points="926.51,-205.99 930.01,-215.99 933.51,-205.99 926.51,-205.99"/>
</g>
<!-- InteractiveAuthorizationService  -->
<g id="node10" class="node">
<title>InteractiveAuthorizationService </title>
<polygon fill="#fb8072" stroke="black" points="899.59,-252 700.41,-252 700.41,-216 899.59,-216 899.59,-252"/>
<text text-anchor="middle" x="800" y="-229.8" font-family="Times,serif" font-size="14.00">InteractiveAuthorizationService </text>
</g>
<!-- IssuanceModule&#45;&gt;InteractiveAuthorizationService  -->
<g id="edge9" class="edge">
<title>IssuanceModule&#45;&gt;InteractiveAuthorizationService </title>
<path fill="none" stroke="black" stroke-dasharray="5,2" d="M867.34,-187.11C867.34,-187.11 867.34,-205.99 867.34,-205.99"/>
<polygon fill="black" stroke="black" points="863.84,-205.99 867.34,-215.99 870.84,-205.99 863.84,-205.99"/>
</g>
<!-- Oid4vciService  -->
<g id="node11" class="node">
<title>Oid4vciService </title>
<polygon fill="#fb8072" stroke="black" points="682.08,-252 575.92,-252 575.92,-216 682.08,-216 682.08,-252"/>
<text text-anchor="middle" x="629" y="-229.8" font-family="Times,serif" font-size="14.00">Oid4vciService </text>
</g>
<!-- IssuanceModule&#45;&gt;Oid4vciService  -->
<g id="edge10" class="edge">
<title>IssuanceModule&#45;&gt;Oid4vciService </title>
<path fill="none" stroke="black" stroke-dasharray="5,2" d="M835,-183C767.61,-183 661.12,-183 661.12,-183 661.12,-183 661.12,-205.88 661.12,-205.88"/>
<polygon fill="black" stroke="black" points="657.62,-205.88 661.12,-215.88 664.62,-205.88 657.62,-205.88"/>
</g>
<!-- AuthorizeService -->
<g id="node12" class="node">
<title>AuthorizeService</title>
<ellipse fill="#fdb462" stroke="black" cx="2125" cy="-104" rx="78.71" ry="18"/>
<text text-anchor="middle" x="2125" y="-99.8" font-family="Times,serif" font-size="14.00">AuthorizeService</text>
</g>
<!-- AuthorizeService&#45;&gt;IssuanceModule -->
<g id="edge11" class="edge">
<title>AuthorizeService&#45;&gt;IssuanceModule</title>
<path fill="none" stroke="black" d="M2125,-122.29C2125,-144.21 2125,-178 2125,-178 2125,-178 952.9,-178 952.9,-178"/>
<polygon fill="black" stroke="black" points="952.9,-174.5 942.9,-178 952.9,-181.5 952.9,-174.5"/>
</g>
<!-- ChainedAsService -->
<g id="node13" class="node">
<title>ChainedAsService</title>
<ellipse fill="#fdb462" stroke="black" cx="1945" cy="-104" rx="82.8" ry="18"/>
<text text-anchor="middle" x="1945" y="-99.8" font-family="Times,serif" font-size="14.00">ChainedAsService</text>
</g>
<!-- ChainedAsService&#45;&gt;IssuanceModule -->
<g id="edge12" class="edge">
<title>ChainedAsService&#45;&gt;IssuanceModule</title>
<path fill="none" stroke="black" d="M1945,-122.03C1945,-142.77 1945,-174 1945,-174 1945,-174 952.82,-174 952.82,-174"/>
<polygon fill="black" stroke="black" points="952.82,-170.5 942.82,-174 952.82,-177.5 952.82,-170.5"/>
</g>
<!-- DeferredCredentialService -->
<g id="node14" class="node">
<title>DeferredCredentialService</title>
<ellipse fill="#fdb462" stroke="black" cx="1730" cy="-104" rx="114.54" ry="18"/>
<text text-anchor="middle" x="1730" y="-99.8" font-family="Times,serif" font-size="14.00">DeferredCredentialService</text>
</g>
<!-- DeferredCredentialService&#45;&gt;IssuanceModule -->
<g id="edge13" class="edge">
<title>DeferredCredentialService&#45;&gt;IssuanceModule</title>
<path fill="none" stroke="black" d="M1730,-122.11C1730,-141.34 1730,-169 1730,-169 1730,-169 952.89,-169 952.89,-169"/>
<polygon fill="black" stroke="black" points="952.89,-165.5 942.89,-169 952.89,-172.5 952.89,-165.5"/>
</g>
<!-- InteractiveAuthorizationService -->
<g id="node15" class="node">
<title>InteractiveAuthorizationService</title>
<ellipse fill="#fdb462" stroke="black" cx="1463" cy="-104" rx="134.83" ry="18"/>
<text text-anchor="middle" x="1463" y="-99.8" font-family="Times,serif" font-size="14.00">InteractiveAuthorizationService</text>
</g>
<!-- InteractiveAuthorizationService&#45;&gt;IssuanceModule -->
<g id="edge14" class="edge">
<title>InteractiveAuthorizationService&#45;&gt;IssuanceModule</title>
<path fill="none" stroke="black" d="M1463,-122.3C1463,-140.27 1463,-165 1463,-165 1463,-165 953,-165 953,-165"/>
<polygon fill="black" stroke="black" points="953,-161.5 943,-165 953,-168.5 953,-161.5"/>
</g>
<!-- Oid4vciService -->
<g id="node16" class="node">
<title>Oid4vciService</title>
<ellipse fill="#fdb462" stroke="black" cx="1239" cy="-104" rx="71.21" ry="18"/>
<text text-anchor="middle" x="1239" y="-99.8" font-family="Times,serif" font-size="14.00">Oid4vciService</text>
</g>
<!-- Oid4vciService&#45;&gt;IssuanceModule -->
<g id="edge15" class="edge">
<title>Oid4vciService&#45;&gt;IssuanceModule</title>
<path fill="none" stroke="black" d="M1172.31,-110.42C1172.31,-125.13 1172.31,-160 1172.31,-160 1172.31,-160 952.96,-160 952.96,-160"/>
<polygon fill="black" stroke="black" points="952.96,-156.5 942.96,-160 952.96,-163.5 952.96,-156.5"/>
</g>
<!-- WebhookService -->
<g id="node17" class="node">
<title>WebhookService</title>
<ellipse fill="#fdb462" stroke="black" cx="1072" cy="-104" rx="77.57" ry="18"/>
<text text-anchor="middle" x="1072" y="-99.8" font-family="Times,serif" font-size="14.00">WebhookService</text>
</g>
<!-- WebhookService&#45;&gt;IssuanceModule -->
<g id="edge16" class="edge">
<title>WebhookService&#45;&gt;IssuanceModule</title>
<path fill="none" stroke="black" d="M1017.65,-116.85C1017.65,-132.25 1017.65,-156 1017.65,-156 1017.65,-156 952.82,-156 952.82,-156"/>
<polygon fill="black" stroke="black" points="952.82,-152.5 942.82,-156 952.82,-159.5 952.82,-152.5"/>
</g>
<!-- WellKnownService -->
<g id="node18" class="node">
<title>WellKnownService</title>
<ellipse fill="#fdb462" stroke="black" cx="889" cy="-104" rx="87.38" ry="18"/>
<text text-anchor="middle" x="889" y="-99.8" font-family="Times,serif" font-size="14.00">WellKnownService</text>
</g>
<!-- WellKnownService&#45;&gt;IssuanceModule -->
<g id="edge17" class="edge">
<title>WellKnownService&#45;&gt;IssuanceModule</title>
<path fill="none" stroke="black" d="M889,-122.11C889,-122.11 889,-140.99 889,-140.99"/>
<polygon fill="black" stroke="black" points="885.5,-140.99 889,-150.99 892.5,-140.99 885.5,-140.99"/>
</g>
</g>
</svg>
