<?xml version="1.0" encoding="UTF-8" standalone="no"?>
<!DOCTYPE svg PUBLIC "-//W3C//DTD SVG 1.1//EN"
 "http://www.w3.org/Graphics/SVG/1.1/DTD/svg11.dtd">
<!-- Generated by graphviz version 2.47.0 (20210316.0004)
 -->
<!-- Title: dependencies Pages: 1 -->
<svg width="1051pt" height="284pt"
 viewBox="0.00 0.00 1051.00 284.00" xmlns="http://www.w3.org/2000/svg" xmlns:xlink="http://www.w3.org/1999/xlink">
<g id="graph0" class="graph" transform="scale(1 1) rotate(0) translate(4 280)">
<title>dependencies</title>
<polygon fill="white" stroke="transparent" points="-4,4 -4,-280 1047,-280 1047,4 -4,4"/>
<text text-anchor="start" x="500.51" y="-42.4" font-family="Times-12" font-weight="bold" font-size="14.00">Legend</text>
<polygon fill="#ffffb3" stroke="transparent" points="287.5,-10 287.5,-30 307.5,-30 307.5,-10 287.5,-10"/>
<text text-anchor="start" x="311.13" y="-15.4" font-family="Times-12" font-size="14.00"> &#160;Declarations</text>
<polygon fill="#8dd3c7" stroke="transparent" points="400.5,-10 400.5,-30 420.5,-30 420.5,-10 400.5,-10"/>
<text text-anchor="start" x="424.23" y="-15.4" font-family="Times-12" font-size="14.00"> &#160;Module</text>
<polygon fill="#80b1d3" stroke="transparent" points="486.5,-10 486.5,-30 506.5,-30 506.5,-10 486.5,-10"/>
<text text-anchor="start" x="510.28" y="-15.4" font-family="Times-12" font-size="14.00"> &#160;Bootstrap</text>
<polygon fill="#fdb462" stroke="transparent" points="583.5,-10 583.5,-30 603.5,-30 603.5,-10 583.5,-10"/>
<text text-anchor="start" x="607.17" y="-15.4" font-family="Times-12" font-size="14.00"> &#160;Providers</text>
<polygon fill="#fb8072" stroke="transparent" points="679.5,-10 679.5,-30 699.5,-30 699.5,-10 679.5,-10"/>
<text text-anchor="start" x="703.23" y="-15.4" font-family="Times-12" font-size="14.00"> &#160;Exports</text>
<g id="clust1" class="cluster">
<title>cluster_TenantModule</title>
<polygon fill="none" stroke="black" stroke-dasharray="1,5" points="8,-70 8,-268 1035,-268 1035,-70 8,-70"/>
</g>
<g id="clust6" class="cluster">
<title>cluster_TenantModule_providers</title>
<polygon fill="none" stroke="black" points="877,-78 877,-130 1027,-130 1027,-78 877,-78"/>
</g>
<g id="clust4" class="cluster">
<title>cluster_TenantModule_exports</title>
<polygon fill="none" stroke="black" points="510,-208 510,-260 626,-260 626,-208 510,-208"/>
</g>
<g id="clust3" class="cluster">
<title>cluster_TenantModule_imports</title>
<polygon fill="none" stroke="black" points="16,-78 16,-195 869,-195 869,-78 16,-78"/>
</g>
<!-- AuditLogModule -->
<g id="node1" class="node">
<title>AuditLogModule</title>
<polygon fill="#8dd3c7" stroke="black" points="860.99,-122 857.99,-126 836.99,-126 833.99,-122 747.01,-122 747.01,-86 860.99,-86 860.99,-122"/>
<text text-anchor="middle" x="804" y="-99.8" font-family="Times,serif" font-size="14.00">AuditLogModule</text>
</g>
<!-- TenantModule -->
<g id="node8" class="node">
<title>TenantModule</title>
<polygon fill="#8dd3c7" stroke="black" points="617.42,-187 614.42,-191 593.42,-191 590.42,-187 518.58,-187 518.58,-151 617.42,-151 617.42,-187"/>
<text text-anchor="middle" x="568" y="-164.8" font-family="Times,serif" font-size="14.00">TenantModule</text>
</g>
<!-- AuditLogModule&#45;&gt;TenantModule -->
<g id="edge1" class="edge">
<title>AuditLogModule&#45;&gt;TenantModule</title>
<path fill="none" stroke="black" d="M804,-122.13C804,-142.57 804,-173 804,-173 804,-173 627.47,-173 627.47,-173"/>
<polygon fill="black" stroke="black" points="627.47,-169.5 617.47,-173 627.47,-176.5 627.47,-169.5"/>
</g>
<!-- ClientModule -->
<g id="node2" class="node">
<title>ClientModule</title>
<polygon fill="#8dd3c7" stroke="black" points="728.77,-122 725.77,-126 704.77,-126 701.77,-122 635.23,-122 635.23,-86 728.77,-86 728.77,-122"/>
<text text-anchor="middle" x="682" y="-99.8" font-family="Times,serif" font-size="14.00">ClientModule</text>
</g>
<!-- ClientModule&#45;&gt;TenantModule -->
<g id="edge2" class="edge">
<title>ClientModule&#45;&gt;TenantModule</title>
<path fill="none" stroke="black" d="M666.37,-122.01C666.37,-138.05 666.37,-159 666.37,-159 666.37,-159 627.47,-159 627.47,-159"/>
<polygon fill="black" stroke="black" points="627.47,-155.5 617.47,-159 627.47,-162.5 627.47,-155.5"/>
</g>
<!-- ClientModule&#45;&gt;TenantModule -->
<g id="edge3" class="edge">
<title>ClientModule&#45;&gt;TenantModule</title>
<path fill="none" stroke="black" d="M697.63,-122.27C697.63,-140.56 697.63,-166 697.63,-166 697.63,-166 627.38,-166 627.38,-166"/>
<polygon fill="black" stroke="black" points="627.38,-162.5 617.38,-166 627.38,-169.5 627.38,-162.5"/>
</g>
<!-- CryptoModule -->
<g id="node3" class="node">
<title>CryptoModule</title>
<polygon fill="#8dd3c7" stroke="black" points="617.44,-122 614.44,-126 593.44,-126 590.44,-122 518.56,-122 518.56,-86 617.44,-86 617.44,-122"/>
<text text-anchor="middle" x="568" y="-99.8" font-family="Times,serif" font-size="14.00">CryptoModule</text>
</g>
<!-- CryptoModule&#45;&gt;TenantModule -->
<g id="edge4" class="edge">
<title>CryptoModule&#45;&gt;TenantModule</title>
<path fill="none" stroke="black" d="M551.6,-122.11C551.6,-122.11 551.6,-140.99 551.6,-140.99"/>
<polygon fill="black" stroke="black" points="548.1,-140.99 551.6,-150.99 555.1,-140.99 548.1,-140.99"/>
</g>
<!-- IssuerModule -->
<g id="node4" class="node">
<title>IssuerModule</title>
<polygon fill="#8dd3c7" stroke="black" points="500.47,-122 497.47,-126 476.47,-126 473.47,-122 407.53,-122 407.53,-86 500.47,-86 500.47,-122"/>
<text text-anchor="middle" x="454" y="-99.8" font-family="Times,serif" font-size="14.00">IssuerModule</text>
</g>
<!-- IssuerModule&#45;&gt;TenantModule -->
<g id="edge5" class="edge">
<title>IssuerModule&#45;&gt;TenantModule</title>
<path fill="none" stroke="black" d="M454,-122.01C454,-138.05 454,-159 454,-159 454,-159 508.66,-159 508.66,-159"/>
<polygon fill="black" stroke="black" points="508.66,-162.5 518.66,-159 508.66,-155.5 508.66,-162.5"/>
</g>
<!-- RegistrarModule -->
<g id="node5" class="node">
<title>RegistrarModule</title>
<polygon fill="#8dd3c7" stroke="black" points="389.36,-122 386.36,-126 365.36,-126 362.36,-122 278.64,-122 278.64,-86 389.36,-86 389.36,-122"/>
<text text-anchor="middle" x="334" y="-99.8" font-family="Times,serif" font-size="14.00">RegistrarModule</text>
</g>
<!-- RegistrarModule&#45;&gt;TenantModule -->
<g id="edge6" class="edge">
<title>RegistrarModule&#45;&gt;TenantModule</title>
<path fill="none" stroke="black" d="M334,-122.27C334,-140.56 334,-166 334,-166 334,-166 508.66,-166 508.66,-166"/>
<polygon fill="black" stroke="black" points="508.66,-169.5 518.66,-166 508.66,-162.5 508.66,-169.5"/>
</g>
<!-- SessionModule -->
<g id="node6" class="node">
<title>SessionModule</title>
<polygon fill="#8dd3c7" stroke="black" points="260.33,-122 257.33,-126 236.33,-126 233.33,-122 157.67,-122 157.67,-86 260.33,-86 260.33,-122"/>
<text text-anchor="middle" x="209" y="-99.8" font-family="Times,serif" font-size="14.00">SessionModule</text>
</g>
<!-- SessionModule&#45;&gt;TenantModule -->
<g id="edge7" class="edge">
<title>SessionModule&#45;&gt;TenantModule</title>
<path fill="none" stroke="black" d="M209,-122.13C209,-142.57 209,-173 209,-173 209,-173 508.46,-173 508.46,-173"/>
<polygon fill="black" stroke="black" points="508.46,-176.5 518.46,-173 508.46,-169.5 508.46,-176.5"/>
</g>
<!-- StatusListModule -->
<g id="node7" class="node">
<title>StatusListModule</title>
<polygon fill="#8dd3c7" stroke="black" points="139.55,-122 136.55,-126 115.55,-126 112.55,-122 24.45,-122 24.45,-86 139.55,-86 139.55,-122"/>
<text text-anchor="middle" x="82" y="-99.8" font-family="Times,serif" font-size="14.00">StatusListModule</text>
</g>
<!-- StatusListModule&#45;&gt;TenantModule -->
<g id="edge8" class="edge">
<title>StatusListModule&#45;&gt;TenantModule</title>
<path fill="none" stroke="black" d="M82,-122.01C82,-144.49 82,-180 82,-180 82,-180 508.73,-180 508.73,-180"/>
<polygon fill="black" stroke="black" points="508.73,-183.5 518.73,-180 508.73,-176.5 508.73,-183.5"/>
</g>
<!-- TenantModule&#45;&gt;TenantModule -->
<g id="edge9" class="edge">
<title>TenantModule&#45;&gt;TenantModule</title>
<path fill="none" stroke="black" d="M584.4,-150.76C584.4,-143.57 584.4,-137 584.4,-137 584.4,-137 626.64,-137 626.64,-137 626.64,-137 626.64,-202 626.64,-202 626.64,-202 584.4,-202 584.4,-202 584.4,-202 584.4,-197.04 584.4,-197.04"/>
<polygon fill="black" stroke="black" points="587.9,-197.04 584.4,-187.04 580.9,-197.04 587.9,-197.04"/>
</g>
<!-- TenantService  -->
<g id="node9" class="node">
<title>TenantService </title>
<polygon fill="#fb8072" stroke="black" points="618.35,-252 517.65,-252 517.65,-216 618.35,-216 618.35,-252"/>
<text text-anchor="middle" x="568" y="-229.8" font-family="Times,serif" font-size="14.00">TenantService </text>
</g>
<!-- TenantModule&#45;&gt;TenantService  -->
<g id="edge10" class="edge">
<title>TenantModule&#45;&gt;TenantService </title>
<path fill="none" stroke="black" stroke-dasharray="5,2" d="M551.6,-187.11C551.6,-187.11 551.6,-205.99 551.6,-205.99"/>
<polygon fill="black" stroke="black" points="548.1,-205.99 551.6,-215.99 555.1,-205.99 548.1,-205.99"/>
</g>
<!-- TenantService -->
<g id="node10" class="node">
<title>TenantService</title>
<ellipse fill="#fdb462" stroke="black" cx="952" cy="-104" rx="66.61" ry="18"/>
<text text-anchor="middle" x="952" y="-99.8" font-family="Times,serif" font-size="14.00">TenantService</text>
</g>
<!-- TenantService&#45;&gt;TenantModule -->
<g id="edge11" class="edge">
<title>TenantService&#45;&gt;TenantModule</title>
<path fill="none" stroke="black" d="M952,-122.01C952,-144.49 952,-180 952,-180 952,-180 627.42,-180 627.42,-180"/>
<polygon fill="black" stroke="black" points="627.42,-176.5 617.42,-180 627.42,-183.5 627.42,-176.5"/>
</g>
</g>
</svg>
