<?xml version="1.0" encoding="UTF-8" standalone="no"?>
<!DOCTYPE svg PUBLIC "-//W3C//DTD SVG 1.1//EN"
 "http://www.w3.org/Graphics/SVG/1.1/DTD/svg11.dtd">
<!-- Generated by graphviz version 2.47.0 (20210316.0004)
 -->
<!-- Title: dependencies Pages: 1 -->
<svg width="1051pt" height="284pt"
 viewBox="0.00 0.00 1051.00 284.00" xmlns="http://www.w3.org/2000/svg" xmlns:xlink="http://www.w3.org/1999/xlink">
<g id="graph0" class="graph" transform="scale(1 1) rotate(0) translate(4 280)">
<title>dependencies</title>
<polygon fill="white" stroke="transparent" points="-4,4 -4,-280 1047,-280 1047,4 -4,4"/>
<text text-anchor="start" x="500.51" y="-42.4" font-family="Times-12" font-weight="bold" font-size="14.00">Legend</text>
<polygon fill="#ffffb3" stroke="transparent" points="287.5,-10 287.5,-30 307.5,-30 307.5,-10 287.5,-10"/>
<text text-anchor="start" x="311.13" y="-15.4" font-family="Times-12" font-size="14.00"> &#160;Declarations</text>
<polygon fill="#8dd3c7" stroke="transparent" points="400.5,-10 400.5,-30 420.5,-30 420.5,-10 400.5,-10"/>
<text text-anchor="start" x="424.23" y="-15.4" font-family="Times-12" font-size="14.00"> &#160;Module</text>
<polygon fill="#80b1d3" stroke="transparent" points="486.5,-10 486.5,-30 506.5,-30 506.5,-10 486.5,-10"/>
<text text-anchor="start" x="510.28" y="-15.4" font-family="Times-12" font-size="14.00"> &#160;Bootstrap</text>
<polygon fill="#fdb462" stroke="transparent" points="583.5,-10 583.5,-30 603.5,-30 603.5,-10 583.5,-10"/>
<text text-anchor="start" x="607.17" y="-15.4" font-family="Times-12" font-size="14.00"> &#160;Providers</text>
<polygon fill="#fb8072" stroke="transparent" points="679.5,-10 679.5,-30 699.5,-30 699.5,-10 679.5,-10"/>
<text text-anchor="start" x="703.23" y="-15.4" font-family="Times-12" font-size="14.00"> &#160;Exports</text>
<g id="clust1" class="cluster">
<title>cluster_TenantModule</title>
<polygon fill="none" stroke="black" stroke-dasharray="1,5" points="8,-70 8,-268 1035,-268 1035,-70 8,-70"/>
</g>
<g id="clust3" class="cluster">
<title>cluster_TenantModule_imports</title>
<polygon fill="none" stroke="black" points="174,-78 174,-195 1027,-195 1027,-78 174,-78"/>
</g>
<g id="clust6" class="cluster">
<title>cluster_TenantModule_providers</title>
<polygon fill="none" stroke="black" points="16,-78 16,-130 166,-130 166,-78 16,-78"/>
</g>
<g id="clust4" class="cluster">
<title>cluster_TenantModule_exports</title>
<polygon fill="none" stroke="black" points="554,-208 554,-260 670,-260 670,-208 554,-208"/>
</g>
<!-- AuditLogModule -->
<g id="node1" class="node">
<title>AuditLogModule</title>
<polygon fill="#8dd3c7" stroke="black" points="1018.99,-122 1015.99,-126 994.99,-126 991.99,-122 905.01,-122 905.01,-86 1018.99,-86 1018.99,-122"/>
<text text-anchor="middle" x="962" y="-99.8" font-family="Times,serif" font-size="14.00">AuditLogModule</text>
</g>
<!-- TenantModule -->
<g id="node8" class="node">
<title>TenantModule</title>
<polygon fill="#8dd3c7" stroke="black" points="661.42,-187 658.42,-191 637.42,-191 634.42,-187 562.58,-187 562.58,-151 661.42,-151 661.42,-187"/>
<text text-anchor="middle" x="612" y="-164.8" font-family="Times,serif" font-size="14.00">TenantModule</text>
</g>
<!-- AuditLogModule&#45;&gt;TenantModule -->
<g id="edge1" class="edge">
<title>AuditLogModule&#45;&gt;TenantModule</title>
<path fill="none" stroke="black" d="M962,-122.01C962,-144.49 962,-180 962,-180 962,-180 671.4,-180 671.4,-180"/>
<polygon fill="black" stroke="black" points="671.4,-176.5 661.4,-180 671.4,-183.5 671.4,-176.5"/>
</g>
<!-- ClientModule -->
<g id="node2" class="node">
<title>ClientModule</title>
<polygon fill="#8dd3c7" stroke="black" points="886.77,-122 883.77,-126 862.77,-126 859.77,-122 793.23,-122 793.23,-86 886.77,-86 886.77,-122"/>
<text text-anchor="middle" x="840" y="-99.8" font-family="Times,serif" font-size="14.00">ClientModule</text>
</g>
<!-- ClientModule&#45;&gt;TenantModule -->
<g id="edge2" class="edge">
<title>ClientModule&#45;&gt;TenantModule</title>
<path fill="none" stroke="black" d="M824.37,-122.27C824.37,-140.56 824.37,-166 824.37,-166 824.37,-166 671.26,-166 671.26,-166"/>
<polygon fill="black" stroke="black" points="671.26,-162.5 661.26,-166 671.26,-169.5 671.26,-162.5"/>
</g>
<!-- ClientModule&#45;&gt;TenantModule -->
<g id="edge3" class="edge">
<title>ClientModule&#45;&gt;TenantModule</title>
<path fill="none" stroke="black" d="M855.63,-122.13C855.63,-142.57 855.63,-173 855.63,-173 855.63,-173 671.3,-173 671.3,-173"/>
<polygon fill="black" stroke="black" points="671.3,-169.5 661.3,-173 671.3,-176.5 671.3,-169.5"/>
</g>
<!-- CryptoModule -->
<g id="node3" class="node">
<title>CryptoModule</title>
<polygon fill="#8dd3c7" stroke="black" points="775.44,-122 772.44,-126 751.44,-126 748.44,-122 676.56,-122 676.56,-86 775.44,-86 775.44,-122"/>
<text text-anchor="middle" x="726" y="-99.8" font-family="Times,serif" font-size="14.00">CryptoModule</text>
</g>
<!-- CryptoModule&#45;&gt;TenantModule -->
<g id="edge4" class="edge">
<title>CryptoModule&#45;&gt;TenantModule</title>
<path fill="none" stroke="black" d="M726,-122.01C726,-138.05 726,-159 726,-159 726,-159 671.34,-159 671.34,-159"/>
<polygon fill="black" stroke="black" points="671.34,-155.5 661.34,-159 671.34,-162.5 671.34,-155.5"/>
</g>
<!-- IssuerModule -->
<g id="node4" class="node">
<title>IssuerModule</title>
<polygon fill="#8dd3c7" stroke="black" points="658.47,-122 655.47,-126 634.47,-126 631.47,-122 565.53,-122 565.53,-86 658.47,-86 658.47,-122"/>
<text text-anchor="middle" x="612" y="-99.8" font-family="Times,serif" font-size="14.00">IssuerModule</text>
</g>
<!-- IssuerModule&#45;&gt;TenantModule -->
<g id="edge5" class="edge">
<title>IssuerModule&#45;&gt;TenantModule</title>
<path fill="none" stroke="black" d="M596.5,-122.11C596.5,-122.11 596.5,-140.99 596.5,-140.99"/>
<polygon fill="black" stroke="black" points="593,-140.99 596.5,-150.99 600,-140.99 593,-140.99"/>
</g>
<!-- RegistrarModule -->
<g id="node5" class="node">
<title>RegistrarModule</title>
<polygon fill="#8dd3c7" stroke="black" points="547.36,-122 544.36,-126 523.36,-126 520.36,-122 436.64,-122 436.64,-86 547.36,-86 547.36,-122"/>
<text text-anchor="middle" x="492" y="-99.8" font-family="Times,serif" font-size="14.00">RegistrarModule</text>
</g>
<!-- RegistrarModule&#45;&gt;TenantModule -->
<g id="edge6" class="edge">
<title>RegistrarModule&#45;&gt;TenantModule</title>
<path fill="none" stroke="black" d="M492,-122.01C492,-138.05 492,-159 492,-159 492,-159 552.5,-159 552.5,-159"/>
<polygon fill="black" stroke="black" points="552.5,-162.5 562.5,-159 552.5,-155.5 552.5,-162.5"/>
</g>
<!-- SessionModule -->
<g id="node6" class="node">
<title>SessionModule</title>
<polygon fill="#8dd3c7" stroke="black" points="418.33,-122 415.33,-126 394.33,-126 391.33,-122 315.67,-122 315.67,-86 418.33,-86 418.33,-122"/>
<text text-anchor="middle" x="367" y="-99.8" font-family="Times,serif" font-size="14.00">SessionModule</text>
</g>
<!-- SessionModule&#45;&gt;TenantModule -->
<g id="edge7" class="edge">
<title>SessionModule&#45;&gt;TenantModule</title>
<path fill="none" stroke="black" d="M367,-122.27C367,-140.56 367,-166 367,-166 367,-166 552.72,-166 552.72,-166"/>
<polygon fill="black" stroke="black" points="552.72,-169.5 562.72,-166 552.72,-162.5 552.72,-169.5"/>
</g>
<!-- StatusListModule -->
<g id="node7" class="node">
<title>StatusListModule</title>
<polygon fill="#8dd3c7" stroke="black" points="297.55,-122 294.55,-126 273.55,-126 270.55,-122 182.45,-122 182.45,-86 297.55,-86 297.55,-122"/>
<text text-anchor="middle" x="240" y="-99.8" font-family="Times,serif" font-size="14.00">StatusListModule</text>
</g>
<!-- StatusListModule&#45;&gt;TenantModule -->
<g id="edge8" class="edge">
<title>StatusListModule&#45;&gt;TenantModule</title>
<path fill="none" stroke="black" d="M240,-122.13C240,-142.57 240,-173 240,-173 240,-173 552.6,-173 552.6,-173"/>
<polygon fill="black" stroke="black" points="552.6,-176.5 562.6,-173 552.6,-169.5 552.6,-176.5"/>
</g>
<!-- TenantModule&#45;&gt;TenantModule -->
<g id="edge9" class="edge">
<title>TenantModule&#45;&gt;TenantModule</title>
<path fill="none" stroke="black" d="M627.5,-150.76C627.5,-143.57 627.5,-137 627.5,-137 627.5,-137 669.48,-137 669.48,-137 669.48,-137 669.48,-202 669.48,-202 669.48,-202 628.4,-202 628.4,-202 628.4,-202 628.4,-197.04 628.4,-197.04"/>
<polygon fill="black" stroke="black" points="631.9,-197.04 628.4,-187.04 624.9,-197.04 631.9,-197.04"/>
</g>
<!-- TenantService  -->
<g id="node9" class="node">
<title>TenantService </title>
<polygon fill="#fb8072" stroke="black" points="662.35,-252 561.65,-252 561.65,-216 662.35,-216 662.35,-252"/>
<text text-anchor="middle" x="612" y="-229.8" font-family="Times,serif" font-size="14.00">TenantService </text>
</g>
<!-- TenantModule&#45;&gt;TenantService  -->
<g id="edge10" class="edge">
<title>TenantModule&#45;&gt;TenantService </title>
<path fill="none" stroke="black" stroke-dasharray="5,2" d="M595.6,-187.11C595.6,-187.11 595.6,-205.99 595.6,-205.99"/>
<polygon fill="black" stroke="black" points="592.1,-205.99 595.6,-215.99 599.1,-205.99 592.1,-205.99"/>
</g>
<!-- TenantService -->
<g id="node10" class="node">
<title>TenantService</title>
<ellipse fill="#fdb462" stroke="black" cx="91" cy="-104" rx="66.61" ry="18"/>
<text text-anchor="middle" x="91" y="-99.8" font-family="Times,serif" font-size="14.00">TenantService</text>
</g>
<!-- TenantService&#45;&gt;TenantModule -->
<g id="edge11" class="edge">
<title>TenantService&#45;&gt;TenantModule</title>
<path fill="none" stroke="black" d="M91,-122.01C91,-144.49 91,-180 91,-180 91,-180 552.52,-180 552.52,-180"/>
<polygon fill="black" stroke="black" points="552.52,-183.5 562.52,-180 552.52,-176.5 552.52,-183.5"/>
</g>
</g>
</svg>
