<?xml version="1.0" encoding="UTF-8" standalone="no"?>
<!DOCTYPE svg PUBLIC "-//W3C//DTD SVG 1.1//EN"
 "http://www.w3.org/Graphics/SVG/1.1/DTD/svg11.dtd">
<!-- Generated by graphviz version 2.47.0 (20210316.0004)
 -->
<!-- Title: dependencies Pages: 1 -->
<svg width="769pt" height="284pt"
 viewBox="0.00 0.00 769.00 284.00" xmlns="http://www.w3.org/2000/svg" xmlns:xlink="http://www.w3.org/1999/xlink">
<g id="graph0" class="graph" transform="scale(1 1) rotate(0) translate(4 280)">
<title>dependencies</title>
<polygon fill="white" stroke="transparent" points="-4,4 -4,-280 765,-280 765,4 -4,4"/>
<text text-anchor="start" x="359.51" y="-42.4" font-family="Times-12" font-weight="bold" font-size="14.00">Legend</text>
<polygon fill="#ffffb3" stroke="transparent" points="146.5,-10 146.5,-30 166.5,-30 166.5,-10 146.5,-10"/>
<text text-anchor="start" x="170.13" y="-15.4" font-family="Times-12" font-size="14.00"> &#160;Declarations</text>
<polygon fill="#8dd3c7" stroke="transparent" points="259.5,-10 259.5,-30 279.5,-30 279.5,-10 259.5,-10"/>
<text text-anchor="start" x="283.23" y="-15.4" font-family="Times-12" font-size="14.00"> &#160;Module</text>
<polygon fill="#80b1d3" stroke="transparent" points="345.5,-10 345.5,-30 365.5,-30 365.5,-10 345.5,-10"/>
<text text-anchor="start" x="369.28" y="-15.4" font-family="Times-12" font-size="14.00"> &#160;Bootstrap</text>
<polygon fill="#fdb462" stroke="transparent" points="442.5,-10 442.5,-30 462.5,-30 462.5,-10 442.5,-10"/>
<text text-anchor="start" x="466.17" y="-15.4" font-family="Times-12" font-size="14.00"> &#160;Providers</text>
<polygon fill="#fb8072" stroke="transparent" points="538.5,-10 538.5,-30 558.5,-30 558.5,-10 538.5,-10"/>
<text text-anchor="start" x="562.23" y="-15.4" font-family="Times-12" font-size="14.00"> &#160;Exports</text>
<g id="clust1" class="cluster">
<title>cluster_AuthModule</title>
<polygon fill="none" stroke="black" stroke-dasharray="1,5" points="8,-70 8,-268 753,-268 753,-70 8,-70"/>
</g>
<g id="clust4" class="cluster">
<title>cluster_AuthModule_exports</title>
<polygon fill="none" stroke="black" points="302,-208 302,-260 502,-260 502,-208 302,-208"/>
</g>
<g id="clust3" class="cluster">
<title>cluster_AuthModule_imports</title>
<polygon fill="none" stroke="black" points="415,-78 415,-130 745,-130 745,-78 415,-78"/>
</g>
<g id="clust6" class="cluster">
<title>cluster_AuthModule_providers</title>
<polygon fill="none" stroke="black" points="16,-78 16,-130 407,-130 407,-78 16,-78"/>
</g>
<!-- ClientModule -->
<g id="node1" class="node">
<title>ClientModule</title>
<polygon fill="#8dd3c7" stroke="black" points="736.77,-122 733.77,-126 712.77,-126 709.77,-122 643.23,-122 643.23,-86 736.77,-86 736.77,-122"/>
<text text-anchor="middle" x="690" y="-99.8" font-family="Times,serif" font-size="14.00">ClientModule</text>
</g>
<!-- AuthModule -->
<g id="node4" class="node">
<title>AuthModule</title>
<polygon fill="#8dd3c7" stroke="black" points="446.55,-187 443.55,-191 422.55,-191 419.55,-187 359.45,-187 359.45,-151 446.55,-151 446.55,-187"/>
<text text-anchor="middle" x="403" y="-164.8" font-family="Times,serif" font-size="14.00">AuthModule</text>
</g>
<!-- ClientModule&#45;&gt;AuthModule -->
<g id="edge1" class="edge">
<title>ClientModule&#45;&gt;AuthModule</title>
<path fill="none" stroke="black" d="M690,-122.28C690,-143.32 690,-175 690,-175 690,-175 456.59,-175 456.59,-175"/>
<polygon fill="black" stroke="black" points="456.59,-171.5 446.59,-175 456.59,-178.5 456.59,-171.5"/>
</g>
<!-- TenantModule -->
<g id="node2" class="node">
<title>TenantModule</title>
<polygon fill="#8dd3c7" stroke="black" points="625.42,-122 622.42,-126 601.42,-126 598.42,-122 526.58,-122 526.58,-86 625.42,-86 625.42,-122"/>
<text text-anchor="middle" x="576" y="-99.8" font-family="Times,serif" font-size="14.00">TenantModule</text>
</g>
<!-- TenantModule&#45;&gt;AuthModule -->
<g id="edge2" class="edge">
<title>TenantModule&#45;&gt;AuthModule</title>
<path fill="none" stroke="black" d="M576,-122.02C576,-139.37 576,-163 576,-163 576,-163 456.66,-163 456.66,-163"/>
<polygon fill="black" stroke="black" points="456.66,-159.5 446.66,-163 456.66,-166.5 456.66,-159.5"/>
</g>
<!-- UserModule -->
<g id="node3" class="node">
<title>UserModule</title>
<polygon fill="#8dd3c7" stroke="black" points="508.98,-122 505.98,-126 484.98,-126 481.98,-122 423.02,-122 423.02,-86 508.98,-86 508.98,-122"/>
<text text-anchor="middle" x="466" y="-99.8" font-family="Times,serif" font-size="14.00">UserModule</text>
</g>
<!-- UserModule&#45;&gt;AuthModule -->
<g id="edge3" class="edge">
<title>UserModule&#45;&gt;AuthModule</title>
<path fill="none" stroke="black" d="M434.89,-122.11C434.89,-122.11 434.89,-140.99 434.89,-140.99"/>
<polygon fill="black" stroke="black" points="431.39,-140.99 434.89,-150.99 438.39,-140.99 431.39,-140.99"/>
</g>
<!-- JwtService  -->
<g id="node5" class="node">
<title>JwtService </title>
<polygon fill="#fb8072" stroke="black" points="494.42,-252 413.58,-252 413.58,-216 494.42,-216 494.42,-252"/>
<text text-anchor="middle" x="454" y="-229.8" font-family="Times,serif" font-size="14.00">JwtService </text>
</g>
<!-- AuthModule&#45;&gt;JwtService  -->
<g id="edge4" class="edge">
<title>AuthModule&#45;&gt;JwtService </title>
<path fill="none" stroke="black" stroke-dasharray="5,2" d="M430.16,-187.11C430.16,-187.11 430.16,-205.99 430.16,-205.99"/>
<polygon fill="black" stroke="black" points="426.66,-205.99 430.16,-215.99 433.66,-205.99 426.66,-205.99"/>
</g>
<!-- JwtStrategy  -->
<g id="node6" class="node">
<title>JwtStrategy </title>
<polygon fill="#fb8072" stroke="black" points="395.6,-252 310.4,-252 310.4,-216 395.6,-216 395.6,-252"/>
<text text-anchor="middle" x="353" y="-229.8" font-family="Times,serif" font-size="14.00">JwtStrategy </text>
</g>
<!-- AuthModule&#45;&gt;JwtStrategy  -->
<g id="edge5" class="edge">
<title>AuthModule&#45;&gt;JwtStrategy </title>
<path fill="none" stroke="black" stroke-dasharray="5,2" d="M377.51,-187.11C377.51,-187.11 377.51,-205.99 377.51,-205.99"/>
<polygon fill="black" stroke="black" points="374.01,-205.99 377.51,-215.99 381.01,-205.99 374.01,-205.99"/>
</g>
<!-- AuthService -->
<g id="node7" class="node">
<title>AuthService</title>
<ellipse fill="#fdb462" stroke="black" cx="340" cy="-104" rx="59.11" ry="18"/>
<text text-anchor="middle" x="340" y="-99.8" font-family="Times,serif" font-size="14.00">AuthService</text>
</g>
<!-- AuthService&#45;&gt;AuthModule -->
<g id="edge6" class="edge">
<title>AuthService&#45;&gt;AuthModule</title>
<path fill="none" stroke="black" d="M379.27,-117.78C379.27,-117.78 379.27,-140.55 379.27,-140.55"/>
<polygon fill="black" stroke="black" points="375.77,-140.55 379.27,-150.55 382.77,-140.55 375.77,-140.55"/>
</g>
<!-- JwtService -->
<g id="node8" class="node">
<title>JwtService</title>
<ellipse fill="#fdb462" stroke="black" cx="209" cy="-104" rx="53.31" ry="18"/>
<text text-anchor="middle" x="209" y="-99.8" font-family="Times,serif" font-size="14.00">JwtService</text>
</g>
<!-- JwtService&#45;&gt;AuthModule -->
<g id="edge7" class="edge">
<title>JwtService&#45;&gt;AuthModule</title>
<path fill="none" stroke="black" d="M209,-122.02C209,-139.37 209,-163 209,-163 209,-163 348.98,-163 348.98,-163"/>
<polygon fill="black" stroke="black" points="348.98,-166.5 358.98,-163 348.98,-159.5 348.98,-166.5"/>
</g>
<!-- JwtStrategy -->
<g id="node9" class="node">
<title>JwtStrategy</title>
<ellipse fill="#fdb462" stroke="black" cx="81" cy="-104" rx="56.76" ry="18"/>
<text text-anchor="middle" x="81" y="-99.8" font-family="Times,serif" font-size="14.00">JwtStrategy</text>
</g>
<!-- JwtStrategy&#45;&gt;AuthModule -->
<g id="edge8" class="edge">
<title>JwtStrategy&#45;&gt;AuthModule</title>
<path fill="none" stroke="black" d="M81,-122.28C81,-143.32 81,-175 81,-175 81,-175 349.24,-175 349.24,-175"/>
<polygon fill="black" stroke="black" points="349.24,-178.5 359.24,-175 349.24,-171.5 349.24,-178.5"/>
</g>
</g>
</svg>
