<?xml version="1.0" encoding="UTF-8" standalone="no"?>
<!DOCTYPE svg PUBLIC "-//W3C//DTD SVG 1.1//EN"
 "http://www.w3.org/Graphics/SVG/1.1/DTD/svg11.dtd">
<!-- Generated by graphviz version 2.47.0 (20210316.0004)
 -->
<!-- Title: dependencies Pages: 1 -->
<svg width="1216pt" height="284pt"
 viewBox="0.00 0.00 1216.00 284.00" xmlns="http://www.w3.org/2000/svg" xmlns:xlink="http://www.w3.org/1999/xlink">
<g id="graph0" class="graph" transform="scale(1 1) rotate(0) translate(4 280)">
<title>dependencies</title>
<polygon fill="white" stroke="transparent" points="-4,4 -4,-280 1212,-280 1212,4 -4,4"/>
<text text-anchor="start" x="583.01" y="-42.4" font-family="Times-12" font-weight="bold" font-size="14.00">Legend</text>
<polygon fill="#ffffb3" stroke="transparent" points="370,-10 370,-30 390,-30 390,-10 370,-10"/>
<text text-anchor="start" x="393.63" y="-15.4" font-family="Times-12" font-size="14.00"> &#160;Declarations</text>
<polygon fill="#8dd3c7" stroke="transparent" points="483,-10 483,-30 503,-30 503,-10 483,-10"/>
<text text-anchor="start" x="506.73" y="-15.4" font-family="Times-12" font-size="14.00"> &#160;Module</text>
<polygon fill="#80b1d3" stroke="transparent" points="569,-10 569,-30 589,-30 589,-10 569,-10"/>
<text text-anchor="start" x="592.78" y="-15.4" font-family="Times-12" font-size="14.00"> &#160;Bootstrap</text>
<polygon fill="#fdb462" stroke="transparent" points="666,-10 666,-30 686,-30 686,-10 666,-10"/>
<text text-anchor="start" x="689.67" y="-15.4" font-family="Times-12" font-size="14.00"> &#160;Providers</text>
<polygon fill="#fb8072" stroke="transparent" points="762,-10 762,-30 782,-30 782,-10 762,-10"/>
<text text-anchor="start" x="785.73" y="-15.4" font-family="Times-12" font-size="14.00"> &#160;Exports</text>
<g id="clust1" class="cluster">
<title>cluster_AuthModule</title>
<polygon fill="none" stroke="black" stroke-dasharray="1,5" points="8,-70 8,-268 1200,-268 1200,-70 8,-70"/>
</g>
<g id="clust3" class="cluster">
<title>cluster_AuthModule_imports</title>
<polygon fill="none" stroke="black" points="583,-78 583,-130 1192,-130 1192,-78 583,-78"/>
</g>
<g id="clust6" class="cluster">
<title>cluster_AuthModule_providers</title>
<polygon fill="none" stroke="black" points="16,-78 16,-130 575,-130 575,-78 16,-78"/>
</g>
<g id="clust4" class="cluster">
<title>cluster_AuthModule_exports</title>
<polygon fill="none" stroke="black" points="497,-208 497,-260 817,-260 817,-208 497,-208"/>
</g>
<!-- CryptoModule -->
<g id="node1" class="node">
<title>CryptoModule</title>
<polygon fill="#8dd3c7" stroke="black" points="1184.44,-122 1181.44,-126 1160.44,-126 1157.44,-122 1085.56,-122 1085.56,-86 1184.44,-86 1184.44,-122"/>
<text text-anchor="middle" x="1135" y="-99.8" font-family="Times,serif" font-size="14.00">CryptoModule</text>
</g>
<!-- AuthModule -->
<g id="node6" class="node">
<title>AuthModule</title>
<polygon fill="#8dd3c7" stroke="black" points="692.55,-187 689.55,-191 668.55,-191 665.55,-187 605.45,-187 605.45,-151 692.55,-151 692.55,-187"/>
<text text-anchor="middle" x="649" y="-164.8" font-family="Times,serif" font-size="14.00">AuthModule</text>
</g>
<!-- CryptoModule&#45;&gt;AuthModule -->
<g id="edge1" class="edge">
<title>CryptoModule&#45;&gt;AuthModule</title>
<path fill="none" stroke="black" d="M1135,-122.28C1135,-143.32 1135,-175 1135,-175 1135,-175 702.56,-175 702.56,-175"/>
<polygon fill="black" stroke="black" points="702.56,-171.5 692.56,-175 702.56,-178.5 702.56,-171.5"/>
</g>
<!-- IssuerModule -->
<g id="node2" class="node">
<title>IssuerModule</title>
<polygon fill="#8dd3c7" stroke="black" points="1067.47,-122 1064.47,-126 1043.47,-126 1040.47,-122 974.53,-122 974.53,-86 1067.47,-86 1067.47,-122"/>
<text text-anchor="middle" x="1021" y="-99.8" font-family="Times,serif" font-size="14.00">IssuerModule</text>
</g>
<!-- IssuerModule&#45;&gt;AuthModule -->
<g id="edge2" class="edge">
<title>IssuerModule&#45;&gt;AuthModule</title>
<path fill="none" stroke="black" d="M1021,-122.11C1021,-141.34 1021,-169 1021,-169 1021,-169 702.77,-169 702.77,-169"/>
<polygon fill="black" stroke="black" points="702.77,-165.5 692.77,-169 702.77,-172.5 702.77,-165.5"/>
</g>
<!-- RegistrarModule -->
<g id="node3" class="node">
<title>RegistrarModule</title>
<polygon fill="#8dd3c7" stroke="black" points="956.36,-122 953.36,-126 932.36,-126 929.36,-122 845.64,-122 845.64,-86 956.36,-86 956.36,-122"/>
<text text-anchor="middle" x="901" y="-99.8" font-family="Times,serif" font-size="14.00">RegistrarModule</text>
</g>
<!-- RegistrarModule&#45;&gt;AuthModule -->
<g id="edge3" class="edge">
<title>RegistrarModule&#45;&gt;AuthModule</title>
<path fill="none" stroke="black" d="M901,-122.02C901,-139.37 901,-163 901,-163 901,-163 702.61,-163 702.61,-163"/>
<polygon fill="black" stroke="black" points="702.61,-159.5 692.61,-163 702.61,-166.5 702.61,-159.5"/>
</g>
<!-- SessionModule -->
<g id="node4" class="node">
<title>SessionModule</title>
<polygon fill="#8dd3c7" stroke="black" points="827.33,-122 824.33,-126 803.33,-126 800.33,-122 724.67,-122 724.67,-86 827.33,-86 827.33,-122"/>
<text text-anchor="middle" x="776" y="-99.8" font-family="Times,serif" font-size="14.00">SessionModule</text>
</g>
<!-- SessionModule&#45;&gt;AuthModule -->
<g id="edge4" class="edge">
<title>SessionModule&#45;&gt;AuthModule</title>
<path fill="none" stroke="black" d="M766.9,-122.24C766.9,-137.57 766.9,-157 766.9,-157 766.9,-157 702.57,-157 702.57,-157"/>
<polygon fill="black" stroke="black" points="702.57,-153.5 692.57,-157 702.57,-160.5 702.57,-153.5"/>
</g>
<!-- StatusListModule -->
<g id="node5" class="node">
<title>StatusListModule</title>
<polygon fill="#8dd3c7" stroke="black" points="706.55,-122 703.55,-126 682.55,-126 679.55,-122 591.45,-122 591.45,-86 706.55,-86 706.55,-122"/>
<text text-anchor="middle" x="649" y="-99.8" font-family="Times,serif" font-size="14.00">StatusListModule</text>
</g>
<!-- StatusListModule&#45;&gt;AuthModule -->
<g id="edge5" class="edge">
<title>StatusListModule&#45;&gt;AuthModule</title>
<path fill="none" stroke="black" d="M649,-122.11C649,-122.11 649,-140.99 649,-140.99"/>
<polygon fill="black" stroke="black" points="645.5,-140.99 649,-150.99 652.5,-140.99 645.5,-140.99"/>
</g>
<!-- JwtAuthGuard  -->
<g id="node7" class="node">
<title>JwtAuthGuard </title>
<polygon fill="#fb8072" stroke="black" points="808.92,-252 707.08,-252 707.08,-216 808.92,-216 808.92,-252"/>
<text text-anchor="middle" x="758" y="-229.8" font-family="Times,serif" font-size="14.00">JwtAuthGuard </text>
</g>
<!-- AuthModule&#45;&gt;JwtAuthGuard  -->
<g id="edge6" class="edge">
<title>AuthModule&#45;&gt;JwtAuthGuard </title>
<path fill="none" stroke="black" stroke-dasharray="5,2" d="M692.9,-181C705.52,-181 715.94,-181 715.94,-181 715.94,-181 715.94,-205.76 715.94,-205.76"/>
<polygon fill="black" stroke="black" points="712.44,-205.76 715.94,-215.76 719.44,-205.76 712.44,-205.76"/>
</g>
<!-- JwtService  -->
<g id="node8" class="node">
<title>JwtService </title>
<polygon fill="#fb8072" stroke="black" points="689.42,-252 608.58,-252 608.58,-216 689.42,-216 689.42,-252"/>
<text text-anchor="middle" x="649" y="-229.8" font-family="Times,serif" font-size="14.00">JwtService </text>
</g>
<!-- AuthModule&#45;&gt;JwtService  -->
<g id="edge7" class="edge">
<title>AuthModule&#45;&gt;JwtService </title>
<path fill="none" stroke="black" stroke-dasharray="5,2" d="M649,-187.11C649,-187.11 649,-205.99 649,-205.99"/>
<polygon fill="black" stroke="black" points="645.5,-205.99 649,-215.99 652.5,-205.99 645.5,-205.99"/>
</g>
<!-- JwtStrategy  -->
<g id="node9" class="node">
<title>JwtStrategy </title>
<polygon fill="#fb8072" stroke="black" points="590.6,-252 505.4,-252 505.4,-216 590.6,-216 590.6,-252"/>
<text text-anchor="middle" x="548" y="-229.8" font-family="Times,serif" font-size="14.00">JwtStrategy </text>
</g>
<!-- AuthModule&#45;&gt;JwtStrategy  -->
<g id="edge8" class="edge">
<title>AuthModule&#45;&gt;JwtStrategy </title>
<path fill="none" stroke="black" stroke-dasharray="5,2" d="M605.37,-181C591.1,-181 578.84,-181 578.84,-181 578.84,-181 578.84,-205.76 578.84,-205.76"/>
<polygon fill="black" stroke="black" points="575.34,-205.76 578.84,-215.76 582.34,-205.76 575.34,-205.76"/>
</g>
<!-- JwtAuthGuard -->
<g id="node10" class="node">
<title>JwtAuthGuard</title>
<ellipse fill="#fdb462" stroke="black" cx="499" cy="-104" rx="67.78" ry="18"/>
<text text-anchor="middle" x="499" y="-99.8" font-family="Times,serif" font-size="14.00">JwtAuthGuard</text>
</g>
<!-- JwtAuthGuard&#45;&gt;AuthModule -->
<g id="edge9" class="edge">
<title>JwtAuthGuard&#45;&gt;AuthModule</title>
<path fill="none" stroke="black" d="M536.05,-119.33C536.05,-134.98 536.05,-157 536.05,-157 536.05,-157 595.33,-157 595.33,-157"/>
<polygon fill="black" stroke="black" points="595.33,-160.5 605.33,-157 595.33,-153.5 595.33,-160.5"/>
</g>
<!-- JwtService -->
<g id="node11" class="node">
<title>JwtService</title>
<ellipse fill="#fdb462" stroke="black" cx="360" cy="-104" rx="53.31" ry="18"/>
<text text-anchor="middle" x="360" y="-99.8" font-family="Times,serif" font-size="14.00">JwtService</text>
</g>
<!-- JwtService&#45;&gt;AuthModule -->
<g id="edge10" class="edge">
<title>JwtService&#45;&gt;AuthModule</title>
<path fill="none" stroke="black" d="M360,-122.02C360,-139.37 360,-163 360,-163 360,-163 595.42,-163 595.42,-163"/>
<polygon fill="black" stroke="black" points="595.42,-166.5 605.42,-163 595.42,-159.5 595.42,-166.5"/>
</g>
<!-- JwtStrategy -->
<g id="node12" class="node">
<title>JwtStrategy</title>
<ellipse fill="#fdb462" stroke="black" cx="232" cy="-104" rx="56.76" ry="18"/>
<text text-anchor="middle" x="232" y="-99.8" font-family="Times,serif" font-size="14.00">JwtStrategy</text>
</g>
<!-- JwtStrategy&#45;&gt;AuthModule -->
<g id="edge11" class="edge">
<title>JwtStrategy&#45;&gt;AuthModule</title>
<path fill="none" stroke="black" d="M232,-122.11C232,-141.34 232,-169 232,-169 232,-169 595.16,-169 595.16,-169"/>
<polygon fill="black" stroke="black" points="595.16,-172.5 605.16,-169 595.16,-165.5 595.16,-172.5"/>
</g>
<!-- TenantService -->
<g id="node13" class="node">
<title>TenantService</title>
<ellipse fill="#fdb462" stroke="black" cx="91" cy="-104" rx="66.61" ry="18"/>
<text text-anchor="middle" x="91" y="-99.8" font-family="Times,serif" font-size="14.00">TenantService</text>
</g>
<!-- TenantService&#45;&gt;AuthModule -->
<g id="edge12" class="edge">
<title>TenantService&#45;&gt;AuthModule</title>
<path fill="none" stroke="black" d="M91,-122.28C91,-143.32 91,-175 91,-175 91,-175 595.21,-175 595.21,-175"/>
<polygon fill="black" stroke="black" points="595.21,-178.5 605.21,-175 595.21,-171.5 595.21,-178.5"/>
</g>
</g>
</svg>
