<?xml version="1.0" encoding="UTF-8" standalone="no"?>
<!DOCTYPE svg PUBLIC "-//W3C//DTD SVG 1.1//EN"
 "http://www.w3.org/Graphics/SVG/1.1/DTD/svg11.dtd">
<!-- Generated by graphviz version 2.47.0 (20210316.0004)
 -->
<!-- Title: dependencies Pages: 1 -->
<svg width="1344pt" height="284pt"
 viewBox="0.00 0.00 1344.00 284.00" xmlns="http://www.w3.org/2000/svg" xmlns:xlink="http://www.w3.org/1999/xlink">
<g id="graph0" class="graph" transform="scale(1 1) rotate(0) translate(4 280)">
<title>dependencies</title>
<polygon fill="white" stroke="transparent" points="-4,4 -4,-280 1340,-280 1340,4 -4,4"/>
<text text-anchor="start" x="647.01" y="-42.4" font-family="Times-12" font-weight="bold" font-size="14.00">Legend</text>
<polygon fill="#ffffb3" stroke="transparent" points="434,-10 434,-30 454,-30 454,-10 434,-10"/>
<text text-anchor="start" x="457.63" y="-15.4" font-family="Times-12" font-size="14.00"> &#160;Declarations</text>
<polygon fill="#8dd3c7" stroke="transparent" points="547,-10 547,-30 567,-30 567,-10 547,-10"/>
<text text-anchor="start" x="570.73" y="-15.4" font-family="Times-12" font-size="14.00"> &#160;Module</text>
<polygon fill="#80b1d3" stroke="transparent" points="633,-10 633,-30 653,-30 653,-10 633,-10"/>
<text text-anchor="start" x="656.78" y="-15.4" font-family="Times-12" font-size="14.00"> &#160;Bootstrap</text>
<polygon fill="#fdb462" stroke="transparent" points="730,-10 730,-30 750,-30 750,-10 730,-10"/>
<text text-anchor="start" x="753.67" y="-15.4" font-family="Times-12" font-size="14.00"> &#160;Providers</text>
<polygon fill="#fb8072" stroke="transparent" points="826,-10 826,-30 846,-30 846,-10 826,-10"/>
<text text-anchor="start" x="849.73" y="-15.4" font-family="Times-12" font-size="14.00"> &#160;Exports</text>
<g id="clust1" class="cluster">
<title>cluster_Oid4vpModule</title>
<polygon fill="none" stroke="black" stroke-dasharray="1,5" points="8,-70 8,-268 1328,-268 1328,-70 8,-70"/>
</g>
<g id="clust3" class="cluster">
<title>cluster_Oid4vpModule_imports</title>
<polygon fill="none" stroke="black" points="804,-78 804,-130 1320,-130 1320,-78 804,-78"/>
</g>
<g id="clust4" class="cluster">
<title>cluster_Oid4vpModule_exports</title>
<polygon fill="none" stroke="black" points="731,-208 731,-260 851,-260 851,-208 731,-208"/>
</g>
<g id="clust6" class="cluster">
<title>cluster_Oid4vpModule_providers</title>
<polygon fill="none" stroke="black" points="16,-78 16,-130 796,-130 796,-78 16,-78"/>
</g>
<!-- CryptoModule -->
<g id="node1" class="node">
<title>CryptoModule</title>
<polygon fill="#8dd3c7" stroke="black" points="1312.44,-122 1309.44,-126 1288.44,-126 1285.44,-122 1213.56,-122 1213.56,-86 1312.44,-86 1312.44,-122"/>
<text text-anchor="middle" x="1263" y="-99.8" font-family="Times,serif" font-size="14.00">CryptoModule</text>
</g>
<!-- Oid4vpModule -->
<g id="node5" class="node">
<title>Oid4vpModule</title>
<polygon fill="#8dd3c7" stroke="black" points="841.55,-187 838.55,-191 817.55,-191 814.55,-187 740.45,-187 740.45,-151 841.55,-151 841.55,-187"/>
<text text-anchor="middle" x="791" y="-164.8" font-family="Times,serif" font-size="14.00">Oid4vpModule</text>
</g>
<!-- CryptoModule&#45;&gt;Oid4vpModule -->
<g id="edge1" class="edge">
<title>CryptoModule&#45;&gt;Oid4vpModule</title>
<path fill="none" stroke="black" d="M1263,-122.29C1263,-144.21 1263,-178 1263,-178 1263,-178 851.96,-178 851.96,-178"/>
<polygon fill="black" stroke="black" points="851.96,-174.5 841.96,-178 851.96,-181.5 851.96,-174.5"/>
</g>
<!-- PresentationsModule -->
<g id="node2" class="node">
<title>PresentationsModule</title>
<polygon fill="#8dd3c7" stroke="black" points="1196.2,-122 1193.2,-126 1172.2,-126 1169.2,-122 1061.8,-122 1061.8,-86 1196.2,-86 1196.2,-122"/>
<text text-anchor="middle" x="1129" y="-99.8" font-family="Times,serif" font-size="14.00">PresentationsModule</text>
</g>
<!-- PresentationsModule&#45;&gt;Oid4vpModule -->
<g id="edge2" class="edge">
<title>PresentationsModule&#45;&gt;Oid4vpModule</title>
<path fill="none" stroke="black" d="M1129,-122.11C1129,-141.34 1129,-169 1129,-169 1129,-169 851.6,-169 851.6,-169"/>
<polygon fill="black" stroke="black" points="851.6,-165.5 841.6,-169 851.6,-172.5 851.6,-165.5"/>
</g>
<!-- RegistrarModule -->
<g id="node3" class="node">
<title>RegistrarModule</title>
<polygon fill="#8dd3c7" stroke="black" points="1043.36,-122 1040.36,-126 1019.36,-126 1016.36,-122 932.64,-122 932.64,-86 1043.36,-86 1043.36,-122"/>
<text text-anchor="middle" x="988" y="-99.8" font-family="Times,serif" font-size="14.00">RegistrarModule</text>
</g>
<!-- RegistrarModule&#45;&gt;Oid4vpModule -->
<g id="edge3" class="edge">
<title>RegistrarModule&#45;&gt;Oid4vpModule</title>
<path fill="none" stroke="black" d="M988,-122.03C988,-138.4 988,-160 988,-160 988,-160 851.73,-160 851.73,-160"/>
<polygon fill="black" stroke="black" points="851.73,-156.5 841.73,-160 851.73,-163.5 851.73,-156.5"/>
</g>
<!-- SessionModule -->
<g id="node4" class="node">
<title>SessionModule</title>
<polygon fill="#8dd3c7" stroke="black" points="914.33,-122 911.33,-126 890.33,-126 887.33,-122 811.67,-122 811.67,-86 914.33,-86 914.33,-122"/>
<text text-anchor="middle" x="863" y="-99.8" font-family="Times,serif" font-size="14.00">SessionModule</text>
</g>
<!-- SessionModule&#45;&gt;Oid4vpModule -->
<g id="edge4" class="edge">
<title>SessionModule&#45;&gt;Oid4vpModule</title>
<path fill="none" stroke="black" d="M826.81,-122.11C826.81,-122.11 826.81,-140.99 826.81,-140.99"/>
<polygon fill="black" stroke="black" points="823.31,-140.99 826.81,-150.99 830.31,-140.99 823.31,-140.99"/>
</g>
<!-- Oid4vpService  -->
<g id="node6" class="node">
<title>Oid4vpService </title>
<polygon fill="#fb8072" stroke="black" points="842.98,-252 739.02,-252 739.02,-216 842.98,-216 842.98,-252"/>
<text text-anchor="middle" x="791" y="-229.8" font-family="Times,serif" font-size="14.00">Oid4vpService </text>
</g>
<!-- Oid4vpModule&#45;&gt;Oid4vpService  -->
<g id="edge5" class="edge">
<title>Oid4vpModule&#45;&gt;Oid4vpService </title>
<path fill="none" stroke="black" stroke-dasharray="5,2" d="M791,-187.11C791,-187.11 791,-205.99 791,-205.99"/>
<polygon fill="black" stroke="black" points="787.5,-205.99 791,-215.99 794.5,-205.99 787.5,-205.99"/>
</g>
<!-- Oid4vpService -->
<g id="node7" class="node">
<title>Oid4vpService</title>
<ellipse fill="#fdb462" stroke="black" cx="719" cy="-104" rx="68.92" ry="18"/>
<text text-anchor="middle" x="719" y="-99.8" font-family="Times,serif" font-size="14.00">Oid4vpService</text>
</g>
<!-- Oid4vpService&#45;&gt;Oid4vpModule -->
<g id="edge6" class="edge">
<title>Oid4vpService&#45;&gt;Oid4vpModule</title>
<path fill="none" stroke="black" d="M764.09,-117.78C764.09,-117.78 764.09,-140.55 764.09,-140.55"/>
<polygon fill="black" stroke="black" points="760.59,-140.55 764.09,-150.55 767.59,-140.55 760.59,-140.55"/>
</g>
<!-- SessionLoggerInterceptor -->
<g id="node8" class="node">
<title>SessionLoggerInterceptor</title>
<ellipse fill="#fdb462" stroke="black" cx="521" cy="-104" rx="110.57" ry="18"/>
<text text-anchor="middle" x="521" y="-99.8" font-family="Times,serif" font-size="14.00">SessionLoggerInterceptor</text>
</g>
<!-- SessionLoggerInterceptor&#45;&gt;Oid4vpModule -->
<g id="edge7" class="edge">
<title>SessionLoggerInterceptor&#45;&gt;Oid4vpModule</title>
<path fill="none" stroke="black" d="M521,-122.03C521,-138.4 521,-160 521,-160 521,-160 730.22,-160 730.22,-160"/>
<polygon fill="black" stroke="black" points="730.22,-163.5 740.22,-160 730.22,-156.5 730.22,-163.5"/>
</g>
<!-- SessionLoggerService -->
<g id="node9" class="node">
<title>SessionLoggerService</title>
<ellipse fill="#fdb462" stroke="black" cx="295" cy="-104" rx="97.27" ry="18"/>
<text text-anchor="middle" x="295" y="-99.8" font-family="Times,serif" font-size="14.00">SessionLoggerService</text>
</g>
<!-- SessionLoggerService&#45;&gt;Oid4vpModule -->
<g id="edge8" class="edge">
<title>SessionLoggerService&#45;&gt;Oid4vpModule</title>
<path fill="none" stroke="black" d="M295,-122.11C295,-141.34 295,-169 295,-169 295,-169 730.25,-169 730.25,-169"/>
<polygon fill="black" stroke="black" points="730.25,-172.5 740.25,-169 730.25,-165.5 730.25,-172.5"/>
</g>
<!-- WebhookService -->
<g id="node10" class="node">
<title>WebhookService</title>
<ellipse fill="#fdb462" stroke="black" cx="102" cy="-104" rx="77.57" ry="18"/>
<text text-anchor="middle" x="102" y="-99.8" font-family="Times,serif" font-size="14.00">WebhookService</text>
</g>
<!-- WebhookService&#45;&gt;Oid4vpModule -->
<g id="edge9" class="edge">
<title>WebhookService&#45;&gt;Oid4vpModule</title>
<path fill="none" stroke="black" d="M102,-122.29C102,-144.21 102,-178 102,-178 102,-178 730.34,-178 730.34,-178"/>
<polygon fill="black" stroke="black" points="730.34,-181.5 740.34,-178 730.34,-174.5 730.34,-181.5"/>
</g>
</g>
</svg>
