<?xml version="1.0" encoding="UTF-8" standalone="no"?>
<!DOCTYPE svg PUBLIC "-//W3C//DTD SVG 1.1//EN"
 "http://www.w3.org/Graphics/SVG/1.1/DTD/svg11.dtd">
<!-- Generated by graphviz version 2.47.0 (20210316.0004)
 -->
<!-- Title: dependencies Pages: 1 -->
<svg width="891pt" height="284pt"
 viewBox="0.00 0.00 891.00 284.00" xmlns="http://www.w3.org/2000/svg" xmlns:xlink="http://www.w3.org/1999/xlink">
<g id="graph0" class="graph" transform="scale(1 1) rotate(0) translate(4 280)">
<title>dependencies</title>
<polygon fill="white" stroke="transparent" points="-4,4 -4,-280 887,-280 887,4 -4,4"/>
<text text-anchor="start" x="420.51" y="-42.4" font-family="Times-12" font-weight="bold" font-size="14.00">Legend</text>
<polygon fill="#ffffb3" stroke="transparent" points="207.5,-10 207.5,-30 227.5,-30 227.5,-10 207.5,-10"/>
<text text-anchor="start" x="231.13" y="-15.4" font-family="Times-12" font-size="14.00"> &#160;Declarations</text>
<polygon fill="#8dd3c7" stroke="transparent" points="320.5,-10 320.5,-30 340.5,-30 340.5,-10 320.5,-10"/>
<text text-anchor="start" x="344.23" y="-15.4" font-family="Times-12" font-size="14.00"> &#160;Module</text>
<polygon fill="#80b1d3" stroke="transparent" points="406.5,-10 406.5,-30 426.5,-30 426.5,-10 406.5,-10"/>
<text text-anchor="start" x="430.28" y="-15.4" font-family="Times-12" font-size="14.00"> &#160;Bootstrap</text>
<polygon fill="#fdb462" stroke="transparent" points="503.5,-10 503.5,-30 523.5,-30 523.5,-10 503.5,-10"/>
<text text-anchor="start" x="527.17" y="-15.4" font-family="Times-12" font-size="14.00"> &#160;Providers</text>
<polygon fill="#fb8072" stroke="transparent" points="599.5,-10 599.5,-30 619.5,-30 619.5,-10 599.5,-10"/>
<text text-anchor="start" x="623.23" y="-15.4" font-family="Times-12" font-size="14.00"> &#160;Exports</text>
<g id="clust1" class="cluster">
<title>cluster_Oid4vpModule</title>
<polygon fill="none" stroke="black" stroke-dasharray="1,5" points="8,-70 8,-268 875,-268 875,-70 8,-70"/>
</g>
<g id="clust3" class="cluster">
<title>cluster_Oid4vpModule_imports</title>
<polygon fill="none" stroke="black" points="351,-78 351,-130 867,-130 867,-78 351,-78"/>
</g>
<g id="clust4" class="cluster">
<title>cluster_Oid4vpModule_exports</title>
<polygon fill="none" stroke="black" points="412,-208 412,-260 532,-260 532,-208 412,-208"/>
</g>
<g id="clust6" class="cluster">
<title>cluster_Oid4vpModule_providers</title>
<polygon fill="none" stroke="black" points="16,-78 16,-130 343,-130 343,-78 16,-78"/>
</g>
<!-- CryptoModule -->
<g id="node1" class="node">
<title>CryptoModule</title>
<polygon fill="#8dd3c7" stroke="black" points="859.44,-122 856.44,-126 835.44,-126 832.44,-122 760.56,-122 760.56,-86 859.44,-86 859.44,-122"/>
<text text-anchor="middle" x="810" y="-99.8" font-family="Times,serif" font-size="14.00">CryptoModule</text>
</g>
<!-- Oid4vpModule -->
<g id="node5" class="node">
<title>Oid4vpModule</title>
<polygon fill="#8dd3c7" stroke="black" points="522.55,-187 519.55,-191 498.55,-191 495.55,-187 421.45,-187 421.45,-151 522.55,-151 522.55,-187"/>
<text text-anchor="middle" x="472" y="-164.8" font-family="Times,serif" font-size="14.00">Oid4vpModule</text>
</g>
<!-- CryptoModule&#45;&gt;Oid4vpModule -->
<g id="edge1" class="edge">
<title>CryptoModule&#45;&gt;Oid4vpModule</title>
<path fill="none" stroke="black" d="M810,-122.28C810,-143.32 810,-175 810,-175 810,-175 532.6,-175 532.6,-175"/>
<polygon fill="black" stroke="black" points="532.6,-171.5 522.6,-175 532.6,-178.5 532.6,-171.5"/>
</g>
<!-- PresentationsModule -->
<g id="node2" class="node">
<title>PresentationsModule</title>
<polygon fill="#8dd3c7" stroke="black" points="743.2,-122 740.2,-126 719.2,-126 716.2,-122 608.8,-122 608.8,-86 743.2,-86 743.2,-122"/>
<text text-anchor="middle" x="676" y="-99.8" font-family="Times,serif" font-size="14.00">PresentationsModule</text>
</g>
<!-- PresentationsModule&#45;&gt;Oid4vpModule -->
<g id="edge2" class="edge">
<title>PresentationsModule&#45;&gt;Oid4vpModule</title>
<path fill="none" stroke="black" d="M676,-122.02C676,-139.37 676,-163 676,-163 676,-163 532.69,-163 532.69,-163"/>
<polygon fill="black" stroke="black" points="532.69,-159.5 522.69,-163 532.69,-166.5 532.69,-159.5"/>
</g>
<!-- RegistrarModule -->
<g id="node3" class="node">
<title>RegistrarModule</title>
<polygon fill="#8dd3c7" stroke="black" points="590.36,-122 587.36,-126 566.36,-126 563.36,-122 479.64,-122 479.64,-86 590.36,-86 590.36,-122"/>
<text text-anchor="middle" x="535" y="-99.8" font-family="Times,serif" font-size="14.00">RegistrarModule</text>
</g>
<!-- RegistrarModule&#45;&gt;Oid4vpModule -->
<g id="edge3" class="edge">
<title>RegistrarModule&#45;&gt;Oid4vpModule</title>
<path fill="none" stroke="black" d="M501.17,-122.11C501.17,-122.11 501.17,-140.99 501.17,-140.99"/>
<polygon fill="black" stroke="black" points="497.67,-140.99 501.17,-150.99 504.67,-140.99 497.67,-140.99"/>
</g>
<!-- SessionModule -->
<g id="node4" class="node">
<title>SessionModule</title>
<polygon fill="#8dd3c7" stroke="black" points="461.33,-122 458.33,-126 437.33,-126 434.33,-122 358.67,-122 358.67,-86 461.33,-86 461.33,-122"/>
<text text-anchor="middle" x="410" y="-99.8" font-family="Times,serif" font-size="14.00">SessionModule</text>
</g>
<!-- SessionModule&#45;&gt;Oid4vpModule -->
<g id="edge4" class="edge">
<title>SessionModule&#45;&gt;Oid4vpModule</title>
<path fill="none" stroke="black" d="M441.19,-122.11C441.19,-122.11 441.19,-140.99 441.19,-140.99"/>
<polygon fill="black" stroke="black" points="437.7,-140.99 441.19,-150.99 444.7,-140.99 437.7,-140.99"/>
</g>
<!-- Oid4vpService  -->
<g id="node6" class="node">
<title>Oid4vpService </title>
<polygon fill="#fb8072" stroke="black" points="523.98,-252 420.02,-252 420.02,-216 523.98,-216 523.98,-252"/>
<text text-anchor="middle" x="472" y="-229.8" font-family="Times,serif" font-size="14.00">Oid4vpService </text>
</g>
<!-- Oid4vpModule&#45;&gt;Oid4vpService  -->
<g id="edge5" class="edge">
<title>Oid4vpModule&#45;&gt;Oid4vpService </title>
<path fill="none" stroke="black" stroke-dasharray="5,2" d="M472,-187.11C472,-187.11 472,-205.99 472,-205.99"/>
<polygon fill="black" stroke="black" points="468.5,-205.99 472,-215.99 475.5,-205.99 468.5,-205.99"/>
</g>
<!-- Oid4vpService -->
<g id="node7" class="node">
<title>Oid4vpService</title>
<ellipse fill="#fdb462" stroke="black" cx="266" cy="-104" rx="68.92" ry="18"/>
<text text-anchor="middle" x="266" y="-99.8" font-family="Times,serif" font-size="14.00">Oid4vpService</text>
</g>
<!-- Oid4vpService&#45;&gt;Oid4vpModule -->
<g id="edge6" class="edge">
<title>Oid4vpService&#45;&gt;Oid4vpModule</title>
<path fill="none" stroke="black" d="M266,-122.02C266,-139.37 266,-163 266,-163 266,-163 411.34,-163 411.34,-163"/>
<polygon fill="black" stroke="black" points="411.34,-166.5 421.34,-163 411.34,-159.5 411.34,-166.5"/>
</g>
<!-- WebhookService -->
<g id="node8" class="node">
<title>WebhookService</title>
<ellipse fill="#fdb462" stroke="black" cx="102" cy="-104" rx="77.57" ry="18"/>
<text text-anchor="middle" x="102" y="-99.8" font-family="Times,serif" font-size="14.00">WebhookService</text>
</g>
<!-- WebhookService&#45;&gt;Oid4vpModule -->
<g id="edge7" class="edge">
<title>WebhookService&#45;&gt;Oid4vpModule</title>
<path fill="none" stroke="black" d="M102,-122.28C102,-143.32 102,-175 102,-175 102,-175 411.33,-175 411.33,-175"/>
<polygon fill="black" stroke="black" points="411.33,-178.5 421.33,-175 411.33,-171.5 411.33,-178.5"/>
</g>
</g>
</svg>
