<?xml version="1.0" encoding="UTF-8" standalone="no"?>
<!DOCTYPE svg PUBLIC "-//W3C//DTD SVG 1.1//EN"
 "http://www.w3.org/Graphics/SVG/1.1/DTD/svg11.dtd">
<!-- Generated by graphviz version 2.47.0 (20210316.0004)
 -->
<!-- Title: dependencies Pages: 1 -->
<svg width="609pt" height="284pt"
 viewBox="0.00 0.00 609.00 284.00" xmlns="http://www.w3.org/2000/svg" xmlns:xlink="http://www.w3.org/1999/xlink">
<g id="graph0" class="graph" transform="scale(1 1) rotate(0) translate(4 280)">
<title>dependencies</title>
<polygon fill="white" stroke="transparent" points="-4,4 -4,-280 605,-280 605,4 -4,4"/>
<text text-anchor="start" x="279.51" y="-42.4" font-family="Times-12" font-weight="bold" font-size="14.00">Legend</text>
<polygon fill="#ffffb3" stroke="transparent" points="66.5,-10 66.5,-30 86.5,-30 86.5,-10 66.5,-10"/>
<text text-anchor="start" x="90.13" y="-15.4" font-family="Times-12" font-size="14.00"> &#160;Declarations</text>
<polygon fill="#8dd3c7" stroke="transparent" points="179.5,-10 179.5,-30 199.5,-30 199.5,-10 179.5,-10"/>
<text text-anchor="start" x="203.23" y="-15.4" font-family="Times-12" font-size="14.00"> &#160;Module</text>
<polygon fill="#80b1d3" stroke="transparent" points="265.5,-10 265.5,-30 285.5,-30 285.5,-10 265.5,-10"/>
<text text-anchor="start" x="289.28" y="-15.4" font-family="Times-12" font-size="14.00"> &#160;Bootstrap</text>
<polygon fill="#fdb462" stroke="transparent" points="362.5,-10 362.5,-30 382.5,-30 382.5,-10 362.5,-10"/>
<text text-anchor="start" x="386.17" y="-15.4" font-family="Times-12" font-size="14.00"> &#160;Providers</text>
<polygon fill="#fb8072" stroke="transparent" points="458.5,-10 458.5,-30 478.5,-30 478.5,-10 458.5,-10"/>
<text text-anchor="start" x="482.23" y="-15.4" font-family="Times-12" font-size="14.00"> &#160;Exports</text>
<g id="clust1" class="cluster">
<title>cluster_Oid4vpModule</title>
<polygon fill="none" stroke="black" stroke-dasharray="1,5" points="8,-70 8,-268 593,-268 593,-70 8,-70"/>
</g>
<g id="clust6" class="cluster">
<title>cluster_Oid4vpModule_providers</title>
<polygon fill="none" stroke="black" points="258,-78 258,-130 585,-130 585,-78 258,-78"/>
</g>
<g id="clust4" class="cluster">
<title>cluster_Oid4vpModule_exports</title>
<polygon fill="none" stroke="black" points="208,-208 208,-260 328,-260 328,-208 208,-208"/>
</g>
<g id="clust3" class="cluster">
<title>cluster_Oid4vpModule_imports</title>
<polygon fill="none" stroke="black" points="16,-78 16,-130 250,-130 250,-78 16,-78"/>
</g>
<!-- CryptoModule -->
<g id="node1" class="node">
<title>CryptoModule</title>
<polygon fill="#8dd3c7" stroke="black" points="242.44,-122 239.44,-126 218.44,-126 215.44,-122 143.56,-122 143.56,-86 242.44,-86 242.44,-122"/>
<text text-anchor="middle" x="193" y="-99.8" font-family="Times,serif" font-size="14.00">CryptoModule</text>
</g>
<!-- Oid4vpModule -->
<g id="node3" class="node">
<title>Oid4vpModule</title>
<polygon fill="#8dd3c7" stroke="black" points="318.55,-187 315.55,-191 294.55,-191 291.55,-187 217.45,-187 217.45,-151 318.55,-151 318.55,-187"/>
<text text-anchor="middle" x="268" y="-164.8" font-family="Times,serif" font-size="14.00">Oid4vpModule</text>
</g>
<!-- CryptoModule&#45;&gt;Oid4vpModule -->
<g id="edge1" class="edge">
<title>CryptoModule&#45;&gt;Oid4vpModule</title>
<path fill="none" stroke="black" d="M229.72,-122.11C229.72,-122.11 229.72,-140.99 229.72,-140.99"/>
<polygon fill="black" stroke="black" points="226.22,-140.99 229.72,-150.99 233.22,-140.99 226.22,-140.99"/>
</g>
<!-- SessionModule -->
<g id="node2" class="node">
<title>SessionModule</title>
<polygon fill="#8dd3c7" stroke="black" points="126.33,-122 123.33,-126 102.33,-126 99.33,-122 23.67,-122 23.67,-86 126.33,-86 126.33,-122"/>
<text text-anchor="middle" x="75" y="-99.8" font-family="Times,serif" font-size="14.00">SessionModule</text>
</g>
<!-- SessionModule&#45;&gt;Oid4vpModule -->
<g id="edge2" class="edge">
<title>SessionModule&#45;&gt;Oid4vpModule</title>
<path fill="none" stroke="black" d="M75,-122.11C75,-141.34 75,-169 75,-169 75,-169 207.29,-169 207.29,-169"/>
<polygon fill="black" stroke="black" points="207.29,-172.5 217.29,-169 207.29,-165.5 207.29,-172.5"/>
</g>
<!-- Oid4vpService  -->
<g id="node4" class="node">
<title>Oid4vpService </title>
<polygon fill="#fb8072" stroke="black" points="319.98,-252 216.02,-252 216.02,-216 319.98,-216 319.98,-252"/>
<text text-anchor="middle" x="268" y="-229.8" font-family="Times,serif" font-size="14.00">Oid4vpService </text>
</g>
<!-- Oid4vpModule&#45;&gt;Oid4vpService  -->
<g id="edge3" class="edge">
<title>Oid4vpModule&#45;&gt;Oid4vpService </title>
<path fill="none" stroke="black" stroke-dasharray="5,2" d="M268,-187.11C268,-187.11 268,-205.99 268,-205.99"/>
<polygon fill="black" stroke="black" points="264.5,-205.99 268,-215.99 271.5,-205.99 264.5,-205.99"/>
</g>
<!-- Oid4vpService -->
<g id="node5" class="node">
<title>Oid4vpService</title>
<ellipse fill="#fdb462" stroke="black" cx="508" cy="-104" rx="68.92" ry="18"/>
<text text-anchor="middle" x="508" y="-99.8" font-family="Times,serif" font-size="14.00">Oid4vpService</text>
</g>
<!-- Oid4vpService&#45;&gt;Oid4vpModule -->
<g id="edge4" class="edge">
<title>Oid4vpService&#45;&gt;Oid4vpModule</title>
<path fill="none" stroke="black" d="M508,-122.11C508,-141.34 508,-169 508,-169 508,-169 328.6,-169 328.6,-169"/>
<polygon fill="black" stroke="black" points="328.6,-165.5 318.6,-169 328.6,-172.5 328.6,-165.5"/>
</g>
<!-- WebhookService -->
<g id="node6" class="node">
<title>WebhookService</title>
<ellipse fill="#fdb462" stroke="black" cx="344" cy="-104" rx="77.57" ry="18"/>
<text text-anchor="middle" x="344" y="-99.8" font-family="Times,serif" font-size="14.00">WebhookService</text>
</g>
<!-- WebhookService&#45;&gt;Oid4vpModule -->
<g id="edge5" class="edge">
<title>WebhookService&#45;&gt;Oid4vpModule</title>
<path fill="none" stroke="black" d="M292.62,-117.78C292.62,-117.78 292.62,-140.55 292.62,-140.55"/>
<polygon fill="black" stroke="black" points="289.12,-140.55 292.62,-150.55 296.12,-140.55 289.12,-140.55"/>
</g>
</g>
</svg>
