<?xml version="1.0" encoding="UTF-8" standalone="no"?>
<!DOCTYPE svg PUBLIC "-//W3C//DTD SVG 1.1//EN"
 "http://www.w3.org/Graphics/SVG/1.1/DTD/svg11.dtd">
<!-- Generated by graphviz version 2.47.0 (20210316.0004)
 -->
<!-- Title: dependencies Pages: 1 -->
<svg width="1170pt" height="284pt"
 viewBox="0.00 0.00 1170.00 284.00" xmlns="http://www.w3.org/2000/svg" xmlns:xlink="http://www.w3.org/1999/xlink">
<g id="graph0" class="graph" transform="scale(1 1) rotate(0) translate(4 280)">
<title>dependencies</title>
<polygon fill="white" stroke="transparent" points="-4,4 -4,-280 1166,-280 1166,4 -4,4"/>
<text text-anchor="start" x="560.01" y="-42.4" font-family="Times-12" font-weight="bold" font-size="14.00">Legend</text>
<polygon fill="#ffffb3" stroke="transparent" points="347,-10 347,-30 367,-30 367,-10 347,-10"/>
<text text-anchor="start" x="370.63" y="-15.4" font-family="Times-12" font-size="14.00"> &#160;Declarations</text>
<polygon fill="#8dd3c7" stroke="transparent" points="460,-10 460,-30 480,-30 480,-10 460,-10"/>
<text text-anchor="start" x="483.73" y="-15.4" font-family="Times-12" font-size="14.00"> &#160;Module</text>
<polygon fill="#80b1d3" stroke="transparent" points="546,-10 546,-30 566,-30 566,-10 546,-10"/>
<text text-anchor="start" x="569.78" y="-15.4" font-family="Times-12" font-size="14.00"> &#160;Bootstrap</text>
<polygon fill="#fdb462" stroke="transparent" points="643,-10 643,-30 663,-30 663,-10 643,-10"/>
<text text-anchor="start" x="666.67" y="-15.4" font-family="Times-12" font-size="14.00"> &#160;Providers</text>
<polygon fill="#fb8072" stroke="transparent" points="739,-10 739,-30 759,-30 759,-10 739,-10"/>
<text text-anchor="start" x="762.73" y="-15.4" font-family="Times-12" font-size="14.00"> &#160;Exports</text>
<g id="clust1" class="cluster">
<title>cluster_Oid4vpModule</title>
<polygon fill="none" stroke="black" stroke-dasharray="1,5" points="8,-70 8,-268 1154,-268 1154,-70 8,-70"/>
</g>
<g id="clust6" class="cluster">
<title>cluster_Oid4vpModule_providers</title>
<polygon fill="none" stroke="black" points="540,-78 540,-130 1146,-130 1146,-78 540,-78"/>
</g>
<g id="clust3" class="cluster">
<title>cluster_Oid4vpModule_imports</title>
<polygon fill="none" stroke="black" points="16,-78 16,-130 532,-130 532,-78 16,-78"/>
</g>
<g id="clust4" class="cluster">
<title>cluster_Oid4vpModule_exports</title>
<polygon fill="none" stroke="black" points="415,-208 415,-260 535,-260 535,-208 415,-208"/>
</g>
<!-- CryptoModule -->
<g id="node1" class="node">
<title>CryptoModule</title>
<polygon fill="#8dd3c7" stroke="black" points="524.44,-122 521.44,-126 500.44,-126 497.44,-122 425.56,-122 425.56,-86 524.44,-86 524.44,-122"/>
<text text-anchor="middle" x="475" y="-99.8" font-family="Times,serif" font-size="14.00">CryptoModule</text>
</g>
<!-- Oid4vpModule -->
<g id="node5" class="node">
<title>Oid4vpModule</title>
<polygon fill="#8dd3c7" stroke="black" points="525.55,-187 522.55,-191 501.55,-191 498.55,-187 424.45,-187 424.45,-151 525.55,-151 525.55,-187"/>
<text text-anchor="middle" x="475" y="-164.8" font-family="Times,serif" font-size="14.00">Oid4vpModule</text>
</g>
<!-- CryptoModule&#45;&gt;Oid4vpModule -->
<g id="edge1" class="edge">
<title>CryptoModule&#45;&gt;Oid4vpModule</title>
<path fill="none" stroke="black" d="M475,-122.11C475,-122.11 475,-140.99 475,-140.99"/>
<polygon fill="black" stroke="black" points="471.5,-140.99 475,-150.99 478.5,-140.99 471.5,-140.99"/>
</g>
<!-- PresentationsModule -->
<g id="node2" class="node">
<title>PresentationsModule</title>
<polygon fill="#8dd3c7" stroke="black" points="408.2,-122 405.2,-126 384.2,-126 381.2,-122 273.8,-122 273.8,-86 408.2,-86 408.2,-122"/>
<text text-anchor="middle" x="341" y="-99.8" font-family="Times,serif" font-size="14.00">PresentationsModule</text>
</g>
<!-- PresentationsModule&#45;&gt;Oid4vpModule -->
<g id="edge2" class="edge">
<title>PresentationsModule&#45;&gt;Oid4vpModule</title>
<path fill="none" stroke="black" d="M341,-122.03C341,-138.4 341,-160 341,-160 341,-160 414.34,-160 414.34,-160"/>
<polygon fill="black" stroke="black" points="414.34,-163.5 424.34,-160 414.34,-156.5 414.34,-163.5"/>
</g>
<!-- RegistrarModule -->
<g id="node3" class="node">
<title>RegistrarModule</title>
<polygon fill="#8dd3c7" stroke="black" points="255.36,-122 252.36,-126 231.36,-126 228.36,-122 144.64,-122 144.64,-86 255.36,-86 255.36,-122"/>
<text text-anchor="middle" x="200" y="-99.8" font-family="Times,serif" font-size="14.00">RegistrarModule</text>
</g>
<!-- RegistrarModule&#45;&gt;Oid4vpModule -->
<g id="edge3" class="edge">
<title>RegistrarModule&#45;&gt;Oid4vpModule</title>
<path fill="none" stroke="black" d="M200,-122.11C200,-141.34 200,-169 200,-169 200,-169 414.24,-169 414.24,-169"/>
<polygon fill="black" stroke="black" points="414.24,-172.5 424.24,-169 414.24,-165.5 414.24,-172.5"/>
</g>
<!-- SessionModule -->
<g id="node4" class="node">
<title>SessionModule</title>
<polygon fill="#8dd3c7" stroke="black" points="126.33,-122 123.33,-126 102.33,-126 99.33,-122 23.67,-122 23.67,-86 126.33,-86 126.33,-122"/>
<text text-anchor="middle" x="75" y="-99.8" font-family="Times,serif" font-size="14.00">SessionModule</text>
</g>
<!-- SessionModule&#45;&gt;Oid4vpModule -->
<g id="edge4" class="edge">
<title>SessionModule&#45;&gt;Oid4vpModule</title>
<path fill="none" stroke="black" d="M75,-122.29C75,-144.21 75,-178 75,-178 75,-178 414.34,-178 414.34,-178"/>
<polygon fill="black" stroke="black" points="414.34,-181.5 424.34,-178 414.34,-174.5 414.34,-181.5"/>
</g>
<!-- Oid4vpService  -->
<g id="node6" class="node">
<title>Oid4vpService </title>
<polygon fill="#fb8072" stroke="black" points="526.98,-252 423.02,-252 423.02,-216 526.98,-216 526.98,-252"/>
<text text-anchor="middle" x="475" y="-229.8" font-family="Times,serif" font-size="14.00">Oid4vpService </text>
</g>
<!-- Oid4vpModule&#45;&gt;Oid4vpService  -->
<g id="edge5" class="edge">
<title>Oid4vpModule&#45;&gt;Oid4vpService </title>
<path fill="none" stroke="black" stroke-dasharray="5,2" d="M475,-187.11C475,-187.11 475,-205.99 475,-205.99"/>
<polygon fill="black" stroke="black" points="471.5,-205.99 475,-215.99 478.5,-205.99 471.5,-205.99"/>
</g>
<!-- Oid4vpService -->
<g id="node7" class="node">
<title>Oid4vpService</title>
<ellipse fill="#fdb462" stroke="black" cx="1069" cy="-104" rx="68.92" ry="18"/>
<text text-anchor="middle" x="1069" y="-99.8" font-family="Times,serif" font-size="14.00">Oid4vpService</text>
</g>
<!-- Oid4vpService&#45;&gt;Oid4vpModule -->
<g id="edge6" class="edge">
<title>Oid4vpService&#45;&gt;Oid4vpModule</title>
<path fill="none" stroke="black" d="M1069,-122.29C1069,-144.21 1069,-178 1069,-178 1069,-178 535.64,-178 535.64,-178"/>
<polygon fill="black" stroke="black" points="535.64,-174.5 525.64,-178 535.64,-181.5 535.64,-174.5"/>
</g>
<!-- SessionLoggerInterceptor -->
<g id="node8" class="node">
<title>SessionLoggerInterceptor</title>
<ellipse fill="#fdb462" stroke="black" cx="871" cy="-104" rx="110.57" ry="18"/>
<text text-anchor="middle" x="871" y="-99.8" font-family="Times,serif" font-size="14.00">SessionLoggerInterceptor</text>
</g>
<!-- SessionLoggerInterceptor&#45;&gt;Oid4vpModule -->
<g id="edge7" class="edge">
<title>SessionLoggerInterceptor&#45;&gt;Oid4vpModule</title>
<path fill="none" stroke="black" d="M871,-122.11C871,-141.34 871,-169 871,-169 871,-169 535.56,-169 535.56,-169"/>
<polygon fill="black" stroke="black" points="535.56,-165.5 525.56,-169 535.56,-172.5 535.56,-165.5"/>
</g>
<!-- SessionLoggerService -->
<g id="node9" class="node">
<title>SessionLoggerService</title>
<ellipse fill="#fdb462" stroke="black" cx="645" cy="-104" rx="97.27" ry="18"/>
<text text-anchor="middle" x="645" y="-99.8" font-family="Times,serif" font-size="14.00">SessionLoggerService</text>
</g>
<!-- SessionLoggerService&#45;&gt;Oid4vpModule -->
<g id="edge8" class="edge">
<title>SessionLoggerService&#45;&gt;Oid4vpModule</title>
<path fill="none" stroke="black" d="M645,-122.03C645,-138.4 645,-160 645,-160 645,-160 536.01,-160 536.01,-160"/>
<polygon fill="black" stroke="black" points="536.01,-156.5 526.01,-160 536.01,-163.5 536.01,-156.5"/>
</g>
</g>
</svg>
