<?xml version="1.0" encoding="UTF-8" standalone="no"?>
<!DOCTYPE svg PUBLIC "-//W3C//DTD SVG 1.1//EN"
 "http://www.w3.org/Graphics/SVG/1.1/DTD/svg11.dtd">
<!-- Generated by graphviz version 2.47.0 (20210316.0004)
 -->
<!-- Title: dependencies Pages: 1 -->
<svg width="1062pt" height="284pt"
 viewBox="0.00 0.00 1062.00 284.00" xmlns="http://www.w3.org/2000/svg" xmlns:xlink="http://www.w3.org/1999/xlink">
<g id="graph0" class="graph" transform="scale(1 1) rotate(0) translate(4 280)">
<title>dependencies</title>
<polygon fill="white" stroke="transparent" points="-4,4 -4,-280 1058,-280 1058,4 -4,4"/>
<text text-anchor="start" x="506.01" y="-42.4" font-family="Times-12" font-weight="bold" font-size="14.00">Legend</text>
<polygon fill="#ffffb3" stroke="transparent" points="293,-10 293,-30 313,-30 313,-10 293,-10"/>
<text text-anchor="start" x="316.63" y="-15.4" font-family="Times-12" font-size="14.00"> &#160;Declarations</text>
<polygon fill="#8dd3c7" stroke="transparent" points="406,-10 406,-30 426,-30 426,-10 406,-10"/>
<text text-anchor="start" x="429.73" y="-15.4" font-family="Times-12" font-size="14.00"> &#160;Module</text>
<polygon fill="#80b1d3" stroke="transparent" points="492,-10 492,-30 512,-30 512,-10 492,-10"/>
<text text-anchor="start" x="515.78" y="-15.4" font-family="Times-12" font-size="14.00"> &#160;Bootstrap</text>
<polygon fill="#fdb462" stroke="transparent" points="589,-10 589,-30 609,-30 609,-10 589,-10"/>
<text text-anchor="start" x="612.67" y="-15.4" font-family="Times-12" font-size="14.00"> &#160;Providers</text>
<polygon fill="#fb8072" stroke="transparent" points="685,-10 685,-30 705,-30 705,-10 685,-10"/>
<text text-anchor="start" x="708.73" y="-15.4" font-family="Times-12" font-size="14.00"> &#160;Exports</text>
<g id="clust1" class="cluster">
<title>cluster_Oid4vpModule</title>
<polygon fill="none" stroke="black" stroke-dasharray="1,5" points="8,-70 8,-268 1046,-268 1046,-70 8,-70"/>
</g>
<g id="clust3" class="cluster">
<title>cluster_Oid4vpModule_imports</title>
<polygon fill="none" stroke="black" points="804,-78 804,-130 1038,-130 1038,-78 804,-78"/>
</g>
<g id="clust6" class="cluster">
<title>cluster_Oid4vpModule_providers</title>
<polygon fill="none" stroke="black" points="16,-78 16,-130 796,-130 796,-78 16,-78"/>
</g>
<g id="clust4" class="cluster">
<title>cluster_Oid4vpModule_exports</title>
<polygon fill="none" stroke="black" points="560,-208 560,-260 680,-260 680,-208 560,-208"/>
</g>
<!-- CryptoModule -->
<g id="node1" class="node">
<title>CryptoModule</title>
<polygon fill="#8dd3c7" stroke="black" points="1030.44,-122 1027.44,-126 1006.44,-126 1003.44,-122 931.56,-122 931.56,-86 1030.44,-86 1030.44,-122"/>
<text text-anchor="middle" x="981" y="-99.8" font-family="Times,serif" font-size="14.00">CryptoModule</text>
</g>
<!-- Oid4vpModule -->
<g id="node3" class="node">
<title>Oid4vpModule</title>
<polygon fill="#8dd3c7" stroke="black" points="670.55,-187 667.55,-191 646.55,-191 643.55,-187 569.45,-187 569.45,-151 670.55,-151 670.55,-187"/>
<text text-anchor="middle" x="620" y="-164.8" font-family="Times,serif" font-size="14.00">Oid4vpModule</text>
</g>
<!-- CryptoModule&#45;&gt;Oid4vpModule -->
<g id="edge1" class="edge">
<title>CryptoModule&#45;&gt;Oid4vpModule</title>
<path fill="none" stroke="black" d="M981,-122.28C981,-143.32 981,-175 981,-175 981,-175 680.58,-175 680.58,-175"/>
<polygon fill="black" stroke="black" points="680.58,-171.5 670.58,-175 680.58,-178.5 680.58,-171.5"/>
</g>
<!-- SessionModule -->
<g id="node2" class="node">
<title>SessionModule</title>
<polygon fill="#8dd3c7" stroke="black" points="914.33,-122 911.33,-126 890.33,-126 887.33,-122 811.67,-122 811.67,-86 914.33,-86 914.33,-122"/>
<text text-anchor="middle" x="863" y="-99.8" font-family="Times,serif" font-size="14.00">SessionModule</text>
</g>
<!-- SessionModule&#45;&gt;Oid4vpModule -->
<g id="edge2" class="edge">
<title>SessionModule&#45;&gt;Oid4vpModule</title>
<path fill="none" stroke="black" d="M863,-122.02C863,-139.37 863,-163 863,-163 863,-163 680.64,-163 680.64,-163"/>
<polygon fill="black" stroke="black" points="680.65,-159.5 670.64,-163 680.64,-166.5 680.65,-159.5"/>
</g>
<!-- Oid4vpService  -->
<g id="node4" class="node">
<title>Oid4vpService </title>
<polygon fill="#fb8072" stroke="black" points="671.98,-252 568.02,-252 568.02,-216 671.98,-216 671.98,-252"/>
<text text-anchor="middle" x="620" y="-229.8" font-family="Times,serif" font-size="14.00">Oid4vpService </text>
</g>
<!-- Oid4vpModule&#45;&gt;Oid4vpService  -->
<g id="edge3" class="edge">
<title>Oid4vpModule&#45;&gt;Oid4vpService </title>
<path fill="none" stroke="black" stroke-dasharray="5,2" d="M620,-187.11C620,-187.11 620,-205.99 620,-205.99"/>
<polygon fill="black" stroke="black" points="616.5,-205.99 620,-215.99 623.5,-205.99 616.5,-205.99"/>
</g>
<!-- Oid4vpService -->
<g id="node5" class="node">
<title>Oid4vpService</title>
<ellipse fill="#fdb462" stroke="black" cx="719" cy="-104" rx="68.92" ry="18"/>
<text text-anchor="middle" x="719" y="-99.8" font-family="Times,serif" font-size="14.00">Oid4vpService</text>
</g>
<!-- Oid4vpService&#45;&gt;Oid4vpModule -->
<g id="edge4" class="edge">
<title>Oid4vpService&#45;&gt;Oid4vpModule</title>
<path fill="none" stroke="black" d="M660.41,-113.59C660.41,-113.59 660.41,-140.75 660.41,-140.75"/>
<polygon fill="black" stroke="black" points="656.91,-140.75 660.41,-150.75 663.91,-140.75 656.91,-140.75"/>
</g>
<!-- SessionLoggerInterceptor -->
<g id="node6" class="node">
<title>SessionLoggerInterceptor</title>
<ellipse fill="#fdb462" stroke="black" cx="521" cy="-104" rx="110.57" ry="18"/>
<text text-anchor="middle" x="521" y="-99.8" font-family="Times,serif" font-size="14.00">SessionLoggerInterceptor</text>
</g>
<!-- SessionLoggerInterceptor&#45;&gt;Oid4vpModule -->
<g id="edge5" class="edge">
<title>SessionLoggerInterceptor&#45;&gt;Oid4vpModule</title>
<path fill="none" stroke="black" d="M600.51,-116.84C600.51,-116.84 600.51,-140.52 600.51,-140.52"/>
<polygon fill="black" stroke="black" points="597.01,-140.52 600.51,-150.52 604.01,-140.52 597.01,-140.52"/>
</g>
<!-- SessionLoggerService -->
<g id="node7" class="node">
<title>SessionLoggerService</title>
<ellipse fill="#fdb462" stroke="black" cx="295" cy="-104" rx="97.27" ry="18"/>
<text text-anchor="middle" x="295" y="-99.8" font-family="Times,serif" font-size="14.00">SessionLoggerService</text>
</g>
<!-- SessionLoggerService&#45;&gt;Oid4vpModule -->
<g id="edge6" class="edge">
<title>SessionLoggerService&#45;&gt;Oid4vpModule</title>
<path fill="none" stroke="black" d="M295,-122.02C295,-139.37 295,-163 295,-163 295,-163 559.22,-163 559.22,-163"/>
<polygon fill="black" stroke="black" points="559.22,-166.5 569.22,-163 559.22,-159.5 559.22,-166.5"/>
</g>
<!-- WebhookService -->
<g id="node8" class="node">
<title>WebhookService</title>
<ellipse fill="#fdb462" stroke="black" cx="102" cy="-104" rx="77.57" ry="18"/>
<text text-anchor="middle" x="102" y="-99.8" font-family="Times,serif" font-size="14.00">WebhookService</text>
</g>
<!-- WebhookService&#45;&gt;Oid4vpModule -->
<g id="edge7" class="edge">
<title>WebhookService&#45;&gt;Oid4vpModule</title>
<path fill="none" stroke="black" d="M102,-122.28C102,-143.32 102,-175 102,-175 102,-175 559.39,-175 559.39,-175"/>
<polygon fill="black" stroke="black" points="559.39,-178.5 569.39,-175 559.39,-171.5 559.39,-178.5"/>
</g>
</g>
</svg>
