<?xml version="1.0" encoding="UTF-8" standalone="no"?>
<!DOCTYPE svg PUBLIC "-//W3C//DTD SVG 1.1//EN"
 "http://www.w3.org/Graphics/SVG/1.1/DTD/svg11.dtd">
<!-- Generated by graphviz version 2.47.0 (20210316.0004)
 -->
<!-- Title: dependencies Pages: 1 -->
<svg width="849pt" height="284pt"
 viewBox="0.00 0.00 849.00 284.00" xmlns="http://www.w3.org/2000/svg" xmlns:xlink="http://www.w3.org/1999/xlink">
<g id="graph0" class="graph" transform="scale(1 1) rotate(0) translate(4 280)">
<title>dependencies</title>
<polygon fill="white" stroke="transparent" points="-4,4 -4,-280 845,-280 845,4 -4,4"/>
<text text-anchor="start" x="399.51" y="-42.4" font-family="Times-12" font-weight="bold" font-size="14.00">Legend</text>
<polygon fill="#ffffb3" stroke="transparent" points="186.5,-10 186.5,-30 206.5,-30 206.5,-10 186.5,-10"/>
<text text-anchor="start" x="210.13" y="-15.4" font-family="Times-12" font-size="14.00"> &#160;Declarations</text>
<polygon fill="#8dd3c7" stroke="transparent" points="299.5,-10 299.5,-30 319.5,-30 319.5,-10 299.5,-10"/>
<text text-anchor="start" x="323.23" y="-15.4" font-family="Times-12" font-size="14.00"> &#160;Module</text>
<polygon fill="#80b1d3" stroke="transparent" points="385.5,-10 385.5,-30 405.5,-30 405.5,-10 385.5,-10"/>
<text text-anchor="start" x="409.28" y="-15.4" font-family="Times-12" font-size="14.00"> &#160;Bootstrap</text>
<polygon fill="#fdb462" stroke="transparent" points="482.5,-10 482.5,-30 502.5,-30 502.5,-10 482.5,-10"/>
<text text-anchor="start" x="506.17" y="-15.4" font-family="Times-12" font-size="14.00"> &#160;Providers</text>
<polygon fill="#fb8072" stroke="transparent" points="578.5,-10 578.5,-30 598.5,-30 598.5,-10 578.5,-10"/>
<text text-anchor="start" x="602.23" y="-15.4" font-family="Times-12" font-size="14.00"> &#160;Exports</text>
<g id="clust1" class="cluster">
<title>cluster_Oid4vpModule</title>
<polygon fill="none" stroke="black" stroke-dasharray="1,5" points="8,-70 8,-268 833,-268 833,-70 8,-70"/>
</g>
<g id="clust6" class="cluster">
<title>cluster_Oid4vpModule_providers</title>
<polygon fill="none" stroke="black" points="258,-78 258,-130 825,-130 825,-78 258,-78"/>
</g>
<g id="clust4" class="cluster">
<title>cluster_Oid4vpModule_exports</title>
<polygon fill="none" stroke="black" points="284,-208 284,-260 404,-260 404,-208 284,-208"/>
</g>
<g id="clust3" class="cluster">
<title>cluster_Oid4vpModule_imports</title>
<polygon fill="none" stroke="black" points="16,-78 16,-130 250,-130 250,-78 16,-78"/>
</g>
<!-- CryptoModule -->
<g id="node1" class="node">
<title>CryptoModule</title>
<polygon fill="#8dd3c7" stroke="black" points="242.44,-122 239.44,-126 218.44,-126 215.44,-122 143.56,-122 143.56,-86 242.44,-86 242.44,-122"/>
<text text-anchor="middle" x="193" y="-99.8" font-family="Times,serif" font-size="14.00">CryptoModule</text>
</g>
<!-- Oid4vpModule -->
<g id="node3" class="node">
<title>Oid4vpModule</title>
<polygon fill="#8dd3c7" stroke="black" points="394.55,-187 391.55,-191 370.55,-191 367.55,-187 293.45,-187 293.45,-151 394.55,-151 394.55,-187"/>
<text text-anchor="middle" x="344" y="-164.8" font-family="Times,serif" font-size="14.00">Oid4vpModule</text>
</g>
<!-- CryptoModule&#45;&gt;Oid4vpModule -->
<g id="edge1" class="edge">
<title>CryptoModule&#45;&gt;Oid4vpModule</title>
<path fill="none" stroke="black" d="M193,-122.02C193,-139.37 193,-163 193,-163 193,-163 283.3,-163 283.3,-163"/>
<polygon fill="black" stroke="black" points="283.3,-166.5 293.3,-163 283.3,-159.5 283.3,-166.5"/>
</g>
<!-- SessionModule -->
<g id="node2" class="node">
<title>SessionModule</title>
<polygon fill="#8dd3c7" stroke="black" points="126.33,-122 123.33,-126 102.33,-126 99.33,-122 23.67,-122 23.67,-86 126.33,-86 126.33,-122"/>
<text text-anchor="middle" x="75" y="-99.8" font-family="Times,serif" font-size="14.00">SessionModule</text>
</g>
<!-- SessionModule&#45;&gt;Oid4vpModule -->
<g id="edge2" class="edge">
<title>SessionModule&#45;&gt;Oid4vpModule</title>
<path fill="none" stroke="black" d="M75,-122.28C75,-143.32 75,-175 75,-175 75,-175 283.4,-175 283.4,-175"/>
<polygon fill="black" stroke="black" points="283.4,-178.5 293.4,-175 283.4,-171.5 283.4,-178.5"/>
</g>
<!-- Oid4vpService  -->
<g id="node4" class="node">
<title>Oid4vpService </title>
<polygon fill="#fb8072" stroke="black" points="395.98,-252 292.02,-252 292.02,-216 395.98,-216 395.98,-252"/>
<text text-anchor="middle" x="344" y="-229.8" font-family="Times,serif" font-size="14.00">Oid4vpService </text>
</g>
<!-- Oid4vpModule&#45;&gt;Oid4vpService  -->
<g id="edge3" class="edge">
<title>Oid4vpModule&#45;&gt;Oid4vpService </title>
<path fill="none" stroke="black" stroke-dasharray="5,2" d="M344,-187.11C344,-187.11 344,-205.99 344,-205.99"/>
<polygon fill="black" stroke="black" points="340.5,-205.99 344,-215.99 347.5,-205.99 340.5,-205.99"/>
</g>
<!-- Oid4vpService -->
<g id="node5" class="node">
<title>Oid4vpService</title>
<ellipse fill="#fdb462" stroke="black" cx="748" cy="-104" rx="68.92" ry="18"/>
<text text-anchor="middle" x="748" y="-99.8" font-family="Times,serif" font-size="14.00">Oid4vpService</text>
</g>
<!-- Oid4vpService&#45;&gt;Oid4vpModule -->
<g id="edge4" class="edge">
<title>Oid4vpService&#45;&gt;Oid4vpModule</title>
<path fill="none" stroke="black" d="M748,-122.28C748,-143.32 748,-175 748,-175 748,-175 404.76,-175 404.76,-175"/>
<polygon fill="black" stroke="black" points="404.76,-171.5 394.76,-175 404.76,-178.5 404.76,-171.5"/>
</g>
<!-- SessionLoggerInterceptor -->
<g id="node6" class="node">
<title>SessionLoggerInterceptor</title>
<ellipse fill="#fdb462" stroke="black" cx="550" cy="-104" rx="110.57" ry="18"/>
<text text-anchor="middle" x="550" y="-99.8" font-family="Times,serif" font-size="14.00">SessionLoggerInterceptor</text>
</g>
<!-- SessionLoggerInterceptor&#45;&gt;Oid4vpModule -->
<g id="edge5" class="edge">
<title>SessionLoggerInterceptor&#45;&gt;Oid4vpModule</title>
<path fill="none" stroke="black" d="M550,-122.02C550,-139.37 550,-163 550,-163 550,-163 404.66,-163 404.66,-163"/>
<polygon fill="black" stroke="black" points="404.66,-159.5 394.66,-163 404.66,-166.5 404.66,-159.5"/>
</g>
<!-- WebhookService -->
<g id="node7" class="node">
<title>WebhookService</title>
<ellipse fill="#fdb462" stroke="black" cx="344" cy="-104" rx="77.57" ry="18"/>
<text text-anchor="middle" x="344" y="-99.8" font-family="Times,serif" font-size="14.00">WebhookService</text>
</g>
<!-- WebhookService&#45;&gt;Oid4vpModule -->
<g id="edge6" class="edge">
<title>WebhookService&#45;&gt;Oid4vpModule</title>
<path fill="none" stroke="black" d="M344,-122.11C344,-122.11 344,-140.99 344,-140.99"/>
<polygon fill="black" stroke="black" points="340.5,-140.99 344,-150.99 347.5,-140.99 340.5,-140.99"/>
</g>
</g>
</svg>
