<?xml version="1.0" encoding="UTF-8" standalone="no"?>
<!DOCTYPE svg PUBLIC "-//W3C//DTD SVG 1.1//EN"
 "http://www.w3.org/Graphics/SVG/1.1/DTD/svg11.dtd">
<!-- Generated by graphviz version 2.47.0 (20210316.0004)
 -->
<!-- Title: dependencies Pages: 1 -->
<svg width="1062pt" height="284pt"
 viewBox="0.00 0.00 1062.00 284.00" xmlns="http://www.w3.org/2000/svg" xmlns:xlink="http://www.w3.org/1999/xlink">
<g id="graph0" class="graph" transform="scale(1 1) rotate(0) translate(4 280)">
<title>dependencies</title>
<polygon fill="white" stroke="transparent" points="-4,4 -4,-280 1058,-280 1058,4 -4,4"/>
<text text-anchor="start" x="506.01" y="-42.4" font-family="Times-12" font-weight="bold" font-size="14.00">Legend</text>
<polygon fill="#ffffb3" stroke="transparent" points="293,-10 293,-30 313,-30 313,-10 293,-10"/>
<text text-anchor="start" x="316.63" y="-15.4" font-family="Times-12" font-size="14.00"> &#160;Declarations</text>
<polygon fill="#8dd3c7" stroke="transparent" points="406,-10 406,-30 426,-30 426,-10 406,-10"/>
<text text-anchor="start" x="429.73" y="-15.4" font-family="Times-12" font-size="14.00"> &#160;Module</text>
<polygon fill="#80b1d3" stroke="transparent" points="492,-10 492,-30 512,-30 512,-10 492,-10"/>
<text text-anchor="start" x="515.78" y="-15.4" font-family="Times-12" font-size="14.00"> &#160;Bootstrap</text>
<polygon fill="#fdb462" stroke="transparent" points="589,-10 589,-30 609,-30 609,-10 589,-10"/>
<text text-anchor="start" x="612.67" y="-15.4" font-family="Times-12" font-size="14.00"> &#160;Providers</text>
<polygon fill="#fb8072" stroke="transparent" points="685,-10 685,-30 705,-30 705,-10 685,-10"/>
<text text-anchor="start" x="708.73" y="-15.4" font-family="Times-12" font-size="14.00"> &#160;Exports</text>
<g id="clust1" class="cluster">
<title>cluster_Oid4vpModule</title>
<polygon fill="none" stroke="black" stroke-dasharray="1,5" points="8,-70 8,-268 1046,-268 1046,-70 8,-70"/>
</g>
<g id="clust6" class="cluster">
<title>cluster_Oid4vpModule_providers</title>
<polygon fill="none" stroke="black" points="258,-78 258,-130 1038,-130 1038,-78 258,-78"/>
</g>
<g id="clust3" class="cluster">
<title>cluster_Oid4vpModule_imports</title>
<polygon fill="none" stroke="black" points="16,-78 16,-130 250,-130 250,-78 16,-78"/>
</g>
<g id="clust4" class="cluster">
<title>cluster_Oid4vpModule_exports</title>
<polygon fill="none" stroke="black" points="380,-208 380,-260 500,-260 500,-208 380,-208"/>
</g>
<!-- CryptoModule -->
<g id="node1" class="node">
<title>CryptoModule</title>
<polygon fill="#8dd3c7" stroke="black" points="242.44,-122 239.44,-126 218.44,-126 215.44,-122 143.56,-122 143.56,-86 242.44,-86 242.44,-122"/>
<text text-anchor="middle" x="193" y="-99.8" font-family="Times,serif" font-size="14.00">CryptoModule</text>
</g>
<!-- Oid4vpModule -->
<g id="node3" class="node">
<title>Oid4vpModule</title>
<polygon fill="#8dd3c7" stroke="black" points="490.55,-187 487.55,-191 466.55,-191 463.55,-187 389.45,-187 389.45,-151 490.55,-151 490.55,-187"/>
<text text-anchor="middle" x="440" y="-164.8" font-family="Times,serif" font-size="14.00">Oid4vpModule</text>
</g>
<!-- CryptoModule&#45;&gt;Oid4vpModule -->
<g id="edge1" class="edge">
<title>CryptoModule&#45;&gt;Oid4vpModule</title>
<path fill="none" stroke="black" d="M193,-122.02C193,-139.37 193,-163 193,-163 193,-163 379.42,-163 379.42,-163"/>
<polygon fill="black" stroke="black" points="379.42,-166.5 389.42,-163 379.42,-159.5 379.42,-166.5"/>
</g>
<!-- SessionModule -->
<g id="node2" class="node">
<title>SessionModule</title>
<polygon fill="#8dd3c7" stroke="black" points="126.33,-122 123.33,-126 102.33,-126 99.33,-122 23.67,-122 23.67,-86 126.33,-86 126.33,-122"/>
<text text-anchor="middle" x="75" y="-99.8" font-family="Times,serif" font-size="14.00">SessionModule</text>
</g>
<!-- SessionModule&#45;&gt;Oid4vpModule -->
<g id="edge2" class="edge">
<title>SessionModule&#45;&gt;Oid4vpModule</title>
<path fill="none" stroke="black" d="M75,-122.28C75,-143.32 75,-175 75,-175 75,-175 379.25,-175 379.25,-175"/>
<polygon fill="black" stroke="black" points="379.25,-178.5 389.25,-175 379.25,-171.5 379.25,-178.5"/>
</g>
<!-- Oid4vpService  -->
<g id="node4" class="node">
<title>Oid4vpService </title>
<polygon fill="#fb8072" stroke="black" points="491.98,-252 388.02,-252 388.02,-216 491.98,-216 491.98,-252"/>
<text text-anchor="middle" x="440" y="-229.8" font-family="Times,serif" font-size="14.00">Oid4vpService </text>
</g>
<!-- Oid4vpModule&#45;&gt;Oid4vpService  -->
<g id="edge3" class="edge">
<title>Oid4vpModule&#45;&gt;Oid4vpService </title>
<path fill="none" stroke="black" stroke-dasharray="5,2" d="M440,-187.11C440,-187.11 440,-205.99 440,-205.99"/>
<polygon fill="black" stroke="black" points="436.5,-205.99 440,-215.99 443.5,-205.99 436.5,-205.99"/>
</g>
<!-- Oid4vpService -->
<g id="node5" class="node">
<title>Oid4vpService</title>
<ellipse fill="#fdb462" stroke="black" cx="961" cy="-104" rx="68.92" ry="18"/>
<text text-anchor="middle" x="961" y="-99.8" font-family="Times,serif" font-size="14.00">Oid4vpService</text>
</g>
<!-- Oid4vpService&#45;&gt;Oid4vpModule -->
<g id="edge4" class="edge">
<title>Oid4vpService&#45;&gt;Oid4vpModule</title>
<path fill="none" stroke="black" d="M961,-122.28C961,-143.32 961,-175 961,-175 961,-175 500.9,-175 500.9,-175"/>
<polygon fill="black" stroke="black" points="500.9,-171.5 490.9,-175 500.9,-178.5 500.9,-171.5"/>
</g>
<!-- SessionLoggerInterceptor -->
<g id="node6" class="node">
<title>SessionLoggerInterceptor</title>
<ellipse fill="#fdb462" stroke="black" cx="763" cy="-104" rx="110.57" ry="18"/>
<text text-anchor="middle" x="763" y="-99.8" font-family="Times,serif" font-size="14.00">SessionLoggerInterceptor</text>
</g>
<!-- SessionLoggerInterceptor&#45;&gt;Oid4vpModule -->
<g id="edge5" class="edge">
<title>SessionLoggerInterceptor&#45;&gt;Oid4vpModule</title>
<path fill="none" stroke="black" d="M763,-122.02C763,-139.37 763,-163 763,-163 763,-163 500.82,-163 500.82,-163"/>
<polygon fill="black" stroke="black" points="500.82,-159.5 490.82,-163 500.82,-166.5 500.82,-159.5"/>
</g>
<!-- SessionLoggerService -->
<g id="node7" class="node">
<title>SessionLoggerService</title>
<ellipse fill="#fdb462" stroke="black" cx="537" cy="-104" rx="97.27" ry="18"/>
<text text-anchor="middle" x="537" y="-99.8" font-family="Times,serif" font-size="14.00">SessionLoggerService</text>
</g>
<!-- SessionLoggerService&#45;&gt;Oid4vpModule -->
<g id="edge6" class="edge">
<title>SessionLoggerService&#45;&gt;Oid4vpModule</title>
<path fill="none" stroke="black" d="M465.19,-116.23C465.19,-116.23 465.19,-140.68 465.19,-140.68"/>
<polygon fill="black" stroke="black" points="461.69,-140.68 465.19,-150.68 468.69,-140.68 461.69,-140.68"/>
</g>
<!-- WebhookService -->
<g id="node8" class="node">
<title>WebhookService</title>
<ellipse fill="#fdb462" stroke="black" cx="344" cy="-104" rx="77.57" ry="18"/>
<text text-anchor="middle" x="344" y="-99.8" font-family="Times,serif" font-size="14.00">WebhookService</text>
</g>
<!-- WebhookService&#45;&gt;Oid4vpModule -->
<g id="edge7" class="edge">
<title>WebhookService&#45;&gt;Oid4vpModule</title>
<path fill="none" stroke="black" d="M405.38,-115.03C405.38,-115.03 405.38,-140.78 405.38,-140.78"/>
<polygon fill="black" stroke="black" points="401.88,-140.78 405.38,-150.78 408.88,-140.78 401.88,-140.78"/>
</g>
</g>
</svg>
