<?xml version="1.0" encoding="UTF-8" standalone="no"?>
<!DOCTYPE svg PUBLIC "-//W3C//DTD SVG 1.1//EN"
 "http://www.w3.org/Graphics/SVG/1.1/DTD/svg11.dtd">
<!-- Generated by graphviz version 2.47.0 (20210316.0004)
 -->
<!-- Title: dependencies Pages: 1 -->
<svg width="1170pt" height="284pt"
 viewBox="0.00 0.00 1170.00 284.00" xmlns="http://www.w3.org/2000/svg" xmlns:xlink="http://www.w3.org/1999/xlink">
<g id="graph0" class="graph" transform="scale(1 1) rotate(0) translate(4 280)">
<title>dependencies</title>
<polygon fill="white" stroke="transparent" points="-4,4 -4,-280 1166,-280 1166,4 -4,4"/>
<text text-anchor="start" x="560.01" y="-42.4" font-family="Times-12" font-weight="bold" font-size="14.00">Legend</text>
<polygon fill="#ffffb3" stroke="transparent" points="347,-10 347,-30 367,-30 367,-10 347,-10"/>
<text text-anchor="start" x="370.63" y="-15.4" font-family="Times-12" font-size="14.00"> &#160;Declarations</text>
<polygon fill="#8dd3c7" stroke="transparent" points="460,-10 460,-30 480,-30 480,-10 460,-10"/>
<text text-anchor="start" x="483.73" y="-15.4" font-family="Times-12" font-size="14.00"> &#160;Module</text>
<polygon fill="#80b1d3" stroke="transparent" points="546,-10 546,-30 566,-30 566,-10 546,-10"/>
<text text-anchor="start" x="569.78" y="-15.4" font-family="Times-12" font-size="14.00"> &#160;Bootstrap</text>
<polygon fill="#fdb462" stroke="transparent" points="643,-10 643,-30 663,-30 663,-10 643,-10"/>
<text text-anchor="start" x="666.67" y="-15.4" font-family="Times-12" font-size="14.00"> &#160;Providers</text>
<polygon fill="#fb8072" stroke="transparent" points="739,-10 739,-30 759,-30 759,-10 739,-10"/>
<text text-anchor="start" x="762.73" y="-15.4" font-family="Times-12" font-size="14.00"> &#160;Exports</text>
<g id="clust1" class="cluster">
<title>cluster_Oid4vpModule</title>
<polygon fill="none" stroke="black" stroke-dasharray="1,5" points="8,-70 8,-268 1154,-268 1154,-70 8,-70"/>
</g>
<g id="clust4" class="cluster">
<title>cluster_Oid4vpModule_exports</title>
<polygon fill="none" stroke="black" points="629,-208 629,-260 749,-260 749,-208 629,-208"/>
</g>
<g id="clust3" class="cluster">
<title>cluster_Oid4vpModule_imports</title>
<polygon fill="none" stroke="black" points="630,-78 630,-130 1146,-130 1146,-78 630,-78"/>
</g>
<g id="clust6" class="cluster">
<title>cluster_Oid4vpModule_providers</title>
<polygon fill="none" stroke="black" points="16,-78 16,-130 622,-130 622,-78 16,-78"/>
</g>
<!-- CryptoModule -->
<g id="node1" class="node">
<title>CryptoModule</title>
<polygon fill="#8dd3c7" stroke="black" points="1138.44,-122 1135.44,-126 1114.44,-126 1111.44,-122 1039.56,-122 1039.56,-86 1138.44,-86 1138.44,-122"/>
<text text-anchor="middle" x="1089" y="-99.8" font-family="Times,serif" font-size="14.00">CryptoModule</text>
</g>
<!-- Oid4vpModule -->
<g id="node5" class="node">
<title>Oid4vpModule</title>
<polygon fill="#8dd3c7" stroke="black" points="739.55,-187 736.55,-191 715.55,-191 712.55,-187 638.45,-187 638.45,-151 739.55,-151 739.55,-187"/>
<text text-anchor="middle" x="689" y="-164.8" font-family="Times,serif" font-size="14.00">Oid4vpModule</text>
</g>
<!-- CryptoModule&#45;&gt;Oid4vpModule -->
<g id="edge1" class="edge">
<title>CryptoModule&#45;&gt;Oid4vpModule</title>
<path fill="none" stroke="black" d="M1089,-122.29C1089,-144.21 1089,-178 1089,-178 1089,-178 749.66,-178 749.66,-178"/>
<polygon fill="black" stroke="black" points="749.66,-174.5 739.66,-178 749.66,-181.5 749.66,-174.5"/>
</g>
<!-- PresentationsModule -->
<g id="node2" class="node">
<title>PresentationsModule</title>
<polygon fill="#8dd3c7" stroke="black" points="1022.2,-122 1019.2,-126 998.2,-126 995.2,-122 887.8,-122 887.8,-86 1022.2,-86 1022.2,-122"/>
<text text-anchor="middle" x="955" y="-99.8" font-family="Times,serif" font-size="14.00">PresentationsModule</text>
</g>
<!-- PresentationsModule&#45;&gt;Oid4vpModule -->
<g id="edge2" class="edge">
<title>PresentationsModule&#45;&gt;Oid4vpModule</title>
<path fill="none" stroke="black" d="M955,-122.11C955,-141.34 955,-169 955,-169 955,-169 749.66,-169 749.66,-169"/>
<polygon fill="black" stroke="black" points="749.66,-165.5 739.66,-169 749.66,-172.5 749.66,-165.5"/>
</g>
<!-- RegistrarModule -->
<g id="node3" class="node">
<title>RegistrarModule</title>
<polygon fill="#8dd3c7" stroke="black" points="869.36,-122 866.36,-126 845.36,-126 842.36,-122 758.64,-122 758.64,-86 869.36,-86 869.36,-122"/>
<text text-anchor="middle" x="814" y="-99.8" font-family="Times,serif" font-size="14.00">RegistrarModule</text>
</g>
<!-- RegistrarModule&#45;&gt;Oid4vpModule -->
<g id="edge3" class="edge">
<title>RegistrarModule&#45;&gt;Oid4vpModule</title>
<path fill="none" stroke="black" d="M814,-122.03C814,-138.4 814,-160 814,-160 814,-160 749.84,-160 749.84,-160"/>
<polygon fill="black" stroke="black" points="749.84,-156.5 739.84,-160 749.84,-163.5 749.84,-156.5"/>
</g>
<!-- SessionModule -->
<g id="node4" class="node">
<title>SessionModule</title>
<polygon fill="#8dd3c7" stroke="black" points="740.33,-122 737.33,-126 716.33,-126 713.33,-122 637.67,-122 637.67,-86 740.33,-86 740.33,-122"/>
<text text-anchor="middle" x="689" y="-99.8" font-family="Times,serif" font-size="14.00">SessionModule</text>
</g>
<!-- SessionModule&#45;&gt;Oid4vpModule -->
<g id="edge4" class="edge">
<title>SessionModule&#45;&gt;Oid4vpModule</title>
<path fill="none" stroke="black" d="M689,-122.11C689,-122.11 689,-140.99 689,-140.99"/>
<polygon fill="black" stroke="black" points="685.5,-140.99 689,-150.99 692.5,-140.99 685.5,-140.99"/>
</g>
<!-- Oid4vpService  -->
<g id="node6" class="node">
<title>Oid4vpService </title>
<polygon fill="#fb8072" stroke="black" points="740.98,-252 637.02,-252 637.02,-216 740.98,-216 740.98,-252"/>
<text text-anchor="middle" x="689" y="-229.8" font-family="Times,serif" font-size="14.00">Oid4vpService </text>
</g>
<!-- Oid4vpModule&#45;&gt;Oid4vpService  -->
<g id="edge5" class="edge">
<title>Oid4vpModule&#45;&gt;Oid4vpService </title>
<path fill="none" stroke="black" stroke-dasharray="5,2" d="M689,-187.11C689,-187.11 689,-205.99 689,-205.99"/>
<polygon fill="black" stroke="black" points="685.5,-205.99 689,-215.99 692.5,-205.99 685.5,-205.99"/>
</g>
<!-- Oid4vpService -->
<g id="node7" class="node">
<title>Oid4vpService</title>
<ellipse fill="#fdb462" stroke="black" cx="545" cy="-104" rx="68.92" ry="18"/>
<text text-anchor="middle" x="545" y="-99.8" font-family="Times,serif" font-size="14.00">Oid4vpService</text>
</g>
<!-- Oid4vpService&#45;&gt;Oid4vpModule -->
<g id="edge6" class="edge">
<title>Oid4vpService&#45;&gt;Oid4vpModule</title>
<path fill="none" stroke="black" d="M545,-122.03C545,-138.4 545,-160 545,-160 545,-160 628.23,-160 628.23,-160"/>
<polygon fill="black" stroke="black" points="628.23,-163.5 638.23,-160 628.23,-156.5 628.23,-163.5"/>
</g>
<!-- SessionLoggerInterceptor -->
<g id="node8" class="node">
<title>SessionLoggerInterceptor</title>
<ellipse fill="#fdb462" stroke="black" cx="347" cy="-104" rx="110.57" ry="18"/>
<text text-anchor="middle" x="347" y="-99.8" font-family="Times,serif" font-size="14.00">SessionLoggerInterceptor</text>
</g>
<!-- SessionLoggerInterceptor&#45;&gt;Oid4vpModule -->
<g id="edge7" class="edge">
<title>SessionLoggerInterceptor&#45;&gt;Oid4vpModule</title>
<path fill="none" stroke="black" d="M347,-122.11C347,-141.34 347,-169 347,-169 347,-169 628.17,-169 628.17,-169"/>
<polygon fill="black" stroke="black" points="628.17,-172.5 638.17,-169 628.17,-165.5 628.17,-172.5"/>
</g>
<!-- SessionLoggerService -->
<g id="node9" class="node">
<title>SessionLoggerService</title>
<ellipse fill="#fdb462" stroke="black" cx="121" cy="-104" rx="97.27" ry="18"/>
<text text-anchor="middle" x="121" y="-99.8" font-family="Times,serif" font-size="14.00">SessionLoggerService</text>
</g>
<!-- SessionLoggerService&#45;&gt;Oid4vpModule -->
<g id="edge8" class="edge">
<title>SessionLoggerService&#45;&gt;Oid4vpModule</title>
<path fill="none" stroke="black" d="M121,-122.29C121,-144.21 121,-178 121,-178 121,-178 628.34,-178 628.34,-178"/>
<polygon fill="black" stroke="black" points="628.34,-181.5 638.34,-178 628.34,-174.5 628.34,-181.5"/>
</g>
</g>
</svg>
