<?xml version="1.0" encoding="UTF-8" standalone="no"?>
<!DOCTYPE svg PUBLIC "-//W3C//DTD SVG 1.1//EN"
 "http://www.w3.org/Graphics/SVG/1.1/DTD/svg11.dtd">
<!-- Generated by graphviz version 2.47.0 (20210316.0004)
 -->
<!-- Title: dependencies Pages: 1 -->
<svg width="1806pt" height="284pt"
 viewBox="0.00 0.00 1806.00 284.00" xmlns="http://www.w3.org/2000/svg" xmlns:xlink="http://www.w3.org/1999/xlink">
<g id="graph0" class="graph" transform="scale(1 1) rotate(0) translate(4 280)">
<title>dependencies</title>
<polygon fill="white" stroke="transparent" points="-4,4 -4,-280 1802,-280 1802,4 -4,4"/>
<text text-anchor="start" x="878.01" y="-42.4" font-family="Times-12" font-weight="bold" font-size="14.00">Legend</text>
<polygon fill="#ffffb3" stroke="transparent" points="665,-10 665,-30 685,-30 685,-10 665,-10"/>
<text text-anchor="start" x="688.63" y="-15.4" font-family="Times-12" font-size="14.00"> &#160;Declarations</text>
<polygon fill="#8dd3c7" stroke="transparent" points="778,-10 778,-30 798,-30 798,-10 778,-10"/>
<text text-anchor="start" x="801.73" y="-15.4" font-family="Times-12" font-size="14.00"> &#160;Module</text>
<polygon fill="#80b1d3" stroke="transparent" points="864,-10 864,-30 884,-30 884,-10 864,-10"/>
<text text-anchor="start" x="887.78" y="-15.4" font-family="Times-12" font-size="14.00"> &#160;Bootstrap</text>
<polygon fill="#fdb462" stroke="transparent" points="961,-10 961,-30 981,-30 981,-10 961,-10"/>
<text text-anchor="start" x="984.67" y="-15.4" font-family="Times-12" font-size="14.00"> &#160;Providers</text>
<polygon fill="#fb8072" stroke="transparent" points="1057,-10 1057,-30 1077,-30 1077,-10 1057,-10"/>
<text text-anchor="start" x="1080.73" y="-15.4" font-family="Times-12" font-size="14.00"> &#160;Exports</text>
<g id="clust1" class="cluster">
<title>cluster_IssuanceModule</title>
<polygon fill="none" stroke="black" stroke-dasharray="1,5" points="8,-70 8,-268 1790,-268 1790,-70 8,-70"/>
</g>
<g id="clust3" class="cluster">
<title>cluster_IssuanceModule_imports</title>
<polygon fill="none" stroke="black" points="1012,-78 1012,-130 1782,-130 1782,-78 1012,-78"/>
</g>
<g id="clust6" class="cluster">
<title>cluster_IssuanceModule_providers</title>
<polygon fill="none" stroke="black" points="16,-78 16,-130 1004,-130 1004,-78 16,-78"/>
</g>
<g id="clust4" class="cluster">
<title>cluster_IssuanceModule_exports</title>
<polygon fill="none" stroke="black" points="833,-208 833,-260 1308,-260 1308,-208 833,-208"/>
</g>
<!-- ConfigurationModule -->
<g id="node1" class="node">
<title>ConfigurationModule</title>
<polygon fill="#8dd3c7" stroke="black" points="1774.09,-122 1771.09,-126 1750.09,-126 1747.09,-122 1635.91,-122 1635.91,-86 1774.09,-86 1774.09,-122"/>
<text text-anchor="middle" x="1705" y="-99.8" font-family="Times,serif" font-size="14.00">ConfigurationModule</text>
</g>
<!-- IssuanceModule -->
<g id="node7" class="node">
<title>IssuanceModule</title>
<polygon fill="#8dd3c7" stroke="black" points="1118.74,-187 1115.74,-191 1094.74,-191 1091.74,-187 1011.26,-187 1011.26,-151 1118.74,-151 1118.74,-187"/>
<text text-anchor="middle" x="1065" y="-164.8" font-family="Times,serif" font-size="14.00">IssuanceModule</text>
</g>
<!-- ConfigurationModule&#45;&gt;IssuanceModule -->
<g id="edge1" class="edge">
<title>ConfigurationModule&#45;&gt;IssuanceModule</title>
<path fill="none" stroke="black" d="M1705,-122.28C1705,-143.32 1705,-175 1705,-175 1705,-175 1129.01,-175 1129.01,-175"/>
<polygon fill="black" stroke="black" points="1129.01,-171.5 1119.01,-175 1129.01,-178.5 1129.01,-171.5"/>
</g>
<!-- CryptoModule -->
<g id="node2" class="node">
<title>CryptoModule</title>
<polygon fill="#8dd3c7" stroke="black" points="1618.44,-122 1615.44,-126 1594.44,-126 1591.44,-122 1519.56,-122 1519.56,-86 1618.44,-86 1618.44,-122"/>
<text text-anchor="middle" x="1569" y="-99.8" font-family="Times,serif" font-size="14.00">CryptoModule</text>
</g>
<!-- CryptoModule&#45;&gt;IssuanceModule -->
<g id="edge2" class="edge">
<title>CryptoModule&#45;&gt;IssuanceModule</title>
<path fill="none" stroke="black" d="M1569,-122.11C1569,-141.34 1569,-169 1569,-169 1569,-169 1128.94,-169 1128.94,-169"/>
<polygon fill="black" stroke="black" points="1128.94,-165.5 1118.94,-169 1128.94,-172.5 1128.94,-165.5"/>
</g>
<!-- Oid4vpModule -->
<g id="node3" class="node">
<title>Oid4vpModule</title>
<polygon fill="#8dd3c7" stroke="black" points="1501.55,-122 1498.55,-126 1477.55,-126 1474.55,-122 1400.45,-122 1400.45,-86 1501.55,-86 1501.55,-122"/>
<text text-anchor="middle" x="1451" y="-99.8" font-family="Times,serif" font-size="14.00">Oid4vpModule</text>
</g>
<!-- Oid4vpModule&#45;&gt;IssuanceModule -->
<g id="edge3" class="edge">
<title>Oid4vpModule&#45;&gt;IssuanceModule</title>
<path fill="none" stroke="black" d="M1451,-122.02C1451,-139.37 1451,-163 1451,-163 1451,-163 1129.08,-163 1129.08,-163"/>
<polygon fill="black" stroke="black" points="1129.08,-159.5 1119.08,-163 1129.08,-166.5 1129.08,-159.5"/>
</g>
<!-- PresentationsModule -->
<g id="node4" class="node">
<title>PresentationsModule</title>
<polygon fill="#8dd3c7" stroke="black" points="1382.2,-122 1379.2,-126 1358.2,-126 1355.2,-122 1247.8,-122 1247.8,-86 1382.2,-86 1382.2,-122"/>
<text text-anchor="middle" x="1315" y="-99.8" font-family="Times,serif" font-size="14.00">PresentationsModule</text>
</g>
<!-- PresentationsModule&#45;&gt;IssuanceModule -->
<g id="edge4" class="edge">
<title>PresentationsModule&#45;&gt;IssuanceModule</title>
<path fill="none" stroke="black" d="M1273.81,-122.24C1273.81,-137.57 1273.81,-157 1273.81,-157 1273.81,-157 1128.77,-157 1128.77,-157"/>
<polygon fill="black" stroke="black" points="1128.77,-153.5 1118.77,-157 1128.77,-160.5 1128.77,-153.5"/>
</g>
<!-- SessionModule -->
<g id="node5" class="node">
<title>SessionModule</title>
<polygon fill="#8dd3c7" stroke="black" points="1230.33,-122 1227.33,-126 1206.33,-126 1203.33,-122 1127.67,-122 1127.67,-86 1230.33,-86 1230.33,-122"/>
<text text-anchor="middle" x="1179" y="-99.8" font-family="Times,serif" font-size="14.00">SessionModule</text>
</g>
<!-- SessionModule&#45;&gt;IssuanceModule -->
<g id="edge5" class="edge">
<title>SessionModule&#45;&gt;IssuanceModule</title>
<path fill="none" stroke="black" d="M1127.63,-104C1119.77,-104 1114.21,-104 1114.21,-104 1114.21,-104 1114.21,-140.89 1114.21,-140.89"/>
<polygon fill="black" stroke="black" points="1110.71,-140.89 1114.21,-150.89 1117.71,-140.89 1110.71,-140.89"/>
</g>
<!-- TrustModule -->
<g id="node6" class="node">
<title>TrustModule</title>
<polygon fill="#8dd3c7" stroke="black" points="1109.6,-122 1106.6,-126 1085.6,-126 1082.6,-122 1020.4,-122 1020.4,-86 1109.6,-86 1109.6,-122"/>
<text text-anchor="middle" x="1065" y="-99.8" font-family="Times,serif" font-size="14.00">TrustModule</text>
</g>
<!-- TrustModule&#45;&gt;IssuanceModule -->
<g id="edge6" class="edge">
<title>TrustModule&#45;&gt;IssuanceModule</title>
<path fill="none" stroke="black" d="M1065,-122.11C1065,-122.11 1065,-140.99 1065,-140.99"/>
<polygon fill="black" stroke="black" points="1061.5,-140.99 1065,-150.99 1068.5,-140.99 1061.5,-140.99"/>
</g>
<!-- AuthorizeService  -->
<g id="node8" class="node">
<title>AuthorizeService </title>
<polygon fill="#fb8072" stroke="black" points="1299.96,-252 1182.04,-252 1182.04,-216 1299.96,-216 1299.96,-252"/>
<text text-anchor="middle" x="1241" y="-229.8" font-family="Times,serif" font-size="14.00">AuthorizeService </text>
</g>
<!-- IssuanceModule&#45;&gt;AuthorizeService  -->
<g id="edge7" class="edge">
<title>IssuanceModule&#45;&gt;AuthorizeService </title>
<path fill="none" stroke="black" stroke-dasharray="5,2" d="M1118.79,-181C1158.7,-181 1206.22,-181 1206.22,-181 1206.22,-181 1206.22,-205.76 1206.22,-205.76"/>
<polygon fill="black" stroke="black" points="1202.72,-205.76 1206.22,-215.76 1209.72,-205.76 1202.72,-205.76"/>
</g>
<!-- InteractiveAuthorizationService  -->
<g id="node9" class="node">
<title>InteractiveAuthorizationService </title>
<polygon fill="#fb8072" stroke="black" points="1164.59,-252 965.41,-252 965.41,-216 1164.59,-216 1164.59,-252"/>
<text text-anchor="middle" x="1065" y="-229.8" font-family="Times,serif" font-size="14.00">InteractiveAuthorizationService </text>
</g>
<!-- IssuanceModule&#45;&gt;InteractiveAuthorizationService  -->
<g id="edge8" class="edge">
<title>IssuanceModule&#45;&gt;InteractiveAuthorizationService </title>
<path fill="none" stroke="black" stroke-dasharray="5,2" d="M1065,-187.11C1065,-187.11 1065,-205.99 1065,-205.99"/>
<polygon fill="black" stroke="black" points="1061.5,-205.99 1065,-215.99 1068.5,-205.99 1061.5,-205.99"/>
</g>
<!-- Oid4vciService  -->
<g id="node10" class="node">
<title>Oid4vciService </title>
<polygon fill="#fb8072" stroke="black" points="947.08,-252 840.92,-252 840.92,-216 947.08,-216 947.08,-252"/>
<text text-anchor="middle" x="894" y="-229.8" font-family="Times,serif" font-size="14.00">Oid4vciService </text>
</g>
<!-- IssuanceModule&#45;&gt;Oid4vciService  -->
<g id="edge9" class="edge">
<title>IssuanceModule&#45;&gt;Oid4vciService </title>
<path fill="none" stroke="black" stroke-dasharray="5,2" d="M1010.89,-181C960.8,-181 894,-181 894,-181 894,-181 894,-205.76 894,-205.76"/>
<polygon fill="black" stroke="black" points="890.5,-205.76 894,-215.76 897.5,-205.76 890.5,-205.76"/>
</g>
<!-- AuthorizeService -->
<g id="node11" class="node">
<title>AuthorizeService</title>
<ellipse fill="#fdb462" stroke="black" cx="917" cy="-104" rx="78.71" ry="18"/>
<text text-anchor="middle" x="917" y="-99.8" font-family="Times,serif" font-size="14.00">AuthorizeService</text>
</g>
<!-- AuthorizeService&#45;&gt;IssuanceModule -->
<g id="edge10" class="edge">
<title>AuthorizeService&#45;&gt;IssuanceModule</title>
<path fill="none" stroke="black" d="M995.8,-104C1007.54,-104 1015.79,-104 1015.79,-104 1015.79,-104 1015.79,-140.89 1015.79,-140.89"/>
<polygon fill="black" stroke="black" points="1012.29,-140.89 1015.79,-150.89 1019.29,-140.89 1012.29,-140.89"/>
</g>
<!-- InteractiveAuthorizationService -->
<g id="node12" class="node">
<title>InteractiveAuthorizationService</title>
<ellipse fill="#fdb462" stroke="black" cx="685" cy="-104" rx="134.83" ry="18"/>
<text text-anchor="middle" x="685" y="-99.8" font-family="Times,serif" font-size="14.00">InteractiveAuthorizationService</text>
</g>
<!-- InteractiveAuthorizationService&#45;&gt;IssuanceModule -->
<g id="edge11" class="edge">
<title>InteractiveAuthorizationService&#45;&gt;IssuanceModule</title>
<path fill="none" stroke="black" d="M685,-122.24C685,-137.57 685,-157 685,-157 685,-157 1000.96,-157 1000.96,-157"/>
<polygon fill="black" stroke="black" points="1000.96,-160.5 1010.96,-157 1000.96,-153.5 1000.96,-160.5"/>
</g>
<!-- Oid4vciService -->
<g id="node13" class="node">
<title>Oid4vciService</title>
<ellipse fill="#fdb462" stroke="black" cx="461" cy="-104" rx="71.21" ry="18"/>
<text text-anchor="middle" x="461" y="-99.8" font-family="Times,serif" font-size="14.00">Oid4vciService</text>
</g>
<!-- Oid4vciService&#45;&gt;IssuanceModule -->
<g id="edge12" class="edge">
<title>Oid4vciService&#45;&gt;IssuanceModule</title>
<path fill="none" stroke="black" d="M461,-122.02C461,-139.37 461,-163 461,-163 461,-163 1001.13,-163 1001.13,-163"/>
<polygon fill="black" stroke="black" points="1001.13,-166.5 1011.13,-163 1001.13,-159.5 1001.13,-166.5"/>
</g>
<!-- WebhookService -->
<g id="node14" class="node">
<title>WebhookService</title>
<ellipse fill="#fdb462" stroke="black" cx="294" cy="-104" rx="77.57" ry="18"/>
<text text-anchor="middle" x="294" y="-99.8" font-family="Times,serif" font-size="14.00">WebhookService</text>
</g>
<!-- WebhookService&#45;&gt;IssuanceModule -->
<g id="edge13" class="edge">
<title>WebhookService&#45;&gt;IssuanceModule</title>
<path fill="none" stroke="black" d="M294,-122.11C294,-141.34 294,-169 294,-169 294,-169 1001.09,-169 1001.09,-169"/>
<polygon fill="black" stroke="black" points="1001.09,-172.5 1011.09,-169 1001.09,-165.5 1001.09,-172.5"/>
</g>
<!-- WellKnownService -->
<g id="node15" class="node">
<title>WellKnownService</title>
<ellipse fill="#fdb462" stroke="black" cx="111" cy="-104" rx="87.38" ry="18"/>
<text text-anchor="middle" x="111" y="-99.8" font-family="Times,serif" font-size="14.00">WellKnownService</text>
</g>
<!-- WellKnownService&#45;&gt;IssuanceModule -->
<g id="edge14" class="edge">
<title>WellKnownService&#45;&gt;IssuanceModule</title>
<path fill="none" stroke="black" d="M111,-122.28C111,-143.32 111,-175 111,-175 111,-175 1000.98,-175 1000.98,-175"/>
<polygon fill="black" stroke="black" points="1000.98,-178.5 1010.98,-175 1000.98,-171.5 1000.98,-178.5"/>
</g>
</g>
</svg>
