<?xml version="1.0" encoding="UTF-8" standalone="no"?>
<!DOCTYPE svg PUBLIC "-//W3C//DTD SVG 1.1//EN"
 "http://www.w3.org/Graphics/SVG/1.1/DTD/svg11.dtd">
<!-- Generated by graphviz version 2.47.0 (20210316.0004)
 -->
<!-- Title: dependencies Pages: 1 -->
<svg width="1288pt" height="284pt"
 viewBox="0.00 0.00 1288.00 284.00" xmlns="http://www.w3.org/2000/svg" xmlns:xlink="http://www.w3.org/1999/xlink">
<g id="graph0" class="graph" transform="scale(1 1) rotate(0) translate(4 280)">
<title>dependencies</title>
<polygon fill="white" stroke="transparent" points="-4,4 -4,-280 1284,-280 1284,4 -4,4"/>
<text text-anchor="start" x="619.01" y="-42.4" font-family="Times-12" font-weight="bold" font-size="14.00">Legend</text>
<polygon fill="#ffffb3" stroke="transparent" points="406,-10 406,-30 426,-30 426,-10 406,-10"/>
<text text-anchor="start" x="429.63" y="-15.4" font-family="Times-12" font-size="14.00"> &#160;Declarations</text>
<polygon fill="#8dd3c7" stroke="transparent" points="519,-10 519,-30 539,-30 539,-10 519,-10"/>
<text text-anchor="start" x="542.73" y="-15.4" font-family="Times-12" font-size="14.00"> &#160;Module</text>
<polygon fill="#80b1d3" stroke="transparent" points="605,-10 605,-30 625,-30 625,-10 605,-10"/>
<text text-anchor="start" x="628.78" y="-15.4" font-family="Times-12" font-size="14.00"> &#160;Bootstrap</text>
<polygon fill="#fdb462" stroke="transparent" points="702,-10 702,-30 722,-30 722,-10 702,-10"/>
<text text-anchor="start" x="725.67" y="-15.4" font-family="Times-12" font-size="14.00"> &#160;Providers</text>
<polygon fill="#fb8072" stroke="transparent" points="798,-10 798,-30 818,-30 818,-10 798,-10"/>
<text text-anchor="start" x="821.73" y="-15.4" font-family="Times-12" font-size="14.00"> &#160;Exports</text>
<g id="clust1" class="cluster">
<title>cluster_TrustModule</title>
<polygon fill="none" stroke="black" stroke-dasharray="1,5" points="8,-70 8,-268 1272,-268 1272,-70 8,-70"/>
</g>
<g id="clust6" class="cluster">
<title>cluster_TrustModule_providers</title>
<polygon fill="none" stroke="black" points="16,-78 16,-130 1264,-130 1264,-78 16,-78"/>
</g>
<g id="clust4" class="cluster">
<title>cluster_TrustModule_exports</title>
<polygon fill="none" stroke="black" points="318,-208 318,-260 982,-260 982,-208 318,-208"/>
</g>
<!-- StatusListVerifierService  -->
<g id="node1" class="node">
<title>StatusListVerifierService </title>
<polygon fill="#fb8072" stroke="black" points="973.78,-252 812.22,-252 812.22,-216 973.78,-216 973.78,-252"/>
<text text-anchor="middle" x="893" y="-229.8" font-family="Times,serif" font-size="14.00">StatusListVerifierService </text>
</g>
<!-- TrustStoreService  -->
<g id="node2" class="node">
<title>TrustStoreService </title>
<polygon fill="#fb8072" stroke="black" points="794.08,-252 673.92,-252 673.92,-216 794.08,-216 794.08,-252"/>
<text text-anchor="middle" x="734" y="-229.8" font-family="Times,serif" font-size="14.00">TrustStoreService </text>
</g>
<!-- WalletAttestationService  -->
<g id="node3" class="node">
<title>WalletAttestationService </title>
<polygon fill="#fb8072" stroke="black" points="656.23,-252 495.77,-252 495.77,-216 656.23,-216 656.23,-252"/>
<text text-anchor="middle" x="576" y="-229.8" font-family="Times,serif" font-size="14.00">WalletAttestationService </text>
</g>
<!-- X509ValidationService  -->
<g id="node4" class="node">
<title>X509ValidationService </title>
<polygon fill="#fb8072" stroke="black" points="477.68,-252 326.32,-252 326.32,-216 477.68,-216 477.68,-252"/>
<text text-anchor="middle" x="402" y="-229.8" font-family="Times,serif" font-size="14.00">X509ValidationService </text>
</g>
<!-- TrustModule -->
<g id="node5" class="node">
<title>TrustModule</title>
<polygon fill="#8dd3c7" stroke="black" points="699.6,-187 696.6,-191 675.6,-191 672.6,-187 610.4,-187 610.4,-151 699.6,-151 699.6,-187"/>
<text text-anchor="middle" x="655" y="-164.8" font-family="Times,serif" font-size="14.00">TrustModule</text>
</g>
<!-- TrustModule&#45;&gt;StatusListVerifierService  -->
<g id="edge1" class="edge">
<title>TrustModule&#45;&gt;StatusListVerifierService </title>
<path fill="none" stroke="black" stroke-dasharray="5,2" d="M699.65,-178C750.01,-178 824.96,-178 824.96,-178 824.96,-178 824.96,-205.97 824.96,-205.97"/>
<polygon fill="black" stroke="black" points="821.46,-205.97 824.96,-215.97 828.46,-205.97 821.46,-205.97"/>
</g>
<!-- TrustModule&#45;&gt;TrustStoreService  -->
<g id="edge2" class="edge">
<title>TrustModule&#45;&gt;TrustStoreService </title>
<path fill="none" stroke="black" stroke-dasharray="5,2" d="M686.63,-187.11C686.63,-187.11 686.63,-205.99 686.63,-205.99"/>
<polygon fill="black" stroke="black" points="683.13,-205.99 686.63,-215.99 690.13,-205.99 683.13,-205.99"/>
</g>
<!-- TrustModule&#45;&gt;WalletAttestationService  -->
<g id="edge3" class="edge">
<title>TrustModule&#45;&gt;WalletAttestationService </title>
<path fill="none" stroke="black" stroke-dasharray="5,2" d="M633.28,-187.11C633.28,-187.11 633.28,-205.99 633.28,-205.99"/>
<polygon fill="black" stroke="black" points="629.78,-205.99 633.28,-215.99 636.78,-205.99 629.78,-205.99"/>
</g>
<!-- TrustModule&#45;&gt;X509ValidationService  -->
<g id="edge4" class="edge">
<title>TrustModule&#45;&gt;X509ValidationService </title>
<path fill="none" stroke="black" stroke-dasharray="5,2" d="M610.21,-178C555.45,-178 469.97,-178 469.97,-178 469.97,-178 469.97,-205.97 469.97,-205.97"/>
<polygon fill="black" stroke="black" points="466.47,-205.97 469.97,-215.97 473.47,-205.97 466.47,-205.97"/>
</g>
<!-- LoteParserService -->
<g id="node6" class="node">
<title>LoteParserService</title>
<ellipse fill="#fdb462" stroke="black" cx="1174" cy="-104" rx="81.63" ry="18"/>
<text text-anchor="middle" x="1174" y="-99.8" font-family="Times,serif" font-size="14.00">LoteParserService</text>
</g>
<!-- LoteParserService&#45;&gt;TrustModule -->
<g id="edge5" class="edge">
<title>LoteParserService&#45;&gt;TrustModule</title>
<path fill="none" stroke="black" d="M1174,-122.11C1174,-141.34 1174,-169 1174,-169 1174,-169 709.7,-169 709.7,-169"/>
<polygon fill="black" stroke="black" points="709.7,-165.5 699.7,-169 709.7,-172.5 709.7,-165.5"/>
</g>
<!-- StatusListVerifierService -->
<g id="node7" class="node">
<title>StatusListVerifierService</title>
<ellipse fill="#fdb462" stroke="black" cx="965" cy="-104" rx="109.35" ry="18"/>
<text text-anchor="middle" x="965" y="-99.8" font-family="Times,serif" font-size="14.00">StatusListVerifierService</text>
</g>
<!-- StatusListVerifierService&#45;&gt;TrustModule -->
<g id="edge6" class="edge">
<title>StatusListVerifierService&#45;&gt;TrustModule</title>
<path fill="none" stroke="black" d="M914.86,-120.2C914.86,-136.74 914.86,-160 914.86,-160 914.86,-160 709.67,-160 709.67,-160"/>
<polygon fill="black" stroke="black" points="709.67,-156.5 699.67,-160 709.67,-163.5 709.67,-156.5"/>
</g>
<!-- TrustListJwtService -->
<g id="node8" class="node">
<title>TrustListJwtService</title>
<ellipse fill="#fdb462" stroke="black" cx="749" cy="-104" rx="88.61" ry="18"/>
<text text-anchor="middle" x="749" y="-99.8" font-family="Times,serif" font-size="14.00">TrustListJwtService</text>
</g>
<!-- TrustListJwtService&#45;&gt;TrustModule -->
<g id="edge7" class="edge">
<title>TrustListJwtService&#45;&gt;TrustModule</title>
<path fill="none" stroke="black" d="M679.87,-115.32C679.87,-115.32 679.87,-140.94 679.87,-140.94"/>
<polygon fill="black" stroke="black" points="676.37,-140.94 679.87,-150.94 683.37,-140.94 676.37,-140.94"/>
</g>
<!-- TrustStoreService -->
<g id="node9" class="node">
<title>TrustStoreService</title>
<ellipse fill="#fdb462" stroke="black" cx="561" cy="-104" rx="80.51" ry="18"/>
<text text-anchor="middle" x="561" y="-99.8" font-family="Times,serif" font-size="14.00">TrustStoreService</text>
</g>
<!-- TrustStoreService&#45;&gt;TrustModule -->
<g id="edge8" class="edge">
<title>TrustStoreService&#45;&gt;TrustModule</title>
<path fill="none" stroke="black" d="M626.1,-114.73C626.1,-114.73 626.1,-140.87 626.1,-140.87"/>
<polygon fill="black" stroke="black" points="622.6,-140.87 626.1,-150.87 629.6,-140.87 622.6,-140.87"/>
</g>
<!-- WalletAttestationService -->
<g id="node10" class="node">
<title>WalletAttestationService</title>
<ellipse fill="#fdb462" stroke="black" cx="354" cy="-104" rx="108.21" ry="18"/>
<text text-anchor="middle" x="354" y="-99.8" font-family="Times,serif" font-size="14.00">WalletAttestationService</text>
</g>
<!-- WalletAttestationService&#45;&gt;TrustModule -->
<g id="edge9" class="edge">
<title>WalletAttestationService&#45;&gt;TrustModule</title>
<path fill="none" stroke="black" d="M394.13,-120.8C394.13,-137.3 394.13,-160 394.13,-160 394.13,-160 600.16,-160 600.16,-160"/>
<polygon fill="black" stroke="black" points="600.16,-163.5 610.16,-160 600.16,-156.5 600.16,-163.5"/>
</g>
<!-- X509ValidationService -->
<g id="node11" class="node">
<title>X509ValidationService</title>
<ellipse fill="#fdb462" stroke="black" cx="126" cy="-104" rx="102.43" ry="18"/>
<text text-anchor="middle" x="126" y="-99.8" font-family="Times,serif" font-size="14.00">X509ValidationService</text>
</g>
<!-- X509ValidationService&#45;&gt;TrustModule -->
<g id="edge10" class="edge">
<title>X509ValidationService&#45;&gt;TrustModule</title>
<path fill="none" stroke="black" d="M126,-122.11C126,-141.34 126,-169 126,-169 126,-169 600.35,-169 600.35,-169"/>
<polygon fill="black" stroke="black" points="600.35,-172.5 610.35,-169 600.35,-165.5 600.35,-172.5"/>
</g>
</g>
</svg>
