<?xml version="1.0" encoding="UTF-8" standalone="no"?>
<!DOCTYPE svg PUBLIC "-//W3C//DTD SVG 1.1//EN"
 "http://www.w3.org/Graphics/SVG/1.1/DTD/svg11.dtd">
<!-- Generated by graphviz version 2.47.0 (20210316.0004)
 -->
<!-- Title: dependencies Pages: 1 -->
<svg width="919pt" height="284pt"
 viewBox="0.00 0.00 919.00 284.00" xmlns="http://www.w3.org/2000/svg" xmlns:xlink="http://www.w3.org/1999/xlink">
<g id="graph0" class="graph" transform="scale(1 1) rotate(0) translate(4 280)">
<title>dependencies</title>
<polygon fill="white" stroke="transparent" points="-4,4 -4,-280 915,-280 915,4 -4,4"/>
<text text-anchor="start" x="434.51" y="-42.4" font-family="Times-12" font-weight="bold" font-size="14.00">Legend</text>
<polygon fill="#ffffb3" stroke="transparent" points="221.5,-10 221.5,-30 241.5,-30 241.5,-10 221.5,-10"/>
<text text-anchor="start" x="245.13" y="-15.4" font-family="Times-12" font-size="14.00"> &#160;Declarations</text>
<polygon fill="#8dd3c7" stroke="transparent" points="334.5,-10 334.5,-30 354.5,-30 354.5,-10 334.5,-10"/>
<text text-anchor="start" x="358.23" y="-15.4" font-family="Times-12" font-size="14.00"> &#160;Module</text>
<polygon fill="#80b1d3" stroke="transparent" points="420.5,-10 420.5,-30 440.5,-30 440.5,-10 420.5,-10"/>
<text text-anchor="start" x="444.28" y="-15.4" font-family="Times-12" font-size="14.00"> &#160;Bootstrap</text>
<polygon fill="#fdb462" stroke="transparent" points="517.5,-10 517.5,-30 537.5,-30 537.5,-10 517.5,-10"/>
<text text-anchor="start" x="541.17" y="-15.4" font-family="Times-12" font-size="14.00"> &#160;Providers</text>
<polygon fill="#fb8072" stroke="transparent" points="613.5,-10 613.5,-30 633.5,-30 633.5,-10 613.5,-10"/>
<text text-anchor="start" x="637.23" y="-15.4" font-family="Times-12" font-size="14.00"> &#160;Exports</text>
<g id="clust1" class="cluster">
<title>cluster_TenantModule</title>
<polygon fill="none" stroke="black" stroke-dasharray="1,5" points="8,-70 8,-268 903,-268 903,-70 8,-70"/>
</g>
<g id="clust6" class="cluster">
<title>cluster_TenantModule_providers</title>
<polygon fill="none" stroke="black" points="745,-78 745,-130 895,-130 895,-78 745,-78"/>
</g>
<g id="clust3" class="cluster">
<title>cluster_TenantModule_imports</title>
<polygon fill="none" stroke="black" points="16,-78 16,-195 737,-195 737,-78 16,-78"/>
</g>
<g id="clust4" class="cluster">
<title>cluster_TenantModule_exports</title>
<polygon fill="none" stroke="black" points="453,-208 453,-260 569,-260 569,-208 453,-208"/>
</g>
<!-- ClientModule -->
<g id="node1" class="node">
<title>ClientModule</title>
<polygon fill="#8dd3c7" stroke="black" points="728.77,-122 725.77,-126 704.77,-126 701.77,-122 635.23,-122 635.23,-86 728.77,-86 728.77,-122"/>
<text text-anchor="middle" x="682" y="-99.8" font-family="Times,serif" font-size="14.00">ClientModule</text>
</g>
<!-- TenantModule -->
<g id="node7" class="node">
<title>TenantModule</title>
<polygon fill="#8dd3c7" stroke="black" points="560.42,-187 557.42,-191 536.42,-191 533.42,-187 461.58,-187 461.58,-151 560.42,-151 560.42,-187"/>
<text text-anchor="middle" x="511" y="-164.8" font-family="Times,serif" font-size="14.00">TenantModule</text>
</g>
<!-- ClientModule&#45;&gt;TenantModule -->
<g id="edge1" class="edge">
<title>ClientModule&#45;&gt;TenantModule</title>
<path fill="none" stroke="black" d="M697.63,-122.11C697.63,-141.34 697.63,-169 697.63,-169 697.63,-169 570.52,-169 570.52,-169"/>
<polygon fill="black" stroke="black" points="570.52,-165.5 560.52,-169 570.52,-172.5 570.52,-165.5"/>
</g>
<!-- ClientModule&#45;&gt;TenantModule -->
<g id="edge2" class="edge">
<title>ClientModule&#45;&gt;TenantModule</title>
<path fill="none" stroke="black" d="M666.37,-122.03C666.37,-138.4 666.37,-160 666.37,-160 666.37,-160 570.59,-160 570.59,-160"/>
<polygon fill="black" stroke="black" points="570.59,-156.5 560.59,-160 570.59,-163.5 570.59,-156.5"/>
</g>
<!-- CryptoModule -->
<g id="node2" class="node">
<title>CryptoModule</title>
<polygon fill="#8dd3c7" stroke="black" points="617.44,-122 614.44,-126 593.44,-126 590.44,-122 518.56,-122 518.56,-86 617.44,-86 617.44,-122"/>
<text text-anchor="middle" x="568" y="-99.8" font-family="Times,serif" font-size="14.00">CryptoModule</text>
</g>
<!-- CryptoModule&#45;&gt;TenantModule -->
<g id="edge3" class="edge">
<title>CryptoModule&#45;&gt;TenantModule</title>
<path fill="none" stroke="black" d="M539.5,-122.11C539.5,-122.11 539.5,-140.99 539.5,-140.99"/>
<polygon fill="black" stroke="black" points="536,-140.99 539.5,-150.99 543,-140.99 536,-140.99"/>
</g>
<!-- IssuerModule -->
<g id="node3" class="node">
<title>IssuerModule</title>
<polygon fill="#8dd3c7" stroke="black" points="500.47,-122 497.47,-126 476.47,-126 473.47,-122 407.53,-122 407.53,-86 500.47,-86 500.47,-122"/>
<text text-anchor="middle" x="454" y="-99.8" font-family="Times,serif" font-size="14.00">IssuerModule</text>
</g>
<!-- IssuerModule&#45;&gt;TenantModule -->
<g id="edge4" class="edge">
<title>IssuerModule&#45;&gt;TenantModule</title>
<path fill="none" stroke="black" d="M487.59,-122.11C487.59,-122.11 487.59,-140.99 487.59,-140.99"/>
<polygon fill="black" stroke="black" points="484.09,-140.99 487.59,-150.99 491.09,-140.99 484.09,-140.99"/>
</g>
<!-- RegistrarModule -->
<g id="node4" class="node">
<title>RegistrarModule</title>
<polygon fill="#8dd3c7" stroke="black" points="389.36,-122 386.36,-126 365.36,-126 362.36,-122 278.64,-122 278.64,-86 389.36,-86 389.36,-122"/>
<text text-anchor="middle" x="334" y="-99.8" font-family="Times,serif" font-size="14.00">RegistrarModule</text>
</g>
<!-- RegistrarModule&#45;&gt;TenantModule -->
<g id="edge5" class="edge">
<title>RegistrarModule&#45;&gt;TenantModule</title>
<path fill="none" stroke="black" d="M334,-122.03C334,-138.4 334,-160 334,-160 334,-160 451.7,-160 451.7,-160"/>
<polygon fill="black" stroke="black" points="451.7,-163.5 461.7,-160 451.7,-156.5 451.7,-163.5"/>
</g>
<!-- SessionModule -->
<g id="node5" class="node">
<title>SessionModule</title>
<polygon fill="#8dd3c7" stroke="black" points="260.33,-122 257.33,-126 236.33,-126 233.33,-122 157.67,-122 157.67,-86 260.33,-86 260.33,-122"/>
<text text-anchor="middle" x="209" y="-99.8" font-family="Times,serif" font-size="14.00">SessionModule</text>
</g>
<!-- SessionModule&#45;&gt;TenantModule -->
<g id="edge6" class="edge">
<title>SessionModule&#45;&gt;TenantModule</title>
<path fill="none" stroke="black" d="M209,-122.11C209,-141.34 209,-169 209,-169 209,-169 451.47,-169 451.47,-169"/>
<polygon fill="black" stroke="black" points="451.47,-172.5 461.47,-169 451.47,-165.5 451.47,-172.5"/>
</g>
<!-- StatusListModule -->
<g id="node6" class="node">
<title>StatusListModule</title>
<polygon fill="#8dd3c7" stroke="black" points="139.55,-122 136.55,-126 115.55,-126 112.55,-122 24.45,-122 24.45,-86 139.55,-86 139.55,-122"/>
<text text-anchor="middle" x="82" y="-99.8" font-family="Times,serif" font-size="14.00">StatusListModule</text>
</g>
<!-- StatusListModule&#45;&gt;TenantModule -->
<g id="edge7" class="edge">
<title>StatusListModule&#45;&gt;TenantModule</title>
<path fill="none" stroke="black" d="M82,-122.29C82,-144.21 82,-178 82,-178 82,-178 451.79,-178 451.79,-178"/>
<polygon fill="black" stroke="black" points="451.79,-181.5 461.79,-178 451.79,-174.5 451.79,-181.5"/>
</g>
<!-- TenantModule&#45;&gt;TenantModule -->
<g id="edge8" class="edge">
<title>TenantModule&#45;&gt;TenantModule</title>
<path fill="none" stroke="black" d="M474.69,-150.76C474.69,-143.57 474.69,-137 474.69,-137 474.69,-137 434.17,-137 434.17,-137 434.17,-137 434.17,-202 434.17,-202 434.17,-202 494.6,-202 494.6,-202 494.6,-202 494.6,-197.04 494.6,-197.04"/>
<polygon fill="black" stroke="black" points="498.1,-197.04 494.6,-187.04 491.1,-197.04 498.1,-197.04"/>
</g>
<!-- TenantService  -->
<g id="node8" class="node">
<title>TenantService </title>
<polygon fill="#fb8072" stroke="black" points="561.35,-252 460.65,-252 460.65,-216 561.35,-216 561.35,-252"/>
<text text-anchor="middle" x="511" y="-229.8" font-family="Times,serif" font-size="14.00">TenantService </text>
</g>
<!-- TenantModule&#45;&gt;TenantService  -->
<g id="edge9" class="edge">
<title>TenantModule&#45;&gt;TenantService </title>
<path fill="none" stroke="black" stroke-dasharray="5,2" d="M527.4,-187.11C527.4,-187.11 527.4,-205.99 527.4,-205.99"/>
<polygon fill="black" stroke="black" points="523.9,-205.99 527.4,-215.99 530.9,-205.99 523.9,-205.99"/>
</g>
<!-- TenantService -->
<g id="node9" class="node">
<title>TenantService</title>
<ellipse fill="#fdb462" stroke="black" cx="820" cy="-104" rx="66.61" ry="18"/>
<text text-anchor="middle" x="820" y="-99.8" font-family="Times,serif" font-size="14.00">TenantService</text>
</g>
<!-- TenantService&#45;&gt;TenantModule -->
<g id="edge10" class="edge">
<title>TenantService&#45;&gt;TenantModule</title>
<path fill="none" stroke="black" d="M820,-122.29C820,-144.21 820,-178 820,-178 820,-178 570.3,-178 570.3,-178"/>
<polygon fill="black" stroke="black" points="570.3,-174.5 560.3,-178 570.3,-181.5 570.3,-174.5"/>
</g>
</g>
</svg>
