<?xml version="1.0" encoding="UTF-8" standalone="no"?>
<!DOCTYPE svg PUBLIC "-//W3C//DTD SVG 1.1//EN"
 "http://www.w3.org/Graphics/SVG/1.1/DTD/svg11.dtd">
<!-- Generated by graphviz version 2.47.0 (20210316.0004)
 -->
<!-- Title: dependencies Pages: 1 -->
<svg width="505pt" height="284pt"
 viewBox="0.00 0.00 505.00 284.00" xmlns="http://www.w3.org/2000/svg" xmlns:xlink="http://www.w3.org/1999/xlink">
<g id="graph0" class="graph" transform="scale(1 1) rotate(0) translate(4 280)">
<title>dependencies</title>
<polygon fill="white" stroke="transparent" points="-4,4 -4,-280 501,-280 501,4 -4,4"/>
<text text-anchor="start" x="227.51" y="-42.4" font-family="Times-12" font-weight="bold" font-size="14.00">Legend</text>
<polygon fill="#ffffb3" stroke="transparent" points="14.5,-10 14.5,-30 34.5,-30 34.5,-10 14.5,-10"/>
<text text-anchor="start" x="38.13" y="-15.4" font-family="Times-12" font-size="14.00"> &#160;Declarations</text>
<polygon fill="#8dd3c7" stroke="transparent" points="127.5,-10 127.5,-30 147.5,-30 147.5,-10 127.5,-10"/>
<text text-anchor="start" x="151.23" y="-15.4" font-family="Times-12" font-size="14.00"> &#160;Module</text>
<polygon fill="#80b1d3" stroke="transparent" points="213.5,-10 213.5,-30 233.5,-30 233.5,-10 213.5,-10"/>
<text text-anchor="start" x="237.28" y="-15.4" font-family="Times-12" font-size="14.00"> &#160;Bootstrap</text>
<polygon fill="#fdb462" stroke="transparent" points="310.5,-10 310.5,-30 330.5,-30 330.5,-10 310.5,-10"/>
<text text-anchor="start" x="334.17" y="-15.4" font-family="Times-12" font-size="14.00"> &#160;Providers</text>
<polygon fill="#fb8072" stroke="transparent" points="406.5,-10 406.5,-30 426.5,-30 426.5,-10 406.5,-10"/>
<text text-anchor="start" x="430.23" y="-15.4" font-family="Times-12" font-size="14.00"> &#160;Exports</text>
<g id="clust1" class="cluster">
<title>cluster_CryptoModule</title>
<polygon fill="none" stroke="black" stroke-dasharray="1,5" points="8,-70 8,-268 489,-268 489,-70 8,-70"/>
</g>
<g id="clust4" class="cluster">
<title>cluster_CryptoModule_exports</title>
<polygon fill="none" stroke="black" points="75,-208 75,-260 437,-260 437,-208 75,-208"/>
</g>
<g id="clust6" class="cluster">
<title>cluster_CryptoModule_providers</title>
<polygon fill="none" stroke="black" points="16,-78 16,-130 481,-130 481,-78 16,-78"/>
</g>
<!-- CertService  -->
<g id="node1" class="node">
<title>CertService </title>
<polygon fill="#fb8072" stroke="black" points="428.58,-252 343.42,-252 343.42,-216 428.58,-216 428.58,-252"/>
<text text-anchor="middle" x="386" y="-229.8" font-family="Times,serif" font-size="14.00">CertService </text>
</g>
<!-- CryptoService  -->
<g id="node2" class="node">
<title>CryptoService </title>
<polygon fill="#fb8072" stroke="black" points="325.37,-252 224.63,-252 224.63,-216 325.37,-216 325.37,-252"/>
<text text-anchor="middle" x="275" y="-229.8" font-family="Times,serif" font-size="14.00">CryptoService </text>
</g>
<!-- EncryptionService  -->
<g id="node3" class="node">
<title>EncryptionService </title>
<polygon fill="#fb8072" stroke="black" points="206.69,-252 83.31,-252 83.31,-216 206.69,-216 206.69,-252"/>
<text text-anchor="middle" x="145" y="-229.8" font-family="Times,serif" font-size="14.00">EncryptionService </text>
</g>
<!-- CryptoModule -->
<g id="node4" class="node">
<title>CryptoModule</title>
<polygon fill="#8dd3c7" stroke="black" points="324.44,-187 321.44,-191 300.44,-191 297.44,-187 225.56,-187 225.56,-151 324.44,-151 324.44,-187"/>
<text text-anchor="middle" x="275" y="-164.8" font-family="Times,serif" font-size="14.00">CryptoModule</text>
</g>
<!-- CryptoModule&#45;&gt;CertService  -->
<g id="edge1" class="edge">
<title>CryptoModule&#45;&gt;CertService </title>
<path fill="none" stroke="black" stroke-dasharray="5,2" d="M324.61,-175C339.18,-175 351.3,-175 351.3,-175 351.3,-175 351.3,-205.98 351.3,-205.98"/>
<polygon fill="black" stroke="black" points="347.8,-205.98 351.3,-215.98 354.8,-205.98 347.8,-205.98"/>
</g>
<!-- CryptoModule&#45;&gt;CryptoService  -->
<g id="edge2" class="edge">
<title>CryptoModule&#45;&gt;CryptoService </title>
<path fill="none" stroke="black" stroke-dasharray="5,2" d="M275,-187.11C275,-187.11 275,-205.99 275,-205.99"/>
<polygon fill="black" stroke="black" points="271.5,-205.99 275,-215.99 278.5,-205.99 271.5,-205.99"/>
</g>
<!-- CryptoModule&#45;&gt;EncryptionService  -->
<g id="edge3" class="edge">
<title>CryptoModule&#45;&gt;EncryptionService </title>
<path fill="none" stroke="black" stroke-dasharray="5,2" d="M225.6,-175C210.78,-175 198.37,-175 198.37,-175 198.37,-175 198.37,-205.98 198.37,-205.98"/>
<polygon fill="black" stroke="black" points="194.87,-205.98 198.37,-215.98 201.87,-205.98 194.87,-205.98"/>
</g>
<!-- CertService -->
<g id="node5" class="node">
<title>CertService</title>
<ellipse fill="#fdb462" stroke="black" cx="416" cy="-104" rx="56.73" ry="18"/>
<text text-anchor="middle" x="416" y="-99.8" font-family="Times,serif" font-size="14.00">CertService</text>
</g>
<!-- CertService&#45;&gt;CryptoModule -->
<g id="edge4" class="edge">
<title>CertService&#45;&gt;CryptoModule</title>
<path fill="none" stroke="black" d="M394.09,-120.75C394.09,-138.19 394.09,-163 394.09,-163 394.09,-163 334.47,-163 334.47,-163"/>
<polygon fill="black" stroke="black" points="334.47,-159.5 324.47,-163 334.47,-166.5 334.47,-159.5"/>
</g>
<!-- CryptoService -->
<g id="node6" class="node">
<title>CryptoService</title>
<ellipse fill="#fdb462" stroke="black" cx="275" cy="-104" rx="66.63" ry="18"/>
<text text-anchor="middle" x="275" y="-99.8" font-family="Times,serif" font-size="14.00">CryptoService</text>
</g>
<!-- CryptoService&#45;&gt;CryptoModule -->
<g id="edge5" class="edge">
<title>CryptoService&#45;&gt;CryptoModule</title>
<path fill="none" stroke="black" d="M275,-122.11C275,-122.11 275,-140.99 275,-140.99"/>
<polygon fill="black" stroke="black" points="271.5,-140.99 275,-150.99 278.5,-140.99 271.5,-140.99"/>
</g>
<!-- EncryptionService -->
<g id="node7" class="node">
<title>EncryptionService</title>
<ellipse fill="#fdb462" stroke="black" cx="107" cy="-104" rx="82.81" ry="18"/>
<text text-anchor="middle" x="107" y="-99.8" font-family="Times,serif" font-size="14.00">EncryptionService</text>
</g>
<!-- EncryptionService&#45;&gt;CryptoModule -->
<g id="edge6" class="edge">
<title>EncryptionService&#45;&gt;CryptoModule</title>
<path fill="none" stroke="black" d="M136.53,-121.07C136.53,-138.49 136.53,-163 136.53,-163 136.53,-163 215.4,-163 215.4,-163"/>
<polygon fill="black" stroke="black" points="215.4,-166.5 225.4,-163 215.4,-159.5 215.4,-166.5"/>
</g>
</g>
</svg>
