<?xml version="1.0" encoding="UTF-8" standalone="no"?>
<!DOCTYPE svg PUBLIC "-//W3C//DTD SVG 1.1//EN"
 "http://www.w3.org/Graphics/SVG/1.1/DTD/svg11.dtd">
<!-- Generated by graphviz version 2.47.0 (20210316.0004)
 -->
<!-- Title: dependencies Pages: 1 -->
<svg width="1509pt" height="284pt"
 viewBox="0.00 0.00 1509.00 284.00" xmlns="http://www.w3.org/2000/svg" xmlns:xlink="http://www.w3.org/1999/xlink">
<g id="graph0" class="graph" transform="scale(1 1) rotate(0) translate(4 280)">
<title>dependencies</title>
<polygon fill="white" stroke="transparent" points="-4,4 -4,-280 1505,-280 1505,4 -4,4"/>
<text text-anchor="start" x="729.51" y="-42.4" font-family="Times-12" font-weight="bold" font-size="14.00">Legend</text>
<polygon fill="#ffffb3" stroke="transparent" points="516.5,-10 516.5,-30 536.5,-30 536.5,-10 516.5,-10"/>
<text text-anchor="start" x="540.13" y="-15.4" font-family="Times-12" font-size="14.00"> &#160;Declarations</text>
<polygon fill="#8dd3c7" stroke="transparent" points="629.5,-10 629.5,-30 649.5,-30 649.5,-10 629.5,-10"/>
<text text-anchor="start" x="653.23" y="-15.4" font-family="Times-12" font-size="14.00"> &#160;Module</text>
<polygon fill="#80b1d3" stroke="transparent" points="715.5,-10 715.5,-30 735.5,-30 735.5,-10 715.5,-10"/>
<text text-anchor="start" x="739.28" y="-15.4" font-family="Times-12" font-size="14.00"> &#160;Bootstrap</text>
<polygon fill="#fdb462" stroke="transparent" points="812.5,-10 812.5,-30 832.5,-30 832.5,-10 812.5,-10"/>
<text text-anchor="start" x="836.17" y="-15.4" font-family="Times-12" font-size="14.00"> &#160;Providers</text>
<polygon fill="#fb8072" stroke="transparent" points="908.5,-10 908.5,-30 928.5,-30 928.5,-10 908.5,-10"/>
<text text-anchor="start" x="932.23" y="-15.4" font-family="Times-12" font-size="14.00"> &#160;Exports</text>
<g id="clust1" class="cluster">
<title>cluster_TrustModule</title>
<polygon fill="none" stroke="black" stroke-dasharray="1,5" points="8,-70 8,-268 1493,-268 1493,-70 8,-70"/>
</g>
<g id="clust4" class="cluster">
<title>cluster_TrustModule_exports</title>
<polygon fill="none" stroke="black" points="333,-208 333,-260 1165,-260 1165,-208 333,-208"/>
</g>
<g id="clust6" class="cluster">
<title>cluster_TrustModule_providers</title>
<polygon fill="none" stroke="black" points="16,-78 16,-130 1485,-130 1485,-78 16,-78"/>
</g>
<!-- FederationTrustService  -->
<g id="node1" class="node">
<title>FederationTrustService </title>
<polygon fill="#fb8072" stroke="black" points="1157.39,-252 1006.61,-252 1006.61,-216 1157.39,-216 1157.39,-252"/>
<text text-anchor="middle" x="1082" y="-229.8" font-family="Times,serif" font-size="14.00">FederationTrustService </text>
</g>
<!-- StatusListVerifierService  -->
<g id="node2" class="node">
<title>StatusListVerifierService </title>
<polygon fill="#fb8072" stroke="black" points="988.78,-252 827.22,-252 827.22,-216 988.78,-216 988.78,-252"/>
<text text-anchor="middle" x="908" y="-229.8" font-family="Times,serif" font-size="14.00">StatusListVerifierService </text>
</g>
<!-- TrustStoreService  -->
<g id="node3" class="node">
<title>TrustStoreService </title>
<polygon fill="#fb8072" stroke="black" points="809.08,-252 688.92,-252 688.92,-216 809.08,-216 809.08,-252"/>
<text text-anchor="middle" x="749" y="-229.8" font-family="Times,serif" font-size="14.00">TrustStoreService </text>
</g>
<!-- WalletAttestationService  -->
<g id="node4" class="node">
<title>WalletAttestationService </title>
<polygon fill="#fb8072" stroke="black" points="671.23,-252 510.77,-252 510.77,-216 671.23,-216 671.23,-252"/>
<text text-anchor="middle" x="591" y="-229.8" font-family="Times,serif" font-size="14.00">WalletAttestationService </text>
</g>
<!-- X509ValidationService  -->
<g id="node5" class="node">
<title>X509ValidationService </title>
<polygon fill="#fb8072" stroke="black" points="492.68,-252 341.32,-252 341.32,-216 492.68,-216 492.68,-252"/>
<text text-anchor="middle" x="417" y="-229.8" font-family="Times,serif" font-size="14.00">X509ValidationService </text>
</g>
<!-- TrustModule -->
<g id="node6" class="node">
<title>TrustModule</title>
<polygon fill="#8dd3c7" stroke="black" points="793.6,-187 790.6,-191 769.6,-191 766.6,-187 704.4,-187 704.4,-151 793.6,-151 793.6,-187"/>
<text text-anchor="middle" x="749" y="-164.8" font-family="Times,serif" font-size="14.00">TrustModule</text>
</g>
<!-- TrustModule&#45;&gt;FederationTrustService  -->
<g id="edge1" class="edge">
<title>TrustModule&#45;&gt;FederationTrustService </title>
<path fill="none" stroke="black" stroke-dasharray="5,2" d="M793.57,-175C875.19,-175 1040.37,-175 1040.37,-175 1040.37,-175 1040.37,-205.98 1040.37,-205.98"/>
<polygon fill="black" stroke="black" points="1036.87,-205.98 1040.37,-215.98 1043.87,-205.98 1036.87,-205.98"/>
</g>
<!-- TrustModule&#45;&gt;StatusListVerifierService  -->
<g id="edge2" class="edge">
<title>TrustModule&#45;&gt;StatusListVerifierService </title>
<path fill="none" stroke="black" stroke-dasharray="5,2" d="M793.66,-181C813.5,-181 832.46,-181 832.46,-181 832.46,-181 832.46,-205.76 832.46,-205.76"/>
<polygon fill="black" stroke="black" points="828.96,-205.76 832.46,-215.76 835.96,-205.76 828.96,-205.76"/>
</g>
<!-- TrustModule&#45;&gt;TrustStoreService  -->
<g id="edge3" class="edge">
<title>TrustModule&#45;&gt;TrustStoreService </title>
<path fill="none" stroke="black" stroke-dasharray="5,2" d="M749,-187.11C749,-187.11 749,-205.99 749,-205.99"/>
<polygon fill="black" stroke="black" points="745.5,-205.99 749,-215.99 752.5,-205.99 745.5,-205.99"/>
</g>
<!-- TrustModule&#45;&gt;WalletAttestationService  -->
<g id="edge4" class="edge">
<title>TrustModule&#45;&gt;WalletAttestationService </title>
<path fill="none" stroke="black" stroke-dasharray="5,2" d="M704.4,-181C684.58,-181 665.65,-181 665.65,-181 665.65,-181 665.65,-205.76 665.65,-205.76"/>
<polygon fill="black" stroke="black" points="662.15,-205.76 665.65,-215.76 669.15,-205.76 662.15,-205.76"/>
</g>
<!-- TrustModule&#45;&gt;X509ValidationService  -->
<g id="edge5" class="edge">
<title>TrustModule&#45;&gt;X509ValidationService </title>
<path fill="none" stroke="black" stroke-dasharray="5,2" d="M704.18,-175C629.22,-175 486.54,-175 486.54,-175 486.54,-175 486.54,-205.98 486.54,-205.98"/>
<polygon fill="black" stroke="black" points="483.04,-205.98 486.54,-215.98 490.04,-205.98 483.04,-205.98"/>
</g>
<!-- FederationTrustService -->
<g id="node7" class="node">
<title>FederationTrustService</title>
<ellipse fill="#fdb462" stroke="black" cx="1375" cy="-104" rx="101.84" ry="18"/>
<text text-anchor="middle" x="1375" y="-99.8" font-family="Times,serif" font-size="14.00">FederationTrustService</text>
</g>
<!-- FederationTrustService&#45;&gt;TrustModule -->
<g id="edge6" class="edge">
<title>FederationTrustService&#45;&gt;TrustModule</title>
<path fill="none" stroke="black" d="M1375,-122.11C1375,-141.34 1375,-169 1375,-169 1375,-169 804.02,-169 804.02,-169"/>
<polygon fill="black" stroke="black" points="804.02,-165.5 794.02,-169 804.02,-172.5 804.02,-165.5"/>
</g>
<!-- LoteParserService -->
<g id="node8" class="node">
<title>LoteParserService</title>
<ellipse fill="#fdb462" stroke="black" cx="1174" cy="-104" rx="81.63" ry="18"/>
<text text-anchor="middle" x="1174" y="-99.8" font-family="Times,serif" font-size="14.00">LoteParserService</text>
</g>
<!-- LoteParserService&#45;&gt;TrustModule -->
<g id="edge7" class="edge">
<title>LoteParserService&#45;&gt;TrustModule</title>
<path fill="none" stroke="black" d="M1124.82,-118.58C1124.82,-136.06 1124.82,-163 1124.82,-163 1124.82,-163 803.59,-163 803.59,-163"/>
<polygon fill="black" stroke="black" points="803.59,-159.5 793.59,-163 803.59,-166.5 803.59,-159.5"/>
</g>
<!-- StatusListVerifierService -->
<g id="node9" class="node">
<title>StatusListVerifierService</title>
<ellipse fill="#fdb462" stroke="black" cx="965" cy="-104" rx="109.35" ry="18"/>
<text text-anchor="middle" x="965" y="-99.8" font-family="Times,serif" font-size="14.00">StatusListVerifierService</text>
</g>
<!-- StatusListVerifierService&#45;&gt;TrustModule -->
<g id="edge8" class="edge">
<title>StatusListVerifierService&#45;&gt;TrustModule</title>
<path fill="none" stroke="black" d="M922.36,-120.77C922.36,-136.3 922.36,-157 922.36,-157 922.36,-157 803.64,-157 803.64,-157"/>
<polygon fill="black" stroke="black" points="803.64,-153.5 793.64,-157 803.64,-160.5 803.64,-153.5"/>
</g>
<!-- TrustListJwtService -->
<g id="node10" class="node">
<title>TrustListJwtService</title>
<ellipse fill="#fdb462" stroke="black" cx="749" cy="-104" rx="88.61" ry="18"/>
<text text-anchor="middle" x="749" y="-99.8" font-family="Times,serif" font-size="14.00">TrustListJwtService</text>
</g>
<!-- TrustListJwtService&#45;&gt;TrustModule -->
<g id="edge9" class="edge">
<title>TrustListJwtService&#45;&gt;TrustModule</title>
<path fill="none" stroke="black" d="M749,-122.11C749,-122.11 749,-140.99 749,-140.99"/>
<polygon fill="black" stroke="black" points="745.5,-140.99 749,-150.99 752.5,-140.99 745.5,-140.99"/>
</g>
<!-- TrustStoreService -->
<g id="node11" class="node">
<title>TrustStoreService</title>
<ellipse fill="#fdb462" stroke="black" cx="561" cy="-104" rx="80.51" ry="18"/>
<text text-anchor="middle" x="561" y="-99.8" font-family="Times,serif" font-size="14.00">TrustStoreService</text>
</g>
<!-- TrustStoreService&#45;&gt;TrustModule -->
<g id="edge10" class="edge">
<title>TrustStoreService&#45;&gt;TrustModule</title>
<path fill="none" stroke="black" d="M576.32,-121.94C576.32,-137.32 576.32,-157 576.32,-157 576.32,-157 694.08,-157 694.08,-157"/>
<polygon fill="black" stroke="black" points="694.08,-160.5 704.08,-157 694.08,-153.5 694.08,-160.5"/>
</g>
<!-- WalletAttestationService -->
<g id="node12" class="node">
<title>WalletAttestationService</title>
<ellipse fill="#fdb462" stroke="black" cx="354" cy="-104" rx="108.21" ry="18"/>
<text text-anchor="middle" x="354" y="-99.8" font-family="Times,serif" font-size="14.00">WalletAttestationService</text>
</g>
<!-- WalletAttestationService&#45;&gt;TrustModule -->
<g id="edge11" class="edge">
<title>WalletAttestationService&#45;&gt;TrustModule</title>
<path fill="none" stroke="black" d="M401.63,-120.43C401.63,-137.89 401.63,-163 401.63,-163 401.63,-163 694.3,-163 694.3,-163"/>
<polygon fill="black" stroke="black" points="694.3,-166.5 704.3,-163 694.3,-159.5 694.3,-166.5"/>
</g>
<!-- X509ValidationService -->
<g id="node13" class="node">
<title>X509ValidationService</title>
<ellipse fill="#fdb462" stroke="black" cx="126" cy="-104" rx="102.43" ry="18"/>
<text text-anchor="middle" x="126" y="-99.8" font-family="Times,serif" font-size="14.00">X509ValidationService</text>
</g>
<!-- X509ValidationService&#45;&gt;TrustModule -->
<g id="edge12" class="edge">
<title>X509ValidationService&#45;&gt;TrustModule</title>
<path fill="none" stroke="black" d="M126,-122.11C126,-141.34 126,-169 126,-169 126,-169 694.2,-169 694.2,-169"/>
<polygon fill="black" stroke="black" points="694.2,-172.5 704.2,-169 694.2,-165.5 694.2,-172.5"/>
</g>
</g>
</svg>
