<?xml version="1.0" encoding="UTF-8" standalone="no"?>
<!DOCTYPE svg PUBLIC "-//W3C//DTD SVG 1.1//EN"
 "http://www.w3.org/Graphics/SVG/1.1/DTD/svg11.dtd">
<!-- Generated by graphviz version 2.47.0 (20210316.0004)
 -->
<!-- Title: dependencies Pages: 1 -->
<svg width="818pt" height="284pt"
 viewBox="0.00 0.00 818.00 284.00" xmlns="http://www.w3.org/2000/svg" xmlns:xlink="http://www.w3.org/1999/xlink">
<g id="graph0" class="graph" transform="scale(1 1) rotate(0) translate(4 280)">
<title>dependencies</title>
<polygon fill="white" stroke="transparent" points="-4,4 -4,-280 814,-280 814,4 -4,4"/>
<text text-anchor="start" x="384.01" y="-42.4" font-family="Times-12" font-weight="bold" font-size="14.00">Legend</text>
<polygon fill="#ffffb3" stroke="transparent" points="171,-10 171,-30 191,-30 191,-10 171,-10"/>
<text text-anchor="start" x="194.63" y="-15.4" font-family="Times-12" font-size="14.00"> &#160;Declarations</text>
<polygon fill="#8dd3c7" stroke="transparent" points="284,-10 284,-30 304,-30 304,-10 284,-10"/>
<text text-anchor="start" x="307.73" y="-15.4" font-family="Times-12" font-size="14.00"> &#160;Module</text>
<polygon fill="#80b1d3" stroke="transparent" points="370,-10 370,-30 390,-30 390,-10 370,-10"/>
<text text-anchor="start" x="393.78" y="-15.4" font-family="Times-12" font-size="14.00"> &#160;Bootstrap</text>
<polygon fill="#fdb462" stroke="transparent" points="467,-10 467,-30 487,-30 487,-10 467,-10"/>
<text text-anchor="start" x="490.67" y="-15.4" font-family="Times-12" font-size="14.00"> &#160;Providers</text>
<polygon fill="#fb8072" stroke="transparent" points="563,-10 563,-30 583,-30 583,-10 563,-10"/>
<text text-anchor="start" x="586.73" y="-15.4" font-family="Times-12" font-size="14.00"> &#160;Exports</text>
<g id="clust1" class="cluster">
<title>cluster_TrustModule</title>
<polygon fill="none" stroke="black" stroke-dasharray="1,5" points="8,-70 8,-268 802,-268 802,-70 8,-70"/>
</g>
<g id="clust6" class="cluster">
<title>cluster_TrustModule_providers</title>
<polygon fill="none" stroke="black" points="16,-78 16,-130 794,-130 794,-78 16,-78"/>
</g>
<g id="clust4" class="cluster">
<title>cluster_TrustModule_exports</title>
<polygon fill="none" stroke="black" points="260,-208 260,-260 566,-260 566,-208 260,-208"/>
</g>
<!-- TrustStoreService  -->
<g id="node1" class="node">
<title>TrustStoreService </title>
<polygon fill="#fb8072" stroke="black" points="558.08,-252 437.92,-252 437.92,-216 558.08,-216 558.08,-252"/>
<text text-anchor="middle" x="498" y="-229.8" font-family="Times,serif" font-size="14.00">TrustStoreService </text>
</g>
<!-- X509ValidationService  -->
<g id="node2" class="node">
<title>X509ValidationService </title>
<polygon fill="#fb8072" stroke="black" points="419.68,-252 268.32,-252 268.32,-216 419.68,-216 419.68,-252"/>
<text text-anchor="middle" x="344" y="-229.8" font-family="Times,serif" font-size="14.00">X509ValidationService </text>
</g>
<!-- TrustModule -->
<g id="node3" class="node">
<title>TrustModule</title>
<polygon fill="#8dd3c7" stroke="black" points="465.6,-187 462.6,-191 441.6,-191 438.6,-187 376.4,-187 376.4,-151 465.6,-151 465.6,-187"/>
<text text-anchor="middle" x="421" y="-164.8" font-family="Times,serif" font-size="14.00">TrustModule</text>
</g>
<!-- TrustModule&#45;&gt;TrustStoreService  -->
<g id="edge1" class="edge">
<title>TrustModule&#45;&gt;TrustStoreService </title>
<path fill="none" stroke="black" stroke-dasharray="5,2" d="M451.63,-187.11C451.63,-187.11 451.63,-205.99 451.63,-205.99"/>
<polygon fill="black" stroke="black" points="448.13,-205.99 451.63,-215.99 455.13,-205.99 448.13,-205.99"/>
</g>
<!-- TrustModule&#45;&gt;X509ValidationService  -->
<g id="edge2" class="edge">
<title>TrustModule&#45;&gt;X509ValidationService </title>
<path fill="none" stroke="black" stroke-dasharray="5,2" d="M398.15,-187.11C398.15,-187.11 398.15,-205.99 398.15,-205.99"/>
<polygon fill="black" stroke="black" points="394.65,-205.99 398.15,-215.99 401.65,-205.99 394.65,-205.99"/>
</g>
<!-- LoteParserService -->
<g id="node4" class="node">
<title>LoteParserService</title>
<ellipse fill="#fdb462" stroke="black" cx="704" cy="-104" rx="81.63" ry="18"/>
<text text-anchor="middle" x="704" y="-99.8" font-family="Times,serif" font-size="14.00">LoteParserService</text>
</g>
<!-- LoteParserService&#45;&gt;TrustModule -->
<g id="edge3" class="edge">
<title>LoteParserService&#45;&gt;TrustModule</title>
<path fill="none" stroke="black" d="M704,-122.11C704,-141.34 704,-169 704,-169 704,-169 475.84,-169 475.84,-169"/>
<polygon fill="black" stroke="black" points="475.84,-165.5 465.84,-169 475.84,-172.5 475.84,-165.5"/>
</g>
<!-- TrustListJwtService -->
<g id="node5" class="node">
<title>TrustListJwtService</title>
<ellipse fill="#fdb462" stroke="black" cx="515" cy="-104" rx="88.61" ry="18"/>
<text text-anchor="middle" x="515" y="-99.8" font-family="Times,serif" font-size="14.00">TrustListJwtService</text>
</g>
<!-- TrustListJwtService&#45;&gt;TrustModule -->
<g id="edge4" class="edge">
<title>TrustListJwtService&#45;&gt;TrustModule</title>
<path fill="none" stroke="black" d="M445.87,-115.32C445.87,-115.32 445.87,-140.94 445.87,-140.94"/>
<polygon fill="black" stroke="black" points="442.37,-140.94 445.87,-150.94 449.37,-140.94 442.37,-140.94"/>
</g>
<!-- TrustStoreService -->
<g id="node6" class="node">
<title>TrustStoreService</title>
<ellipse fill="#fdb462" stroke="black" cx="327" cy="-104" rx="80.51" ry="18"/>
<text text-anchor="middle" x="327" y="-99.8" font-family="Times,serif" font-size="14.00">TrustStoreService</text>
</g>
<!-- TrustStoreService&#45;&gt;TrustModule -->
<g id="edge5" class="edge">
<title>TrustStoreService&#45;&gt;TrustModule</title>
<path fill="none" stroke="black" d="M392.1,-114.73C392.1,-114.73 392.1,-140.87 392.1,-140.87"/>
<polygon fill="black" stroke="black" points="388.6,-140.87 392.1,-150.87 395.6,-140.87 388.6,-140.87"/>
</g>
<!-- X509ValidationService -->
<g id="node7" class="node">
<title>X509ValidationService</title>
<ellipse fill="#fdb462" stroke="black" cx="126" cy="-104" rx="102.43" ry="18"/>
<text text-anchor="middle" x="126" y="-99.8" font-family="Times,serif" font-size="14.00">X509ValidationService</text>
</g>
<!-- X509ValidationService&#45;&gt;TrustModule -->
<g id="edge6" class="edge">
<title>X509ValidationService&#45;&gt;TrustModule</title>
<path fill="none" stroke="black" d="M126,-122.11C126,-141.34 126,-169 126,-169 126,-169 366.2,-169 366.2,-169"/>
<polygon fill="black" stroke="black" points="366.2,-172.5 376.2,-169 366.2,-165.5 366.2,-172.5"/>
</g>
</g>
</svg>
