<?xml version="1.0" encoding="UTF-8" standalone="no"?>
<!DOCTYPE svg PUBLIC "-//W3C//DTD SVG 1.1//EN"
 "http://www.w3.org/Graphics/SVG/1.1/DTD/svg11.dtd">
<!-- Generated by graphviz version 2.47.0 (20210316.0004)
 -->
<!-- Title: dependencies Pages: 1 -->
<svg width="1054pt" height="284pt"
 viewBox="0.00 0.00 1054.00 284.00" xmlns="http://www.w3.org/2000/svg" xmlns:xlink="http://www.w3.org/1999/xlink">
<g id="graph0" class="graph" transform="scale(1 1) rotate(0) translate(4 280)">
<title>dependencies</title>
<polygon fill="white" stroke="transparent" points="-4,4 -4,-280 1050,-280 1050,4 -4,4"/>
<text text-anchor="start" x="502.01" y="-42.4" font-family="Times-12" font-weight="bold" font-size="14.00">Legend</text>
<polygon fill="#ffffb3" stroke="transparent" points="289,-10 289,-30 309,-30 309,-10 289,-10"/>
<text text-anchor="start" x="312.63" y="-15.4" font-family="Times-12" font-size="14.00"> &#160;Declarations</text>
<polygon fill="#8dd3c7" stroke="transparent" points="402,-10 402,-30 422,-30 422,-10 402,-10"/>
<text text-anchor="start" x="425.73" y="-15.4" font-family="Times-12" font-size="14.00"> &#160;Module</text>
<polygon fill="#80b1d3" stroke="transparent" points="488,-10 488,-30 508,-30 508,-10 488,-10"/>
<text text-anchor="start" x="511.78" y="-15.4" font-family="Times-12" font-size="14.00"> &#160;Bootstrap</text>
<polygon fill="#fdb462" stroke="transparent" points="585,-10 585,-30 605,-30 605,-10 585,-10"/>
<text text-anchor="start" x="608.67" y="-15.4" font-family="Times-12" font-size="14.00"> &#160;Providers</text>
<polygon fill="#fb8072" stroke="transparent" points="681,-10 681,-30 701,-30 701,-10 681,-10"/>
<text text-anchor="start" x="704.73" y="-15.4" font-family="Times-12" font-size="14.00"> &#160;Exports</text>
<g id="clust1" class="cluster">
<title>cluster_TrustModule</title>
<polygon fill="none" stroke="black" stroke-dasharray="1,5" points="8,-70 8,-268 1038,-268 1038,-70 8,-70"/>
</g>
<g id="clust6" class="cluster">
<title>cluster_TrustModule_providers</title>
<polygon fill="none" stroke="black" points="16,-78 16,-130 1030,-130 1030,-78 16,-78"/>
</g>
<g id="clust4" class="cluster">
<title>cluster_TrustModule_exports</title>
<polygon fill="none" stroke="black" points="277,-208 277,-260 763,-260 763,-208 277,-208"/>
</g>
<!-- StatusListVerifierService  -->
<g id="node1" class="node">
<title>StatusListVerifierService </title>
<polygon fill="#fb8072" stroke="black" points="754.78,-252 593.22,-252 593.22,-216 754.78,-216 754.78,-252"/>
<text text-anchor="middle" x="674" y="-229.8" font-family="Times,serif" font-size="14.00">StatusListVerifierService </text>
</g>
<!-- TrustStoreService  -->
<g id="node2" class="node">
<title>TrustStoreService </title>
<polygon fill="#fb8072" stroke="black" points="575.08,-252 454.92,-252 454.92,-216 575.08,-216 575.08,-252"/>
<text text-anchor="middle" x="515" y="-229.8" font-family="Times,serif" font-size="14.00">TrustStoreService </text>
</g>
<!-- X509ValidationService  -->
<g id="node3" class="node">
<title>X509ValidationService </title>
<polygon fill="#fb8072" stroke="black" points="436.68,-252 285.32,-252 285.32,-216 436.68,-216 436.68,-252"/>
<text text-anchor="middle" x="361" y="-229.8" font-family="Times,serif" font-size="14.00">X509ValidationService </text>
</g>
<!-- TrustModule -->
<g id="node4" class="node">
<title>TrustModule</title>
<polygon fill="#8dd3c7" stroke="black" points="559.6,-187 556.6,-191 535.6,-191 532.6,-187 470.4,-187 470.4,-151 559.6,-151 559.6,-187"/>
<text text-anchor="middle" x="515" y="-164.8" font-family="Times,serif" font-size="14.00">TrustModule</text>
</g>
<!-- TrustModule&#45;&gt;StatusListVerifierService  -->
<g id="edge1" class="edge">
<title>TrustModule&#45;&gt;StatusListVerifierService </title>
<path fill="none" stroke="black" stroke-dasharray="5,2" d="M559.66,-178C579.5,-178 598.46,-178 598.46,-178 598.46,-178 598.46,-205.97 598.46,-205.97"/>
<polygon fill="black" stroke="black" points="594.96,-205.97 598.46,-215.97 601.96,-205.97 594.96,-205.97"/>
</g>
<!-- TrustModule&#45;&gt;TrustStoreService  -->
<g id="edge2" class="edge">
<title>TrustModule&#45;&gt;TrustStoreService </title>
<path fill="none" stroke="black" stroke-dasharray="5,2" d="M515,-187.11C515,-187.11 515,-205.99 515,-205.99"/>
<polygon fill="black" stroke="black" points="511.5,-205.99 515,-215.99 518.5,-205.99 511.5,-205.99"/>
</g>
<!-- TrustModule&#45;&gt;X509ValidationService  -->
<g id="edge3" class="edge">
<title>TrustModule&#45;&gt;X509ValidationService </title>
<path fill="none" stroke="black" stroke-dasharray="5,2" d="M470.33,-178C450.48,-178 431.52,-178 431.52,-178 431.52,-178 431.52,-205.97 431.52,-205.97"/>
<polygon fill="black" stroke="black" points="428.02,-205.97 431.52,-215.97 435.02,-205.97 428.02,-205.97"/>
</g>
<!-- LoteParserService -->
<g id="node5" class="node">
<title>LoteParserService</title>
<ellipse fill="#fdb462" stroke="black" cx="940" cy="-104" rx="81.63" ry="18"/>
<text text-anchor="middle" x="940" y="-99.8" font-family="Times,serif" font-size="14.00">LoteParserService</text>
</g>
<!-- LoteParserService&#45;&gt;TrustModule -->
<g id="edge4" class="edge">
<title>LoteParserService&#45;&gt;TrustModule</title>
<path fill="none" stroke="black" d="M940,-122.11C940,-141.34 940,-169 940,-169 940,-169 569.68,-169 569.68,-169"/>
<polygon fill="black" stroke="black" points="569.68,-165.5 559.68,-169 569.68,-172.5 569.68,-165.5"/>
</g>
<!-- StatusListVerifierService -->
<g id="node6" class="node">
<title>StatusListVerifierService</title>
<ellipse fill="#fdb462" stroke="black" cx="731" cy="-104" rx="109.35" ry="18"/>
<text text-anchor="middle" x="731" y="-99.8" font-family="Times,serif" font-size="14.00">StatusListVerifierService</text>
</g>
<!-- StatusListVerifierService&#45;&gt;TrustModule -->
<g id="edge5" class="edge">
<title>StatusListVerifierService&#45;&gt;TrustModule</title>
<path fill="none" stroke="black" d="M688.36,-120.8C688.36,-137.3 688.36,-160 688.36,-160 688.36,-160 569.64,-160 569.64,-160"/>
<polygon fill="black" stroke="black" points="569.64,-156.5 559.64,-160 569.64,-163.5 569.64,-156.5"/>
</g>
<!-- TrustListJwtService -->
<g id="node7" class="node">
<title>TrustListJwtService</title>
<ellipse fill="#fdb462" stroke="black" cx="515" cy="-104" rx="88.61" ry="18"/>
<text text-anchor="middle" x="515" y="-99.8" font-family="Times,serif" font-size="14.00">TrustListJwtService</text>
</g>
<!-- TrustListJwtService&#45;&gt;TrustModule -->
<g id="edge6" class="edge">
<title>TrustListJwtService&#45;&gt;TrustModule</title>
<path fill="none" stroke="black" d="M515,-122.11C515,-122.11 515,-140.99 515,-140.99"/>
<polygon fill="black" stroke="black" points="511.5,-140.99 515,-150.99 518.5,-140.99 511.5,-140.99"/>
</g>
<!-- TrustStoreService -->
<g id="node8" class="node">
<title>TrustStoreService</title>
<ellipse fill="#fdb462" stroke="black" cx="327" cy="-104" rx="80.51" ry="18"/>
<text text-anchor="middle" x="327" y="-99.8" font-family="Times,serif" font-size="14.00">TrustStoreService</text>
</g>
<!-- TrustStoreService&#45;&gt;TrustModule -->
<g id="edge7" class="edge">
<title>TrustStoreService&#45;&gt;TrustModule</title>
<path fill="none" stroke="black" d="M346.46,-121.72C346.46,-138.12 346.46,-160 346.46,-160 346.46,-160 460.28,-160 460.28,-160"/>
<polygon fill="black" stroke="black" points="460.28,-163.5 470.28,-160 460.28,-156.5 460.28,-163.5"/>
</g>
<!-- X509ValidationService -->
<g id="node9" class="node">
<title>X509ValidationService</title>
<ellipse fill="#fdb462" stroke="black" cx="126" cy="-104" rx="102.43" ry="18"/>
<text text-anchor="middle" x="126" y="-99.8" font-family="Times,serif" font-size="14.00">X509ValidationService</text>
</g>
<!-- X509ValidationService&#45;&gt;TrustModule -->
<g id="edge8" class="edge">
<title>X509ValidationService&#45;&gt;TrustModule</title>
<path fill="none" stroke="black" d="M126,-122.11C126,-141.34 126,-169 126,-169 126,-169 460.38,-169 460.38,-169"/>
<polygon fill="black" stroke="black" points="460.38,-172.5 470.38,-169 460.38,-165.5 460.38,-172.5"/>
</g>
</g>
</svg>
