<?xml version="1.0" encoding="UTF-8" standalone="no"?>
<!DOCTYPE svg PUBLIC "-//W3C//DTD SVG 1.1//EN"
 "http://www.w3.org/Graphics/SVG/1.1/DTD/svg11.dtd">
<!-- Generated by graphviz version 2.47.0 (20210316.0004)
 -->
<!-- Title: dependencies Pages: 1 -->
<svg width="1204pt" height="284pt"
 viewBox="0.00 0.00 1204.00 284.00" xmlns="http://www.w3.org/2000/svg" xmlns:xlink="http://www.w3.org/1999/xlink">
<g id="graph0" class="graph" transform="scale(1 1) rotate(0) translate(4 280)">
<title>dependencies</title>
<polygon fill="white" stroke="transparent" points="-4,4 -4,-280 1200,-280 1200,4 -4,4"/>
<text text-anchor="start" x="577.01" y="-42.4" font-family="Times-12" font-weight="bold" font-size="14.00">Legend</text>
<polygon fill="#ffffb3" stroke="transparent" points="364,-10 364,-30 384,-30 384,-10 364,-10"/>
<text text-anchor="start" x="387.63" y="-15.4" font-family="Times-12" font-size="14.00"> &#160;Declarations</text>
<polygon fill="#8dd3c7" stroke="transparent" points="477,-10 477,-30 497,-30 497,-10 477,-10"/>
<text text-anchor="start" x="500.73" y="-15.4" font-family="Times-12" font-size="14.00"> &#160;Module</text>
<polygon fill="#80b1d3" stroke="transparent" points="563,-10 563,-30 583,-30 583,-10 563,-10"/>
<text text-anchor="start" x="586.78" y="-15.4" font-family="Times-12" font-size="14.00"> &#160;Bootstrap</text>
<polygon fill="#fdb462" stroke="transparent" points="660,-10 660,-30 680,-30 680,-10 660,-10"/>
<text text-anchor="start" x="683.67" y="-15.4" font-family="Times-12" font-size="14.00"> &#160;Providers</text>
<polygon fill="#fb8072" stroke="transparent" points="756,-10 756,-30 776,-30 776,-10 756,-10"/>
<text text-anchor="start" x="779.73" y="-15.4" font-family="Times-12" font-size="14.00"> &#160;Exports</text>
<g id="clust1" class="cluster">
<title>cluster_PresentationsModule</title>
<polygon fill="none" stroke="black" stroke-dasharray="1,5" points="8,-70 8,-268 1188,-268 1188,-70 8,-70"/>
</g>
<g id="clust6" class="cluster">
<title>cluster_PresentationsModule_providers</title>
<polygon fill="none" stroke="black" points="257,-78 257,-130 1180,-130 1180,-78 257,-78"/>
</g>
<g id="clust3" class="cluster">
<title>cluster_PresentationsModule_imports</title>
<polygon fill="none" stroke="black" points="16,-78 16,-130 249,-130 249,-78 16,-78"/>
</g>
<g id="clust4" class="cluster">
<title>cluster_PresentationsModule_exports</title>
<polygon fill="none" stroke="black" points="298,-208 298,-260 680,-260 680,-208 298,-208"/>
</g>
<!-- ResolverModule -->
<g id="node1" class="node">
<title>ResolverModule</title>
<polygon fill="#8dd3c7" stroke="black" points="240.81,-122 237.81,-126 216.81,-126 213.81,-122 131.19,-122 131.19,-86 240.81,-86 240.81,-122"/>
<text text-anchor="middle" x="186" y="-99.8" font-family="Times,serif" font-size="14.00">ResolverModule</text>
</g>
<!-- PresentationsModule -->
<g id="node3" class="node">
<title>PresentationsModule</title>
<polygon fill="#8dd3c7" stroke="black" points="537.2,-187 534.2,-191 513.2,-191 510.2,-187 402.8,-187 402.8,-151 537.2,-151 537.2,-187"/>
<text text-anchor="middle" x="470" y="-164.8" font-family="Times,serif" font-size="14.00">PresentationsModule</text>
</g>
<!-- ResolverModule&#45;&gt;PresentationsModule -->
<g id="edge1" class="edge">
<title>ResolverModule&#45;&gt;PresentationsModule</title>
<path fill="none" stroke="black" d="M186,-122.02C186,-139.37 186,-163 186,-163 186,-163 392.7,-163 392.7,-163"/>
<polygon fill="black" stroke="black" points="392.7,-166.5 402.7,-163 392.7,-159.5 392.7,-166.5"/>
</g>
<!-- TrustModule -->
<g id="node2" class="node">
<title>TrustModule</title>
<polygon fill="#8dd3c7" stroke="black" points="113.6,-122 110.6,-126 89.6,-126 86.6,-122 24.4,-122 24.4,-86 113.6,-86 113.6,-122"/>
<text text-anchor="middle" x="69" y="-99.8" font-family="Times,serif" font-size="14.00">TrustModule</text>
</g>
<!-- TrustModule&#45;&gt;PresentationsModule -->
<g id="edge2" class="edge">
<title>TrustModule&#45;&gt;PresentationsModule</title>
<path fill="none" stroke="black" d="M69,-122.28C69,-143.32 69,-175 69,-175 69,-175 392.88,-175 392.88,-175"/>
<polygon fill="black" stroke="black" points="392.88,-178.5 402.88,-175 392.88,-171.5 392.88,-178.5"/>
</g>
<!-- CredentialChainValidationService  -->
<g id="node4" class="node">
<title>CredentialChainValidationService </title>
<polygon fill="#fb8072" stroke="black" points="672.33,-252 459.67,-252 459.67,-216 672.33,-216 672.33,-252"/>
<text text-anchor="middle" x="566" y="-229.8" font-family="Times,serif" font-size="14.00">CredentialChainValidationService </text>
</g>
<!-- PresentationsModule&#45;&gt;CredentialChainValidationService  -->
<g id="edge3" class="edge">
<title>PresentationsModule&#45;&gt;CredentialChainValidationService </title>
<path fill="none" stroke="black" stroke-dasharray="5,2" d="M498.47,-187.11C498.47,-187.11 498.47,-205.99 498.47,-205.99"/>
<polygon fill="black" stroke="black" points="494.97,-205.99 498.47,-215.99 501.97,-205.99 494.97,-205.99"/>
</g>
<!-- PresentationsService  -->
<g id="node5" class="node">
<title>PresentationsService </title>
<polygon fill="#fb8072" stroke="black" points="442.13,-252 305.87,-252 305.87,-216 442.13,-216 442.13,-252"/>
<text text-anchor="middle" x="374" y="-229.8" font-family="Times,serif" font-size="14.00">PresentationsService </text>
</g>
<!-- PresentationsModule&#45;&gt;PresentationsService  -->
<g id="edge4" class="edge">
<title>PresentationsModule&#45;&gt;PresentationsService </title>
<path fill="none" stroke="black" stroke-dasharray="5,2" d="M422.48,-187.11C422.48,-187.11 422.48,-205.99 422.48,-205.99"/>
<polygon fill="black" stroke="black" points="418.98,-205.99 422.48,-215.99 425.98,-205.99 418.98,-205.99"/>
</g>
<!-- CredentialChainValidationService -->
<g id="node6" class="node">
<title>CredentialChainValidationService</title>
<ellipse fill="#fdb462" stroke="black" cx="1028" cy="-104" rx="144.09" ry="18"/>
<text text-anchor="middle" x="1028" y="-99.8" font-family="Times,serif" font-size="14.00">CredentialChainValidationService</text>
</g>
<!-- CredentialChainValidationService&#45;&gt;PresentationsModule -->
<g id="edge5" class="edge">
<title>CredentialChainValidationService&#45;&gt;PresentationsModule</title>
<path fill="none" stroke="black" d="M1028,-122.28C1028,-143.32 1028,-175 1028,-175 1028,-175 547.31,-175 547.31,-175"/>
<polygon fill="black" stroke="black" points="547.31,-171.5 537.31,-175 547.31,-178.5 547.31,-171.5"/>
</g>
<!-- MdocverifierService -->
<g id="node7" class="node">
<title>MdocverifierService</title>
<ellipse fill="#fdb462" stroke="black" cx="775" cy="-104" rx="90.87" ry="18"/>
<text text-anchor="middle" x="775" y="-99.8" font-family="Times,serif" font-size="14.00">MdocverifierService</text>
</g>
<!-- MdocverifierService&#45;&gt;PresentationsModule -->
<g id="edge6" class="edge">
<title>MdocverifierService&#45;&gt;PresentationsModule</title>
<path fill="none" stroke="black" d="M775,-122.02C775,-139.37 775,-163 775,-163 775,-163 547.31,-163 547.31,-163"/>
<polygon fill="black" stroke="black" points="547.31,-159.5 537.31,-163 547.31,-166.5 547.31,-159.5"/>
</g>
<!-- PresentationsService -->
<g id="node8" class="node">
<title>PresentationsService</title>
<ellipse fill="#fdb462" stroke="black" cx="575" cy="-104" rx="91.47" ry="18"/>
<text text-anchor="middle" x="575" y="-99.8" font-family="Times,serif" font-size="14.00">PresentationsService</text>
</g>
<!-- PresentationsService&#45;&gt;PresentationsModule -->
<g id="edge7" class="edge">
<title>PresentationsService&#45;&gt;PresentationsModule</title>
<path fill="none" stroke="black" d="M510.31,-116.84C510.31,-116.84 510.31,-140.52 510.31,-140.52"/>
<polygon fill="black" stroke="black" points="506.81,-140.52 510.31,-150.52 513.81,-140.52 506.81,-140.52"/>
</g>
<!-- SdjwtvcverifierService -->
<g id="node9" class="node">
<title>SdjwtvcverifierService</title>
<ellipse fill="#fdb462" stroke="black" cx="365" cy="-104" rx="100.11" ry="18"/>
<text text-anchor="middle" x="365" y="-99.8" font-family="Times,serif" font-size="14.00">SdjwtvcverifierService</text>
</g>
<!-- SdjwtvcverifierService&#45;&gt;PresentationsModule -->
<g id="edge8" class="edge">
<title>SdjwtvcverifierService&#45;&gt;PresentationsModule</title>
<path fill="none" stroke="black" d="M433.98,-117.15C433.98,-117.15 433.98,-140.69 433.98,-140.69"/>
<polygon fill="black" stroke="black" points="430.48,-140.69 433.98,-150.69 437.48,-140.69 430.48,-140.69"/>
</g>
</g>
</svg>
