<?xml version="1.0" encoding="UTF-8" standalone="no"?>
<!DOCTYPE svg PUBLIC "-//W3C//DTD SVG 1.1//EN"
 "http://www.w3.org/Graphics/SVG/1.1/DTD/svg11.dtd">
<!-- Generated by graphviz version 2.47.0 (20210316.0004)
 -->
<!-- Title: dependencies Pages: 1 -->
<svg width="1464pt" height="284pt"
 viewBox="0.00 0.00 1464.00 284.00" xmlns="http://www.w3.org/2000/svg" xmlns:xlink="http://www.w3.org/1999/xlink">
<g id="graph0" class="graph" transform="scale(1 1) rotate(0) translate(4 280)">
<title>dependencies</title>
<polygon fill="white" stroke="transparent" points="-4,4 -4,-280 1460,-280 1460,4 -4,4"/>
<text text-anchor="start" x="707.01" y="-42.4" font-family="Times-12" font-weight="bold" font-size="14.00">Legend</text>
<polygon fill="#ffffb3" stroke="transparent" points="494,-10 494,-30 514,-30 514,-10 494,-10"/>
<text text-anchor="start" x="517.63" y="-15.4" font-family="Times-12" font-size="14.00"> &#160;Declarations</text>
<polygon fill="#8dd3c7" stroke="transparent" points="607,-10 607,-30 627,-30 627,-10 607,-10"/>
<text text-anchor="start" x="630.73" y="-15.4" font-family="Times-12" font-size="14.00"> &#160;Module</text>
<polygon fill="#80b1d3" stroke="transparent" points="693,-10 693,-30 713,-30 713,-10 693,-10"/>
<text text-anchor="start" x="716.78" y="-15.4" font-family="Times-12" font-size="14.00"> &#160;Bootstrap</text>
<polygon fill="#fdb462" stroke="transparent" points="790,-10 790,-30 810,-30 810,-10 790,-10"/>
<text text-anchor="start" x="813.67" y="-15.4" font-family="Times-12" font-size="14.00"> &#160;Providers</text>
<polygon fill="#fb8072" stroke="transparent" points="886,-10 886,-30 906,-30 906,-10 886,-10"/>
<text text-anchor="start" x="909.73" y="-15.4" font-family="Times-12" font-size="14.00"> &#160;Exports</text>
<g id="clust1" class="cluster">
<title>cluster_PresentationsModule</title>
<polygon fill="none" stroke="black" stroke-dasharray="1,5" points="8,-70 8,-268 1448,-268 1448,-70 8,-70"/>
</g>
<g id="clust3" class="cluster">
<title>cluster_PresentationsModule_imports</title>
<polygon fill="none" stroke="black" points="947,-78 947,-130 1440,-130 1440,-78 947,-78"/>
</g>
<g id="clust4" class="cluster">
<title>cluster_PresentationsModule_exports</title>
<polygon fill="none" stroke="black" points="721,-208 721,-260 1103,-260 1103,-208 721,-208"/>
</g>
<g id="clust6" class="cluster">
<title>cluster_PresentationsModule_providers</title>
<polygon fill="none" stroke="black" points="16,-78 16,-130 939,-130 939,-78 16,-78"/>
</g>
<!-- AuditLogModule -->
<g id="node1" class="node">
<title>AuditLogModule</title>
<polygon fill="#8dd3c7" stroke="black" points="1431.99,-122 1428.99,-126 1407.99,-126 1404.99,-122 1318.01,-122 1318.01,-86 1431.99,-86 1431.99,-122"/>
<text text-anchor="middle" x="1375" y="-99.8" font-family="Times,serif" font-size="14.00">AuditLogModule</text>
</g>
<!-- PresentationsModule -->
<g id="node5" class="node">
<title>PresentationsModule</title>
<polygon fill="#8dd3c7" stroke="black" points="960.2,-187 957.2,-191 936.2,-191 933.2,-187 825.8,-187 825.8,-151 960.2,-151 960.2,-187"/>
<text text-anchor="middle" x="893" y="-164.8" font-family="Times,serif" font-size="14.00">PresentationsModule</text>
</g>
<!-- AuditLogModule&#45;&gt;PresentationsModule -->
<g id="edge1" class="edge">
<title>AuditLogModule&#45;&gt;PresentationsModule</title>
<path fill="none" stroke="black" d="M1375,-122.29C1375,-144.21 1375,-178 1375,-178 1375,-178 970.27,-178 970.27,-178"/>
<polygon fill="black" stroke="black" points="970.27,-174.5 960.27,-178 970.27,-181.5 970.27,-174.5"/>
</g>
<!-- RegistrarModule -->
<g id="node2" class="node">
<title>RegistrarModule</title>
<polygon fill="#8dd3c7" stroke="black" points="1300.36,-122 1297.36,-126 1276.36,-126 1273.36,-122 1189.64,-122 1189.64,-86 1300.36,-86 1300.36,-122"/>
<text text-anchor="middle" x="1245" y="-99.8" font-family="Times,serif" font-size="14.00">RegistrarModule</text>
</g>
<!-- RegistrarModule&#45;&gt;PresentationsModule -->
<g id="edge2" class="edge">
<title>RegistrarModule&#45;&gt;PresentationsModule</title>
<path fill="none" stroke="black" d="M1245,-122.11C1245,-141.34 1245,-169 1245,-169 1245,-169 970.45,-169 970.45,-169"/>
<polygon fill="black" stroke="black" points="970.45,-165.5 960.45,-169 970.45,-172.5 970.45,-165.5"/>
</g>
<!-- ResolverModule -->
<g id="node3" class="node">
<title>ResolverModule</title>
<polygon fill="#8dd3c7" stroke="black" points="1171.81,-122 1168.81,-126 1147.81,-126 1144.81,-122 1062.19,-122 1062.19,-86 1171.81,-86 1171.81,-122"/>
<text text-anchor="middle" x="1117" y="-99.8" font-family="Times,serif" font-size="14.00">ResolverModule</text>
</g>
<!-- ResolverModule&#45;&gt;PresentationsModule -->
<g id="edge3" class="edge">
<title>ResolverModule&#45;&gt;PresentationsModule</title>
<path fill="none" stroke="black" d="M1078.75,-122.03C1078.75,-138.4 1078.75,-160 1078.75,-160 1078.75,-160 970.32,-160 970.32,-160"/>
<polygon fill="black" stroke="black" points="970.32,-156.5 960.32,-160 970.32,-163.5 970.32,-156.5"/>
</g>
<!-- TrustModule -->
<g id="node4" class="node">
<title>TrustModule</title>
<polygon fill="#8dd3c7" stroke="black" points="1044.6,-122 1041.6,-126 1020.6,-126 1017.6,-122 955.4,-122 955.4,-86 1044.6,-86 1044.6,-122"/>
<text text-anchor="middle" x="1000" y="-99.8" font-family="Times,serif" font-size="14.00">TrustModule</text>
</g>
<!-- TrustModule&#45;&gt;PresentationsModule -->
<g id="edge4" class="edge">
<title>TrustModule&#45;&gt;PresentationsModule</title>
<path fill="none" stroke="black" d="M955.28,-104C948.25,-104 943.25,-104 943.25,-104 943.25,-104 943.25,-140.89 943.25,-140.89"/>
<polygon fill="black" stroke="black" points="939.75,-140.89 943.25,-150.89 946.75,-140.89 939.75,-140.89"/>
</g>
<!-- CredentialChainValidationService  -->
<g id="node6" class="node">
<title>CredentialChainValidationService </title>
<polygon fill="#fb8072" stroke="black" points="1095.33,-252 882.67,-252 882.67,-216 1095.33,-216 1095.33,-252"/>
<text text-anchor="middle" x="989" y="-229.8" font-family="Times,serif" font-size="14.00">CredentialChainValidationService </text>
</g>
<!-- PresentationsModule&#45;&gt;CredentialChainValidationService  -->
<g id="edge5" class="edge">
<title>PresentationsModule&#45;&gt;CredentialChainValidationService </title>
<path fill="none" stroke="black" stroke-dasharray="5,2" d="M921.47,-187.11C921.47,-187.11 921.47,-205.99 921.47,-205.99"/>
<polygon fill="black" stroke="black" points="917.97,-205.99 921.47,-215.99 924.97,-205.99 917.97,-205.99"/>
</g>
<!-- PresentationsService  -->
<g id="node7" class="node">
<title>PresentationsService </title>
<polygon fill="#fb8072" stroke="black" points="865.13,-252 728.87,-252 728.87,-216 865.13,-216 865.13,-252"/>
<text text-anchor="middle" x="797" y="-229.8" font-family="Times,serif" font-size="14.00">PresentationsService </text>
</g>
<!-- PresentationsModule&#45;&gt;PresentationsService  -->
<g id="edge6" class="edge">
<title>PresentationsModule&#45;&gt;PresentationsService </title>
<path fill="none" stroke="black" stroke-dasharray="5,2" d="M845.48,-187.11C845.48,-187.11 845.48,-205.99 845.48,-205.99"/>
<polygon fill="black" stroke="black" points="841.98,-205.99 845.48,-215.99 848.98,-205.99 841.98,-205.99"/>
</g>
<!-- CredentialChainValidationService -->
<g id="node8" class="node">
<title>CredentialChainValidationService</title>
<ellipse fill="#fdb462" stroke="black" cx="787" cy="-104" rx="144.09" ry="18"/>
<text text-anchor="middle" x="787" y="-99.8" font-family="Times,serif" font-size="14.00">CredentialChainValidationService</text>
</g>
<!-- CredentialChainValidationService&#45;&gt;PresentationsModule -->
<g id="edge7" class="edge">
<title>CredentialChainValidationService&#45;&gt;PresentationsModule</title>
<path fill="none" stroke="black" d="M878.47,-118.1C878.47,-118.1 878.47,-140.72 878.47,-140.72"/>
<polygon fill="black" stroke="black" points="874.97,-140.72 878.47,-150.72 881.97,-140.72 874.97,-140.72"/>
</g>
<!-- MdocverifierService -->
<g id="node9" class="node">
<title>MdocverifierService</title>
<ellipse fill="#fdb462" stroke="black" cx="534" cy="-104" rx="90.87" ry="18"/>
<text text-anchor="middle" x="534" y="-99.8" font-family="Times,serif" font-size="14.00">MdocverifierService</text>
</g>
<!-- MdocverifierService&#45;&gt;PresentationsModule -->
<g id="edge8" class="edge">
<title>MdocverifierService&#45;&gt;PresentationsModule</title>
<path fill="none" stroke="black" d="M534,-122.03C534,-138.4 534,-160 534,-160 534,-160 815.9,-160 815.9,-160"/>
<polygon fill="black" stroke="black" points="815.9,-163.5 825.9,-160 815.9,-156.5 815.9,-163.5"/>
</g>
<!-- PresentationsService -->
<g id="node10" class="node">
<title>PresentationsService</title>
<ellipse fill="#fdb462" stroke="black" cx="334" cy="-104" rx="91.47" ry="18"/>
<text text-anchor="middle" x="334" y="-99.8" font-family="Times,serif" font-size="14.00">PresentationsService</text>
</g>
<!-- PresentationsService&#45;&gt;PresentationsModule -->
<g id="edge9" class="edge">
<title>PresentationsService&#45;&gt;PresentationsModule</title>
<path fill="none" stroke="black" d="M334,-122.11C334,-141.34 334,-169 334,-169 334,-169 815.85,-169 815.85,-169"/>
<polygon fill="black" stroke="black" points="815.85,-172.5 825.85,-169 815.85,-165.5 815.85,-172.5"/>
</g>
<!-- SdjwtvcverifierService -->
<g id="node11" class="node">
<title>SdjwtvcverifierService</title>
<ellipse fill="#fdb462" stroke="black" cx="124" cy="-104" rx="100.11" ry="18"/>
<text text-anchor="middle" x="124" y="-99.8" font-family="Times,serif" font-size="14.00">SdjwtvcverifierService</text>
</g>
<!-- SdjwtvcverifierService&#45;&gt;PresentationsModule -->
<g id="edge10" class="edge">
<title>SdjwtvcverifierService&#45;&gt;PresentationsModule</title>
<path fill="none" stroke="black" d="M124,-122.29C124,-144.21 124,-178 124,-178 124,-178 815.77,-178 815.77,-178"/>
<polygon fill="black" stroke="black" points="815.77,-181.5 825.77,-178 815.77,-174.5 815.77,-181.5"/>
</g>
</g>
</svg>
