<?xml version="1.0" encoding="UTF-8" standalone="no"?>
<!DOCTYPE svg PUBLIC "-//W3C//DTD SVG 1.1//EN"
 "http://www.w3.org/Graphics/SVG/1.1/DTD/svg11.dtd">
<!-- Generated by graphviz version 2.47.0 (20210316.0004)
 -->
<!-- Title: dependencies Pages: 1 -->
<svg width="1332pt" height="284pt"
 viewBox="0.00 0.00 1332.00 284.00" xmlns="http://www.w3.org/2000/svg" xmlns:xlink="http://www.w3.org/1999/xlink">
<g id="graph0" class="graph" transform="scale(1 1) rotate(0) translate(4 280)">
<title>dependencies</title>
<polygon fill="white" stroke="transparent" points="-4,4 -4,-280 1328,-280 1328,4 -4,4"/>
<text text-anchor="start" x="641.01" y="-42.4" font-family="Times-12" font-weight="bold" font-size="14.00">Legend</text>
<polygon fill="#ffffb3" stroke="transparent" points="428,-10 428,-30 448,-30 448,-10 428,-10"/>
<text text-anchor="start" x="451.63" y="-15.4" font-family="Times-12" font-size="14.00"> &#160;Declarations</text>
<polygon fill="#8dd3c7" stroke="transparent" points="541,-10 541,-30 561,-30 561,-10 541,-10"/>
<text text-anchor="start" x="564.73" y="-15.4" font-family="Times-12" font-size="14.00"> &#160;Module</text>
<polygon fill="#80b1d3" stroke="transparent" points="627,-10 627,-30 647,-30 647,-10 627,-10"/>
<text text-anchor="start" x="650.78" y="-15.4" font-family="Times-12" font-size="14.00"> &#160;Bootstrap</text>
<polygon fill="#fdb462" stroke="transparent" points="724,-10 724,-30 744,-30 744,-10 724,-10"/>
<text text-anchor="start" x="747.67" y="-15.4" font-family="Times-12" font-size="14.00"> &#160;Providers</text>
<polygon fill="#fb8072" stroke="transparent" points="820,-10 820,-30 840,-30 840,-10 820,-10"/>
<text text-anchor="start" x="843.73" y="-15.4" font-family="Times-12" font-size="14.00"> &#160;Exports</text>
<g id="clust1" class="cluster">
<title>cluster_PresentationsModule</title>
<polygon fill="none" stroke="black" stroke-dasharray="1,5" points="8,-70 8,-268 1316,-268 1316,-70 8,-70"/>
</g>
<g id="clust6" class="cluster">
<title>cluster_PresentationsModule_providers</title>
<polygon fill="none" stroke="black" points="385,-78 385,-130 1308,-130 1308,-78 385,-78"/>
</g>
<g id="clust3" class="cluster">
<title>cluster_PresentationsModule_imports</title>
<polygon fill="none" stroke="black" points="16,-78 16,-130 377,-130 377,-78 16,-78"/>
</g>
<g id="clust4" class="cluster">
<title>cluster_PresentationsModule_exports</title>
<polygon fill="none" stroke="black" points="321,-208 321,-260 703,-260 703,-208 321,-208"/>
</g>
<!-- RegistrarModule -->
<g id="node1" class="node">
<title>RegistrarModule</title>
<polygon fill="#8dd3c7" stroke="black" points="369.36,-122 366.36,-126 345.36,-126 342.36,-122 258.64,-122 258.64,-86 369.36,-86 369.36,-122"/>
<text text-anchor="middle" x="314" y="-99.8" font-family="Times,serif" font-size="14.00">RegistrarModule</text>
</g>
<!-- PresentationsModule -->
<g id="node4" class="node">
<title>PresentationsModule</title>
<polygon fill="#8dd3c7" stroke="black" points="560.2,-187 557.2,-191 536.2,-191 533.2,-187 425.8,-187 425.8,-151 560.2,-151 560.2,-187"/>
<text text-anchor="middle" x="493" y="-164.8" font-family="Times,serif" font-size="14.00">PresentationsModule</text>
</g>
<!-- RegistrarModule&#45;&gt;PresentationsModule -->
<g id="edge1" class="edge">
<title>RegistrarModule&#45;&gt;PresentationsModule</title>
<path fill="none" stroke="black" d="M349.18,-122.03C349.18,-138.4 349.18,-160 349.18,-160 349.18,-160 415.72,-160 415.72,-160"/>
<polygon fill="black" stroke="black" points="415.72,-163.5 425.72,-160 415.72,-156.5 415.72,-163.5"/>
</g>
<!-- ResolverModule -->
<g id="node2" class="node">
<title>ResolverModule</title>
<polygon fill="#8dd3c7" stroke="black" points="240.81,-122 237.81,-126 216.81,-126 213.81,-122 131.19,-122 131.19,-86 240.81,-86 240.81,-122"/>
<text text-anchor="middle" x="186" y="-99.8" font-family="Times,serif" font-size="14.00">ResolverModule</text>
</g>
<!-- ResolverModule&#45;&gt;PresentationsModule -->
<g id="edge2" class="edge">
<title>ResolverModule&#45;&gt;PresentationsModule</title>
<path fill="none" stroke="black" d="M186,-122.11C186,-141.34 186,-169 186,-169 186,-169 415.63,-169 415.63,-169"/>
<polygon fill="black" stroke="black" points="415.63,-172.5 425.63,-169 415.63,-165.5 415.63,-172.5"/>
</g>
<!-- TrustModule -->
<g id="node3" class="node">
<title>TrustModule</title>
<polygon fill="#8dd3c7" stroke="black" points="113.6,-122 110.6,-126 89.6,-126 86.6,-122 24.4,-122 24.4,-86 113.6,-86 113.6,-122"/>
<text text-anchor="middle" x="69" y="-99.8" font-family="Times,serif" font-size="14.00">TrustModule</text>
</g>
<!-- TrustModule&#45;&gt;PresentationsModule -->
<g id="edge3" class="edge">
<title>TrustModule&#45;&gt;PresentationsModule</title>
<path fill="none" stroke="black" d="M69,-122.29C69,-144.21 69,-178 69,-178 69,-178 415.82,-178 415.82,-178"/>
<polygon fill="black" stroke="black" points="415.82,-181.5 425.82,-178 415.82,-174.5 415.82,-181.5"/>
</g>
<!-- CredentialChainValidationService  -->
<g id="node5" class="node">
<title>CredentialChainValidationService </title>
<polygon fill="#fb8072" stroke="black" points="695.33,-252 482.67,-252 482.67,-216 695.33,-216 695.33,-252"/>
<text text-anchor="middle" x="589" y="-229.8" font-family="Times,serif" font-size="14.00">CredentialChainValidationService </text>
</g>
<!-- PresentationsModule&#45;&gt;CredentialChainValidationService  -->
<g id="edge4" class="edge">
<title>PresentationsModule&#45;&gt;CredentialChainValidationService </title>
<path fill="none" stroke="black" stroke-dasharray="5,2" d="M521.47,-187.11C521.47,-187.11 521.47,-205.99 521.47,-205.99"/>
<polygon fill="black" stroke="black" points="517.97,-205.99 521.47,-215.99 524.97,-205.99 517.97,-205.99"/>
</g>
<!-- PresentationsService  -->
<g id="node6" class="node">
<title>PresentationsService </title>
<polygon fill="#fb8072" stroke="black" points="465.13,-252 328.87,-252 328.87,-216 465.13,-216 465.13,-252"/>
<text text-anchor="middle" x="397" y="-229.8" font-family="Times,serif" font-size="14.00">PresentationsService </text>
</g>
<!-- PresentationsModule&#45;&gt;PresentationsService  -->
<g id="edge5" class="edge">
<title>PresentationsModule&#45;&gt;PresentationsService </title>
<path fill="none" stroke="black" stroke-dasharray="5,2" d="M445.48,-187.11C445.48,-187.11 445.48,-205.99 445.48,-205.99"/>
<polygon fill="black" stroke="black" points="441.98,-205.99 445.48,-215.99 448.98,-205.99 441.98,-205.99"/>
</g>
<!-- CredentialChainValidationService -->
<g id="node7" class="node">
<title>CredentialChainValidationService</title>
<ellipse fill="#fdb462" stroke="black" cx="1156" cy="-104" rx="144.09" ry="18"/>
<text text-anchor="middle" x="1156" y="-99.8" font-family="Times,serif" font-size="14.00">CredentialChainValidationService</text>
</g>
<!-- CredentialChainValidationService&#45;&gt;PresentationsModule -->
<g id="edge6" class="edge">
<title>CredentialChainValidationService&#45;&gt;PresentationsModule</title>
<path fill="none" stroke="black" d="M1156,-122.29C1156,-144.21 1156,-178 1156,-178 1156,-178 570.22,-178 570.22,-178"/>
<polygon fill="black" stroke="black" points="570.22,-174.5 560.22,-178 570.22,-181.5 570.22,-174.5"/>
</g>
<!-- MdocverifierService -->
<g id="node8" class="node">
<title>MdocverifierService</title>
<ellipse fill="#fdb462" stroke="black" cx="903" cy="-104" rx="90.87" ry="18"/>
<text text-anchor="middle" x="903" y="-99.8" font-family="Times,serif" font-size="14.00">MdocverifierService</text>
</g>
<!-- MdocverifierService&#45;&gt;PresentationsModule -->
<g id="edge7" class="edge">
<title>MdocverifierService&#45;&gt;PresentationsModule</title>
<path fill="none" stroke="black" d="M903,-122.11C903,-141.34 903,-169 903,-169 903,-169 570.24,-169 570.24,-169"/>
<polygon fill="black" stroke="black" points="570.24,-165.5 560.24,-169 570.24,-172.5 570.24,-165.5"/>
</g>
<!-- PresentationsService -->
<g id="node9" class="node">
<title>PresentationsService</title>
<ellipse fill="#fdb462" stroke="black" cx="703" cy="-104" rx="91.47" ry="18"/>
<text text-anchor="middle" x="703" y="-99.8" font-family="Times,serif" font-size="14.00">PresentationsService</text>
</g>
<!-- PresentationsService&#45;&gt;PresentationsModule -->
<g id="edge8" class="edge">
<title>PresentationsService&#45;&gt;PresentationsModule</title>
<path fill="none" stroke="black" d="M653.34,-119.3C653.34,-135.88 653.34,-160 653.34,-160 653.34,-160 570.53,-160 570.53,-160"/>
<polygon fill="black" stroke="black" points="570.53,-156.5 560.53,-160 570.53,-163.5 570.53,-156.5"/>
</g>
<!-- SdjwtvcverifierService -->
<g id="node10" class="node">
<title>SdjwtvcverifierService</title>
<ellipse fill="#fdb462" stroke="black" cx="493" cy="-104" rx="100.11" ry="18"/>
<text text-anchor="middle" x="493" y="-99.8" font-family="Times,serif" font-size="14.00">SdjwtvcverifierService</text>
</g>
<!-- SdjwtvcverifierService&#45;&gt;PresentationsModule -->
<g id="edge9" class="edge">
<title>SdjwtvcverifierService&#45;&gt;PresentationsModule</title>
<path fill="none" stroke="black" d="M493,-122.11C493,-122.11 493,-140.99 493,-140.99"/>
<polygon fill="black" stroke="black" points="489.5,-140.99 493,-150.99 496.5,-140.99 489.5,-140.99"/>
</g>
</g>
</svg>
