<?xml version="1.0" encoding="UTF-8" standalone="no"?>
<!DOCTYPE svg PUBLIC "-//W3C//DTD SVG 1.1//EN"
 "http://www.w3.org/Graphics/SVG/1.1/DTD/svg11.dtd">
<!-- Generated by graphviz version 2.47.0 (20210316.0004)
 -->
<!-- Title: dependencies Pages: 1 -->
<svg width="676pt" height="211pt"
 viewBox="0.00 0.00 676.00 211.00" xmlns="http://www.w3.org/2000/svg" xmlns:xlink="http://www.w3.org/1999/xlink">
<g id="graph0" class="graph" transform="scale(1 1) rotate(0) translate(4 207)">
<title>dependencies</title>
<polygon fill="white" stroke="transparent" points="-4,4 -4,-207 672,-207 672,4 -4,4"/>
<text text-anchor="start" x="313.01" y="-42.4" font-family="Times-12" font-weight="bold" font-size="14.00">Legend</text>
<polygon fill="#ffffb3" stroke="transparent" points="100,-10 100,-30 120,-30 120,-10 100,-10"/>
<text text-anchor="start" x="123.63" y="-15.4" font-family="Times-12" font-size="14.00"> &#160;Declarations</text>
<polygon fill="#8dd3c7" stroke="transparent" points="213,-10 213,-30 233,-30 233,-10 213,-10"/>
<text text-anchor="start" x="236.73" y="-15.4" font-family="Times-12" font-size="14.00"> &#160;Module</text>
<polygon fill="#80b1d3" stroke="transparent" points="299,-10 299,-30 319,-30 319,-10 299,-10"/>
<text text-anchor="start" x="322.78" y="-15.4" font-family="Times-12" font-size="14.00"> &#160;Bootstrap</text>
<polygon fill="#fdb462" stroke="transparent" points="396,-10 396,-30 416,-30 416,-10 396,-10"/>
<text text-anchor="start" x="419.67" y="-15.4" font-family="Times-12" font-size="14.00"> &#160;Providers</text>
<polygon fill="#fb8072" stroke="transparent" points="492,-10 492,-30 512,-30 512,-10 492,-10"/>
<text text-anchor="start" x="515.73" y="-15.4" font-family="Times-12" font-size="14.00"> &#160;Exports</text>
<g id="clust1" class="cluster">
<title>cluster_VerifierModule</title>
<polygon fill="none" stroke="black" stroke-dasharray="1,5" points="8,-70 8,-195 660,-195 660,-70 8,-70"/>
</g>
<g id="clust3" class="cluster">
<title>cluster_VerifierModule_imports</title>
<polygon fill="none" stroke="black" points="16,-78 16,-130 652,-130 652,-78 16,-78"/>
</g>
<!-- CryptoModule -->
<g id="node1" class="node">
<title>CryptoModule</title>
<polygon fill="#8dd3c7" stroke="black" points="644.44,-122 641.44,-126 620.44,-126 617.44,-122 545.56,-122 545.56,-86 644.44,-86 644.44,-122"/>
<text text-anchor="middle" x="595" y="-99.8" font-family="Times,serif" font-size="14.00">CryptoModule</text>
</g>
<!-- VerifierModule -->
<g id="node6" class="node">
<title>VerifierModule</title>
<polygon fill="#8dd3c7" stroke="black" points="392.85,-187 389.85,-191 368.85,-191 365.85,-187 289.15,-187 289.15,-151 392.85,-151 392.85,-187"/>
<text text-anchor="middle" x="341" y="-164.8" font-family="Times,serif" font-size="14.00">VerifierModule</text>
</g>
<!-- CryptoModule&#45;&gt;VerifierModule -->
<g id="edge1" class="edge">
<title>CryptoModule&#45;&gt;VerifierModule</title>
<path fill="none" stroke="black" d="M595,-122.28C595,-143.32 595,-175 595,-175 595,-175 403.01,-175 403.01,-175"/>
<polygon fill="black" stroke="black" points="403.01,-171.5 393.01,-175 403.01,-178.5 403.01,-171.5"/>
</g>
<!-- Oid4vpModule -->
<g id="node2" class="node">
<title>Oid4vpModule</title>
<polygon fill="#8dd3c7" stroke="black" points="527.55,-122 524.55,-126 503.55,-126 500.55,-122 426.45,-122 426.45,-86 527.55,-86 527.55,-122"/>
<text text-anchor="middle" x="477" y="-99.8" font-family="Times,serif" font-size="14.00">Oid4vpModule</text>
</g>
<!-- Oid4vpModule&#45;&gt;VerifierModule -->
<g id="edge2" class="edge">
<title>Oid4vpModule&#45;&gt;VerifierModule</title>
<path fill="none" stroke="black" d="M477,-122.02C477,-139.37 477,-163 477,-163 477,-163 403.19,-163 403.19,-163"/>
<polygon fill="black" stroke="black" points="403.19,-159.5 393.19,-163 403.19,-166.5 403.19,-159.5"/>
</g>
<!-- PresentationsModule -->
<g id="node3" class="node">
<title>PresentationsModule</title>
<polygon fill="#8dd3c7" stroke="black" points="408.2,-122 405.2,-126 384.2,-126 381.2,-122 273.8,-122 273.8,-86 408.2,-86 408.2,-122"/>
<text text-anchor="middle" x="341" y="-99.8" font-family="Times,serif" font-size="14.00">PresentationsModule</text>
</g>
<!-- PresentationsModule&#45;&gt;VerifierModule -->
<g id="edge3" class="edge">
<title>PresentationsModule&#45;&gt;VerifierModule</title>
<path fill="none" stroke="black" d="M341,-122.11C341,-122.11 341,-140.99 341,-140.99"/>
<polygon fill="black" stroke="black" points="337.5,-140.99 341,-150.99 344.5,-140.99 337.5,-140.99"/>
</g>
<!-- RegistrarModule -->
<g id="node4" class="node">
<title>RegistrarModule</title>
<polygon fill="#8dd3c7" stroke="black" points="255.36,-122 252.36,-126 231.36,-126 228.36,-122 144.64,-122 144.64,-86 255.36,-86 255.36,-122"/>
<text text-anchor="middle" x="200" y="-99.8" font-family="Times,serif" font-size="14.00">RegistrarModule</text>
</g>
<!-- RegistrarModule&#45;&gt;VerifierModule -->
<g id="edge4" class="edge">
<title>RegistrarModule&#45;&gt;VerifierModule</title>
<path fill="none" stroke="black" d="M200,-122.02C200,-139.37 200,-163 200,-163 200,-163 278.9,-163 278.9,-163"/>
<polygon fill="black" stroke="black" points="278.9,-166.5 288.9,-163 278.9,-159.5 278.9,-166.5"/>
</g>
<!-- SessionModule -->
<g id="node5" class="node">
<title>SessionModule</title>
<polygon fill="#8dd3c7" stroke="black" points="126.33,-122 123.33,-126 102.33,-126 99.33,-122 23.67,-122 23.67,-86 126.33,-86 126.33,-122"/>
<text text-anchor="middle" x="75" y="-99.8" font-family="Times,serif" font-size="14.00">SessionModule</text>
</g>
<!-- SessionModule&#45;&gt;VerifierModule -->
<g id="edge5" class="edge">
<title>SessionModule&#45;&gt;VerifierModule</title>
<path fill="none" stroke="black" d="M75,-122.28C75,-143.32 75,-175 75,-175 75,-175 279.08,-175 279.08,-175"/>
<polygon fill="black" stroke="black" points="279.08,-178.5 289.08,-175 279.08,-171.5 279.08,-178.5"/>
</g>
</g>
</svg>
