<?xml version="1.0" encoding="UTF-8" standalone="no"?>
<!DOCTYPE svg PUBLIC "-//W3C//DTD SVG 1.1//EN"
 "http://www.w3.org/Graphics/SVG/1.1/DTD/svg11.dtd">
<!-- Generated by graphviz version 2.47.0 (20210316.0004)
 -->
<!-- Title: dependencies Pages: 1 -->
<svg width="579pt" height="284pt"
 viewBox="0.00 0.00 579.00 284.00" xmlns="http://www.w3.org/2000/svg" xmlns:xlink="http://www.w3.org/1999/xlink">
<g id="graph0" class="graph" transform="scale(1 1) rotate(0) translate(4 280)">
<title>dependencies</title>
<polygon fill="white" stroke="transparent" points="-4,4 -4,-280 575,-280 575,4 -4,4"/>
<text text-anchor="start" x="264.51" y="-42.4" font-family="Times-12" font-weight="bold" font-size="14.00">Legend</text>
<polygon fill="#ffffb3" stroke="transparent" points="51.5,-10 51.5,-30 71.5,-30 71.5,-10 51.5,-10"/>
<text text-anchor="start" x="75.13" y="-15.4" font-family="Times-12" font-size="14.00"> &#160;Declarations</text>
<polygon fill="#8dd3c7" stroke="transparent" points="164.5,-10 164.5,-30 184.5,-30 184.5,-10 164.5,-10"/>
<text text-anchor="start" x="188.23" y="-15.4" font-family="Times-12" font-size="14.00"> &#160;Module</text>
<polygon fill="#80b1d3" stroke="transparent" points="250.5,-10 250.5,-30 270.5,-30 270.5,-10 250.5,-10"/>
<text text-anchor="start" x="274.28" y="-15.4" font-family="Times-12" font-size="14.00"> &#160;Bootstrap</text>
<polygon fill="#fdb462" stroke="transparent" points="347.5,-10 347.5,-30 367.5,-30 367.5,-10 347.5,-10"/>
<text text-anchor="start" x="371.17" y="-15.4" font-family="Times-12" font-size="14.00"> &#160;Providers</text>
<polygon fill="#fb8072" stroke="transparent" points="443.5,-10 443.5,-30 463.5,-30 463.5,-10 443.5,-10"/>
<text text-anchor="start" x="467.23" y="-15.4" font-family="Times-12" font-size="14.00"> &#160;Exports</text>
<g id="clust1" class="cluster">
<title>cluster_IssuerModule</title>
<polygon fill="none" stroke="black" stroke-dasharray="1,5" points="8,-70 8,-268 563,-268 563,-70 8,-70"/>
</g>
<g id="clust4" class="cluster">
<title>cluster_IssuerModule_exports</title>
<polygon fill="none" stroke="black" points="75,-208 75,-260 496,-260 496,-208 75,-208"/>
</g>
<g id="clust3" class="cluster">
<title>cluster_IssuerModule_imports</title>
<polygon fill="none" stroke="black" points="16,-78 16,-130 555,-130 555,-78 16,-78"/>
</g>
<!-- ConfigurationModule -->
<g id="node1" class="node">
<title>ConfigurationModule</title>
<polygon fill="#8dd3c7" stroke="black" points="547.09,-122 544.09,-126 523.09,-126 520.09,-122 408.91,-122 408.91,-86 547.09,-86 547.09,-122"/>
<text text-anchor="middle" x="478" y="-99.8" font-family="Times,serif" font-size="14.00">ConfigurationModule</text>
</g>
<!-- IssuerModule -->
<g id="node5" class="node">
<title>IssuerModule</title>
<polygon fill="#8dd3c7" stroke="black" points="319.47,-187 316.47,-191 295.47,-191 292.47,-187 226.53,-187 226.53,-151 319.47,-151 319.47,-187"/>
<text text-anchor="middle" x="273" y="-164.8" font-family="Times,serif" font-size="14.00">IssuerModule</text>
</g>
<!-- ConfigurationModule&#45;&gt;IssuerModule -->
<g id="edge1" class="edge">
<title>ConfigurationModule&#45;&gt;IssuerModule</title>
<path fill="none" stroke="black" d="M448.38,-122.02C448.38,-139.37 448.38,-163 448.38,-163 448.38,-163 329.54,-163 329.54,-163"/>
<polygon fill="black" stroke="black" points="329.54,-159.5 319.54,-163 329.54,-166.5 329.54,-159.5"/>
</g>
<!-- IssuanceModule -->
<g id="node2" class="node">
<title>IssuanceModule</title>
<polygon fill="#8dd3c7" stroke="black" points="390.74,-122 387.74,-126 366.74,-126 363.74,-122 283.26,-122 283.26,-86 390.74,-86 390.74,-122"/>
<text text-anchor="middle" x="337" y="-99.8" font-family="Times,serif" font-size="14.00">IssuanceModule</text>
</g>
<!-- IssuanceModule&#45;&gt;IssuerModule -->
<g id="edge2" class="edge">
<title>IssuanceModule&#45;&gt;IssuerModule</title>
<path fill="none" stroke="black" d="M301.31,-122.11C301.31,-122.11 301.31,-140.99 301.31,-140.99"/>
<polygon fill="black" stroke="black" points="297.81,-140.99 301.31,-150.99 304.81,-140.99 297.81,-140.99"/>
</g>
<!-- LifecycleModule -->
<g id="node3" class="node">
<title>LifecycleModule</title>
<polygon fill="#8dd3c7" stroke="black" points="265.4,-122 262.4,-126 241.4,-126 238.4,-122 152.6,-122 152.6,-86 265.4,-86 265.4,-122"/>
<text text-anchor="middle" x="209" y="-99.8" font-family="Times,serif" font-size="14.00">LifecycleModule</text>
</g>
<!-- LifecycleModule&#45;&gt;IssuerModule -->
<g id="edge3" class="edge">
<title>LifecycleModule&#45;&gt;IssuerModule</title>
<path fill="none" stroke="black" d="M245.86,-122.11C245.86,-122.11 245.86,-140.99 245.86,-140.99"/>
<polygon fill="black" stroke="black" points="242.36,-140.99 245.86,-150.99 249.36,-140.99 242.36,-140.99"/>
</g>
<!-- TrustListModule -->
<g id="node4" class="node">
<title>TrustListModule</title>
<polygon fill="#8dd3c7" stroke="black" points="134.38,-122 131.38,-126 110.38,-126 107.38,-122 23.62,-122 23.62,-86 134.38,-86 134.38,-122"/>
<text text-anchor="middle" x="79" y="-99.8" font-family="Times,serif" font-size="14.00">TrustListModule</text>
</g>
<!-- TrustListModule&#45;&gt;IssuerModule -->
<g id="edge4" class="edge">
<title>TrustListModule&#45;&gt;IssuerModule</title>
<path fill="none" stroke="black" d="M108.74,-122.02C108.74,-139.37 108.74,-163 108.74,-163 108.74,-163 216.37,-163 216.37,-163"/>
<polygon fill="black" stroke="black" points="216.37,-166.5 226.37,-163 216.37,-159.5 216.37,-166.5"/>
</g>
<!-- ConfigurationModule  -->
<g id="node6" class="node">
<title>ConfigurationModule </title>
<polygon fill="#fb8072" stroke="black" points="487.59,-252 346.41,-252 346.41,-216 487.59,-216 487.59,-252"/>
<text text-anchor="middle" x="417" y="-229.8" font-family="Times,serif" font-size="14.00">ConfigurationModule </text>
</g>
<!-- IssuerModule&#45;&gt;ConfigurationModule  -->
<g id="edge5" class="edge">
<title>IssuerModule&#45;&gt;ConfigurationModule </title>
<path fill="none" stroke="black" stroke-dasharray="5,2" d="M319.65,-175C343.9,-175 368.54,-175 368.54,-175 368.54,-175 368.54,-205.98 368.54,-205.98"/>
<polygon fill="black" stroke="black" points="365.04,-205.98 368.54,-215.98 372.04,-205.98 365.04,-205.98"/>
</g>
<!-- IssuanceModule  -->
<g id="node7" class="node">
<title>IssuanceModule </title>
<polygon fill="#fb8072" stroke="black" points="328.74,-252 217.26,-252 217.26,-216 328.74,-216 328.74,-252"/>
<text text-anchor="middle" x="273" y="-229.8" font-family="Times,serif" font-size="14.00">IssuanceModule </text>
</g>
<!-- IssuerModule&#45;&gt;IssuanceModule  -->
<g id="edge6" class="edge">
<title>IssuerModule&#45;&gt;IssuanceModule </title>
<path fill="none" stroke="black" stroke-dasharray="5,2" d="M273,-187.11C273,-187.11 273,-205.99 273,-205.99"/>
<polygon fill="black" stroke="black" points="269.5,-205.99 273,-215.99 276.5,-205.99 269.5,-205.99"/>
</g>
<!-- LifecycleModule  -->
<g id="node8" class="node">
<title>LifecycleModule </title>
<polygon fill="#fb8072" stroke="black" points="198.9,-252 83.1,-252 83.1,-216 198.9,-216 198.9,-252"/>
<text text-anchor="middle" x="141" y="-229.8" font-family="Times,serif" font-size="14.00">LifecycleModule </text>
</g>
<!-- IssuerModule&#45;&gt;LifecycleModule  -->
<g id="edge7" class="edge">
<title>IssuerModule&#45;&gt;LifecycleModule </title>
<path fill="none" stroke="black" stroke-dasharray="5,2" d="M226.43,-175C201.5,-175 175.88,-175 175.88,-175 175.88,-175 175.88,-205.98 175.88,-205.98"/>
<polygon fill="black" stroke="black" points="172.38,-205.98 175.88,-215.98 179.38,-205.98 172.38,-205.98"/>
</g>
</g>
</svg>
