<?xml version="1.0" encoding="UTF-8" standalone="no"?>
<!DOCTYPE svg PUBLIC "-//W3C//DTD SVG 1.1//EN"
 "http://www.w3.org/Graphics/SVG/1.1/DTD/svg11.dtd">
<!-- Generated by graphviz version 2.47.0 (20210316.0004)
 -->
<!-- Title: dependencies Pages: 1 -->
<svg width="663pt" height="284pt"
 viewBox="0.00 0.00 663.00 284.00" xmlns="http://www.w3.org/2000/svg" xmlns:xlink="http://www.w3.org/1999/xlink">
<g id="graph0" class="graph" transform="scale(1 1) rotate(0) translate(4 280)">
<title>dependencies</title>
<polygon fill="white" stroke="transparent" points="-4,4 -4,-280 659,-280 659,4 -4,4"/>
<text text-anchor="start" x="306.51" y="-42.4" font-family="Times-12" font-weight="bold" font-size="14.00">Legend</text>
<polygon fill="#ffffb3" stroke="transparent" points="93.5,-10 93.5,-30 113.5,-30 113.5,-10 93.5,-10"/>
<text text-anchor="start" x="117.13" y="-15.4" font-family="Times-12" font-size="14.00"> &#160;Declarations</text>
<polygon fill="#8dd3c7" stroke="transparent" points="206.5,-10 206.5,-30 226.5,-30 226.5,-10 206.5,-10"/>
<text text-anchor="start" x="230.23" y="-15.4" font-family="Times-12" font-size="14.00"> &#160;Module</text>
<polygon fill="#80b1d3" stroke="transparent" points="292.5,-10 292.5,-30 312.5,-30 312.5,-10 292.5,-10"/>
<text text-anchor="start" x="316.28" y="-15.4" font-family="Times-12" font-size="14.00"> &#160;Bootstrap</text>
<polygon fill="#fdb462" stroke="transparent" points="389.5,-10 389.5,-30 409.5,-30 409.5,-10 389.5,-10"/>
<text text-anchor="start" x="413.17" y="-15.4" font-family="Times-12" font-size="14.00"> &#160;Providers</text>
<polygon fill="#fb8072" stroke="transparent" points="485.5,-10 485.5,-30 505.5,-30 505.5,-10 485.5,-10"/>
<text text-anchor="start" x="509.23" y="-15.4" font-family="Times-12" font-size="14.00"> &#160;Exports</text>
<g id="clust1" class="cluster">
<title>cluster_SessionModule</title>
<polygon fill="none" stroke="black" stroke-dasharray="1,5" points="8,-70 8,-268 647,-268 647,-70 8,-70"/>
</g>
<g id="clust4" class="cluster">
<title>cluster_SessionModule_exports</title>
<polygon fill="none" stroke="black" points="82,-208 82,-260 485,-260 485,-208 82,-208"/>
</g>
<g id="clust6" class="cluster">
<title>cluster_SessionModule_providers</title>
<polygon fill="none" stroke="black" points="274,-78 274,-130 639,-130 639,-78 274,-78"/>
</g>
<g id="clust3" class="cluster">
<title>cluster_SessionModule_imports</title>
<polygon fill="none" stroke="black" points="16,-78 16,-130 266,-130 266,-78 16,-78"/>
</g>
<!-- LoggerModule -->
<g id="node1" class="node">
<title>LoggerModule</title>
<polygon fill="#8dd3c7" stroke="black" points="257.98,-122 254.98,-126 233.98,-126 230.98,-122 158.02,-122 158.02,-86 257.98,-86 257.98,-122"/>
<text text-anchor="middle" x="208" y="-99.8" font-family="Times,serif" font-size="14.00">LoggerModule</text>
</g>
<!-- SessionModule -->
<g id="node3" class="node">
<title>SessionModule</title>
<polygon fill="#8dd3c7" stroke="black" points="335.33,-187 332.33,-191 311.33,-191 308.33,-187 232.67,-187 232.67,-151 335.33,-151 335.33,-187"/>
<text text-anchor="middle" x="284" y="-164.8" font-family="Times,serif" font-size="14.00">SessionModule</text>
</g>
<!-- LoggerModule&#45;&gt;SessionModule -->
<g id="edge1" class="edge">
<title>LoggerModule&#45;&gt;SessionModule</title>
<path fill="none" stroke="black" d="M245.41,-122.11C245.41,-122.11 245.41,-140.99 245.41,-140.99"/>
<polygon fill="black" stroke="black" points="241.91,-140.99 245.41,-150.99 248.91,-140.99 241.91,-140.99"/>
</g>
<!-- StatusListModule -->
<g id="node2" class="node">
<title>StatusListModule</title>
<polygon fill="#8dd3c7" stroke="black" points="139.55,-122 136.55,-126 115.55,-126 112.55,-122 24.45,-122 24.45,-86 139.55,-86 139.55,-122"/>
<text text-anchor="middle" x="82" y="-99.8" font-family="Times,serif" font-size="14.00">StatusListModule</text>
</g>
<!-- StatusListModule&#45;&gt;SessionModule -->
<g id="edge2" class="edge">
<title>StatusListModule&#45;&gt;SessionModule</title>
<path fill="none" stroke="black" d="M114.82,-122.02C114.82,-139.37 114.82,-163 114.82,-163 114.82,-163 222.78,-163 222.78,-163"/>
<polygon fill="black" stroke="black" points="222.78,-166.5 232.78,-163 222.78,-159.5 222.78,-166.5"/>
</g>
<!-- LoggerModule  -->
<g id="node4" class="node">
<title>LoggerModule </title>
<polygon fill="#fb8072" stroke="black" points="476.98,-252 373.02,-252 373.02,-216 476.98,-216 476.98,-252"/>
<text text-anchor="middle" x="425" y="-229.8" font-family="Times,serif" font-size="14.00">LoggerModule </text>
</g>
<!-- SessionModule&#45;&gt;LoggerModule  -->
<g id="edge3" class="edge">
<title>SessionModule&#45;&gt;LoggerModule </title>
<path fill="none" stroke="black" stroke-dasharray="5,2" d="M335.49,-175C365.26,-175 396.88,-175 396.88,-175 396.88,-175 396.88,-205.98 396.88,-205.98"/>
<polygon fill="black" stroke="black" points="393.38,-205.98 396.88,-215.98 400.38,-205.98 393.38,-205.98"/>
</g>
<!-- SessionConfigService  -->
<g id="node5" class="node">
<title>SessionConfigService </title>
<polygon fill="#fb8072" stroke="black" points="355.64,-252 212.36,-252 212.36,-216 355.64,-216 355.64,-252"/>
<text text-anchor="middle" x="284" y="-229.8" font-family="Times,serif" font-size="14.00">SessionConfigService </text>
</g>
<!-- SessionModule&#45;&gt;SessionConfigService  -->
<g id="edge4" class="edge">
<title>SessionModule&#45;&gt;SessionConfigService </title>
<path fill="none" stroke="black" stroke-dasharray="5,2" d="M284,-187.11C284,-187.11 284,-205.99 284,-205.99"/>
<polygon fill="black" stroke="black" points="280.5,-205.99 284,-215.99 287.5,-205.99 280.5,-205.99"/>
</g>
<!-- SessionService  -->
<g id="node6" class="node">
<title>SessionService </title>
<polygon fill="#fb8072" stroke="black" points="194.25,-252 89.75,-252 89.75,-216 194.25,-216 194.25,-252"/>
<text text-anchor="middle" x="142" y="-229.8" font-family="Times,serif" font-size="14.00">SessionService </text>
</g>
<!-- SessionModule&#45;&gt;SessionService  -->
<g id="edge5" class="edge">
<title>SessionModule&#45;&gt;SessionService </title>
<path fill="none" stroke="black" stroke-dasharray="5,2" d="M232.56,-175C204.76,-175 176.07,-175 176.07,-175 176.07,-175 176.07,-205.98 176.07,-205.98"/>
<polygon fill="black" stroke="black" points="172.57,-205.98 176.07,-215.98 179.57,-205.98 172.57,-205.98"/>
</g>
<!-- SessionConfigService -->
<g id="node7" class="node">
<title>SessionConfigService</title>
<ellipse fill="#fdb462" stroke="black" cx="535" cy="-104" rx="96.15" ry="18"/>
<text text-anchor="middle" x="535" y="-99.8" font-family="Times,serif" font-size="14.00">SessionConfigService</text>
</g>
<!-- SessionConfigService&#45;&gt;SessionModule -->
<g id="edge6" class="edge">
<title>SessionConfigService&#45;&gt;SessionModule</title>
<path fill="none" stroke="black" d="M457.71,-114.82C457.71,-131.85 457.71,-163 457.71,-163 457.71,-163 345.18,-163 345.18,-163"/>
<polygon fill="black" stroke="black" points="345.18,-159.5 335.18,-163 345.18,-166.5 345.18,-159.5"/>
</g>
<!-- SessionService -->
<g id="node8" class="node">
<title>SessionService</title>
<ellipse fill="#fdb462" stroke="black" cx="351" cy="-104" rx="69.5" ry="18"/>
<text text-anchor="middle" x="351" y="-99.8" font-family="Times,serif" font-size="14.00">SessionService</text>
</g>
<!-- SessionService&#45;&gt;SessionModule -->
<g id="edge7" class="edge">
<title>SessionService&#45;&gt;SessionModule</title>
<path fill="none" stroke="black" d="M308.33,-118.43C308.33,-118.43 308.33,-140.89 308.33,-140.89"/>
<polygon fill="black" stroke="black" points="304.83,-140.89 308.33,-150.89 311.83,-140.89 304.83,-140.89"/>
</g>
</g>
</svg>
