<?xml version="1.0" encoding="UTF-8" standalone="no"?>
<!DOCTYPE svg PUBLIC "-//W3C//DTD SVG 1.1//EN"
 "http://www.w3.org/Graphics/SVG/1.1/DTD/svg11.dtd">
<!-- Generated by graphviz version 2.47.0 (20210316.0004)
 -->
<!-- Title: dependencies Pages: 1 -->
<svg width="1497pt" height="284pt"
 viewBox="0.00 0.00 1497.00 284.00" xmlns="http://www.w3.org/2000/svg" xmlns:xlink="http://www.w3.org/1999/xlink">
<g id="graph0" class="graph" transform="scale(1 1) rotate(0) translate(4 280)">
<title>dependencies</title>
<polygon fill="white" stroke="transparent" points="-4,4 -4,-280 1493,-280 1493,4 -4,4"/>
<text text-anchor="start" x="723.51" y="-42.4" font-family="Times-12" font-weight="bold" font-size="14.00">Legend</text>
<polygon fill="#ffffb3" stroke="transparent" points="510.5,-10 510.5,-30 530.5,-30 530.5,-10 510.5,-10"/>
<text text-anchor="start" x="534.13" y="-15.4" font-family="Times-12" font-size="14.00"> &#160;Declarations</text>
<polygon fill="#8dd3c7" stroke="transparent" points="623.5,-10 623.5,-30 643.5,-30 643.5,-10 623.5,-10"/>
<text text-anchor="start" x="647.23" y="-15.4" font-family="Times-12" font-size="14.00"> &#160;Module</text>
<polygon fill="#80b1d3" stroke="transparent" points="709.5,-10 709.5,-30 729.5,-30 729.5,-10 709.5,-10"/>
<text text-anchor="start" x="733.28" y="-15.4" font-family="Times-12" font-size="14.00"> &#160;Bootstrap</text>
<polygon fill="#fdb462" stroke="transparent" points="806.5,-10 806.5,-30 826.5,-30 826.5,-10 806.5,-10"/>
<text text-anchor="start" x="830.17" y="-15.4" font-family="Times-12" font-size="14.00"> &#160;Providers</text>
<polygon fill="#fb8072" stroke="transparent" points="902.5,-10 902.5,-30 922.5,-30 922.5,-10 902.5,-10"/>
<text text-anchor="start" x="926.23" y="-15.4" font-family="Times-12" font-size="14.00"> &#160;Exports</text>
<g id="clust1" class="cluster">
<title>cluster_RegistrarModule</title>
<polygon fill="none" stroke="black" stroke-dasharray="1,5" points="8,-70 8,-268 1481,-268 1481,-70 8,-70"/>
</g>
<g id="clust6" class="cluster">
<title>cluster_RegistrarModule_providers</title>
<polygon fill="none" stroke="black" points="138,-78 138,-130 1473,-130 1473,-78 138,-78"/>
</g>
<g id="clust4" class="cluster">
<title>cluster_RegistrarModule_exports</title>
<polygon fill="none" stroke="black" points="661,-208 661,-260 789,-260 789,-208 661,-208"/>
</g>
<g id="clust3" class="cluster">
<title>cluster_RegistrarModule_imports</title>
<polygon fill="none" stroke="black" points="16,-78 16,-130 130,-130 130,-78 16,-78"/>
</g>
<!-- CryptoModule -->
<g id="node1" class="node">
<title>CryptoModule</title>
<polygon fill="#8dd3c7" stroke="black" points="122.44,-122 119.44,-126 98.44,-126 95.44,-122 23.56,-122 23.56,-86 122.44,-86 122.44,-122"/>
<text text-anchor="middle" x="73" y="-99.8" font-family="Times,serif" font-size="14.00">CryptoModule</text>
</g>
<!-- RegistrarModule -->
<g id="node2" class="node">
<title>RegistrarModule</title>
<polygon fill="#8dd3c7" stroke="black" points="780.36,-187 777.36,-191 756.36,-191 753.36,-187 669.64,-187 669.64,-151 780.36,-151 780.36,-187"/>
<text text-anchor="middle" x="725" y="-164.8" font-family="Times,serif" font-size="14.00">RegistrarModule</text>
</g>
<!-- CryptoModule&#45;&gt;RegistrarModule -->
<g id="edge1" class="edge">
<title>CryptoModule&#45;&gt;RegistrarModule</title>
<path fill="none" stroke="black" d="M73,-122.29C73,-144.21 73,-178 73,-178 73,-178 659.41,-178 659.41,-178"/>
<polygon fill="black" stroke="black" points="659.41,-181.5 669.41,-178 659.41,-174.5 659.41,-181.5"/>
</g>
<!-- RegistrarService  -->
<g id="node3" class="node">
<title>RegistrarService </title>
<polygon fill="#fb8072" stroke="black" points="781.29,-252 668.71,-252 668.71,-216 781.29,-216 781.29,-252"/>
<text text-anchor="middle" x="725" y="-229.8" font-family="Times,serif" font-size="14.00">RegistrarService </text>
</g>
<!-- RegistrarModule&#45;&gt;RegistrarService  -->
<g id="edge2" class="edge">
<title>RegistrarModule&#45;&gt;RegistrarService </title>
<path fill="none" stroke="black" stroke-dasharray="5,2" d="M725,-187.11C725,-187.11 725,-205.99 725,-205.99"/>
<polygon fill="black" stroke="black" points="721.5,-205.99 725,-215.99 728.5,-205.99 721.5,-205.99"/>
</g>
<!-- AccessCertificateService -->
<g id="node4" class="node">
<title>AccessCertificateService</title>
<ellipse fill="#fdb462" stroke="black" cx="1357" cy="-104" rx="108.17" ry="18"/>
<text text-anchor="middle" x="1357" y="-99.8" font-family="Times,serif" font-size="14.00">AccessCertificateService</text>
</g>
<!-- AccessCertificateService&#45;&gt;RegistrarModule -->
<g id="edge3" class="edge">
<title>AccessCertificateService&#45;&gt;RegistrarModule</title>
<path fill="none" stroke="black" d="M1357,-122.29C1357,-144.21 1357,-178 1357,-178 1357,-178 790.53,-178 790.53,-178"/>
<polygon fill="black" stroke="black" points="790.53,-174.5 780.53,-178 790.53,-181.5 790.53,-174.5"/>
</g>
<!-- RegistrarAuthService -->
<g id="node5" class="node">
<title>RegistrarAuthService</title>
<ellipse fill="#fdb462" stroke="black" cx="1136" cy="-104" rx="94.9" ry="18"/>
<text text-anchor="middle" x="1136" y="-99.8" font-family="Times,serif" font-size="14.00">RegistrarAuthService</text>
</g>
<!-- RegistrarAuthService&#45;&gt;RegistrarModule -->
<g id="edge4" class="edge">
<title>RegistrarAuthService&#45;&gt;RegistrarModule</title>
<path fill="none" stroke="black" d="M1136,-122.11C1136,-141.34 1136,-169 1136,-169 1136,-169 790.43,-169 790.43,-169"/>
<polygon fill="black" stroke="black" points="790.43,-165.5 780.43,-169 790.43,-172.5 790.43,-165.5"/>
</g>
<!-- RegistrarConfigService -->
<g id="node6" class="node">
<title>RegistrarConfigService</title>
<ellipse fill="#fdb462" stroke="black" cx="921" cy="-104" rx="102.42" ry="18"/>
<text text-anchor="middle" x="921" y="-99.8" font-family="Times,serif" font-size="14.00">RegistrarConfigService</text>
</g>
<!-- RegistrarConfigService&#45;&gt;RegistrarModule -->
<g id="edge5" class="edge">
<title>RegistrarConfigService&#45;&gt;RegistrarModule</title>
<path fill="none" stroke="black" d="M921,-122.03C921,-138.4 921,-160 921,-160 921,-160 790.38,-160 790.38,-160"/>
<polygon fill="black" stroke="black" points="790.38,-156.5 780.38,-160 790.38,-163.5 790.38,-156.5"/>
</g>
<!-- RegistrarService -->
<g id="node7" class="node">
<title>RegistrarService</title>
<ellipse fill="#fdb462" stroke="black" cx="725" cy="-104" rx="75.27" ry="18"/>
<text text-anchor="middle" x="725" y="-99.8" font-family="Times,serif" font-size="14.00">RegistrarService</text>
</g>
<!-- RegistrarService&#45;&gt;RegistrarModule -->
<g id="edge6" class="edge">
<title>RegistrarService&#45;&gt;RegistrarModule</title>
<path fill="none" stroke="black" d="M725,-122.11C725,-122.11 725,-140.99 725,-140.99"/>
<polygon fill="black" stroke="black" points="721.5,-140.99 725,-150.99 728.5,-140.99 721.5,-140.99"/>
</g>
<!-- RegistrationCertificateService -->
<g id="node8" class="node">
<title>RegistrationCertificateService</title>
<ellipse fill="#fdb462" stroke="black" cx="504" cy="-104" rx="127.89" ry="18"/>
<text text-anchor="middle" x="504" y="-99.8" font-family="Times,serif" font-size="14.00">RegistrationCertificateService</text>
</g>
<!-- RegistrationCertificateService&#45;&gt;RegistrarModule -->
<g id="edge7" class="edge">
<title>RegistrationCertificateService&#45;&gt;RegistrarModule</title>
<path fill="none" stroke="black" d="M504,-122.03C504,-138.4 504,-160 504,-160 504,-160 659.52,-160 659.52,-160"/>
<polygon fill="black" stroke="black" points="659.52,-163.5 669.52,-160 659.52,-156.5 659.52,-163.5"/>
</g>
<!-- SchemaMetadataService -->
<g id="node9" class="node">
<title>SchemaMetadataService</title>
<ellipse fill="#fdb462" stroke="black" cx="252" cy="-104" rx="106.48" ry="18"/>
<text text-anchor="middle" x="252" y="-99.8" font-family="Times,serif" font-size="14.00">SchemaMetadataService</text>
</g>
<!-- SchemaMetadataService&#45;&gt;RegistrarModule -->
<g id="edge8" class="edge">
<title>SchemaMetadataService&#45;&gt;RegistrarModule</title>
<path fill="none" stroke="black" d="M252,-122.11C252,-141.34 252,-169 252,-169 252,-169 659.35,-169 659.35,-169"/>
<polygon fill="black" stroke="black" points="659.35,-172.5 669.35,-169 659.35,-165.5 659.35,-172.5"/>
</g>
</g>
</svg>
