<?xml version="1.0" encoding="UTF-8" standalone="no"?>
<!DOCTYPE svg PUBLIC "-//W3C//DTD SVG 1.1//EN"
 "http://www.w3.org/Graphics/SVG/1.1/DTD/svg11.dtd">
<!-- Generated by graphviz version 2.47.0 (20210316.0004)
 -->
<!-- Title: dependencies Pages: 1 -->
<svg width="697pt" height="284pt"
 viewBox="0.00 0.00 697.00 284.00" xmlns="http://www.w3.org/2000/svg" xmlns:xlink="http://www.w3.org/1999/xlink">
<g id="graph0" class="graph" transform="scale(1 1) rotate(0) translate(4 280)">
<title>dependencies</title>
<polygon fill="white" stroke="transparent" points="-4,4 -4,-280 693,-280 693,4 -4,4"/>
<text text-anchor="start" x="323.51" y="-42.4" font-family="Times-12" font-weight="bold" font-size="14.00">Legend</text>
<polygon fill="#ffffb3" stroke="transparent" points="110.5,-10 110.5,-30 130.5,-30 130.5,-10 110.5,-10"/>
<text text-anchor="start" x="134.13" y="-15.4" font-family="Times-12" font-size="14.00"> &#160;Declarations</text>
<polygon fill="#8dd3c7" stroke="transparent" points="223.5,-10 223.5,-30 243.5,-30 243.5,-10 223.5,-10"/>
<text text-anchor="start" x="247.23" y="-15.4" font-family="Times-12" font-size="14.00"> &#160;Module</text>
<polygon fill="#80b1d3" stroke="transparent" points="309.5,-10 309.5,-30 329.5,-30 329.5,-10 309.5,-10"/>
<text text-anchor="start" x="333.28" y="-15.4" font-family="Times-12" font-size="14.00"> &#160;Bootstrap</text>
<polygon fill="#fdb462" stroke="transparent" points="406.5,-10 406.5,-30 426.5,-30 426.5,-10 406.5,-10"/>
<text text-anchor="start" x="430.17" y="-15.4" font-family="Times-12" font-size="14.00"> &#160;Providers</text>
<polygon fill="#fb8072" stroke="transparent" points="502.5,-10 502.5,-30 522.5,-30 522.5,-10 502.5,-10"/>
<text text-anchor="start" x="526.23" y="-15.4" font-family="Times-12" font-size="14.00"> &#160;Exports</text>
<g id="clust1" class="cluster">
<title>cluster_LoggerModule</title>
<polygon fill="none" stroke="black" stroke-dasharray="1,5" points="8,-70 8,-268 681,-268 681,-70 8,-70"/>
</g>
<g id="clust4" class="cluster">
<title>cluster_LoggerModule_exports</title>
<polygon fill="none" stroke="black" points="181,-208 181,-260 523,-260 523,-208 181,-208"/>
</g>
<g id="clust6" class="cluster">
<title>cluster_LoggerModule_providers</title>
<polygon fill="none" stroke="black" points="16,-78 16,-130 673,-130 673,-78 16,-78"/>
</g>
<!-- SessionLoggerInterceptor  -->
<g id="node1" class="node">
<title>SessionLoggerInterceptor </title>
<polygon fill="#fb8072" stroke="black" points="515.11,-252 350.89,-252 350.89,-216 515.11,-216 515.11,-252"/>
<text text-anchor="middle" x="433" y="-229.8" font-family="Times,serif" font-size="14.00">SessionLoggerInterceptor </text>
</g>
<!-- SessionLoggerService  -->
<g id="node2" class="node">
<title>SessionLoggerService </title>
<polygon fill="#fb8072" stroke="black" points="333.18,-252 188.82,-252 188.82,-216 333.18,-216 333.18,-252"/>
<text text-anchor="middle" x="261" y="-229.8" font-family="Times,serif" font-size="14.00">SessionLoggerService </text>
</g>
<!-- LoggerModule -->
<g id="node3" class="node">
<title>LoggerModule</title>
<polygon fill="#8dd3c7" stroke="black" points="396.98,-187 393.98,-191 372.98,-191 369.98,-187 297.02,-187 297.02,-151 396.98,-151 396.98,-187"/>
<text text-anchor="middle" x="347" y="-164.8" font-family="Times,serif" font-size="14.00">LoggerModule</text>
</g>
<!-- LoggerModule&#45;&gt;SessionLoggerInterceptor  -->
<g id="edge1" class="edge">
<title>LoggerModule&#45;&gt;SessionLoggerInterceptor </title>
<path fill="none" stroke="black" stroke-dasharray="5,2" d="M373.97,-187.11C373.97,-187.11 373.97,-205.99 373.97,-205.99"/>
<polygon fill="black" stroke="black" points="370.47,-205.99 373.97,-215.99 377.47,-205.99 370.47,-205.99"/>
</g>
<!-- LoggerModule&#45;&gt;SessionLoggerService  -->
<g id="edge2" class="edge">
<title>LoggerModule&#45;&gt;SessionLoggerService </title>
<path fill="none" stroke="black" stroke-dasharray="5,2" d="M315.18,-187.11C315.18,-187.11 315.18,-205.99 315.18,-205.99"/>
<polygon fill="black" stroke="black" points="311.68,-205.99 315.18,-215.99 318.68,-205.99 311.68,-205.99"/>
</g>
<!-- LoggerConfigService -->
<g id="node4" class="node">
<title>LoggerConfigService</title>
<ellipse fill="#fdb462" stroke="black" cx="570" cy="-104" rx="94.91" ry="18"/>
<text text-anchor="middle" x="570" y="-99.8" font-family="Times,serif" font-size="14.00">LoggerConfigService</text>
</g>
<!-- LoggerConfigService&#45;&gt;LoggerModule -->
<g id="edge3" class="edge">
<title>LoggerConfigService&#45;&gt;LoggerModule</title>
<path fill="none" stroke="black" d="M495.18,-115.32C495.18,-133.95 495.18,-169 495.18,-169 495.18,-169 407.17,-169 407.17,-169"/>
<polygon fill="black" stroke="black" points="407.17,-165.5 397.17,-169 407.17,-172.5 407.17,-165.5"/>
</g>
<!-- SessionLoggerInterceptor -->
<g id="node5" class="node">
<title>SessionLoggerInterceptor</title>
<ellipse fill="#fdb462" stroke="black" cx="347" cy="-104" rx="110.57" ry="18"/>
<text text-anchor="middle" x="347" y="-99.8" font-family="Times,serif" font-size="14.00">SessionLoggerInterceptor</text>
</g>
<!-- SessionLoggerInterceptor&#45;&gt;LoggerModule -->
<g id="edge4" class="edge">
<title>SessionLoggerInterceptor&#45;&gt;LoggerModule</title>
<path fill="none" stroke="black" d="M347,-122.11C347,-122.11 347,-140.99 347,-140.99"/>
<polygon fill="black" stroke="black" points="343.5,-140.99 347,-150.99 350.5,-140.99 343.5,-140.99"/>
</g>
<!-- SessionLoggerService -->
<g id="node6" class="node">
<title>SessionLoggerService</title>
<ellipse fill="#fdb462" stroke="black" cx="121" cy="-104" rx="97.27" ry="18"/>
<text text-anchor="middle" x="121" y="-99.8" font-family="Times,serif" font-size="14.00">SessionLoggerService</text>
</g>
<!-- SessionLoggerService&#45;&gt;LoggerModule -->
<g id="edge5" class="edge">
<title>SessionLoggerService&#45;&gt;LoggerModule</title>
<path fill="none" stroke="black" d="M203.52,-113.59C203.52,-131.67 203.52,-169 203.52,-169 203.52,-169 286.82,-169 286.82,-169"/>
<polygon fill="black" stroke="black" points="286.82,-172.5 296.82,-169 286.82,-165.5 286.82,-172.5"/>
</g>
</g>
</svg>
