<?xml version="1.0" encoding="UTF-8" standalone="no"?>
<!DOCTYPE svg PUBLIC "-//W3C//DTD SVG 1.1//EN"
 "http://www.w3.org/Graphics/SVG/1.1/DTD/svg11.dtd">
<!-- Generated by graphviz version 2.47.0 (20210316.0004)
 -->
<!-- Title: dependencies Pages: 1 -->
<svg width="2236pt" height="284pt"
 viewBox="0.00 0.00 2236.00 284.00" xmlns="http://www.w3.org/2000/svg" xmlns:xlink="http://www.w3.org/1999/xlink">
<g id="graph0" class="graph" transform="scale(1 1) rotate(0) translate(4 280)">
<title>dependencies</title>
<polygon fill="white" stroke="transparent" points="-4,4 -4,-280 2232,-280 2232,4 -4,4"/>
<text text-anchor="start" x="1093.01" y="-42.4" font-family="Times-12" font-weight="bold" font-size="14.00">Legend</text>
<polygon fill="#ffffb3" stroke="transparent" points="880,-10 880,-30 900,-30 900,-10 880,-10"/>
<text text-anchor="start" x="903.63" y="-15.4" font-family="Times-12" font-size="14.00"> &#160;Declarations</text>
<polygon fill="#8dd3c7" stroke="transparent" points="993,-10 993,-30 1013,-30 1013,-10 993,-10"/>
<text text-anchor="start" x="1016.73" y="-15.4" font-family="Times-12" font-size="14.00"> &#160;Module</text>
<polygon fill="#80b1d3" stroke="transparent" points="1079,-10 1079,-30 1099,-30 1099,-10 1079,-10"/>
<text text-anchor="start" x="1102.78" y="-15.4" font-family="Times-12" font-size="14.00"> &#160;Bootstrap</text>
<polygon fill="#fdb462" stroke="transparent" points="1176,-10 1176,-30 1196,-30 1196,-10 1176,-10"/>
<text text-anchor="start" x="1199.67" y="-15.4" font-family="Times-12" font-size="14.00"> &#160;Providers</text>
<polygon fill="#fb8072" stroke="transparent" points="1272,-10 1272,-30 1292,-30 1292,-10 1272,-10"/>
<text text-anchor="start" x="1295.73" y="-15.4" font-family="Times-12" font-size="14.00"> &#160;Exports</text>
<g id="clust1" class="cluster">
<title>cluster_IssuerModule</title>
<polygon fill="none" stroke="black" stroke-dasharray="1,5" points="8,-70 8,-268 2220,-268 2220,-70 8,-70"/>
</g>
<g id="clust4" class="cluster">
<title>cluster_IssuerModule_exports</title>
<polygon fill="none" stroke="black" points="754,-208 754,-260 1316,-260 1316,-208 754,-208"/>
</g>
<g id="clust6" class="cluster">
<title>cluster_IssuerModule_providers</title>
<polygon fill="none" stroke="black" points="512,-78 512,-130 2212,-130 2212,-78 512,-78"/>
</g>
<g id="clust3" class="cluster">
<title>cluster_IssuerModule_imports</title>
<polygon fill="none" stroke="black" points="16,-78 16,-130 504,-130 504,-78 16,-78"/>
</g>
<!-- CryptoModule -->
<g id="node1" class="node">
<title>CryptoModule</title>
<polygon fill="#8dd3c7" stroke="black" points="496.44,-122 493.44,-126 472.44,-126 469.44,-122 397.56,-122 397.56,-86 496.44,-86 496.44,-122"/>
<text text-anchor="middle" x="447" y="-99.8" font-family="Times,serif" font-size="14.00">CryptoModule</text>
</g>
<!-- IssuerModule -->
<g id="node5" class="node">
<title>IssuerModule</title>
<polygon fill="#8dd3c7" stroke="black" points="1063.47,-187 1060.47,-191 1039.47,-191 1036.47,-187 970.53,-187 970.53,-151 1063.47,-151 1063.47,-187"/>
<text text-anchor="middle" x="1017" y="-164.8" font-family="Times,serif" font-size="14.00">IssuerModule</text>
</g>
<!-- CryptoModule&#45;&gt;IssuerModule -->
<g id="edge1" class="edge">
<title>CryptoModule&#45;&gt;IssuerModule</title>
<path fill="none" stroke="black" d="M447,-122.3C447,-140.27 447,-165 447,-165 447,-165 960.35,-165 960.35,-165"/>
<polygon fill="black" stroke="black" points="960.35,-168.5 970.35,-165 960.35,-161.5 960.35,-168.5"/>
</g>
<!-- Oid4vpModule -->
<g id="node2" class="node">
<title>Oid4vpModule</title>
<polygon fill="#8dd3c7" stroke="black" points="379.55,-122 376.55,-126 355.55,-126 352.55,-122 278.45,-122 278.45,-86 379.55,-86 379.55,-122"/>
<text text-anchor="middle" x="329" y="-99.8" font-family="Times,serif" font-size="14.00">Oid4vpModule</text>
</g>
<!-- Oid4vpModule&#45;&gt;IssuerModule -->
<g id="edge2" class="edge">
<title>Oid4vpModule&#45;&gt;IssuerModule</title>
<path fill="none" stroke="black" d="M329,-122.11C329,-141.34 329,-169 329,-169 329,-169 960.52,-169 960.52,-169"/>
<polygon fill="black" stroke="black" points="960.52,-172.5 970.52,-169 960.52,-165.5 960.52,-172.5"/>
</g>
<!-- SessionModule -->
<g id="node3" class="node">
<title>SessionModule</title>
<polygon fill="#8dd3c7" stroke="black" points="260.33,-122 257.33,-126 236.33,-126 233.33,-122 157.67,-122 157.67,-86 260.33,-86 260.33,-122"/>
<text text-anchor="middle" x="209" y="-99.8" font-family="Times,serif" font-size="14.00">SessionModule</text>
</g>
<!-- SessionModule&#45;&gt;IssuerModule -->
<g id="edge3" class="edge">
<title>SessionModule&#45;&gt;IssuerModule</title>
<path fill="none" stroke="black" d="M209,-122.03C209,-142.77 209,-174 209,-174 209,-174 960.36,-174 960.36,-174"/>
<polygon fill="black" stroke="black" points="960.36,-177.5 970.36,-174 960.36,-170.5 960.36,-177.5"/>
</g>
<!-- StatusListModule -->
<g id="node4" class="node">
<title>StatusListModule</title>
<polygon fill="#8dd3c7" stroke="black" points="139.55,-122 136.55,-126 115.55,-126 112.55,-122 24.45,-122 24.45,-86 139.55,-86 139.55,-122"/>
<text text-anchor="middle" x="82" y="-99.8" font-family="Times,serif" font-size="14.00">StatusListModule</text>
</g>
<!-- StatusListModule&#45;&gt;IssuerModule -->
<g id="edge4" class="edge">
<title>StatusListModule&#45;&gt;IssuerModule</title>
<path fill="none" stroke="black" d="M82,-122.29C82,-144.21 82,-178 82,-178 82,-178 960.31,-178 960.31,-178"/>
<polygon fill="black" stroke="black" points="960.31,-181.5 970.31,-178 960.31,-174.5 960.31,-181.5"/>
</g>
<!-- AuthorizeService  -->
<g id="node6" class="node">
<title>AuthorizeService </title>
<polygon fill="#fb8072" stroke="black" points="1307.96,-252 1190.04,-252 1190.04,-216 1307.96,-216 1307.96,-252"/>
<text text-anchor="middle" x="1249" y="-229.8" font-family="Times,serif" font-size="14.00">AuthorizeService </text>
</g>
<!-- IssuerModule&#45;&gt;AuthorizeService  -->
<g id="edge5" class="edge">
<title>IssuerModule&#45;&gt;AuthorizeService </title>
<path fill="none" stroke="black" stroke-dasharray="5,2" d="M1063.58,-183C1128.73,-183 1239.19,-183 1239.19,-183 1239.19,-183 1239.19,-205.88 1239.19,-205.88"/>
<polygon fill="black" stroke="black" points="1235.69,-205.88 1239.19,-215.88 1242.69,-205.88 1235.69,-205.88"/>
</g>
<!-- CredentialConfigService  -->
<g id="node7" class="node">
<title>CredentialConfigService </title>
<polygon fill="#fb8072" stroke="black" points="1172.18,-252 1013.82,-252 1013.82,-216 1172.18,-216 1172.18,-252"/>
<text text-anchor="middle" x="1093" y="-229.8" font-family="Times,serif" font-size="14.00">CredentialConfigService </text>
</g>
<!-- IssuerModule&#45;&gt;CredentialConfigService  -->
<g id="edge6" class="edge">
<title>IssuerModule&#45;&gt;CredentialConfigService </title>
<path fill="none" stroke="black" stroke-dasharray="5,2" d="M1038.57,-187.11C1038.57,-187.11 1038.57,-205.99 1038.57,-205.99"/>
<polygon fill="black" stroke="black" points="1035.07,-205.99 1038.57,-215.99 1042.07,-205.99 1035.07,-205.99"/>
</g>
<!-- IssuanceService  -->
<g id="node8" class="node">
<title>IssuanceService </title>
<polygon fill="#fb8072" stroke="black" points="995.67,-252 886.33,-252 886.33,-216 995.67,-216 995.67,-252"/>
<text text-anchor="middle" x="941" y="-229.8" font-family="Times,serif" font-size="14.00">IssuanceService </text>
</g>
<!-- IssuerModule&#45;&gt;IssuanceService  -->
<g id="edge7" class="edge">
<title>IssuerModule&#45;&gt;IssuanceService </title>
<path fill="none" stroke="black" stroke-dasharray="5,2" d="M983.17,-187.11C983.17,-187.11 983.17,-205.99 983.17,-205.99"/>
<polygon fill="black" stroke="black" points="979.67,-205.99 983.17,-215.99 986.67,-205.99 979.67,-205.99"/>
</g>
<!-- Oid4vciService  -->
<g id="node9" class="node">
<title>Oid4vciService </title>
<polygon fill="#fb8072" stroke="black" points="868.08,-252 761.92,-252 761.92,-216 868.08,-216 868.08,-252"/>
<text text-anchor="middle" x="815" y="-229.8" font-family="Times,serif" font-size="14.00">Oid4vciService </text>
</g>
<!-- IssuerModule&#45;&gt;Oid4vciService  -->
<g id="edge8" class="edge">
<title>IssuerModule&#45;&gt;Oid4vciService </title>
<path fill="none" stroke="black" stroke-dasharray="5,2" d="M970.4,-183C910.75,-183 815,-183 815,-183 815,-183 815,-205.88 815,-205.88"/>
<polygon fill="black" stroke="black" points="811.5,-205.88 815,-215.88 818.5,-205.88 811.5,-205.88"/>
</g>
<!-- AuthorizeService -->
<g id="node10" class="node">
<title>AuthorizeService</title>
<ellipse fill="#fdb462" stroke="black" cx="2125" cy="-104" rx="78.71" ry="18"/>
<text text-anchor="middle" x="2125" y="-99.8" font-family="Times,serif" font-size="14.00">AuthorizeService</text>
</g>
<!-- AuthorizeService&#45;&gt;IssuerModule -->
<g id="edge9" class="edge">
<title>AuthorizeService&#45;&gt;IssuerModule</title>
<path fill="none" stroke="black" d="M2125,-122.29C2125,-144.21 2125,-178 2125,-178 2125,-178 1073.55,-178 1073.55,-178"/>
<polygon fill="black" stroke="black" points="1073.55,-174.5 1063.55,-178 1073.55,-181.5 1073.55,-174.5"/>
</g>
<!-- CredentialConfigService -->
<g id="node11" class="node">
<title>CredentialConfigService</title>
<ellipse fill="#fdb462" stroke="black" cx="1921" cy="-104" rx="107.08" ry="18"/>
<text text-anchor="middle" x="1921" y="-99.8" font-family="Times,serif" font-size="14.00">CredentialConfigService</text>
</g>
<!-- CredentialConfigService&#45;&gt;IssuerModule -->
<g id="edge10" class="edge">
<title>CredentialConfigService&#45;&gt;IssuerModule</title>
<path fill="none" stroke="black" d="M1921,-122.03C1921,-142.77 1921,-174 1921,-174 1921,-174 1073.7,-174 1073.7,-174"/>
<polygon fill="black" stroke="black" points="1073.7,-170.5 1063.7,-174 1073.7,-177.5 1073.7,-170.5"/>
</g>
<!-- CredentialsService -->
<g id="node12" class="node">
<title>CredentialsService</title>
<ellipse fill="#fdb462" stroke="black" cx="1712" cy="-104" rx="83.94" ry="18"/>
<text text-anchor="middle" x="1712" y="-99.8" font-family="Times,serif" font-size="14.00">CredentialsService</text>
</g>
<!-- CredentialsService&#45;&gt;IssuerModule -->
<g id="edge11" class="edge">
<title>CredentialsService&#45;&gt;IssuerModule</title>
<path fill="none" stroke="black" d="M1712,-122.11C1712,-141.34 1712,-169 1712,-169 1712,-169 1073.68,-169 1073.68,-169"/>
<polygon fill="black" stroke="black" points="1073.68,-165.5 1063.68,-169 1073.68,-172.5 1073.68,-165.5"/>
</g>
<!-- DisplayService -->
<g id="node13" class="node">
<title>DisplayService</title>
<ellipse fill="#fdb462" stroke="black" cx="1540" cy="-104" rx="70.06" ry="18"/>
<text text-anchor="middle" x="1540" y="-99.8" font-family="Times,serif" font-size="14.00">DisplayService</text>
</g>
<!-- DisplayService&#45;&gt;IssuerModule -->
<g id="edge12" class="edge">
<title>DisplayService&#45;&gt;IssuerModule</title>
<path fill="none" stroke="black" d="M1540,-122.3C1540,-140.27 1540,-165 1540,-165 1540,-165 1073.87,-165 1073.87,-165"/>
<polygon fill="black" stroke="black" points="1073.87,-161.5 1063.87,-165 1073.87,-168.5 1073.87,-161.5"/>
</g>
<!-- IssuanceService -->
<g id="node14" class="node">
<title>IssuanceService</title>
<ellipse fill="#fdb462" stroke="black" cx="1379" cy="-104" rx="73.47" ry="18"/>
<text text-anchor="middle" x="1379" y="-99.8" font-family="Times,serif" font-size="14.00">IssuanceService</text>
</g>
<!-- IssuanceService&#45;&gt;IssuerModule -->
<g id="edge13" class="edge">
<title>IssuanceService&#45;&gt;IssuerModule</title>
<path fill="none" stroke="black" d="M1379.98,-122.03C1379.98,-138.4 1379.98,-160 1379.98,-160 1379.98,-160 1073.71,-160 1073.71,-160"/>
<polygon fill="black" stroke="black" points="1073.71,-156.5 1063.71,-160 1073.71,-163.5 1073.71,-156.5"/>
</g>
<!-- Oid4vciService -->
<g id="node15" class="node">
<title>Oid4vciService</title>
<ellipse fill="#fdb462" stroke="black" cx="1217" cy="-104" rx="71.21" ry="18"/>
<text text-anchor="middle" x="1217" y="-99.8" font-family="Times,serif" font-size="14.00">Oid4vciService</text>
</g>
<!-- Oid4vciService&#45;&gt;IssuerModule -->
<g id="edge14" class="edge">
<title>Oid4vciService&#45;&gt;IssuerModule</title>
<path fill="none" stroke="black" d="M1159.12,-114.52C1159.12,-129.72 1159.12,-156 1159.12,-156 1159.12,-156 1073.53,-156 1073.53,-156"/>
<polygon fill="black" stroke="black" points="1073.53,-152.5 1063.53,-156 1073.53,-159.5 1073.53,-152.5"/>
</g>
<!-- SessionLoggerInterceptor -->
<g id="node16" class="node">
<title>SessionLoggerInterceptor</title>
<ellipse fill="#fdb462" stroke="black" cx="1017" cy="-104" rx="110.57" ry="18"/>
<text text-anchor="middle" x="1017" y="-99.8" font-family="Times,serif" font-size="14.00">SessionLoggerInterceptor</text>
</g>
<!-- SessionLoggerInterceptor&#45;&gt;IssuerModule -->
<g id="edge15" class="edge">
<title>SessionLoggerInterceptor&#45;&gt;IssuerModule</title>
<path fill="none" stroke="black" d="M1017,-122.11C1017,-122.11 1017,-140.99 1017,-140.99"/>
<polygon fill="black" stroke="black" points="1013.5,-140.99 1017,-150.99 1020.5,-140.99 1013.5,-140.99"/>
</g>
<!-- SessionLoggerService -->
<g id="node17" class="node">
<title>SessionLoggerService</title>
<ellipse fill="#fdb462" stroke="black" cx="791" cy="-104" rx="97.27" ry="18"/>
<text text-anchor="middle" x="791" y="-99.8" font-family="Times,serif" font-size="14.00">SessionLoggerService</text>
</g>
<!-- SessionLoggerService&#45;&gt;IssuerModule -->
<g id="edge16" class="edge">
<title>SessionLoggerService&#45;&gt;IssuerModule</title>
<path fill="none" stroke="black" d="M877.23,-112.59C877.23,-127.36 877.23,-156 877.23,-156 877.23,-156 960.46,-156 960.46,-156"/>
<polygon fill="black" stroke="black" points="960.46,-159.5 970.46,-156 960.46,-152.5 960.46,-159.5"/>
</g>
<!-- WebhookService -->
<g id="node18" class="node">
<title>WebhookService</title>
<ellipse fill="#fdb462" stroke="black" cx="598" cy="-104" rx="77.57" ry="18"/>
<text text-anchor="middle" x="598" y="-99.8" font-family="Times,serif" font-size="14.00">WebhookService</text>
</g>
<!-- WebhookService&#45;&gt;IssuerModule -->
<g id="edge17" class="edge">
<title>WebhookService&#45;&gt;IssuerModule</title>
<path fill="none" stroke="black" d="M598,-122.03C598,-138.4 598,-160 598,-160 598,-160 960.16,-160 960.16,-160"/>
<polygon fill="black" stroke="black" points="960.16,-163.5 970.16,-160 960.15,-156.5 960.16,-163.5"/>
</g>
</g>
</svg>
