<?xml version="1.0" encoding="UTF-8" standalone="no"?>
<!DOCTYPE svg PUBLIC "-//W3C//DTD SVG 1.1//EN"
 "http://www.w3.org/Graphics/SVG/1.1/DTD/svg11.dtd">
<!-- Generated by graphviz version 2.47.0 (20210316.0004)
 -->
<!-- Title: dependencies Pages: 1 -->
<svg width="1626pt" height="284pt"
 viewBox="0.00 0.00 1626.00 284.00" xmlns="http://www.w3.org/2000/svg" xmlns:xlink="http://www.w3.org/1999/xlink">
<g id="graph0" class="graph" transform="scale(1 1) rotate(0) translate(4 280)">
<title>dependencies</title>
<polygon fill="white" stroke="transparent" points="-4,4 -4,-280 1622,-280 1622,4 -4,4"/>
<text text-anchor="start" x="788.01" y="-42.4" font-family="Times-12" font-weight="bold" font-size="14.00">Legend</text>
<polygon fill="#ffffb3" stroke="transparent" points="575,-10 575,-30 595,-30 595,-10 575,-10"/>
<text text-anchor="start" x="598.63" y="-15.4" font-family="Times-12" font-size="14.00"> &#160;Declarations</text>
<polygon fill="#8dd3c7" stroke="transparent" points="688,-10 688,-30 708,-30 708,-10 688,-10"/>
<text text-anchor="start" x="711.73" y="-15.4" font-family="Times-12" font-size="14.00"> &#160;Module</text>
<polygon fill="#80b1d3" stroke="transparent" points="774,-10 774,-30 794,-30 794,-10 774,-10"/>
<text text-anchor="start" x="797.78" y="-15.4" font-family="Times-12" font-size="14.00"> &#160;Bootstrap</text>
<polygon fill="#fdb462" stroke="transparent" points="871,-10 871,-30 891,-30 891,-10 871,-10"/>
<text text-anchor="start" x="894.67" y="-15.4" font-family="Times-12" font-size="14.00"> &#160;Providers</text>
<polygon fill="#fb8072" stroke="transparent" points="967,-10 967,-30 987,-30 987,-10 967,-10"/>
<text text-anchor="start" x="990.73" y="-15.4" font-family="Times-12" font-size="14.00"> &#160;Exports</text>
<g id="clust1" class="cluster">
<title>cluster_IssuerModule</title>
<polygon fill="none" stroke="black" stroke-dasharray="1,5" points="8,-70 8,-268 1610,-268 1610,-70 8,-70"/>
</g>
<g id="clust3" class="cluster">
<title>cluster_IssuerModule_imports</title>
<polygon fill="none" stroke="black" points="1114,-78 1114,-130 1602,-130 1602,-78 1114,-78"/>
</g>
<g id="clust6" class="cluster">
<title>cluster_IssuerModule_providers</title>
<polygon fill="none" stroke="black" points="16,-78 16,-130 1106,-130 1106,-78 16,-78"/>
</g>
<g id="clust4" class="cluster">
<title>cluster_IssuerModule_exports</title>
<polygon fill="none" stroke="black" points="654,-208 654,-260 1216,-260 1216,-208 654,-208"/>
</g>
<!-- CryptoModule -->
<g id="node1" class="node">
<title>CryptoModule</title>
<polygon fill="#8dd3c7" stroke="black" points="1594.44,-122 1591.44,-126 1570.44,-126 1567.44,-122 1495.56,-122 1495.56,-86 1594.44,-86 1594.44,-122"/>
<text text-anchor="middle" x="1545" y="-99.8" font-family="Times,serif" font-size="14.00">CryptoModule</text>
</g>
<!-- IssuerModule -->
<g id="node5" class="node">
<title>IssuerModule</title>
<polygon fill="#8dd3c7" stroke="black" points="963.47,-187 960.47,-191 939.47,-191 936.47,-187 870.53,-187 870.53,-151 963.47,-151 963.47,-187"/>
<text text-anchor="middle" x="917" y="-164.8" font-family="Times,serif" font-size="14.00">IssuerModule</text>
</g>
<!-- CryptoModule&#45;&gt;IssuerModule -->
<g id="edge1" class="edge">
<title>CryptoModule&#45;&gt;IssuerModule</title>
<path fill="none" stroke="black" d="M1545,-122.28C1545,-143.32 1545,-175 1545,-175 1545,-175 973.69,-175 973.69,-175"/>
<polygon fill="black" stroke="black" points="973.69,-171.5 963.69,-175 973.69,-178.5 973.69,-171.5"/>
</g>
<!-- Oid4vpModule -->
<g id="node2" class="node">
<title>Oid4vpModule</title>
<polygon fill="#8dd3c7" stroke="black" points="1477.55,-122 1474.55,-126 1453.55,-126 1450.55,-122 1376.45,-122 1376.45,-86 1477.55,-86 1477.55,-122"/>
<text text-anchor="middle" x="1427" y="-99.8" font-family="Times,serif" font-size="14.00">Oid4vpModule</text>
</g>
<!-- Oid4vpModule&#45;&gt;IssuerModule -->
<g id="edge2" class="edge">
<title>Oid4vpModule&#45;&gt;IssuerModule</title>
<path fill="none" stroke="black" d="M1427,-122.11C1427,-141.34 1427,-169 1427,-169 1427,-169 973.61,-169 973.61,-169"/>
<polygon fill="black" stroke="black" points="973.61,-165.5 963.61,-169 973.61,-172.5 973.61,-165.5"/>
</g>
<!-- SessionModule -->
<g id="node3" class="node">
<title>SessionModule</title>
<polygon fill="#8dd3c7" stroke="black" points="1358.33,-122 1355.33,-126 1334.33,-126 1331.33,-122 1255.67,-122 1255.67,-86 1358.33,-86 1358.33,-122"/>
<text text-anchor="middle" x="1307" y="-99.8" font-family="Times,serif" font-size="14.00">SessionModule</text>
</g>
<!-- SessionModule&#45;&gt;IssuerModule -->
<g id="edge3" class="edge">
<title>SessionModule&#45;&gt;IssuerModule</title>
<path fill="none" stroke="black" d="M1307,-122.02C1307,-139.37 1307,-163 1307,-163 1307,-163 973.66,-163 973.66,-163"/>
<polygon fill="black" stroke="black" points="973.66,-159.5 963.66,-163 973.66,-166.5 973.66,-159.5"/>
</g>
<!-- StatusListModule -->
<g id="node4" class="node">
<title>StatusListModule</title>
<polygon fill="#8dd3c7" stroke="black" points="1237.55,-122 1234.55,-126 1213.55,-126 1210.55,-122 1122.45,-122 1122.45,-86 1237.55,-86 1237.55,-122"/>
<text text-anchor="middle" x="1180" y="-99.8" font-family="Times,serif" font-size="14.00">StatusListModule</text>
</g>
<!-- StatusListModule&#45;&gt;IssuerModule -->
<g id="edge4" class="edge">
<title>StatusListModule&#45;&gt;IssuerModule</title>
<path fill="none" stroke="black" d="M1164.98,-122.24C1164.98,-137.57 1164.98,-157 1164.98,-157 1164.98,-157 973.64,-157 973.64,-157"/>
<polygon fill="black" stroke="black" points="973.64,-153.5 963.64,-157 973.64,-160.5 973.64,-153.5"/>
</g>
<!-- AuthorizeService  -->
<g id="node6" class="node">
<title>AuthorizeService </title>
<polygon fill="#fb8072" stroke="black" points="1207.96,-252 1090.04,-252 1090.04,-216 1207.96,-216 1207.96,-252"/>
<text text-anchor="middle" x="1149" y="-229.8" font-family="Times,serif" font-size="14.00">AuthorizeService </text>
</g>
<!-- IssuerModule&#45;&gt;AuthorizeService  -->
<g id="edge5" class="edge">
<title>IssuerModule&#45;&gt;AuthorizeService </title>
<path fill="none" stroke="black" stroke-dasharray="5,2" d="M963.49,-181C1015.91,-181 1093.94,-181 1093.94,-181 1093.94,-181 1093.94,-205.76 1093.94,-205.76"/>
<polygon fill="black" stroke="black" points="1090.44,-205.76 1093.94,-215.76 1097.44,-205.76 1090.44,-205.76"/>
</g>
<!-- CredentialConfigService  -->
<g id="node7" class="node">
<title>CredentialConfigService </title>
<polygon fill="#fb8072" stroke="black" points="1072.18,-252 913.82,-252 913.82,-216 1072.18,-216 1072.18,-252"/>
<text text-anchor="middle" x="993" y="-229.8" font-family="Times,serif" font-size="14.00">CredentialConfigService </text>
</g>
<!-- IssuerModule&#45;&gt;CredentialConfigService  -->
<g id="edge6" class="edge">
<title>IssuerModule&#45;&gt;CredentialConfigService </title>
<path fill="none" stroke="black" stroke-dasharray="5,2" d="M938.57,-187.11C938.57,-187.11 938.57,-205.99 938.57,-205.99"/>
<polygon fill="black" stroke="black" points="935.07,-205.99 938.57,-215.99 942.07,-205.99 935.07,-205.99"/>
</g>
<!-- IssuanceService  -->
<g id="node8" class="node">
<title>IssuanceService </title>
<polygon fill="#fb8072" stroke="black" points="895.67,-252 786.33,-252 786.33,-216 895.67,-216 895.67,-252"/>
<text text-anchor="middle" x="841" y="-229.8" font-family="Times,serif" font-size="14.00">IssuanceService </text>
</g>
<!-- IssuerModule&#45;&gt;IssuanceService  -->
<g id="edge7" class="edge">
<title>IssuerModule&#45;&gt;IssuanceService </title>
<path fill="none" stroke="black" stroke-dasharray="5,2" d="M883.17,-187.11C883.17,-187.11 883.17,-205.99 883.17,-205.99"/>
<polygon fill="black" stroke="black" points="879.67,-205.99 883.17,-215.99 886.67,-205.99 879.67,-205.99"/>
</g>
<!-- Oid4vciService  -->
<g id="node9" class="node">
<title>Oid4vciService </title>
<polygon fill="#fb8072" stroke="black" points="768.08,-252 661.92,-252 661.92,-216 768.08,-216 768.08,-252"/>
<text text-anchor="middle" x="715" y="-229.8" font-family="Times,serif" font-size="14.00">Oid4vciService </text>
</g>
<!-- IssuerModule&#45;&gt;Oid4vciService  -->
<g id="edge8" class="edge">
<title>IssuerModule&#45;&gt;Oid4vciService </title>
<path fill="none" stroke="black" stroke-dasharray="5,2" d="M870.47,-181C817.47,-181 738.13,-181 738.13,-181 738.13,-181 738.13,-205.76 738.13,-205.76"/>
<polygon fill="black" stroke="black" points="734.63,-205.76 738.13,-215.76 741.63,-205.76 734.63,-205.76"/>
</g>
<!-- AuthorizeService -->
<g id="node10" class="node">
<title>AuthorizeService</title>
<ellipse fill="#fdb462" stroke="black" cx="1019" cy="-104" rx="78.71" ry="18"/>
<text text-anchor="middle" x="1019" y="-99.8" font-family="Times,serif" font-size="14.00">AuthorizeService</text>
</g>
<!-- AuthorizeService&#45;&gt;IssuerModule -->
<g id="edge9" class="edge">
<title>AuthorizeService&#45;&gt;IssuerModule</title>
<path fill="none" stroke="black" d="M951.94,-113.59C951.94,-113.59 951.94,-140.75 951.94,-140.75"/>
<polygon fill="black" stroke="black" points="948.44,-140.75 951.94,-150.75 955.44,-140.75 948.44,-140.75"/>
</g>
<!-- CredentialConfigService -->
<g id="node11" class="node">
<title>CredentialConfigService</title>
<ellipse fill="#fdb462" stroke="black" cx="815" cy="-104" rx="107.08" ry="18"/>
<text text-anchor="middle" x="815" y="-99.8" font-family="Times,serif" font-size="14.00">CredentialConfigService</text>
</g>
<!-- CredentialConfigService&#45;&gt;IssuerModule -->
<g id="edge10" class="edge">
<title>CredentialConfigService&#45;&gt;IssuerModule</title>
<path fill="none" stroke="black" d="M896.28,-115.92C896.28,-115.92 896.28,-140.77 896.28,-140.77"/>
<polygon fill="black" stroke="black" points="892.78,-140.77 896.28,-150.77 899.78,-140.77 892.78,-140.77"/>
</g>
<!-- CredentialsService -->
<g id="node12" class="node">
<title>CredentialsService</title>
<ellipse fill="#fdb462" stroke="black" cx="606" cy="-104" rx="83.94" ry="18"/>
<text text-anchor="middle" x="606" y="-99.8" font-family="Times,serif" font-size="14.00">CredentialsService</text>
</g>
<!-- CredentialsService&#45;&gt;IssuerModule -->
<g id="edge11" class="edge">
<title>CredentialsService&#45;&gt;IssuerModule</title>
<path fill="none" stroke="black" d="M675.84,-114.22C675.84,-129.62 675.84,-157 675.84,-157 675.84,-157 860.5,-157 860.5,-157"/>
<polygon fill="black" stroke="black" points="860.5,-160.5 870.5,-157 860.5,-153.5 860.5,-160.5"/>
</g>
<!-- IssuanceService -->
<g id="node13" class="node">
<title>IssuanceService</title>
<ellipse fill="#fdb462" stroke="black" cx="431" cy="-104" rx="73.47" ry="18"/>
<text text-anchor="middle" x="431" y="-99.8" font-family="Times,serif" font-size="14.00">IssuanceService</text>
</g>
<!-- IssuanceService&#45;&gt;IssuerModule -->
<g id="edge12" class="edge">
<title>IssuanceService&#45;&gt;IssuerModule</title>
<path fill="none" stroke="black" d="M431,-122.02C431,-139.37 431,-163 431,-163 431,-163 860.4,-163 860.4,-163"/>
<polygon fill="black" stroke="black" points="860.4,-166.5 870.4,-163 860.4,-159.5 860.4,-166.5"/>
</g>
<!-- Oid4vciService -->
<g id="node14" class="node">
<title>Oid4vciService</title>
<ellipse fill="#fdb462" stroke="black" cx="269" cy="-104" rx="71.21" ry="18"/>
<text text-anchor="middle" x="269" y="-99.8" font-family="Times,serif" font-size="14.00">Oid4vciService</text>
</g>
<!-- Oid4vciService&#45;&gt;IssuerModule -->
<g id="edge13" class="edge">
<title>Oid4vciService&#45;&gt;IssuerModule</title>
<path fill="none" stroke="black" d="M269,-122.11C269,-141.34 269,-169 269,-169 269,-169 860.4,-169 860.4,-169"/>
<polygon fill="black" stroke="black" points="860.4,-172.5 870.4,-169 860.4,-165.5 860.4,-172.5"/>
</g>
<!-- WebhookService -->
<g id="node15" class="node">
<title>WebhookService</title>
<ellipse fill="#fdb462" stroke="black" cx="102" cy="-104" rx="77.57" ry="18"/>
<text text-anchor="middle" x="102" y="-99.8" font-family="Times,serif" font-size="14.00">WebhookService</text>
</g>
<!-- WebhookService&#45;&gt;IssuerModule -->
<g id="edge14" class="edge">
<title>WebhookService&#45;&gt;IssuerModule</title>
<path fill="none" stroke="black" d="M102,-122.28C102,-143.32 102,-175 102,-175 102,-175 860.25,-175 860.25,-175"/>
<polygon fill="black" stroke="black" points="860.25,-178.5 870.25,-175 860.25,-171.5 860.25,-178.5"/>
</g>
</g>
</svg>
