<?xml version="1.0" encoding="UTF-8" standalone="no"?>
<!DOCTYPE svg PUBLIC "-//W3C//DTD SVG 1.1//EN"
 "http://www.w3.org/Graphics/SVG/1.1/DTD/svg11.dtd">
<!-- Generated by graphviz version 2.47.0 (20210316.0004)
 -->
<!-- Title: dependencies Pages: 1 -->
<svg width="504pt" height="284pt"
 viewBox="0.00 0.00 504.00 284.00" xmlns="http://www.w3.org/2000/svg" xmlns:xlink="http://www.w3.org/1999/xlink">
<g id="graph0" class="graph" transform="scale(1 1) rotate(0) translate(4 280)">
<title>dependencies</title>
<polygon fill="white" stroke="transparent" points="-4,4 -4,-280 500,-280 500,4 -4,4"/>
<text text-anchor="start" x="227.01" y="-42.4" font-family="Times-12" font-weight="bold" font-size="14.00">Legend</text>
<polygon fill="#ffffb3" stroke="transparent" points="14,-10 14,-30 34,-30 34,-10 14,-10"/>
<text text-anchor="start" x="37.63" y="-15.4" font-family="Times-12" font-size="14.00"> &#160;Declarations</text>
<polygon fill="#8dd3c7" stroke="transparent" points="127,-10 127,-30 147,-30 147,-10 127,-10"/>
<text text-anchor="start" x="150.73" y="-15.4" font-family="Times-12" font-size="14.00"> &#160;Module</text>
<polygon fill="#80b1d3" stroke="transparent" points="213,-10 213,-30 233,-30 233,-10 213,-10"/>
<text text-anchor="start" x="236.78" y="-15.4" font-family="Times-12" font-size="14.00"> &#160;Bootstrap</text>
<polygon fill="#fdb462" stroke="transparent" points="310,-10 310,-30 330,-30 330,-10 310,-10"/>
<text text-anchor="start" x="333.67" y="-15.4" font-family="Times-12" font-size="14.00"> &#160;Providers</text>
<polygon fill="#fb8072" stroke="transparent" points="406,-10 406,-30 426,-30 426,-10 406,-10"/>
<text text-anchor="start" x="429.73" y="-15.4" font-family="Times-12" font-size="14.00"> &#160;Exports</text>
<g id="clust1" class="cluster">
<title>cluster_IssuerModule</title>
<polygon fill="none" stroke="black" stroke-dasharray="1,5" points="29.5,-70 29.5,-268 466.5,-268 466.5,-70 29.5,-70"/>
</g>
<g id="clust4" class="cluster">
<title>cluster_IssuerModule_exports</title>
<polygon fill="none" stroke="black" points="37.5,-208 37.5,-260 458.5,-260 458.5,-208 37.5,-208"/>
</g>
<g id="clust3" class="cluster">
<title>cluster_IssuerModule_imports</title>
<polygon fill="none" stroke="black" points="43.5,-78 43.5,-130 453.5,-130 453.5,-78 43.5,-78"/>
</g>
<!-- ConfigurationModule -->
<g id="node1" class="node">
<title>ConfigurationModule</title>
<polygon fill="#8dd3c7" stroke="black" points="445.59,-122 442.59,-126 421.59,-126 418.59,-122 307.41,-122 307.41,-86 445.59,-86 445.59,-122"/>
<text text-anchor="middle" x="376.5" y="-99.8" font-family="Times,serif" font-size="14.00">ConfigurationModule</text>
</g>
<!-- IssuerModule -->
<g id="node4" class="node">
<title>IssuerModule</title>
<polygon fill="#8dd3c7" stroke="black" points="281.97,-187 278.97,-191 257.97,-191 254.97,-187 189.03,-187 189.03,-151 281.97,-151 281.97,-187"/>
<text text-anchor="middle" x="235.5" y="-164.8" font-family="Times,serif" font-size="14.00">IssuerModule</text>
</g>
<!-- ConfigurationModule&#45;&gt;IssuerModule -->
<g id="edge1" class="edge">
<title>ConfigurationModule&#45;&gt;IssuerModule</title>
<path fill="none" stroke="black" d="M399.93,-122.02C399.93,-139.37 399.93,-163 399.93,-163 399.93,-163 292.18,-163 292.18,-163"/>
<polygon fill="black" stroke="black" points="292.18,-159.5 282.18,-163 292.18,-166.5 292.18,-159.5"/>
</g>
<!-- IssuanceModule -->
<g id="node2" class="node">
<title>IssuanceModule</title>
<polygon fill="#8dd3c7" stroke="black" points="289.24,-122 286.24,-126 265.24,-126 262.24,-122 181.76,-122 181.76,-86 289.24,-86 289.24,-122"/>
<text text-anchor="middle" x="235.5" y="-99.8" font-family="Times,serif" font-size="14.00">IssuanceModule</text>
</g>
<!-- IssuanceModule&#45;&gt;IssuerModule -->
<g id="edge2" class="edge">
<title>IssuanceModule&#45;&gt;IssuerModule</title>
<path fill="none" stroke="black" d="M235.5,-122.11C235.5,-122.11 235.5,-140.99 235.5,-140.99"/>
<polygon fill="black" stroke="black" points="232,-140.99 235.5,-150.99 239,-140.99 232,-140.99"/>
</g>
<!-- LifecycleModule -->
<g id="node3" class="node">
<title>LifecycleModule</title>
<polygon fill="#8dd3c7" stroke="black" points="163.9,-122 160.9,-126 139.9,-126 136.9,-122 51.1,-122 51.1,-86 163.9,-86 163.9,-122"/>
<text text-anchor="middle" x="107.5" y="-99.8" font-family="Times,serif" font-size="14.00">LifecycleModule</text>
</g>
<!-- LifecycleModule&#45;&gt;IssuerModule -->
<g id="edge3" class="edge">
<title>LifecycleModule&#45;&gt;IssuerModule</title>
<path fill="none" stroke="black" d="M124.73,-122.02C124.73,-139.37 124.73,-163 124.73,-163 124.73,-163 178.85,-163 178.85,-163"/>
<polygon fill="black" stroke="black" points="178.85,-166.5 188.85,-163 178.85,-159.5 178.85,-166.5"/>
</g>
<!-- ConfigurationModule  -->
<g id="node5" class="node">
<title>ConfigurationModule </title>
<polygon fill="#fb8072" stroke="black" points="450.09,-252 308.91,-252 308.91,-216 450.09,-216 450.09,-252"/>
<text text-anchor="middle" x="379.5" y="-229.8" font-family="Times,serif" font-size="14.00">ConfigurationModule </text>
</g>
<!-- IssuerModule&#45;&gt;ConfigurationModule  -->
<g id="edge4" class="edge">
<title>IssuerModule&#45;&gt;ConfigurationModule </title>
<path fill="none" stroke="black" stroke-dasharray="5,2" d="M282.12,-175C315.41,-175 354.32,-175 354.32,-175 354.32,-175 354.32,-205.98 354.32,-205.98"/>
<polygon fill="black" stroke="black" points="350.82,-205.98 354.32,-215.98 357.82,-205.98 350.82,-205.98"/>
</g>
<!-- IssuanceModule  -->
<g id="node6" class="node">
<title>IssuanceModule </title>
<polygon fill="#fb8072" stroke="black" points="291.24,-252 179.76,-252 179.76,-216 291.24,-216 291.24,-252"/>
<text text-anchor="middle" x="235.5" y="-229.8" font-family="Times,serif" font-size="14.00">IssuanceModule </text>
</g>
<!-- IssuerModule&#45;&gt;IssuanceModule  -->
<g id="edge5" class="edge">
<title>IssuerModule&#45;&gt;IssuanceModule </title>
<path fill="none" stroke="black" stroke-dasharray="5,2" d="M235.5,-187.11C235.5,-187.11 235.5,-205.99 235.5,-205.99"/>
<polygon fill="black" stroke="black" points="232,-205.99 235.5,-215.99 239,-205.99 232,-205.99"/>
</g>
<!-- LifecycleModule  -->
<g id="node7" class="node">
<title>LifecycleModule </title>
<polygon fill="#fb8072" stroke="black" points="161.4,-252 45.6,-252 45.6,-216 161.4,-216 161.4,-252"/>
<text text-anchor="middle" x="103.5" y="-229.8" font-family="Times,serif" font-size="14.00">LifecycleModule </text>
</g>
<!-- IssuerModule&#45;&gt;LifecycleModule  -->
<g id="edge6" class="edge">
<title>IssuerModule&#45;&gt;LifecycleModule </title>
<path fill="none" stroke="black" stroke-dasharray="5,2" d="M188.84,-175C145.63,-175 88.02,-175 88.02,-175 88.02,-175 88.02,-205.98 88.02,-205.98"/>
<polygon fill="black" stroke="black" points="84.52,-205.98 88.02,-215.98 91.52,-205.98 84.52,-205.98"/>
</g>
</g>
</svg>
