<?xml version="1.0" encoding="UTF-8" standalone="no"?>
<!DOCTYPE svg PUBLIC "-//W3C//DTD SVG 1.1//EN"
 "http://www.w3.org/Graphics/SVG/1.1/DTD/svg11.dtd">
<!-- Generated by graphviz version 2.47.0 (20210316.0004)
 -->
<!-- Title: dependencies Pages: 1 -->
<svg width="1904pt" height="284pt"
 viewBox="0.00 0.00 1904.00 284.00" xmlns="http://www.w3.org/2000/svg" xmlns:xlink="http://www.w3.org/1999/xlink">
<g id="graph0" class="graph" transform="scale(1 1) rotate(0) translate(4 280)">
<title>dependencies</title>
<polygon fill="white" stroke="transparent" points="-4,4 -4,-280 1900,-280 1900,4 -4,4"/>
<text text-anchor="start" x="927.01" y="-42.4" font-family="Times-12" font-weight="bold" font-size="14.00">Legend</text>
<polygon fill="#ffffb3" stroke="transparent" points="714,-10 714,-30 734,-30 734,-10 714,-10"/>
<text text-anchor="start" x="737.63" y="-15.4" font-family="Times-12" font-size="14.00"> &#160;Declarations</text>
<polygon fill="#8dd3c7" stroke="transparent" points="827,-10 827,-30 847,-30 847,-10 827,-10"/>
<text text-anchor="start" x="850.73" y="-15.4" font-family="Times-12" font-size="14.00"> &#160;Module</text>
<polygon fill="#80b1d3" stroke="transparent" points="913,-10 913,-30 933,-30 933,-10 913,-10"/>
<text text-anchor="start" x="936.78" y="-15.4" font-family="Times-12" font-size="14.00"> &#160;Bootstrap</text>
<polygon fill="#fdb462" stroke="transparent" points="1010,-10 1010,-30 1030,-30 1030,-10 1010,-10"/>
<text text-anchor="start" x="1033.67" y="-15.4" font-family="Times-12" font-size="14.00"> &#160;Providers</text>
<polygon fill="#fb8072" stroke="transparent" points="1106,-10 1106,-30 1126,-30 1126,-10 1106,-10"/>
<text text-anchor="start" x="1129.73" y="-15.4" font-family="Times-12" font-size="14.00"> &#160;Exports</text>
<g id="clust1" class="cluster">
<title>cluster_IssuerModule</title>
<polygon fill="none" stroke="black" stroke-dasharray="1,5" points="8,-70 8,-268 1888,-268 1888,-70 8,-70"/>
</g>
<g id="clust6" class="cluster">
<title>cluster_IssuerModule_providers</title>
<polygon fill="none" stroke="black" points="512,-78 512,-130 1880,-130 1880,-78 512,-78"/>
</g>
<g id="clust3" class="cluster">
<title>cluster_IssuerModule_imports</title>
<polygon fill="none" stroke="black" points="16,-78 16,-130 504,-130 504,-78 16,-78"/>
</g>
<g id="clust4" class="cluster">
<title>cluster_IssuerModule_exports</title>
<polygon fill="none" stroke="black" points="717,-208 717,-260 975,-260 975,-208 717,-208"/>
</g>
<!-- CryptoModule -->
<g id="node1" class="node">
<title>CryptoModule</title>
<polygon fill="#8dd3c7" stroke="black" points="496.44,-122 493.44,-126 472.44,-126 469.44,-122 397.56,-122 397.56,-86 496.44,-86 496.44,-122"/>
<text text-anchor="middle" x="447" y="-99.8" font-family="Times,serif" font-size="14.00">CryptoModule</text>
</g>
<!-- IssuerModule -->
<g id="node5" class="node">
<title>IssuerModule</title>
<polygon fill="#8dd3c7" stroke="black" points="889.47,-187 886.47,-191 865.47,-191 862.47,-187 796.53,-187 796.53,-151 889.47,-151 889.47,-187"/>
<text text-anchor="middle" x="843" y="-164.8" font-family="Times,serif" font-size="14.00">IssuerModule</text>
</g>
<!-- CryptoModule&#45;&gt;IssuerModule -->
<g id="edge1" class="edge">
<title>CryptoModule&#45;&gt;IssuerModule</title>
<path fill="none" stroke="black" d="M447,-122.02C447,-139.37 447,-163 447,-163 447,-163 786.41,-163 786.41,-163"/>
<polygon fill="black" stroke="black" points="786.41,-166.5 796.41,-163 786.41,-159.5 786.41,-166.5"/>
</g>
<!-- Oid4vpModule -->
<g id="node2" class="node">
<title>Oid4vpModule</title>
<polygon fill="#8dd3c7" stroke="black" points="379.55,-122 376.55,-126 355.55,-126 352.55,-122 278.45,-122 278.45,-86 379.55,-86 379.55,-122"/>
<text text-anchor="middle" x="329" y="-99.8" font-family="Times,serif" font-size="14.00">Oid4vpModule</text>
</g>
<!-- Oid4vpModule&#45;&gt;IssuerModule -->
<g id="edge2" class="edge">
<title>Oid4vpModule&#45;&gt;IssuerModule</title>
<path fill="none" stroke="black" d="M329,-122.11C329,-141.34 329,-169 329,-169 329,-169 786.48,-169 786.48,-169"/>
<polygon fill="black" stroke="black" points="786.48,-172.5 796.48,-169 786.48,-165.5 786.48,-172.5"/>
</g>
<!-- SessionModule -->
<g id="node3" class="node">
<title>SessionModule</title>
<polygon fill="#8dd3c7" stroke="black" points="260.33,-122 257.33,-126 236.33,-126 233.33,-122 157.67,-122 157.67,-86 260.33,-86 260.33,-122"/>
<text text-anchor="middle" x="209" y="-99.8" font-family="Times,serif" font-size="14.00">SessionModule</text>
</g>
<!-- SessionModule&#45;&gt;IssuerModule -->
<g id="edge3" class="edge">
<title>SessionModule&#45;&gt;IssuerModule</title>
<path fill="none" stroke="black" d="M209,-122.28C209,-143.32 209,-175 209,-175 209,-175 786.38,-175 786.38,-175"/>
<polygon fill="black" stroke="black" points="786.38,-178.5 796.38,-175 786.38,-171.5 786.38,-178.5"/>
</g>
<!-- StatusListModule -->
<g id="node4" class="node">
<title>StatusListModule</title>
<polygon fill="#8dd3c7" stroke="black" points="139.55,-122 136.55,-126 115.55,-126 112.55,-122 24.45,-122 24.45,-86 139.55,-86 139.55,-122"/>
<text text-anchor="middle" x="82" y="-99.8" font-family="Times,serif" font-size="14.00">StatusListModule</text>
</g>
<!-- StatusListModule&#45;&gt;IssuerModule -->
<g id="edge4" class="edge">
<title>StatusListModule&#45;&gt;IssuerModule</title>
<path fill="none" stroke="black" d="M82,-122.25C82,-145.02 82,-181 82,-181 82,-181 786.26,-181 786.26,-181"/>
<polygon fill="black" stroke="black" points="786.26,-184.5 796.26,-181 786.26,-177.5 786.26,-184.5"/>
</g>
<!-- AuthorizeService  -->
<g id="node6" class="node">
<title>AuthorizeService </title>
<polygon fill="#fb8072" stroke="black" points="966.96,-252 849.04,-252 849.04,-216 966.96,-216 966.96,-252"/>
<text text-anchor="middle" x="908" y="-229.8" font-family="Times,serif" font-size="14.00">AuthorizeService </text>
</g>
<!-- IssuerModule&#45;&gt;AuthorizeService  -->
<g id="edge5" class="edge">
<title>IssuerModule&#45;&gt;AuthorizeService </title>
<path fill="none" stroke="black" stroke-dasharray="5,2" d="M869.38,-187.11C869.38,-187.11 869.38,-205.99 869.38,-205.99"/>
<polygon fill="black" stroke="black" points="865.88,-205.99 869.38,-215.99 872.88,-205.99 865.88,-205.99"/>
</g>
<!-- Oid4vciService  -->
<g id="node7" class="node">
<title>Oid4vciService </title>
<polygon fill="#fb8072" stroke="black" points="831.08,-252 724.92,-252 724.92,-216 831.08,-216 831.08,-252"/>
<text text-anchor="middle" x="778" y="-229.8" font-family="Times,serif" font-size="14.00">Oid4vciService </text>
</g>
<!-- IssuerModule&#45;&gt;Oid4vciService  -->
<g id="edge6" class="edge">
<title>IssuerModule&#45;&gt;Oid4vciService </title>
<path fill="none" stroke="black" stroke-dasharray="5,2" d="M813.9,-187.11C813.9,-187.11 813.9,-205.99 813.9,-205.99"/>
<polygon fill="black" stroke="black" points="810.4,-205.99 813.9,-215.99 817.4,-205.99 810.4,-205.99"/>
</g>
<!-- AuthorizeService -->
<g id="node8" class="node">
<title>AuthorizeService</title>
<ellipse fill="#fdb462" stroke="black" cx="1793" cy="-104" rx="78.71" ry="18"/>
<text text-anchor="middle" x="1793" y="-99.8" font-family="Times,serif" font-size="14.00">AuthorizeService</text>
</g>
<!-- AuthorizeService&#45;&gt;IssuerModule -->
<g id="edge7" class="edge">
<title>AuthorizeService&#45;&gt;IssuerModule</title>
<path fill="none" stroke="black" d="M1793,-122.25C1793,-145.02 1793,-181 1793,-181 1793,-181 899.79,-181 899.79,-181"/>
<polygon fill="black" stroke="black" points="899.79,-177.5 889.79,-181 899.79,-184.5 899.79,-177.5"/>
</g>
<!-- CredentialConfigService -->
<g id="node9" class="node">
<title>CredentialConfigService</title>
<ellipse fill="#fdb462" stroke="black" cx="1589" cy="-104" rx="107.08" ry="18"/>
<text text-anchor="middle" x="1589" y="-99.8" font-family="Times,serif" font-size="14.00">CredentialConfigService</text>
</g>
<!-- CredentialConfigService&#45;&gt;IssuerModule -->
<g id="edge8" class="edge">
<title>CredentialConfigService&#45;&gt;IssuerModule</title>
<path fill="none" stroke="black" d="M1589,-122.28C1589,-143.32 1589,-175 1589,-175 1589,-175 899.67,-175 899.67,-175"/>
<polygon fill="black" stroke="black" points="899.67,-171.5 889.67,-175 899.67,-178.5 899.67,-171.5"/>
</g>
<!-- CredentialsService -->
<g id="node10" class="node">
<title>CredentialsService</title>
<ellipse fill="#fdb462" stroke="black" cx="1380" cy="-104" rx="83.94" ry="18"/>
<text text-anchor="middle" x="1380" y="-99.8" font-family="Times,serif" font-size="14.00">CredentialsService</text>
</g>
<!-- CredentialsService&#45;&gt;IssuerModule -->
<g id="edge9" class="edge">
<title>CredentialsService&#45;&gt;IssuerModule</title>
<path fill="none" stroke="black" d="M1380,-122.11C1380,-141.34 1380,-169 1380,-169 1380,-169 899.72,-169 899.72,-169"/>
<polygon fill="black" stroke="black" points="899.72,-165.5 889.72,-169 899.72,-172.5 899.72,-165.5"/>
</g>
<!-- IssuanceService -->
<g id="node11" class="node">
<title>IssuanceService</title>
<ellipse fill="#fdb462" stroke="black" cx="1205" cy="-104" rx="73.47" ry="18"/>
<text text-anchor="middle" x="1205" y="-99.8" font-family="Times,serif" font-size="14.00">IssuanceService</text>
</g>
<!-- IssuanceService&#45;&gt;IssuerModule -->
<g id="edge10" class="edge">
<title>IssuanceService&#45;&gt;IssuerModule</title>
<path fill="none" stroke="black" d="M1205,-122.02C1205,-139.37 1205,-163 1205,-163 1205,-163 899.58,-163 899.58,-163"/>
<polygon fill="black" stroke="black" points="899.58,-159.5 889.58,-163 899.58,-166.5 899.58,-159.5"/>
</g>
<!-- Oid4vciService -->
<g id="node12" class="node">
<title>Oid4vciService</title>
<ellipse fill="#fdb462" stroke="black" cx="1043" cy="-104" rx="71.21" ry="18"/>
<text text-anchor="middle" x="1043" y="-99.8" font-family="Times,serif" font-size="14.00">Oid4vciService</text>
</g>
<!-- Oid4vciService&#45;&gt;IssuerModule -->
<g id="edge11" class="edge">
<title>Oid4vciService&#45;&gt;IssuerModule</title>
<path fill="none" stroke="black" d="M1043,-122.24C1043,-137.57 1043,-157 1043,-157 1043,-157 899.64,-157 899.64,-157"/>
<polygon fill="black" stroke="black" points="899.64,-153.5 889.64,-157 899.64,-160.5 899.64,-153.5"/>
</g>
<!-- SessionLoggerInterceptor -->
<g id="node13" class="node">
<title>SessionLoggerInterceptor</title>
<ellipse fill="#fdb462" stroke="black" cx="843" cy="-104" rx="110.57" ry="18"/>
<text text-anchor="middle" x="843" y="-99.8" font-family="Times,serif" font-size="14.00">SessionLoggerInterceptor</text>
</g>
<!-- SessionLoggerInterceptor&#45;&gt;IssuerModule -->
<g id="edge12" class="edge">
<title>SessionLoggerInterceptor&#45;&gt;IssuerModule</title>
<path fill="none" stroke="black" d="M843,-122.11C843,-122.11 843,-140.99 843,-140.99"/>
<polygon fill="black" stroke="black" points="839.5,-140.99 843,-150.99 846.5,-140.99 839.5,-140.99"/>
</g>
<!-- SessionLoggerService -->
<g id="node14" class="node">
<title>SessionLoggerService</title>
<ellipse fill="#fdb462" stroke="black" cx="617" cy="-104" rx="97.27" ry="18"/>
<text text-anchor="middle" x="617" y="-99.8" font-family="Times,serif" font-size="14.00">SessionLoggerService</text>
</g>
<!-- SessionLoggerService&#45;&gt;IssuerModule -->
<g id="edge13" class="edge">
<title>SessionLoggerService&#45;&gt;IssuerModule</title>
<path fill="none" stroke="black" d="M617,-122.24C617,-137.57 617,-157 617,-157 617,-157 786.45,-157 786.45,-157"/>
<polygon fill="black" stroke="black" points="786.45,-160.5 796.45,-157 786.45,-153.5 786.45,-160.5"/>
</g>
</g>
</svg>
