<?xml version="1.0" encoding="UTF-8" standalone="no"?>
<!DOCTYPE svg PUBLIC "-//W3C//DTD SVG 1.1//EN"
 "http://www.w3.org/Graphics/SVG/1.1/DTD/svg11.dtd">
<!-- Generated by graphviz version 2.47.0 (20210316.0004)
 -->
<!-- Title: dependencies Pages: 1 -->
<svg width="1784pt" height="284pt"
 viewBox="0.00 0.00 1784.00 284.00" xmlns="http://www.w3.org/2000/svg" xmlns:xlink="http://www.w3.org/1999/xlink">
<g id="graph0" class="graph" transform="scale(1 1) rotate(0) translate(4 280)">
<title>dependencies</title>
<polygon fill="white" stroke="transparent" points="-4,4 -4,-280 1780,-280 1780,4 -4,4"/>
<text text-anchor="start" x="867.01" y="-42.4" font-family="Times-12" font-weight="bold" font-size="14.00">Legend</text>
<polygon fill="#ffffb3" stroke="transparent" points="654,-10 654,-30 674,-30 674,-10 654,-10"/>
<text text-anchor="start" x="677.63" y="-15.4" font-family="Times-12" font-size="14.00"> &#160;Declarations</text>
<polygon fill="#8dd3c7" stroke="transparent" points="767,-10 767,-30 787,-30 787,-10 767,-10"/>
<text text-anchor="start" x="790.73" y="-15.4" font-family="Times-12" font-size="14.00"> &#160;Module</text>
<polygon fill="#80b1d3" stroke="transparent" points="853,-10 853,-30 873,-30 873,-10 853,-10"/>
<text text-anchor="start" x="876.78" y="-15.4" font-family="Times-12" font-size="14.00"> &#160;Bootstrap</text>
<polygon fill="#fdb462" stroke="transparent" points="950,-10 950,-30 970,-30 970,-10 950,-10"/>
<text text-anchor="start" x="973.67" y="-15.4" font-family="Times-12" font-size="14.00"> &#160;Providers</text>
<polygon fill="#fb8072" stroke="transparent" points="1046,-10 1046,-30 1066,-30 1066,-10 1046,-10"/>
<text text-anchor="start" x="1069.73" y="-15.4" font-family="Times-12" font-size="14.00"> &#160;Exports</text>
<g id="clust1" class="cluster">
<title>cluster_IssuerModule</title>
<polygon fill="none" stroke="black" stroke-dasharray="1,5" points="8,-70 8,-268 1768,-268 1768,-70 8,-70"/>
</g>
<g id="clust3" class="cluster">
<title>cluster_IssuerModule_imports</title>
<polygon fill="none" stroke="black" points="1272,-78 1272,-130 1760,-130 1760,-78 1272,-78"/>
</g>
<g id="clust4" class="cluster">
<title>cluster_IssuerModule_exports</title>
<polygon fill="none" stroke="black" points="661,-208 661,-260 1346,-260 1346,-208 661,-208"/>
</g>
<g id="clust6" class="cluster">
<title>cluster_IssuerModule_providers</title>
<polygon fill="none" stroke="black" points="16,-78 16,-130 1264,-130 1264,-78 16,-78"/>
</g>
<!-- CryptoModule -->
<g id="node1" class="node">
<title>CryptoModule</title>
<polygon fill="#8dd3c7" stroke="black" points="1752.44,-122 1749.44,-126 1728.44,-126 1725.44,-122 1653.56,-122 1653.56,-86 1752.44,-86 1752.44,-122"/>
<text text-anchor="middle" x="1703" y="-99.8" font-family="Times,serif" font-size="14.00">CryptoModule</text>
</g>
<!-- IssuerModule -->
<g id="node5" class="node">
<title>IssuerModule</title>
<polygon fill="#8dd3c7" stroke="black" points="1019.47,-187 1016.47,-191 995.47,-191 992.47,-187 926.53,-187 926.53,-151 1019.47,-151 1019.47,-187"/>
<text text-anchor="middle" x="973" y="-164.8" font-family="Times,serif" font-size="14.00">IssuerModule</text>
</g>
<!-- CryptoModule&#45;&gt;IssuerModule -->
<g id="edge1" class="edge">
<title>CryptoModule&#45;&gt;IssuerModule</title>
<path fill="none" stroke="black" d="M1703,-122.03C1703,-142.77 1703,-174 1703,-174 1703,-174 1029.5,-174 1029.5,-174"/>
<polygon fill="black" stroke="black" points="1029.5,-170.5 1019.5,-174 1029.5,-177.5 1029.5,-170.5"/>
</g>
<!-- Oid4vpModule -->
<g id="node2" class="node">
<title>Oid4vpModule</title>
<polygon fill="#8dd3c7" stroke="black" points="1635.55,-122 1632.55,-126 1611.55,-126 1608.55,-122 1534.45,-122 1534.45,-86 1635.55,-86 1635.55,-122"/>
<text text-anchor="middle" x="1585" y="-99.8" font-family="Times,serif" font-size="14.00">Oid4vpModule</text>
</g>
<!-- Oid4vpModule&#45;&gt;IssuerModule -->
<g id="edge2" class="edge">
<title>Oid4vpModule&#45;&gt;IssuerModule</title>
<path fill="none" stroke="black" d="M1585,-122.11C1585,-141.34 1585,-169 1585,-169 1585,-169 1029.5,-169 1029.5,-169"/>
<polygon fill="black" stroke="black" points="1029.5,-165.5 1019.5,-169 1029.5,-172.5 1029.5,-165.5"/>
</g>
<!-- SessionModule -->
<g id="node3" class="node">
<title>SessionModule</title>
<polygon fill="#8dd3c7" stroke="black" points="1516.33,-122 1513.33,-126 1492.33,-126 1489.33,-122 1413.67,-122 1413.67,-86 1516.33,-86 1516.33,-122"/>
<text text-anchor="middle" x="1465" y="-99.8" font-family="Times,serif" font-size="14.00">SessionModule</text>
</g>
<!-- SessionModule&#45;&gt;IssuerModule -->
<g id="edge3" class="edge">
<title>SessionModule&#45;&gt;IssuerModule</title>
<path fill="none" stroke="black" d="M1465,-122.3C1465,-140.27 1465,-165 1465,-165 1465,-165 1029.73,-165 1029.73,-165"/>
<polygon fill="black" stroke="black" points="1029.73,-161.5 1019.73,-165 1029.73,-168.5 1029.73,-161.5"/>
</g>
<!-- StatusListModule -->
<g id="node4" class="node">
<title>StatusListModule</title>
<polygon fill="#8dd3c7" stroke="black" points="1395.55,-122 1392.55,-126 1371.55,-126 1368.55,-122 1280.45,-122 1280.45,-86 1395.55,-86 1395.55,-122"/>
<text text-anchor="middle" x="1338" y="-99.8" font-family="Times,serif" font-size="14.00">StatusListModule</text>
</g>
<!-- StatusListModule&#45;&gt;IssuerModule -->
<g id="edge4" class="edge">
<title>StatusListModule&#45;&gt;IssuerModule</title>
<path fill="none" stroke="black" d="M1308.98,-122.03C1308.98,-138.4 1308.98,-160 1308.98,-160 1308.98,-160 1029.72,-160 1029.72,-160"/>
<polygon fill="black" stroke="black" points="1029.72,-156.5 1019.72,-160 1029.72,-163.5 1029.72,-156.5"/>
</g>
<!-- AuthorizeService  -->
<g id="node6" class="node">
<title>AuthorizeService </title>
<polygon fill="#fb8072" stroke="black" points="1337.96,-252 1220.04,-252 1220.04,-216 1337.96,-216 1337.96,-252"/>
<text text-anchor="middle" x="1279" y="-229.8" font-family="Times,serif" font-size="14.00">AuthorizeService </text>
</g>
<!-- IssuerModule&#45;&gt;AuthorizeService  -->
<g id="edge5" class="edge">
<title>IssuerModule&#45;&gt;AuthorizeService </title>
<path fill="none" stroke="black" stroke-dasharray="5,2" d="M1019.76,-178C1095.81,-178 1237.94,-178 1237.94,-178 1237.94,-178 1237.94,-205.97 1237.94,-205.97"/>
<polygon fill="black" stroke="black" points="1234.44,-205.97 1237.94,-215.97 1241.44,-205.97 1234.44,-205.97"/>
</g>
<!-- CredentialConfigService  -->
<g id="node7" class="node">
<title>CredentialConfigService </title>
<polygon fill="#fb8072" stroke="black" points="1202.18,-252 1043.82,-252 1043.82,-216 1202.18,-216 1202.18,-252"/>
<text text-anchor="middle" x="1123" y="-229.8" font-family="Times,serif" font-size="14.00">CredentialConfigService </text>
</g>
<!-- IssuerModule&#45;&gt;CredentialConfigService  -->
<g id="edge6" class="edge">
<title>IssuerModule&#45;&gt;CredentialConfigService </title>
<path fill="none" stroke="black" stroke-dasharray="5,2" d="M1019.51,-183C1041,-183 1061.85,-183 1061.85,-183 1061.85,-183 1061.85,-205.88 1061.85,-205.88"/>
<polygon fill="black" stroke="black" points="1058.35,-205.88 1061.85,-215.88 1065.35,-205.88 1058.35,-205.88"/>
</g>
<!-- DisplayService  -->
<g id="node8" class="node">
<title>DisplayService </title>
<polygon fill="#fb8072" stroke="black" points="1025.52,-252 920.48,-252 920.48,-216 1025.52,-216 1025.52,-252"/>
<text text-anchor="middle" x="973" y="-229.8" font-family="Times,serif" font-size="14.00">DisplayService </text>
</g>
<!-- IssuerModule&#45;&gt;DisplayService  -->
<g id="edge7" class="edge">
<title>IssuerModule&#45;&gt;DisplayService </title>
<path fill="none" stroke="black" stroke-dasharray="5,2" d="M973,-187.11C973,-187.11 973,-205.99 973,-205.99"/>
<polygon fill="black" stroke="black" points="969.5,-205.99 973,-215.99 976.5,-205.99 969.5,-205.99"/>
</g>
<!-- IssuanceService  -->
<g id="node9" class="node">
<title>IssuanceService </title>
<polygon fill="#fb8072" stroke="black" points="902.67,-252 793.33,-252 793.33,-216 902.67,-216 902.67,-252"/>
<text text-anchor="middle" x="848" y="-229.8" font-family="Times,serif" font-size="14.00">IssuanceService </text>
</g>
<!-- IssuerModule&#45;&gt;IssuanceService  -->
<g id="edge8" class="edge">
<title>IssuerModule&#45;&gt;IssuanceService </title>
<path fill="none" stroke="black" stroke-dasharray="5,2" d="M926.36,-183C905.02,-183 884.4,-183 884.4,-183 884.4,-183 884.4,-205.88 884.4,-205.88"/>
<polygon fill="black" stroke="black" points="880.9,-205.88 884.4,-215.88 887.9,-205.88 880.9,-205.88"/>
</g>
<!-- Oid4vciService  -->
<g id="node10" class="node">
<title>Oid4vciService </title>
<polygon fill="#fb8072" stroke="black" points="775.08,-252 668.92,-252 668.92,-216 775.08,-216 775.08,-252"/>
<text text-anchor="middle" x="722" y="-229.8" font-family="Times,serif" font-size="14.00">Oid4vciService </text>
</g>
<!-- IssuerModule&#45;&gt;Oid4vciService  -->
<g id="edge9" class="edge">
<title>IssuerModule&#45;&gt;Oid4vciService </title>
<path fill="none" stroke="black" stroke-dasharray="5,2" d="M926.28,-178C855.09,-178 727.66,-178 727.66,-178 727.66,-178 727.66,-205.97 727.66,-205.97"/>
<polygon fill="black" stroke="black" points="724.16,-205.97 727.66,-215.97 731.16,-205.97 724.16,-205.97"/>
</g>
<!-- AuthorizeService -->
<g id="node11" class="node">
<title>AuthorizeService</title>
<ellipse fill="#fdb462" stroke="black" cx="1177" cy="-104" rx="78.71" ry="18"/>
<text text-anchor="middle" x="1177" y="-99.8" font-family="Times,serif" font-size="14.00">AuthorizeService</text>
</g>
<!-- AuthorizeService&#45;&gt;IssuerModule -->
<g id="edge10" class="edge">
<title>AuthorizeService&#45;&gt;IssuerModule</title>
<path fill="none" stroke="black" d="M1150.37,-121.03C1150.37,-136.19 1150.37,-156 1150.37,-156 1150.37,-156 1029.6,-156 1029.6,-156"/>
<polygon fill="black" stroke="black" points="1029.6,-152.5 1019.6,-156 1029.6,-159.5 1029.6,-152.5"/>
</g>
<!-- CredentialConfigService -->
<g id="node12" class="node">
<title>CredentialConfigService</title>
<ellipse fill="#fdb462" stroke="black" cx="973" cy="-104" rx="107.08" ry="18"/>
<text text-anchor="middle" x="973" y="-99.8" font-family="Times,serif" font-size="14.00">CredentialConfigService</text>
</g>
<!-- CredentialConfigService&#45;&gt;IssuerModule -->
<g id="edge11" class="edge">
<title>CredentialConfigService&#45;&gt;IssuerModule</title>
<path fill="none" stroke="black" d="M973,-122.11C973,-122.11 973,-140.99 973,-140.99"/>
<polygon fill="black" stroke="black" points="969.5,-140.99 973,-150.99 976.5,-140.99 969.5,-140.99"/>
</g>
<!-- CredentialsService -->
<g id="node13" class="node">
<title>CredentialsService</title>
<ellipse fill="#fdb462" stroke="black" cx="764" cy="-104" rx="83.94" ry="18"/>
<text text-anchor="middle" x="764" y="-99.8" font-family="Times,serif" font-size="14.00">CredentialsService</text>
</g>
<!-- CredentialsService&#45;&gt;IssuerModule -->
<g id="edge12" class="edge">
<title>CredentialsService&#45;&gt;IssuerModule</title>
<path fill="none" stroke="black" d="M820.57,-117.39C820.57,-132.8 820.57,-156 820.57,-156 820.57,-156 916.44,-156 916.44,-156"/>
<polygon fill="black" stroke="black" points="916.44,-159.5 926.44,-156 916.44,-152.5 916.44,-159.5"/>
</g>
<!-- DisplayService -->
<g id="node14" class="node">
<title>DisplayService</title>
<ellipse fill="#fdb462" stroke="black" cx="592" cy="-104" rx="70.06" ry="18"/>
<text text-anchor="middle" x="592" y="-99.8" font-family="Times,serif" font-size="14.00">DisplayService</text>
</g>
<!-- DisplayService&#45;&gt;IssuerModule -->
<g id="edge13" class="edge">
<title>DisplayService&#45;&gt;IssuerModule</title>
<path fill="none" stroke="black" d="M592,-122.03C592,-138.4 592,-160 592,-160 592,-160 916.28,-160 916.28,-160"/>
<polygon fill="black" stroke="black" points="916.28,-163.5 926.28,-160 916.28,-156.5 916.28,-163.5"/>
</g>
<!-- IssuanceService -->
<g id="node15" class="node">
<title>IssuanceService</title>
<ellipse fill="#fdb462" stroke="black" cx="431" cy="-104" rx="73.47" ry="18"/>
<text text-anchor="middle" x="431" y="-99.8" font-family="Times,serif" font-size="14.00">IssuanceService</text>
</g>
<!-- IssuanceService&#45;&gt;IssuerModule -->
<g id="edge14" class="edge">
<title>IssuanceService&#45;&gt;IssuerModule</title>
<path fill="none" stroke="black" d="M431,-122.3C431,-140.27 431,-165 431,-165 431,-165 916.32,-165 916.32,-165"/>
<polygon fill="black" stroke="black" points="916.32,-168.5 926.32,-165 916.32,-161.5 916.32,-168.5"/>
</g>
<!-- Oid4vciService -->
<g id="node16" class="node">
<title>Oid4vciService</title>
<ellipse fill="#fdb462" stroke="black" cx="269" cy="-104" rx="71.21" ry="18"/>
<text text-anchor="middle" x="269" y="-99.8" font-family="Times,serif" font-size="14.00">Oid4vciService</text>
</g>
<!-- Oid4vciService&#45;&gt;IssuerModule -->
<g id="edge15" class="edge">
<title>Oid4vciService&#45;&gt;IssuerModule</title>
<path fill="none" stroke="black" d="M269,-122.11C269,-141.34 269,-169 269,-169 269,-169 916.26,-169 916.26,-169"/>
<polygon fill="black" stroke="black" points="916.26,-172.5 926.26,-169 916.26,-165.5 916.26,-172.5"/>
</g>
<!-- WebhookService -->
<g id="node17" class="node">
<title>WebhookService</title>
<ellipse fill="#fdb462" stroke="black" cx="102" cy="-104" rx="77.57" ry="18"/>
<text text-anchor="middle" x="102" y="-99.8" font-family="Times,serif" font-size="14.00">WebhookService</text>
</g>
<!-- WebhookService&#45;&gt;IssuerModule -->
<g id="edge16" class="edge">
<title>WebhookService&#45;&gt;IssuerModule</title>
<path fill="none" stroke="black" d="M102,-122.03C102,-142.77 102,-174 102,-174 102,-174 916.48,-174 916.48,-174"/>
<polygon fill="black" stroke="black" points="916.48,-177.5 926.48,-174 916.48,-170.5 916.48,-177.5"/>
</g>
</g>
</svg>
