<?xml version="1.0" encoding="UTF-8" standalone="no"?>
<!DOCTYPE svg PUBLIC "-//W3C//DTD SVG 1.1//EN"
 "http://www.w3.org/Graphics/SVG/1.1/DTD/svg11.dtd">
<!-- Generated by graphviz version 2.47.0 (20210316.0004)
 -->
<!-- Title: dependencies Pages: 1 -->
<svg width="2078pt" height="284pt"
 viewBox="0.00 0.00 2078.00 284.00" xmlns="http://www.w3.org/2000/svg" xmlns:xlink="http://www.w3.org/1999/xlink">
<g id="graph0" class="graph" transform="scale(1 1) rotate(0) translate(4 280)">
<title>dependencies</title>
<polygon fill="white" stroke="transparent" points="-4,4 -4,-280 2074,-280 2074,4 -4,4"/>
<text text-anchor="start" x="1014.01" y="-42.4" font-family="Times-12" font-weight="bold" font-size="14.00">Legend</text>
<polygon fill="#ffffb3" stroke="transparent" points="801,-10 801,-30 821,-30 821,-10 801,-10"/>
<text text-anchor="start" x="824.63" y="-15.4" font-family="Times-12" font-size="14.00"> &#160;Declarations</text>
<polygon fill="#8dd3c7" stroke="transparent" points="914,-10 914,-30 934,-30 934,-10 914,-10"/>
<text text-anchor="start" x="937.73" y="-15.4" font-family="Times-12" font-size="14.00"> &#160;Module</text>
<polygon fill="#80b1d3" stroke="transparent" points="1000,-10 1000,-30 1020,-30 1020,-10 1000,-10"/>
<text text-anchor="start" x="1023.78" y="-15.4" font-family="Times-12" font-size="14.00"> &#160;Bootstrap</text>
<polygon fill="#fdb462" stroke="transparent" points="1097,-10 1097,-30 1117,-30 1117,-10 1097,-10"/>
<text text-anchor="start" x="1120.67" y="-15.4" font-family="Times-12" font-size="14.00"> &#160;Providers</text>
<polygon fill="#fb8072" stroke="transparent" points="1193,-10 1193,-30 1213,-30 1213,-10 1193,-10"/>
<text text-anchor="start" x="1216.73" y="-15.4" font-family="Times-12" font-size="14.00"> &#160;Exports</text>
<g id="clust1" class="cluster">
<title>cluster_IssuerModule</title>
<polygon fill="none" stroke="black" stroke-dasharray="1,5" points="8,-70 8,-268 2062,-268 2062,-70 8,-70"/>
</g>
<g id="clust3" class="cluster">
<title>cluster_IssuerModule_imports</title>
<polygon fill="none" stroke="black" points="1566,-78 1566,-130 2054,-130 2054,-78 1566,-78"/>
</g>
<g id="clust4" class="cluster">
<title>cluster_IssuerModule_exports</title>
<polygon fill="none" stroke="black" points="1036,-208 1036,-260 1294,-260 1294,-208 1036,-208"/>
</g>
<g id="clust6" class="cluster">
<title>cluster_IssuerModule_providers</title>
<polygon fill="none" stroke="black" points="16,-78 16,-130 1558,-130 1558,-78 16,-78"/>
</g>
<!-- CryptoModule -->
<g id="node1" class="node">
<title>CryptoModule</title>
<polygon fill="#8dd3c7" stroke="black" points="2046.44,-122 2043.44,-126 2022.44,-126 2019.44,-122 1947.56,-122 1947.56,-86 2046.44,-86 2046.44,-122"/>
<text text-anchor="middle" x="1997" y="-99.8" font-family="Times,serif" font-size="14.00">CryptoModule</text>
</g>
<!-- IssuerModule -->
<g id="node5" class="node">
<title>IssuerModule</title>
<polygon fill="#8dd3c7" stroke="black" points="1208.47,-187 1205.47,-191 1184.47,-191 1181.47,-187 1115.53,-187 1115.53,-151 1208.47,-151 1208.47,-187"/>
<text text-anchor="middle" x="1162" y="-164.8" font-family="Times,serif" font-size="14.00">IssuerModule</text>
</g>
<!-- CryptoModule&#45;&gt;IssuerModule -->
<g id="edge1" class="edge">
<title>CryptoModule&#45;&gt;IssuerModule</title>
<path fill="none" stroke="black" d="M1997,-122.25C1997,-145.02 1997,-181 1997,-181 1997,-181 1218.68,-181 1218.68,-181"/>
<polygon fill="black" stroke="black" points="1218.68,-177.5 1208.68,-181 1218.68,-184.5 1218.68,-177.5"/>
</g>
<!-- Oid4vpModule -->
<g id="node2" class="node">
<title>Oid4vpModule</title>
<polygon fill="#8dd3c7" stroke="black" points="1929.55,-122 1926.55,-126 1905.55,-126 1902.55,-122 1828.45,-122 1828.45,-86 1929.55,-86 1929.55,-122"/>
<text text-anchor="middle" x="1879" y="-99.8" font-family="Times,serif" font-size="14.00">Oid4vpModule</text>
</g>
<!-- Oid4vpModule&#45;&gt;IssuerModule -->
<g id="edge2" class="edge">
<title>Oid4vpModule&#45;&gt;IssuerModule</title>
<path fill="none" stroke="black" d="M1879,-122.28C1879,-143.32 1879,-175 1879,-175 1879,-175 1218.49,-175 1218.49,-175"/>
<polygon fill="black" stroke="black" points="1218.49,-171.5 1208.49,-175 1218.49,-178.5 1218.49,-171.5"/>
</g>
<!-- SessionModule -->
<g id="node3" class="node">
<title>SessionModule</title>
<polygon fill="#8dd3c7" stroke="black" points="1810.33,-122 1807.33,-126 1786.33,-126 1783.33,-122 1707.67,-122 1707.67,-86 1810.33,-86 1810.33,-122"/>
<text text-anchor="middle" x="1759" y="-99.8" font-family="Times,serif" font-size="14.00">SessionModule</text>
</g>
<!-- SessionModule&#45;&gt;IssuerModule -->
<g id="edge3" class="edge">
<title>SessionModule&#45;&gt;IssuerModule</title>
<path fill="none" stroke="black" d="M1759,-122.11C1759,-141.34 1759,-169 1759,-169 1759,-169 1218.85,-169 1218.85,-169"/>
<polygon fill="black" stroke="black" points="1218.85,-165.5 1208.85,-169 1218.85,-172.5 1218.85,-165.5"/>
</g>
<!-- StatusListModule -->
<g id="node4" class="node">
<title>StatusListModule</title>
<polygon fill="#8dd3c7" stroke="black" points="1689.55,-122 1686.55,-126 1665.55,-126 1662.55,-122 1574.45,-122 1574.45,-86 1689.55,-86 1689.55,-122"/>
<text text-anchor="middle" x="1632" y="-99.8" font-family="Times,serif" font-size="14.00">StatusListModule</text>
</g>
<!-- StatusListModule&#45;&gt;IssuerModule -->
<g id="edge4" class="edge">
<title>StatusListModule&#45;&gt;IssuerModule</title>
<path fill="none" stroke="black" d="M1632,-122.02C1632,-139.37 1632,-163 1632,-163 1632,-163 1218.78,-163 1218.78,-163"/>
<polygon fill="black" stroke="black" points="1218.78,-159.5 1208.78,-163 1218.78,-166.5 1218.78,-159.5"/>
</g>
<!-- AuthorizeService  -->
<g id="node6" class="node">
<title>AuthorizeService </title>
<polygon fill="#fb8072" stroke="black" points="1285.96,-252 1168.04,-252 1168.04,-216 1285.96,-216 1285.96,-252"/>
<text text-anchor="middle" x="1227" y="-229.8" font-family="Times,serif" font-size="14.00">AuthorizeService </text>
</g>
<!-- IssuerModule&#45;&gt;AuthorizeService  -->
<g id="edge5" class="edge">
<title>IssuerModule&#45;&gt;AuthorizeService </title>
<path fill="none" stroke="black" stroke-dasharray="5,2" d="M1188.38,-187.11C1188.38,-187.11 1188.38,-205.99 1188.38,-205.99"/>
<polygon fill="black" stroke="black" points="1184.88,-205.99 1188.38,-215.99 1191.88,-205.99 1184.88,-205.99"/>
</g>
<!-- Oid4vciService  -->
<g id="node7" class="node">
<title>Oid4vciService </title>
<polygon fill="#fb8072" stroke="black" points="1150.08,-252 1043.92,-252 1043.92,-216 1150.08,-216 1150.08,-252"/>
<text text-anchor="middle" x="1097" y="-229.8" font-family="Times,serif" font-size="14.00">Oid4vciService </text>
</g>
<!-- IssuerModule&#45;&gt;Oid4vciService  -->
<g id="edge6" class="edge">
<title>IssuerModule&#45;&gt;Oid4vciService </title>
<path fill="none" stroke="black" stroke-dasharray="5,2" d="M1132.9,-187.11C1132.9,-187.11 1132.9,-205.99 1132.9,-205.99"/>
<polygon fill="black" stroke="black" points="1129.4,-205.99 1132.9,-215.99 1136.4,-205.99 1129.4,-205.99"/>
</g>
<!-- AuthorizeService -->
<g id="node8" class="node">
<title>AuthorizeService</title>
<ellipse fill="#fdb462" stroke="black" cx="1471" cy="-104" rx="78.71" ry="18"/>
<text text-anchor="middle" x="1471" y="-99.8" font-family="Times,serif" font-size="14.00">AuthorizeService</text>
</g>
<!-- AuthorizeService&#45;&gt;IssuerModule -->
<g id="edge7" class="edge">
<title>AuthorizeService&#45;&gt;IssuerModule</title>
<path fill="none" stroke="black" d="M1471,-122.24C1471,-137.57 1471,-157 1471,-157 1471,-157 1218.59,-157 1218.59,-157"/>
<polygon fill="black" stroke="black" points="1218.6,-153.5 1208.59,-157 1218.59,-160.5 1218.6,-153.5"/>
</g>
<!-- CredentialConfigService -->
<g id="node9" class="node">
<title>CredentialConfigService</title>
<ellipse fill="#fdb462" stroke="black" cx="1267" cy="-104" rx="107.08" ry="18"/>
<text text-anchor="middle" x="1267" y="-99.8" font-family="Times,serif" font-size="14.00">CredentialConfigService</text>
</g>
<!-- CredentialConfigService&#45;&gt;IssuerModule -->
<g id="edge8" class="edge">
<title>CredentialConfigService&#45;&gt;IssuerModule</title>
<path fill="none" stroke="black" d="M1184.22,-115.62C1184.22,-115.62 1184.22,-140.85 1184.22,-140.85"/>
<polygon fill="black" stroke="black" points="1180.72,-140.85 1184.22,-150.85 1187.72,-140.85 1180.72,-140.85"/>
</g>
<!-- CredentialsService -->
<g id="node10" class="node">
<title>CredentialsService</title>
<ellipse fill="#fdb462" stroke="black" cx="1058" cy="-104" rx="83.94" ry="18"/>
<text text-anchor="middle" x="1058" y="-99.8" font-family="Times,serif" font-size="14.00">CredentialsService</text>
</g>
<!-- CredentialsService&#45;&gt;IssuerModule -->
<g id="edge9" class="edge">
<title>CredentialsService&#45;&gt;IssuerModule</title>
<path fill="none" stroke="black" d="M1128.74,-113.87C1128.74,-113.87 1128.74,-140.91 1128.74,-140.91"/>
<polygon fill="black" stroke="black" points="1125.24,-140.91 1128.74,-150.91 1132.24,-140.91 1125.24,-140.91"/>
</g>
<!-- IssuanceService -->
<g id="node11" class="node">
<title>IssuanceService</title>
<ellipse fill="#fdb462" stroke="black" cx="883" cy="-104" rx="73.47" ry="18"/>
<text text-anchor="middle" x="883" y="-99.8" font-family="Times,serif" font-size="14.00">IssuanceService</text>
</g>
<!-- IssuanceService&#45;&gt;IssuerModule -->
<g id="edge10" class="edge">
<title>IssuanceService&#45;&gt;IssuerModule</title>
<path fill="none" stroke="black" d="M883,-122.24C883,-137.57 883,-157 883,-157 883,-157 1105.3,-157 1105.3,-157"/>
<polygon fill="black" stroke="black" points="1105.3,-160.5 1115.3,-157 1105.3,-153.5 1105.3,-160.5"/>
</g>
<!-- Oid4vciService -->
<g id="node12" class="node">
<title>Oid4vciService</title>
<ellipse fill="#fdb462" stroke="black" cx="721" cy="-104" rx="71.21" ry="18"/>
<text text-anchor="middle" x="721" y="-99.8" font-family="Times,serif" font-size="14.00">Oid4vciService</text>
</g>
<!-- Oid4vciService&#45;&gt;IssuerModule -->
<g id="edge11" class="edge">
<title>Oid4vciService&#45;&gt;IssuerModule</title>
<path fill="none" stroke="black" d="M721,-122.02C721,-139.37 721,-163 721,-163 721,-163 1105.22,-163 1105.22,-163"/>
<polygon fill="black" stroke="black" points="1105.22,-166.5 1115.22,-163 1105.22,-159.5 1105.22,-166.5"/>
</g>
<!-- SessionLoggerInterceptor -->
<g id="node13" class="node">
<title>SessionLoggerInterceptor</title>
<ellipse fill="#fdb462" stroke="black" cx="521" cy="-104" rx="110.57" ry="18"/>
<text text-anchor="middle" x="521" y="-99.8" font-family="Times,serif" font-size="14.00">SessionLoggerInterceptor</text>
</g>
<!-- SessionLoggerInterceptor&#45;&gt;IssuerModule -->
<g id="edge12" class="edge">
<title>SessionLoggerInterceptor&#45;&gt;IssuerModule</title>
<path fill="none" stroke="black" d="M521,-122.11C521,-141.34 521,-169 521,-169 521,-169 1105.38,-169 1105.38,-169"/>
<polygon fill="black" stroke="black" points="1105.38,-172.5 1115.38,-169 1105.38,-165.5 1105.38,-172.5"/>
</g>
<!-- SessionLoggerService -->
<g id="node14" class="node">
<title>SessionLoggerService</title>
<ellipse fill="#fdb462" stroke="black" cx="295" cy="-104" rx="97.27" ry="18"/>
<text text-anchor="middle" x="295" y="-99.8" font-family="Times,serif" font-size="14.00">SessionLoggerService</text>
</g>
<!-- SessionLoggerService&#45;&gt;IssuerModule -->
<g id="edge13" class="edge">
<title>SessionLoggerService&#45;&gt;IssuerModule</title>
<path fill="none" stroke="black" d="M295,-122.28C295,-143.32 295,-175 295,-175 295,-175 1105.39,-175 1105.39,-175"/>
<polygon fill="black" stroke="black" points="1105.39,-178.5 1115.39,-175 1105.39,-171.5 1105.39,-178.5"/>
</g>
<!-- WebhookService -->
<g id="node15" class="node">
<title>WebhookService</title>
<ellipse fill="#fdb462" stroke="black" cx="102" cy="-104" rx="77.57" ry="18"/>
<text text-anchor="middle" x="102" y="-99.8" font-family="Times,serif" font-size="14.00">WebhookService</text>
</g>
<!-- WebhookService&#45;&gt;IssuerModule -->
<g id="edge14" class="edge">
<title>WebhookService&#45;&gt;IssuerModule</title>
<path fill="none" stroke="black" d="M102,-122.25C102,-145.02 102,-181 102,-181 102,-181 1105.43,-181 1105.43,-181"/>
<polygon fill="black" stroke="black" points="1105.43,-184.5 1115.43,-181 1105.43,-177.5 1105.43,-184.5"/>
</g>
</g>
</svg>
