<?xml version="1.0" encoding="UTF-8" standalone="no"?>
<!DOCTYPE svg PUBLIC "-//W3C//DTD SVG 1.1//EN"
 "http://www.w3.org/Graphics/SVG/1.1/DTD/svg11.dtd">
<!-- Generated by graphviz version 2.47.0 (20210316.0004)
 -->
<!-- Title: dependencies Pages: 1 -->
<svg width="2078pt" height="284pt"
 viewBox="0.00 0.00 2078.00 284.00" xmlns="http://www.w3.org/2000/svg" xmlns:xlink="http://www.w3.org/1999/xlink">
<g id="graph0" class="graph" transform="scale(1 1) rotate(0) translate(4 280)">
<title>dependencies</title>
<polygon fill="white" stroke="transparent" points="-4,4 -4,-280 2074,-280 2074,4 -4,4"/>
<text text-anchor="start" x="1014.01" y="-42.4" font-family="Times-12" font-weight="bold" font-size="14.00">Legend</text>
<polygon fill="#ffffb3" stroke="transparent" points="801,-10 801,-30 821,-30 821,-10 801,-10"/>
<text text-anchor="start" x="824.63" y="-15.4" font-family="Times-12" font-size="14.00"> &#160;Declarations</text>
<polygon fill="#8dd3c7" stroke="transparent" points="914,-10 914,-30 934,-30 934,-10 914,-10"/>
<text text-anchor="start" x="937.73" y="-15.4" font-family="Times-12" font-size="14.00"> &#160;Module</text>
<polygon fill="#80b1d3" stroke="transparent" points="1000,-10 1000,-30 1020,-30 1020,-10 1000,-10"/>
<text text-anchor="start" x="1023.78" y="-15.4" font-family="Times-12" font-size="14.00"> &#160;Bootstrap</text>
<polygon fill="#fdb462" stroke="transparent" points="1097,-10 1097,-30 1117,-30 1117,-10 1097,-10"/>
<text text-anchor="start" x="1120.67" y="-15.4" font-family="Times-12" font-size="14.00"> &#160;Providers</text>
<polygon fill="#fb8072" stroke="transparent" points="1193,-10 1193,-30 1213,-30 1213,-10 1193,-10"/>
<text text-anchor="start" x="1216.73" y="-15.4" font-family="Times-12" font-size="14.00"> &#160;Exports</text>
<g id="clust1" class="cluster">
<title>cluster_IssuerModule</title>
<polygon fill="none" stroke="black" stroke-dasharray="1,5" points="8,-70 8,-268 2062,-268 2062,-70 8,-70"/>
</g>
<g id="clust6" class="cluster">
<title>cluster_IssuerModule_providers</title>
<polygon fill="none" stroke="black" points="512,-78 512,-130 2054,-130 2054,-78 512,-78"/>
</g>
<g id="clust3" class="cluster">
<title>cluster_IssuerModule_imports</title>
<polygon fill="none" stroke="black" points="16,-78 16,-130 504,-130 504,-78 16,-78"/>
</g>
<g id="clust4" class="cluster">
<title>cluster_IssuerModule_exports</title>
<polygon fill="none" stroke="black" points="778,-208 778,-260 1036,-260 1036,-208 778,-208"/>
</g>
<!-- CryptoModule -->
<g id="node1" class="node">
<title>CryptoModule</title>
<polygon fill="#8dd3c7" stroke="black" points="496.44,-122 493.44,-126 472.44,-126 469.44,-122 397.56,-122 397.56,-86 496.44,-86 496.44,-122"/>
<text text-anchor="middle" x="447" y="-99.8" font-family="Times,serif" font-size="14.00">CryptoModule</text>
</g>
<!-- IssuerModule -->
<g id="node5" class="node">
<title>IssuerModule</title>
<polygon fill="#8dd3c7" stroke="black" points="950.47,-187 947.47,-191 926.47,-191 923.47,-187 857.53,-187 857.53,-151 950.47,-151 950.47,-187"/>
<text text-anchor="middle" x="904" y="-164.8" font-family="Times,serif" font-size="14.00">IssuerModule</text>
</g>
<!-- CryptoModule&#45;&gt;IssuerModule -->
<g id="edge1" class="edge">
<title>CryptoModule&#45;&gt;IssuerModule</title>
<path fill="none" stroke="black" d="M447,-122.02C447,-139.37 447,-163 447,-163 447,-163 847.24,-163 847.24,-163"/>
<polygon fill="black" stroke="black" points="847.24,-166.5 857.24,-163 847.24,-159.5 847.24,-166.5"/>
</g>
<!-- Oid4vpModule -->
<g id="node2" class="node">
<title>Oid4vpModule</title>
<polygon fill="#8dd3c7" stroke="black" points="379.55,-122 376.55,-126 355.55,-126 352.55,-122 278.45,-122 278.45,-86 379.55,-86 379.55,-122"/>
<text text-anchor="middle" x="329" y="-99.8" font-family="Times,serif" font-size="14.00">Oid4vpModule</text>
</g>
<!-- Oid4vpModule&#45;&gt;IssuerModule -->
<g id="edge2" class="edge">
<title>Oid4vpModule&#45;&gt;IssuerModule</title>
<path fill="none" stroke="black" d="M329,-122.11C329,-141.34 329,-169 329,-169 329,-169 847.43,-169 847.43,-169"/>
<polygon fill="black" stroke="black" points="847.43,-172.5 857.43,-169 847.43,-165.5 847.43,-172.5"/>
</g>
<!-- SessionModule -->
<g id="node3" class="node">
<title>SessionModule</title>
<polygon fill="#8dd3c7" stroke="black" points="260.33,-122 257.33,-126 236.33,-126 233.33,-122 157.67,-122 157.67,-86 260.33,-86 260.33,-122"/>
<text text-anchor="middle" x="209" y="-99.8" font-family="Times,serif" font-size="14.00">SessionModule</text>
</g>
<!-- SessionModule&#45;&gt;IssuerModule -->
<g id="edge3" class="edge">
<title>SessionModule&#45;&gt;IssuerModule</title>
<path fill="none" stroke="black" d="M209,-122.28C209,-143.32 209,-175 209,-175 209,-175 847.32,-175 847.32,-175"/>
<polygon fill="black" stroke="black" points="847.32,-178.5 857.32,-175 847.32,-171.5 847.32,-178.5"/>
</g>
<!-- StatusListModule -->
<g id="node4" class="node">
<title>StatusListModule</title>
<polygon fill="#8dd3c7" stroke="black" points="139.55,-122 136.55,-126 115.55,-126 112.55,-122 24.45,-122 24.45,-86 139.55,-86 139.55,-122"/>
<text text-anchor="middle" x="82" y="-99.8" font-family="Times,serif" font-size="14.00">StatusListModule</text>
</g>
<!-- StatusListModule&#45;&gt;IssuerModule -->
<g id="edge4" class="edge">
<title>StatusListModule&#45;&gt;IssuerModule</title>
<path fill="none" stroke="black" d="M82,-122.25C82,-145.02 82,-181 82,-181 82,-181 847.45,-181 847.45,-181"/>
<polygon fill="black" stroke="black" points="847.45,-184.5 857.45,-181 847.45,-177.5 847.45,-184.5"/>
</g>
<!-- AuthorizeService  -->
<g id="node6" class="node">
<title>AuthorizeService </title>
<polygon fill="#fb8072" stroke="black" points="1027.96,-252 910.04,-252 910.04,-216 1027.96,-216 1027.96,-252"/>
<text text-anchor="middle" x="969" y="-229.8" font-family="Times,serif" font-size="14.00">AuthorizeService </text>
</g>
<!-- IssuerModule&#45;&gt;AuthorizeService  -->
<g id="edge5" class="edge">
<title>IssuerModule&#45;&gt;AuthorizeService </title>
<path fill="none" stroke="black" stroke-dasharray="5,2" d="M930.38,-187.11C930.38,-187.11 930.38,-205.99 930.38,-205.99"/>
<polygon fill="black" stroke="black" points="926.88,-205.99 930.38,-215.99 933.88,-205.99 926.88,-205.99"/>
</g>
<!-- Oid4vciService  -->
<g id="node7" class="node">
<title>Oid4vciService </title>
<polygon fill="#fb8072" stroke="black" points="892.08,-252 785.92,-252 785.92,-216 892.08,-216 892.08,-252"/>
<text text-anchor="middle" x="839" y="-229.8" font-family="Times,serif" font-size="14.00">Oid4vciService </text>
</g>
<!-- IssuerModule&#45;&gt;Oid4vciService  -->
<g id="edge6" class="edge">
<title>IssuerModule&#45;&gt;Oid4vciService </title>
<path fill="none" stroke="black" stroke-dasharray="5,2" d="M874.9,-187.11C874.9,-187.11 874.9,-205.99 874.9,-205.99"/>
<polygon fill="black" stroke="black" points="871.4,-205.99 874.9,-215.99 878.4,-205.99 871.4,-205.99"/>
</g>
<!-- AuthorizeService -->
<g id="node8" class="node">
<title>AuthorizeService</title>
<ellipse fill="#fdb462" stroke="black" cx="1967" cy="-104" rx="78.71" ry="18"/>
<text text-anchor="middle" x="1967" y="-99.8" font-family="Times,serif" font-size="14.00">AuthorizeService</text>
</g>
<!-- AuthorizeService&#45;&gt;IssuerModule -->
<g id="edge7" class="edge">
<title>AuthorizeService&#45;&gt;IssuerModule</title>
<path fill="none" stroke="black" d="M1967,-122.25C1967,-145.02 1967,-181 1967,-181 1967,-181 960.7,-181 960.7,-181"/>
<polygon fill="black" stroke="black" points="960.7,-177.5 950.7,-181 960.7,-184.5 960.7,-177.5"/>
</g>
<!-- CredentialConfigService -->
<g id="node9" class="node">
<title>CredentialConfigService</title>
<ellipse fill="#fdb462" stroke="black" cx="1763" cy="-104" rx="107.08" ry="18"/>
<text text-anchor="middle" x="1763" y="-99.8" font-family="Times,serif" font-size="14.00">CredentialConfigService</text>
</g>
<!-- CredentialConfigService&#45;&gt;IssuerModule -->
<g id="edge8" class="edge">
<title>CredentialConfigService&#45;&gt;IssuerModule</title>
<path fill="none" stroke="black" d="M1763,-122.28C1763,-143.32 1763,-175 1763,-175 1763,-175 960.49,-175 960.49,-175"/>
<polygon fill="black" stroke="black" points="960.49,-171.5 950.49,-175 960.49,-178.5 960.49,-171.5"/>
</g>
<!-- CredentialsService -->
<g id="node10" class="node">
<title>CredentialsService</title>
<ellipse fill="#fdb462" stroke="black" cx="1554" cy="-104" rx="83.94" ry="18"/>
<text text-anchor="middle" x="1554" y="-99.8" font-family="Times,serif" font-size="14.00">CredentialsService</text>
</g>
<!-- CredentialsService&#45;&gt;IssuerModule -->
<g id="edge9" class="edge">
<title>CredentialsService&#45;&gt;IssuerModule</title>
<path fill="none" stroke="black" d="M1554,-122.11C1554,-141.34 1554,-169 1554,-169 1554,-169 960.49,-169 960.49,-169"/>
<polygon fill="black" stroke="black" points="960.49,-165.5 950.49,-169 960.49,-172.5 960.49,-165.5"/>
</g>
<!-- IssuanceService -->
<g id="node11" class="node">
<title>IssuanceService</title>
<ellipse fill="#fdb462" stroke="black" cx="1379" cy="-104" rx="73.47" ry="18"/>
<text text-anchor="middle" x="1379" y="-99.8" font-family="Times,serif" font-size="14.00">IssuanceService</text>
</g>
<!-- IssuanceService&#45;&gt;IssuerModule -->
<g id="edge10" class="edge">
<title>IssuanceService&#45;&gt;IssuerModule</title>
<path fill="none" stroke="black" d="M1379,-122.02C1379,-139.37 1379,-163 1379,-163 1379,-163 960.84,-163 960.84,-163"/>
<polygon fill="black" stroke="black" points="960.84,-159.5 950.84,-163 960.84,-166.5 960.84,-159.5"/>
</g>
<!-- Oid4vciService -->
<g id="node12" class="node">
<title>Oid4vciService</title>
<ellipse fill="#fdb462" stroke="black" cx="1217" cy="-104" rx="71.21" ry="18"/>
<text text-anchor="middle" x="1217" y="-99.8" font-family="Times,serif" font-size="14.00">Oid4vciService</text>
</g>
<!-- Oid4vciService&#45;&gt;IssuerModule -->
<g id="edge11" class="edge">
<title>Oid4vciService&#45;&gt;IssuerModule</title>
<path fill="none" stroke="black" d="M1217,-122.24C1217,-137.57 1217,-157 1217,-157 1217,-157 960.52,-157 960.52,-157"/>
<polygon fill="black" stroke="black" points="960.52,-153.5 950.52,-157 960.52,-160.5 960.52,-153.5"/>
</g>
<!-- SessionLoggerInterceptor -->
<g id="node13" class="node">
<title>SessionLoggerInterceptor</title>
<ellipse fill="#fdb462" stroke="black" cx="1017" cy="-104" rx="110.57" ry="18"/>
<text text-anchor="middle" x="1017" y="-99.8" font-family="Times,serif" font-size="14.00">SessionLoggerInterceptor</text>
</g>
<!-- SessionLoggerInterceptor&#45;&gt;IssuerModule -->
<g id="edge12" class="edge">
<title>SessionLoggerInterceptor&#45;&gt;IssuerModule</title>
<path fill="none" stroke="black" d="M928.35,-115.03C928.35,-115.03 928.35,-140.78 928.35,-140.78"/>
<polygon fill="black" stroke="black" points="924.85,-140.78 928.35,-150.78 931.85,-140.78 924.85,-140.78"/>
</g>
<!-- SessionLoggerService -->
<g id="node14" class="node">
<title>SessionLoggerService</title>
<ellipse fill="#fdb462" stroke="black" cx="791" cy="-104" rx="97.27" ry="18"/>
<text text-anchor="middle" x="791" y="-99.8" font-family="Times,serif" font-size="14.00">SessionLoggerService</text>
</g>
<!-- SessionLoggerService&#45;&gt;IssuerModule -->
<g id="edge13" class="edge">
<title>SessionLoggerService&#45;&gt;IssuerModule</title>
<path fill="none" stroke="black" d="M872.95,-113.87C872.95,-113.87 872.95,-140.91 872.95,-140.91"/>
<polygon fill="black" stroke="black" points="869.45,-140.91 872.95,-150.91 876.45,-140.91 869.45,-140.91"/>
</g>
<!-- WebhookService -->
<g id="node15" class="node">
<title>WebhookService</title>
<ellipse fill="#fdb462" stroke="black" cx="598" cy="-104" rx="77.57" ry="18"/>
<text text-anchor="middle" x="598" y="-99.8" font-family="Times,serif" font-size="14.00">WebhookService</text>
</g>
<!-- WebhookService&#45;&gt;IssuerModule -->
<g id="edge14" class="edge">
<title>WebhookService&#45;&gt;IssuerModule</title>
<path fill="none" stroke="black" d="M598,-122.24C598,-137.57 598,-157 598,-157 598,-157 847.53,-157 847.53,-157"/>
<polygon fill="black" stroke="black" points="847.53,-160.5 857.53,-157 847.53,-153.5 847.53,-160.5"/>
</g>
</g>
</svg>
