<?xml version="1.0" encoding="UTF-8" standalone="no"?>
<!DOCTYPE svg PUBLIC "-//W3C//DTD SVG 1.1//EN"
 "http://www.w3.org/Graphics/SVG/1.1/DTD/svg11.dtd">
<!-- Generated by graphviz version 2.47.0 (20210316.0004)
 -->
<!-- Title: dependencies Pages: 1 -->
<svg width="1904pt" height="284pt"
 viewBox="0.00 0.00 1904.00 284.00" xmlns="http://www.w3.org/2000/svg" xmlns:xlink="http://www.w3.org/1999/xlink">
<g id="graph0" class="graph" transform="scale(1 1) rotate(0) translate(4 280)">
<title>dependencies</title>
<polygon fill="white" stroke="transparent" points="-4,4 -4,-280 1900,-280 1900,4 -4,4"/>
<text text-anchor="start" x="927.01" y="-42.4" font-family="Times-12" font-weight="bold" font-size="14.00">Legend</text>
<polygon fill="#ffffb3" stroke="transparent" points="714,-10 714,-30 734,-30 734,-10 714,-10"/>
<text text-anchor="start" x="737.63" y="-15.4" font-family="Times-12" font-size="14.00"> &#160;Declarations</text>
<polygon fill="#8dd3c7" stroke="transparent" points="827,-10 827,-30 847,-30 847,-10 827,-10"/>
<text text-anchor="start" x="850.73" y="-15.4" font-family="Times-12" font-size="14.00"> &#160;Module</text>
<polygon fill="#80b1d3" stroke="transparent" points="913,-10 913,-30 933,-30 933,-10 913,-10"/>
<text text-anchor="start" x="936.78" y="-15.4" font-family="Times-12" font-size="14.00"> &#160;Bootstrap</text>
<polygon fill="#fdb462" stroke="transparent" points="1010,-10 1010,-30 1030,-30 1030,-10 1010,-10"/>
<text text-anchor="start" x="1033.67" y="-15.4" font-family="Times-12" font-size="14.00"> &#160;Providers</text>
<polygon fill="#fb8072" stroke="transparent" points="1106,-10 1106,-30 1126,-30 1126,-10 1106,-10"/>
<text text-anchor="start" x="1129.73" y="-15.4" font-family="Times-12" font-size="14.00"> &#160;Exports</text>
<g id="clust1" class="cluster">
<title>cluster_IssuerModule</title>
<polygon fill="none" stroke="black" stroke-dasharray="1,5" points="8,-70 8,-268 1888,-268 1888,-70 8,-70"/>
</g>
<g id="clust4" class="cluster">
<title>cluster_IssuerModule_exports</title>
<polygon fill="none" stroke="black" points="967,-208 967,-260 1225,-260 1225,-208 967,-208"/>
</g>
<g id="clust3" class="cluster">
<title>cluster_IssuerModule_imports</title>
<polygon fill="none" stroke="black" points="1392,-78 1392,-130 1880,-130 1880,-78 1392,-78"/>
</g>
<g id="clust6" class="cluster">
<title>cluster_IssuerModule_providers</title>
<polygon fill="none" stroke="black" points="16,-78 16,-130 1384,-130 1384,-78 16,-78"/>
</g>
<!-- CryptoModule -->
<g id="node1" class="node">
<title>CryptoModule</title>
<polygon fill="#8dd3c7" stroke="black" points="1872.44,-122 1869.44,-126 1848.44,-126 1845.44,-122 1773.56,-122 1773.56,-86 1872.44,-86 1872.44,-122"/>
<text text-anchor="middle" x="1823" y="-99.8" font-family="Times,serif" font-size="14.00">CryptoModule</text>
</g>
<!-- IssuerModule -->
<g id="node5" class="node">
<title>IssuerModule</title>
<polygon fill="#8dd3c7" stroke="black" points="1139.47,-187 1136.47,-191 1115.47,-191 1112.47,-187 1046.53,-187 1046.53,-151 1139.47,-151 1139.47,-187"/>
<text text-anchor="middle" x="1093" y="-164.8" font-family="Times,serif" font-size="14.00">IssuerModule</text>
</g>
<!-- CryptoModule&#45;&gt;IssuerModule -->
<g id="edge1" class="edge">
<title>CryptoModule&#45;&gt;IssuerModule</title>
<path fill="none" stroke="black" d="M1823,-122.25C1823,-145.02 1823,-181 1823,-181 1823,-181 1149.5,-181 1149.5,-181"/>
<polygon fill="black" stroke="black" points="1149.5,-177.5 1139.5,-181 1149.5,-184.5 1149.5,-177.5"/>
</g>
<!-- Oid4vpModule -->
<g id="node2" class="node">
<title>Oid4vpModule</title>
<polygon fill="#8dd3c7" stroke="black" points="1755.55,-122 1752.55,-126 1731.55,-126 1728.55,-122 1654.45,-122 1654.45,-86 1755.55,-86 1755.55,-122"/>
<text text-anchor="middle" x="1705" y="-99.8" font-family="Times,serif" font-size="14.00">Oid4vpModule</text>
</g>
<!-- Oid4vpModule&#45;&gt;IssuerModule -->
<g id="edge2" class="edge">
<title>Oid4vpModule&#45;&gt;IssuerModule</title>
<path fill="none" stroke="black" d="M1705,-122.28C1705,-143.32 1705,-175 1705,-175 1705,-175 1149.5,-175 1149.5,-175"/>
<polygon fill="black" stroke="black" points="1149.5,-171.5 1139.5,-175 1149.5,-178.5 1149.5,-171.5"/>
</g>
<!-- SessionModule -->
<g id="node3" class="node">
<title>SessionModule</title>
<polygon fill="#8dd3c7" stroke="black" points="1636.33,-122 1633.33,-126 1612.33,-126 1609.33,-122 1533.67,-122 1533.67,-86 1636.33,-86 1636.33,-122"/>
<text text-anchor="middle" x="1585" y="-99.8" font-family="Times,serif" font-size="14.00">SessionModule</text>
</g>
<!-- SessionModule&#45;&gt;IssuerModule -->
<g id="edge3" class="edge">
<title>SessionModule&#45;&gt;IssuerModule</title>
<path fill="none" stroke="black" d="M1585,-122.11C1585,-141.34 1585,-169 1585,-169 1585,-169 1149.73,-169 1149.73,-169"/>
<polygon fill="black" stroke="black" points="1149.73,-165.5 1139.73,-169 1149.73,-172.5 1149.73,-165.5"/>
</g>
<!-- StatusListModule -->
<g id="node4" class="node">
<title>StatusListModule</title>
<polygon fill="#8dd3c7" stroke="black" points="1515.55,-122 1512.55,-126 1491.55,-126 1488.55,-122 1400.45,-122 1400.45,-86 1515.55,-86 1515.55,-122"/>
<text text-anchor="middle" x="1458" y="-99.8" font-family="Times,serif" font-size="14.00">StatusListModule</text>
</g>
<!-- StatusListModule&#45;&gt;IssuerModule -->
<g id="edge4" class="edge">
<title>StatusListModule&#45;&gt;IssuerModule</title>
<path fill="none" stroke="black" d="M1458,-122.02C1458,-139.37 1458,-163 1458,-163 1458,-163 1149.6,-163 1149.6,-163"/>
<polygon fill="black" stroke="black" points="1149.6,-159.5 1139.6,-163 1149.6,-166.5 1149.6,-159.5"/>
</g>
<!-- AuthorizeService  -->
<g id="node6" class="node">
<title>AuthorizeService </title>
<polygon fill="#fb8072" stroke="black" points="1216.96,-252 1099.04,-252 1099.04,-216 1216.96,-216 1216.96,-252"/>
<text text-anchor="middle" x="1158" y="-229.8" font-family="Times,serif" font-size="14.00">AuthorizeService </text>
</g>
<!-- IssuerModule&#45;&gt;AuthorizeService  -->
<g id="edge5" class="edge">
<title>IssuerModule&#45;&gt;AuthorizeService </title>
<path fill="none" stroke="black" stroke-dasharray="5,2" d="M1119.38,-187.11C1119.38,-187.11 1119.38,-205.99 1119.38,-205.99"/>
<polygon fill="black" stroke="black" points="1115.88,-205.99 1119.38,-215.99 1122.88,-205.99 1115.88,-205.99"/>
</g>
<!-- Oid4vciService  -->
<g id="node7" class="node">
<title>Oid4vciService </title>
<polygon fill="#fb8072" stroke="black" points="1081.08,-252 974.92,-252 974.92,-216 1081.08,-216 1081.08,-252"/>
<text text-anchor="middle" x="1028" y="-229.8" font-family="Times,serif" font-size="14.00">Oid4vciService </text>
</g>
<!-- IssuerModule&#45;&gt;Oid4vciService  -->
<g id="edge6" class="edge">
<title>IssuerModule&#45;&gt;Oid4vciService </title>
<path fill="none" stroke="black" stroke-dasharray="5,2" d="M1063.9,-187.11C1063.9,-187.11 1063.9,-205.99 1063.9,-205.99"/>
<polygon fill="black" stroke="black" points="1060.4,-205.99 1063.9,-215.99 1067.4,-205.99 1060.4,-205.99"/>
</g>
<!-- AuthorizeService -->
<g id="node8" class="node">
<title>AuthorizeService</title>
<ellipse fill="#fdb462" stroke="black" cx="1297" cy="-104" rx="78.71" ry="18"/>
<text text-anchor="middle" x="1297" y="-99.8" font-family="Times,serif" font-size="14.00">AuthorizeService</text>
</g>
<!-- AuthorizeService&#45;&gt;IssuerModule -->
<g id="edge7" class="edge">
<title>AuthorizeService&#45;&gt;IssuerModule</title>
<path fill="none" stroke="black" d="M1297,-122.24C1297,-137.57 1297,-157 1297,-157 1297,-157 1149.55,-157 1149.55,-157"/>
<polygon fill="black" stroke="black" points="1149.55,-153.5 1139.55,-157 1149.55,-160.5 1149.55,-153.5"/>
</g>
<!-- CredentialConfigService -->
<g id="node9" class="node">
<title>CredentialConfigService</title>
<ellipse fill="#fdb462" stroke="black" cx="1093" cy="-104" rx="107.08" ry="18"/>
<text text-anchor="middle" x="1093" y="-99.8" font-family="Times,serif" font-size="14.00">CredentialConfigService</text>
</g>
<!-- CredentialConfigService&#45;&gt;IssuerModule -->
<g id="edge8" class="edge">
<title>CredentialConfigService&#45;&gt;IssuerModule</title>
<path fill="none" stroke="black" d="M1093,-122.11C1093,-122.11 1093,-140.99 1093,-140.99"/>
<polygon fill="black" stroke="black" points="1089.5,-140.99 1093,-150.99 1096.5,-140.99 1089.5,-140.99"/>
</g>
<!-- CredentialsService -->
<g id="node10" class="node">
<title>CredentialsService</title>
<ellipse fill="#fdb462" stroke="black" cx="884" cy="-104" rx="83.94" ry="18"/>
<text text-anchor="middle" x="884" y="-99.8" font-family="Times,serif" font-size="14.00">CredentialsService</text>
</g>
<!-- CredentialsService&#45;&gt;IssuerModule -->
<g id="edge9" class="edge">
<title>CredentialsService&#45;&gt;IssuerModule</title>
<path fill="none" stroke="black" d="M884,-122.24C884,-137.57 884,-157 884,-157 884,-157 1036.36,-157 1036.36,-157"/>
<polygon fill="black" stroke="black" points="1036.36,-160.5 1046.36,-157 1036.36,-153.5 1036.36,-160.5"/>
</g>
<!-- IssuanceService -->
<g id="node11" class="node">
<title>IssuanceService</title>
<ellipse fill="#fdb462" stroke="black" cx="709" cy="-104" rx="73.47" ry="18"/>
<text text-anchor="middle" x="709" y="-99.8" font-family="Times,serif" font-size="14.00">IssuanceService</text>
</g>
<!-- IssuanceService&#45;&gt;IssuerModule -->
<g id="edge10" class="edge">
<title>IssuanceService&#45;&gt;IssuerModule</title>
<path fill="none" stroke="black" d="M709,-122.02C709,-139.37 709,-163 709,-163 709,-163 1036.3,-163 1036.3,-163"/>
<polygon fill="black" stroke="black" points="1036.3,-166.5 1046.3,-163 1036.3,-159.5 1036.3,-166.5"/>
</g>
<!-- Oid4vciService -->
<g id="node12" class="node">
<title>Oid4vciService</title>
<ellipse fill="#fdb462" stroke="black" cx="547" cy="-104" rx="71.21" ry="18"/>
<text text-anchor="middle" x="547" y="-99.8" font-family="Times,serif" font-size="14.00">Oid4vciService</text>
</g>
<!-- Oid4vciService&#45;&gt;IssuerModule -->
<g id="edge11" class="edge">
<title>Oid4vciService&#45;&gt;IssuerModule</title>
<path fill="none" stroke="black" d="M547,-122.11C547,-141.34 547,-169 547,-169 547,-169 1036.45,-169 1036.45,-169"/>
<polygon fill="black" stroke="black" points="1036.45,-172.5 1046.45,-169 1036.45,-165.5 1036.45,-172.5"/>
</g>
<!-- SessionLoggerInterceptor -->
<g id="node13" class="node">
<title>SessionLoggerInterceptor</title>
<ellipse fill="#fdb462" stroke="black" cx="347" cy="-104" rx="110.57" ry="18"/>
<text text-anchor="middle" x="347" y="-99.8" font-family="Times,serif" font-size="14.00">SessionLoggerInterceptor</text>
</g>
<!-- SessionLoggerInterceptor&#45;&gt;IssuerModule -->
<g id="edge12" class="edge">
<title>SessionLoggerInterceptor&#45;&gt;IssuerModule</title>
<path fill="none" stroke="black" d="M347,-122.28C347,-143.32 347,-175 347,-175 347,-175 1036.33,-175 1036.33,-175"/>
<polygon fill="black" stroke="black" points="1036.33,-178.5 1046.33,-175 1036.33,-171.5 1036.33,-178.5"/>
</g>
<!-- SessionLoggerService -->
<g id="node14" class="node">
<title>SessionLoggerService</title>
<ellipse fill="#fdb462" stroke="black" cx="121" cy="-104" rx="97.27" ry="18"/>
<text text-anchor="middle" x="121" y="-99.8" font-family="Times,serif" font-size="14.00">SessionLoggerService</text>
</g>
<!-- SessionLoggerService&#45;&gt;IssuerModule -->
<g id="edge13" class="edge">
<title>SessionLoggerService&#45;&gt;IssuerModule</title>
<path fill="none" stroke="black" d="M121,-122.25C121,-145.02 121,-181 121,-181 121,-181 1036.45,-181 1036.45,-181"/>
<polygon fill="black" stroke="black" points="1036.45,-184.5 1046.45,-181 1036.45,-177.5 1036.45,-184.5"/>
</g>
</g>
</svg>
