<?xml version="1.0" encoding="UTF-8" standalone="no"?>
<!DOCTYPE svg PUBLIC "-//W3C//DTD SVG 1.1//EN"
 "http://www.w3.org/Graphics/SVG/1.1/DTD/svg11.dtd">
<!-- Generated by graphviz version 2.47.0 (20210316.0004)
 -->
<!-- Title: dependencies Pages: 1 -->
<svg width="504pt" height="284pt"
 viewBox="0.00 0.00 504.00 284.00" xmlns="http://www.w3.org/2000/svg" xmlns:xlink="http://www.w3.org/1999/xlink">
<g id="graph0" class="graph" transform="scale(1 1) rotate(0) translate(4 280)">
<title>dependencies</title>
<polygon fill="white" stroke="transparent" points="-4,4 -4,-280 500,-280 500,4 -4,4"/>
<text text-anchor="start" x="227.01" y="-42.4" font-family="Times-12" font-weight="bold" font-size="14.00">Legend</text>
<polygon fill="#ffffb3" stroke="transparent" points="14,-10 14,-30 34,-30 34,-10 14,-10"/>
<text text-anchor="start" x="37.63" y="-15.4" font-family="Times-12" font-size="14.00"> &#160;Declarations</text>
<polygon fill="#8dd3c7" stroke="transparent" points="127,-10 127,-30 147,-30 147,-10 127,-10"/>
<text text-anchor="start" x="150.73" y="-15.4" font-family="Times-12" font-size="14.00"> &#160;Module</text>
<polygon fill="#80b1d3" stroke="transparent" points="213,-10 213,-30 233,-30 233,-10 213,-10"/>
<text text-anchor="start" x="236.78" y="-15.4" font-family="Times-12" font-size="14.00"> &#160;Bootstrap</text>
<polygon fill="#fdb462" stroke="transparent" points="310,-10 310,-30 330,-30 330,-10 310,-10"/>
<text text-anchor="start" x="333.67" y="-15.4" font-family="Times-12" font-size="14.00"> &#160;Providers</text>
<polygon fill="#fb8072" stroke="transparent" points="406,-10 406,-30 426,-30 426,-10 406,-10"/>
<text text-anchor="start" x="429.73" y="-15.4" font-family="Times-12" font-size="14.00"> &#160;Exports</text>
<g id="clust1" class="cluster">
<title>cluster_CoreModule</title>
<polygon fill="none" stroke="black" stroke-dasharray="1,5" points="89,-70 89,-268 407,-268 407,-70 89,-70"/>
</g>
<g id="clust3" class="cluster">
<title>cluster_CoreModule_imports</title>
<polygon fill="none" stroke="black" points="287,-78 287,-130 399,-130 399,-78 287,-78"/>
</g>
<g id="clust6" class="cluster">
<title>cluster_CoreModule_providers</title>
<polygon fill="none" stroke="black" points="97,-78 97,-130 279,-130 279,-78 97,-78"/>
</g>
<g id="clust4" class="cluster">
<title>cluster_CoreModule_exports</title>
<polygon fill="none" stroke="black" points="206,-208 206,-260 322,-260 322,-208 206,-208"/>
</g>
<!-- HealthModule -->
<g id="node1" class="node">
<title>HealthModule</title>
<polygon fill="#8dd3c7" stroke="black" points="391.37,-122 388.37,-126 367.37,-126 364.37,-122 294.63,-122 294.63,-86 391.37,-86 391.37,-122"/>
<text text-anchor="middle" x="343" y="-99.8" font-family="Times,serif" font-size="14.00">HealthModule</text>
</g>
<!-- CoreModule -->
<g id="node2" class="node">
<title>CoreModule</title>
<polygon fill="#8dd3c7" stroke="black" points="307.26,-187 304.26,-191 283.26,-191 280.26,-187 220.74,-187 220.74,-151 307.26,-151 307.26,-187"/>
<text text-anchor="middle" x="264" y="-164.8" font-family="Times,serif" font-size="14.00">CoreModule</text>
</g>
<!-- HealthModule&#45;&gt;CoreModule -->
<g id="edge1" class="edge">
<title>HealthModule&#45;&gt;CoreModule</title>
<path fill="none" stroke="black" d="M300.97,-122.11C300.97,-122.11 300.97,-140.99 300.97,-140.99"/>
<polygon fill="black" stroke="black" points="297.47,-140.99 300.97,-150.99 304.47,-140.99 297.47,-140.99"/>
</g>
<!-- HealthModule  -->
<g id="node3" class="node">
<title>HealthModule </title>
<polygon fill="#fb8072" stroke="black" points="314.37,-252 213.63,-252 213.63,-216 314.37,-216 314.37,-252"/>
<text text-anchor="middle" x="264" y="-229.8" font-family="Times,serif" font-size="14.00">HealthModule </text>
</g>
<!-- CoreModule&#45;&gt;HealthModule  -->
<g id="edge2" class="edge">
<title>CoreModule&#45;&gt;HealthModule </title>
<path fill="none" stroke="black" stroke-dasharray="5,2" d="M264,-187.11C264,-187.11 264,-205.99 264,-205.99"/>
<polygon fill="black" stroke="black" points="260.5,-205.99 264,-215.99 267.5,-205.99 260.5,-205.99"/>
</g>
<!-- TraceIdInterceptor -->
<g id="node4" class="node">
<title>TraceIdInterceptor</title>
<ellipse fill="#fdb462" stroke="black" cx="188" cy="-104" rx="83.32" ry="18"/>
<text text-anchor="middle" x="188" y="-99.8" font-family="Times,serif" font-size="14.00">TraceIdInterceptor</text>
</g>
<!-- TraceIdInterceptor&#45;&gt;CoreModule -->
<g id="edge3" class="edge">
<title>TraceIdInterceptor&#45;&gt;CoreModule</title>
<path fill="none" stroke="black" d="M246.02,-117.15C246.02,-117.15 246.02,-140.69 246.02,-140.69"/>
<polygon fill="black" stroke="black" points="242.52,-140.69 246.02,-150.69 249.52,-140.69 242.52,-140.69"/>
</g>
</g>
</svg>
