<?xml version="1.0" encoding="UTF-8" standalone="no"?>
<!DOCTYPE svg PUBLIC "-//W3C//DTD SVG 1.1//EN"
 "http://www.w3.org/Graphics/SVG/1.1/DTD/svg11.dtd">
<!-- Generated by graphviz version 2.47.0 (20210316.0004)
 -->
<!-- Title: dependencies Pages: 1 -->
<svg width="504pt" height="284pt"
 viewBox="0.00 0.00 504.00 284.00" xmlns="http://www.w3.org/2000/svg" xmlns:xlink="http://www.w3.org/1999/xlink">
<g id="graph0" class="graph" transform="scale(1 1) rotate(0) translate(4 280)">
<title>dependencies</title>
<polygon fill="white" stroke="transparent" points="-4,4 -4,-280 500,-280 500,4 -4,4"/>
<text text-anchor="start" x="227.01" y="-42.4" font-family="Times-12" font-weight="bold" font-size="14.00">Legend</text>
<polygon fill="#ffffb3" stroke="transparent" points="14,-10 14,-30 34,-30 34,-10 14,-10"/>
<text text-anchor="start" x="37.63" y="-15.4" font-family="Times-12" font-size="14.00"> &#160;Declarations</text>
<polygon fill="#8dd3c7" stroke="transparent" points="127,-10 127,-30 147,-30 147,-10 127,-10"/>
<text text-anchor="start" x="150.73" y="-15.4" font-family="Times-12" font-size="14.00"> &#160;Module</text>
<polygon fill="#80b1d3" stroke="transparent" points="213,-10 213,-30 233,-30 233,-10 213,-10"/>
<text text-anchor="start" x="236.78" y="-15.4" font-family="Times-12" font-size="14.00"> &#160;Bootstrap</text>
<polygon fill="#fdb462" stroke="transparent" points="310,-10 310,-30 330,-30 330,-10 310,-10"/>
<text text-anchor="start" x="333.67" y="-15.4" font-family="Times-12" font-size="14.00"> &#160;Providers</text>
<polygon fill="#fb8072" stroke="transparent" points="406,-10 406,-30 426,-30 426,-10 406,-10"/>
<text text-anchor="start" x="429.73" y="-15.4" font-family="Times-12" font-size="14.00"> &#160;Exports</text>
<g id="clust1" class="cluster">
<title>cluster_CoreModule</title>
<polygon fill="none" stroke="black" stroke-dasharray="1,5" points="89,-70 89,-268 407,-268 407,-70 89,-70"/>
</g>
<g id="clust6" class="cluster">
<title>cluster_CoreModule_providers</title>
<polygon fill="none" stroke="black" points="217,-78 217,-130 399,-130 399,-78 217,-78"/>
</g>
<g id="clust4" class="cluster">
<title>cluster_CoreModule_exports</title>
<polygon fill="none" stroke="black" points="173,-208 173,-260 289,-260 289,-208 173,-208"/>
</g>
<g id="clust3" class="cluster">
<title>cluster_CoreModule_imports</title>
<polygon fill="none" stroke="black" points="97,-78 97,-130 209,-130 209,-78 97,-78"/>
</g>
<!-- HealthModule -->
<g id="node1" class="node">
<title>HealthModule</title>
<polygon fill="#8dd3c7" stroke="black" points="201.37,-122 198.37,-126 177.37,-126 174.37,-122 104.63,-122 104.63,-86 201.37,-86 201.37,-122"/>
<text text-anchor="middle" x="153" y="-99.8" font-family="Times,serif" font-size="14.00">HealthModule</text>
</g>
<!-- CoreModule -->
<g id="node2" class="node">
<title>CoreModule</title>
<polygon fill="#8dd3c7" stroke="black" points="274.26,-187 271.26,-191 250.26,-191 247.26,-187 187.74,-187 187.74,-151 274.26,-151 274.26,-187"/>
<text text-anchor="middle" x="231" y="-164.8" font-family="Times,serif" font-size="14.00">CoreModule</text>
</g>
<!-- HealthModule&#45;&gt;CoreModule -->
<g id="edge1" class="edge">
<title>HealthModule&#45;&gt;CoreModule</title>
<path fill="none" stroke="black" d="M194.53,-122.11C194.53,-122.11 194.53,-140.99 194.53,-140.99"/>
<polygon fill="black" stroke="black" points="191.03,-140.99 194.53,-150.99 198.03,-140.99 191.03,-140.99"/>
</g>
<!-- HealthModule  -->
<g id="node3" class="node">
<title>HealthModule </title>
<polygon fill="#fb8072" stroke="black" points="281.37,-252 180.63,-252 180.63,-216 281.37,-216 281.37,-252"/>
<text text-anchor="middle" x="231" y="-229.8" font-family="Times,serif" font-size="14.00">HealthModule </text>
</g>
<!-- CoreModule&#45;&gt;HealthModule  -->
<g id="edge2" class="edge">
<title>CoreModule&#45;&gt;HealthModule </title>
<path fill="none" stroke="black" stroke-dasharray="5,2" d="M231,-187.11C231,-187.11 231,-205.99 231,-205.99"/>
<polygon fill="black" stroke="black" points="227.5,-205.99 231,-215.99 234.5,-205.99 227.5,-205.99"/>
</g>
<!-- TraceIdInterceptor -->
<g id="node4" class="node">
<title>TraceIdInterceptor</title>
<ellipse fill="#fdb462" stroke="black" cx="308" cy="-104" rx="83.32" ry="18"/>
<text text-anchor="middle" x="308" y="-99.8" font-family="Times,serif" font-size="14.00">TraceIdInterceptor</text>
</g>
<!-- TraceIdInterceptor&#45;&gt;CoreModule -->
<g id="edge3" class="edge">
<title>TraceIdInterceptor&#45;&gt;CoreModule</title>
<path fill="none" stroke="black" d="M249.48,-116.84C249.48,-116.84 249.48,-140.52 249.48,-140.52"/>
<polygon fill="black" stroke="black" points="245.98,-140.52 249.48,-150.52 252.98,-140.52 245.98,-140.52"/>
</g>
</g>
</svg>
