<?xml version="1.0" encoding="UTF-8" standalone="no"?>
<!DOCTYPE svg PUBLIC "-//W3C//DTD SVG 1.1//EN"
 "http://www.w3.org/Graphics/SVG/1.1/DTD/svg11.dtd">
<!-- Generated by graphviz version 2.47.0 (20210316.0004)
 -->
<!-- Title: dependencies Pages: 1 -->
<svg width="564pt" height="284pt"
 viewBox="0.00 0.00 564.00 284.00" xmlns="http://www.w3.org/2000/svg" xmlns:xlink="http://www.w3.org/1999/xlink">
<g id="graph0" class="graph" transform="scale(1 1) rotate(0) translate(4 280)">
<title>dependencies</title>
<polygon fill="white" stroke="transparent" points="-4,4 -4,-280 560,-280 560,4 -4,4"/>
<text text-anchor="start" x="257.01" y="-42.4" font-family="Times-12" font-weight="bold" font-size="14.00">Legend</text>
<polygon fill="#ffffb3" stroke="transparent" points="44,-10 44,-30 64,-30 64,-10 44,-10"/>
<text text-anchor="start" x="67.63" y="-15.4" font-family="Times-12" font-size="14.00"> &#160;Declarations</text>
<polygon fill="#8dd3c7" stroke="transparent" points="157,-10 157,-30 177,-30 177,-10 157,-10"/>
<text text-anchor="start" x="180.73" y="-15.4" font-family="Times-12" font-size="14.00"> &#160;Module</text>
<polygon fill="#80b1d3" stroke="transparent" points="243,-10 243,-30 263,-30 263,-10 243,-10"/>
<text text-anchor="start" x="266.78" y="-15.4" font-family="Times-12" font-size="14.00"> &#160;Bootstrap</text>
<polygon fill="#fdb462" stroke="transparent" points="340,-10 340,-30 360,-30 360,-10 340,-10"/>
<text text-anchor="start" x="363.67" y="-15.4" font-family="Times-12" font-size="14.00"> &#160;Providers</text>
<polygon fill="#fb8072" stroke="transparent" points="436,-10 436,-30 456,-30 456,-10 436,-10"/>
<text text-anchor="start" x="459.73" y="-15.4" font-family="Times-12" font-size="14.00"> &#160;Exports</text>
<g id="clust1" class="cluster">
<title>cluster_StatusListModule</title>
<polygon fill="none" stroke="black" stroke-dasharray="1,5" points="8,-70 8,-268 548,-268 548,-70 8,-70"/>
</g>
<g id="clust3" class="cluster">
<title>cluster_StatusListModule_imports</title>
<polygon fill="none" stroke="black" points="426,-78 426,-130 540,-130 540,-78 426,-78"/>
</g>
<g id="clust4" class="cluster">
<title>cluster_StatusListModule_exports</title>
<polygon fill="none" stroke="black" points="158,-208 158,-260 466,-260 466,-208 158,-208"/>
</g>
<g id="clust6" class="cluster">
<title>cluster_StatusListModule_providers</title>
<polygon fill="none" stroke="black" points="16,-78 16,-130 418,-130 418,-78 16,-78"/>
</g>
<!-- CryptoModule -->
<g id="node1" class="node">
<title>CryptoModule</title>
<polygon fill="#8dd3c7" stroke="black" points="532.44,-122 529.44,-126 508.44,-126 505.44,-122 433.56,-122 433.56,-86 532.44,-86 532.44,-122"/>
<text text-anchor="middle" x="483" y="-99.8" font-family="Times,serif" font-size="14.00">CryptoModule</text>
</g>
<!-- StatusListModule -->
<g id="node2" class="node">
<title>StatusListModule</title>
<polygon fill="#8dd3c7" stroke="black" points="362.55,-187 359.55,-191 338.55,-191 335.55,-187 247.45,-187 247.45,-151 362.55,-151 362.55,-187"/>
<text text-anchor="middle" x="305" y="-164.8" font-family="Times,serif" font-size="14.00">StatusListModule</text>
</g>
<!-- CryptoModule&#45;&gt;StatusListModule -->
<g id="edge1" class="edge">
<title>CryptoModule&#45;&gt;StatusListModule</title>
<path fill="none" stroke="black" d="M445.98,-122.11C445.98,-141.34 445.98,-169 445.98,-169 445.98,-169 372.75,-169 372.75,-169"/>
<polygon fill="black" stroke="black" points="372.75,-165.5 362.75,-169 372.75,-172.5 372.75,-165.5"/>
</g>
<!-- StatusListConfigService  -->
<g id="node3" class="node">
<title>StatusListConfigService </title>
<polygon fill="#fb8072" stroke="black" points="458.37,-252 301.63,-252 301.63,-216 458.37,-216 458.37,-252"/>
<text text-anchor="middle" x="380" y="-229.8" font-family="Times,serif" font-size="14.00">StatusListConfigService </text>
</g>
<!-- StatusListModule&#45;&gt;StatusListConfigService  -->
<g id="edge2" class="edge">
<title>StatusListModule&#45;&gt;StatusListConfigService </title>
<path fill="none" stroke="black" stroke-dasharray="5,2" d="M332.3,-187.11C332.3,-187.11 332.3,-205.99 332.3,-205.99"/>
<polygon fill="black" stroke="black" points="328.8,-205.99 332.3,-215.99 335.8,-205.99 328.8,-205.99"/>
</g>
<!-- StatusListService  -->
<g id="node4" class="node">
<title>StatusListService </title>
<polygon fill="#fb8072" stroke="black" points="283.98,-252 166.02,-252 166.02,-216 283.98,-216 283.98,-252"/>
<text text-anchor="middle" x="225" y="-229.8" font-family="Times,serif" font-size="14.00">StatusListService </text>
</g>
<!-- StatusListModule&#45;&gt;StatusListService  -->
<g id="edge3" class="edge">
<title>StatusListModule&#45;&gt;StatusListService </title>
<path fill="none" stroke="black" stroke-dasharray="5,2" d="M265.48,-187.11C265.48,-187.11 265.48,-205.99 265.48,-205.99"/>
<polygon fill="black" stroke="black" points="261.98,-205.99 265.48,-215.99 268.98,-205.99 261.98,-205.99"/>
</g>
<!-- StatusListConfigService -->
<g id="node5" class="node">
<title>StatusListConfigService</title>
<ellipse fill="#fdb462" stroke="black" cx="305" cy="-104" rx="105.39" ry="18"/>
<text text-anchor="middle" x="305" y="-99.8" font-family="Times,serif" font-size="14.00">StatusListConfigService</text>
</g>
<!-- StatusListConfigService&#45;&gt;StatusListModule -->
<g id="edge4" class="edge">
<title>StatusListConfigService&#45;&gt;StatusListModule</title>
<path fill="none" stroke="black" d="M305,-122.11C305,-122.11 305,-140.99 305,-140.99"/>
<polygon fill="black" stroke="black" points="301.5,-140.99 305,-150.99 308.5,-140.99 301.5,-140.99"/>
</g>
<!-- StatusListService -->
<g id="node6" class="node">
<title>StatusListService</title>
<ellipse fill="#fdb462" stroke="black" cx="103" cy="-104" rx="78.74" ry="18"/>
<text text-anchor="middle" x="103" y="-99.8" font-family="Times,serif" font-size="14.00">StatusListService</text>
</g>
<!-- StatusListService&#45;&gt;StatusListModule -->
<g id="edge5" class="edge">
<title>StatusListService&#45;&gt;StatusListModule</title>
<path fill="none" stroke="black" d="M173.94,-111.97C173.94,-129.33 173.94,-169 173.94,-169 173.94,-169 237.13,-169 237.13,-169"/>
<polygon fill="black" stroke="black" points="237.13,-172.5 247.13,-169 237.13,-165.5 237.13,-172.5"/>
</g>
</g>
</svg>
