<?xml version="1.0" encoding="UTF-8" standalone="no"?>
<!DOCTYPE svg PUBLIC "-//W3C//DTD SVG 1.1//EN"
 "http://www.w3.org/Graphics/SVG/1.1/DTD/svg11.dtd">
<!-- Generated by graphviz version 2.47.0 (20210316.0004)
 -->
<!-- Title: dependencies Pages: 1 -->
<svg width="696pt" height="284pt"
 viewBox="0.00 0.00 696.00 284.00" xmlns="http://www.w3.org/2000/svg" xmlns:xlink="http://www.w3.org/1999/xlink">
<g id="graph0" class="graph" transform="scale(1 1) rotate(0) translate(4 280)">
<title>dependencies</title>
<polygon fill="white" stroke="transparent" points="-4,4 -4,-280 692,-280 692,4 -4,4"/>
<text text-anchor="start" x="323.01" y="-42.4" font-family="Times-12" font-weight="bold" font-size="14.00">Legend</text>
<polygon fill="#ffffb3" stroke="transparent" points="110,-10 110,-30 130,-30 130,-10 110,-10"/>
<text text-anchor="start" x="133.63" y="-15.4" font-family="Times-12" font-size="14.00"> &#160;Declarations</text>
<polygon fill="#8dd3c7" stroke="transparent" points="223,-10 223,-30 243,-30 243,-10 223,-10"/>
<text text-anchor="start" x="246.73" y="-15.4" font-family="Times-12" font-size="14.00"> &#160;Module</text>
<polygon fill="#80b1d3" stroke="transparent" points="309,-10 309,-30 329,-30 329,-10 309,-10"/>
<text text-anchor="start" x="332.78" y="-15.4" font-family="Times-12" font-size="14.00"> &#160;Bootstrap</text>
<polygon fill="#fdb462" stroke="transparent" points="406,-10 406,-30 426,-30 426,-10 406,-10"/>
<text text-anchor="start" x="429.67" y="-15.4" font-family="Times-12" font-size="14.00"> &#160;Providers</text>
<polygon fill="#fb8072" stroke="transparent" points="502,-10 502,-30 522,-30 522,-10 502,-10"/>
<text text-anchor="start" x="525.73" y="-15.4" font-family="Times-12" font-size="14.00"> &#160;Exports</text>
<g id="clust1" class="cluster">
<title>cluster_StatusListModule</title>
<polygon fill="none" stroke="black" stroke-dasharray="1,5" points="8,-70 8,-268 680,-268 680,-70 8,-70"/>
</g>
<g id="clust3" class="cluster">
<title>cluster_StatusListModule_imports</title>
<polygon fill="none" stroke="black" points="426,-78 426,-130 672,-130 672,-78 426,-78"/>
</g>
<g id="clust4" class="cluster">
<title>cluster_StatusListModule_exports</title>
<polygon fill="none" stroke="black" points="224,-208 224,-260 532,-260 532,-208 224,-208"/>
</g>
<g id="clust6" class="cluster">
<title>cluster_StatusListModule_providers</title>
<polygon fill="none" stroke="black" points="16,-78 16,-130 418,-130 418,-78 16,-78"/>
</g>
<!-- AuditLogModule -->
<g id="node1" class="node">
<title>AuditLogModule</title>
<polygon fill="#8dd3c7" stroke="black" points="663.99,-122 660.99,-126 639.99,-126 636.99,-122 550.01,-122 550.01,-86 663.99,-86 663.99,-122"/>
<text text-anchor="middle" x="607" y="-99.8" font-family="Times,serif" font-size="14.00">AuditLogModule</text>
</g>
<!-- StatusListModule -->
<g id="node3" class="node">
<title>StatusListModule</title>
<polygon fill="#8dd3c7" stroke="black" points="425.55,-187 422.55,-191 401.55,-191 398.55,-187 310.45,-187 310.45,-151 425.55,-151 425.55,-187"/>
<text text-anchor="middle" x="368" y="-164.8" font-family="Times,serif" font-size="14.00">StatusListModule</text>
</g>
<!-- AuditLogModule&#45;&gt;StatusListModule -->
<g id="edge1" class="edge">
<title>AuditLogModule&#45;&gt;StatusListModule</title>
<path fill="none" stroke="black" d="M607,-122.11C607,-141.34 607,-169 607,-169 607,-169 435.86,-169 435.86,-169"/>
<polygon fill="black" stroke="black" points="435.86,-165.5 425.86,-169 435.86,-172.5 435.86,-165.5"/>
</g>
<!-- CryptoModule -->
<g id="node2" class="node">
<title>CryptoModule</title>
<polygon fill="#8dd3c7" stroke="black" points="532.44,-122 529.44,-126 508.44,-126 505.44,-122 433.56,-122 433.56,-86 532.44,-86 532.44,-122"/>
<text text-anchor="middle" x="483" y="-99.8" font-family="Times,serif" font-size="14.00">CryptoModule</text>
</g>
<!-- CryptoModule&#45;&gt;StatusListModule -->
<g id="edge2" class="edge">
<title>CryptoModule&#45;&gt;StatusListModule</title>
<path fill="none" stroke="black" d="M433.49,-104C424.61,-104 418.11,-104 418.11,-104 418.11,-104 418.11,-140.89 418.11,-140.89"/>
<polygon fill="black" stroke="black" points="414.61,-140.89 418.11,-150.89 421.61,-140.89 414.61,-140.89"/>
</g>
<!-- StatusListConfigService  -->
<g id="node4" class="node">
<title>StatusListConfigService </title>
<polygon fill="#fb8072" stroke="black" points="524.37,-252 367.63,-252 367.63,-216 524.37,-216 524.37,-252"/>
<text text-anchor="middle" x="446" y="-229.8" font-family="Times,serif" font-size="14.00">StatusListConfigService </text>
</g>
<!-- StatusListModule&#45;&gt;StatusListConfigService  -->
<g id="edge3" class="edge">
<title>StatusListModule&#45;&gt;StatusListConfigService </title>
<path fill="none" stroke="black" stroke-dasharray="5,2" d="M396.8,-187.11C396.8,-187.11 396.8,-205.99 396.8,-205.99"/>
<polygon fill="black" stroke="black" points="393.3,-205.99 396.8,-215.99 400.3,-205.99 393.3,-205.99"/>
</g>
<!-- StatusListService  -->
<g id="node5" class="node">
<title>StatusListService </title>
<polygon fill="#fb8072" stroke="black" points="349.98,-252 232.02,-252 232.02,-216 349.98,-216 349.98,-252"/>
<text text-anchor="middle" x="291" y="-229.8" font-family="Times,serif" font-size="14.00">StatusListService </text>
</g>
<!-- StatusListModule&#45;&gt;StatusListService  -->
<g id="edge4" class="edge">
<title>StatusListModule&#45;&gt;StatusListService </title>
<path fill="none" stroke="black" stroke-dasharray="5,2" d="M329.98,-187.11C329.98,-187.11 329.98,-205.99 329.98,-205.99"/>
<polygon fill="black" stroke="black" points="326.48,-205.99 329.98,-215.99 333.48,-205.99 326.48,-205.99"/>
</g>
<!-- StatusListConfigService -->
<g id="node6" class="node">
<title>StatusListConfigService</title>
<ellipse fill="#fdb462" stroke="black" cx="305" cy="-104" rx="105.39" ry="18"/>
<text text-anchor="middle" x="305" y="-99.8" font-family="Times,serif" font-size="14.00">StatusListConfigService</text>
</g>
<!-- StatusListConfigService&#45;&gt;StatusListModule -->
<g id="edge5" class="edge">
<title>StatusListConfigService&#45;&gt;StatusListModule</title>
<path fill="none" stroke="black" d="M360.33,-119.4C360.33,-119.4 360.33,-140.94 360.33,-140.94"/>
<polygon fill="black" stroke="black" points="356.83,-140.94 360.33,-150.94 363.83,-140.94 356.83,-140.94"/>
</g>
<!-- StatusListService -->
<g id="node7" class="node">
<title>StatusListService</title>
<ellipse fill="#fdb462" stroke="black" cx="103" cy="-104" rx="78.74" ry="18"/>
<text text-anchor="middle" x="103" y="-99.8" font-family="Times,serif" font-size="14.00">StatusListService</text>
</g>
<!-- StatusListService&#45;&gt;StatusListModule -->
<g id="edge6" class="edge">
<title>StatusListService&#45;&gt;StatusListModule</title>
<path fill="none" stroke="black" d="M103,-122.11C103,-141.34 103,-169 103,-169 103,-169 300.17,-169 300.17,-169"/>
<polygon fill="black" stroke="black" points="300.17,-172.5 310.17,-169 300.17,-165.5 300.17,-172.5"/>
</g>
</g>
</svg>
