<?xml version="1.0" encoding="UTF-8" standalone="no"?>
<!DOCTYPE svg PUBLIC "-//W3C//DTD SVG 1.1//EN"
 "http://www.w3.org/Graphics/SVG/1.1/DTD/svg11.dtd">
<!-- Generated by graphviz version 2.47.0 (20210316.0004)
 -->
<!-- Title: dependencies Pages: 1 -->
<svg width="1344pt" height="284pt"
 viewBox="0.00 0.00 1344.00 284.00" xmlns="http://www.w3.org/2000/svg" xmlns:xlink="http://www.w3.org/1999/xlink">
<g id="graph0" class="graph" transform="scale(1 1) rotate(0) translate(4 280)">
<title>dependencies</title>
<polygon fill="white" stroke="transparent" points="-4,4 -4,-280 1340,-280 1340,4 -4,4"/>
<text text-anchor="start" x="647.01" y="-42.4" font-family="Times-12" font-weight="bold" font-size="14.00">Legend</text>
<polygon fill="#ffffb3" stroke="transparent" points="434,-10 434,-30 454,-30 454,-10 434,-10"/>
<text text-anchor="start" x="457.63" y="-15.4" font-family="Times-12" font-size="14.00"> &#160;Declarations</text>
<polygon fill="#8dd3c7" stroke="transparent" points="547,-10 547,-30 567,-30 567,-10 547,-10"/>
<text text-anchor="start" x="570.73" y="-15.4" font-family="Times-12" font-size="14.00"> &#160;Module</text>
<polygon fill="#80b1d3" stroke="transparent" points="633,-10 633,-30 653,-30 653,-10 633,-10"/>
<text text-anchor="start" x="656.78" y="-15.4" font-family="Times-12" font-size="14.00"> &#160;Bootstrap</text>
<polygon fill="#fdb462" stroke="transparent" points="730,-10 730,-30 750,-30 750,-10 730,-10"/>
<text text-anchor="start" x="753.67" y="-15.4" font-family="Times-12" font-size="14.00"> &#160;Providers</text>
<polygon fill="#fb8072" stroke="transparent" points="826,-10 826,-30 846,-30 846,-10 826,-10"/>
<text text-anchor="start" x="849.73" y="-15.4" font-family="Times-12" font-size="14.00"> &#160;Exports</text>
<g id="clust1" class="cluster">
<title>cluster_Oid4vpModule</title>
<polygon fill="none" stroke="black" stroke-dasharray="1,5" points="8,-70 8,-268 1328,-268 1328,-70 8,-70"/>
</g>
<g id="clust6" class="cluster">
<title>cluster_Oid4vpModule_providers</title>
<polygon fill="none" stroke="black" points="540,-78 540,-130 1320,-130 1320,-78 540,-78"/>
</g>
<g id="clust4" class="cluster">
<title>cluster_Oid4vpModule_exports</title>
<polygon fill="none" stroke="black" points="490,-208 490,-260 610,-260 610,-208 490,-208"/>
</g>
<g id="clust3" class="cluster">
<title>cluster_Oid4vpModule_imports</title>
<polygon fill="none" stroke="black" points="16,-78 16,-130 532,-130 532,-78 16,-78"/>
</g>
<!-- CryptoModule -->
<g id="node1" class="node">
<title>CryptoModule</title>
<polygon fill="#8dd3c7" stroke="black" points="524.44,-122 521.44,-126 500.44,-126 497.44,-122 425.56,-122 425.56,-86 524.44,-86 524.44,-122"/>
<text text-anchor="middle" x="475" y="-99.8" font-family="Times,serif" font-size="14.00">CryptoModule</text>
</g>
<!-- Oid4vpModule -->
<g id="node5" class="node">
<title>Oid4vpModule</title>
<polygon fill="#8dd3c7" stroke="black" points="600.55,-187 597.55,-191 576.55,-191 573.55,-187 499.45,-187 499.45,-151 600.55,-151 600.55,-187"/>
<text text-anchor="middle" x="550" y="-164.8" font-family="Times,serif" font-size="14.00">Oid4vpModule</text>
</g>
<!-- CryptoModule&#45;&gt;Oid4vpModule -->
<g id="edge1" class="edge">
<title>CryptoModule&#45;&gt;Oid4vpModule</title>
<path fill="none" stroke="black" d="M511.72,-122.11C511.72,-122.11 511.72,-140.99 511.72,-140.99"/>
<polygon fill="black" stroke="black" points="508.22,-140.99 511.72,-150.99 515.22,-140.99 508.22,-140.99"/>
</g>
<!-- PresentationsModule -->
<g id="node2" class="node">
<title>PresentationsModule</title>
<polygon fill="#8dd3c7" stroke="black" points="408.2,-122 405.2,-126 384.2,-126 381.2,-122 273.8,-122 273.8,-86 408.2,-86 408.2,-122"/>
<text text-anchor="middle" x="341" y="-99.8" font-family="Times,serif" font-size="14.00">PresentationsModule</text>
</g>
<!-- PresentationsModule&#45;&gt;Oid4vpModule -->
<g id="edge2" class="edge">
<title>PresentationsModule&#45;&gt;Oid4vpModule</title>
<path fill="none" stroke="black" d="M341,-122.03C341,-138.4 341,-160 341,-160 341,-160 489.41,-160 489.41,-160"/>
<polygon fill="black" stroke="black" points="489.41,-163.5 499.41,-160 489.41,-156.5 489.41,-163.5"/>
</g>
<!-- RegistrarModule -->
<g id="node3" class="node">
<title>RegistrarModule</title>
<polygon fill="#8dd3c7" stroke="black" points="255.36,-122 252.36,-126 231.36,-126 228.36,-122 144.64,-122 144.64,-86 255.36,-86 255.36,-122"/>
<text text-anchor="middle" x="200" y="-99.8" font-family="Times,serif" font-size="14.00">RegistrarModule</text>
</g>
<!-- RegistrarModule&#45;&gt;Oid4vpModule -->
<g id="edge3" class="edge">
<title>RegistrarModule&#45;&gt;Oid4vpModule</title>
<path fill="none" stroke="black" d="M200,-122.11C200,-141.34 200,-169 200,-169 200,-169 489.11,-169 489.11,-169"/>
<polygon fill="black" stroke="black" points="489.11,-172.5 499.11,-169 489.11,-165.5 489.11,-172.5"/>
</g>
<!-- SessionModule -->
<g id="node4" class="node">
<title>SessionModule</title>
<polygon fill="#8dd3c7" stroke="black" points="126.33,-122 123.33,-126 102.33,-126 99.33,-122 23.67,-122 23.67,-86 126.33,-86 126.33,-122"/>
<text text-anchor="middle" x="75" y="-99.8" font-family="Times,serif" font-size="14.00">SessionModule</text>
</g>
<!-- SessionModule&#45;&gt;Oid4vpModule -->
<g id="edge4" class="edge">
<title>SessionModule&#45;&gt;Oid4vpModule</title>
<path fill="none" stroke="black" d="M75,-122.29C75,-144.21 75,-178 75,-178 75,-178 489.17,-178 489.17,-178"/>
<polygon fill="black" stroke="black" points="489.17,-181.5 499.17,-178 489.17,-174.5 489.17,-181.5"/>
</g>
<!-- Oid4vpService  -->
<g id="node6" class="node">
<title>Oid4vpService </title>
<polygon fill="#fb8072" stroke="black" points="601.98,-252 498.02,-252 498.02,-216 601.98,-216 601.98,-252"/>
<text text-anchor="middle" x="550" y="-229.8" font-family="Times,serif" font-size="14.00">Oid4vpService </text>
</g>
<!-- Oid4vpModule&#45;&gt;Oid4vpService  -->
<g id="edge5" class="edge">
<title>Oid4vpModule&#45;&gt;Oid4vpService </title>
<path fill="none" stroke="black" stroke-dasharray="5,2" d="M550,-187.11C550,-187.11 550,-205.99 550,-205.99"/>
<polygon fill="black" stroke="black" points="546.5,-205.99 550,-215.99 553.5,-205.99 546.5,-205.99"/>
</g>
<!-- Oid4vpService -->
<g id="node7" class="node">
<title>Oid4vpService</title>
<ellipse fill="#fdb462" stroke="black" cx="1243" cy="-104" rx="68.92" ry="18"/>
<text text-anchor="middle" x="1243" y="-99.8" font-family="Times,serif" font-size="14.00">Oid4vpService</text>
</g>
<!-- Oid4vpService&#45;&gt;Oid4vpModule -->
<g id="edge6" class="edge">
<title>Oid4vpService&#45;&gt;Oid4vpModule</title>
<path fill="none" stroke="black" d="M1243,-122.29C1243,-144.21 1243,-178 1243,-178 1243,-178 610.68,-178 610.68,-178"/>
<polygon fill="black" stroke="black" points="610.68,-174.5 600.68,-178 610.68,-181.5 610.68,-174.5"/>
</g>
<!-- SessionLoggerInterceptor -->
<g id="node8" class="node">
<title>SessionLoggerInterceptor</title>
<ellipse fill="#fdb462" stroke="black" cx="1045" cy="-104" rx="110.57" ry="18"/>
<text text-anchor="middle" x="1045" y="-99.8" font-family="Times,serif" font-size="14.00">SessionLoggerInterceptor</text>
</g>
<!-- SessionLoggerInterceptor&#45;&gt;Oid4vpModule -->
<g id="edge7" class="edge">
<title>SessionLoggerInterceptor&#45;&gt;Oid4vpModule</title>
<path fill="none" stroke="black" d="M1045,-122.11C1045,-141.34 1045,-169 1045,-169 1045,-169 610.65,-169 610.65,-169"/>
<polygon fill="black" stroke="black" points="610.65,-165.5 600.65,-169 610.65,-172.5 610.65,-165.5"/>
</g>
<!-- SessionLoggerService -->
<g id="node9" class="node">
<title>SessionLoggerService</title>
<ellipse fill="#fdb462" stroke="black" cx="819" cy="-104" rx="97.27" ry="18"/>
<text text-anchor="middle" x="819" y="-99.8" font-family="Times,serif" font-size="14.00">SessionLoggerService</text>
</g>
<!-- SessionLoggerService&#45;&gt;Oid4vpModule -->
<g id="edge8" class="edge">
<title>SessionLoggerService&#45;&gt;Oid4vpModule</title>
<path fill="none" stroke="black" d="M819,-122.03C819,-138.4 819,-160 819,-160 819,-160 610.6,-160 610.6,-160"/>
<polygon fill="black" stroke="black" points="610.6,-156.5 600.6,-160 610.6,-163.5 610.6,-156.5"/>
</g>
<!-- WebhookService -->
<g id="node10" class="node">
<title>WebhookService</title>
<ellipse fill="#fdb462" stroke="black" cx="626" cy="-104" rx="77.57" ry="18"/>
<text text-anchor="middle" x="626" y="-99.8" font-family="Times,serif" font-size="14.00">WebhookService</text>
</g>
<!-- WebhookService&#45;&gt;Oid4vpModule -->
<g id="edge9" class="edge">
<title>WebhookService&#45;&gt;Oid4vpModule</title>
<path fill="none" stroke="black" d="M574.62,-117.78C574.62,-117.78 574.62,-140.55 574.62,-140.55"/>
<polygon fill="black" stroke="black" points="571.12,-140.55 574.62,-150.55 578.12,-140.55 571.12,-140.55"/>
</g>
</g>
</svg>
