<?xml version="1.0" encoding="UTF-8" standalone="no"?>
<!DOCTYPE svg PUBLIC "-//W3C//DTD SVG 1.1//EN"
 "http://www.w3.org/Graphics/SVG/1.1/DTD/svg11.dtd">
<!-- Generated by graphviz version 2.47.0 (20210316.0004)
 -->
<!-- Title: dependencies Pages: 1 -->
<svg width="504pt" height="284pt"
 viewBox="0.00 0.00 504.00 284.00" xmlns="http://www.w3.org/2000/svg" xmlns:xlink="http://www.w3.org/1999/xlink">
<g id="graph0" class="graph" transform="scale(1 1) rotate(0) translate(4 280)">
<title>dependencies</title>
<polygon fill="white" stroke="transparent" points="-4,4 -4,-280 500,-280 500,4 -4,4"/>
<text text-anchor="start" x="227.01" y="-42.4" font-family="Times-12" font-weight="bold" font-size="14.00">Legend</text>
<polygon fill="#ffffb3" stroke="transparent" points="14,-10 14,-30 34,-30 34,-10 14,-10"/>
<text text-anchor="start" x="37.63" y="-15.4" font-family="Times-12" font-size="14.00"> &#160;Declarations</text>
<polygon fill="#8dd3c7" stroke="transparent" points="127,-10 127,-30 147,-30 147,-10 127,-10"/>
<text text-anchor="start" x="150.73" y="-15.4" font-family="Times-12" font-size="14.00"> &#160;Module</text>
<polygon fill="#80b1d3" stroke="transparent" points="213,-10 213,-30 233,-30 233,-10 213,-10"/>
<text text-anchor="start" x="236.78" y="-15.4" font-family="Times-12" font-size="14.00"> &#160;Bootstrap</text>
<polygon fill="#fdb462" stroke="transparent" points="310,-10 310,-30 330,-30 330,-10 310,-10"/>
<text text-anchor="start" x="333.67" y="-15.4" font-family="Times-12" font-size="14.00"> &#160;Providers</text>
<polygon fill="#fb8072" stroke="transparent" points="406,-10 406,-30 426,-30 426,-10 406,-10"/>
<text text-anchor="start" x="429.73" y="-15.4" font-family="Times-12" font-size="14.00"> &#160;Exports</text>
<g id="clust1" class="cluster">
<title>cluster_LoggerModule</title>
<polygon fill="none" stroke="black" stroke-dasharray="1,5" points="31,-70 31,-268 465,-268 465,-70 31,-70"/>
</g>
<g id="clust4" class="cluster">
<title>cluster_LoggerModule_exports</title>
<polygon fill="none" stroke="black" points="169,-208 169,-260 329,-260 329,-208 169,-208"/>
</g>
<g id="clust6" class="cluster">
<title>cluster_LoggerModule_providers</title>
<polygon fill="none" stroke="black" points="39,-78 39,-130 457,-130 457,-78 39,-78"/>
</g>
<!-- SessionLoggerService  -->
<g id="node1" class="node">
<title>SessionLoggerService </title>
<polygon fill="#fb8072" stroke="black" points="321.18,-252 176.82,-252 176.82,-216 321.18,-216 321.18,-252"/>
<text text-anchor="middle" x="249" y="-229.8" font-family="Times,serif" font-size="14.00">SessionLoggerService </text>
</g>
<!-- LoggerModule -->
<g id="node2" class="node">
<title>LoggerModule</title>
<polygon fill="#8dd3c7" stroke="black" points="298.98,-187 295.98,-191 274.98,-191 271.98,-187 199.02,-187 199.02,-151 298.98,-151 298.98,-187"/>
<text text-anchor="middle" x="249" y="-164.8" font-family="Times,serif" font-size="14.00">LoggerModule</text>
</g>
<!-- LoggerModule&#45;&gt;SessionLoggerService  -->
<g id="edge1" class="edge">
<title>LoggerModule&#45;&gt;SessionLoggerService </title>
<path fill="none" stroke="black" stroke-dasharray="5,2" d="M249,-187.11C249,-187.11 249,-205.99 249,-205.99"/>
<polygon fill="black" stroke="black" points="245.5,-205.99 249,-215.99 252.5,-205.99 245.5,-205.99"/>
</g>
<!-- LoggerConfigService -->
<g id="node3" class="node">
<title>LoggerConfigService</title>
<ellipse fill="#fdb462" stroke="black" cx="354" cy="-104" rx="94.91" ry="18"/>
<text text-anchor="middle" x="354" y="-99.8" font-family="Times,serif" font-size="14.00">LoggerConfigService</text>
</g>
<!-- LoggerConfigService&#45;&gt;LoggerModule -->
<g id="edge2" class="edge">
<title>LoggerConfigService&#45;&gt;LoggerModule</title>
<path fill="none" stroke="black" d="M279.14,-115.03C279.14,-115.03 279.14,-140.78 279.14,-140.78"/>
<polygon fill="black" stroke="black" points="275.64,-140.78 279.14,-150.78 282.64,-140.78 275.64,-140.78"/>
</g>
<!-- SessionLoggerService -->
<g id="node4" class="node">
<title>SessionLoggerService</title>
<ellipse fill="#fdb462" stroke="black" cx="144" cy="-104" rx="97.27" ry="18"/>
<text text-anchor="middle" x="144" y="-99.8" font-family="Times,serif" font-size="14.00">SessionLoggerService</text>
</g>
<!-- SessionLoggerService&#45;&gt;LoggerModule -->
<g id="edge3" class="edge">
<title>SessionLoggerService&#45;&gt;LoggerModule</title>
<path fill="none" stroke="black" d="M220.2,-115.32C220.2,-115.32 220.2,-140.94 220.2,-140.94"/>
<polygon fill="black" stroke="black" points="216.7,-140.94 220.2,-150.94 223.7,-140.94 216.7,-140.94"/>
</g>
</g>
</svg>
