<?xml version="1.0" encoding="UTF-8" standalone="no"?>
<!DOCTYPE svg PUBLIC "-//W3C//DTD SVG 1.1//EN"
 "http://www.w3.org/Graphics/SVG/1.1/DTD/svg11.dtd">
<!-- Generated by graphviz version 2.47.0 (20210316.0004)
 -->
<!-- Title: dependencies Pages: 1 -->
<svg width="2236pt" height="284pt"
 viewBox="0.00 0.00 2236.00 284.00" xmlns="http://www.w3.org/2000/svg" xmlns:xlink="http://www.w3.org/1999/xlink">
<g id="graph0" class="graph" transform="scale(1 1) rotate(0) translate(4 280)">
<title>dependencies</title>
<polygon fill="white" stroke="transparent" points="-4,4 -4,-280 2232,-280 2232,4 -4,4"/>
<text text-anchor="start" x="1093.01" y="-42.4" font-family="Times-12" font-weight="bold" font-size="14.00">Legend</text>
<polygon fill="#ffffb3" stroke="transparent" points="880,-10 880,-30 900,-30 900,-10 880,-10"/>
<text text-anchor="start" x="903.63" y="-15.4" font-family="Times-12" font-size="14.00"> &#160;Declarations</text>
<polygon fill="#8dd3c7" stroke="transparent" points="993,-10 993,-30 1013,-30 1013,-10 993,-10"/>
<text text-anchor="start" x="1016.73" y="-15.4" font-family="Times-12" font-size="14.00"> &#160;Module</text>
<polygon fill="#80b1d3" stroke="transparent" points="1079,-10 1079,-30 1099,-30 1099,-10 1079,-10"/>
<text text-anchor="start" x="1102.78" y="-15.4" font-family="Times-12" font-size="14.00"> &#160;Bootstrap</text>
<polygon fill="#fdb462" stroke="transparent" points="1176,-10 1176,-30 1196,-30 1196,-10 1176,-10"/>
<text text-anchor="start" x="1199.67" y="-15.4" font-family="Times-12" font-size="14.00"> &#160;Providers</text>
<polygon fill="#fb8072" stroke="transparent" points="1272,-10 1272,-30 1292,-30 1292,-10 1272,-10"/>
<text text-anchor="start" x="1295.73" y="-15.4" font-family="Times-12" font-size="14.00"> &#160;Exports</text>
<g id="clust1" class="cluster">
<title>cluster_IssuerModule</title>
<polygon fill="none" stroke="black" stroke-dasharray="1,5" points="8,-70 8,-268 2220,-268 2220,-70 8,-70"/>
</g>
<g id="clust4" class="cluster">
<title>cluster_IssuerModule_exports</title>
<polygon fill="none" stroke="black" points="953,-208 953,-260 1515,-260 1515,-208 953,-208"/>
</g>
<g id="clust3" class="cluster">
<title>cluster_IssuerModule_imports</title>
<polygon fill="none" stroke="black" points="1724,-78 1724,-130 2212,-130 2212,-78 1724,-78"/>
</g>
<g id="clust6" class="cluster">
<title>cluster_IssuerModule_providers</title>
<polygon fill="none" stroke="black" points="16,-78 16,-130 1716,-130 1716,-78 16,-78"/>
</g>
<!-- CryptoModule -->
<g id="node1" class="node">
<title>CryptoModule</title>
<polygon fill="#8dd3c7" stroke="black" points="2204.44,-122 2201.44,-126 2180.44,-126 2177.44,-122 2105.56,-122 2105.56,-86 2204.44,-86 2204.44,-122"/>
<text text-anchor="middle" x="2155" y="-99.8" font-family="Times,serif" font-size="14.00">CryptoModule</text>
</g>
<!-- IssuerModule -->
<g id="node5" class="node">
<title>IssuerModule</title>
<polygon fill="#8dd3c7" stroke="black" points="1262.47,-187 1259.47,-191 1238.47,-191 1235.47,-187 1169.53,-187 1169.53,-151 1262.47,-151 1262.47,-187"/>
<text text-anchor="middle" x="1216" y="-164.8" font-family="Times,serif" font-size="14.00">IssuerModule</text>
</g>
<!-- CryptoModule&#45;&gt;IssuerModule -->
<g id="edge1" class="edge">
<title>CryptoModule&#45;&gt;IssuerModule</title>
<path fill="none" stroke="black" d="M2155,-122.29C2155,-144.21 2155,-178 2155,-178 2155,-178 1272.57,-178 1272.57,-178"/>
<polygon fill="black" stroke="black" points="1272.57,-174.5 1262.57,-178 1272.57,-181.5 1272.57,-174.5"/>
</g>
<!-- Oid4vpModule -->
<g id="node2" class="node">
<title>Oid4vpModule</title>
<polygon fill="#8dd3c7" stroke="black" points="2087.55,-122 2084.55,-126 2063.55,-126 2060.55,-122 1986.45,-122 1986.45,-86 2087.55,-86 2087.55,-122"/>
<text text-anchor="middle" x="2037" y="-99.8" font-family="Times,serif" font-size="14.00">Oid4vpModule</text>
</g>
<!-- Oid4vpModule&#45;&gt;IssuerModule -->
<g id="edge2" class="edge">
<title>Oid4vpModule&#45;&gt;IssuerModule</title>
<path fill="none" stroke="black" d="M2037,-122.03C2037,-142.77 2037,-174 2037,-174 2037,-174 1272.49,-174 1272.49,-174"/>
<polygon fill="black" stroke="black" points="1272.49,-170.5 1262.49,-174 1272.49,-177.5 1272.49,-170.5"/>
</g>
<!-- SessionModule -->
<g id="node3" class="node">
<title>SessionModule</title>
<polygon fill="#8dd3c7" stroke="black" points="1968.33,-122 1965.33,-126 1944.33,-126 1941.33,-122 1865.67,-122 1865.67,-86 1968.33,-86 1968.33,-122"/>
<text text-anchor="middle" x="1917" y="-99.8" font-family="Times,serif" font-size="14.00">SessionModule</text>
</g>
<!-- SessionModule&#45;&gt;IssuerModule -->
<g id="edge3" class="edge">
<title>SessionModule&#45;&gt;IssuerModule</title>
<path fill="none" stroke="black" d="M1917,-122.11C1917,-141.34 1917,-169 1917,-169 1917,-169 1272.54,-169 1272.54,-169"/>
<polygon fill="black" stroke="black" points="1272.54,-165.5 1262.54,-169 1272.54,-172.5 1272.54,-165.5"/>
</g>
<!-- StatusListModule -->
<g id="node4" class="node">
<title>StatusListModule</title>
<polygon fill="#8dd3c7" stroke="black" points="1847.55,-122 1844.55,-126 1823.55,-126 1820.55,-122 1732.45,-122 1732.45,-86 1847.55,-86 1847.55,-122"/>
<text text-anchor="middle" x="1790" y="-99.8" font-family="Times,serif" font-size="14.00">StatusListModule</text>
</g>
<!-- StatusListModule&#45;&gt;IssuerModule -->
<g id="edge4" class="edge">
<title>StatusListModule&#45;&gt;IssuerModule</title>
<path fill="none" stroke="black" d="M1790,-122.3C1790,-140.27 1790,-165 1790,-165 1790,-165 1272.49,-165 1272.49,-165"/>
<polygon fill="black" stroke="black" points="1272.49,-161.5 1262.49,-165 1272.49,-168.5 1272.49,-161.5"/>
</g>
<!-- AuthorizeService  -->
<g id="node6" class="node">
<title>AuthorizeService </title>
<polygon fill="#fb8072" stroke="black" points="1506.96,-252 1389.04,-252 1389.04,-216 1506.96,-216 1506.96,-252"/>
<text text-anchor="middle" x="1448" y="-229.8" font-family="Times,serif" font-size="14.00">AuthorizeService </text>
</g>
<!-- IssuerModule&#45;&gt;AuthorizeService  -->
<g id="edge5" class="edge">
<title>IssuerModule&#45;&gt;AuthorizeService </title>
<path fill="none" stroke="black" stroke-dasharray="5,2" d="M1262.67,-183C1330.42,-183 1448,-183 1448,-183 1448,-183 1448,-205.88 1448,-205.88"/>
<polygon fill="black" stroke="black" points="1444.5,-205.88 1448,-215.88 1451.5,-205.88 1444.5,-205.88"/>
</g>
<!-- CredentialConfigService  -->
<g id="node7" class="node">
<title>CredentialConfigService </title>
<polygon fill="#fb8072" stroke="black" points="1371.18,-252 1212.82,-252 1212.82,-216 1371.18,-216 1371.18,-252"/>
<text text-anchor="middle" x="1292" y="-229.8" font-family="Times,serif" font-size="14.00">CredentialConfigService </text>
</g>
<!-- IssuerModule&#45;&gt;CredentialConfigService  -->
<g id="edge6" class="edge">
<title>IssuerModule&#45;&gt;CredentialConfigService </title>
<path fill="none" stroke="black" stroke-dasharray="5,2" d="M1237.57,-187.11C1237.57,-187.11 1237.57,-205.99 1237.57,-205.99"/>
<polygon fill="black" stroke="black" points="1234.07,-205.99 1237.57,-215.99 1241.07,-205.99 1234.07,-205.99"/>
</g>
<!-- IssuanceService  -->
<g id="node8" class="node">
<title>IssuanceService </title>
<polygon fill="#fb8072" stroke="black" points="1194.67,-252 1085.33,-252 1085.33,-216 1194.67,-216 1194.67,-252"/>
<text text-anchor="middle" x="1140" y="-229.8" font-family="Times,serif" font-size="14.00">IssuanceService </text>
</g>
<!-- IssuerModule&#45;&gt;IssuanceService  -->
<g id="edge7" class="edge">
<title>IssuerModule&#45;&gt;IssuanceService </title>
<path fill="none" stroke="black" stroke-dasharray="5,2" d="M1182.17,-187.11C1182.17,-187.11 1182.17,-205.99 1182.17,-205.99"/>
<polygon fill="black" stroke="black" points="1178.67,-205.99 1182.17,-215.99 1185.67,-205.99 1178.67,-205.99"/>
</g>
<!-- Oid4vciService  -->
<g id="node9" class="node">
<title>Oid4vciService </title>
<polygon fill="#fb8072" stroke="black" points="1067.08,-252 960.92,-252 960.92,-216 1067.08,-216 1067.08,-252"/>
<text text-anchor="middle" x="1014" y="-229.8" font-family="Times,serif" font-size="14.00">Oid4vciService </text>
</g>
<!-- IssuerModule&#45;&gt;Oid4vciService  -->
<g id="edge8" class="edge">
<title>IssuerModule&#45;&gt;Oid4vciService </title>
<path fill="none" stroke="black" stroke-dasharray="5,2" d="M1169.2,-183C1111.41,-183 1020.63,-183 1020.63,-183 1020.63,-183 1020.63,-205.88 1020.63,-205.88"/>
<polygon fill="black" stroke="black" points="1017.13,-205.88 1020.63,-215.88 1024.13,-205.88 1017.13,-205.88"/>
</g>
<!-- AuthorizeService -->
<g id="node10" class="node">
<title>AuthorizeService</title>
<ellipse fill="#fdb462" stroke="black" cx="1629" cy="-104" rx="78.71" ry="18"/>
<text text-anchor="middle" x="1629" y="-99.8" font-family="Times,serif" font-size="14.00">AuthorizeService</text>
</g>
<!-- AuthorizeService&#45;&gt;IssuerModule -->
<g id="edge9" class="edge">
<title>AuthorizeService&#45;&gt;IssuerModule</title>
<path fill="none" stroke="black" d="M1629,-122.03C1629,-138.4 1629,-160 1629,-160 1629,-160 1272.57,-160 1272.57,-160"/>
<polygon fill="black" stroke="black" points="1272.57,-156.5 1262.57,-160 1272.57,-163.5 1272.57,-156.5"/>
</g>
<!-- CredentialConfigService -->
<g id="node11" class="node">
<title>CredentialConfigService</title>
<ellipse fill="#fdb462" stroke="black" cx="1425" cy="-104" rx="107.08" ry="18"/>
<text text-anchor="middle" x="1425" y="-99.8" font-family="Times,serif" font-size="14.00">CredentialConfigService</text>
</g>
<!-- CredentialConfigService&#45;&gt;IssuerModule -->
<g id="edge10" class="edge">
<title>CredentialConfigService&#45;&gt;IssuerModule</title>
<path fill="none" stroke="black" d="M1344.65,-116.06C1344.65,-131.42 1344.65,-156 1344.65,-156 1344.65,-156 1272.81,-156 1272.81,-156"/>
<polygon fill="black" stroke="black" points="1272.81,-152.5 1262.81,-156 1272.81,-159.5 1272.81,-152.5"/>
</g>
<!-- CredentialsService -->
<g id="node12" class="node">
<title>CredentialsService</title>
<ellipse fill="#fdb462" stroke="black" cx="1216" cy="-104" rx="83.94" ry="18"/>
<text text-anchor="middle" x="1216" y="-99.8" font-family="Times,serif" font-size="14.00">CredentialsService</text>
</g>
<!-- CredentialsService&#45;&gt;IssuerModule -->
<g id="edge11" class="edge">
<title>CredentialsService&#45;&gt;IssuerModule</title>
<path fill="none" stroke="black" d="M1216,-122.11C1216,-122.11 1216,-140.99 1216,-140.99"/>
<polygon fill="black" stroke="black" points="1212.5,-140.99 1216,-150.99 1219.5,-140.99 1212.5,-140.99"/>
</g>
<!-- DisplayService -->
<g id="node13" class="node">
<title>DisplayService</title>
<ellipse fill="#fdb462" stroke="black" cx="1044" cy="-104" rx="70.06" ry="18"/>
<text text-anchor="middle" x="1044" y="-99.8" font-family="Times,serif" font-size="14.00">DisplayService</text>
</g>
<!-- DisplayService&#45;&gt;IssuerModule -->
<g id="edge12" class="edge">
<title>DisplayService&#45;&gt;IssuerModule</title>
<path fill="none" stroke="black" d="M1099.6,-115.03C1099.6,-130.29 1099.6,-156 1099.6,-156 1099.6,-156 1159.33,-156 1159.33,-156"/>
<polygon fill="black" stroke="black" points="1159.33,-159.5 1169.33,-156 1159.33,-152.5 1159.33,-159.5"/>
</g>
<!-- IssuanceService -->
<g id="node14" class="node">
<title>IssuanceService</title>
<ellipse fill="#fdb462" stroke="black" cx="883" cy="-104" rx="73.47" ry="18"/>
<text text-anchor="middle" x="883" y="-99.8" font-family="Times,serif" font-size="14.00">IssuanceService</text>
</g>
<!-- IssuanceService&#45;&gt;IssuerModule -->
<g id="edge13" class="edge">
<title>IssuanceService&#45;&gt;IssuerModule</title>
<path fill="none" stroke="black" d="M883,-122.03C883,-138.4 883,-160 883,-160 883,-160 1159.35,-160 1159.35,-160"/>
<polygon fill="black" stroke="black" points="1159.35,-163.5 1169.35,-160 1159.35,-156.5 1159.35,-163.5"/>
</g>
<!-- Oid4vciService -->
<g id="node15" class="node">
<title>Oid4vciService</title>
<ellipse fill="#fdb462" stroke="black" cx="721" cy="-104" rx="71.21" ry="18"/>
<text text-anchor="middle" x="721" y="-99.8" font-family="Times,serif" font-size="14.00">Oid4vciService</text>
</g>
<!-- Oid4vciService&#45;&gt;IssuerModule -->
<g id="edge14" class="edge">
<title>Oid4vciService&#45;&gt;IssuerModule</title>
<path fill="none" stroke="black" d="M721,-122.3C721,-140.27 721,-165 721,-165 721,-165 1159.43,-165 1159.43,-165"/>
<polygon fill="black" stroke="black" points="1159.43,-168.5 1169.43,-165 1159.43,-161.5 1159.43,-168.5"/>
</g>
<!-- SessionLoggerInterceptor -->
<g id="node16" class="node">
<title>SessionLoggerInterceptor</title>
<ellipse fill="#fdb462" stroke="black" cx="521" cy="-104" rx="110.57" ry="18"/>
<text text-anchor="middle" x="521" y="-99.8" font-family="Times,serif" font-size="14.00">SessionLoggerInterceptor</text>
</g>
<!-- SessionLoggerInterceptor&#45;&gt;IssuerModule -->
<g id="edge15" class="edge">
<title>SessionLoggerInterceptor&#45;&gt;IssuerModule</title>
<path fill="none" stroke="black" d="M521,-122.11C521,-141.34 521,-169 521,-169 521,-169 1159.32,-169 1159.32,-169"/>
<polygon fill="black" stroke="black" points="1159.32,-172.5 1169.32,-169 1159.32,-165.5 1159.32,-172.5"/>
</g>
<!-- SessionLoggerService -->
<g id="node17" class="node">
<title>SessionLoggerService</title>
<ellipse fill="#fdb462" stroke="black" cx="295" cy="-104" rx="97.27" ry="18"/>
<text text-anchor="middle" x="295" y="-99.8" font-family="Times,serif" font-size="14.00">SessionLoggerService</text>
</g>
<!-- SessionLoggerService&#45;&gt;IssuerModule -->
<g id="edge16" class="edge">
<title>SessionLoggerService&#45;&gt;IssuerModule</title>
<path fill="none" stroke="black" d="M295,-122.03C295,-142.77 295,-174 295,-174 295,-174 1159.38,-174 1159.38,-174"/>
<polygon fill="black" stroke="black" points="1159.38,-177.5 1169.38,-174 1159.38,-170.5 1159.38,-177.5"/>
</g>
<!-- WebhookService -->
<g id="node18" class="node">
<title>WebhookService</title>
<ellipse fill="#fdb462" stroke="black" cx="102" cy="-104" rx="77.57" ry="18"/>
<text text-anchor="middle" x="102" y="-99.8" font-family="Times,serif" font-size="14.00">WebhookService</text>
</g>
<!-- WebhookService&#45;&gt;IssuerModule -->
<g id="edge17" class="edge">
<title>WebhookService&#45;&gt;IssuerModule</title>
<path fill="none" stroke="black" d="M102,-122.29C102,-144.21 102,-178 102,-178 102,-178 1159.2,-178 1159.2,-178"/>
<polygon fill="black" stroke="black" points="1159.2,-181.5 1169.2,-178 1159.2,-174.5 1159.2,-181.5"/>
</g>
</g>
</svg>
