<?xml version="1.0" encoding="UTF-8" standalone="no"?>
<!DOCTYPE svg PUBLIC "-//W3C//DTD SVG 1.1//EN"
 "http://www.w3.org/Graphics/SVG/1.1/DTD/svg11.dtd">
<!-- Generated by graphviz version 2.47.0 (20210316.0004)
 -->
<!-- Title: dependencies Pages: 1 -->
<svg width="1784pt" height="284pt"
 viewBox="0.00 0.00 1784.00 284.00" xmlns="http://www.w3.org/2000/svg" xmlns:xlink="http://www.w3.org/1999/xlink">
<g id="graph0" class="graph" transform="scale(1 1) rotate(0) translate(4 280)">
<title>dependencies</title>
<polygon fill="white" stroke="transparent" points="-4,4 -4,-280 1780,-280 1780,4 -4,4"/>
<text text-anchor="start" x="867.01" y="-42.4" font-family="Times-12" font-weight="bold" font-size="14.00">Legend</text>
<polygon fill="#ffffb3" stroke="transparent" points="654,-10 654,-30 674,-30 674,-10 654,-10"/>
<text text-anchor="start" x="677.63" y="-15.4" font-family="Times-12" font-size="14.00"> &#160;Declarations</text>
<polygon fill="#8dd3c7" stroke="transparent" points="767,-10 767,-30 787,-30 787,-10 767,-10"/>
<text text-anchor="start" x="790.73" y="-15.4" font-family="Times-12" font-size="14.00"> &#160;Module</text>
<polygon fill="#80b1d3" stroke="transparent" points="853,-10 853,-30 873,-30 873,-10 853,-10"/>
<text text-anchor="start" x="876.78" y="-15.4" font-family="Times-12" font-size="14.00"> &#160;Bootstrap</text>
<polygon fill="#fdb462" stroke="transparent" points="950,-10 950,-30 970,-30 970,-10 950,-10"/>
<text text-anchor="start" x="973.67" y="-15.4" font-family="Times-12" font-size="14.00"> &#160;Providers</text>
<polygon fill="#fb8072" stroke="transparent" points="1046,-10 1046,-30 1066,-30 1066,-10 1046,-10"/>
<text text-anchor="start" x="1069.73" y="-15.4" font-family="Times-12" font-size="14.00"> &#160;Exports</text>
<g id="clust1" class="cluster">
<title>cluster_IssuerModule</title>
<polygon fill="none" stroke="black" stroke-dasharray="1,5" points="8,-70 8,-268 1768,-268 1768,-70 8,-70"/>
</g>
<g id="clust3" class="cluster">
<title>cluster_IssuerModule_imports</title>
<polygon fill="none" stroke="black" points="1272,-78 1272,-130 1760,-130 1760,-78 1272,-78"/>
</g>
<g id="clust4" class="cluster">
<title>cluster_IssuerModule_exports</title>
<polygon fill="none" stroke="black" points="710,-208 710,-260 1272,-260 1272,-208 710,-208"/>
</g>
<g id="clust6" class="cluster">
<title>cluster_IssuerModule_providers</title>
<polygon fill="none" stroke="black" points="16,-78 16,-130 1264,-130 1264,-78 16,-78"/>
</g>
<!-- CryptoModule -->
<g id="node1" class="node">
<title>CryptoModule</title>
<polygon fill="#8dd3c7" stroke="black" points="1752.44,-122 1749.44,-126 1728.44,-126 1725.44,-122 1653.56,-122 1653.56,-86 1752.44,-86 1752.44,-122"/>
<text text-anchor="middle" x="1703" y="-99.8" font-family="Times,serif" font-size="14.00">CryptoModule</text>
</g>
<!-- IssuerModule -->
<g id="node5" class="node">
<title>IssuerModule</title>
<polygon fill="#8dd3c7" stroke="black" points="1019.47,-187 1016.47,-191 995.47,-191 992.47,-187 926.53,-187 926.53,-151 1019.47,-151 1019.47,-187"/>
<text text-anchor="middle" x="973" y="-164.8" font-family="Times,serif" font-size="14.00">IssuerModule</text>
</g>
<!-- CryptoModule&#45;&gt;IssuerModule -->
<g id="edge1" class="edge">
<title>CryptoModule&#45;&gt;IssuerModule</title>
<path fill="none" stroke="black" d="M1703,-122.04C1703,-143.66 1703,-177 1703,-177 1703,-177 1029.5,-177 1029.5,-177"/>
<polygon fill="black" stroke="black" points="1029.5,-173.5 1019.5,-177 1029.5,-180.5 1029.5,-173.5"/>
</g>
<!-- Oid4vpModule -->
<g id="node2" class="node">
<title>Oid4vpModule</title>
<polygon fill="#8dd3c7" stroke="black" points="1635.55,-122 1632.55,-126 1611.55,-126 1608.55,-122 1534.45,-122 1534.45,-86 1635.55,-86 1635.55,-122"/>
<text text-anchor="middle" x="1585" y="-99.8" font-family="Times,serif" font-size="14.00">Oid4vpModule</text>
</g>
<!-- Oid4vpModule&#45;&gt;IssuerModule -->
<g id="edge2" class="edge">
<title>Oid4vpModule&#45;&gt;IssuerModule</title>
<path fill="none" stroke="black" d="M1585,-122.22C1585,-142.37 1585,-172 1585,-172 1585,-172 1029.5,-172 1029.5,-172"/>
<polygon fill="black" stroke="black" points="1029.5,-168.5 1019.5,-172 1029.5,-175.5 1029.5,-168.5"/>
</g>
<!-- SessionModule -->
<g id="node3" class="node">
<title>SessionModule</title>
<polygon fill="#8dd3c7" stroke="black" points="1516.33,-122 1513.33,-126 1492.33,-126 1489.33,-122 1413.67,-122 1413.67,-86 1516.33,-86 1516.33,-122"/>
<text text-anchor="middle" x="1465" y="-99.8" font-family="Times,serif" font-size="14.00">SessionModule</text>
</g>
<!-- SessionModule&#45;&gt;IssuerModule -->
<g id="edge3" class="edge">
<title>SessionModule&#45;&gt;IssuerModule</title>
<path fill="none" stroke="black" d="M1465,-122.22C1465,-140.83 1465,-167 1465,-167 1465,-167 1029.73,-167 1029.73,-167"/>
<polygon fill="black" stroke="black" points="1029.73,-163.5 1019.73,-167 1029.73,-170.5 1029.73,-163.5"/>
</g>
<!-- StatusListModule -->
<g id="node4" class="node">
<title>StatusListModule</title>
<polygon fill="#8dd3c7" stroke="black" points="1395.55,-122 1392.55,-126 1371.55,-126 1368.55,-122 1280.45,-122 1280.45,-86 1395.55,-86 1395.55,-122"/>
<text text-anchor="middle" x="1338" y="-99.8" font-family="Times,serif" font-size="14.00">StatusListModule</text>
</g>
<!-- StatusListModule&#45;&gt;IssuerModule -->
<g id="edge4" class="edge">
<title>StatusListModule&#45;&gt;IssuerModule</title>
<path fill="none" stroke="black" d="M1338,-122.03C1338,-139.06 1338,-162 1338,-162 1338,-162 1029.6,-162 1029.6,-162"/>
<polygon fill="black" stroke="black" points="1029.6,-158.5 1019.6,-162 1029.6,-165.5 1029.6,-158.5"/>
</g>
<!-- AuthorizeService  -->
<g id="node6" class="node">
<title>AuthorizeService </title>
<polygon fill="#fb8072" stroke="black" points="1263.96,-252 1146.04,-252 1146.04,-216 1263.96,-216 1263.96,-252"/>
<text text-anchor="middle" x="1205" y="-229.8" font-family="Times,serif" font-size="14.00">AuthorizeService </text>
</g>
<!-- IssuerModule&#45;&gt;AuthorizeService  -->
<g id="edge5" class="edge">
<title>IssuerModule&#45;&gt;AuthorizeService </title>
<path fill="none" stroke="black" stroke-dasharray="5,2" d="M1019.68,-182C1086.36,-182 1200.94,-182 1200.94,-182 1200.94,-182 1200.94,-205.81 1200.94,-205.81"/>
<polygon fill="black" stroke="black" points="1197.44,-205.81 1200.94,-215.81 1204.44,-205.81 1197.44,-205.81"/>
</g>
<!-- CredentialConfigService  -->
<g id="node7" class="node">
<title>CredentialConfigService </title>
<polygon fill="#fb8072" stroke="black" points="1128.18,-252 969.82,-252 969.82,-216 1128.18,-216 1128.18,-252"/>
<text text-anchor="middle" x="1049" y="-229.8" font-family="Times,serif" font-size="14.00">CredentialConfigService </text>
</g>
<!-- IssuerModule&#45;&gt;CredentialConfigService  -->
<g id="edge6" class="edge">
<title>IssuerModule&#45;&gt;CredentialConfigService </title>
<path fill="none" stroke="black" stroke-dasharray="5,2" d="M994.57,-187.11C994.57,-187.11 994.57,-205.99 994.57,-205.99"/>
<polygon fill="black" stroke="black" points="991.07,-205.99 994.57,-215.99 998.07,-205.99 991.07,-205.99"/>
</g>
<!-- IssuanceService  -->
<g id="node8" class="node">
<title>IssuanceService </title>
<polygon fill="#fb8072" stroke="black" points="951.67,-252 842.33,-252 842.33,-216 951.67,-216 951.67,-252"/>
<text text-anchor="middle" x="897" y="-229.8" font-family="Times,serif" font-size="14.00">IssuanceService </text>
</g>
<!-- IssuerModule&#45;&gt;IssuanceService  -->
<g id="edge7" class="edge">
<title>IssuerModule&#45;&gt;IssuanceService </title>
<path fill="none" stroke="black" stroke-dasharray="5,2" d="M939.17,-187.11C939.17,-187.11 939.17,-205.99 939.17,-205.99"/>
<polygon fill="black" stroke="black" points="935.67,-205.99 939.17,-215.99 942.67,-205.99 935.67,-205.99"/>
</g>
<!-- Oid4vciService  -->
<g id="node9" class="node">
<title>Oid4vciService </title>
<polygon fill="#fb8072" stroke="black" points="824.08,-252 717.92,-252 717.92,-216 824.08,-216 824.08,-252"/>
<text text-anchor="middle" x="771" y="-229.8" font-family="Times,serif" font-size="14.00">Oid4vciService </text>
</g>
<!-- IssuerModule&#45;&gt;Oid4vciService  -->
<g id="edge8" class="edge">
<title>IssuerModule&#45;&gt;Oid4vciService </title>
<path fill="none" stroke="black" stroke-dasharray="5,2" d="M926.4,-182C866.75,-182 771,-182 771,-182 771,-182 771,-205.81 771,-205.81"/>
<polygon fill="black" stroke="black" points="767.5,-205.81 771,-215.81 774.5,-205.81 767.5,-205.81"/>
</g>
<!-- AuthorizeService -->
<g id="node10" class="node">
<title>AuthorizeService</title>
<ellipse fill="#fdb462" stroke="black" cx="1177" cy="-104" rx="78.71" ry="18"/>
<text text-anchor="middle" x="1177" y="-99.8" font-family="Times,serif" font-size="14.00">AuthorizeService</text>
</g>
<!-- AuthorizeService&#45;&gt;IssuerModule -->
<g id="edge9" class="edge">
<title>AuthorizeService&#45;&gt;IssuerModule</title>
<path fill="none" stroke="black" d="M1113.37,-114.73C1113.37,-130.21 1113.37,-157 1113.37,-157 1113.37,-157 1029.74,-157 1029.74,-157"/>
<polygon fill="black" stroke="black" points="1029.74,-153.5 1019.74,-157 1029.74,-160.5 1029.74,-153.5"/>
</g>
<!-- CredentialConfigService -->
<g id="node11" class="node">
<title>CredentialConfigService</title>
<ellipse fill="#fdb462" stroke="black" cx="973" cy="-104" rx="107.08" ry="18"/>
<text text-anchor="middle" x="973" y="-99.8" font-family="Times,serif" font-size="14.00">CredentialConfigService</text>
</g>
<!-- CredentialConfigService&#45;&gt;IssuerModule -->
<g id="edge10" class="edge">
<title>CredentialConfigService&#45;&gt;IssuerModule</title>
<path fill="none" stroke="black" d="M973,-122.11C973,-122.11 973,-140.99 973,-140.99"/>
<polygon fill="black" stroke="black" points="969.5,-140.99 973,-150.99 976.5,-140.99 969.5,-140.99"/>
</g>
<!-- CredentialsService -->
<g id="node12" class="node">
<title>CredentialsService</title>
<ellipse fill="#fdb462" stroke="black" cx="764" cy="-104" rx="83.94" ry="18"/>
<text text-anchor="middle" x="764" y="-99.8" font-family="Times,serif" font-size="14.00">CredentialsService</text>
</g>
<!-- CredentialsService&#45;&gt;IssuerModule -->
<g id="edge11" class="edge">
<title>CredentialsService&#45;&gt;IssuerModule</title>
<path fill="none" stroke="black" d="M833.23,-114.22C833.23,-129.62 833.23,-157 833.23,-157 833.23,-157 916.46,-157 916.46,-157"/>
<polygon fill="black" stroke="black" points="916.46,-160.5 926.46,-157 916.46,-153.5 916.46,-160.5"/>
</g>
<!-- DisplayService -->
<g id="node13" class="node">
<title>DisplayService</title>
<ellipse fill="#fdb462" stroke="black" cx="592" cy="-104" rx="70.06" ry="18"/>
<text text-anchor="middle" x="592" y="-99.8" font-family="Times,serif" font-size="14.00">DisplayService</text>
</g>
<!-- DisplayService&#45;&gt;IssuerModule -->
<g id="edge12" class="edge">
<title>DisplayService&#45;&gt;IssuerModule</title>
<path fill="none" stroke="black" d="M592,-122.03C592,-139.06 592,-162 592,-162 592,-162 916.28,-162 916.28,-162"/>
<polygon fill="black" stroke="black" points="916.28,-165.5 926.28,-162 916.28,-158.5 916.28,-165.5"/>
</g>
<!-- IssuanceService -->
<g id="node14" class="node">
<title>IssuanceService</title>
<ellipse fill="#fdb462" stroke="black" cx="431" cy="-104" rx="73.47" ry="18"/>
<text text-anchor="middle" x="431" y="-99.8" font-family="Times,serif" font-size="14.00">IssuanceService</text>
</g>
<!-- IssuanceService&#45;&gt;IssuerModule -->
<g id="edge13" class="edge">
<title>IssuanceService&#45;&gt;IssuerModule</title>
<path fill="none" stroke="black" d="M431,-122.22C431,-140.83 431,-167 431,-167 431,-167 916.32,-167 916.32,-167"/>
<polygon fill="black" stroke="black" points="916.32,-170.5 926.32,-167 916.32,-163.5 916.32,-170.5"/>
</g>
<!-- Oid4vciService -->
<g id="node15" class="node">
<title>Oid4vciService</title>
<ellipse fill="#fdb462" stroke="black" cx="269" cy="-104" rx="71.21" ry="18"/>
<text text-anchor="middle" x="269" y="-99.8" font-family="Times,serif" font-size="14.00">Oid4vciService</text>
</g>
<!-- Oid4vciService&#45;&gt;IssuerModule -->
<g id="edge14" class="edge">
<title>Oid4vciService&#45;&gt;IssuerModule</title>
<path fill="none" stroke="black" d="M269,-122.22C269,-142.37 269,-172 269,-172 269,-172 916.26,-172 916.26,-172"/>
<polygon fill="black" stroke="black" points="916.26,-175.5 926.26,-172 916.26,-168.5 916.26,-175.5"/>
</g>
<!-- WebhookService -->
<g id="node16" class="node">
<title>WebhookService</title>
<ellipse fill="#fdb462" stroke="black" cx="102" cy="-104" rx="77.57" ry="18"/>
<text text-anchor="middle" x="102" y="-99.8" font-family="Times,serif" font-size="14.00">WebhookService</text>
</g>
<!-- WebhookService&#45;&gt;IssuerModule -->
<g id="edge15" class="edge">
<title>WebhookService&#45;&gt;IssuerModule</title>
<path fill="none" stroke="black" d="M102,-122.04C102,-143.66 102,-177 102,-177 102,-177 916.48,-177 916.48,-177"/>
<polygon fill="black" stroke="black" points="916.48,-180.5 926.48,-177 916.48,-173.5 916.48,-180.5"/>
</g>
</g>
</svg>
