<?xml version="1.0" encoding="UTF-8" standalone="no"?>
<!DOCTYPE svg PUBLIC "-//W3C//DTD SVG 1.1//EN"
 "http://www.w3.org/Graphics/SVG/1.1/DTD/svg11.dtd">
<!-- Generated by graphviz version 2.47.0 (20210316.0004)
 -->
<!-- Title: dependencies Pages: 1 -->
<svg width="1626pt" height="284pt"
 viewBox="0.00 0.00 1626.00 284.00" xmlns="http://www.w3.org/2000/svg" xmlns:xlink="http://www.w3.org/1999/xlink">
<g id="graph0" class="graph" transform="scale(1 1) rotate(0) translate(4 280)">
<title>dependencies</title>
<polygon fill="white" stroke="transparent" points="-4,4 -4,-280 1622,-280 1622,4 -4,4"/>
<text text-anchor="start" x="788.01" y="-42.4" font-family="Times-12" font-weight="bold" font-size="14.00">Legend</text>
<polygon fill="#ffffb3" stroke="transparent" points="575,-10 575,-30 595,-30 595,-10 575,-10"/>
<text text-anchor="start" x="598.63" y="-15.4" font-family="Times-12" font-size="14.00"> &#160;Declarations</text>
<polygon fill="#8dd3c7" stroke="transparent" points="688,-10 688,-30 708,-30 708,-10 688,-10"/>
<text text-anchor="start" x="711.73" y="-15.4" font-family="Times-12" font-size="14.00"> &#160;Module</text>
<polygon fill="#80b1d3" stroke="transparent" points="774,-10 774,-30 794,-30 794,-10 774,-10"/>
<text text-anchor="start" x="797.78" y="-15.4" font-family="Times-12" font-size="14.00"> &#160;Bootstrap</text>
<polygon fill="#fdb462" stroke="transparent" points="871,-10 871,-30 891,-30 891,-10 871,-10"/>
<text text-anchor="start" x="894.67" y="-15.4" font-family="Times-12" font-size="14.00"> &#160;Providers</text>
<polygon fill="#fb8072" stroke="transparent" points="967,-10 967,-30 987,-30 987,-10 967,-10"/>
<text text-anchor="start" x="990.73" y="-15.4" font-family="Times-12" font-size="14.00"> &#160;Exports</text>
<g id="clust1" class="cluster">
<title>cluster_IssuerModule</title>
<polygon fill="none" stroke="black" stroke-dasharray="1,5" points="8,-70 8,-268 1610,-268 1610,-70 8,-70"/>
</g>
<g id="clust6" class="cluster">
<title>cluster_IssuerModule_providers</title>
<polygon fill="none" stroke="black" points="512,-78 512,-130 1602,-130 1602,-78 512,-78"/>
</g>
<g id="clust4" class="cluster">
<title>cluster_IssuerModule_exports</title>
<polygon fill="none" stroke="black" points="418,-208 418,-260 980,-260 980,-208 418,-208"/>
</g>
<g id="clust3" class="cluster">
<title>cluster_IssuerModule_imports</title>
<polygon fill="none" stroke="black" points="16,-78 16,-130 504,-130 504,-78 16,-78"/>
</g>
<!-- CryptoModule -->
<g id="node1" class="node">
<title>CryptoModule</title>
<polygon fill="#8dd3c7" stroke="black" points="496.44,-122 493.44,-126 472.44,-126 469.44,-122 397.56,-122 397.56,-86 496.44,-86 496.44,-122"/>
<text text-anchor="middle" x="447" y="-99.8" font-family="Times,serif" font-size="14.00">CryptoModule</text>
</g>
<!-- IssuerModule -->
<g id="node5" class="node">
<title>IssuerModule</title>
<polygon fill="#8dd3c7" stroke="black" points="727.47,-187 724.47,-191 703.47,-191 700.47,-187 634.53,-187 634.53,-151 727.47,-151 727.47,-187"/>
<text text-anchor="middle" x="681" y="-164.8" font-family="Times,serif" font-size="14.00">IssuerModule</text>
</g>
<!-- CryptoModule&#45;&gt;IssuerModule -->
<g id="edge1" class="edge">
<title>CryptoModule&#45;&gt;IssuerModule</title>
<path fill="none" stroke="black" d="M460.96,-122.24C460.96,-137.57 460.96,-157 460.96,-157 460.96,-157 624.34,-157 624.34,-157"/>
<polygon fill="black" stroke="black" points="624.34,-160.5 634.34,-157 624.34,-153.5 624.34,-160.5"/>
</g>
<!-- Oid4vpModule -->
<g id="node2" class="node">
<title>Oid4vpModule</title>
<polygon fill="#8dd3c7" stroke="black" points="379.55,-122 376.55,-126 355.55,-126 352.55,-122 278.45,-122 278.45,-86 379.55,-86 379.55,-122"/>
<text text-anchor="middle" x="329" y="-99.8" font-family="Times,serif" font-size="14.00">Oid4vpModule</text>
</g>
<!-- Oid4vpModule&#45;&gt;IssuerModule -->
<g id="edge2" class="edge">
<title>Oid4vpModule&#45;&gt;IssuerModule</title>
<path fill="none" stroke="black" d="M329,-122.02C329,-139.37 329,-163 329,-163 329,-163 624.26,-163 624.26,-163"/>
<polygon fill="black" stroke="black" points="624.26,-166.5 634.26,-163 624.26,-159.5 624.26,-166.5"/>
</g>
<!-- SessionModule -->
<g id="node3" class="node">
<title>SessionModule</title>
<polygon fill="#8dd3c7" stroke="black" points="260.33,-122 257.33,-126 236.33,-126 233.33,-122 157.67,-122 157.67,-86 260.33,-86 260.33,-122"/>
<text text-anchor="middle" x="209" y="-99.8" font-family="Times,serif" font-size="14.00">SessionModule</text>
</g>
<!-- SessionModule&#45;&gt;IssuerModule -->
<g id="edge3" class="edge">
<title>SessionModule&#45;&gt;IssuerModule</title>
<path fill="none" stroke="black" d="M209,-122.11C209,-141.34 209,-169 209,-169 209,-169 624.45,-169 624.45,-169"/>
<polygon fill="black" stroke="black" points="624.45,-172.5 634.45,-169 624.45,-165.5 624.45,-172.5"/>
</g>
<!-- StatusListModule -->
<g id="node4" class="node">
<title>StatusListModule</title>
<polygon fill="#8dd3c7" stroke="black" points="139.55,-122 136.55,-126 115.55,-126 112.55,-122 24.45,-122 24.45,-86 139.55,-86 139.55,-122"/>
<text text-anchor="middle" x="82" y="-99.8" font-family="Times,serif" font-size="14.00">StatusListModule</text>
</g>
<!-- StatusListModule&#45;&gt;IssuerModule -->
<g id="edge4" class="edge">
<title>StatusListModule&#45;&gt;IssuerModule</title>
<path fill="none" stroke="black" d="M82,-122.28C82,-143.32 82,-175 82,-175 82,-175 624.5,-175 624.5,-175"/>
<polygon fill="black" stroke="black" points="624.5,-178.5 634.5,-175 624.5,-171.5 624.5,-178.5"/>
</g>
<!-- AuthorizeService  -->
<g id="node6" class="node">
<title>AuthorizeService </title>
<polygon fill="#fb8072" stroke="black" points="971.96,-252 854.04,-252 854.04,-216 971.96,-216 971.96,-252"/>
<text text-anchor="middle" x="913" y="-229.8" font-family="Times,serif" font-size="14.00">AuthorizeService </text>
</g>
<!-- IssuerModule&#45;&gt;AuthorizeService  -->
<g id="edge5" class="edge">
<title>IssuerModule&#45;&gt;AuthorizeService </title>
<path fill="none" stroke="black" stroke-dasharray="5,2" d="M727.73,-181C800.48,-181 932.58,-181 932.58,-181 932.58,-181 932.58,-205.76 932.58,-205.76"/>
<polygon fill="black" stroke="black" points="929.08,-205.76 932.58,-215.76 936.08,-205.76 929.08,-205.76"/>
</g>
<!-- CredentialConfigService  -->
<g id="node7" class="node">
<title>CredentialConfigService </title>
<polygon fill="#fb8072" stroke="black" points="836.18,-252 677.82,-252 677.82,-216 836.18,-216 836.18,-252"/>
<text text-anchor="middle" x="757" y="-229.8" font-family="Times,serif" font-size="14.00">CredentialConfigService </text>
</g>
<!-- IssuerModule&#45;&gt;CredentialConfigService  -->
<g id="edge6" class="edge">
<title>IssuerModule&#45;&gt;CredentialConfigService </title>
<path fill="none" stroke="black" stroke-dasharray="5,2" d="M702.57,-187.11C702.57,-187.11 702.57,-205.99 702.57,-205.99"/>
<polygon fill="black" stroke="black" points="699.07,-205.99 702.57,-215.99 706.07,-205.99 699.07,-205.99"/>
</g>
<!-- IssuanceService  -->
<g id="node8" class="node">
<title>IssuanceService </title>
<polygon fill="#fb8072" stroke="black" points="659.67,-252 550.33,-252 550.33,-216 659.67,-216 659.67,-252"/>
<text text-anchor="middle" x="605" y="-229.8" font-family="Times,serif" font-size="14.00">IssuanceService </text>
</g>
<!-- IssuerModule&#45;&gt;IssuanceService  -->
<g id="edge7" class="edge">
<title>IssuerModule&#45;&gt;IssuanceService </title>
<path fill="none" stroke="black" stroke-dasharray="5,2" d="M647.17,-187.11C647.17,-187.11 647.17,-205.99 647.17,-205.99"/>
<polygon fill="black" stroke="black" points="643.67,-205.99 647.17,-215.99 650.67,-205.99 643.67,-205.99"/>
</g>
<!-- Oid4vciService  -->
<g id="node9" class="node">
<title>Oid4vciService </title>
<polygon fill="#fb8072" stroke="black" points="532.08,-252 425.92,-252 425.92,-216 532.08,-216 532.08,-252"/>
<text text-anchor="middle" x="479" y="-229.8" font-family="Times,serif" font-size="14.00">Oid4vciService </text>
</g>
<!-- IssuerModule&#45;&gt;Oid4vciService  -->
<g id="edge8" class="edge">
<title>IssuerModule&#45;&gt;Oid4vciService </title>
<path fill="none" stroke="black" stroke-dasharray="5,2" d="M634.19,-181C588.68,-181 526.38,-181 526.38,-181 526.38,-181 526.38,-205.76 526.38,-205.76"/>
<polygon fill="black" stroke="black" points="522.88,-205.76 526.38,-215.76 529.88,-205.76 522.88,-205.76"/>
</g>
<!-- AuthorizeService -->
<g id="node10" class="node">
<title>AuthorizeService</title>
<ellipse fill="#fdb462" stroke="black" cx="1515" cy="-104" rx="78.71" ry="18"/>
<text text-anchor="middle" x="1515" y="-99.8" font-family="Times,serif" font-size="14.00">AuthorizeService</text>
</g>
<!-- AuthorizeService&#45;&gt;IssuerModule -->
<g id="edge9" class="edge">
<title>AuthorizeService&#45;&gt;IssuerModule</title>
<path fill="none" stroke="black" d="M1515,-122.28C1515,-143.32 1515,-175 1515,-175 1515,-175 737.63,-175 737.63,-175"/>
<polygon fill="black" stroke="black" points="737.63,-171.5 727.63,-175 737.63,-178.5 737.63,-171.5"/>
</g>
<!-- CredentialConfigService -->
<g id="node11" class="node">
<title>CredentialConfigService</title>
<ellipse fill="#fdb462" stroke="black" cx="1311" cy="-104" rx="107.08" ry="18"/>
<text text-anchor="middle" x="1311" y="-99.8" font-family="Times,serif" font-size="14.00">CredentialConfigService</text>
</g>
<!-- CredentialConfigService&#45;&gt;IssuerModule -->
<g id="edge10" class="edge">
<title>CredentialConfigService&#45;&gt;IssuerModule</title>
<path fill="none" stroke="black" d="M1311,-122.11C1311,-141.34 1311,-169 1311,-169 1311,-169 737.58,-169 737.58,-169"/>
<polygon fill="black" stroke="black" points="737.58,-165.5 727.58,-169 737.58,-172.5 737.58,-165.5"/>
</g>
<!-- CredentialsService -->
<g id="node12" class="node">
<title>CredentialsService</title>
<ellipse fill="#fdb462" stroke="black" cx="1102" cy="-104" rx="83.94" ry="18"/>
<text text-anchor="middle" x="1102" y="-99.8" font-family="Times,serif" font-size="14.00">CredentialsService</text>
</g>
<!-- CredentialsService&#45;&gt;IssuerModule -->
<g id="edge11" class="edge">
<title>CredentialsService&#45;&gt;IssuerModule</title>
<path fill="none" stroke="black" d="M1102,-122.02C1102,-139.37 1102,-163 1102,-163 1102,-163 737.66,-163 737.66,-163"/>
<polygon fill="black" stroke="black" points="737.66,-159.5 727.66,-163 737.66,-166.5 737.66,-159.5"/>
</g>
<!-- IssuanceService -->
<g id="node13" class="node">
<title>IssuanceService</title>
<ellipse fill="#fdb462" stroke="black" cx="927" cy="-104" rx="73.47" ry="18"/>
<text text-anchor="middle" x="927" y="-99.8" font-family="Times,serif" font-size="14.00">IssuanceService</text>
</g>
<!-- IssuanceService&#45;&gt;IssuerModule -->
<g id="edge12" class="edge">
<title>IssuanceService&#45;&gt;IssuerModule</title>
<path fill="none" stroke="black" d="M893.42,-120.19C893.42,-135.78 893.42,-157 893.42,-157 893.42,-157 737.62,-157 737.62,-157"/>
<polygon fill="black" stroke="black" points="737.62,-153.5 727.62,-157 737.62,-160.5 737.62,-153.5"/>
</g>
<!-- Oid4vciService -->
<g id="node14" class="node">
<title>Oid4vciService</title>
<ellipse fill="#fdb462" stroke="black" cx="765" cy="-104" rx="71.21" ry="18"/>
<text text-anchor="middle" x="765" y="-99.8" font-family="Times,serif" font-size="14.00">Oid4vciService</text>
</g>
<!-- Oid4vciService&#45;&gt;IssuerModule -->
<g id="edge13" class="edge">
<title>Oid4vciService&#45;&gt;IssuerModule</title>
<path fill="none" stroke="black" d="M710.69,-115.62C710.69,-115.62 710.69,-140.85 710.69,-140.85"/>
<polygon fill="black" stroke="black" points="707.19,-140.85 710.69,-150.85 714.19,-140.85 707.19,-140.85"/>
</g>
<!-- WebhookService -->
<g id="node15" class="node">
<title>WebhookService</title>
<ellipse fill="#fdb462" stroke="black" cx="598" cy="-104" rx="77.57" ry="18"/>
<text text-anchor="middle" x="598" y="-99.8" font-family="Times,serif" font-size="14.00">WebhookService</text>
</g>
<!-- WebhookService&#45;&gt;IssuerModule -->
<g id="edge14" class="edge">
<title>WebhookService&#45;&gt;IssuerModule</title>
<path fill="none" stroke="black" d="M655.02,-116.23C655.02,-116.23 655.02,-140.68 655.02,-140.68"/>
<polygon fill="black" stroke="black" points="651.52,-140.68 655.02,-150.68 658.52,-140.68 651.52,-140.68"/>
</g>
</g>
</svg>
