<?xml version="1.0" encoding="UTF-8" standalone="no"?>
<!DOCTYPE svg PUBLIC "-//W3C//DTD SVG 1.1//EN"
 "http://www.w3.org/Graphics/SVG/1.1/DTD/svg11.dtd">
<!-- Generated by graphviz version 2.47.0 (20210316.0004)
 -->
<!-- Title: dependencies Pages: 1 -->
<svg width="542pt" height="284pt"
 viewBox="0.00 0.00 542.00 284.00" xmlns="http://www.w3.org/2000/svg" xmlns:xlink="http://www.w3.org/1999/xlink">
<g id="graph0" class="graph" transform="scale(1 1) rotate(0) translate(4 280)">
<title>dependencies</title>
<polygon fill="white" stroke="transparent" points="-4,4 -4,-280 538,-280 538,4 -4,4"/>
<text text-anchor="start" x="246.01" y="-42.4" font-family="Times-12" font-weight="bold" font-size="14.00">Legend</text>
<polygon fill="#ffffb3" stroke="transparent" points="33,-10 33,-30 53,-30 53,-10 33,-10"/>
<text text-anchor="start" x="56.63" y="-15.4" font-family="Times-12" font-size="14.00"> &#160;Declarations</text>
<polygon fill="#8dd3c7" stroke="transparent" points="146,-10 146,-30 166,-30 166,-10 146,-10"/>
<text text-anchor="start" x="169.73" y="-15.4" font-family="Times-12" font-size="14.00"> &#160;Module</text>
<polygon fill="#80b1d3" stroke="transparent" points="232,-10 232,-30 252,-30 252,-10 232,-10"/>
<text text-anchor="start" x="255.78" y="-15.4" font-family="Times-12" font-size="14.00"> &#160;Bootstrap</text>
<polygon fill="#fdb462" stroke="transparent" points="329,-10 329,-30 349,-30 349,-10 329,-10"/>
<text text-anchor="start" x="352.67" y="-15.4" font-family="Times-12" font-size="14.00"> &#160;Providers</text>
<polygon fill="#fb8072" stroke="transparent" points="425,-10 425,-30 445,-30 445,-10 425,-10"/>
<text text-anchor="start" x="448.73" y="-15.4" font-family="Times-12" font-size="14.00"> &#160;Exports</text>
<g id="clust1" class="cluster">
<title>cluster_ConfigImportModule</title>
<polygon fill="none" stroke="black" stroke-dasharray="1,5" points="8,-70 8,-268 526,-268 526,-70 8,-70"/>
</g>
<g id="clust4" class="cluster">
<title>cluster_ConfigImportModule_exports</title>
<polygon fill="none" stroke="black" points="53,-208 53,-260 433,-260 433,-208 53,-208"/>
</g>
<g id="clust6" class="cluster">
<title>cluster_ConfigImportModule_providers</title>
<polygon fill="none" stroke="black" points="16,-78 16,-130 518,-130 518,-78 16,-78"/>
</g>
<!-- ConfigImportOrchestratorService  -->
<g id="node1" class="node">
<title>ConfigImportOrchestratorService </title>
<polygon fill="#fb8072" stroke="black" points="425.43,-252 216.57,-252 216.57,-216 425.43,-216 425.43,-252"/>
<text text-anchor="middle" x="321" y="-229.8" font-family="Times,serif" font-size="14.00">ConfigImportOrchestratorService </text>
</g>
<!-- ConfigImportService  -->
<g id="node2" class="node">
<title>ConfigImportService </title>
<polygon fill="#fb8072" stroke="black" points="199.47,-252 60.53,-252 60.53,-216 199.47,-216 199.47,-252"/>
<text text-anchor="middle" x="130" y="-229.8" font-family="Times,serif" font-size="14.00">ConfigImportService </text>
</g>
<!-- ConfigImportModule -->
<g id="node3" class="node">
<title>ConfigImportModule</title>
<polygon fill="#8dd3c7" stroke="black" points="234.04,-187 231.04,-191 210.04,-191 207.04,-187 97.96,-187 97.96,-151 234.04,-151 234.04,-187"/>
<text text-anchor="middle" x="166" y="-164.8" font-family="Times,serif" font-size="14.00">ConfigImportModule</text>
</g>
<!-- ConfigImportModule&#45;&gt;ConfigImportOrchestratorService  -->
<g id="edge1" class="edge">
<title>ConfigImportModule&#45;&gt;ConfigImportOrchestratorService </title>
<path fill="none" stroke="black" stroke-dasharray="5,2" d="M225.53,-187.11C225.53,-187.11 225.53,-205.99 225.53,-205.99"/>
<polygon fill="black" stroke="black" points="222.03,-205.99 225.53,-215.99 229.03,-205.99 222.03,-205.99"/>
</g>
<!-- ConfigImportModule&#45;&gt;ConfigImportService  -->
<g id="edge2" class="edge">
<title>ConfigImportModule&#45;&gt;ConfigImportService </title>
<path fill="none" stroke="black" stroke-dasharray="5,2" d="M148.48,-187.11C148.48,-187.11 148.48,-205.99 148.48,-205.99"/>
<polygon fill="black" stroke="black" points="144.98,-205.99 148.48,-215.99 151.98,-205.99 144.98,-205.99"/>
</g>
<!-- ConfigImportOrchestratorService -->
<g id="node4" class="node">
<title>ConfigImportOrchestratorService</title>
<ellipse fill="#fdb462" stroke="black" cx="369" cy="-104" rx="141.21" ry="18"/>
<text text-anchor="middle" x="369" y="-99.8" font-family="Times,serif" font-size="14.00">ConfigImportOrchestratorService</text>
</g>
<!-- ConfigImportOrchestratorService&#45;&gt;ConfigImportModule -->
<g id="edge3" class="edge">
<title>ConfigImportOrchestratorService&#45;&gt;ConfigImportModule</title>
<path fill="none" stroke="black" d="M227.37,-104C222.01,-104 218.87,-104 218.87,-104 218.87,-104 218.87,-140.89 218.87,-140.89"/>
<polygon fill="black" stroke="black" points="215.37,-140.89 218.87,-150.89 222.37,-140.89 215.37,-140.89"/>
</g>
<!-- ConfigImportService -->
<g id="node5" class="node">
<title>ConfigImportService</title>
<ellipse fill="#fdb462" stroke="black" cx="117" cy="-104" rx="93.2" ry="18"/>
<text text-anchor="middle" x="117" y="-99.8" font-family="Times,serif" font-size="14.00">ConfigImportService</text>
</g>
<!-- ConfigImportService&#45;&gt;ConfigImportModule -->
<g id="edge4" class="edge">
<title>ConfigImportService&#45;&gt;ConfigImportModule</title>
<path fill="none" stroke="black" d="M153.91,-120.74C153.91,-120.74 153.91,-140.72 153.91,-140.72"/>
<polygon fill="black" stroke="black" points="150.41,-140.72 153.91,-150.72 157.41,-140.72 150.41,-140.72"/>
</g>
</g>
</svg>
