<?xml version="1.0" encoding="UTF-8" standalone="no"?>
<!DOCTYPE svg PUBLIC "-//W3C//DTD SVG 1.1//EN"
 "http://www.w3.org/Graphics/SVG/1.1/DTD/svg11.dtd">
<!-- Generated by graphviz version 2.47.0 (20210316.0004)
 -->
<!-- Title: dependencies Pages: 1 -->
<svg width="978pt" height="284pt"
 viewBox="0.00 0.00 978.00 284.00" xmlns="http://www.w3.org/2000/svg" xmlns:xlink="http://www.w3.org/1999/xlink">
<g id="graph0" class="graph" transform="scale(1 1) rotate(0) translate(4 280)">
<title>dependencies</title>
<polygon fill="white" stroke="transparent" points="-4,4 -4,-280 974,-280 974,4 -4,4"/>
<text text-anchor="start" x="464.01" y="-42.4" font-family="Times-12" font-weight="bold" font-size="14.00">Legend</text>
<polygon fill="#ffffb3" stroke="transparent" points="251,-10 251,-30 271,-30 271,-10 251,-10"/>
<text text-anchor="start" x="274.63" y="-15.4" font-family="Times-12" font-size="14.00"> &#160;Declarations</text>
<polygon fill="#8dd3c7" stroke="transparent" points="364,-10 364,-30 384,-30 384,-10 364,-10"/>
<text text-anchor="start" x="387.73" y="-15.4" font-family="Times-12" font-size="14.00"> &#160;Module</text>
<polygon fill="#80b1d3" stroke="transparent" points="450,-10 450,-30 470,-30 470,-10 450,-10"/>
<text text-anchor="start" x="473.78" y="-15.4" font-family="Times-12" font-size="14.00"> &#160;Bootstrap</text>
<polygon fill="#fdb462" stroke="transparent" points="547,-10 547,-30 567,-30 567,-10 547,-10"/>
<text text-anchor="start" x="570.67" y="-15.4" font-family="Times-12" font-size="14.00"> &#160;Providers</text>
<polygon fill="#fb8072" stroke="transparent" points="643,-10 643,-30 663,-30 663,-10 643,-10"/>
<text text-anchor="start" x="666.73" y="-15.4" font-family="Times-12" font-size="14.00"> &#160;Exports</text>
<g id="clust1" class="cluster">
<title>cluster_AuthModule</title>
<polygon fill="none" stroke="black" stroke-dasharray="1,5" points="8,-70 8,-268 962,-268 962,-70 8,-70"/>
</g>
<g id="clust6" class="cluster">
<title>cluster_AuthModule_providers</title>
<polygon fill="none" stroke="black" points="401,-78 401,-130 954,-130 954,-78 401,-78"/>
</g>
<g id="clust3" class="cluster">
<title>cluster_AuthModule_imports</title>
<polygon fill="none" stroke="black" points="16,-78 16,-130 393,-130 393,-78 16,-78"/>
</g>
<g id="clust4" class="cluster">
<title>cluster_AuthModule_exports</title>
<polygon fill="none" stroke="black" points="314,-208 314,-260 634,-260 634,-208 314,-208"/>
</g>
<!-- CryptoModule -->
<g id="node1" class="node">
<title>CryptoModule</title>
<polygon fill="#8dd3c7" stroke="black" points="385.44,-122 382.44,-126 361.44,-126 358.44,-122 286.56,-122 286.56,-86 385.44,-86 385.44,-122"/>
<text text-anchor="middle" x="336" y="-99.8" font-family="Times,serif" font-size="14.00">CryptoModule</text>
</g>
<!-- AuthModule -->
<g id="node4" class="node">
<title>AuthModule</title>
<polygon fill="#8dd3c7" stroke="black" points="509.55,-187 506.55,-191 485.55,-191 482.55,-187 422.45,-187 422.45,-151 509.55,-151 509.55,-187"/>
<text text-anchor="middle" x="466" y="-164.8" font-family="Times,serif" font-size="14.00">AuthModule</text>
</g>
<!-- CryptoModule&#45;&gt;AuthModule -->
<g id="edge1" class="edge">
<title>CryptoModule&#45;&gt;AuthModule</title>
<path fill="none" stroke="black" d="M353.71,-122.01C353.71,-138.05 353.71,-159 353.71,-159 353.71,-159 412.26,-159 412.26,-159"/>
<polygon fill="black" stroke="black" points="412.26,-162.5 422.26,-159 412.26,-155.5 412.26,-162.5"/>
</g>
<!-- RegistrarModule -->
<g id="node2" class="node">
<title>RegistrarModule</title>
<polygon fill="#8dd3c7" stroke="black" points="268.36,-122 265.36,-126 244.36,-126 241.36,-122 157.64,-122 157.64,-86 268.36,-86 268.36,-122"/>
<text text-anchor="middle" x="213" y="-99.8" font-family="Times,serif" font-size="14.00">RegistrarModule</text>
</g>
<!-- RegistrarModule&#45;&gt;AuthModule -->
<g id="edge2" class="edge">
<title>RegistrarModule&#45;&gt;AuthModule</title>
<path fill="none" stroke="black" d="M213,-122.27C213,-140.56 213,-166 213,-166 213,-166 412.22,-166 412.22,-166"/>
<polygon fill="black" stroke="black" points="412.22,-169.5 422.22,-166 412.22,-162.5 412.22,-169.5"/>
</g>
<!-- StatusListModule -->
<g id="node3" class="node">
<title>StatusListModule</title>
<polygon fill="#8dd3c7" stroke="black" points="139.55,-122 136.55,-126 115.55,-126 112.55,-122 24.45,-122 24.45,-86 139.55,-86 139.55,-122"/>
<text text-anchor="middle" x="82" y="-99.8" font-family="Times,serif" font-size="14.00">StatusListModule</text>
</g>
<!-- StatusListModule&#45;&gt;AuthModule -->
<g id="edge3" class="edge">
<title>StatusListModule&#45;&gt;AuthModule</title>
<path fill="none" stroke="black" d="M82,-122.13C82,-142.57 82,-173 82,-173 82,-173 412.32,-173 412.32,-173"/>
<polygon fill="black" stroke="black" points="412.32,-176.5 422.32,-173 412.32,-169.5 412.32,-176.5"/>
</g>
<!-- JwtAuthGuard  -->
<g id="node5" class="node">
<title>JwtAuthGuard </title>
<polygon fill="#fb8072" stroke="black" points="625.92,-252 524.08,-252 524.08,-216 625.92,-216 625.92,-252"/>
<text text-anchor="middle" x="575" y="-229.8" font-family="Times,serif" font-size="14.00">JwtAuthGuard </text>
</g>
<!-- AuthModule&#45;&gt;JwtAuthGuard  -->
<g id="edge4" class="edge">
<title>AuthModule&#45;&gt;JwtAuthGuard </title>
<path fill="none" stroke="black" stroke-dasharray="5,2" d="M509.87,-180C522.2,-180 532.32,-180 532.32,-180 532.32,-180 532.32,-205.72 532.32,-205.72"/>
<polygon fill="black" stroke="black" points="528.82,-205.72 532.32,-215.72 535.82,-205.72 528.82,-205.72"/>
</g>
<!-- JwtService  -->
<g id="node6" class="node">
<title>JwtService </title>
<polygon fill="#fb8072" stroke="black" points="506.42,-252 425.58,-252 425.58,-216 506.42,-216 506.42,-252"/>
<text text-anchor="middle" x="466" y="-229.8" font-family="Times,serif" font-size="14.00">JwtService </text>
</g>
<!-- AuthModule&#45;&gt;JwtService  -->
<g id="edge5" class="edge">
<title>AuthModule&#45;&gt;JwtService </title>
<path fill="none" stroke="black" stroke-dasharray="5,2" d="M466,-187.11C466,-187.11 466,-205.99 466,-205.99"/>
<polygon fill="black" stroke="black" points="462.5,-205.99 466,-215.99 469.5,-205.99 462.5,-205.99"/>
</g>
<!-- JwtStrategy  -->
<g id="node7" class="node">
<title>JwtStrategy </title>
<polygon fill="#fb8072" stroke="black" points="407.6,-252 322.4,-252 322.4,-216 407.6,-216 407.6,-252"/>
<text text-anchor="middle" x="365" y="-229.8" font-family="Times,serif" font-size="14.00">JwtStrategy </text>
</g>
<!-- AuthModule&#45;&gt;JwtStrategy  -->
<g id="edge6" class="edge">
<title>AuthModule&#45;&gt;JwtStrategy </title>
<path fill="none" stroke="black" stroke-dasharray="5,2" d="M422.38,-180C408.42,-180 396.51,-180 396.51,-180 396.51,-180 396.51,-205.72 396.51,-205.72"/>
<polygon fill="black" stroke="black" points="393.01,-205.72 396.51,-215.72 400.01,-205.72 393.01,-205.72"/>
</g>
<!-- ClientService -->
<g id="node8" class="node">
<title>ClientService</title>
<ellipse fill="#fdb462" stroke="black" cx="882" cy="-104" rx="63.7" ry="18"/>
<text text-anchor="middle" x="882" y="-99.8" font-family="Times,serif" font-size="14.00">ClientService</text>
</g>
<!-- ClientService&#45;&gt;AuthModule -->
<g id="edge7" class="edge">
<title>ClientService&#45;&gt;AuthModule</title>
<path fill="none" stroke="black" d="M882,-122.13C882,-142.57 882,-173 882,-173 882,-173 519.73,-173 519.73,-173"/>
<polygon fill="black" stroke="black" points="519.73,-169.5 509.73,-173 519.73,-176.5 519.73,-169.5"/>
</g>
<!-- JwtAuthGuard -->
<g id="node9" class="node">
<title>JwtAuthGuard</title>
<ellipse fill="#fdb462" stroke="black" cx="733" cy="-104" rx="67.78" ry="18"/>
<text text-anchor="middle" x="733" y="-99.8" font-family="Times,serif" font-size="14.00">JwtAuthGuard</text>
</g>
<!-- JwtAuthGuard&#45;&gt;AuthModule -->
<g id="edge8" class="edge">
<title>JwtAuthGuard&#45;&gt;AuthModule</title>
<path fill="none" stroke="black" d="M733,-122.27C733,-140.56 733,-166 733,-166 733,-166 519.79,-166 519.79,-166"/>
<polygon fill="black" stroke="black" points="519.79,-162.5 509.79,-166 519.79,-169.5 519.79,-162.5"/>
</g>
<!-- JwtService -->
<g id="node10" class="node">
<title>JwtService</title>
<ellipse fill="#fdb462" stroke="black" cx="594" cy="-104" rx="53.31" ry="18"/>
<text text-anchor="middle" x="594" y="-99.8" font-family="Times,serif" font-size="14.00">JwtService</text>
</g>
<!-- JwtService&#45;&gt;AuthModule -->
<g id="edge9" class="edge">
<title>JwtService&#45;&gt;AuthModule</title>
<path fill="none" stroke="black" d="M583.28,-121.71C583.28,-137.78 583.28,-159 583.28,-159 583.28,-159 519.67,-159 519.67,-159"/>
<polygon fill="black" stroke="black" points="519.67,-155.5 509.67,-159 519.67,-162.5 519.67,-155.5"/>
</g>
<!-- JwtStrategy -->
<g id="node11" class="node">
<title>JwtStrategy</title>
<ellipse fill="#fdb462" stroke="black" cx="466" cy="-104" rx="56.76" ry="18"/>
<text text-anchor="middle" x="466" y="-99.8" font-family="Times,serif" font-size="14.00">JwtStrategy</text>
</g>
<!-- JwtStrategy&#45;&gt;AuthModule -->
<g id="edge10" class="edge">
<title>JwtStrategy&#45;&gt;AuthModule</title>
<path fill="none" stroke="black" d="M466,-122.11C466,-122.11 466,-140.99 466,-140.99"/>
<polygon fill="black" stroke="black" points="462.5,-140.99 466,-150.99 469.5,-140.99 462.5,-140.99"/>
</g>
</g>
</svg>
