<?xml version="1.0" encoding="UTF-8" standalone="no"?>
<!DOCTYPE svg PUBLIC "-//W3C//DTD SVG 1.1//EN"
 "http://www.w3.org/Graphics/SVG/1.1/DTD/svg11.dtd">
<!-- Generated by graphviz version 2.47.0 (20210316.0004)
 -->
<!-- Title: dependencies Pages: 1 -->
<svg width="1089pt" height="284pt"
 viewBox="0.00 0.00 1089.00 284.00" xmlns="http://www.w3.org/2000/svg" xmlns:xlink="http://www.w3.org/1999/xlink">
<g id="graph0" class="graph" transform="scale(1 1) rotate(0) translate(4 280)">
<title>dependencies</title>
<polygon fill="white" stroke="transparent" points="-4,4 -4,-280 1085,-280 1085,4 -4,4"/>
<text text-anchor="start" x="519.51" y="-42.4" font-family="Times-12" font-weight="bold" font-size="14.00">Legend</text>
<polygon fill="#ffffb3" stroke="transparent" points="306.5,-10 306.5,-30 326.5,-30 326.5,-10 306.5,-10"/>
<text text-anchor="start" x="330.13" y="-15.4" font-family="Times-12" font-size="14.00"> &#160;Declarations</text>
<polygon fill="#8dd3c7" stroke="transparent" points="419.5,-10 419.5,-30 439.5,-30 439.5,-10 419.5,-10"/>
<text text-anchor="start" x="443.23" y="-15.4" font-family="Times-12" font-size="14.00"> &#160;Module</text>
<polygon fill="#80b1d3" stroke="transparent" points="505.5,-10 505.5,-30 525.5,-30 525.5,-10 505.5,-10"/>
<text text-anchor="start" x="529.28" y="-15.4" font-family="Times-12" font-size="14.00"> &#160;Bootstrap</text>
<polygon fill="#fdb462" stroke="transparent" points="602.5,-10 602.5,-30 622.5,-30 622.5,-10 602.5,-10"/>
<text text-anchor="start" x="626.17" y="-15.4" font-family="Times-12" font-size="14.00"> &#160;Providers</text>
<polygon fill="#fb8072" stroke="transparent" points="698.5,-10 698.5,-30 718.5,-30 718.5,-10 698.5,-10"/>
<text text-anchor="start" x="722.23" y="-15.4" font-family="Times-12" font-size="14.00"> &#160;Exports</text>
<g id="clust1" class="cluster">
<title>cluster_AuthModule</title>
<polygon fill="none" stroke="black" stroke-dasharray="1,5" points="8,-70 8,-268 1073,-268 1073,-70 8,-70"/>
</g>
<g id="clust3" class="cluster">
<title>cluster_AuthModule_imports</title>
<polygon fill="none" stroke="black" points="577,-78 577,-130 1065,-130 1065,-78 577,-78"/>
</g>
<g id="clust4" class="cluster">
<title>cluster_AuthModule_exports</title>
<polygon fill="none" stroke="black" points="418,-208 418,-260 738,-260 738,-208 418,-208"/>
</g>
<g id="clust6" class="cluster">
<title>cluster_AuthModule_providers</title>
<polygon fill="none" stroke="black" points="16,-78 16,-130 569,-130 569,-78 16,-78"/>
</g>
<!-- CryptoModule -->
<g id="node1" class="node">
<title>CryptoModule</title>
<polygon fill="#8dd3c7" stroke="black" points="1057.44,-122 1054.44,-126 1033.44,-126 1030.44,-122 958.56,-122 958.56,-86 1057.44,-86 1057.44,-122"/>
<text text-anchor="middle" x="1008" y="-99.8" font-family="Times,serif" font-size="14.00">CryptoModule</text>
</g>
<!-- AuthModule -->
<g id="node5" class="node">
<title>AuthModule</title>
<polygon fill="#8dd3c7" stroke="black" points="613.55,-187 610.55,-191 589.55,-191 586.55,-187 526.45,-187 526.45,-151 613.55,-151 613.55,-187"/>
<text text-anchor="middle" x="570" y="-164.8" font-family="Times,serif" font-size="14.00">AuthModule</text>
</g>
<!-- CryptoModule&#45;&gt;AuthModule -->
<g id="edge1" class="edge">
<title>CryptoModule&#45;&gt;AuthModule</title>
<path fill="none" stroke="black" d="M1008,-122.13C1008,-142.57 1008,-173 1008,-173 1008,-173 623.6,-173 623.6,-173"/>
<polygon fill="black" stroke="black" points="623.6,-169.5 613.6,-173 623.6,-176.5 623.6,-169.5"/>
</g>
<!-- IssuerModule -->
<g id="node2" class="node">
<title>IssuerModule</title>
<polygon fill="#8dd3c7" stroke="black" points="940.47,-122 937.47,-126 916.47,-126 913.47,-122 847.53,-122 847.53,-86 940.47,-86 940.47,-122"/>
<text text-anchor="middle" x="894" y="-99.8" font-family="Times,serif" font-size="14.00">IssuerModule</text>
</g>
<!-- IssuerModule&#45;&gt;AuthModule -->
<g id="edge2" class="edge">
<title>IssuerModule&#45;&gt;AuthModule</title>
<path fill="none" stroke="black" d="M894,-122.27C894,-140.56 894,-166 894,-166 894,-166 623.7,-166 623.7,-166"/>
<polygon fill="black" stroke="black" points="623.7,-162.5 613.7,-166 623.7,-169.5 623.7,-162.5"/>
</g>
<!-- RegistrarModule -->
<g id="node3" class="node">
<title>RegistrarModule</title>
<polygon fill="#8dd3c7" stroke="black" points="829.36,-122 826.36,-126 805.36,-126 802.36,-122 718.64,-122 718.64,-86 829.36,-86 829.36,-122"/>
<text text-anchor="middle" x="774" y="-99.8" font-family="Times,serif" font-size="14.00">RegistrarModule</text>
</g>
<!-- RegistrarModule&#45;&gt;AuthModule -->
<g id="edge3" class="edge">
<title>RegistrarModule&#45;&gt;AuthModule</title>
<path fill="none" stroke="black" d="M724.26,-122.01C724.26,-138.05 724.26,-159 724.26,-159 724.26,-159 623.79,-159 623.79,-159"/>
<polygon fill="black" stroke="black" points="623.79,-155.5 613.79,-159 623.79,-162.5 623.79,-155.5"/>
</g>
<!-- StatusListModule -->
<g id="node4" class="node">
<title>StatusListModule</title>
<polygon fill="#8dd3c7" stroke="black" points="700.55,-122 697.55,-126 676.55,-126 673.55,-122 585.45,-122 585.45,-86 700.55,-86 700.55,-122"/>
<text text-anchor="middle" x="643" y="-99.8" font-family="Times,serif" font-size="14.00">StatusListModule</text>
</g>
<!-- StatusListModule&#45;&gt;AuthModule -->
<g id="edge4" class="edge">
<title>StatusListModule&#45;&gt;AuthModule</title>
<path fill="none" stroke="black" d="M599.5,-122.11C599.5,-122.11 599.5,-140.99 599.5,-140.99"/>
<polygon fill="black" stroke="black" points="596,-140.99 599.5,-150.99 603,-140.99 596,-140.99"/>
</g>
<!-- JwtAuthGuard  -->
<g id="node6" class="node">
<title>JwtAuthGuard </title>
<polygon fill="#fb8072" stroke="black" points="729.92,-252 628.08,-252 628.08,-216 729.92,-216 729.92,-252"/>
<text text-anchor="middle" x="679" y="-229.8" font-family="Times,serif" font-size="14.00">JwtAuthGuard </text>
</g>
<!-- AuthModule&#45;&gt;JwtAuthGuard  -->
<g id="edge5" class="edge">
<title>AuthModule&#45;&gt;JwtAuthGuard </title>
<path fill="none" stroke="black" stroke-dasharray="5,2" d="M613.61,-180C638.35,-180 664.41,-180 664.41,-180 664.41,-180 664.41,-205.72 664.41,-205.72"/>
<polygon fill="black" stroke="black" points="660.91,-205.72 664.41,-215.72 667.91,-205.72 660.91,-205.72"/>
</g>
<!-- JwtService  -->
<g id="node7" class="node">
<title>JwtService </title>
<polygon fill="#fb8072" stroke="black" points="610.42,-252 529.58,-252 529.58,-216 610.42,-216 610.42,-252"/>
<text text-anchor="middle" x="570" y="-229.8" font-family="Times,serif" font-size="14.00">JwtService </text>
</g>
<!-- AuthModule&#45;&gt;JwtService  -->
<g id="edge6" class="edge">
<title>AuthModule&#45;&gt;JwtService </title>
<path fill="none" stroke="black" stroke-dasharray="5,2" d="M570,-187.11C570,-187.11 570,-205.99 570,-205.99"/>
<polygon fill="black" stroke="black" points="566.5,-205.99 570,-215.99 573.5,-205.99 566.5,-205.99"/>
</g>
<!-- JwtStrategy  -->
<g id="node8" class="node">
<title>JwtStrategy </title>
<polygon fill="#fb8072" stroke="black" points="511.6,-252 426.4,-252 426.4,-216 511.6,-216 511.6,-252"/>
<text text-anchor="middle" x="469" y="-229.8" font-family="Times,serif" font-size="14.00">JwtStrategy </text>
</g>
<!-- AuthModule&#45;&gt;JwtStrategy  -->
<g id="edge7" class="edge">
<title>AuthModule&#45;&gt;JwtStrategy </title>
<path fill="none" stroke="black" stroke-dasharray="5,2" d="M526.43,-180C500.49,-180 472.6,-180 472.6,-180 472.6,-180 472.6,-205.72 472.6,-205.72"/>
<polygon fill="black" stroke="black" points="469.1,-205.72 472.6,-215.72 476.1,-205.72 469.1,-205.72"/>
</g>
<!-- ClientService -->
<g id="node9" class="node">
<title>ClientService</title>
<ellipse fill="#fdb462" stroke="black" cx="497" cy="-104" rx="63.7" ry="18"/>
<text text-anchor="middle" x="497" y="-99.8" font-family="Times,serif" font-size="14.00">ClientService</text>
</g>
<!-- ClientService&#45;&gt;AuthModule -->
<g id="edge8" class="edge">
<title>ClientService&#45;&gt;AuthModule</title>
<path fill="none" stroke="black" d="M543.41,-116.53C543.41,-116.53 543.41,-140.85 543.41,-140.85"/>
<polygon fill="black" stroke="black" points="539.91,-140.85 543.41,-150.85 546.91,-140.85 539.91,-140.85"/>
</g>
<!-- JwtAuthGuard -->
<g id="node10" class="node">
<title>JwtAuthGuard</title>
<ellipse fill="#fdb462" stroke="black" cx="348" cy="-104" rx="67.78" ry="18"/>
<text text-anchor="middle" x="348" y="-99.8" font-family="Times,serif" font-size="14.00">JwtAuthGuard</text>
</g>
<!-- JwtAuthGuard&#45;&gt;AuthModule -->
<g id="edge9" class="edge">
<title>JwtAuthGuard&#45;&gt;AuthModule</title>
<path fill="none" stroke="black" d="M348,-122.01C348,-138.05 348,-159 348,-159 348,-159 516.4,-159 516.4,-159"/>
<polygon fill="black" stroke="black" points="516.4,-162.5 526.4,-159 516.4,-155.5 516.4,-162.5"/>
</g>
<!-- JwtService -->
<g id="node11" class="node">
<title>JwtService</title>
<ellipse fill="#fdb462" stroke="black" cx="209" cy="-104" rx="53.31" ry="18"/>
<text text-anchor="middle" x="209" y="-99.8" font-family="Times,serif" font-size="14.00">JwtService</text>
</g>
<!-- JwtService&#45;&gt;AuthModule -->
<g id="edge10" class="edge">
<title>JwtService&#45;&gt;AuthModule</title>
<path fill="none" stroke="black" d="M209,-122.27C209,-140.56 209,-166 209,-166 209,-166 516.1,-166 516.1,-166"/>
<polygon fill="black" stroke="black" points="516.1,-169.5 526.1,-166 516.1,-162.5 516.1,-169.5"/>
</g>
<!-- JwtStrategy -->
<g id="node12" class="node">
<title>JwtStrategy</title>
<ellipse fill="#fdb462" stroke="black" cx="81" cy="-104" rx="56.76" ry="18"/>
<text text-anchor="middle" x="81" y="-99.8" font-family="Times,serif" font-size="14.00">JwtStrategy</text>
</g>
<!-- JwtStrategy&#45;&gt;AuthModule -->
<g id="edge11" class="edge">
<title>JwtStrategy&#45;&gt;AuthModule</title>
<path fill="none" stroke="black" d="M81,-122.13C81,-142.57 81,-173 81,-173 81,-173 516.17,-173 516.17,-173"/>
<polygon fill="black" stroke="black" points="516.17,-176.5 526.17,-173 516.17,-169.5 516.17,-176.5"/>
</g>
</g>
</svg>
