<?xml version="1.0" encoding="UTF-8" standalone="no"?>
<!DOCTYPE svg PUBLIC "-//W3C//DTD SVG 1.1//EN"
 "http://www.w3.org/Graphics/SVG/1.1/DTD/svg11.dtd">
<!-- Generated by graphviz version 2.47.0 (20210316.0004)
 -->
<!-- Title: dependencies Pages: 1 -->
<svg width="593pt" height="284pt"
 viewBox="0.00 0.00 593.00 284.00" xmlns="http://www.w3.org/2000/svg" xmlns:xlink="http://www.w3.org/1999/xlink">
<g id="graph0" class="graph" transform="scale(1 1) rotate(0) translate(4 280)">
<title>dependencies</title>
<polygon fill="white" stroke="transparent" points="-4,4 -4,-280 589,-280 589,4 -4,4"/>
<text text-anchor="start" x="271.51" y="-42.4" font-family="Times-12" font-weight="bold" font-size="14.00">Legend</text>
<polygon fill="#ffffb3" stroke="transparent" points="58.5,-10 58.5,-30 78.5,-30 78.5,-10 58.5,-10"/>
<text text-anchor="start" x="82.13" y="-15.4" font-family="Times-12" font-size="14.00"> &#160;Declarations</text>
<polygon fill="#8dd3c7" stroke="transparent" points="171.5,-10 171.5,-30 191.5,-30 191.5,-10 171.5,-10"/>
<text text-anchor="start" x="195.23" y="-15.4" font-family="Times-12" font-size="14.00"> &#160;Module</text>
<polygon fill="#80b1d3" stroke="transparent" points="257.5,-10 257.5,-30 277.5,-30 277.5,-10 257.5,-10"/>
<text text-anchor="start" x="281.28" y="-15.4" font-family="Times-12" font-size="14.00"> &#160;Bootstrap</text>
<polygon fill="#fdb462" stroke="transparent" points="354.5,-10 354.5,-30 374.5,-30 374.5,-10 354.5,-10"/>
<text text-anchor="start" x="378.17" y="-15.4" font-family="Times-12" font-size="14.00"> &#160;Providers</text>
<polygon fill="#fb8072" stroke="transparent" points="450.5,-10 450.5,-30 470.5,-30 470.5,-10 450.5,-10"/>
<text text-anchor="start" x="474.23" y="-15.4" font-family="Times-12" font-size="14.00"> &#160;Exports</text>
<g id="clust1" class="cluster">
<title>cluster_AuthModule</title>
<polygon fill="none" stroke="black" stroke-dasharray="1,5" points="8,-70 8,-268 577,-268 577,-70 8,-70"/>
</g>
<g id="clust6" class="cluster">
<title>cluster_AuthModule_providers</title>
<polygon fill="none" stroke="black" points="16,-78 16,-130 569,-130 569,-78 16,-78"/>
</g>
<g id="clust4" class="cluster">
<title>cluster_AuthModule_exports</title>
<polygon fill="none" stroke="black" points="126,-208 126,-260 446,-260 446,-208 126,-208"/>
</g>
<!-- JwtAuthGuard  -->
<g id="node1" class="node">
<title>JwtAuthGuard </title>
<polygon fill="#fb8072" stroke="black" points="437.92,-252 336.08,-252 336.08,-216 437.92,-216 437.92,-252"/>
<text text-anchor="middle" x="387" y="-229.8" font-family="Times,serif" font-size="14.00">JwtAuthGuard </text>
</g>
<!-- JwtService  -->
<g id="node2" class="node">
<title>JwtService </title>
<polygon fill="#fb8072" stroke="black" points="318.42,-252 237.58,-252 237.58,-216 318.42,-216 318.42,-252"/>
<text text-anchor="middle" x="278" y="-229.8" font-family="Times,serif" font-size="14.00">JwtService </text>
</g>
<!-- JwtStrategy  -->
<g id="node3" class="node">
<title>JwtStrategy </title>
<polygon fill="#fb8072" stroke="black" points="219.6,-252 134.4,-252 134.4,-216 219.6,-216 219.6,-252"/>
<text text-anchor="middle" x="177" y="-229.8" font-family="Times,serif" font-size="14.00">JwtStrategy </text>
</g>
<!-- AuthModule -->
<g id="node4" class="node">
<title>AuthModule</title>
<polygon fill="#8dd3c7" stroke="black" points="321.55,-187 318.55,-191 297.55,-191 294.55,-187 234.45,-187 234.45,-151 321.55,-151 321.55,-187"/>
<text text-anchor="middle" x="278" y="-164.8" font-family="Times,serif" font-size="14.00">AuthModule</text>
</g>
<!-- AuthModule&#45;&gt;JwtAuthGuard  -->
<g id="edge1" class="edge">
<title>AuthModule&#45;&gt;JwtAuthGuard </title>
<path fill="none" stroke="black" stroke-dasharray="5,2" d="M321.82,-175C347.91,-175 375.96,-175 375.96,-175 375.96,-175 375.96,-205.98 375.96,-205.98"/>
<polygon fill="black" stroke="black" points="372.46,-205.98 375.96,-215.98 379.46,-205.98 372.46,-205.98"/>
</g>
<!-- AuthModule&#45;&gt;JwtService  -->
<g id="edge2" class="edge">
<title>AuthModule&#45;&gt;JwtService </title>
<path fill="none" stroke="black" stroke-dasharray="5,2" d="M278,-187.11C278,-187.11 278,-205.99 278,-205.99"/>
<polygon fill="black" stroke="black" points="274.5,-205.99 278,-215.99 281.5,-205.99 274.5,-205.99"/>
</g>
<!-- AuthModule&#45;&gt;JwtStrategy  -->
<g id="edge3" class="edge">
<title>AuthModule&#45;&gt;JwtStrategy </title>
<path fill="none" stroke="black" stroke-dasharray="5,2" d="M234.44,-175C211.34,-175 187.7,-175 187.7,-175 187.7,-175 187.7,-205.98 187.7,-205.98"/>
<polygon fill="black" stroke="black" points="184.2,-205.98 187.7,-215.98 191.2,-205.98 184.2,-205.98"/>
</g>
<!-- ClientService -->
<g id="node5" class="node">
<title>ClientService</title>
<ellipse fill="#fdb462" stroke="black" cx="497" cy="-104" rx="63.7" ry="18"/>
<text text-anchor="middle" x="497" y="-99.8" font-family="Times,serif" font-size="14.00">ClientService</text>
</g>
<!-- ClientService&#45;&gt;AuthModule -->
<g id="edge4" class="edge">
<title>ClientService&#45;&gt;AuthModule</title>
<path fill="none" stroke="black" d="M499.28,-122.02C499.28,-139.37 499.28,-163 499.28,-163 499.28,-163 331.72,-163 331.72,-163"/>
<polygon fill="black" stroke="black" points="331.72,-159.5 321.72,-163 331.72,-166.5 331.72,-159.5"/>
</g>
<!-- JwtAuthGuard -->
<g id="node6" class="node">
<title>JwtAuthGuard</title>
<ellipse fill="#fdb462" stroke="black" cx="348" cy="-104" rx="67.78" ry="18"/>
<text text-anchor="middle" x="348" y="-99.8" font-family="Times,serif" font-size="14.00">JwtAuthGuard</text>
</g>
<!-- JwtAuthGuard&#45;&gt;AuthModule -->
<g id="edge5" class="edge">
<title>JwtAuthGuard&#45;&gt;AuthModule</title>
<path fill="none" stroke="black" d="M300.94,-117.15C300.94,-117.15 300.94,-140.69 300.94,-140.69"/>
<polygon fill="black" stroke="black" points="297.44,-140.69 300.94,-150.69 304.44,-140.69 297.44,-140.69"/>
</g>
<!-- JwtService -->
<g id="node7" class="node">
<title>JwtService</title>
<ellipse fill="#fdb462" stroke="black" cx="209" cy="-104" rx="53.31" ry="18"/>
<text text-anchor="middle" x="209" y="-99.8" font-family="Times,serif" font-size="14.00">JwtService</text>
</g>
<!-- JwtService&#45;&gt;AuthModule -->
<g id="edge6" class="edge">
<title>JwtService&#45;&gt;AuthModule</title>
<path fill="none" stroke="black" d="M248.31,-116.23C248.31,-116.23 248.31,-140.68 248.31,-140.68"/>
<polygon fill="black" stroke="black" points="244.81,-140.68 248.31,-150.68 251.81,-140.68 244.81,-140.68"/>
</g>
<!-- JwtStrategy -->
<g id="node8" class="node">
<title>JwtStrategy</title>
<ellipse fill="#fdb462" stroke="black" cx="81" cy="-104" rx="56.76" ry="18"/>
<text text-anchor="middle" x="81" y="-99.8" font-family="Times,serif" font-size="14.00">JwtStrategy</text>
</g>
<!-- JwtStrategy&#45;&gt;AuthModule -->
<g id="edge7" class="edge">
<title>JwtStrategy&#45;&gt;AuthModule</title>
<path fill="none" stroke="black" d="M79.29,-122.02C79.29,-139.37 79.29,-163 79.29,-163 79.29,-163 224.39,-163 224.39,-163"/>
<polygon fill="black" stroke="black" points="224.39,-166.5 234.39,-163 224.39,-159.5 224.39,-166.5"/>
</g>
</g>
</svg>
