<?xml version="1.0" encoding="UTF-8" standalone="no"?>
<!DOCTYPE svg PUBLIC "-//W3C//DTD SVG 1.1//EN"
 "http://www.w3.org/Graphics/SVG/1.1/DTD/svg11.dtd">
<!-- Generated by graphviz version 2.47.0 (20210316.0004)
 -->
<!-- Title: dependencies Pages: 1 -->
<svg width="1352pt" height="284pt"
 viewBox="0.00 0.00 1352.00 284.00" xmlns="http://www.w3.org/2000/svg" xmlns:xlink="http://www.w3.org/1999/xlink">
<g id="graph0" class="graph" transform="scale(1 1) rotate(0) translate(4 280)">
<title>dependencies</title>
<polygon fill="white" stroke="transparent" points="-4,4 -4,-280 1348,-280 1348,4 -4,4"/>
<text text-anchor="start" x="651.01" y="-42.4" font-family="Times-12" font-weight="bold" font-size="14.00">Legend</text>
<polygon fill="#ffffb3" stroke="transparent" points="438,-10 438,-30 458,-30 458,-10 438,-10"/>
<text text-anchor="start" x="461.63" y="-15.4" font-family="Times-12" font-size="14.00"> &#160;Declarations</text>
<polygon fill="#8dd3c7" stroke="transparent" points="551,-10 551,-30 571,-30 571,-10 551,-10"/>
<text text-anchor="start" x="574.73" y="-15.4" font-family="Times-12" font-size="14.00"> &#160;Module</text>
<polygon fill="#80b1d3" stroke="transparent" points="637,-10 637,-30 657,-30 657,-10 637,-10"/>
<text text-anchor="start" x="660.78" y="-15.4" font-family="Times-12" font-size="14.00"> &#160;Bootstrap</text>
<polygon fill="#fdb462" stroke="transparent" points="734,-10 734,-30 754,-30 754,-10 734,-10"/>
<text text-anchor="start" x="757.67" y="-15.4" font-family="Times-12" font-size="14.00"> &#160;Providers</text>
<polygon fill="#fb8072" stroke="transparent" points="830,-10 830,-30 850,-30 850,-10 830,-10"/>
<text text-anchor="start" x="853.73" y="-15.4" font-family="Times-12" font-size="14.00"> &#160;Exports</text>
<g id="clust1" class="cluster">
<title>cluster_AuthModule</title>
<polygon fill="none" stroke="black" stroke-dasharray="1,5" points="8,-70 8,-268 1336,-268 1336,-70 8,-70"/>
</g>
<g id="clust4" class="cluster">
<title>cluster_AuthModule_exports</title>
<polygon fill="none" stroke="black" points="562,-208 562,-260 882,-260 882,-208 562,-208"/>
</g>
<g id="clust3" class="cluster">
<title>cluster_AuthModule_imports</title>
<polygon fill="none" stroke="black" points="719,-78 719,-130 1328,-130 1328,-78 719,-78"/>
</g>
<g id="clust6" class="cluster">
<title>cluster_AuthModule_providers</title>
<polygon fill="none" stroke="black" points="16,-78 16,-130 711,-130 711,-78 16,-78"/>
</g>
<!-- CryptoModule -->
<g id="node1" class="node">
<title>CryptoModule</title>
<polygon fill="#8dd3c7" stroke="black" points="1320.44,-122 1317.44,-126 1296.44,-126 1293.44,-122 1221.56,-122 1221.56,-86 1320.44,-86 1320.44,-122"/>
<text text-anchor="middle" x="1271" y="-99.8" font-family="Times,serif" font-size="14.00">CryptoModule</text>
</g>
<!-- AuthModule -->
<g id="node6" class="node">
<title>AuthModule</title>
<polygon fill="#8dd3c7" stroke="black" points="757.55,-187 754.55,-191 733.55,-191 730.55,-187 670.45,-187 670.45,-151 757.55,-151 757.55,-187"/>
<text text-anchor="middle" x="714" y="-164.8" font-family="Times,serif" font-size="14.00">AuthModule</text>
</g>
<!-- CryptoModule&#45;&gt;AuthModule -->
<g id="edge1" class="edge">
<title>CryptoModule&#45;&gt;AuthModule</title>
<path fill="none" stroke="black" d="M1271,-122.28C1271,-143.32 1271,-175 1271,-175 1271,-175 767.71,-175 767.71,-175"/>
<polygon fill="black" stroke="black" points="767.71,-171.5 757.71,-175 767.71,-178.5 767.71,-171.5"/>
</g>
<!-- IssuerModule -->
<g id="node2" class="node">
<title>IssuerModule</title>
<polygon fill="#8dd3c7" stroke="black" points="1203.47,-122 1200.47,-126 1179.47,-126 1176.47,-122 1110.53,-122 1110.53,-86 1203.47,-86 1203.47,-122"/>
<text text-anchor="middle" x="1157" y="-99.8" font-family="Times,serif" font-size="14.00">IssuerModule</text>
</g>
<!-- IssuerModule&#45;&gt;AuthModule -->
<g id="edge2" class="edge">
<title>IssuerModule&#45;&gt;AuthModule</title>
<path fill="none" stroke="black" d="M1157,-122.11C1157,-141.34 1157,-169 1157,-169 1157,-169 767.69,-169 767.69,-169"/>
<polygon fill="black" stroke="black" points="767.69,-165.5 757.69,-169 767.69,-172.5 767.69,-165.5"/>
</g>
<!-- RegistrarModule -->
<g id="node3" class="node">
<title>RegistrarModule</title>
<polygon fill="#8dd3c7" stroke="black" points="1092.36,-122 1089.36,-126 1068.36,-126 1065.36,-122 981.64,-122 981.64,-86 1092.36,-86 1092.36,-122"/>
<text text-anchor="middle" x="1037" y="-99.8" font-family="Times,serif" font-size="14.00">RegistrarModule</text>
</g>
<!-- RegistrarModule&#45;&gt;AuthModule -->
<g id="edge3" class="edge">
<title>RegistrarModule&#45;&gt;AuthModule</title>
<path fill="none" stroke="black" d="M1037,-122.02C1037,-139.37 1037,-163 1037,-163 1037,-163 767.56,-163 767.56,-163"/>
<polygon fill="black" stroke="black" points="767.56,-159.5 757.56,-163 767.56,-166.5 767.56,-159.5"/>
</g>
<!-- SessionModule -->
<g id="node4" class="node">
<title>SessionModule</title>
<polygon fill="#8dd3c7" stroke="black" points="963.33,-122 960.33,-126 939.33,-126 936.33,-122 860.67,-122 860.67,-86 963.33,-86 963.33,-122"/>
<text text-anchor="middle" x="912" y="-99.8" font-family="Times,serif" font-size="14.00">SessionModule</text>
</g>
<!-- SessionModule&#45;&gt;AuthModule -->
<g id="edge4" class="edge">
<title>SessionModule&#45;&gt;AuthModule</title>
<path fill="none" stroke="black" d="M867.4,-122.24C867.4,-137.57 867.4,-157 867.4,-157 867.4,-157 767.96,-157 767.96,-157"/>
<polygon fill="black" stroke="black" points="767.96,-153.5 757.96,-157 767.96,-160.5 767.96,-153.5"/>
</g>
<!-- StatusListModule -->
<g id="node5" class="node">
<title>StatusListModule</title>
<polygon fill="#8dd3c7" stroke="black" points="842.55,-122 839.55,-126 818.55,-126 815.55,-122 727.45,-122 727.45,-86 842.55,-86 842.55,-122"/>
<text text-anchor="middle" x="785" y="-99.8" font-family="Times,serif" font-size="14.00">StatusListModule</text>
</g>
<!-- StatusListModule&#45;&gt;AuthModule -->
<g id="edge5" class="edge">
<title>StatusListModule&#45;&gt;AuthModule</title>
<path fill="none" stroke="black" d="M742.5,-122.11C742.5,-122.11 742.5,-140.99 742.5,-140.99"/>
<polygon fill="black" stroke="black" points="739,-140.99 742.5,-150.99 746,-140.99 739,-140.99"/>
</g>
<!-- JwtAuthGuard  -->
<g id="node7" class="node">
<title>JwtAuthGuard </title>
<polygon fill="#fb8072" stroke="black" points="873.92,-252 772.08,-252 772.08,-216 873.92,-216 873.92,-252"/>
<text text-anchor="middle" x="823" y="-229.8" font-family="Times,serif" font-size="14.00">JwtAuthGuard </text>
</g>
<!-- AuthModule&#45;&gt;JwtAuthGuard  -->
<g id="edge6" class="edge">
<title>AuthModule&#45;&gt;JwtAuthGuard </title>
<path fill="none" stroke="black" stroke-dasharray="5,2" d="M757.7,-181C782.01,-181 807.41,-181 807.41,-181 807.41,-181 807.41,-205.76 807.41,-205.76"/>
<polygon fill="black" stroke="black" points="803.91,-205.76 807.41,-215.76 810.91,-205.76 803.91,-205.76"/>
</g>
<!-- JwtService  -->
<g id="node8" class="node">
<title>JwtService </title>
<polygon fill="#fb8072" stroke="black" points="754.42,-252 673.58,-252 673.58,-216 754.42,-216 754.42,-252"/>
<text text-anchor="middle" x="714" y="-229.8" font-family="Times,serif" font-size="14.00">JwtService </text>
</g>
<!-- AuthModule&#45;&gt;JwtService  -->
<g id="edge7" class="edge">
<title>AuthModule&#45;&gt;JwtService </title>
<path fill="none" stroke="black" stroke-dasharray="5,2" d="M714,-187.11C714,-187.11 714,-205.99 714,-205.99"/>
<polygon fill="black" stroke="black" points="710.5,-205.99 714,-215.99 717.5,-205.99 710.5,-205.99"/>
</g>
<!-- JwtStrategy  -->
<g id="node9" class="node">
<title>JwtStrategy </title>
<polygon fill="#fb8072" stroke="black" points="655.6,-252 570.4,-252 570.4,-216 655.6,-216 655.6,-252"/>
<text text-anchor="middle" x="613" y="-229.8" font-family="Times,serif" font-size="14.00">JwtStrategy </text>
</g>
<!-- AuthModule&#45;&gt;JwtStrategy  -->
<g id="edge8" class="edge">
<title>AuthModule&#45;&gt;JwtStrategy </title>
<path fill="none" stroke="black" stroke-dasharray="5,2" d="M670.42,-181C645.93,-181 620.25,-181 620.25,-181 620.25,-181 620.25,-205.76 620.25,-205.76"/>
<polygon fill="black" stroke="black" points="616.75,-205.76 620.25,-215.76 623.75,-205.76 616.75,-205.76"/>
</g>
<!-- AuthService -->
<g id="node10" class="node">
<title>AuthService</title>
<ellipse fill="#fdb462" stroke="black" cx="644" cy="-104" rx="59.11" ry="18"/>
<text text-anchor="middle" x="644" y="-99.8" font-family="Times,serif" font-size="14.00">AuthService</text>
</g>
<!-- AuthService&#45;&gt;AuthModule -->
<g id="edge9" class="edge">
<title>AuthService&#45;&gt;AuthModule</title>
<path fill="none" stroke="black" d="M686.77,-116.53C686.77,-116.53 686.77,-140.85 686.77,-140.85"/>
<polygon fill="black" stroke="black" points="683.27,-140.85 686.77,-150.85 690.27,-140.85 683.27,-140.85"/>
</g>
<!-- JwtAuthGuard -->
<g id="node11" class="node">
<title>JwtAuthGuard</title>
<ellipse fill="#fdb462" stroke="black" cx="499" cy="-104" rx="67.78" ry="18"/>
<text text-anchor="middle" x="499" y="-99.8" font-family="Times,serif" font-size="14.00">JwtAuthGuard</text>
</g>
<!-- JwtAuthGuard&#45;&gt;AuthModule -->
<g id="edge10" class="edge">
<title>JwtAuthGuard&#45;&gt;AuthModule</title>
<path fill="none" stroke="black" d="M499,-122.24C499,-137.57 499,-157 499,-157 499,-157 660.23,-157 660.23,-157"/>
<polygon fill="black" stroke="black" points="660.23,-160.5 670.23,-157 660.23,-153.5 660.23,-160.5"/>
</g>
<!-- JwtService -->
<g id="node12" class="node">
<title>JwtService</title>
<ellipse fill="#fdb462" stroke="black" cx="360" cy="-104" rx="53.31" ry="18"/>
<text text-anchor="middle" x="360" y="-99.8" font-family="Times,serif" font-size="14.00">JwtService</text>
</g>
<!-- JwtService&#45;&gt;AuthModule -->
<g id="edge11" class="edge">
<title>JwtService&#45;&gt;AuthModule</title>
<path fill="none" stroke="black" d="M360,-122.02C360,-139.37 360,-163 360,-163 360,-163 660.24,-163 660.24,-163"/>
<polygon fill="black" stroke="black" points="660.24,-166.5 670.24,-163 660.24,-159.5 660.24,-166.5"/>
</g>
<!-- JwtStrategy -->
<g id="node13" class="node">
<title>JwtStrategy</title>
<ellipse fill="#fdb462" stroke="black" cx="232" cy="-104" rx="56.76" ry="18"/>
<text text-anchor="middle" x="232" y="-99.8" font-family="Times,serif" font-size="14.00">JwtStrategy</text>
</g>
<!-- JwtStrategy&#45;&gt;AuthModule -->
<g id="edge12" class="edge">
<title>JwtStrategy&#45;&gt;AuthModule</title>
<path fill="none" stroke="black" d="M232,-122.11C232,-141.34 232,-169 232,-169 232,-169 660.38,-169 660.38,-169"/>
<polygon fill="black" stroke="black" points="660.38,-172.5 670.38,-169 660.38,-165.5 660.38,-172.5"/>
</g>
<!-- TenantService -->
<g id="node14" class="node">
<title>TenantService</title>
<ellipse fill="#fdb462" stroke="black" cx="91" cy="-104" rx="66.61" ry="18"/>
<text text-anchor="middle" x="91" y="-99.8" font-family="Times,serif" font-size="14.00">TenantService</text>
</g>
<!-- TenantService&#45;&gt;AuthModule -->
<g id="edge13" class="edge">
<title>TenantService&#45;&gt;AuthModule</title>
<path fill="none" stroke="black" d="M91,-122.28C91,-143.32 91,-175 91,-175 91,-175 660.19,-175 660.19,-175"/>
<polygon fill="black" stroke="black" points="660.19,-178.5 670.19,-175 660.19,-171.5 660.19,-178.5"/>
</g>
</g>
</svg>
