<?xml version="1.0" encoding="UTF-8" standalone="no"?>
<!DOCTYPE svg PUBLIC "-//W3C//DTD SVG 1.1//EN"
 "http://www.w3.org/Graphics/SVG/1.1/DTD/svg11.dtd">
<!-- Generated by graphviz version 2.47.0 (20210316.0004)
 -->
<!-- Title: dependencies Pages: 1 -->
<svg width="978pt" height="284pt"
 viewBox="0.00 0.00 978.00 284.00" xmlns="http://www.w3.org/2000/svg" xmlns:xlink="http://www.w3.org/1999/xlink">
<g id="graph0" class="graph" transform="scale(1 1) rotate(0) translate(4 280)">
<title>dependencies</title>
<polygon fill="white" stroke="transparent" points="-4,4 -4,-280 974,-280 974,4 -4,4"/>
<text text-anchor="start" x="464.01" y="-42.4" font-family="Times-12" font-weight="bold" font-size="14.00">Legend</text>
<polygon fill="#ffffb3" stroke="transparent" points="251,-10 251,-30 271,-30 271,-10 251,-10"/>
<text text-anchor="start" x="274.63" y="-15.4" font-family="Times-12" font-size="14.00"> &#160;Declarations</text>
<polygon fill="#8dd3c7" stroke="transparent" points="364,-10 364,-30 384,-30 384,-10 364,-10"/>
<text text-anchor="start" x="387.73" y="-15.4" font-family="Times-12" font-size="14.00"> &#160;Module</text>
<polygon fill="#80b1d3" stroke="transparent" points="450,-10 450,-30 470,-30 470,-10 450,-10"/>
<text text-anchor="start" x="473.78" y="-15.4" font-family="Times-12" font-size="14.00"> &#160;Bootstrap</text>
<polygon fill="#fdb462" stroke="transparent" points="547,-10 547,-30 567,-30 567,-10 547,-10"/>
<text text-anchor="start" x="570.67" y="-15.4" font-family="Times-12" font-size="14.00"> &#160;Providers</text>
<polygon fill="#fb8072" stroke="transparent" points="643,-10 643,-30 663,-30 663,-10 643,-10"/>
<text text-anchor="start" x="666.73" y="-15.4" font-family="Times-12" font-size="14.00"> &#160;Exports</text>
<g id="clust1" class="cluster">
<title>cluster_AuthModule</title>
<polygon fill="none" stroke="black" stroke-dasharray="1,5" points="8,-70 8,-268 962,-268 962,-70 8,-70"/>
</g>
<g id="clust3" class="cluster">
<title>cluster_AuthModule_imports</title>
<polygon fill="none" stroke="black" points="577,-78 577,-130 954,-130 954,-78 577,-78"/>
</g>
<g id="clust6" class="cluster">
<title>cluster_AuthModule_providers</title>
<polygon fill="none" stroke="black" points="16,-78 16,-130 569,-130 569,-78 16,-78"/>
</g>
<g id="clust4" class="cluster">
<title>cluster_AuthModule_exports</title>
<polygon fill="none" stroke="black" points="345,-208 345,-260 665,-260 665,-208 345,-208"/>
</g>
<!-- CryptoModule -->
<g id="node1" class="node">
<title>CryptoModule</title>
<polygon fill="#8dd3c7" stroke="black" points="946.44,-122 943.44,-126 922.44,-126 919.44,-122 847.56,-122 847.56,-86 946.44,-86 946.44,-122"/>
<text text-anchor="middle" x="897" y="-99.8" font-family="Times,serif" font-size="14.00">CryptoModule</text>
</g>
<!-- AuthModule -->
<g id="node4" class="node">
<title>AuthModule</title>
<polygon fill="#8dd3c7" stroke="black" points="540.55,-187 537.55,-191 516.55,-191 513.55,-187 453.45,-187 453.45,-151 540.55,-151 540.55,-187"/>
<text text-anchor="middle" x="497" y="-164.8" font-family="Times,serif" font-size="14.00">AuthModule</text>
</g>
<!-- CryptoModule&#45;&gt;AuthModule -->
<g id="edge1" class="edge">
<title>CryptoModule&#45;&gt;AuthModule</title>
<path fill="none" stroke="black" d="M897,-122.13C897,-142.57 897,-173 897,-173 897,-173 550.57,-173 550.57,-173"/>
<polygon fill="black" stroke="black" points="550.57,-169.5 540.57,-173 550.57,-176.5 550.57,-169.5"/>
</g>
<!-- RegistrarModule -->
<g id="node2" class="node">
<title>RegistrarModule</title>
<polygon fill="#8dd3c7" stroke="black" points="829.36,-122 826.36,-126 805.36,-126 802.36,-122 718.64,-122 718.64,-86 829.36,-86 829.36,-122"/>
<text text-anchor="middle" x="774" y="-99.8" font-family="Times,serif" font-size="14.00">RegistrarModule</text>
</g>
<!-- RegistrarModule&#45;&gt;AuthModule -->
<g id="edge2" class="edge">
<title>RegistrarModule&#45;&gt;AuthModule</title>
<path fill="none" stroke="black" d="M774,-122.27C774,-140.56 774,-166 774,-166 774,-166 550.59,-166 550.59,-166"/>
<polygon fill="black" stroke="black" points="550.59,-162.5 540.59,-166 550.59,-169.5 550.59,-162.5"/>
</g>
<!-- StatusListModule -->
<g id="node3" class="node">
<title>StatusListModule</title>
<polygon fill="#8dd3c7" stroke="black" points="700.55,-122 697.55,-126 676.55,-126 673.55,-122 585.45,-122 585.45,-86 700.55,-86 700.55,-122"/>
<text text-anchor="middle" x="643" y="-99.8" font-family="Times,serif" font-size="14.00">StatusListModule</text>
</g>
<!-- StatusListModule&#45;&gt;AuthModule -->
<g id="edge3" class="edge">
<title>StatusListModule&#45;&gt;AuthModule</title>
<path fill="none" stroke="black" d="M621.09,-122.01C621.09,-138.05 621.09,-159 621.09,-159 621.09,-159 550.75,-159 550.75,-159"/>
<polygon fill="black" stroke="black" points="550.75,-155.5 540.75,-159 550.75,-162.5 550.75,-155.5"/>
</g>
<!-- JwtAuthGuard  -->
<g id="node5" class="node">
<title>JwtAuthGuard </title>
<polygon fill="#fb8072" stroke="black" points="656.92,-252 555.08,-252 555.08,-216 656.92,-216 656.92,-252"/>
<text text-anchor="middle" x="606" y="-229.8" font-family="Times,serif" font-size="14.00">JwtAuthGuard </text>
</g>
<!-- AuthModule&#45;&gt;JwtAuthGuard  -->
<g id="edge4" class="edge">
<title>AuthModule&#45;&gt;JwtAuthGuard </title>
<path fill="none" stroke="black" stroke-dasharray="5,2" d="M540.72,-180C557.59,-180 572.91,-180 572.91,-180 572.91,-180 572.91,-205.72 572.91,-205.72"/>
<polygon fill="black" stroke="black" points="569.41,-205.72 572.91,-215.72 576.41,-205.72 569.41,-205.72"/>
</g>
<!-- JwtService  -->
<g id="node6" class="node">
<title>JwtService </title>
<polygon fill="#fb8072" stroke="black" points="537.42,-252 456.58,-252 456.58,-216 537.42,-216 537.42,-252"/>
<text text-anchor="middle" x="497" y="-229.8" font-family="Times,serif" font-size="14.00">JwtService </text>
</g>
<!-- AuthModule&#45;&gt;JwtService  -->
<g id="edge5" class="edge">
<title>AuthModule&#45;&gt;JwtService </title>
<path fill="none" stroke="black" stroke-dasharray="5,2" d="M497,-187.11C497,-187.11 497,-205.99 497,-205.99"/>
<polygon fill="black" stroke="black" points="493.5,-205.99 497,-215.99 500.5,-205.99 493.5,-205.99"/>
</g>
<!-- JwtStrategy  -->
<g id="node7" class="node">
<title>JwtStrategy </title>
<polygon fill="#fb8072" stroke="black" points="438.6,-252 353.4,-252 353.4,-216 438.6,-216 438.6,-252"/>
<text text-anchor="middle" x="396" y="-229.8" font-family="Times,serif" font-size="14.00">JwtStrategy </text>
</g>
<!-- AuthModule&#45;&gt;JwtStrategy  -->
<g id="edge6" class="edge">
<title>AuthModule&#45;&gt;JwtStrategy </title>
<path fill="none" stroke="black" stroke-dasharray="5,2" d="M453.24,-180C438,-180 424.65,-180 424.65,-180 424.65,-180 424.65,-205.72 424.65,-205.72"/>
<polygon fill="black" stroke="black" points="421.15,-205.72 424.65,-215.72 428.15,-205.72 421.15,-205.72"/>
</g>
<!-- ClientService -->
<g id="node8" class="node">
<title>ClientService</title>
<ellipse fill="#fdb462" stroke="black" cx="497" cy="-104" rx="63.7" ry="18"/>
<text text-anchor="middle" x="497" y="-99.8" font-family="Times,serif" font-size="14.00">ClientService</text>
</g>
<!-- ClientService&#45;&gt;AuthModule -->
<g id="edge7" class="edge">
<title>ClientService&#45;&gt;AuthModule</title>
<path fill="none" stroke="black" d="M497,-122.11C497,-122.11 497,-140.99 497,-140.99"/>
<polygon fill="black" stroke="black" points="493.5,-140.99 497,-150.99 500.5,-140.99 493.5,-140.99"/>
</g>
<!-- JwtAuthGuard -->
<g id="node9" class="node">
<title>JwtAuthGuard</title>
<ellipse fill="#fdb462" stroke="black" cx="348" cy="-104" rx="67.78" ry="18"/>
<text text-anchor="middle" x="348" y="-99.8" font-family="Times,serif" font-size="14.00">JwtAuthGuard</text>
</g>
<!-- JwtAuthGuard&#45;&gt;AuthModule -->
<g id="edge8" class="edge">
<title>JwtAuthGuard&#45;&gt;AuthModule</title>
<path fill="none" stroke="black" d="M384.55,-119.32C384.55,-135.59 384.55,-159 384.55,-159 384.55,-159 443.2,-159 443.2,-159"/>
<polygon fill="black" stroke="black" points="443.2,-162.5 453.2,-159 443.2,-155.5 443.2,-162.5"/>
</g>
<!-- JwtService -->
<g id="node10" class="node">
<title>JwtService</title>
<ellipse fill="#fdb462" stroke="black" cx="209" cy="-104" rx="53.31" ry="18"/>
<text text-anchor="middle" x="209" y="-99.8" font-family="Times,serif" font-size="14.00">JwtService</text>
</g>
<!-- JwtService&#45;&gt;AuthModule -->
<g id="edge9" class="edge">
<title>JwtService&#45;&gt;AuthModule</title>
<path fill="none" stroke="black" d="M209,-122.27C209,-140.56 209,-166 209,-166 209,-166 443.26,-166 443.26,-166"/>
<polygon fill="black" stroke="black" points="443.26,-169.5 453.26,-166 443.26,-162.5 443.26,-169.5"/>
</g>
<!-- JwtStrategy -->
<g id="node11" class="node">
<title>JwtStrategy</title>
<ellipse fill="#fdb462" stroke="black" cx="81" cy="-104" rx="56.76" ry="18"/>
<text text-anchor="middle" x="81" y="-99.8" font-family="Times,serif" font-size="14.00">JwtStrategy</text>
</g>
<!-- JwtStrategy&#45;&gt;AuthModule -->
<g id="edge10" class="edge">
<title>JwtStrategy&#45;&gt;AuthModule</title>
<path fill="none" stroke="black" d="M81,-122.13C81,-142.57 81,-173 81,-173 81,-173 443.27,-173 443.27,-173"/>
<polygon fill="black" stroke="black" points="443.27,-176.5 453.27,-173 443.27,-169.5 443.27,-176.5"/>
</g>
</g>
</svg>
