<?xml version="1.0" encoding="UTF-8" standalone="no"?>
<!DOCTYPE svg PUBLIC "-//W3C//DTD SVG 1.1//EN"
 "http://www.w3.org/Graphics/SVG/1.1/DTD/svg11.dtd">
<!-- Generated by graphviz version 2.47.0 (20210316.0004)
 -->
<!-- Title: dependencies Pages: 1 -->
<svg width="1089pt" height="284pt"
 viewBox="0.00 0.00 1089.00 284.00" xmlns="http://www.w3.org/2000/svg" xmlns:xlink="http://www.w3.org/1999/xlink">
<g id="graph0" class="graph" transform="scale(1 1) rotate(0) translate(4 280)">
<title>dependencies</title>
<polygon fill="white" stroke="transparent" points="-4,4 -4,-280 1085,-280 1085,4 -4,4"/>
<text text-anchor="start" x="519.51" y="-42.4" font-family="Times-12" font-weight="bold" font-size="14.00">Legend</text>
<polygon fill="#ffffb3" stroke="transparent" points="306.5,-10 306.5,-30 326.5,-30 326.5,-10 306.5,-10"/>
<text text-anchor="start" x="330.13" y="-15.4" font-family="Times-12" font-size="14.00"> &#160;Declarations</text>
<polygon fill="#8dd3c7" stroke="transparent" points="419.5,-10 419.5,-30 439.5,-30 439.5,-10 419.5,-10"/>
<text text-anchor="start" x="443.23" y="-15.4" font-family="Times-12" font-size="14.00"> &#160;Module</text>
<polygon fill="#80b1d3" stroke="transparent" points="505.5,-10 505.5,-30 525.5,-30 525.5,-10 505.5,-10"/>
<text text-anchor="start" x="529.28" y="-15.4" font-family="Times-12" font-size="14.00"> &#160;Bootstrap</text>
<polygon fill="#fdb462" stroke="transparent" points="602.5,-10 602.5,-30 622.5,-30 622.5,-10 602.5,-10"/>
<text text-anchor="start" x="626.17" y="-15.4" font-family="Times-12" font-size="14.00"> &#160;Providers</text>
<polygon fill="#fb8072" stroke="transparent" points="698.5,-10 698.5,-30 718.5,-30 718.5,-10 698.5,-10"/>
<text text-anchor="start" x="722.23" y="-15.4" font-family="Times-12" font-size="14.00"> &#160;Exports</text>
<g id="clust1" class="cluster">
<title>cluster_AuthModule</title>
<polygon fill="none" stroke="black" stroke-dasharray="1,5" points="8,-70 8,-268 1073,-268 1073,-70 8,-70"/>
</g>
<g id="clust6" class="cluster">
<title>cluster_AuthModule_providers</title>
<polygon fill="none" stroke="black" points="512,-78 512,-130 1065,-130 1065,-78 512,-78"/>
</g>
<g id="clust3" class="cluster">
<title>cluster_AuthModule_imports</title>
<polygon fill="none" stroke="black" points="16,-78 16,-130 504,-130 504,-78 16,-78"/>
</g>
<g id="clust4" class="cluster">
<title>cluster_AuthModule_exports</title>
<polygon fill="none" stroke="black" points="360,-208 360,-260 680,-260 680,-208 360,-208"/>
</g>
<!-- CryptoModule -->
<g id="node1" class="node">
<title>CryptoModule</title>
<polygon fill="#8dd3c7" stroke="black" points="496.44,-122 493.44,-126 472.44,-126 469.44,-122 397.56,-122 397.56,-86 496.44,-86 496.44,-122"/>
<text text-anchor="middle" x="447" y="-99.8" font-family="Times,serif" font-size="14.00">CryptoModule</text>
</g>
<!-- AuthModule -->
<g id="node5" class="node">
<title>AuthModule</title>
<polygon fill="#8dd3c7" stroke="black" points="555.55,-187 552.55,-191 531.55,-191 528.55,-187 468.45,-187 468.45,-151 555.55,-151 555.55,-187"/>
<text text-anchor="middle" x="512" y="-164.8" font-family="Times,serif" font-size="14.00">AuthModule</text>
</g>
<!-- CryptoModule&#45;&gt;AuthModule -->
<g id="edge1" class="edge">
<title>CryptoModule&#45;&gt;AuthModule</title>
<path fill="none" stroke="black" d="M482.22,-122.11C482.22,-122.11 482.22,-140.99 482.22,-140.99"/>
<polygon fill="black" stroke="black" points="478.72,-140.99 482.22,-150.99 485.72,-140.99 478.72,-140.99"/>
</g>
<!-- IssuerModule -->
<g id="node2" class="node">
<title>IssuerModule</title>
<polygon fill="#8dd3c7" stroke="black" points="379.47,-122 376.47,-126 355.47,-126 352.47,-122 286.53,-122 286.53,-86 379.47,-86 379.47,-122"/>
<text text-anchor="middle" x="333" y="-99.8" font-family="Times,serif" font-size="14.00">IssuerModule</text>
</g>
<!-- IssuerModule&#45;&gt;AuthModule -->
<g id="edge2" class="edge">
<title>IssuerModule&#45;&gt;AuthModule</title>
<path fill="none" stroke="black" d="M373.84,-122.01C373.84,-138.05 373.84,-159 373.84,-159 373.84,-159 458.29,-159 458.29,-159"/>
<polygon fill="black" stroke="black" points="458.29,-162.5 468.29,-159 458.29,-155.5 458.29,-162.5"/>
</g>
<!-- RegistrarModule -->
<g id="node3" class="node">
<title>RegistrarModule</title>
<polygon fill="#8dd3c7" stroke="black" points="268.36,-122 265.36,-126 244.36,-126 241.36,-122 157.64,-122 157.64,-86 268.36,-86 268.36,-122"/>
<text text-anchor="middle" x="213" y="-99.8" font-family="Times,serif" font-size="14.00">RegistrarModule</text>
</g>
<!-- RegistrarModule&#45;&gt;AuthModule -->
<g id="edge3" class="edge">
<title>RegistrarModule&#45;&gt;AuthModule</title>
<path fill="none" stroke="black" d="M213,-122.27C213,-140.56 213,-166 213,-166 213,-166 458.2,-166 458.2,-166"/>
<polygon fill="black" stroke="black" points="458.2,-169.5 468.2,-166 458.2,-162.5 458.2,-169.5"/>
</g>
<!-- StatusListModule -->
<g id="node4" class="node">
<title>StatusListModule</title>
<polygon fill="#8dd3c7" stroke="black" points="139.55,-122 136.55,-126 115.55,-126 112.55,-122 24.45,-122 24.45,-86 139.55,-86 139.55,-122"/>
<text text-anchor="middle" x="82" y="-99.8" font-family="Times,serif" font-size="14.00">StatusListModule</text>
</g>
<!-- StatusListModule&#45;&gt;AuthModule -->
<g id="edge4" class="edge">
<title>StatusListModule&#45;&gt;AuthModule</title>
<path fill="none" stroke="black" d="M82,-122.13C82,-142.57 82,-173 82,-173 82,-173 458.4,-173 458.4,-173"/>
<polygon fill="black" stroke="black" points="458.4,-176.5 468.4,-173 458.4,-169.5 458.4,-176.5"/>
</g>
<!-- JwtAuthGuard  -->
<g id="node6" class="node">
<title>JwtAuthGuard </title>
<polygon fill="#fb8072" stroke="black" points="671.92,-252 570.08,-252 570.08,-216 671.92,-216 671.92,-252"/>
<text text-anchor="middle" x="621" y="-229.8" font-family="Times,serif" font-size="14.00">JwtAuthGuard </text>
</g>
<!-- AuthModule&#45;&gt;JwtAuthGuard  -->
<g id="edge5" class="edge">
<title>AuthModule&#45;&gt;JwtAuthGuard </title>
<path fill="none" stroke="black" stroke-dasharray="5,2" d="M555.6,-180C578.49,-180 601.83,-180 601.83,-180 601.83,-180 601.83,-205.72 601.83,-205.72"/>
<polygon fill="black" stroke="black" points="598.33,-205.72 601.83,-215.72 605.33,-205.72 598.33,-205.72"/>
</g>
<!-- JwtService  -->
<g id="node7" class="node">
<title>JwtService </title>
<polygon fill="#fb8072" stroke="black" points="552.42,-252 471.58,-252 471.58,-216 552.42,-216 552.42,-252"/>
<text text-anchor="middle" x="512" y="-229.8" font-family="Times,serif" font-size="14.00">JwtService </text>
</g>
<!-- AuthModule&#45;&gt;JwtService  -->
<g id="edge6" class="edge">
<title>AuthModule&#45;&gt;JwtService </title>
<path fill="none" stroke="black" stroke-dasharray="5,2" d="M512,-187.11C512,-187.11 512,-205.99 512,-205.99"/>
<polygon fill="black" stroke="black" points="508.5,-205.99 512,-215.99 515.5,-205.99 508.5,-205.99"/>
</g>
<!-- JwtStrategy  -->
<g id="node8" class="node">
<title>JwtStrategy </title>
<polygon fill="#fb8072" stroke="black" points="453.6,-252 368.4,-252 368.4,-216 453.6,-216 453.6,-252"/>
<text text-anchor="middle" x="411" y="-229.8" font-family="Times,serif" font-size="14.00">JwtStrategy </text>
</g>
<!-- AuthModule&#45;&gt;JwtStrategy  -->
<g id="edge7" class="edge">
<title>AuthModule&#45;&gt;JwtStrategy </title>
<path fill="none" stroke="black" stroke-dasharray="5,2" d="M468.39,-180C447.01,-180 425.79,-180 425.79,-180 425.79,-180 425.79,-205.72 425.79,-205.72"/>
<polygon fill="black" stroke="black" points="422.29,-205.72 425.79,-215.72 429.29,-205.72 422.29,-205.72"/>
</g>
<!-- ClientService -->
<g id="node9" class="node">
<title>ClientService</title>
<ellipse fill="#fdb462" stroke="black" cx="993" cy="-104" rx="63.7" ry="18"/>
<text text-anchor="middle" x="993" y="-99.8" font-family="Times,serif" font-size="14.00">ClientService</text>
</g>
<!-- ClientService&#45;&gt;AuthModule -->
<g id="edge8" class="edge">
<title>ClientService&#45;&gt;AuthModule</title>
<path fill="none" stroke="black" d="M993,-122.13C993,-142.57 993,-173 993,-173 993,-173 565.96,-173 565.96,-173"/>
<polygon fill="black" stroke="black" points="565.96,-169.5 555.96,-173 565.96,-176.5 565.96,-169.5"/>
</g>
<!-- JwtAuthGuard -->
<g id="node10" class="node">
<title>JwtAuthGuard</title>
<ellipse fill="#fdb462" stroke="black" cx="844" cy="-104" rx="67.78" ry="18"/>
<text text-anchor="middle" x="844" y="-99.8" font-family="Times,serif" font-size="14.00">JwtAuthGuard</text>
</g>
<!-- JwtAuthGuard&#45;&gt;AuthModule -->
<g id="edge9" class="edge">
<title>JwtAuthGuard&#45;&gt;AuthModule</title>
<path fill="none" stroke="black" d="M844,-122.27C844,-140.56 844,-166 844,-166 844,-166 565.74,-166 565.74,-166"/>
<polygon fill="black" stroke="black" points="565.74,-162.5 555.74,-166 565.74,-169.5 565.74,-162.5"/>
</g>
<!-- JwtService -->
<g id="node11" class="node">
<title>JwtService</title>
<ellipse fill="#fdb462" stroke="black" cx="705" cy="-104" rx="53.31" ry="18"/>
<text text-anchor="middle" x="705" y="-99.8" font-family="Times,serif" font-size="14.00">JwtService</text>
</g>
<!-- JwtService&#45;&gt;AuthModule -->
<g id="edge10" class="edge">
<title>JwtService&#45;&gt;AuthModule</title>
<path fill="none" stroke="black" d="M661.78,-114.6C661.78,-130.59 661.78,-159 661.78,-159 661.78,-159 565.72,-159 565.72,-159"/>
<polygon fill="black" stroke="black" points="565.72,-155.5 555.72,-159 565.72,-162.5 565.72,-155.5"/>
</g>
<!-- JwtStrategy -->
<g id="node12" class="node">
<title>JwtStrategy</title>
<ellipse fill="#fdb462" stroke="black" cx="577" cy="-104" rx="56.76" ry="18"/>
<text text-anchor="middle" x="577" y="-99.8" font-family="Times,serif" font-size="14.00">JwtStrategy</text>
</g>
<!-- JwtStrategy&#45;&gt;AuthModule -->
<g id="edge11" class="edge">
<title>JwtStrategy&#45;&gt;AuthModule</title>
<path fill="none" stroke="black" d="M538.07,-117.15C538.07,-117.15 538.07,-140.69 538.07,-140.69"/>
<polygon fill="black" stroke="black" points="534.57,-140.69 538.07,-150.69 541.57,-140.69 534.57,-140.69"/>
</g>
</g>
</svg>
