<?xml version="1.0" encoding="UTF-8" standalone="no"?>
<!DOCTYPE svg PUBLIC "-//W3C//DTD SVG 1.1//EN"
 "http://www.w3.org/Graphics/SVG/1.1/DTD/svg11.dtd">
<!-- Generated by graphviz version 2.47.0 (20210316.0004)
 -->
<!-- Title: dependencies Pages: 1 -->
<svg width="886pt" height="284pt"
 viewBox="0.00 0.00 886.00 284.00" xmlns="http://www.w3.org/2000/svg" xmlns:xlink="http://www.w3.org/1999/xlink">
<g id="graph0" class="graph" transform="scale(1 1) rotate(0) translate(4 280)">
<title>dependencies</title>
<polygon fill="white" stroke="transparent" points="-4,4 -4,-280 882,-280 882,4 -4,4"/>
<text text-anchor="start" x="418.01" y="-42.4" font-family="Times-12" font-weight="bold" font-size="14.00">Legend</text>
<polygon fill="#ffffb3" stroke="transparent" points="205,-10 205,-30 225,-30 225,-10 205,-10"/>
<text text-anchor="start" x="228.63" y="-15.4" font-family="Times-12" font-size="14.00"> &#160;Declarations</text>
<polygon fill="#8dd3c7" stroke="transparent" points="318,-10 318,-30 338,-30 338,-10 318,-10"/>
<text text-anchor="start" x="341.73" y="-15.4" font-family="Times-12" font-size="14.00"> &#160;Module</text>
<polygon fill="#80b1d3" stroke="transparent" points="404,-10 404,-30 424,-30 424,-10 404,-10"/>
<text text-anchor="start" x="427.78" y="-15.4" font-family="Times-12" font-size="14.00"> &#160;Bootstrap</text>
<polygon fill="#fdb462" stroke="transparent" points="501,-10 501,-30 521,-30 521,-10 501,-10"/>
<text text-anchor="start" x="524.67" y="-15.4" font-family="Times-12" font-size="14.00"> &#160;Providers</text>
<polygon fill="#fb8072" stroke="transparent" points="597,-10 597,-30 617,-30 617,-10 597,-10"/>
<text text-anchor="start" x="620.73" y="-15.4" font-family="Times-12" font-size="14.00"> &#160;Exports</text>
<g id="clust1" class="cluster">
<title>cluster_SessionModule</title>
<polygon fill="none" stroke="black" stroke-dasharray="1,5" points="8,-70 8,-268 870,-268 870,-70 8,-70"/>
</g>
<g id="clust6" class="cluster">
<title>cluster_SessionModule_providers</title>
<polygon fill="none" stroke="black" points="288,-78 288,-130 862,-130 862,-78 288,-78"/>
</g>
<g id="clust4" class="cluster">
<title>cluster_SessionModule_exports</title>
<polygon fill="none" stroke="black" points="90,-208 90,-260 667,-260 667,-208 90,-208"/>
</g>
<g id="clust3" class="cluster">
<title>cluster_SessionModule_imports</title>
<polygon fill="none" stroke="black" points="16,-78 16,-130 280,-130 280,-78 16,-78"/>
</g>
<!-- AuditLogModule -->
<g id="node1" class="node">
<title>AuditLogModule</title>
<polygon fill="#8dd3c7" stroke="black" points="271.99,-122 268.99,-126 247.99,-126 244.99,-122 158.01,-122 158.01,-86 271.99,-86 271.99,-122"/>
<text text-anchor="middle" x="215" y="-99.8" font-family="Times,serif" font-size="14.00">AuditLogModule</text>
</g>
<!-- SessionModule -->
<g id="node3" class="node">
<title>SessionModule</title>
<polygon fill="#8dd3c7" stroke="black" points="416.33,-187 413.33,-191 392.33,-191 389.33,-187 313.67,-187 313.67,-151 416.33,-151 416.33,-187"/>
<text text-anchor="middle" x="365" y="-164.8" font-family="Times,serif" font-size="14.00">SessionModule</text>
</g>
<!-- AuditLogModule&#45;&gt;SessionModule -->
<g id="edge1" class="edge">
<title>AuditLogModule&#45;&gt;SessionModule</title>
<path fill="none" stroke="black" d="M245.91,-122.03C245.91,-138.4 245.91,-160 245.91,-160 245.91,-160 303.8,-160 303.8,-160"/>
<polygon fill="black" stroke="black" points="303.8,-163.5 313.8,-160 303.8,-156.5 303.8,-163.5"/>
</g>
<!-- StatusListModule -->
<g id="node2" class="node">
<title>StatusListModule</title>
<polygon fill="#8dd3c7" stroke="black" points="139.55,-122 136.55,-126 115.55,-126 112.55,-122 24.45,-122 24.45,-86 139.55,-86 139.55,-122"/>
<text text-anchor="middle" x="82" y="-99.8" font-family="Times,serif" font-size="14.00">StatusListModule</text>
</g>
<!-- StatusListModule&#45;&gt;SessionModule -->
<g id="edge2" class="edge">
<title>StatusListModule&#45;&gt;SessionModule</title>
<path fill="none" stroke="black" d="M118.82,-122.11C118.82,-141.34 118.82,-169 118.82,-169 118.82,-169 303.69,-169 303.69,-169"/>
<polygon fill="black" stroke="black" points="303.69,-172.5 313.69,-169 303.69,-165.5 303.69,-172.5"/>
</g>
<!-- AuditLogModule  -->
<g id="node4" class="node">
<title>AuditLogModule </title>
<polygon fill="#fb8072" stroke="black" points="658.99,-252 541.01,-252 541.01,-216 658.99,-216 658.99,-252"/>
<text text-anchor="middle" x="600" y="-229.8" font-family="Times,serif" font-size="14.00">AuditLogModule </text>
</g>
<!-- SessionModule&#45;&gt;AuditLogModule  -->
<g id="edge3" class="edge">
<title>SessionModule&#45;&gt;AuditLogModule </title>
<path fill="none" stroke="black" stroke-dasharray="5,2" d="M416.34,-178C483.45,-178 592.52,-178 592.52,-178 592.52,-178 592.52,-205.97 592.52,-205.97"/>
<polygon fill="black" stroke="black" points="589.02,-205.97 592.52,-215.97 596.02,-205.97 589.02,-205.97"/>
</g>
<!-- SessionConfigService  -->
<g id="node5" class="node">
<title>SessionConfigService </title>
<polygon fill="#fb8072" stroke="black" points="523.64,-252 380.36,-252 380.36,-216 523.64,-216 523.64,-252"/>
<text text-anchor="middle" x="452" y="-229.8" font-family="Times,serif" font-size="14.00">SessionConfigService </text>
</g>
<!-- SessionModule&#45;&gt;SessionConfigService  -->
<g id="edge4" class="edge">
<title>SessionModule&#45;&gt;SessionConfigService </title>
<path fill="none" stroke="black" stroke-dasharray="5,2" d="M398.3,-187.11C398.3,-187.11 398.3,-205.99 398.3,-205.99"/>
<polygon fill="black" stroke="black" points="394.8,-205.99 398.3,-215.99 401.8,-205.99 394.8,-205.99"/>
</g>
<!-- SessionEventsService  -->
<g id="node6" class="node">
<title>SessionEventsService </title>
<polygon fill="#fb8072" stroke="black" points="362.36,-252 219.64,-252 219.64,-216 362.36,-216 362.36,-252"/>
<text text-anchor="middle" x="291" y="-229.8" font-family="Times,serif" font-size="14.00">SessionEventsService </text>
</g>
<!-- SessionModule&#45;&gt;SessionEventsService  -->
<g id="edge5" class="edge">
<title>SessionModule&#45;&gt;SessionEventsService </title>
<path fill="none" stroke="black" stroke-dasharray="5,2" d="M338.01,-187.11C338.01,-187.11 338.01,-205.99 338.01,-205.99"/>
<polygon fill="black" stroke="black" points="334.51,-205.99 338.01,-215.99 341.51,-205.99 334.51,-205.99"/>
</g>
<!-- SessionService  -->
<g id="node7" class="node">
<title>SessionService </title>
<polygon fill="#fb8072" stroke="black" points="202.25,-252 97.75,-252 97.75,-216 202.25,-216 202.25,-252"/>
<text text-anchor="middle" x="150" y="-229.8" font-family="Times,serif" font-size="14.00">SessionService </text>
</g>
<!-- SessionModule&#45;&gt;SessionService  -->
<g id="edge6" class="edge">
<title>SessionModule&#45;&gt;SessionService </title>
<path fill="none" stroke="black" stroke-dasharray="5,2" d="M313.49,-178C258.77,-178 180.07,-178 180.07,-178 180.07,-178 180.07,-205.97 180.07,-205.97"/>
<polygon fill="black" stroke="black" points="176.57,-205.97 180.07,-215.97 183.57,-205.97 176.57,-205.97"/>
</g>
<!-- SessionConfigService -->
<g id="node8" class="node">
<title>SessionConfigService</title>
<ellipse fill="#fdb462" stroke="black" cx="758" cy="-104" rx="96.15" ry="18"/>
<text text-anchor="middle" x="758" y="-99.8" font-family="Times,serif" font-size="14.00">SessionConfigService</text>
</g>
<!-- SessionConfigService&#45;&gt;SessionModule -->
<g id="edge7" class="edge">
<title>SessionConfigService&#45;&gt;SessionModule</title>
<path fill="none" stroke="black" d="M758,-122.11C758,-141.34 758,-169 758,-169 758,-169 426.38,-169 426.38,-169"/>
<polygon fill="black" stroke="black" points="426.38,-165.5 416.38,-169 426.38,-172.5 426.38,-165.5"/>
</g>
<!-- SessionEventsService -->
<g id="node9" class="node">
<title>SessionEventsService</title>
<ellipse fill="#fdb462" stroke="black" cx="548" cy="-104" rx="95.56" ry="18"/>
<text text-anchor="middle" x="548" y="-99.8" font-family="Times,serif" font-size="14.00">SessionEventsService</text>
</g>
<!-- SessionEventsService&#45;&gt;SessionModule -->
<g id="edge8" class="edge">
<title>SessionEventsService&#45;&gt;SessionModule</title>
<path fill="none" stroke="black" d="M487.9,-118.13C487.9,-134.72 487.9,-160 487.9,-160 487.9,-160 426.41,-160 426.41,-160"/>
<polygon fill="black" stroke="black" points="426.41,-156.5 416.41,-160 426.41,-163.5 426.41,-156.5"/>
</g>
<!-- SessionService -->
<g id="node10" class="node">
<title>SessionService</title>
<ellipse fill="#fdb462" stroke="black" cx="365" cy="-104" rx="69.5" ry="18"/>
<text text-anchor="middle" x="365" y="-99.8" font-family="Times,serif" font-size="14.00">SessionService</text>
</g>
<!-- SessionService&#45;&gt;SessionModule -->
<g id="edge9" class="edge">
<title>SessionService&#45;&gt;SessionModule</title>
<path fill="none" stroke="black" d="M365,-122.11C365,-122.11 365,-140.99 365,-140.99"/>
<polygon fill="black" stroke="black" points="361.5,-140.99 365,-150.99 368.5,-140.99 361.5,-140.99"/>
</g>
</g>
</svg>
