<?xml version="1.0" encoding="UTF-8" standalone="no"?>
<!DOCTYPE svg PUBLIC "-//W3C//DTD SVG 1.1//EN"
 "http://www.w3.org/Graphics/SVG/1.1/DTD/svg11.dtd">
<!-- Generated by graphviz version 2.47.0 (20210316.0004)
 -->
<!-- Title: dependencies Pages: 1 -->
<svg width="504pt" height="284pt"
 viewBox="0.00 0.00 504.00 284.00" xmlns="http://www.w3.org/2000/svg" xmlns:xlink="http://www.w3.org/1999/xlink">
<g id="graph0" class="graph" transform="scale(1 1) rotate(0) translate(4 280)">
<title>dependencies</title>
<polygon fill="white" stroke="transparent" points="-4,4 -4,-280 500,-280 500,4 -4,4"/>
<text text-anchor="start" x="227.01" y="-42.4" font-family="Times-12" font-weight="bold" font-size="14.00">Legend</text>
<polygon fill="#ffffb3" stroke="transparent" points="14,-10 14,-30 34,-30 34,-10 14,-10"/>
<text text-anchor="start" x="37.63" y="-15.4" font-family="Times-12" font-size="14.00"> &#160;Declarations</text>
<polygon fill="#8dd3c7" stroke="transparent" points="127,-10 127,-30 147,-30 147,-10 127,-10"/>
<text text-anchor="start" x="150.73" y="-15.4" font-family="Times-12" font-size="14.00"> &#160;Module</text>
<polygon fill="#80b1d3" stroke="transparent" points="213,-10 213,-30 233,-30 233,-10 213,-10"/>
<text text-anchor="start" x="236.78" y="-15.4" font-family="Times-12" font-size="14.00"> &#160;Bootstrap</text>
<polygon fill="#fdb462" stroke="transparent" points="310,-10 310,-30 330,-30 330,-10 310,-10"/>
<text text-anchor="start" x="333.67" y="-15.4" font-family="Times-12" font-size="14.00"> &#160;Providers</text>
<polygon fill="#fb8072" stroke="transparent" points="406,-10 406,-30 426,-30 426,-10 406,-10"/>
<text text-anchor="start" x="429.73" y="-15.4" font-family="Times-12" font-size="14.00"> &#160;Exports</text>
<g id="clust1" class="cluster">
<title>cluster_SessionModule</title>
<polygon fill="none" stroke="black" stroke-dasharray="1,5" points="34,-70 34,-268 462,-268 462,-70 34,-70"/>
</g>
<g id="clust6" class="cluster">
<title>cluster_SessionModule_providers</title>
<polygon fill="none" stroke="black" points="300,-78 300,-130 454,-130 454,-78 300,-78"/>
</g>
<g id="clust3" class="cluster">
<title>cluster_SessionModule_imports</title>
<polygon fill="none" stroke="black" points="42,-78 42,-130 292,-130 292,-78 42,-78"/>
</g>
<g id="clust4" class="cluster">
<title>cluster_SessionModule_exports</title>
<polygon fill="none" stroke="black" points="113,-208 113,-260 355,-260 355,-208 113,-208"/>
</g>
<!-- LoggerModule -->
<g id="node1" class="node">
<title>LoggerModule</title>
<polygon fill="#8dd3c7" stroke="black" points="283.98,-122 280.98,-126 259.98,-126 256.98,-122 184.02,-122 184.02,-86 283.98,-86 283.98,-122"/>
<text text-anchor="middle" x="234" y="-99.8" font-family="Times,serif" font-size="14.00">LoggerModule</text>
</g>
<!-- SessionModule -->
<g id="node3" class="node">
<title>SessionModule</title>
<polygon fill="#8dd3c7" stroke="black" points="285.33,-187 282.33,-191 261.33,-191 258.33,-187 182.67,-187 182.67,-151 285.33,-151 285.33,-187"/>
<text text-anchor="middle" x="234" y="-164.8" font-family="Times,serif" font-size="14.00">SessionModule</text>
</g>
<!-- LoggerModule&#45;&gt;SessionModule -->
<g id="edge1" class="edge">
<title>LoggerModule&#45;&gt;SessionModule</title>
<path fill="none" stroke="black" d="M234,-122.11C234,-122.11 234,-140.99 234,-140.99"/>
<polygon fill="black" stroke="black" points="230.5,-140.99 234,-150.99 237.5,-140.99 230.5,-140.99"/>
</g>
<!-- StatusListModule -->
<g id="node2" class="node">
<title>StatusListModule</title>
<polygon fill="#8dd3c7" stroke="black" points="165.55,-122 162.55,-126 141.55,-126 138.55,-122 50.45,-122 50.45,-86 165.55,-86 165.55,-122"/>
<text text-anchor="middle" x="108" y="-99.8" font-family="Times,serif" font-size="14.00">StatusListModule</text>
</g>
<!-- StatusListModule&#45;&gt;SessionModule -->
<g id="edge2" class="edge">
<title>StatusListModule&#45;&gt;SessionModule</title>
<path fill="none" stroke="black" d="M143.32,-122.11C143.32,-141.34 143.32,-169 143.32,-169 143.32,-169 172.83,-169 172.83,-169"/>
<polygon fill="black" stroke="black" points="172.83,-172.5 182.83,-169 172.83,-165.5 172.83,-172.5"/>
</g>
<!-- LoggerModule  -->
<g id="node4" class="node">
<title>LoggerModule </title>
<polygon fill="#fb8072" stroke="black" points="346.98,-252 243.02,-252 243.02,-216 346.98,-216 346.98,-252"/>
<text text-anchor="middle" x="295" y="-229.8" font-family="Times,serif" font-size="14.00">LoggerModule </text>
</g>
<!-- SessionModule&#45;&gt;LoggerModule  -->
<g id="edge3" class="edge">
<title>SessionModule&#45;&gt;LoggerModule </title>
<path fill="none" stroke="black" stroke-dasharray="5,2" d="M264.21,-187.11C264.21,-187.11 264.21,-205.99 264.21,-205.99"/>
<polygon fill="black" stroke="black" points="260.71,-205.99 264.21,-215.99 267.71,-205.99 260.71,-205.99"/>
</g>
<!-- SessionService  -->
<g id="node5" class="node">
<title>SessionService </title>
<polygon fill="#fb8072" stroke="black" points="225.25,-252 120.75,-252 120.75,-216 225.25,-216 225.25,-252"/>
<text text-anchor="middle" x="173" y="-229.8" font-family="Times,serif" font-size="14.00">SessionService </text>
</g>
<!-- SessionModule&#45;&gt;SessionService  -->
<g id="edge4" class="edge">
<title>SessionModule&#45;&gt;SessionService </title>
<path fill="none" stroke="black" stroke-dasharray="5,2" d="M203.98,-187.11C203.98,-187.11 203.98,-205.99 203.98,-205.99"/>
<polygon fill="black" stroke="black" points="200.48,-205.99 203.98,-215.99 207.48,-205.99 200.48,-205.99"/>
</g>
<!-- SessionService -->
<g id="node6" class="node">
<title>SessionService</title>
<ellipse fill="#fdb462" stroke="black" cx="377" cy="-104" rx="69.5" ry="18"/>
<text text-anchor="middle" x="377" y="-99.8" font-family="Times,serif" font-size="14.00">SessionService</text>
</g>
<!-- SessionService&#45;&gt;SessionModule -->
<g id="edge5" class="edge">
<title>SessionService&#45;&gt;SessionModule</title>
<path fill="none" stroke="black" d="M327.12,-116.84C327.12,-135.78 327.12,-169 327.12,-169 327.12,-169 295.19,-169 295.19,-169"/>
<polygon fill="black" stroke="black" points="295.19,-165.5 285.19,-169 295.19,-172.5 295.19,-165.5"/>
</g>
</g>
</svg>
