<?xml version="1.0" encoding="UTF-8" standalone="no"?>
<!DOCTYPE svg PUBLIC "-//W3C//DTD SVG 1.1//EN"
 "http://www.w3.org/Graphics/SVG/1.1/DTD/svg11.dtd">
<!-- Generated by graphviz version 2.47.0 (20210316.0004)
 -->
<!-- Title: dependencies Pages: 1 -->
<svg width="663pt" height="284pt"
 viewBox="0.00 0.00 663.00 284.00" xmlns="http://www.w3.org/2000/svg" xmlns:xlink="http://www.w3.org/1999/xlink">
<g id="graph0" class="graph" transform="scale(1 1) rotate(0) translate(4 280)">
<title>dependencies</title>
<polygon fill="white" stroke="transparent" points="-4,4 -4,-280 659,-280 659,4 -4,4"/>
<text text-anchor="start" x="306.51" y="-42.4" font-family="Times-12" font-weight="bold" font-size="14.00">Legend</text>
<polygon fill="#ffffb3" stroke="transparent" points="93.5,-10 93.5,-30 113.5,-30 113.5,-10 93.5,-10"/>
<text text-anchor="start" x="117.13" y="-15.4" font-family="Times-12" font-size="14.00"> &#160;Declarations</text>
<polygon fill="#8dd3c7" stroke="transparent" points="206.5,-10 206.5,-30 226.5,-30 226.5,-10 206.5,-10"/>
<text text-anchor="start" x="230.23" y="-15.4" font-family="Times-12" font-size="14.00"> &#160;Module</text>
<polygon fill="#80b1d3" stroke="transparent" points="292.5,-10 292.5,-30 312.5,-30 312.5,-10 292.5,-10"/>
<text text-anchor="start" x="316.28" y="-15.4" font-family="Times-12" font-size="14.00"> &#160;Bootstrap</text>
<polygon fill="#fdb462" stroke="transparent" points="389.5,-10 389.5,-30 409.5,-30 409.5,-10 389.5,-10"/>
<text text-anchor="start" x="413.17" y="-15.4" font-family="Times-12" font-size="14.00"> &#160;Providers</text>
<polygon fill="#fb8072" stroke="transparent" points="485.5,-10 485.5,-30 505.5,-30 505.5,-10 485.5,-10"/>
<text text-anchor="start" x="509.23" y="-15.4" font-family="Times-12" font-size="14.00"> &#160;Exports</text>
<g id="clust1" class="cluster">
<title>cluster_SessionModule</title>
<polygon fill="none" stroke="black" stroke-dasharray="1,5" points="8,-70 8,-268 647,-268 647,-70 8,-70"/>
</g>
<g id="clust3" class="cluster">
<title>cluster_SessionModule_imports</title>
<polygon fill="none" stroke="black" points="389,-78 389,-130 639,-130 639,-78 389,-78"/>
</g>
<g id="clust4" class="cluster">
<title>cluster_SessionModule_exports</title>
<polygon fill="none" stroke="black" points="155,-208 155,-260 558,-260 558,-208 155,-208"/>
</g>
<g id="clust6" class="cluster">
<title>cluster_SessionModule_providers</title>
<polygon fill="none" stroke="black" points="16,-78 16,-130 381,-130 381,-78 16,-78"/>
</g>
<!-- LoggerModule -->
<g id="node1" class="node">
<title>LoggerModule</title>
<polygon fill="#8dd3c7" stroke="black" points="630.98,-122 627.98,-126 606.98,-126 603.98,-122 531.02,-122 531.02,-86 630.98,-86 630.98,-122"/>
<text text-anchor="middle" x="581" y="-99.8" font-family="Times,serif" font-size="14.00">LoggerModule</text>
</g>
<!-- SessionModule -->
<g id="node3" class="node">
<title>SessionModule</title>
<polygon fill="#8dd3c7" stroke="black" points="408.33,-187 405.33,-191 384.33,-191 381.33,-187 305.67,-187 305.67,-151 408.33,-151 408.33,-187"/>
<text text-anchor="middle" x="357" y="-164.8" font-family="Times,serif" font-size="14.00">SessionModule</text>
</g>
<!-- LoggerModule&#45;&gt;SessionModule -->
<g id="edge1" class="edge">
<title>LoggerModule&#45;&gt;SessionModule</title>
<path fill="none" stroke="black" d="M540.38,-122.02C540.38,-139.37 540.38,-163 540.38,-163 540.38,-163 418.57,-163 418.57,-163"/>
<polygon fill="black" stroke="black" points="418.57,-159.5 408.57,-163 418.57,-166.5 418.57,-159.5"/>
</g>
<!-- StatusListModule -->
<g id="node2" class="node">
<title>StatusListModule</title>
<polygon fill="#8dd3c7" stroke="black" points="512.55,-122 509.55,-126 488.55,-126 485.55,-122 397.45,-122 397.45,-86 512.55,-86 512.55,-122"/>
<text text-anchor="middle" x="455" y="-99.8" font-family="Times,serif" font-size="14.00">StatusListModule</text>
</g>
<!-- StatusListModule&#45;&gt;SessionModule -->
<g id="edge2" class="edge">
<title>StatusListModule&#45;&gt;SessionModule</title>
<path fill="none" stroke="black" d="M402.69,-122.11C402.69,-122.11 402.69,-140.99 402.69,-140.99"/>
<polygon fill="black" stroke="black" points="399.19,-140.99 402.69,-150.99 406.19,-140.99 399.19,-140.99"/>
</g>
<!-- LoggerModule  -->
<g id="node4" class="node">
<title>LoggerModule </title>
<polygon fill="#fb8072" stroke="black" points="549.98,-252 446.02,-252 446.02,-216 549.98,-216 549.98,-252"/>
<text text-anchor="middle" x="498" y="-229.8" font-family="Times,serif" font-size="14.00">LoggerModule </text>
</g>
<!-- SessionModule&#45;&gt;LoggerModule  -->
<g id="edge3" class="edge">
<title>SessionModule&#45;&gt;LoggerModule </title>
<path fill="none" stroke="black" stroke-dasharray="5,2" d="M408.25,-175C441.82,-175 479.52,-175 479.52,-175 479.52,-175 479.52,-205.98 479.52,-205.98"/>
<polygon fill="black" stroke="black" points="476.02,-205.98 479.52,-215.98 483.02,-205.98 476.02,-205.98"/>
</g>
<!-- SessionConfigService  -->
<g id="node5" class="node">
<title>SessionConfigService </title>
<polygon fill="#fb8072" stroke="black" points="428.64,-252 285.36,-252 285.36,-216 428.64,-216 428.64,-252"/>
<text text-anchor="middle" x="357" y="-229.8" font-family="Times,serif" font-size="14.00">SessionConfigService </text>
</g>
<!-- SessionModule&#45;&gt;SessionConfigService  -->
<g id="edge4" class="edge">
<title>SessionModule&#45;&gt;SessionConfigService </title>
<path fill="none" stroke="black" stroke-dasharray="5,2" d="M357,-187.11C357,-187.11 357,-205.99 357,-205.99"/>
<polygon fill="black" stroke="black" points="353.5,-205.99 357,-215.99 360.5,-205.99 353.5,-205.99"/>
</g>
<!-- SessionService  -->
<g id="node6" class="node">
<title>SessionService </title>
<polygon fill="#fb8072" stroke="black" points="267.25,-252 162.75,-252 162.75,-216 267.25,-216 267.25,-252"/>
<text text-anchor="middle" x="215" y="-229.8" font-family="Times,serif" font-size="14.00">SessionService </text>
</g>
<!-- SessionModule&#45;&gt;SessionService  -->
<g id="edge5" class="edge">
<title>SessionModule&#45;&gt;SessionService </title>
<path fill="none" stroke="black" stroke-dasharray="5,2" d="M305.54,-175C268.09,-175 223.9,-175 223.9,-175 223.9,-175 223.9,-205.98 223.9,-205.98"/>
<polygon fill="black" stroke="black" points="220.4,-205.98 223.9,-215.98 227.4,-205.98 220.4,-205.98"/>
</g>
<!-- SessionConfigService -->
<g id="node7" class="node">
<title>SessionConfigService</title>
<ellipse fill="#fdb462" stroke="black" cx="277" cy="-104" rx="96.15" ry="18"/>
<text text-anchor="middle" x="277" y="-99.8" font-family="Times,serif" font-size="14.00">SessionConfigService</text>
</g>
<!-- SessionConfigService&#45;&gt;SessionModule -->
<g id="edge6" class="edge">
<title>SessionConfigService&#45;&gt;SessionModule</title>
<path fill="none" stroke="black" d="M339.58,-117.78C339.58,-117.78 339.58,-140.55 339.58,-140.55"/>
<polygon fill="black" stroke="black" points="336.08,-140.55 339.58,-150.55 343.08,-140.55 336.08,-140.55"/>
</g>
<!-- SessionService -->
<g id="node8" class="node">
<title>SessionService</title>
<ellipse fill="#fdb462" stroke="black" cx="93" cy="-104" rx="69.5" ry="18"/>
<text text-anchor="middle" x="93" y="-99.8" font-family="Times,serif" font-size="14.00">SessionService</text>
</g>
<!-- SessionService&#45;&gt;SessionModule -->
<g id="edge7" class="edge">
<title>SessionService&#45;&gt;SessionModule</title>
<path fill="none" stroke="black" d="M93,-122.02C93,-139.37 93,-163 93,-163 93,-163 295.79,-163 295.79,-163"/>
<polygon fill="black" stroke="black" points="295.79,-166.5 305.79,-163 295.79,-159.5 295.79,-166.5"/>
</g>
</g>
</svg>
