<?xml version="1.0" encoding="UTF-8" standalone="no"?>
<!DOCTYPE svg PUBLIC "-//W3C//DTD SVG 1.1//EN"
 "http://www.w3.org/Graphics/SVG/1.1/DTD/svg11.dtd">
<!-- Generated by graphviz version 2.47.0 (20210316.0004)
 -->
<!-- Title: dependencies Pages: 1 -->
<svg width="872pt" height="284pt"
 viewBox="0.00 0.00 872.00 284.00" xmlns="http://www.w3.org/2000/svg" xmlns:xlink="http://www.w3.org/1999/xlink">
<g id="graph0" class="graph" transform="scale(1 1) rotate(0) translate(4 280)">
<title>dependencies</title>
<polygon fill="white" stroke="transparent" points="-4,4 -4,-280 868,-280 868,4 -4,4"/>
<text text-anchor="start" x="411.01" y="-42.4" font-family="Times-12" font-weight="bold" font-size="14.00">Legend</text>
<polygon fill="#ffffb3" stroke="transparent" points="198,-10 198,-30 218,-30 218,-10 198,-10"/>
<text text-anchor="start" x="221.63" y="-15.4" font-family="Times-12" font-size="14.00"> &#160;Declarations</text>
<polygon fill="#8dd3c7" stroke="transparent" points="311,-10 311,-30 331,-30 331,-10 311,-10"/>
<text text-anchor="start" x="334.73" y="-15.4" font-family="Times-12" font-size="14.00"> &#160;Module</text>
<polygon fill="#80b1d3" stroke="transparent" points="397,-10 397,-30 417,-30 417,-10 397,-10"/>
<text text-anchor="start" x="420.78" y="-15.4" font-family="Times-12" font-size="14.00"> &#160;Bootstrap</text>
<polygon fill="#fdb462" stroke="transparent" points="494,-10 494,-30 514,-30 514,-10 494,-10"/>
<text text-anchor="start" x="517.67" y="-15.4" font-family="Times-12" font-size="14.00"> &#160;Providers</text>
<polygon fill="#fb8072" stroke="transparent" points="590,-10 590,-30 610,-30 610,-10 590,-10"/>
<text text-anchor="start" x="613.73" y="-15.4" font-family="Times-12" font-size="14.00"> &#160;Exports</text>
<g id="clust1" class="cluster">
<title>cluster_SessionModule</title>
<polygon fill="none" stroke="black" stroke-dasharray="1,5" points="8,-70 8,-268 856,-268 856,-70 8,-70"/>
</g>
<g id="clust6" class="cluster">
<title>cluster_SessionModule_providers</title>
<polygon fill="none" stroke="black" points="274,-78 274,-130 848,-130 848,-78 274,-78"/>
</g>
<g id="clust4" class="cluster">
<title>cluster_SessionModule_exports</title>
<polygon fill="none" stroke="black" points="83,-208 83,-260 646,-260 646,-208 83,-208"/>
</g>
<g id="clust3" class="cluster">
<title>cluster_SessionModule_imports</title>
<polygon fill="none" stroke="black" points="16,-78 16,-130 266,-130 266,-78 16,-78"/>
</g>
<!-- LoggerModule -->
<g id="node1" class="node">
<title>LoggerModule</title>
<polygon fill="#8dd3c7" stroke="black" points="257.98,-122 254.98,-126 233.98,-126 230.98,-122 158.02,-122 158.02,-86 257.98,-86 257.98,-122"/>
<text text-anchor="middle" x="208" y="-99.8" font-family="Times,serif" font-size="14.00">LoggerModule</text>
</g>
<!-- SessionModule -->
<g id="node3" class="node">
<title>SessionModule</title>
<polygon fill="#8dd3c7" stroke="black" points="402.33,-187 399.33,-191 378.33,-191 375.33,-187 299.67,-187 299.67,-151 402.33,-151 402.33,-187"/>
<text text-anchor="middle" x="351" y="-164.8" font-family="Times,serif" font-size="14.00">SessionModule</text>
</g>
<!-- LoggerModule&#45;&gt;SessionModule -->
<g id="edge1" class="edge">
<title>LoggerModule&#45;&gt;SessionModule</title>
<path fill="none" stroke="black" d="M235.41,-122.03C235.41,-138.4 235.41,-160 235.41,-160 235.41,-160 289.63,-160 289.63,-160"/>
<polygon fill="black" stroke="black" points="289.63,-163.5 299.63,-160 289.63,-156.5 289.63,-163.5"/>
</g>
<!-- StatusListModule -->
<g id="node2" class="node">
<title>StatusListModule</title>
<polygon fill="#8dd3c7" stroke="black" points="139.55,-122 136.55,-126 115.55,-126 112.55,-122 24.45,-122 24.45,-86 139.55,-86 139.55,-122"/>
<text text-anchor="middle" x="82" y="-99.8" font-family="Times,serif" font-size="14.00">StatusListModule</text>
</g>
<!-- StatusListModule&#45;&gt;SessionModule -->
<g id="edge2" class="edge">
<title>StatusListModule&#45;&gt;SessionModule</title>
<path fill="none" stroke="black" d="M115.32,-122.11C115.32,-141.34 115.32,-169 115.32,-169 115.32,-169 289.57,-169 289.57,-169"/>
<polygon fill="black" stroke="black" points="289.57,-172.5 299.57,-169 289.57,-165.5 289.57,-172.5"/>
</g>
<!-- LoggerModule  -->
<g id="node4" class="node">
<title>LoggerModule </title>
<polygon fill="#fb8072" stroke="black" points="637.98,-252 534.02,-252 534.02,-216 637.98,-216 637.98,-252"/>
<text text-anchor="middle" x="586" y="-229.8" font-family="Times,serif" font-size="14.00">LoggerModule </text>
</g>
<!-- SessionModule&#45;&gt;LoggerModule  -->
<g id="edge3" class="edge">
<title>SessionModule&#45;&gt;LoggerModule </title>
<path fill="none" stroke="black" stroke-dasharray="5,2" d="M402.27,-178C470.33,-178 582.02,-178 582.02,-178 582.02,-178 582.02,-205.97 582.02,-205.97"/>
<polygon fill="black" stroke="black" points="578.52,-205.97 582.02,-215.97 585.52,-205.97 578.52,-205.97"/>
</g>
<!-- SessionConfigService  -->
<g id="node5" class="node">
<title>SessionConfigService </title>
<polygon fill="#fb8072" stroke="black" points="516.64,-252 373.36,-252 373.36,-216 516.64,-216 516.64,-252"/>
<text text-anchor="middle" x="445" y="-229.8" font-family="Times,serif" font-size="14.00">SessionConfigService </text>
</g>
<!-- SessionModule&#45;&gt;SessionConfigService  -->
<g id="edge4" class="edge">
<title>SessionModule&#45;&gt;SessionConfigService </title>
<path fill="none" stroke="black" stroke-dasharray="5,2" d="M387.8,-187.11C387.8,-187.11 387.8,-205.99 387.8,-205.99"/>
<polygon fill="black" stroke="black" points="384.3,-205.99 387.8,-215.99 391.3,-205.99 384.3,-205.99"/>
</g>
<!-- SessionEventsService  -->
<g id="node6" class="node">
<title>SessionEventsService </title>
<polygon fill="#fb8072" stroke="black" points="355.36,-252 212.64,-252 212.64,-216 355.36,-216 355.36,-252"/>
<text text-anchor="middle" x="284" y="-229.8" font-family="Times,serif" font-size="14.00">SessionEventsService </text>
</g>
<!-- SessionModule&#45;&gt;SessionEventsService  -->
<g id="edge5" class="edge">
<title>SessionModule&#45;&gt;SessionEventsService </title>
<path fill="none" stroke="black" stroke-dasharray="5,2" d="M327.51,-187.11C327.51,-187.11 327.51,-205.99 327.51,-205.99"/>
<polygon fill="black" stroke="black" points="324.01,-205.99 327.51,-215.99 331.01,-205.99 324.01,-205.99"/>
</g>
<!-- SessionService  -->
<g id="node7" class="node">
<title>SessionService </title>
<polygon fill="#fb8072" stroke="black" points="195.25,-252 90.75,-252 90.75,-216 195.25,-216 195.25,-252"/>
<text text-anchor="middle" x="143" y="-229.8" font-family="Times,serif" font-size="14.00">SessionService </text>
</g>
<!-- SessionModule&#45;&gt;SessionService  -->
<g id="edge6" class="edge">
<title>SessionModule&#45;&gt;SessionService </title>
<path fill="none" stroke="black" stroke-dasharray="5,2" d="M299.61,-178C248.16,-178 176.57,-178 176.57,-178 176.57,-178 176.57,-205.97 176.57,-205.97"/>
<polygon fill="black" stroke="black" points="173.07,-205.97 176.57,-215.97 180.07,-205.97 173.07,-205.97"/>
</g>
<!-- SessionConfigService -->
<g id="node8" class="node">
<title>SessionConfigService</title>
<ellipse fill="#fdb462" stroke="black" cx="744" cy="-104" rx="96.15" ry="18"/>
<text text-anchor="middle" x="744" y="-99.8" font-family="Times,serif" font-size="14.00">SessionConfigService</text>
</g>
<!-- SessionConfigService&#45;&gt;SessionModule -->
<g id="edge7" class="edge">
<title>SessionConfigService&#45;&gt;SessionModule</title>
<path fill="none" stroke="black" d="M744,-122.11C744,-141.34 744,-169 744,-169 744,-169 412.38,-169 412.38,-169"/>
<polygon fill="black" stroke="black" points="412.38,-165.5 402.38,-169 412.38,-172.5 412.38,-165.5"/>
</g>
<!-- SessionEventsService -->
<g id="node9" class="node">
<title>SessionEventsService</title>
<ellipse fill="#fdb462" stroke="black" cx="534" cy="-104" rx="95.56" ry="18"/>
<text text-anchor="middle" x="534" y="-99.8" font-family="Times,serif" font-size="14.00">SessionEventsService</text>
</g>
<!-- SessionEventsService&#45;&gt;SessionModule -->
<g id="edge8" class="edge">
<title>SessionEventsService&#45;&gt;SessionModule</title>
<path fill="none" stroke="black" d="M477.4,-118.71C477.4,-135.31 477.4,-160 477.4,-160 477.4,-160 412.41,-160 412.41,-160"/>
<polygon fill="black" stroke="black" points="412.41,-156.5 402.41,-160 412.41,-163.5 412.41,-156.5"/>
</g>
<!-- SessionService -->
<g id="node10" class="node">
<title>SessionService</title>
<ellipse fill="#fdb462" stroke="black" cx="351" cy="-104" rx="69.5" ry="18"/>
<text text-anchor="middle" x="351" y="-99.8" font-family="Times,serif" font-size="14.00">SessionService</text>
</g>
<!-- SessionService&#45;&gt;SessionModule -->
<g id="edge9" class="edge">
<title>SessionService&#45;&gt;SessionModule</title>
<path fill="none" stroke="black" d="M351,-122.11C351,-122.11 351,-140.99 351,-140.99"/>
<polygon fill="black" stroke="black" points="347.5,-140.99 351,-150.99 354.5,-140.99 347.5,-140.99"/>
</g>
</g>
</svg>
