<?xml version="1.0" encoding="UTF-8" standalone="no"?>
<!DOCTYPE svg PUBLIC "-//W3C//DTD SVG 1.1//EN"
 "http://www.w3.org/Graphics/SVG/1.1/DTD/svg11.dtd">
<!-- Generated by graphviz version 2.47.0 (20210316.0004)
 -->
<!-- Title: dependencies Pages: 1 -->
<svg width="504pt" height="284pt"
 viewBox="0.00 0.00 504.00 284.00" xmlns="http://www.w3.org/2000/svg" xmlns:xlink="http://www.w3.org/1999/xlink">
<g id="graph0" class="graph" transform="scale(1 1) rotate(0) translate(4 280)">
<title>dependencies</title>
<polygon fill="white" stroke="transparent" points="-4,4 -4,-280 500,-280 500,4 -4,4"/>
<text text-anchor="start" x="227.01" y="-42.4" font-family="Times-12" font-weight="bold" font-size="14.00">Legend</text>
<polygon fill="#ffffb3" stroke="transparent" points="14,-10 14,-30 34,-30 34,-10 14,-10"/>
<text text-anchor="start" x="37.63" y="-15.4" font-family="Times-12" font-size="14.00"> &#160;Declarations</text>
<polygon fill="#8dd3c7" stroke="transparent" points="127,-10 127,-30 147,-30 147,-10 127,-10"/>
<text text-anchor="start" x="150.73" y="-15.4" font-family="Times-12" font-size="14.00"> &#160;Module</text>
<polygon fill="#80b1d3" stroke="transparent" points="213,-10 213,-30 233,-30 233,-10 213,-10"/>
<text text-anchor="start" x="236.78" y="-15.4" font-family="Times-12" font-size="14.00"> &#160;Bootstrap</text>
<polygon fill="#fdb462" stroke="transparent" points="310,-10 310,-30 330,-30 330,-10 310,-10"/>
<text text-anchor="start" x="333.67" y="-15.4" font-family="Times-12" font-size="14.00"> &#160;Providers</text>
<polygon fill="#fb8072" stroke="transparent" points="406,-10 406,-30 426,-30 426,-10 406,-10"/>
<text text-anchor="start" x="429.73" y="-15.4" font-family="Times-12" font-size="14.00"> &#160;Exports</text>
<g id="clust1" class="cluster">
<title>cluster_SessionModule</title>
<polygon fill="none" stroke="black" stroke-dasharray="1,5" points="34,-70 34,-268 462,-268 462,-70 34,-70"/>
</g>
<g id="clust3" class="cluster">
<title>cluster_SessionModule_imports</title>
<polygon fill="none" stroke="black" points="204,-78 204,-130 454,-130 454,-78 204,-78"/>
</g>
<g id="clust6" class="cluster">
<title>cluster_SessionModule_providers</title>
<polygon fill="none" stroke="black" points="42,-78 42,-130 196,-130 196,-78 42,-78"/>
</g>
<g id="clust4" class="cluster">
<title>cluster_SessionModule_exports</title>
<polygon fill="none" stroke="black" points="149,-208 149,-260 391,-260 391,-208 149,-208"/>
</g>
<!-- LoggerModule -->
<g id="node1" class="node">
<title>LoggerModule</title>
<polygon fill="#8dd3c7" stroke="black" points="445.98,-122 442.98,-126 421.98,-126 418.98,-122 346.02,-122 346.02,-86 445.98,-86 445.98,-122"/>
<text text-anchor="middle" x="396" y="-99.8" font-family="Times,serif" font-size="14.00">LoggerModule</text>
</g>
<!-- SessionModule -->
<g id="node3" class="node">
<title>SessionModule</title>
<polygon fill="#8dd3c7" stroke="black" points="321.33,-187 318.33,-191 297.33,-191 294.33,-187 218.67,-187 218.67,-151 321.33,-151 321.33,-187"/>
<text text-anchor="middle" x="270" y="-164.8" font-family="Times,serif" font-size="14.00">SessionModule</text>
</g>
<!-- LoggerModule&#45;&gt;SessionModule -->
<g id="edge1" class="edge">
<title>LoggerModule&#45;&gt;SessionModule</title>
<path fill="none" stroke="black" d="M364.38,-122.11C364.38,-141.34 364.38,-169 364.38,-169 364.38,-169 331.33,-169 331.33,-169"/>
<polygon fill="black" stroke="black" points="331.33,-165.5 321.33,-169 331.33,-172.5 331.33,-165.5"/>
</g>
<!-- StatusListModule -->
<g id="node2" class="node">
<title>StatusListModule</title>
<polygon fill="#8dd3c7" stroke="black" points="327.55,-122 324.55,-126 303.55,-126 300.55,-122 212.45,-122 212.45,-86 327.55,-86 327.55,-122"/>
<text text-anchor="middle" x="270" y="-99.8" font-family="Times,serif" font-size="14.00">StatusListModule</text>
</g>
<!-- StatusListModule&#45;&gt;SessionModule -->
<g id="edge2" class="edge">
<title>StatusListModule&#45;&gt;SessionModule</title>
<path fill="none" stroke="black" d="M270,-122.11C270,-122.11 270,-140.99 270,-140.99"/>
<polygon fill="black" stroke="black" points="266.5,-140.99 270,-150.99 273.5,-140.99 266.5,-140.99"/>
</g>
<!-- LoggerModule  -->
<g id="node4" class="node">
<title>LoggerModule </title>
<polygon fill="#fb8072" stroke="black" points="382.98,-252 279.02,-252 279.02,-216 382.98,-216 382.98,-252"/>
<text text-anchor="middle" x="331" y="-229.8" font-family="Times,serif" font-size="14.00">LoggerModule </text>
</g>
<!-- SessionModule&#45;&gt;LoggerModule  -->
<g id="edge3" class="edge">
<title>SessionModule&#45;&gt;LoggerModule </title>
<path fill="none" stroke="black" stroke-dasharray="5,2" d="M300.21,-187.11C300.21,-187.11 300.21,-205.99 300.21,-205.99"/>
<polygon fill="black" stroke="black" points="296.71,-205.99 300.21,-215.99 303.71,-205.99 296.71,-205.99"/>
</g>
<!-- SessionService  -->
<g id="node5" class="node">
<title>SessionService </title>
<polygon fill="#fb8072" stroke="black" points="261.25,-252 156.75,-252 156.75,-216 261.25,-216 261.25,-252"/>
<text text-anchor="middle" x="209" y="-229.8" font-family="Times,serif" font-size="14.00">SessionService </text>
</g>
<!-- SessionModule&#45;&gt;SessionService  -->
<g id="edge4" class="edge">
<title>SessionModule&#45;&gt;SessionService </title>
<path fill="none" stroke="black" stroke-dasharray="5,2" d="M239.98,-187.11C239.98,-187.11 239.98,-205.99 239.98,-205.99"/>
<polygon fill="black" stroke="black" points="236.48,-205.99 239.98,-215.99 243.48,-205.99 236.48,-205.99"/>
</g>
<!-- SessionService -->
<g id="node6" class="node">
<title>SessionService</title>
<ellipse fill="#fdb462" stroke="black" cx="119" cy="-104" rx="69.5" ry="18"/>
<text text-anchor="middle" x="119" y="-99.8" font-family="Times,serif" font-size="14.00">SessionService</text>
</g>
<!-- SessionService&#45;&gt;SessionModule -->
<g id="edge5" class="edge">
<title>SessionService&#45;&gt;SessionModule</title>
<path fill="none" stroke="black" d="M172.69,-115.62C172.69,-134.32 172.69,-169 172.69,-169 172.69,-169 208.78,-169 208.78,-169"/>
<polygon fill="black" stroke="black" points="208.78,-172.5 218.78,-169 208.78,-165.5 208.78,-172.5"/>
</g>
</g>
</svg>
