<?xml version="1.0" encoding="UTF-8" standalone="no"?>
<!DOCTYPE svg PUBLIC "-//W3C//DTD SVG 1.1//EN"
 "http://www.w3.org/Graphics/SVG/1.1/DTD/svg11.dtd">
<!-- Generated by graphviz version 2.47.0 (20210316.0004)
 -->
<!-- Title: dependencies Pages: 1 -->
<svg width="504pt" height="284pt"
 viewBox="0.00 0.00 504.00 284.00" xmlns="http://www.w3.org/2000/svg" xmlns:xlink="http://www.w3.org/1999/xlink">
<g id="graph0" class="graph" transform="scale(1 1) rotate(0) translate(4 280)">
<title>dependencies</title>
<polygon fill="white" stroke="transparent" points="-4,4 -4,-280 500,-280 500,4 -4,4"/>
<text text-anchor="start" x="227.01" y="-42.4" font-family="Times-12" font-weight="bold" font-size="14.00">Legend</text>
<polygon fill="#ffffb3" stroke="transparent" points="14,-10 14,-30 34,-30 34,-10 14,-10"/>
<text text-anchor="start" x="37.63" y="-15.4" font-family="Times-12" font-size="14.00"> &#160;Declarations</text>
<polygon fill="#8dd3c7" stroke="transparent" points="127,-10 127,-30 147,-30 147,-10 127,-10"/>
<text text-anchor="start" x="150.73" y="-15.4" font-family="Times-12" font-size="14.00"> &#160;Module</text>
<polygon fill="#80b1d3" stroke="transparent" points="213,-10 213,-30 233,-30 233,-10 213,-10"/>
<text text-anchor="start" x="236.78" y="-15.4" font-family="Times-12" font-size="14.00"> &#160;Bootstrap</text>
<polygon fill="#fdb462" stroke="transparent" points="310,-10 310,-30 330,-30 330,-10 310,-10"/>
<text text-anchor="start" x="333.67" y="-15.4" font-family="Times-12" font-size="14.00"> &#160;Providers</text>
<polygon fill="#fb8072" stroke="transparent" points="406,-10 406,-30 426,-30 426,-10 406,-10"/>
<text text-anchor="start" x="429.73" y="-15.4" font-family="Times-12" font-size="14.00"> &#160;Exports</text>
<g id="clust1" class="cluster">
<title>cluster_AuditLogModule</title>
<polygon fill="none" stroke="black" stroke-dasharray="1,5" points="40,-70 40,-268 456,-268 456,-70 40,-70"/>
</g>
<g id="clust6" class="cluster">
<title>cluster_AuditLogModule_providers</title>
<polygon fill="none" stroke="black" points="48,-78 48,-130 448,-130 448,-78 48,-78"/>
</g>
<g id="clust4" class="cluster">
<title>cluster_AuditLogModule_exports</title>
<polygon fill="none" stroke="black" points="78,-208 78,-260 384,-260 384,-208 78,-208"/>
</g>
<!-- AuditLogService  -->
<g id="node1" class="node">
<title>AuditLogService </title>
<polygon fill="#fb8072" stroke="black" points="375.92,-252 260.08,-252 260.08,-216 375.92,-216 375.92,-252"/>
<text text-anchor="middle" x="318" y="-229.8" font-family="Times,serif" font-size="14.00">AuditLogService </text>
</g>
<!-- SessionLogStoreService  -->
<g id="node2" class="node">
<title>SessionLogStoreService </title>
<polygon fill="#fb8072" stroke="black" points="242.36,-252 85.64,-252 85.64,-216 242.36,-216 242.36,-252"/>
<text text-anchor="middle" x="164" y="-229.8" font-family="Times,serif" font-size="14.00">SessionLogStoreService </text>
</g>
<!-- AuditLogModule -->
<g id="node3" class="node">
<title>AuditLogModule</title>
<polygon fill="#8dd3c7" stroke="black" points="250.99,-187 247.99,-191 226.99,-191 223.99,-187 137.01,-187 137.01,-151 250.99,-151 250.99,-187"/>
<text text-anchor="middle" x="194" y="-164.8" font-family="Times,serif" font-size="14.00">AuditLogModule</text>
</g>
<!-- AuditLogModule&#45;&gt;AuditLogService  -->
<g id="edge1" class="edge">
<title>AuditLogModule&#45;&gt;AuditLogService </title>
<path fill="none" stroke="black" stroke-dasharray="5,2" d="M246.59,-187.11C246.59,-206.34 246.59,-234 246.59,-234 246.59,-234 250.02,-234 250.02,-234"/>
<polygon fill="black" stroke="black" points="250.02,-237.5 260.02,-234 250.02,-230.5 250.02,-237.5"/>
</g>
<!-- AuditLogModule&#45;&gt;SessionLogStoreService  -->
<g id="edge2" class="edge">
<title>AuditLogModule&#45;&gt;SessionLogStoreService </title>
<path fill="none" stroke="black" stroke-dasharray="5,2" d="M189.59,-187.11C189.59,-187.11 189.59,-205.99 189.59,-205.99"/>
<polygon fill="black" stroke="black" points="186.09,-205.99 189.59,-215.99 193.09,-205.99 186.09,-205.99"/>
</g>
<!-- AuditLogService -->
<g id="node4" class="node">
<title>AuditLogService</title>
<ellipse fill="#fdb462" stroke="black" cx="362" cy="-104" rx="77.59" ry="18"/>
<text text-anchor="middle" x="362" y="-99.8" font-family="Times,serif" font-size="14.00">AuditLogService</text>
</g>
<!-- AuditLogService&#45;&gt;AuditLogModule -->
<g id="edge3" class="edge">
<title>AuditLogService&#45;&gt;AuditLogModule</title>
<path fill="none" stroke="black" d="M330.21,-120.74C330.21,-140 330.21,-169 330.21,-169 330.21,-169 261.37,-169 261.37,-169"/>
<polygon fill="black" stroke="black" points="261.37,-165.5 251.37,-169 261.37,-172.5 261.37,-165.5"/>
</g>
<!-- SessionLogStoreService -->
<g id="node5" class="node">
<title>SessionLogStoreService</title>
<ellipse fill="#fdb462" stroke="black" cx="161" cy="-104" rx="105.37" ry="18"/>
<text text-anchor="middle" x="161" y="-99.8" font-family="Times,serif" font-size="14.00">SessionLogStoreService</text>
</g>
<!-- SessionLogStoreService&#45;&gt;AuditLogModule -->
<g id="edge4" class="edge">
<title>SessionLogStoreService&#45;&gt;AuditLogModule</title>
<path fill="none" stroke="black" d="M194,-121.42C194,-121.42 194,-140.62 194,-140.62"/>
<polygon fill="black" stroke="black" points="190.5,-140.62 194,-150.62 197.5,-140.62 190.5,-140.62"/>
</g>
</g>
</svg>
