<?xml version="1.0" encoding="UTF-8" standalone="no"?>
<!DOCTYPE svg PUBLIC "-//W3C//DTD SVG 1.1//EN"
 "http://www.w3.org/Graphics/SVG/1.1/DTD/svg11.dtd">
<!-- Generated by graphviz version 2.47.0 (20210316.0004)
 -->
<!-- Title: dependencies Pages: 1 -->
<svg width="653pt" height="284pt"
 viewBox="0.00 0.00 653.00 284.00" xmlns="http://www.w3.org/2000/svg" xmlns:xlink="http://www.w3.org/1999/xlink">
<g id="graph0" class="graph" transform="scale(1 1) rotate(0) translate(4 280)">
<title>dependencies</title>
<polygon fill="white" stroke="transparent" points="-4,4 -4,-280 649,-280 649,4 -4,4"/>
<text text-anchor="start" x="301.51" y="-42.4" font-family="Times-12" font-weight="bold" font-size="14.00">Legend</text>
<polygon fill="#ffffb3" stroke="transparent" points="88.5,-10 88.5,-30 108.5,-30 108.5,-10 88.5,-10"/>
<text text-anchor="start" x="112.13" y="-15.4" font-family="Times-12" font-size="14.00"> &#160;Declarations</text>
<polygon fill="#8dd3c7" stroke="transparent" points="201.5,-10 201.5,-30 221.5,-30 221.5,-10 201.5,-10"/>
<text text-anchor="start" x="225.23" y="-15.4" font-family="Times-12" font-size="14.00"> &#160;Module</text>
<polygon fill="#80b1d3" stroke="transparent" points="287.5,-10 287.5,-30 307.5,-30 307.5,-10 287.5,-10"/>
<text text-anchor="start" x="311.28" y="-15.4" font-family="Times-12" font-size="14.00"> &#160;Bootstrap</text>
<polygon fill="#fdb462" stroke="transparent" points="384.5,-10 384.5,-30 404.5,-30 404.5,-10 384.5,-10"/>
<text text-anchor="start" x="408.17" y="-15.4" font-family="Times-12" font-size="14.00"> &#160;Providers</text>
<polygon fill="#fb8072" stroke="transparent" points="480.5,-10 480.5,-30 500.5,-30 500.5,-10 480.5,-10"/>
<text text-anchor="start" x="504.23" y="-15.4" font-family="Times-12" font-size="14.00"> &#160;Exports</text>
<g id="clust1" class="cluster">
<title>cluster_AuditLogModule</title>
<polygon fill="none" stroke="black" stroke-dasharray="1,5" points="8,-70 8,-268 637,-268 637,-70 8,-70"/>
</g>
<g id="clust6" class="cluster">
<title>cluster_AuditLogModule_providers</title>
<polygon fill="none" stroke="black" points="16,-78 16,-130 629,-130 629,-78 16,-78"/>
</g>
<g id="clust4" class="cluster">
<title>cluster_AuditLogModule_exports</title>
<polygon fill="none" stroke="black" points="93,-208 93,-260 562,-260 562,-208 93,-208"/>
</g>
<!-- AuditLogService  -->
<g id="node1" class="node">
<title>AuditLogService </title>
<polygon fill="#fb8072" stroke="black" points="553.92,-252 438.08,-252 438.08,-216 553.92,-216 553.92,-252"/>
<text text-anchor="middle" x="496" y="-229.8" font-family="Times,serif" font-size="14.00">AuditLogService </text>
</g>
<!-- SessionLogStoreService  -->
<g id="node2" class="node">
<title>SessionLogStoreService </title>
<polygon fill="#fb8072" stroke="black" points="420.36,-252 263.64,-252 263.64,-216 420.36,-216 420.36,-252"/>
<text text-anchor="middle" x="342" y="-229.8" font-family="Times,serif" font-size="14.00">SessionLogStoreService </text>
</g>
<!-- SessionLoggerService  -->
<g id="node3" class="node">
<title>SessionLoggerService </title>
<polygon fill="#fb8072" stroke="black" points="245.18,-252 100.82,-252 100.82,-216 245.18,-216 245.18,-252"/>
<text text-anchor="middle" x="173" y="-229.8" font-family="Times,serif" font-size="14.00">SessionLoggerService </text>
</g>
<!-- AuditLogModule -->
<g id="node4" class="node">
<title>AuditLogModule</title>
<polygon fill="#8dd3c7" stroke="black" points="398.99,-187 395.99,-191 374.99,-191 371.99,-187 285.01,-187 285.01,-151 398.99,-151 398.99,-187"/>
<text text-anchor="middle" x="342" y="-164.8" font-family="Times,serif" font-size="14.00">AuditLogModule</text>
</g>
<!-- AuditLogModule&#45;&gt;AuditLogService  -->
<g id="edge1" class="edge">
<title>AuditLogModule&#45;&gt;AuditLogService </title>
<path fill="none" stroke="black" stroke-dasharray="5,2" d="M399.14,-175C421.88,-175 442.74,-175 442.74,-175 442.74,-175 442.74,-205.98 442.74,-205.98"/>
<polygon fill="black" stroke="black" points="439.24,-205.98 442.74,-215.98 446.24,-205.98 439.24,-205.98"/>
</g>
<!-- AuditLogModule&#45;&gt;SessionLogStoreService  -->
<g id="edge2" class="edge">
<title>AuditLogModule&#45;&gt;SessionLogStoreService </title>
<path fill="none" stroke="black" stroke-dasharray="5,2" d="M342,-187.11C342,-187.11 342,-205.99 342,-205.99"/>
<polygon fill="black" stroke="black" points="338.5,-205.99 342,-215.99 345.5,-205.99 338.5,-205.99"/>
</g>
<!-- AuditLogModule&#45;&gt;SessionLoggerService  -->
<g id="edge3" class="edge">
<title>AuditLogModule&#45;&gt;SessionLoggerService </title>
<path fill="none" stroke="black" stroke-dasharray="5,2" d="M284.98,-175C262.06,-175 240.95,-175 240.95,-175 240.95,-175 240.95,-205.98 240.95,-205.98"/>
<polygon fill="black" stroke="black" points="237.45,-205.98 240.95,-215.98 244.45,-205.98 237.45,-205.98"/>
</g>
<!-- AuditLogService -->
<g id="node5" class="node">
<title>AuditLogService</title>
<ellipse fill="#fdb462" stroke="black" cx="543" cy="-104" rx="77.59" ry="18"/>
<text text-anchor="middle" x="543" y="-99.8" font-family="Times,serif" font-size="14.00">AuditLogService</text>
</g>
<!-- AuditLogService&#45;&gt;AuditLogModule -->
<g id="edge4" class="edge">
<title>AuditLogService&#45;&gt;AuditLogModule</title>
<path fill="none" stroke="black" d="M509.71,-120.43C509.71,-137.89 509.71,-163 509.71,-163 509.71,-163 409.25,-163 409.25,-163"/>
<polygon fill="black" stroke="black" points="409.25,-159.5 399.25,-163 409.25,-166.5 409.25,-159.5"/>
</g>
<!-- SessionLogStoreService -->
<g id="node6" class="node">
<title>SessionLogStoreService</title>
<ellipse fill="#fdb462" stroke="black" cx="342" cy="-104" rx="105.37" ry="18"/>
<text text-anchor="middle" x="342" y="-99.8" font-family="Times,serif" font-size="14.00">SessionLogStoreService</text>
</g>
<!-- SessionLogStoreService&#45;&gt;AuditLogModule -->
<g id="edge5" class="edge">
<title>SessionLogStoreService&#45;&gt;AuditLogModule</title>
<path fill="none" stroke="black" d="M342,-122.11C342,-122.11 342,-140.99 342,-140.99"/>
<polygon fill="black" stroke="black" points="338.5,-140.99 342,-150.99 345.5,-140.99 338.5,-140.99"/>
</g>
<!-- SessionLoggerService -->
<g id="node7" class="node">
<title>SessionLoggerService</title>
<ellipse fill="#fdb462" stroke="black" cx="121" cy="-104" rx="97.27" ry="18"/>
<text text-anchor="middle" x="121" y="-99.8" font-family="Times,serif" font-size="14.00">SessionLoggerService</text>
</g>
<!-- SessionLoggerService&#45;&gt;AuditLogModule -->
<g id="edge6" class="edge">
<title>SessionLoggerService&#45;&gt;AuditLogModule</title>
<path fill="none" stroke="black" d="M159.52,-120.75C159.52,-138.19 159.52,-163 159.52,-163 159.52,-163 274.76,-163 274.76,-163"/>
<polygon fill="black" stroke="black" points="274.76,-166.5 284.76,-163 274.76,-159.5 274.76,-166.5"/>
</g>
</g>
</svg>
