<?xml version="1.0" encoding="UTF-8" standalone="no"?>
<!DOCTYPE svg PUBLIC "-//W3C//DTD SVG 1.1//EN"
 "http://www.w3.org/Graphics/SVG/1.1/DTD/svg11.dtd">
<!-- Generated by graphviz version 2.47.0 (20210316.0004)
 -->
<!-- Title: dependencies Pages: 1 -->
<svg width="1609pt" height="211pt"
 viewBox="0.00 0.00 1609.00 211.00" xmlns="http://www.w3.org/2000/svg" xmlns:xlink="http://www.w3.org/1999/xlink">
<g id="graph0" class="graph" transform="scale(1 1) rotate(0) translate(4 207)">
<title>dependencies</title>
<polygon fill="white" stroke="transparent" points="-4,4 -4,-207 1605,-207 1605,4 -4,4"/>
<text text-anchor="start" x="779.51" y="-42.4" font-family="Times-12" font-weight="bold" font-size="14.00">Legend</text>
<polygon fill="#ffffb3" stroke="transparent" points="566.5,-10 566.5,-30 586.5,-30 586.5,-10 566.5,-10"/>
<text text-anchor="start" x="590.13" y="-15.4" font-family="Times-12" font-size="14.00"> &#160;Declarations</text>
<polygon fill="#8dd3c7" stroke="transparent" points="679.5,-10 679.5,-30 699.5,-30 699.5,-10 679.5,-10"/>
<text text-anchor="start" x="703.23" y="-15.4" font-family="Times-12" font-size="14.00"> &#160;Module</text>
<polygon fill="#80b1d3" stroke="transparent" points="765.5,-10 765.5,-30 785.5,-30 785.5,-10 765.5,-10"/>
<text text-anchor="start" x="789.28" y="-15.4" font-family="Times-12" font-size="14.00"> &#160;Bootstrap</text>
<polygon fill="#fdb462" stroke="transparent" points="862.5,-10 862.5,-30 882.5,-30 882.5,-10 862.5,-10"/>
<text text-anchor="start" x="886.17" y="-15.4" font-family="Times-12" font-size="14.00"> &#160;Providers</text>
<polygon fill="#fb8072" stroke="transparent" points="958.5,-10 958.5,-30 978.5,-30 978.5,-10 958.5,-10"/>
<text text-anchor="start" x="982.23" y="-15.4" font-family="Times-12" font-size="14.00"> &#160;Exports</text>
<g id="clust1" class="cluster">
<title>cluster_AppModule</title>
<polygon fill="none" stroke="black" stroke-dasharray="1,5" points="8,-70 8,-195 1593,-195 1593,-70 8,-70"/>
</g>
<g id="clust3" class="cluster">
<title>cluster_AppModule_imports</title>
<polygon fill="none" stroke="black" points="16,-78 16,-130 1585,-130 1585,-78 16,-78"/>
</g>
<!-- AuthModule -->
<g id="node1" class="node">
<title>AuthModule</title>
<polygon fill="#8dd3c7" stroke="black" points="1576.55,-122 1573.55,-126 1552.55,-126 1549.55,-122 1489.45,-122 1489.45,-86 1576.55,-86 1576.55,-122"/>
<text text-anchor="middle" x="1533" y="-99.8" font-family="Times,serif" font-size="14.00">AuthModule</text>
</g>
<!-- AppModule -->
<g id="node14" class="node">
<title>AppModule</title>
<polygon fill="#8dd3c7" stroke="black" points="821.66,-187 818.66,-191 797.66,-191 794.66,-187 738.34,-187 738.34,-151 821.66,-151 821.66,-187"/>
<text text-anchor="middle" x="780" y="-164.8" font-family="Times,serif" font-size="14.00">AppModule</text>
</g>
<!-- AuthModule&#45;&gt;AppModule -->
<g id="edge1" class="edge">
<title>AuthModule&#45;&gt;AppModule</title>
<path fill="none" stroke="black" d="M1533,-122.09C1533,-145.13 1533,-182 1533,-182 1533,-182 831.83,-182 831.83,-182"/>
<polygon fill="black" stroke="black" points="831.83,-178.5 821.83,-182 831.83,-185.5 831.83,-178.5"/>
</g>
<!-- ConfigImportModule -->
<g id="node2" class="node">
<title>ConfigImportModule</title>
<polygon fill="#8dd3c7" stroke="black" points="1471.04,-122 1468.04,-126 1447.04,-126 1444.04,-122 1334.96,-122 1334.96,-86 1471.04,-86 1471.04,-122"/>
<text text-anchor="middle" x="1403" y="-99.8" font-family="Times,serif" font-size="14.00">ConfigImportModule</text>
</g>
<!-- ConfigImportModule&#45;&gt;AppModule -->
<g id="edge2" class="edge">
<title>ConfigImportModule&#45;&gt;AppModule</title>
<path fill="none" stroke="black" d="M1403,-122.04C1403,-143.66 1403,-177 1403,-177 1403,-177 831.84,-177 831.84,-177"/>
<polygon fill="black" stroke="black" points="831.84,-173.5 821.84,-177 831.84,-180.5 831.84,-173.5"/>
</g>
<!-- CoreModule -->
<g id="node3" class="node">
<title>CoreModule</title>
<polygon fill="#8dd3c7" stroke="black" points="1316.26,-122 1313.26,-126 1292.26,-126 1289.26,-122 1229.74,-122 1229.74,-86 1316.26,-86 1316.26,-122"/>
<text text-anchor="middle" x="1273" y="-99.8" font-family="Times,serif" font-size="14.00">CoreModule</text>
</g>
<!-- CoreModule&#45;&gt;AppModule -->
<g id="edge3" class="edge">
<title>CoreModule&#45;&gt;AppModule</title>
<path fill="none" stroke="black" d="M1273,-122.22C1273,-142.37 1273,-172 1273,-172 1273,-172 832.03,-172 832.03,-172"/>
<polygon fill="black" stroke="black" points="832.03,-168.5 822.03,-172 832.03,-175.5 832.03,-168.5"/>
</g>
<!-- CryptoModule -->
<g id="node4" class="node">
<title>CryptoModule</title>
<polygon fill="#8dd3c7" stroke="black" points="1211.44,-122 1208.44,-126 1187.44,-126 1184.44,-122 1112.56,-122 1112.56,-86 1211.44,-86 1211.44,-122"/>
<text text-anchor="middle" x="1162" y="-99.8" font-family="Times,serif" font-size="14.00">CryptoModule</text>
</g>
<!-- CryptoModule&#45;&gt;AppModule -->
<g id="edge4" class="edge">
<title>CryptoModule&#45;&gt;AppModule</title>
<path fill="none" stroke="black" d="M1162,-122.22C1162,-140.83 1162,-167 1162,-167 1162,-167 831.97,-167 831.97,-167"/>
<polygon fill="black" stroke="black" points="831.97,-163.5 821.97,-167 831.97,-170.5 831.97,-163.5"/>
</g>
<!-- DatabaseModule -->
<g id="node5" class="node">
<title>DatabaseModule</title>
<polygon fill="#8dd3c7" stroke="black" points="1094.35,-122 1091.35,-126 1070.35,-126 1067.35,-122 983.65,-122 983.65,-86 1094.35,-86 1094.35,-122"/>
<text text-anchor="middle" x="1039" y="-99.8" font-family="Times,serif" font-size="14.00">DatabaseModule</text>
</g>
<!-- DatabaseModule&#45;&gt;AppModule -->
<g id="edge5" class="edge">
<title>DatabaseModule&#45;&gt;AppModule</title>
<path fill="none" stroke="black" d="M1039,-122.03C1039,-139.06 1039,-162 1039,-162 1039,-162 831.9,-162 831.9,-162"/>
<polygon fill="black" stroke="black" points="831.9,-158.5 821.9,-162 831.9,-165.5 831.9,-158.5"/>
</g>
<!-- EncryptionModule -->
<g id="node6" class="node">
<title>EncryptionModule</title>
<polygon fill="#8dd3c7" stroke="black" points="965.76,-122 962.76,-126 941.76,-126 938.76,-122 844.24,-122 844.24,-86 965.76,-86 965.76,-122"/>
<text text-anchor="middle" x="905" y="-99.8" font-family="Times,serif" font-size="14.00">EncryptionModule</text>
</g>
<!-- EncryptionModule&#45;&gt;AppModule -->
<g id="edge6" class="edge">
<title>EncryptionModule&#45;&gt;AppModule</title>
<path fill="none" stroke="black" d="M905,-122.24C905,-137.57 905,-157 905,-157 905,-157 831.97,-157 831.97,-157"/>
<polygon fill="black" stroke="black" points="831.97,-153.5 821.97,-157 831.97,-160.5 831.97,-153.5"/>
</g>
<!-- IssuerModule -->
<g id="node7" class="node">
<title>IssuerModule</title>
<polygon fill="#8dd3c7" stroke="black" points="826.47,-122 823.47,-126 802.47,-126 799.47,-122 733.53,-122 733.53,-86 826.47,-86 826.47,-122"/>
<text text-anchor="middle" x="780" y="-99.8" font-family="Times,serif" font-size="14.00">IssuerModule</text>
</g>
<!-- IssuerModule&#45;&gt;AppModule -->
<g id="edge7" class="edge">
<title>IssuerModule&#45;&gt;AppModule</title>
<path fill="none" stroke="black" d="M780,-122.11C780,-122.11 780,-140.99 780,-140.99"/>
<polygon fill="black" stroke="black" points="776.5,-140.99 780,-150.99 783.5,-140.99 776.5,-140.99"/>
</g>
<!-- KeyModule -->
<g id="node8" class="node">
<title>KeyModule</title>
<polygon fill="#8dd3c7" stroke="black" points="715.37,-122 712.37,-126 691.37,-126 688.37,-122 632.63,-122 632.63,-86 715.37,-86 715.37,-122"/>
<text text-anchor="middle" x="674" y="-99.8" font-family="Times,serif" font-size="14.00">KeyModule</text>
</g>
<!-- KeyModule&#45;&gt;AppModule -->
<g id="edge8" class="edge">
<title>KeyModule&#45;&gt;AppModule</title>
<path fill="none" stroke="black" d="M674,-122.24C674,-137.57 674,-157 674,-157 674,-157 728.11,-157 728.11,-157"/>
<polygon fill="black" stroke="black" points="728.11,-160.5 738.11,-157 728.11,-153.5 728.11,-160.5"/>
</g>
<!-- LoggerModule -->
<g id="node9" class="node">
<title>LoggerModule</title>
<polygon fill="#8dd3c7" stroke="black" points="614.98,-122 611.98,-126 590.98,-126 587.98,-122 515.02,-122 515.02,-86 614.98,-86 614.98,-122"/>
<text text-anchor="middle" x="565" y="-99.8" font-family="Times,serif" font-size="14.00">LoggerModule</text>
</g>
<!-- LoggerModule&#45;&gt;AppModule -->
<g id="edge9" class="edge">
<title>LoggerModule&#45;&gt;AppModule</title>
<path fill="none" stroke="black" d="M565,-122.03C565,-139.06 565,-162 565,-162 565,-162 728.29,-162 728.29,-162"/>
<polygon fill="black" stroke="black" points="728.29,-165.5 738.29,-162 728.29,-158.5 728.29,-165.5"/>
</g>
<!-- RegistrarModule -->
<g id="node10" class="node">
<title>RegistrarModule</title>
<polygon fill="#8dd3c7" stroke="black" points="497.36,-122 494.36,-126 473.36,-126 470.36,-122 386.64,-122 386.64,-86 497.36,-86 497.36,-122"/>
<text text-anchor="middle" x="442" y="-99.8" font-family="Times,serif" font-size="14.00">RegistrarModule</text>
</g>
<!-- RegistrarModule&#45;&gt;AppModule -->
<g id="edge10" class="edge">
<title>RegistrarModule&#45;&gt;AppModule</title>
<path fill="none" stroke="black" d="M442,-122.22C442,-140.83 442,-167 442,-167 442,-167 728.22,-167 728.22,-167"/>
<polygon fill="black" stroke="black" points="728.22,-170.5 738.22,-167 728.22,-163.5 728.22,-170.5"/>
</g>
<!-- SessionModule -->
<g id="node11" class="node">
<title>SessionModule</title>
<polygon fill="#8dd3c7" stroke="black" points="368.33,-122 365.33,-126 344.33,-126 341.33,-122 265.67,-122 265.67,-86 368.33,-86 368.33,-122"/>
<text text-anchor="middle" x="317" y="-99.8" font-family="Times,serif" font-size="14.00">SessionModule</text>
</g>
<!-- SessionModule&#45;&gt;AppModule -->
<g id="edge11" class="edge">
<title>SessionModule&#45;&gt;AppModule</title>
<path fill="none" stroke="black" d="M317,-122.22C317,-142.37 317,-172 317,-172 317,-172 728.1,-172 728.1,-172"/>
<polygon fill="black" stroke="black" points="728.1,-175.5 738.1,-172 728.1,-168.5 728.1,-175.5"/>
</g>
<!-- StorageModule -->
<g id="node12" class="node">
<title>StorageModule</title>
<polygon fill="#8dd3c7" stroke="black" points="248.31,-122 245.31,-126 224.31,-126 221.31,-122 145.69,-122 145.69,-86 248.31,-86 248.31,-122"/>
<text text-anchor="middle" x="197" y="-99.8" font-family="Times,serif" font-size="14.00">StorageModule</text>
</g>
<!-- StorageModule&#45;&gt;AppModule -->
<g id="edge12" class="edge">
<title>StorageModule&#45;&gt;AppModule</title>
<path fill="none" stroke="black" d="M197,-122.04C197,-143.66 197,-177 197,-177 197,-177 728.07,-177 728.07,-177"/>
<polygon fill="black" stroke="black" points="728.07,-180.5 738.07,-177 728.07,-173.5 728.07,-180.5"/>
</g>
<!-- VerifierModule -->
<g id="node13" class="node">
<title>VerifierModule</title>
<polygon fill="#8dd3c7" stroke="black" points="127.85,-122 124.85,-126 103.85,-126 100.85,-122 24.15,-122 24.15,-86 127.85,-86 127.85,-122"/>
<text text-anchor="middle" x="76" y="-99.8" font-family="Times,serif" font-size="14.00">VerifierModule</text>
</g>
<!-- VerifierModule&#45;&gt;AppModule -->
<g id="edge13" class="edge">
<title>VerifierModule&#45;&gt;AppModule</title>
<path fill="none" stroke="black" d="M76,-122.09C76,-145.13 76,-182 76,-182 76,-182 728.33,-182 728.33,-182"/>
<polygon fill="black" stroke="black" points="728.33,-185.5 738.33,-182 728.33,-178.5 728.33,-185.5"/>
</g>
</g>
</svg>
