<?xml version="1.0" encoding="UTF-8" standalone="no"?>
<!DOCTYPE svg PUBLIC "-//W3C//DTD SVG 1.1//EN"
 "http://www.w3.org/Graphics/SVG/1.1/DTD/svg11.dtd">
<!-- Generated by graphviz version 2.47.0 (20210316.0004)
 -->
<!-- Title: dependencies Pages: 1 -->
<svg width="698pt" height="284pt"
 viewBox="0.00 0.00 698.00 284.00" xmlns="http://www.w3.org/2000/svg" xmlns:xlink="http://www.w3.org/1999/xlink">
<g id="graph0" class="graph" transform="scale(1 1) rotate(0) translate(4 280)">
<title>dependencies</title>
<polygon fill="white" stroke="transparent" points="-4,4 -4,-280 694,-280 694,4 -4,4"/>
<text text-anchor="start" x="324.01" y="-42.4" font-family="Times-12" font-weight="bold" font-size="14.00">Legend</text>
<polygon fill="#ffffb3" stroke="transparent" points="111,-10 111,-30 131,-30 131,-10 111,-10"/>
<text text-anchor="start" x="134.63" y="-15.4" font-family="Times-12" font-size="14.00"> &#160;Declarations</text>
<polygon fill="#8dd3c7" stroke="transparent" points="224,-10 224,-30 244,-30 244,-10 224,-10"/>
<text text-anchor="start" x="247.73" y="-15.4" font-family="Times-12" font-size="14.00"> &#160;Module</text>
<polygon fill="#80b1d3" stroke="transparent" points="310,-10 310,-30 330,-30 330,-10 310,-10"/>
<text text-anchor="start" x="333.78" y="-15.4" font-family="Times-12" font-size="14.00"> &#160;Bootstrap</text>
<polygon fill="#fdb462" stroke="transparent" points="407,-10 407,-30 427,-30 427,-10 407,-10"/>
<text text-anchor="start" x="430.67" y="-15.4" font-family="Times-12" font-size="14.00"> &#160;Providers</text>
<polygon fill="#fb8072" stroke="transparent" points="503,-10 503,-30 523,-30 523,-10 503,-10"/>
<text text-anchor="start" x="526.73" y="-15.4" font-family="Times-12" font-size="14.00"> &#160;Exports</text>
<g id="clust1" class="cluster">
<title>cluster_PresentationsModule</title>
<polygon fill="none" stroke="black" stroke-dasharray="1,5" points="8,-70 8,-268 682,-268 682,-70 8,-70"/>
</g>
<g id="clust4" class="cluster">
<title>cluster_PresentationsModule_exports</title>
<polygon fill="none" stroke="black" points="199,-208 199,-260 351,-260 351,-208 199,-208"/>
</g>
<g id="clust6" class="cluster">
<title>cluster_PresentationsModule_providers</title>
<polygon fill="none" stroke="black" points="257,-78 257,-130 674,-130 674,-78 257,-78"/>
</g>
<g id="clust3" class="cluster">
<title>cluster_PresentationsModule_imports</title>
<polygon fill="none" stroke="black" points="16,-78 16,-130 249,-130 249,-78 16,-78"/>
</g>
<!-- ResolverModule -->
<g id="node1" class="node">
<title>ResolverModule</title>
<polygon fill="#8dd3c7" stroke="black" points="240.81,-122 237.81,-126 216.81,-126 213.81,-122 131.19,-122 131.19,-86 240.81,-86 240.81,-122"/>
<text text-anchor="middle" x="186" y="-99.8" font-family="Times,serif" font-size="14.00">ResolverModule</text>
</g>
<!-- PresentationsModule -->
<g id="node3" class="node">
<title>PresentationsModule</title>
<polygon fill="#8dd3c7" stroke="black" points="342.2,-187 339.2,-191 318.2,-191 315.2,-187 207.8,-187 207.8,-151 342.2,-151 342.2,-187"/>
<text text-anchor="middle" x="275" y="-164.8" font-family="Times,serif" font-size="14.00">PresentationsModule</text>
</g>
<!-- ResolverModule&#45;&gt;PresentationsModule -->
<g id="edge1" class="edge">
<title>ResolverModule&#45;&gt;PresentationsModule</title>
<path fill="none" stroke="black" d="M224.28,-122.11C224.28,-122.11 224.28,-140.99 224.28,-140.99"/>
<polygon fill="black" stroke="black" points="220.78,-140.99 224.28,-150.99 227.78,-140.99 220.78,-140.99"/>
</g>
<!-- TrustModule -->
<g id="node2" class="node">
<title>TrustModule</title>
<polygon fill="#8dd3c7" stroke="black" points="113.6,-122 110.6,-126 89.6,-126 86.6,-122 24.4,-122 24.4,-86 113.6,-86 113.6,-122"/>
<text text-anchor="middle" x="69" y="-99.8" font-family="Times,serif" font-size="14.00">TrustModule</text>
</g>
<!-- TrustModule&#45;&gt;PresentationsModule -->
<g id="edge2" class="edge">
<title>TrustModule&#45;&gt;PresentationsModule</title>
<path fill="none" stroke="black" d="M69,-122.11C69,-141.34 69,-169 69,-169 69,-169 197.83,-169 197.83,-169"/>
<polygon fill="black" stroke="black" points="197.83,-172.5 207.83,-169 197.83,-165.5 197.83,-172.5"/>
</g>
<!-- PresentationsService  -->
<g id="node4" class="node">
<title>PresentationsService </title>
<polygon fill="#fb8072" stroke="black" points="343.13,-252 206.87,-252 206.87,-216 343.13,-216 343.13,-252"/>
<text text-anchor="middle" x="275" y="-229.8" font-family="Times,serif" font-size="14.00">PresentationsService </text>
</g>
<!-- PresentationsModule&#45;&gt;PresentationsService  -->
<g id="edge3" class="edge">
<title>PresentationsModule&#45;&gt;PresentationsService </title>
<path fill="none" stroke="black" stroke-dasharray="5,2" d="M275,-187.11C275,-187.11 275,-205.99 275,-205.99"/>
<polygon fill="black" stroke="black" points="271.5,-205.99 275,-215.99 278.5,-205.99 271.5,-205.99"/>
</g>
<!-- PresentationsService -->
<g id="node5" class="node">
<title>PresentationsService</title>
<ellipse fill="#fdb462" stroke="black" cx="575" cy="-104" rx="91.47" ry="18"/>
<text text-anchor="middle" x="575" y="-99.8" font-family="Times,serif" font-size="14.00">PresentationsService</text>
</g>
<!-- PresentationsService&#45;&gt;PresentationsModule -->
<g id="edge4" class="edge">
<title>PresentationsService&#45;&gt;PresentationsModule</title>
<path fill="none" stroke="black" d="M575,-122.11C575,-141.34 575,-169 575,-169 575,-169 352.33,-169 352.33,-169"/>
<polygon fill="black" stroke="black" points="352.33,-165.5 342.33,-169 352.33,-172.5 352.33,-165.5"/>
</g>
<!-- SdjwtvcverifierService -->
<g id="node6" class="node">
<title>SdjwtvcverifierService</title>
<ellipse fill="#fdb462" stroke="black" cx="365" cy="-104" rx="100.11" ry="18"/>
<text text-anchor="middle" x="365" y="-99.8" font-family="Times,serif" font-size="14.00">SdjwtvcverifierService</text>
</g>
<!-- SdjwtvcverifierService&#45;&gt;PresentationsModule -->
<g id="edge5" class="edge">
<title>SdjwtvcverifierService&#45;&gt;PresentationsModule</title>
<path fill="none" stroke="black" d="M303.52,-118.43C303.52,-118.43 303.52,-140.89 303.52,-140.89"/>
<polygon fill="black" stroke="black" points="300.02,-140.89 303.52,-150.89 307.02,-140.89 300.02,-140.89"/>
</g>
</g>
</svg>
