<?xml version="1.0" encoding="UTF-8" standalone="no"?>
<!DOCTYPE svg PUBLIC "-//W3C//DTD SVG 1.1//EN"
 "http://www.w3.org/Graphics/SVG/1.1/DTD/svg11.dtd">
<!-- Generated by graphviz version 2.47.0 (20210316.0004)
 -->
<!-- Title: dependencies Pages: 1 -->
<svg width="1204pt" height="284pt"
 viewBox="0.00 0.00 1204.00 284.00" xmlns="http://www.w3.org/2000/svg" xmlns:xlink="http://www.w3.org/1999/xlink">
<g id="graph0" class="graph" transform="scale(1 1) rotate(0) translate(4 280)">
<title>dependencies</title>
<polygon fill="white" stroke="transparent" points="-4,4 -4,-280 1200,-280 1200,4 -4,4"/>
<text text-anchor="start" x="577.01" y="-42.4" font-family="Times-12" font-weight="bold" font-size="14.00">Legend</text>
<polygon fill="#ffffb3" stroke="transparent" points="364,-10 364,-30 384,-30 384,-10 364,-10"/>
<text text-anchor="start" x="387.63" y="-15.4" font-family="Times-12" font-size="14.00"> &#160;Declarations</text>
<polygon fill="#8dd3c7" stroke="transparent" points="477,-10 477,-30 497,-30 497,-10 477,-10"/>
<text text-anchor="start" x="500.73" y="-15.4" font-family="Times-12" font-size="14.00"> &#160;Module</text>
<polygon fill="#80b1d3" stroke="transparent" points="563,-10 563,-30 583,-30 583,-10 563,-10"/>
<text text-anchor="start" x="586.78" y="-15.4" font-family="Times-12" font-size="14.00"> &#160;Bootstrap</text>
<polygon fill="#fdb462" stroke="transparent" points="660,-10 660,-30 680,-30 680,-10 660,-10"/>
<text text-anchor="start" x="683.67" y="-15.4" font-family="Times-12" font-size="14.00"> &#160;Providers</text>
<polygon fill="#fb8072" stroke="transparent" points="756,-10 756,-30 776,-30 776,-10 756,-10"/>
<text text-anchor="start" x="779.73" y="-15.4" font-family="Times-12" font-size="14.00"> &#160;Exports</text>
<g id="clust1" class="cluster">
<title>cluster_PresentationsModule</title>
<polygon fill="none" stroke="black" stroke-dasharray="1,5" points="8,-70 8,-268 1188,-268 1188,-70 8,-70"/>
</g>
<g id="clust4" class="cluster">
<title>cluster_PresentationsModule_exports</title>
<polygon fill="none" stroke="black" points="488,-208 488,-260 870,-260 870,-208 488,-208"/>
</g>
<g id="clust3" class="cluster">
<title>cluster_PresentationsModule_imports</title>
<polygon fill="none" stroke="black" points="947,-78 947,-130 1180,-130 1180,-78 947,-78"/>
</g>
<g id="clust6" class="cluster">
<title>cluster_PresentationsModule_providers</title>
<polygon fill="none" stroke="black" points="16,-78 16,-130 939,-130 939,-78 16,-78"/>
</g>
<!-- ResolverModule -->
<g id="node1" class="node">
<title>ResolverModule</title>
<polygon fill="#8dd3c7" stroke="black" points="1171.81,-122 1168.81,-126 1147.81,-126 1144.81,-122 1062.19,-122 1062.19,-86 1171.81,-86 1171.81,-122"/>
<text text-anchor="middle" x="1117" y="-99.8" font-family="Times,serif" font-size="14.00">ResolverModule</text>
</g>
<!-- PresentationsModule -->
<g id="node3" class="node">
<title>PresentationsModule</title>
<polygon fill="#8dd3c7" stroke="black" points="727.2,-187 724.2,-191 703.2,-191 700.2,-187 592.8,-187 592.8,-151 727.2,-151 727.2,-187"/>
<text text-anchor="middle" x="660" y="-164.8" font-family="Times,serif" font-size="14.00">PresentationsModule</text>
</g>
<!-- ResolverModule&#45;&gt;PresentationsModule -->
<g id="edge1" class="edge">
<title>ResolverModule&#45;&gt;PresentationsModule</title>
<path fill="none" stroke="black" d="M1117,-122.28C1117,-143.32 1117,-175 1117,-175 1117,-175 737.43,-175 737.43,-175"/>
<polygon fill="black" stroke="black" points="737.43,-171.5 727.43,-175 737.43,-178.5 737.43,-171.5"/>
</g>
<!-- TrustModule -->
<g id="node2" class="node">
<title>TrustModule</title>
<polygon fill="#8dd3c7" stroke="black" points="1044.6,-122 1041.6,-126 1020.6,-126 1017.6,-122 955.4,-122 955.4,-86 1044.6,-86 1044.6,-122"/>
<text text-anchor="middle" x="1000" y="-99.8" font-family="Times,serif" font-size="14.00">TrustModule</text>
</g>
<!-- TrustModule&#45;&gt;PresentationsModule -->
<g id="edge2" class="edge">
<title>TrustModule&#45;&gt;PresentationsModule</title>
<path fill="none" stroke="black" d="M1000,-122.02C1000,-139.37 1000,-163 1000,-163 1000,-163 737.17,-163 737.17,-163"/>
<polygon fill="black" stroke="black" points="737.17,-159.5 727.17,-163 737.17,-166.5 737.17,-159.5"/>
</g>
<!-- CredentialChainValidationService  -->
<g id="node4" class="node">
<title>CredentialChainValidationService </title>
<polygon fill="#fb8072" stroke="black" points="862.33,-252 649.67,-252 649.67,-216 862.33,-216 862.33,-252"/>
<text text-anchor="middle" x="756" y="-229.8" font-family="Times,serif" font-size="14.00">CredentialChainValidationService </text>
</g>
<!-- PresentationsModule&#45;&gt;CredentialChainValidationService  -->
<g id="edge3" class="edge">
<title>PresentationsModule&#45;&gt;CredentialChainValidationService </title>
<path fill="none" stroke="black" stroke-dasharray="5,2" d="M688.47,-187.11C688.47,-187.11 688.47,-205.99 688.47,-205.99"/>
<polygon fill="black" stroke="black" points="684.97,-205.99 688.47,-215.99 691.97,-205.99 684.97,-205.99"/>
</g>
<!-- PresentationsService  -->
<g id="node5" class="node">
<title>PresentationsService </title>
<polygon fill="#fb8072" stroke="black" points="632.13,-252 495.87,-252 495.87,-216 632.13,-216 632.13,-252"/>
<text text-anchor="middle" x="564" y="-229.8" font-family="Times,serif" font-size="14.00">PresentationsService </text>
</g>
<!-- PresentationsModule&#45;&gt;PresentationsService  -->
<g id="edge4" class="edge">
<title>PresentationsModule&#45;&gt;PresentationsService </title>
<path fill="none" stroke="black" stroke-dasharray="5,2" d="M612.48,-187.11C612.48,-187.11 612.48,-205.99 612.48,-205.99"/>
<polygon fill="black" stroke="black" points="608.98,-205.99 612.48,-215.99 615.98,-205.99 608.98,-205.99"/>
</g>
<!-- CredentialChainValidationService -->
<g id="node6" class="node">
<title>CredentialChainValidationService</title>
<ellipse fill="#fdb462" stroke="black" cx="787" cy="-104" rx="144.09" ry="18"/>
<text text-anchor="middle" x="787" y="-99.8" font-family="Times,serif" font-size="14.00">CredentialChainValidationService</text>
</g>
<!-- CredentialChainValidationService&#45;&gt;PresentationsModule -->
<g id="edge5" class="edge">
<title>CredentialChainValidationService&#45;&gt;PresentationsModule</title>
<path fill="none" stroke="black" d="M685.03,-116.84C685.03,-116.84 685.03,-140.52 685.03,-140.52"/>
<polygon fill="black" stroke="black" points="681.53,-140.52 685.03,-150.52 688.53,-140.52 681.53,-140.52"/>
</g>
<!-- MdocverifierService -->
<g id="node7" class="node">
<title>MdocverifierService</title>
<ellipse fill="#fdb462" stroke="black" cx="534" cy="-104" rx="90.87" ry="18"/>
<text text-anchor="middle" x="534" y="-99.8" font-family="Times,serif" font-size="14.00">MdocverifierService</text>
</g>
<!-- MdocverifierService&#45;&gt;PresentationsModule -->
<g id="edge6" class="edge">
<title>MdocverifierService&#45;&gt;PresentationsModule</title>
<path fill="none" stroke="black" d="M608.92,-114.44C608.92,-114.44 608.92,-140.97 608.92,-140.97"/>
<polygon fill="black" stroke="black" points="605.42,-140.97 608.92,-150.97 612.42,-140.97 605.42,-140.97"/>
</g>
<!-- PresentationsService -->
<g id="node8" class="node">
<title>PresentationsService</title>
<ellipse fill="#fdb462" stroke="black" cx="334" cy="-104" rx="91.47" ry="18"/>
<text text-anchor="middle" x="334" y="-99.8" font-family="Times,serif" font-size="14.00">PresentationsService</text>
</g>
<!-- PresentationsService&#45;&gt;PresentationsModule -->
<g id="edge7" class="edge">
<title>PresentationsService&#45;&gt;PresentationsModule</title>
<path fill="none" stroke="black" d="M334,-122.02C334,-139.37 334,-163 334,-163 334,-163 582.85,-163 582.85,-163"/>
<polygon fill="black" stroke="black" points="582.85,-166.5 592.85,-163 582.85,-159.5 582.85,-166.5"/>
</g>
<!-- SdjwtvcverifierService -->
<g id="node9" class="node">
<title>SdjwtvcverifierService</title>
<ellipse fill="#fdb462" stroke="black" cx="124" cy="-104" rx="100.11" ry="18"/>
<text text-anchor="middle" x="124" y="-99.8" font-family="Times,serif" font-size="14.00">SdjwtvcverifierService</text>
</g>
<!-- SdjwtvcverifierService&#45;&gt;PresentationsModule -->
<g id="edge8" class="edge">
<title>SdjwtvcverifierService&#45;&gt;PresentationsModule</title>
<path fill="none" stroke="black" d="M124,-122.28C124,-143.32 124,-175 124,-175 124,-175 582.66,-175 582.66,-175"/>
<polygon fill="black" stroke="black" points="582.66,-178.5 592.66,-175 582.66,-171.5 582.66,-178.5"/>
</g>
</g>
</svg>
