<?xml version="1.0" encoding="UTF-8" standalone="no"?>
<!DOCTYPE svg PUBLIC "-//W3C//DTD SVG 1.1//EN"
 "http://www.w3.org/Graphics/SVG/1.1/DTD/svg11.dtd">
<!-- Generated by graphviz version 2.47.0 (20210316.0004)
 -->
<!-- Title: dependencies Pages: 1 -->
<svg width="1464pt" height="284pt"
 viewBox="0.00 0.00 1464.00 284.00" xmlns="http://www.w3.org/2000/svg" xmlns:xlink="http://www.w3.org/1999/xlink">
<g id="graph0" class="graph" transform="scale(1 1) rotate(0) translate(4 280)">
<title>dependencies</title>
<polygon fill="white" stroke="transparent" points="-4,4 -4,-280 1460,-280 1460,4 -4,4"/>
<text text-anchor="start" x="707.01" y="-42.4" font-family="Times-12" font-weight="bold" font-size="14.00">Legend</text>
<polygon fill="#ffffb3" stroke="transparent" points="494,-10 494,-30 514,-30 514,-10 494,-10"/>
<text text-anchor="start" x="517.63" y="-15.4" font-family="Times-12" font-size="14.00"> &#160;Declarations</text>
<polygon fill="#8dd3c7" stroke="transparent" points="607,-10 607,-30 627,-30 627,-10 607,-10"/>
<text text-anchor="start" x="630.73" y="-15.4" font-family="Times-12" font-size="14.00"> &#160;Module</text>
<polygon fill="#80b1d3" stroke="transparent" points="693,-10 693,-30 713,-30 713,-10 693,-10"/>
<text text-anchor="start" x="716.78" y="-15.4" font-family="Times-12" font-size="14.00"> &#160;Bootstrap</text>
<polygon fill="#fdb462" stroke="transparent" points="790,-10 790,-30 810,-30 810,-10 790,-10"/>
<text text-anchor="start" x="813.67" y="-15.4" font-family="Times-12" font-size="14.00"> &#160;Providers</text>
<polygon fill="#fb8072" stroke="transparent" points="886,-10 886,-30 906,-30 906,-10 886,-10"/>
<text text-anchor="start" x="909.73" y="-15.4" font-family="Times-12" font-size="14.00"> &#160;Exports</text>
<g id="clust1" class="cluster">
<title>cluster_PresentationsModule</title>
<polygon fill="none" stroke="black" stroke-dasharray="1,5" points="8,-70 8,-268 1448,-268 1448,-70 8,-70"/>
</g>
<g id="clust6" class="cluster">
<title>cluster_PresentationsModule_providers</title>
<polygon fill="none" stroke="black" points="517,-78 517,-130 1440,-130 1440,-78 517,-78"/>
</g>
<g id="clust4" class="cluster">
<title>cluster_PresentationsModule_exports</title>
<polygon fill="none" stroke="black" points="362,-208 362,-260 744,-260 744,-208 362,-208"/>
</g>
<g id="clust3" class="cluster">
<title>cluster_PresentationsModule_imports</title>
<polygon fill="none" stroke="black" points="16,-78 16,-130 509,-130 509,-78 16,-78"/>
</g>
<!-- AuditLogModule -->
<g id="node1" class="node">
<title>AuditLogModule</title>
<polygon fill="#8dd3c7" stroke="black" points="500.99,-122 497.99,-126 476.99,-126 473.99,-122 387.01,-122 387.01,-86 500.99,-86 500.99,-122"/>
<text text-anchor="middle" x="444" y="-99.8" font-family="Times,serif" font-size="14.00">AuditLogModule</text>
</g>
<!-- PresentationsModule -->
<g id="node5" class="node">
<title>PresentationsModule</title>
<polygon fill="#8dd3c7" stroke="black" points="601.2,-187 598.2,-191 577.2,-191 574.2,-187 466.8,-187 466.8,-151 601.2,-151 601.2,-187"/>
<text text-anchor="middle" x="534" y="-164.8" font-family="Times,serif" font-size="14.00">PresentationsModule</text>
</g>
<!-- AuditLogModule&#45;&gt;PresentationsModule -->
<g id="edge1" class="edge">
<title>AuditLogModule&#45;&gt;PresentationsModule</title>
<path fill="none" stroke="black" d="M483.95,-122.11C483.95,-122.11 483.95,-140.99 483.95,-140.99"/>
<polygon fill="black" stroke="black" points="480.45,-140.99 483.95,-150.99 487.45,-140.99 480.45,-140.99"/>
</g>
<!-- RegistrarModule -->
<g id="node2" class="node">
<title>RegistrarModule</title>
<polygon fill="#8dd3c7" stroke="black" points="369.36,-122 366.36,-126 345.36,-126 342.36,-122 258.64,-122 258.64,-86 369.36,-86 369.36,-122"/>
<text text-anchor="middle" x="314" y="-99.8" font-family="Times,serif" font-size="14.00">RegistrarModule</text>
</g>
<!-- RegistrarModule&#45;&gt;PresentationsModule -->
<g id="edge2" class="edge">
<title>RegistrarModule&#45;&gt;PresentationsModule</title>
<path fill="none" stroke="black" d="M314,-122.03C314,-138.4 314,-160 314,-160 314,-160 456.8,-160 456.8,-160"/>
<polygon fill="black" stroke="black" points="456.8,-163.5 466.8,-160 456.8,-156.5 456.8,-163.5"/>
</g>
<!-- ResolverModule -->
<g id="node3" class="node">
<title>ResolverModule</title>
<polygon fill="#8dd3c7" stroke="black" points="240.81,-122 237.81,-126 216.81,-126 213.81,-122 131.19,-122 131.19,-86 240.81,-86 240.81,-122"/>
<text text-anchor="middle" x="186" y="-99.8" font-family="Times,serif" font-size="14.00">ResolverModule</text>
</g>
<!-- ResolverModule&#45;&gt;PresentationsModule -->
<g id="edge3" class="edge">
<title>ResolverModule&#45;&gt;PresentationsModule</title>
<path fill="none" stroke="black" d="M186,-122.11C186,-141.34 186,-169 186,-169 186,-169 456.49,-169 456.49,-169"/>
<polygon fill="black" stroke="black" points="456.49,-172.5 466.49,-169 456.49,-165.5 456.49,-172.5"/>
</g>
<!-- TrustModule -->
<g id="node4" class="node">
<title>TrustModule</title>
<polygon fill="#8dd3c7" stroke="black" points="113.6,-122 110.6,-126 89.6,-126 86.6,-122 24.4,-122 24.4,-86 113.6,-86 113.6,-122"/>
<text text-anchor="middle" x="69" y="-99.8" font-family="Times,serif" font-size="14.00">TrustModule</text>
</g>
<!-- TrustModule&#45;&gt;PresentationsModule -->
<g id="edge4" class="edge">
<title>TrustModule&#45;&gt;PresentationsModule</title>
<path fill="none" stroke="black" d="M69,-122.29C69,-144.21 69,-178 69,-178 69,-178 456.88,-178 456.88,-178"/>
<polygon fill="black" stroke="black" points="456.88,-181.5 466.88,-178 456.88,-174.5 456.88,-181.5"/>
</g>
<!-- CredentialChainValidationService  -->
<g id="node6" class="node">
<title>CredentialChainValidationService </title>
<polygon fill="#fb8072" stroke="black" points="736.33,-252 523.67,-252 523.67,-216 736.33,-216 736.33,-252"/>
<text text-anchor="middle" x="630" y="-229.8" font-family="Times,serif" font-size="14.00">CredentialChainValidationService </text>
</g>
<!-- PresentationsModule&#45;&gt;CredentialChainValidationService  -->
<g id="edge5" class="edge">
<title>PresentationsModule&#45;&gt;CredentialChainValidationService </title>
<path fill="none" stroke="black" stroke-dasharray="5,2" d="M562.47,-187.11C562.47,-187.11 562.47,-205.99 562.47,-205.99"/>
<polygon fill="black" stroke="black" points="558.97,-205.99 562.47,-215.99 565.97,-205.99 558.97,-205.99"/>
</g>
<!-- PresentationsService  -->
<g id="node7" class="node">
<title>PresentationsService </title>
<polygon fill="#fb8072" stroke="black" points="506.13,-252 369.87,-252 369.87,-216 506.13,-216 506.13,-252"/>
<text text-anchor="middle" x="438" y="-229.8" font-family="Times,serif" font-size="14.00">PresentationsService </text>
</g>
<!-- PresentationsModule&#45;&gt;PresentationsService  -->
<g id="edge6" class="edge">
<title>PresentationsModule&#45;&gt;PresentationsService </title>
<path fill="none" stroke="black" stroke-dasharray="5,2" d="M486.48,-187.11C486.48,-187.11 486.48,-205.99 486.48,-205.99"/>
<polygon fill="black" stroke="black" points="482.98,-205.99 486.48,-215.99 489.98,-205.99 482.98,-205.99"/>
</g>
<!-- CredentialChainValidationService -->
<g id="node8" class="node">
<title>CredentialChainValidationService</title>
<ellipse fill="#fdb462" stroke="black" cx="1288" cy="-104" rx="144.09" ry="18"/>
<text text-anchor="middle" x="1288" y="-99.8" font-family="Times,serif" font-size="14.00">CredentialChainValidationService</text>
</g>
<!-- CredentialChainValidationService&#45;&gt;PresentationsModule -->
<g id="edge7" class="edge">
<title>CredentialChainValidationService&#45;&gt;PresentationsModule</title>
<path fill="none" stroke="black" d="M1288,-122.29C1288,-144.21 1288,-178 1288,-178 1288,-178 611.24,-178 611.24,-178"/>
<polygon fill="black" stroke="black" points="611.24,-174.5 601.24,-178 611.24,-181.5 611.24,-174.5"/>
</g>
<!-- MdocverifierService -->
<g id="node9" class="node">
<title>MdocverifierService</title>
<ellipse fill="#fdb462" stroke="black" cx="1035" cy="-104" rx="90.87" ry="18"/>
<text text-anchor="middle" x="1035" y="-99.8" font-family="Times,serif" font-size="14.00">MdocverifierService</text>
</g>
<!-- MdocverifierService&#45;&gt;PresentationsModule -->
<g id="edge8" class="edge">
<title>MdocverifierService&#45;&gt;PresentationsModule</title>
<path fill="none" stroke="black" d="M1035,-122.11C1035,-141.34 1035,-169 1035,-169 1035,-169 611.31,-169 611.31,-169"/>
<polygon fill="black" stroke="black" points="611.31,-165.5 601.31,-169 611.31,-172.5 611.31,-165.5"/>
</g>
<!-- PresentationsService -->
<g id="node10" class="node">
<title>PresentationsService</title>
<ellipse fill="#fdb462" stroke="black" cx="835" cy="-104" rx="91.47" ry="18"/>
<text text-anchor="middle" x="835" y="-99.8" font-family="Times,serif" font-size="14.00">PresentationsService</text>
</g>
<!-- PresentationsService&#45;&gt;PresentationsModule -->
<g id="edge9" class="edge">
<title>PresentationsService&#45;&gt;PresentationsModule</title>
<path fill="none" stroke="black" d="M835,-122.03C835,-138.4 835,-160 835,-160 835,-160 611.18,-160 611.18,-160"/>
<polygon fill="black" stroke="black" points="611.18,-156.5 601.18,-160 611.18,-163.5 611.18,-156.5"/>
</g>
<!-- SdjwtvcverifierService -->
<g id="node11" class="node">
<title>SdjwtvcverifierService</title>
<ellipse fill="#fdb462" stroke="black" cx="625" cy="-104" rx="100.11" ry="18"/>
<text text-anchor="middle" x="625" y="-99.8" font-family="Times,serif" font-size="14.00">SdjwtvcverifierService</text>
</g>
<!-- SdjwtvcverifierService&#45;&gt;PresentationsModule -->
<g id="edge10" class="edge">
<title>SdjwtvcverifierService&#45;&gt;PresentationsModule</title>
<path fill="none" stroke="black" d="M563.02,-118.43C563.02,-118.43 563.02,-140.89 563.02,-140.89"/>
<polygon fill="black" stroke="black" points="559.52,-140.89 563.02,-150.89 566.52,-140.89 559.52,-140.89"/>
</g>
</g>
</svg>
