<?xml version="1.0" encoding="UTF-8" standalone="no"?>
<!DOCTYPE svg PUBLIC "-//W3C//DTD SVG 1.1//EN"
 "http://www.w3.org/Graphics/SVG/1.1/DTD/svg11.dtd">
<!-- Generated by graphviz version 2.47.0 (20210316.0004)
 -->
<!-- Title: dependencies Pages: 1 -->
<svg width="2847pt" height="284pt"
 viewBox="0.00 0.00 2847.00 284.00" xmlns="http://www.w3.org/2000/svg" xmlns:xlink="http://www.w3.org/1999/xlink">
<g id="graph0" class="graph" transform="scale(1 1) rotate(0) translate(4 280)">
<title>dependencies</title>
<polygon fill="white" stroke="transparent" points="-4,4 -4,-280 2843,-280 2843,4 -4,4"/>
<text text-anchor="start" x="1398.51" y="-42.4" font-family="Times-12" font-weight="bold" font-size="14.00">Legend</text>
<polygon fill="#ffffb3" stroke="transparent" points="1185.5,-10 1185.5,-30 1205.5,-30 1205.5,-10 1185.5,-10"/>
<text text-anchor="start" x="1209.13" y="-15.4" font-family="Times-12" font-size="14.00"> &#160;Declarations</text>
<polygon fill="#8dd3c7" stroke="transparent" points="1298.5,-10 1298.5,-30 1318.5,-30 1318.5,-10 1298.5,-10"/>
<text text-anchor="start" x="1322.23" y="-15.4" font-family="Times-12" font-size="14.00"> &#160;Module</text>
<polygon fill="#80b1d3" stroke="transparent" points="1384.5,-10 1384.5,-30 1404.5,-30 1404.5,-10 1384.5,-10"/>
<text text-anchor="start" x="1408.28" y="-15.4" font-family="Times-12" font-size="14.00"> &#160;Bootstrap</text>
<polygon fill="#fdb462" stroke="transparent" points="1481.5,-10 1481.5,-30 1501.5,-30 1501.5,-10 1481.5,-10"/>
<text text-anchor="start" x="1505.17" y="-15.4" font-family="Times-12" font-size="14.00"> &#160;Providers</text>
<polygon fill="#fb8072" stroke="transparent" points="1577.5,-10 1577.5,-30 1597.5,-30 1597.5,-10 1577.5,-10"/>
<text text-anchor="start" x="1601.23" y="-15.4" font-family="Times-12" font-size="14.00"> &#160;Exports</text>
<g id="clust1" class="cluster">
<title>cluster_ConfigurationModule</title>
<polygon fill="none" stroke="black" stroke-dasharray="1,5" points="8,-70 8,-268 2831,-268 2831,-70 8,-70"/>
</g>
<g id="clust3" class="cluster">
<title>cluster_ConfigurationModule_imports</title>
<polygon fill="none" stroke="black" points="1913,-78 1913,-130 2823,-130 2823,-78 1913,-78"/>
</g>
<g id="clust4" class="cluster">
<title>cluster_ConfigurationModule_exports</title>
<polygon fill="none" stroke="black" points="1220,-208 1220,-260 2165,-260 2165,-208 1220,-208"/>
</g>
<g id="clust6" class="cluster">
<title>cluster_ConfigurationModule_providers</title>
<polygon fill="none" stroke="black" points="16,-78 16,-130 1905,-130 1905,-78 16,-78"/>
</g>
<!-- AuditLogModule -->
<g id="node1" class="node">
<title>AuditLogModule</title>
<polygon fill="#8dd3c7" stroke="black" points="2814.99,-122 2811.99,-126 2790.99,-126 2787.99,-122 2701.01,-122 2701.01,-86 2814.99,-86 2814.99,-122"/>
<text text-anchor="middle" x="2758" y="-99.8" font-family="Times,serif" font-size="14.00">AuditLogModule</text>
</g>
<!-- ConfigurationModule -->
<g id="node8" class="node">
<title>ConfigurationModule</title>
<polygon fill="#8dd3c7" stroke="black" points="1741.09,-187 1738.09,-191 1717.09,-191 1714.09,-187 1602.91,-187 1602.91,-151 1741.09,-151 1741.09,-187"/>
<text text-anchor="middle" x="1672" y="-164.8" font-family="Times,serif" font-size="14.00">ConfigurationModule</text>
</g>
<!-- AuditLogModule&#45;&gt;ConfigurationModule -->
<g id="edge1" class="edge">
<title>AuditLogModule&#45;&gt;ConfigurationModule</title>
<path fill="none" stroke="black" d="M2758,-122.04C2758,-143.66 2758,-177 2758,-177 2758,-177 1751.17,-177 1751.17,-177"/>
<polygon fill="black" stroke="black" points="1751.17,-173.5 1741.17,-177 1751.17,-180.5 1751.17,-173.5"/>
</g>
<!-- CryptoModule -->
<g id="node2" class="node">
<title>CryptoModule</title>
<polygon fill="#8dd3c7" stroke="black" points="2683.44,-122 2680.44,-126 2659.44,-126 2656.44,-122 2584.56,-122 2584.56,-86 2683.44,-86 2683.44,-122"/>
<text text-anchor="middle" x="2634" y="-99.8" font-family="Times,serif" font-size="14.00">CryptoModule</text>
</g>
<!-- CryptoModule&#45;&gt;ConfigurationModule -->
<g id="edge2" class="edge">
<title>CryptoModule&#45;&gt;ConfigurationModule</title>
<path fill="none" stroke="black" d="M2634,-122.13C2634,-142.57 2634,-173 2634,-173 2634,-173 1751.18,-173 1751.18,-173"/>
<polygon fill="black" stroke="black" points="1751.18,-169.5 1741.18,-173 1751.18,-176.5 1751.18,-169.5"/>
</g>
<!-- PresentationsModule -->
<g id="node3" class="node">
<title>PresentationsModule</title>
<polygon fill="#8dd3c7" stroke="black" points="2567.2,-122 2564.2,-126 2543.2,-126 2540.2,-122 2432.8,-122 2432.8,-86 2567.2,-86 2567.2,-122"/>
<text text-anchor="middle" x="2500" y="-99.8" font-family="Times,serif" font-size="14.00">PresentationsModule</text>
</g>
<!-- PresentationsModule&#45;&gt;ConfigurationModule -->
<g id="edge3" class="edge">
<title>PresentationsModule&#45;&gt;ConfigurationModule</title>
<path fill="none" stroke="black" d="M2500,-122.11C2500,-141.34 2500,-169 2500,-169 2500,-169 1751.17,-169 1751.17,-169"/>
<polygon fill="black" stroke="black" points="1751.17,-165.5 1741.17,-169 1751.17,-172.5 1751.17,-165.5"/>
</g>
<!-- RegistrarModule -->
<g id="node4" class="node">
<title>RegistrarModule</title>
<polygon fill="#8dd3c7" stroke="black" points="2414.36,-122 2411.36,-126 2390.36,-126 2387.36,-122 2303.64,-122 2303.64,-86 2414.36,-86 2414.36,-122"/>
<text text-anchor="middle" x="2359" y="-99.8" font-family="Times,serif" font-size="14.00">RegistrarModule</text>
</g>
<!-- RegistrarModule&#45;&gt;ConfigurationModule -->
<g id="edge4" class="edge">
<title>RegistrarModule&#45;&gt;ConfigurationModule</title>
<path fill="none" stroke="black" d="M2359,-122.27C2359,-140.56 2359,-166 2359,-166 2359,-166 1751.34,-166 1751.34,-166"/>
<polygon fill="black" stroke="black" points="1751.34,-162.5 1741.34,-166 1751.34,-169.5 1751.34,-162.5"/>
</g>
<!-- SessionModule -->
<g id="node5" class="node">
<title>SessionModule</title>
<polygon fill="#8dd3c7" stroke="black" points="2285.33,-122 2282.33,-126 2261.33,-126 2258.33,-122 2182.67,-122 2182.67,-86 2285.33,-86 2285.33,-122"/>
<text text-anchor="middle" x="2234" y="-99.8" font-family="Times,serif" font-size="14.00">SessionModule</text>
</g>
<!-- SessionModule&#45;&gt;ConfigurationModule -->
<g id="edge5" class="edge">
<title>SessionModule&#45;&gt;ConfigurationModule</title>
<path fill="none" stroke="black" d="M2234,-122.03C2234,-139.06 2234,-162 2234,-162 2234,-162 1751.19,-162 1751.19,-162"/>
<polygon fill="black" stroke="black" points="1751.19,-158.5 1741.19,-162 1751.19,-165.5 1751.19,-158.5"/>
</g>
<!-- StatusListModule -->
<g id="node6" class="node">
<title>StatusListModule</title>
<polygon fill="#8dd3c7" stroke="black" points="2164.55,-122 2161.55,-126 2140.55,-126 2137.55,-122 2049.45,-122 2049.45,-86 2164.55,-86 2164.55,-122"/>
<text text-anchor="middle" x="2107" y="-99.8" font-family="Times,serif" font-size="14.00">StatusListModule</text>
</g>
<!-- StatusListModule&#45;&gt;ConfigurationModule -->
<g id="edge6" class="edge">
<title>StatusListModule&#45;&gt;ConfigurationModule</title>
<path fill="none" stroke="black" d="M2103.17,-122.01C2103.17,-138.05 2103.17,-159 2103.17,-159 2103.17,-159 1751.27,-159 1751.27,-159"/>
<polygon fill="black" stroke="black" points="1751.27,-155.5 1741.27,-159 1751.27,-162.5 1751.27,-155.5"/>
</g>
<!-- TrustListModule -->
<g id="node7" class="node">
<title>TrustListModule</title>
<polygon fill="#8dd3c7" stroke="black" points="2031.38,-122 2028.38,-126 2007.38,-126 2004.38,-122 1920.62,-122 1920.62,-86 2031.38,-86 2031.38,-122"/>
<text text-anchor="middle" x="1976" y="-99.8" font-family="Times,serif" font-size="14.00">TrustListModule</text>
</g>
<!-- TrustListModule&#45;&gt;ConfigurationModule -->
<g id="edge7" class="edge">
<title>TrustListModule&#45;&gt;ConfigurationModule</title>
<path fill="none" stroke="black" d="M1949.95,-122.12C1949.95,-136.78 1949.95,-155 1949.95,-155 1949.95,-155 1751.06,-155 1751.06,-155"/>
<polygon fill="black" stroke="black" points="1751.06,-151.5 1741.06,-155 1751.06,-158.5 1751.06,-151.5"/>
</g>
<!-- AttributeProviderService  -->
<g id="node9" class="node">
<title>AttributeProviderService </title>
<polygon fill="#fb8072" stroke="black" points="2157.23,-252 1996.77,-252 1996.77,-216 2157.23,-216 2157.23,-252"/>
<text text-anchor="middle" x="2077" y="-229.8" font-family="Times,serif" font-size="14.00">AttributeProviderService </text>
</g>
<!-- ConfigurationModule&#45;&gt;AttributeProviderService  -->
<g id="edge8" class="edge">
<title>ConfigurationModule&#45;&gt;AttributeProviderService </title>
<path fill="none" stroke="black" stroke-dasharray="5,2" d="M1741.24,-180C1841.22,-180 2014.16,-180 2014.16,-180 2014.16,-180 2014.16,-205.72 2014.16,-205.72"/>
<polygon fill="black" stroke="black" points="2010.66,-205.72 2014.16,-215.72 2017.66,-205.72 2010.66,-205.72"/>
</g>
<!-- CredentialConfigService  -->
<g id="node10" class="node">
<title>CredentialConfigService </title>
<polygon fill="#fb8072" stroke="black" points="1979.18,-252 1820.82,-252 1820.82,-216 1979.18,-216 1979.18,-252"/>
<text text-anchor="middle" x="1900" y="-229.8" font-family="Times,serif" font-size="14.00">CredentialConfigService </text>
</g>
<!-- ConfigurationModule&#45;&gt;CredentialConfigService  -->
<g id="edge9" class="edge">
<title>ConfigurationModule&#45;&gt;CredentialConfigService </title>
<path fill="none" stroke="black" stroke-dasharray="5,2" d="M1741.06,-184C1794.29,-184 1858.89,-184 1858.89,-184 1858.89,-184 1858.89,-205.95 1858.89,-205.95"/>
<polygon fill="black" stroke="black" points="1855.39,-205.95 1858.89,-215.95 1862.39,-205.95 1855.39,-205.95"/>
</g>
<!-- CredentialsService  -->
<g id="node11" class="node">
<title>CredentialsService </title>
<polygon fill="#fb8072" stroke="black" points="1802.74,-252 1677.26,-252 1677.26,-216 1802.74,-216 1802.74,-252"/>
<text text-anchor="middle" x="1740" y="-229.8" font-family="Times,serif" font-size="14.00">CredentialsService </text>
</g>
<!-- ConfigurationModule&#45;&gt;CredentialsService  -->
<g id="edge10" class="edge">
<title>ConfigurationModule&#45;&gt;CredentialsService </title>
<path fill="none" stroke="black" stroke-dasharray="5,2" d="M1709.21,-187.11C1709.21,-187.11 1709.21,-205.99 1709.21,-205.99"/>
<polygon fill="black" stroke="black" points="1705.71,-205.99 1709.21,-215.99 1712.71,-205.99 1705.71,-205.99"/>
</g>
<!-- IssuanceService  -->
<g id="node12" class="node">
<title>IssuanceService </title>
<polygon fill="#fb8072" stroke="black" points="1659.67,-252 1550.33,-252 1550.33,-216 1659.67,-216 1659.67,-252"/>
<text text-anchor="middle" x="1605" y="-229.8" font-family="Times,serif" font-size="14.00">IssuanceService </text>
</g>
<!-- ConfigurationModule&#45;&gt;IssuanceService  -->
<g id="edge11" class="edge">
<title>ConfigurationModule&#45;&gt;IssuanceService </title>
<path fill="none" stroke="black" stroke-dasharray="5,2" d="M1631.39,-187.11C1631.39,-187.11 1631.39,-205.99 1631.39,-205.99"/>
<polygon fill="black" stroke="black" points="1627.89,-205.99 1631.39,-215.99 1634.89,-205.99 1627.89,-205.99"/>
</g>
<!-- StatusListModule  -->
<g id="node13" class="node">
<title>StatusListModule </title>
<polygon fill="#fb8072" stroke="black" points="1532.55,-252 1413.45,-252 1413.45,-216 1532.55,-216 1532.55,-252"/>
<text text-anchor="middle" x="1473" y="-229.8" font-family="Times,serif" font-size="14.00">StatusListModule </text>
</g>
<!-- ConfigurationModule&#45;&gt;StatusListModule  -->
<g id="edge12" class="edge">
<title>ConfigurationModule&#45;&gt;StatusListModule </title>
<path fill="none" stroke="black" stroke-dasharray="5,2" d="M1602.7,-184C1551.53,-184 1490.74,-184 1490.74,-184 1490.74,-184 1490.74,-205.95 1490.74,-205.95"/>
<polygon fill="black" stroke="black" points="1487.24,-205.95 1490.74,-215.95 1494.24,-205.95 1487.24,-205.95"/>
</g>
<!-- WebhookEndpointService  -->
<g id="node14" class="node">
<title>WebhookEndpointService </title>
<polygon fill="#fb8072" stroke="black" points="1395.74,-252 1228.26,-252 1228.26,-216 1395.74,-216 1395.74,-252"/>
<text text-anchor="middle" x="1312" y="-229.8" font-family="Times,serif" font-size="14.00">WebhookEndpointService </text>
</g>
<!-- ConfigurationModule&#45;&gt;WebhookEndpointService  -->
<g id="edge13" class="edge">
<title>ConfigurationModule&#45;&gt;WebhookEndpointService </title>
<path fill="none" stroke="black" stroke-dasharray="5,2" d="M1602.65,-180C1502.52,-180 1329.32,-180 1329.32,-180 1329.32,-180 1329.32,-205.72 1329.32,-205.72"/>
<polygon fill="black" stroke="black" points="1325.82,-205.72 1329.32,-215.72 1332.82,-205.72 1325.82,-205.72"/>
</g>
<!-- AttributeProviderService -->
<g id="node15" class="node">
<title>AttributeProviderService</title>
<ellipse fill="#fdb462" stroke="black" cx="1789" cy="-104" rx="108.22" ry="18"/>
<text text-anchor="middle" x="1789" y="-99.8" font-family="Times,serif" font-size="14.00">AttributeProviderService</text>
</g>
<!-- AttributeProviderService&#45;&gt;ConfigurationModule -->
<g id="edge14" class="edge">
<title>AttributeProviderService&#45;&gt;ConfigurationModule</title>
<path fill="none" stroke="black" d="M1710.97,-116.53C1710.97,-116.53 1710.97,-140.85 1710.97,-140.85"/>
<polygon fill="black" stroke="black" points="1707.47,-140.85 1710.97,-150.85 1714.47,-140.85 1707.47,-140.85"/>
</g>
<!-- CredentialConfigService -->
<g id="node16" class="node">
<title>CredentialConfigService</title>
<ellipse fill="#fdb462" stroke="black" cx="1556" cy="-104" rx="107.08" ry="18"/>
<text text-anchor="middle" x="1556" y="-99.8" font-family="Times,serif" font-size="14.00">CredentialConfigService</text>
</g>
<!-- CredentialConfigService&#45;&gt;ConfigurationModule -->
<g id="edge15" class="edge">
<title>CredentialConfigService&#45;&gt;ConfigurationModule</title>
<path fill="none" stroke="black" d="M1633,-116.53C1633,-116.53 1633,-140.85 1633,-140.85"/>
<polygon fill="black" stroke="black" points="1629.5,-140.85 1633,-150.85 1636.5,-140.85 1629.5,-140.85"/>
</g>
<!-- CredentialsService -->
<g id="node17" class="node">
<title>CredentialsService</title>
<ellipse fill="#fdb462" stroke="black" cx="1347" cy="-104" rx="83.94" ry="18"/>
<text text-anchor="middle" x="1347" y="-99.8" font-family="Times,serif" font-size="14.00">CredentialsService</text>
</g>
<!-- CredentialsService&#45;&gt;ConfigurationModule -->
<g id="edge16" class="edge">
<title>CredentialsService&#45;&gt;ConfigurationModule</title>
<path fill="none" stroke="black" d="M1422.22,-112.42C1422.22,-126.91 1422.22,-155 1422.22,-155 1422.22,-155 1592.75,-155 1592.75,-155"/>
<polygon fill="black" stroke="black" points="1592.75,-158.5 1602.75,-155 1592.75,-151.5 1592.75,-158.5"/>
</g>
<!-- IssuanceService -->
<g id="node18" class="node">
<title>IssuanceService</title>
<ellipse fill="#fdb462" stroke="black" cx="1172" cy="-104" rx="73.47" ry="18"/>
<text text-anchor="middle" x="1172" y="-99.8" font-family="Times,serif" font-size="14.00">IssuanceService</text>
</g>
<!-- IssuanceService&#45;&gt;ConfigurationModule -->
<g id="edge17" class="edge">
<title>IssuanceService&#45;&gt;ConfigurationModule</title>
<path fill="none" stroke="black" d="M1236.81,-112.59C1236.81,-128.06 1236.81,-159 1236.81,-159 1236.81,-159 1592.56,-159 1592.56,-159"/>
<polygon fill="black" stroke="black" points="1592.56,-162.5 1602.56,-159 1592.56,-155.5 1592.56,-162.5"/>
</g>
<!-- MdocIssuerService -->
<g id="node19" class="node">
<title>MdocIssuerService</title>
<ellipse fill="#fdb462" stroke="black" cx="995" cy="-104" rx="85.65" ry="18"/>
<text text-anchor="middle" x="995" y="-99.8" font-family="Times,serif" font-size="14.00">MdocIssuerService</text>
</g>
<!-- MdocIssuerService&#45;&gt;ConfigurationModule -->
<g id="edge18" class="edge">
<title>MdocIssuerService&#45;&gt;ConfigurationModule</title>
<path fill="none" stroke="black" d="M995,-122.03C995,-139.06 995,-162 995,-162 995,-162 1592.73,-162 1592.73,-162"/>
<polygon fill="black" stroke="black" points="1592.73,-165.5 1602.73,-162 1592.73,-158.5 1592.73,-165.5"/>
</g>
<!-- SchemaMetaAdapterService -->
<g id="node20" class="node">
<title>SchemaMetaAdapterService</title>
<ellipse fill="#fdb462" stroke="black" cx="770" cy="-104" rx="121.5" ry="18"/>
<text text-anchor="middle" x="770" y="-99.8" font-family="Times,serif" font-size="14.00">SchemaMetaAdapterService</text>
</g>
<!-- SchemaMetaAdapterService&#45;&gt;ConfigurationModule -->
<g id="edge19" class="edge">
<title>SchemaMetaAdapterService&#45;&gt;ConfigurationModule</title>
<path fill="none" stroke="black" d="M770,-122.27C770,-140.56 770,-166 770,-166 770,-166 1592.72,-166 1592.72,-166"/>
<polygon fill="black" stroke="black" points="1592.72,-169.5 1602.72,-166 1592.72,-162.5 1592.72,-169.5"/>
</g>
<!-- SdjwtvcIssuerService -->
<g id="node21" class="node">
<title>SdjwtvcIssuerService</title>
<ellipse fill="#fdb462" stroke="black" cx="536" cy="-104" rx="94.9" ry="18"/>
<text text-anchor="middle" x="536" y="-99.8" font-family="Times,serif" font-size="14.00">SdjwtvcIssuerService</text>
</g>
<!-- SdjwtvcIssuerService&#45;&gt;ConfigurationModule -->
<g id="edge20" class="edge">
<title>SdjwtvcIssuerService&#45;&gt;ConfigurationModule</title>
<path fill="none" stroke="black" d="M536,-122.11C536,-141.34 536,-169 536,-169 536,-169 1592.65,-169 1592.65,-169"/>
<polygon fill="black" stroke="black" points="1592.65,-172.5 1602.65,-169 1592.65,-165.5 1592.65,-172.5"/>
</g>
<!-- WebhookEndpointService -->
<g id="node22" class="node">
<title>WebhookEndpointService</title>
<ellipse fill="#fdb462" stroke="black" cx="310" cy="-104" rx="112.89" ry="18"/>
<text text-anchor="middle" x="310" y="-99.8" font-family="Times,serif" font-size="14.00">WebhookEndpointService</text>
</g>
<!-- WebhookEndpointService&#45;&gt;ConfigurationModule -->
<g id="edge21" class="edge">
<title>WebhookEndpointService&#45;&gt;ConfigurationModule</title>
<path fill="none" stroke="black" d="M310,-122.13C310,-142.57 310,-173 310,-173 310,-173 1592.59,-173 1592.59,-173"/>
<polygon fill="black" stroke="black" points="1592.59,-176.5 1602.59,-173 1592.59,-169.5 1592.59,-176.5"/>
</g>
<!-- WebhookService -->
<g id="node23" class="node">
<title>WebhookService</title>
<ellipse fill="#fdb462" stroke="black" cx="102" cy="-104" rx="77.57" ry="18"/>
<text text-anchor="middle" x="102" y="-99.8" font-family="Times,serif" font-size="14.00">WebhookService</text>
</g>
<!-- WebhookService&#45;&gt;ConfigurationModule -->
<g id="edge22" class="edge">
<title>WebhookService&#45;&gt;ConfigurationModule</title>
<path fill="none" stroke="black" d="M102,-122.04C102,-143.66 102,-177 102,-177 102,-177 1592.77,-177 1592.77,-177"/>
<polygon fill="black" stroke="black" points="1592.77,-180.5 1602.77,-177 1592.77,-173.5 1592.77,-180.5"/>
</g>
</g>
</svg>
