<?xml version="1.0" encoding="UTF-8" standalone="no"?>
<!DOCTYPE svg PUBLIC "-//W3C//DTD SVG 1.1//EN"
 "http://www.w3.org/Graphics/SVG/1.1/DTD/svg11.dtd">
<!-- Generated by graphviz version 2.47.0 (20210316.0004)
 -->
<!-- Title: dependencies Pages: 1 -->
<svg width="1170pt" height="284pt"
 viewBox="0.00 0.00 1170.00 284.00" xmlns="http://www.w3.org/2000/svg" xmlns:xlink="http://www.w3.org/1999/xlink">
<g id="graph0" class="graph" transform="scale(1 1) rotate(0) translate(4 280)">
<title>dependencies</title>
<polygon fill="white" stroke="transparent" points="-4,4 -4,-280 1166,-280 1166,4 -4,4"/>
<text text-anchor="start" x="560.01" y="-42.4" font-family="Times-12" font-weight="bold" font-size="14.00">Legend</text>
<polygon fill="#ffffb3" stroke="transparent" points="347,-10 347,-30 367,-30 367,-10 347,-10"/>
<text text-anchor="start" x="370.63" y="-15.4" font-family="Times-12" font-size="14.00"> &#160;Declarations</text>
<polygon fill="#8dd3c7" stroke="transparent" points="460,-10 460,-30 480,-30 480,-10 460,-10"/>
<text text-anchor="start" x="483.73" y="-15.4" font-family="Times-12" font-size="14.00"> &#160;Module</text>
<polygon fill="#80b1d3" stroke="transparent" points="546,-10 546,-30 566,-30 566,-10 546,-10"/>
<text text-anchor="start" x="569.78" y="-15.4" font-family="Times-12" font-size="14.00"> &#160;Bootstrap</text>
<polygon fill="#fdb462" stroke="transparent" points="643,-10 643,-30 663,-30 663,-10 643,-10"/>
<text text-anchor="start" x="666.67" y="-15.4" font-family="Times-12" font-size="14.00"> &#160;Providers</text>
<polygon fill="#fb8072" stroke="transparent" points="739,-10 739,-30 759,-30 759,-10 739,-10"/>
<text text-anchor="start" x="762.73" y="-15.4" font-family="Times-12" font-size="14.00"> &#160;Exports</text>
<g id="clust1" class="cluster">
<title>cluster_ConfigurationModule</title>
<polygon fill="none" stroke="black" stroke-dasharray="1,5" points="8,-70 8,-268 1154,-268 1154,-70 8,-70"/>
</g>
<g id="clust3" class="cluster">
<title>cluster_ConfigurationModule_imports</title>
<polygon fill="none" stroke="black" points="778,-78 778,-130 1146,-130 1146,-78 778,-78"/>
</g>
<g id="clust6" class="cluster">
<title>cluster_ConfigurationModule_providers</title>
<polygon fill="none" stroke="black" points="16,-78 16,-130 770,-130 770,-78 16,-78"/>
</g>
<g id="clust4" class="cluster">
<title>cluster_ConfigurationModule_exports</title>
<polygon fill="none" stroke="black" points="457,-208 457,-260 902,-260 902,-208 457,-208"/>
</g>
<!-- CryptoModule -->
<g id="node1" class="node">
<title>CryptoModule</title>
<polygon fill="#8dd3c7" stroke="black" points="1138.44,-122 1135.44,-126 1114.44,-126 1111.44,-122 1039.56,-122 1039.56,-86 1138.44,-86 1138.44,-122"/>
<text text-anchor="middle" x="1089" y="-99.8" font-family="Times,serif" font-size="14.00">CryptoModule</text>
</g>
<!-- ConfigurationModule -->
<g id="node4" class="node">
<title>ConfigurationModule</title>
<polygon fill="#8dd3c7" stroke="black" points="724.09,-187 721.09,-191 700.09,-191 697.09,-187 585.91,-187 585.91,-151 724.09,-151 724.09,-187"/>
<text text-anchor="middle" x="655" y="-164.8" font-family="Times,serif" font-size="14.00">ConfigurationModule</text>
</g>
<!-- CryptoModule&#45;&gt;ConfigurationModule -->
<g id="edge1" class="edge">
<title>CryptoModule&#45;&gt;ConfigurationModule</title>
<path fill="none" stroke="black" d="M1089,-122.13C1089,-142.57 1089,-173 1089,-173 1089,-173 734.25,-173 734.25,-173"/>
<polygon fill="black" stroke="black" points="734.25,-169.5 724.25,-173 734.25,-176.5 734.25,-169.5"/>
</g>
<!-- SessionModule -->
<g id="node2" class="node">
<title>SessionModule</title>
<polygon fill="#8dd3c7" stroke="black" points="1022.33,-122 1019.33,-126 998.33,-126 995.33,-122 919.67,-122 919.67,-86 1022.33,-86 1022.33,-122"/>
<text text-anchor="middle" x="971" y="-99.8" font-family="Times,serif" font-size="14.00">SessionModule</text>
</g>
<!-- SessionModule&#45;&gt;ConfigurationModule -->
<g id="edge2" class="edge">
<title>SessionModule&#45;&gt;ConfigurationModule</title>
<path fill="none" stroke="black" d="M971,-122.27C971,-140.56 971,-166 971,-166 971,-166 734.35,-166 734.35,-166"/>
<polygon fill="black" stroke="black" points="734.35,-162.5 724.35,-166 734.35,-169.5 734.35,-162.5"/>
</g>
<!-- StatusListModule -->
<g id="node3" class="node">
<title>StatusListModule</title>
<polygon fill="#8dd3c7" stroke="black" points="901.55,-122 898.55,-126 877.55,-126 874.55,-122 786.45,-122 786.45,-86 901.55,-86 901.55,-122"/>
<text text-anchor="middle" x="844" y="-99.8" font-family="Times,serif" font-size="14.00">StatusListModule</text>
</g>
<!-- StatusListModule&#45;&gt;ConfigurationModule -->
<g id="edge3" class="edge">
<title>StatusListModule&#45;&gt;ConfigurationModule</title>
<path fill="none" stroke="black" d="M840.28,-122.01C840.28,-138.05 840.28,-159 840.28,-159 840.28,-159 734.26,-159 734.26,-159"/>
<polygon fill="black" stroke="black" points="734.26,-155.5 724.26,-159 734.26,-162.5 734.26,-155.5"/>
</g>
<!-- CredentialConfigService  -->
<g id="node5" class="node">
<title>CredentialConfigService </title>
<polygon fill="#fb8072" stroke="black" points="894.18,-252 735.82,-252 735.82,-216 894.18,-216 894.18,-252"/>
<text text-anchor="middle" x="815" y="-229.8" font-family="Times,serif" font-size="14.00">CredentialConfigService </text>
</g>
<!-- ConfigurationModule&#45;&gt;CredentialConfigService  -->
<g id="edge4" class="edge">
<title>ConfigurationModule&#45;&gt;CredentialConfigService </title>
<path fill="none" stroke="black" stroke-dasharray="5,2" d="M724.19,-180C738.26,-180 748.85,-180 748.85,-180 748.85,-180 748.85,-205.72 748.85,-205.72"/>
<polygon fill="black" stroke="black" points="745.35,-205.72 748.85,-215.72 752.35,-205.72 745.35,-205.72"/>
</g>
<!-- CredentialsService  -->
<g id="node6" class="node">
<title>CredentialsService </title>
<polygon fill="#fb8072" stroke="black" points="717.74,-252 592.26,-252 592.26,-216 717.74,-216 717.74,-252"/>
<text text-anchor="middle" x="655" y="-229.8" font-family="Times,serif" font-size="14.00">CredentialsService </text>
</g>
<!-- ConfigurationModule&#45;&gt;CredentialsService  -->
<g id="edge5" class="edge">
<title>ConfigurationModule&#45;&gt;CredentialsService </title>
<path fill="none" stroke="black" stroke-dasharray="5,2" d="M655,-187.11C655,-187.11 655,-205.99 655,-205.99"/>
<polygon fill="black" stroke="black" points="651.5,-205.99 655,-215.99 658.5,-205.99 651.5,-205.99"/>
</g>
<!-- IssuanceService  -->
<g id="node7" class="node">
<title>IssuanceService </title>
<polygon fill="#fb8072" stroke="black" points="574.67,-252 465.33,-252 465.33,-216 574.67,-216 574.67,-252"/>
<text text-anchor="middle" x="520" y="-229.8" font-family="Times,serif" font-size="14.00">IssuanceService </text>
</g>
<!-- ConfigurationModule&#45;&gt;IssuanceService  -->
<g id="edge6" class="edge">
<title>ConfigurationModule&#45;&gt;IssuanceService </title>
<path fill="none" stroke="black" stroke-dasharray="5,2" d="M585.5,-180C571.72,-180 561.4,-180 561.4,-180 561.4,-180 561.4,-205.72 561.4,-205.72"/>
<polygon fill="black" stroke="black" points="557.9,-205.72 561.4,-215.72 564.9,-205.72 557.9,-205.72"/>
</g>
<!-- CredentialConfigService -->
<g id="node8" class="node">
<title>CredentialConfigService</title>
<ellipse fill="#fdb462" stroke="black" cx="655" cy="-104" rx="107.08" ry="18"/>
<text text-anchor="middle" x="655" y="-99.8" font-family="Times,serif" font-size="14.00">CredentialConfigService</text>
</g>
<!-- CredentialConfigService&#45;&gt;ConfigurationModule -->
<g id="edge7" class="edge">
<title>CredentialConfigService&#45;&gt;ConfigurationModule</title>
<path fill="none" stroke="black" d="M655,-122.11C655,-122.11 655,-140.99 655,-140.99"/>
<polygon fill="black" stroke="black" points="651.5,-140.99 655,-150.99 658.5,-140.99 651.5,-140.99"/>
</g>
<!-- CredentialsService -->
<g id="node9" class="node">
<title>CredentialsService</title>
<ellipse fill="#fdb462" stroke="black" cx="446" cy="-104" rx="83.94" ry="18"/>
<text text-anchor="middle" x="446" y="-99.8" font-family="Times,serif" font-size="14.00">CredentialsService</text>
</g>
<!-- CredentialsService&#45;&gt;ConfigurationModule -->
<g id="edge8" class="edge">
<title>CredentialsService&#45;&gt;ConfigurationModule</title>
<path fill="none" stroke="black" d="M497.57,-118.45C497.57,-134.75 497.57,-159 497.57,-159 497.57,-159 575.95,-159 575.95,-159"/>
<polygon fill="black" stroke="black" points="575.95,-162.5 585.95,-159 575.95,-155.5 575.95,-162.5"/>
</g>
<!-- IssuanceService -->
<g id="node10" class="node">
<title>IssuanceService</title>
<ellipse fill="#fdb462" stroke="black" cx="271" cy="-104" rx="73.47" ry="18"/>
<text text-anchor="middle" x="271" y="-99.8" font-family="Times,serif" font-size="14.00">IssuanceService</text>
</g>
<!-- IssuanceService&#45;&gt;ConfigurationModule -->
<g id="edge9" class="edge">
<title>IssuanceService&#45;&gt;ConfigurationModule</title>
<path fill="none" stroke="black" d="M271,-122.27C271,-140.56 271,-166 271,-166 271,-166 575.91,-166 575.91,-166"/>
<polygon fill="black" stroke="black" points="575.91,-169.5 585.91,-166 575.9,-162.5 575.91,-169.5"/>
</g>
<!-- WebhookService -->
<g id="node11" class="node">
<title>WebhookService</title>
<ellipse fill="#fdb462" stroke="black" cx="102" cy="-104" rx="77.57" ry="18"/>
<text text-anchor="middle" x="102" y="-99.8" font-family="Times,serif" font-size="14.00">WebhookService</text>
</g>
<!-- WebhookService&#45;&gt;ConfigurationModule -->
<g id="edge10" class="edge">
<title>WebhookService&#45;&gt;ConfigurationModule</title>
<path fill="none" stroke="black" d="M102,-122.13C102,-142.57 102,-173 102,-173 102,-173 575.8,-173 575.8,-173"/>
<polygon fill="black" stroke="black" points="575.8,-176.5 585.8,-173 575.8,-169.5 575.8,-176.5"/>
</g>
</g>
</svg>
