<?xml version="1.0" encoding="UTF-8" standalone="no"?>
<!DOCTYPE svg PUBLIC "-//W3C//DTD SVG 1.1//EN"
 "http://www.w3.org/Graphics/SVG/1.1/DTD/svg11.dtd">
<!-- Generated by graphviz version 2.47.0 (20210316.0004)
 -->
<!-- Title: dependencies Pages: 1 -->
<svg width="2955pt" height="284pt"
 viewBox="0.00 0.00 2955.00 284.00" xmlns="http://www.w3.org/2000/svg" xmlns:xlink="http://www.w3.org/1999/xlink">
<g id="graph0" class="graph" transform="scale(1 1) rotate(0) translate(4 280)">
<title>dependencies</title>
<polygon fill="white" stroke="transparent" points="-4,4 -4,-280 2951,-280 2951,4 -4,4"/>
<text text-anchor="start" x="1452.51" y="-42.4" font-family="Times-12" font-weight="bold" font-size="14.00">Legend</text>
<polygon fill="#ffffb3" stroke="transparent" points="1239.5,-10 1239.5,-30 1259.5,-30 1259.5,-10 1239.5,-10"/>
<text text-anchor="start" x="1263.13" y="-15.4" font-family="Times-12" font-size="14.00"> &#160;Declarations</text>
<polygon fill="#8dd3c7" stroke="transparent" points="1352.5,-10 1352.5,-30 1372.5,-30 1372.5,-10 1352.5,-10"/>
<text text-anchor="start" x="1376.23" y="-15.4" font-family="Times-12" font-size="14.00"> &#160;Module</text>
<polygon fill="#80b1d3" stroke="transparent" points="1438.5,-10 1438.5,-30 1458.5,-30 1458.5,-10 1438.5,-10"/>
<text text-anchor="start" x="1462.28" y="-15.4" font-family="Times-12" font-size="14.00"> &#160;Bootstrap</text>
<polygon fill="#fdb462" stroke="transparent" points="1535.5,-10 1535.5,-30 1555.5,-30 1555.5,-10 1535.5,-10"/>
<text text-anchor="start" x="1559.17" y="-15.4" font-family="Times-12" font-size="14.00"> &#160;Providers</text>
<polygon fill="#fb8072" stroke="transparent" points="1631.5,-10 1631.5,-30 1651.5,-30 1651.5,-10 1631.5,-10"/>
<text text-anchor="start" x="1655.23" y="-15.4" font-family="Times-12" font-size="14.00"> &#160;Exports</text>
<g id="clust1" class="cluster">
<title>cluster_ConfigurationModule</title>
<polygon fill="none" stroke="black" stroke-dasharray="1,5" points="8,-70 8,-268 2939,-268 2939,-70 8,-70"/>
</g>
<g id="clust4" class="cluster">
<title>cluster_ConfigurationModule_exports</title>
<polygon fill="none" stroke="black" points="1337,-208 1337,-260 2282,-260 2282,-208 1337,-208"/>
</g>
<g id="clust3" class="cluster">
<title>cluster_ConfigurationModule_imports</title>
<polygon fill="none" stroke="black" points="1913,-78 1913,-130 2931,-130 2931,-78 1913,-78"/>
</g>
<g id="clust6" class="cluster">
<title>cluster_ConfigurationModule_providers</title>
<polygon fill="none" stroke="black" points="16,-78 16,-130 1905,-130 1905,-78 16,-78"/>
</g>
<!-- AuditLogModule -->
<g id="node1" class="node">
<title>AuditLogModule</title>
<polygon fill="#8dd3c7" stroke="black" points="2922.99,-122 2919.99,-126 2898.99,-126 2895.99,-122 2809.01,-122 2809.01,-86 2922.99,-86 2922.99,-122"/>
<text text-anchor="middle" x="2866" y="-99.8" font-family="Times,serif" font-size="14.00">AuditLogModule</text>
</g>
<!-- ConfigurationModule -->
<g id="node9" class="node">
<title>ConfigurationModule</title>
<polygon fill="#8dd3c7" stroke="black" points="1858.09,-187 1855.09,-191 1834.09,-191 1831.09,-187 1719.91,-187 1719.91,-151 1858.09,-151 1858.09,-187"/>
<text text-anchor="middle" x="1789" y="-164.8" font-family="Times,serif" font-size="14.00">ConfigurationModule</text>
</g>
<!-- AuditLogModule&#45;&gt;ConfigurationModule -->
<g id="edge1" class="edge">
<title>AuditLogModule&#45;&gt;ConfigurationModule</title>
<path fill="none" stroke="black" d="M2866,-122.29C2866,-144.21 2866,-178 2866,-178 2866,-178 1868.42,-178 1868.42,-178"/>
<polygon fill="black" stroke="black" points="1868.42,-174.5 1858.42,-178 1868.42,-181.5 1868.42,-174.5"/>
</g>
<!-- CryptoModule -->
<g id="node2" class="node">
<title>CryptoModule</title>
<polygon fill="#8dd3c7" stroke="black" points="2791.44,-122 2788.44,-126 2767.44,-126 2764.44,-122 2692.56,-122 2692.56,-86 2791.44,-86 2791.44,-122"/>
<text text-anchor="middle" x="2742" y="-99.8" font-family="Times,serif" font-size="14.00">CryptoModule</text>
</g>
<!-- CryptoModule&#45;&gt;ConfigurationModule -->
<g id="edge2" class="edge">
<title>CryptoModule&#45;&gt;ConfigurationModule</title>
<path fill="none" stroke="black" d="M2742,-122.03C2742,-142.77 2742,-174 2742,-174 2742,-174 1868.31,-174 1868.31,-174"/>
<polygon fill="black" stroke="black" points="1868.31,-170.5 1858.31,-174 1868.31,-177.5 1868.31,-170.5"/>
</g>
<!-- PresentationsModule -->
<g id="node3" class="node">
<title>PresentationsModule</title>
<polygon fill="#8dd3c7" stroke="black" points="2675.2,-122 2672.2,-126 2651.2,-126 2648.2,-122 2540.8,-122 2540.8,-86 2675.2,-86 2675.2,-122"/>
<text text-anchor="middle" x="2608" y="-99.8" font-family="Times,serif" font-size="14.00">PresentationsModule</text>
</g>
<!-- PresentationsModule&#45;&gt;ConfigurationModule -->
<g id="edge3" class="edge">
<title>PresentationsModule&#45;&gt;ConfigurationModule</title>
<path fill="none" stroke="black" d="M2608,-122.31C2608,-142.15 2608,-171 2608,-171 2608,-171 1868.12,-171 1868.12,-171"/>
<polygon fill="black" stroke="black" points="1868.12,-167.5 1858.12,-171 1868.12,-174.5 1868.12,-167.5"/>
</g>
<!-- RegistrarModule -->
<g id="node4" class="node">
<title>RegistrarModule</title>
<polygon fill="#8dd3c7" stroke="black" points="2522.36,-122 2519.36,-126 2498.36,-126 2495.36,-122 2411.64,-122 2411.64,-86 2522.36,-86 2522.36,-122"/>
<text text-anchor="middle" x="2467" y="-99.8" font-family="Times,serif" font-size="14.00">RegistrarModule</text>
</g>
<!-- RegistrarModule&#45;&gt;ConfigurationModule -->
<g id="edge4" class="edge">
<title>RegistrarModule&#45;&gt;ConfigurationModule</title>
<path fill="none" stroke="black" d="M2467,-122.17C2467,-141.09 2467,-168 2467,-168 2467,-168 1868.06,-168 1868.06,-168"/>
<polygon fill="black" stroke="black" points="1868.06,-164.5 1858.06,-168 1868.06,-171.5 1868.06,-164.5"/>
</g>
<!-- SessionModule -->
<g id="node5" class="node">
<title>SessionModule</title>
<polygon fill="#8dd3c7" stroke="black" points="2393.33,-122 2390.33,-126 2369.33,-126 2366.33,-122 2290.67,-122 2290.67,-86 2393.33,-86 2393.33,-122"/>
<text text-anchor="middle" x="2342" y="-99.8" font-family="Times,serif" font-size="14.00">SessionModule</text>
</g>
<!-- SessionModule&#45;&gt;ConfigurationModule -->
<g id="edge5" class="edge">
<title>SessionModule&#45;&gt;ConfigurationModule</title>
<path fill="none" stroke="black" d="M2342,-122.3C2342,-140.27 2342,-165 2342,-165 2342,-165 1868.2,-165 1868.2,-165"/>
<polygon fill="black" stroke="black" points="1868.2,-161.5 1858.2,-165 1868.2,-168.5 1868.2,-161.5"/>
</g>
<!-- StatusListModule -->
<g id="node6" class="node">
<title>StatusListModule</title>
<polygon fill="#8dd3c7" stroke="black" points="2272.55,-122 2269.55,-126 2248.55,-126 2245.55,-122 2157.45,-122 2157.45,-86 2272.55,-86 2272.55,-122"/>
<text text-anchor="middle" x="2215" y="-99.8" font-family="Times,serif" font-size="14.00">StatusListModule</text>
</g>
<!-- StatusListModule&#45;&gt;ConfigurationModule -->
<g id="edge6" class="edge">
<title>StatusListModule&#45;&gt;ConfigurationModule</title>
<path fill="none" stroke="black" d="M2215,-122.04C2215,-138.73 2215,-161 2215,-161 2215,-161 1868.39,-161 1868.39,-161"/>
<polygon fill="black" stroke="black" points="1868.39,-157.5 1858.39,-161 1868.39,-164.5 1868.39,-157.5"/>
</g>
<!-- TrustListModule -->
<g id="node7" class="node">
<title>TrustListModule</title>
<polygon fill="#8dd3c7" stroke="black" points="2139.38,-122 2136.38,-126 2115.38,-126 2112.38,-122 2028.62,-122 2028.62,-86 2139.38,-86 2139.38,-122"/>
<text text-anchor="middle" x="2084" y="-99.8" font-family="Times,serif" font-size="14.00">TrustListModule</text>
</g>
<!-- TrustListModule&#45;&gt;ConfigurationModule -->
<g id="edge7" class="edge">
<title>TrustListModule&#45;&gt;ConfigurationModule</title>
<path fill="none" stroke="black" d="M2062.45,-122.28C2062.45,-137.95 2062.45,-158 2062.45,-158 2062.45,-158 1868.36,-158 1868.36,-158"/>
<polygon fill="black" stroke="black" points="1868.36,-154.5 1858.36,-158 1868.36,-161.5 1868.36,-154.5"/>
</g>
<!-- TrustModule -->
<g id="node8" class="node">
<title>TrustModule</title>
<polygon fill="#8dd3c7" stroke="black" points="2010.6,-122 2007.6,-126 1986.6,-126 1983.6,-122 1921.4,-122 1921.4,-86 2010.6,-86 2010.6,-122"/>
<text text-anchor="middle" x="1966" y="-99.8" font-family="Times,serif" font-size="14.00">TrustModule</text>
</g>
<!-- TrustModule&#45;&gt;ConfigurationModule -->
<g id="edge8" class="edge">
<title>TrustModule&#45;&gt;ConfigurationModule</title>
<path fill="none" stroke="black" d="M1929.56,-122.12C1929.56,-136.78 1929.56,-155 1929.56,-155 1929.56,-155 1868.45,-155 1868.45,-155"/>
<polygon fill="black" stroke="black" points="1868.45,-151.5 1858.45,-155 1868.45,-158.5 1868.45,-151.5"/>
</g>
<!-- AttributeProviderService  -->
<g id="node10" class="node">
<title>AttributeProviderService </title>
<polygon fill="#fb8072" stroke="black" points="2274.23,-252 2113.77,-252 2113.77,-216 2274.23,-216 2274.23,-252"/>
<text text-anchor="middle" x="2194" y="-229.8" font-family="Times,serif" font-size="14.00">AttributeProviderService </text>
</g>
<!-- ConfigurationModule&#45;&gt;AttributeProviderService  -->
<g id="edge9" class="edge">
<title>ConfigurationModule&#45;&gt;AttributeProviderService </title>
<path fill="none" stroke="black" stroke-dasharray="5,2" d="M1858.15,-181C1956.93,-181 2126.66,-181 2126.66,-181 2126.66,-181 2126.66,-205.76 2126.66,-205.76"/>
<polygon fill="black" stroke="black" points="2123.16,-205.76 2126.66,-215.76 2130.16,-205.76 2123.16,-205.76"/>
</g>
<!-- CredentialConfigService  -->
<g id="node11" class="node">
<title>CredentialConfigService </title>
<polygon fill="#fb8072" stroke="black" points="2096.18,-252 1937.82,-252 1937.82,-216 2096.18,-216 2096.18,-252"/>
<text text-anchor="middle" x="2017" y="-229.8" font-family="Times,serif" font-size="14.00">CredentialConfigService </text>
</g>
<!-- ConfigurationModule&#45;&gt;CredentialConfigService  -->
<g id="edge10" class="edge">
<title>ConfigurationModule&#45;&gt;CredentialConfigService </title>
<path fill="none" stroke="black" stroke-dasharray="5,2" d="M1858.19,-184C1910.77,-184 1974.11,-184 1974.11,-184 1974.11,-184 1974.11,-205.95 1974.11,-205.95"/>
<polygon fill="black" stroke="black" points="1970.61,-205.95 1974.11,-215.95 1977.61,-205.95 1970.61,-205.95"/>
</g>
<!-- CredentialsService  -->
<g id="node12" class="node">
<title>CredentialsService </title>
<polygon fill="#fb8072" stroke="black" points="1919.74,-252 1794.26,-252 1794.26,-216 1919.74,-216 1919.74,-252"/>
<text text-anchor="middle" x="1857" y="-229.8" font-family="Times,serif" font-size="14.00">CredentialsService </text>
</g>
<!-- ConfigurationModule&#45;&gt;CredentialsService  -->
<g id="edge11" class="edge">
<title>ConfigurationModule&#45;&gt;CredentialsService </title>
<path fill="none" stroke="black" stroke-dasharray="5,2" d="M1826.21,-187.11C1826.21,-187.11 1826.21,-205.99 1826.21,-205.99"/>
<polygon fill="black" stroke="black" points="1822.71,-205.99 1826.21,-215.99 1829.71,-205.99 1822.71,-205.99"/>
</g>
<!-- IssuanceService  -->
<g id="node13" class="node">
<title>IssuanceService </title>
<polygon fill="#fb8072" stroke="black" points="1776.67,-252 1667.33,-252 1667.33,-216 1776.67,-216 1776.67,-252"/>
<text text-anchor="middle" x="1722" y="-229.8" font-family="Times,serif" font-size="14.00">IssuanceService </text>
</g>
<!-- ConfigurationModule&#45;&gt;IssuanceService  -->
<g id="edge12" class="edge">
<title>ConfigurationModule&#45;&gt;IssuanceService </title>
<path fill="none" stroke="black" stroke-dasharray="5,2" d="M1748.39,-187.11C1748.39,-187.11 1748.39,-205.99 1748.39,-205.99"/>
<polygon fill="black" stroke="black" points="1744.89,-205.99 1748.39,-215.99 1751.89,-205.99 1744.89,-205.99"/>
</g>
<!-- StatusListModule  -->
<g id="node14" class="node">
<title>StatusListModule </title>
<polygon fill="#fb8072" stroke="black" points="1649.55,-252 1530.45,-252 1530.45,-216 1649.55,-216 1649.55,-252"/>
<text text-anchor="middle" x="1590" y="-229.8" font-family="Times,serif" font-size="14.00">StatusListModule </text>
</g>
<!-- ConfigurationModule&#45;&gt;StatusListModule  -->
<g id="edge13" class="edge">
<title>ConfigurationModule&#45;&gt;StatusListModule </title>
<path fill="none" stroke="black" stroke-dasharray="5,2" d="M1719.68,-184C1662.25,-184 1590,-184 1590,-184 1590,-184 1590,-205.95 1590,-205.95"/>
<polygon fill="black" stroke="black" points="1586.5,-205.95 1590,-215.95 1593.5,-205.95 1586.5,-205.95"/>
</g>
<!-- WebhookEndpointService  -->
<g id="node15" class="node">
<title>WebhookEndpointService </title>
<polygon fill="#fb8072" stroke="black" points="1512.74,-252 1345.26,-252 1345.26,-216 1512.74,-216 1512.74,-252"/>
<text text-anchor="middle" x="1429" y="-229.8" font-family="Times,serif" font-size="14.00">WebhookEndpointService </text>
</g>
<!-- ConfigurationModule&#45;&gt;WebhookEndpointService  -->
<g id="edge14" class="edge">
<title>ConfigurationModule&#45;&gt;WebhookEndpointService </title>
<path fill="none" stroke="black" stroke-dasharray="5,2" d="M1719.83,-181C1628.96,-181 1480.79,-181 1480.79,-181 1480.79,-181 1480.79,-205.76 1480.79,-205.76"/>
<polygon fill="black" stroke="black" points="1477.29,-205.76 1480.79,-215.76 1484.29,-205.76 1477.29,-205.76"/>
</g>
<!-- AttributeProviderService -->
<g id="node16" class="node">
<title>AttributeProviderService</title>
<ellipse fill="#fdb462" stroke="black" cx="1789" cy="-104" rx="108.22" ry="18"/>
<text text-anchor="middle" x="1789" y="-99.8" font-family="Times,serif" font-size="14.00">AttributeProviderService</text>
</g>
<!-- AttributeProviderService&#45;&gt;ConfigurationModule -->
<g id="edge15" class="edge">
<title>AttributeProviderService&#45;&gt;ConfigurationModule</title>
<path fill="none" stroke="black" d="M1789,-122.11C1789,-122.11 1789,-140.99 1789,-140.99"/>
<polygon fill="black" stroke="black" points="1785.5,-140.99 1789,-150.99 1792.5,-140.99 1785.5,-140.99"/>
</g>
<!-- CredentialConfigService -->
<g id="node17" class="node">
<title>CredentialConfigService</title>
<ellipse fill="#fdb462" stroke="black" cx="1556" cy="-104" rx="107.08" ry="18"/>
<text text-anchor="middle" x="1556" y="-99.8" font-family="Times,serif" font-size="14.00">CredentialConfigService</text>
</g>
<!-- CredentialConfigService&#45;&gt;ConfigurationModule -->
<g id="edge16" class="edge">
<title>CredentialConfigService&#45;&gt;ConfigurationModule</title>
<path fill="none" stroke="black" d="M1656.28,-110.67C1656.28,-124.49 1656.28,-155 1656.28,-155 1656.28,-155 1709.92,-155 1709.92,-155"/>
<polygon fill="black" stroke="black" points="1709.92,-158.5 1719.92,-155 1709.92,-151.5 1709.92,-158.5"/>
</g>
<!-- CredentialsService -->
<g id="node18" class="node">
<title>CredentialsService</title>
<ellipse fill="#fdb462" stroke="black" cx="1347" cy="-104" rx="83.94" ry="18"/>
<text text-anchor="middle" x="1347" y="-99.8" font-family="Times,serif" font-size="14.00">CredentialsService</text>
</g>
<!-- CredentialsService&#45;&gt;ConfigurationModule -->
<g id="edge17" class="edge">
<title>CredentialsService&#45;&gt;ConfigurationModule</title>
<path fill="none" stroke="black" d="M1388.18,-119.91C1388.18,-135.84 1388.18,-158 1388.18,-158 1388.18,-158 1709.64,-158 1709.64,-158"/>
<polygon fill="black" stroke="black" points="1709.64,-161.5 1719.64,-158 1709.64,-154.5 1709.64,-161.5"/>
</g>
<!-- IssuanceService -->
<g id="node19" class="node">
<title>IssuanceService</title>
<ellipse fill="#fdb462" stroke="black" cx="1172" cy="-104" rx="73.47" ry="18"/>
<text text-anchor="middle" x="1172" y="-99.8" font-family="Times,serif" font-size="14.00">IssuanceService</text>
</g>
<!-- IssuanceService&#45;&gt;ConfigurationModule -->
<g id="edge18" class="edge">
<title>IssuanceService&#45;&gt;ConfigurationModule</title>
<path fill="none" stroke="black" d="M1172,-122.04C1172,-138.73 1172,-161 1172,-161 1172,-161 1709.72,-161 1709.72,-161"/>
<polygon fill="black" stroke="black" points="1709.72,-164.5 1719.72,-161 1709.72,-157.5 1709.72,-164.5"/>
</g>
<!-- MdocIssuerService -->
<g id="node20" class="node">
<title>MdocIssuerService</title>
<ellipse fill="#fdb462" stroke="black" cx="995" cy="-104" rx="85.65" ry="18"/>
<text text-anchor="middle" x="995" y="-99.8" font-family="Times,serif" font-size="14.00">MdocIssuerService</text>
</g>
<!-- MdocIssuerService&#45;&gt;ConfigurationModule -->
<g id="edge19" class="edge">
<title>MdocIssuerService&#45;&gt;ConfigurationModule</title>
<path fill="none" stroke="black" d="M995,-122.3C995,-140.27 995,-165 995,-165 995,-165 1709.93,-165 1709.93,-165"/>
<polygon fill="black" stroke="black" points="1709.93,-168.5 1719.93,-165 1709.93,-161.5 1709.93,-168.5"/>
</g>
<!-- SchemaMetaAdapterService -->
<g id="node21" class="node">
<title>SchemaMetaAdapterService</title>
<ellipse fill="#fdb462" stroke="black" cx="770" cy="-104" rx="121.5" ry="18"/>
<text text-anchor="middle" x="770" y="-99.8" font-family="Times,serif" font-size="14.00">SchemaMetaAdapterService</text>
</g>
<!-- SchemaMetaAdapterService&#45;&gt;ConfigurationModule -->
<g id="edge20" class="edge">
<title>SchemaMetaAdapterService&#45;&gt;ConfigurationModule</title>
<path fill="none" stroke="black" d="M770,-122.17C770,-141.09 770,-168 770,-168 770,-168 1709.76,-168 1709.76,-168"/>
<polygon fill="black" stroke="black" points="1709.76,-171.5 1719.76,-168 1709.76,-164.5 1709.76,-171.5"/>
</g>
<!-- SdjwtvcIssuerService -->
<g id="node22" class="node">
<title>SdjwtvcIssuerService</title>
<ellipse fill="#fdb462" stroke="black" cx="536" cy="-104" rx="94.9" ry="18"/>
<text text-anchor="middle" x="536" y="-99.8" font-family="Times,serif" font-size="14.00">SdjwtvcIssuerService</text>
</g>
<!-- SdjwtvcIssuerService&#45;&gt;ConfigurationModule -->
<g id="edge21" class="edge">
<title>SdjwtvcIssuerService&#45;&gt;ConfigurationModule</title>
<path fill="none" stroke="black" d="M536,-122.31C536,-142.15 536,-171 536,-171 536,-171 1709.85,-171 1709.85,-171"/>
<polygon fill="black" stroke="black" points="1709.85,-174.5 1719.85,-171 1709.85,-167.5 1709.85,-174.5"/>
</g>
<!-- WebhookEndpointService -->
<g id="node23" class="node">
<title>WebhookEndpointService</title>
<ellipse fill="#fdb462" stroke="black" cx="310" cy="-104" rx="112.89" ry="18"/>
<text text-anchor="middle" x="310" y="-99.8" font-family="Times,serif" font-size="14.00">WebhookEndpointService</text>
</g>
<!-- WebhookEndpointService&#45;&gt;ConfigurationModule -->
<g id="edge22" class="edge">
<title>WebhookEndpointService&#45;&gt;ConfigurationModule</title>
<path fill="none" stroke="black" d="M310,-122.03C310,-142.77 310,-174 310,-174 310,-174 1709.65,-174 1709.65,-174"/>
<polygon fill="black" stroke="black" points="1709.65,-177.5 1719.65,-174 1709.65,-170.5 1709.65,-177.5"/>
</g>
<!-- WebhookService -->
<g id="node24" class="node">
<title>WebhookService</title>
<ellipse fill="#fdb462" stroke="black" cx="102" cy="-104" rx="77.57" ry="18"/>
<text text-anchor="middle" x="102" y="-99.8" font-family="Times,serif" font-size="14.00">WebhookService</text>
</g>
<!-- WebhookService&#45;&gt;ConfigurationModule -->
<g id="edge23" class="edge">
<title>WebhookService&#45;&gt;ConfigurationModule</title>
<path fill="none" stroke="black" d="M102,-122.29C102,-144.21 102,-178 102,-178 102,-178 1709.72,-178 1709.72,-178"/>
<polygon fill="black" stroke="black" points="1709.72,-181.5 1719.72,-178 1709.72,-174.5 1709.72,-181.5"/>
</g>
</g>
</svg>
