<?xml version="1.0" encoding="UTF-8" standalone="no"?>
<!DOCTYPE svg PUBLIC "-//W3C//DTD SVG 1.1//EN"
 "http://www.w3.org/Graphics/SVG/1.1/DTD/svg11.dtd">
<!-- Generated by graphviz version 2.47.0 (20210316.0004)
 -->
<!-- Title: dependencies Pages: 1 -->
<svg width="2196pt" height="284pt"
 viewBox="0.00 0.00 2196.00 284.00" xmlns="http://www.w3.org/2000/svg" xmlns:xlink="http://www.w3.org/1999/xlink">
<g id="graph0" class="graph" transform="scale(1 1) rotate(0) translate(4 280)">
<title>dependencies</title>
<polygon fill="white" stroke="transparent" points="-4,4 -4,-280 2192,-280 2192,4 -4,4"/>
<text text-anchor="start" x="1073.01" y="-42.4" font-family="Times-12" font-weight="bold" font-size="14.00">Legend</text>
<polygon fill="#ffffb3" stroke="transparent" points="860,-10 860,-30 880,-30 880,-10 860,-10"/>
<text text-anchor="start" x="883.63" y="-15.4" font-family="Times-12" font-size="14.00"> &#160;Declarations</text>
<polygon fill="#8dd3c7" stroke="transparent" points="973,-10 973,-30 993,-30 993,-10 973,-10"/>
<text text-anchor="start" x="996.73" y="-15.4" font-family="Times-12" font-size="14.00"> &#160;Module</text>
<polygon fill="#80b1d3" stroke="transparent" points="1059,-10 1059,-30 1079,-30 1079,-10 1059,-10"/>
<text text-anchor="start" x="1082.78" y="-15.4" font-family="Times-12" font-size="14.00"> &#160;Bootstrap</text>
<polygon fill="#fdb462" stroke="transparent" points="1156,-10 1156,-30 1176,-30 1176,-10 1156,-10"/>
<text text-anchor="start" x="1179.67" y="-15.4" font-family="Times-12" font-size="14.00"> &#160;Providers</text>
<polygon fill="#fb8072" stroke="transparent" points="1252,-10 1252,-30 1272,-30 1272,-10 1252,-10"/>
<text text-anchor="start" x="1275.73" y="-15.4" font-family="Times-12" font-size="14.00"> &#160;Exports</text>
<g id="clust1" class="cluster">
<title>cluster_ConfigurationModule</title>
<polygon fill="none" stroke="black" stroke-dasharray="1,5" points="8,-70 8,-268 2180,-268 2180,-70 8,-70"/>
</g>
<g id="clust3" class="cluster">
<title>cluster_ConfigurationModule_imports</title>
<polygon fill="none" stroke="black" points="1652,-78 1652,-130 2172,-130 2172,-78 1652,-78"/>
</g>
<g id="clust4" class="cluster">
<title>cluster_ConfigurationModule_exports</title>
<polygon fill="none" stroke="black" points="738,-208 738,-260 1683,-260 1683,-208 738,-208"/>
</g>
<g id="clust6" class="cluster">
<title>cluster_ConfigurationModule_providers</title>
<polygon fill="none" stroke="black" points="16,-78 16,-130 1644,-130 1644,-78 16,-78"/>
</g>
<!-- CryptoModule -->
<g id="node1" class="node">
<title>CryptoModule</title>
<polygon fill="#8dd3c7" stroke="black" points="2164.44,-122 2161.44,-126 2140.44,-126 2137.44,-122 2065.56,-122 2065.56,-86 2164.44,-86 2164.44,-122"/>
<text text-anchor="middle" x="2115" y="-99.8" font-family="Times,serif" font-size="14.00">CryptoModule</text>
</g>
<!-- ConfigurationModule -->
<g id="node5" class="node">
<title>ConfigurationModule</title>
<polygon fill="#8dd3c7" stroke="black" points="1259.09,-187 1256.09,-191 1235.09,-191 1232.09,-187 1120.91,-187 1120.91,-151 1259.09,-151 1259.09,-187"/>
<text text-anchor="middle" x="1190" y="-164.8" font-family="Times,serif" font-size="14.00">ConfigurationModule</text>
</g>
<!-- CryptoModule&#45;&gt;ConfigurationModule -->
<g id="edge1" class="edge">
<title>CryptoModule&#45;&gt;ConfigurationModule</title>
<path fill="none" stroke="black" d="M2115,-122.03C2115,-142.77 2115,-174 2115,-174 2115,-174 1269.15,-174 1269.15,-174"/>
<polygon fill="black" stroke="black" points="1269.15,-170.5 1259.15,-174 1269.15,-177.5 1269.15,-170.5"/>
</g>
<!-- PresentationsModule -->
<g id="node2" class="node">
<title>PresentationsModule</title>
<polygon fill="#8dd3c7" stroke="black" points="2048.2,-122 2045.2,-126 2024.2,-126 2021.2,-122 1913.8,-122 1913.8,-86 2048.2,-86 2048.2,-122"/>
<text text-anchor="middle" x="1981" y="-99.8" font-family="Times,serif" font-size="14.00">PresentationsModule</text>
</g>
<!-- PresentationsModule&#45;&gt;ConfigurationModule -->
<g id="edge2" class="edge">
<title>PresentationsModule&#45;&gt;ConfigurationModule</title>
<path fill="none" stroke="black" d="M1981,-122.11C1981,-141.34 1981,-169 1981,-169 1981,-169 1269.16,-169 1269.16,-169"/>
<polygon fill="black" stroke="black" points="1269.16,-165.5 1259.16,-169 1269.16,-172.5 1269.16,-165.5"/>
</g>
<!-- SessionModule -->
<g id="node3" class="node">
<title>SessionModule</title>
<polygon fill="#8dd3c7" stroke="black" points="1896.33,-122 1893.33,-126 1872.33,-126 1869.33,-122 1793.67,-122 1793.67,-86 1896.33,-86 1896.33,-122"/>
<text text-anchor="middle" x="1845" y="-99.8" font-family="Times,serif" font-size="14.00">SessionModule</text>
</g>
<!-- SessionModule&#45;&gt;ConfigurationModule -->
<g id="edge3" class="edge">
<title>SessionModule&#45;&gt;ConfigurationModule</title>
<path fill="none" stroke="black" d="M1845,-122.3C1845,-140.27 1845,-165 1845,-165 1845,-165 1269.17,-165 1269.17,-165"/>
<polygon fill="black" stroke="black" points="1269.17,-161.5 1259.17,-165 1269.17,-168.5 1269.17,-161.5"/>
</g>
<!-- StatusListModule -->
<g id="node4" class="node">
<title>StatusListModule</title>
<polygon fill="#8dd3c7" stroke="black" points="1775.55,-122 1772.55,-126 1751.55,-126 1748.55,-122 1660.45,-122 1660.45,-86 1775.55,-86 1775.55,-122"/>
<text text-anchor="middle" x="1718" y="-99.8" font-family="Times,serif" font-size="14.00">StatusListModule</text>
</g>
<!-- StatusListModule&#45;&gt;ConfigurationModule -->
<g id="edge4" class="edge">
<title>StatusListModule&#45;&gt;ConfigurationModule</title>
<path fill="none" stroke="black" d="M1667.67,-122.03C1667.67,-138.4 1667.67,-160 1667.67,-160 1667.67,-160 1269.2,-160 1269.2,-160"/>
<polygon fill="black" stroke="black" points="1269.2,-156.5 1259.2,-160 1269.2,-163.5 1269.2,-156.5"/>
</g>
<!-- AttributeProviderService  -->
<g id="node6" class="node">
<title>AttributeProviderService </title>
<polygon fill="#fb8072" stroke="black" points="1675.23,-252 1514.77,-252 1514.77,-216 1675.23,-216 1675.23,-252"/>
<text text-anchor="middle" x="1595" y="-229.8" font-family="Times,serif" font-size="14.00">AttributeProviderService </text>
</g>
<!-- ConfigurationModule&#45;&gt;AttributeProviderService  -->
<g id="edge5" class="edge">
<title>ConfigurationModule&#45;&gt;AttributeProviderService </title>
<path fill="none" stroke="black" stroke-dasharray="5,2" d="M1259.36,-178C1370.35,-178 1575.5,-178 1575.5,-178 1575.5,-178 1575.5,-205.97 1575.5,-205.97"/>
<polygon fill="black" stroke="black" points="1572,-205.97 1575.5,-215.97 1579,-205.97 1572,-205.97"/>
</g>
<!-- CredentialConfigService  -->
<g id="node7" class="node">
<title>CredentialConfigService </title>
<polygon fill="#fb8072" stroke="black" points="1497.18,-252 1338.82,-252 1338.82,-216 1497.18,-216 1497.18,-252"/>
<text text-anchor="middle" x="1418" y="-229.8" font-family="Times,serif" font-size="14.00">CredentialConfigService </text>
</g>
<!-- ConfigurationModule&#45;&gt;CredentialConfigService  -->
<g id="edge6" class="edge">
<title>ConfigurationModule&#45;&gt;CredentialConfigService </title>
<path fill="none" stroke="black" stroke-dasharray="5,2" d="M1259.21,-183C1310.07,-183 1370.35,-183 1370.35,-183 1370.35,-183 1370.35,-205.88 1370.35,-205.88"/>
<polygon fill="black" stroke="black" points="1366.85,-205.88 1370.35,-215.88 1373.85,-205.88 1366.85,-205.88"/>
</g>
<!-- CredentialsService  -->
<g id="node8" class="node">
<title>CredentialsService </title>
<polygon fill="#fb8072" stroke="black" points="1320.74,-252 1195.26,-252 1195.26,-216 1320.74,-216 1320.74,-252"/>
<text text-anchor="middle" x="1258" y="-229.8" font-family="Times,serif" font-size="14.00">CredentialsService </text>
</g>
<!-- ConfigurationModule&#45;&gt;CredentialsService  -->
<g id="edge7" class="edge">
<title>ConfigurationModule&#45;&gt;CredentialsService </title>
<path fill="none" stroke="black" stroke-dasharray="5,2" d="M1227.21,-187.11C1227.21,-187.11 1227.21,-205.99 1227.21,-205.99"/>
<polygon fill="black" stroke="black" points="1223.71,-205.99 1227.21,-215.99 1230.71,-205.99 1223.71,-205.99"/>
</g>
<!-- IssuanceService  -->
<g id="node9" class="node">
<title>IssuanceService </title>
<polygon fill="#fb8072" stroke="black" points="1177.67,-252 1068.33,-252 1068.33,-216 1177.67,-216 1177.67,-252"/>
<text text-anchor="middle" x="1123" y="-229.8" font-family="Times,serif" font-size="14.00">IssuanceService </text>
</g>
<!-- ConfigurationModule&#45;&gt;IssuanceService  -->
<g id="edge8" class="edge">
<title>ConfigurationModule&#45;&gt;IssuanceService </title>
<path fill="none" stroke="black" stroke-dasharray="5,2" d="M1149.39,-187.11C1149.39,-187.11 1149.39,-205.99 1149.39,-205.99"/>
<polygon fill="black" stroke="black" points="1145.89,-205.99 1149.39,-215.99 1152.89,-205.99 1145.89,-205.99"/>
</g>
<!-- StatusListModule  -->
<g id="node10" class="node">
<title>StatusListModule </title>
<polygon fill="#fb8072" stroke="black" points="1050.55,-252 931.45,-252 931.45,-216 1050.55,-216 1050.55,-252"/>
<text text-anchor="middle" x="991" y="-229.8" font-family="Times,serif" font-size="14.00">StatusListModule </text>
</g>
<!-- ConfigurationModule&#45;&gt;StatusListModule  -->
<g id="edge9" class="edge">
<title>ConfigurationModule&#45;&gt;StatusListModule </title>
<path fill="none" stroke="black" stroke-dasharray="5,2" d="M1120.57,-183C1075.94,-183 1026.28,-183 1026.28,-183 1026.28,-183 1026.28,-205.88 1026.28,-205.88"/>
<polygon fill="black" stroke="black" points="1022.78,-205.88 1026.28,-215.88 1029.78,-205.88 1022.78,-205.88"/>
</g>
<!-- WebhookEndpointService  -->
<g id="node11" class="node">
<title>WebhookEndpointService </title>
<polygon fill="#fb8072" stroke="black" points="913.74,-252 746.26,-252 746.26,-216 913.74,-216 913.74,-252"/>
<text text-anchor="middle" x="830" y="-229.8" font-family="Times,serif" font-size="14.00">WebhookEndpointService </text>
</g>
<!-- ConfigurationModule&#45;&gt;WebhookEndpointService  -->
<g id="edge10" class="edge">
<title>ConfigurationModule&#45;&gt;WebhookEndpointService </title>
<path fill="none" stroke="black" stroke-dasharray="5,2" d="M1120.63,-178C1028.07,-178 875.69,-178 875.69,-178 875.69,-178 875.69,-205.97 875.69,-205.97"/>
<polygon fill="black" stroke="black" points="872.19,-205.97 875.69,-215.97 879.19,-205.97 872.19,-205.97"/>
</g>
<!-- AttributeProviderService -->
<g id="node12" class="node">
<title>AttributeProviderService</title>
<ellipse fill="#fdb462" stroke="black" cx="1528" cy="-104" rx="108.22" ry="18"/>
<text text-anchor="middle" x="1528" y="-99.8" font-family="Times,serif" font-size="14.00">AttributeProviderService</text>
</g>
<!-- AttributeProviderService&#45;&gt;ConfigurationModule -->
<g id="edge11" class="edge">
<title>AttributeProviderService&#45;&gt;ConfigurationModule</title>
<path fill="none" stroke="black" d="M1458.61,-117.94C1458.61,-133.34 1458.61,-156 1458.61,-156 1458.61,-156 1269.17,-156 1269.17,-156"/>
<polygon fill="black" stroke="black" points="1269.17,-152.5 1259.17,-156 1269.17,-159.5 1269.17,-152.5"/>
</g>
<!-- CredentialConfigService -->
<g id="node13" class="node">
<title>CredentialConfigService</title>
<ellipse fill="#fdb462" stroke="black" cx="1295" cy="-104" rx="107.08" ry="18"/>
<text text-anchor="middle" x="1295" y="-99.8" font-family="Times,serif" font-size="14.00">CredentialConfigService</text>
</g>
<!-- CredentialConfigService&#45;&gt;ConfigurationModule -->
<g id="edge12" class="edge">
<title>CredentialConfigService&#45;&gt;ConfigurationModule</title>
<path fill="none" stroke="black" d="M1223.5,-117.47C1223.5,-117.47 1223.5,-140.86 1223.5,-140.86"/>
<polygon fill="black" stroke="black" points="1220,-140.86 1223.5,-150.86 1227,-140.86 1220,-140.86"/>
</g>
<!-- CredentialsService -->
<g id="node14" class="node">
<title>CredentialsService</title>
<ellipse fill="#fdb462" stroke="black" cx="1086" cy="-104" rx="83.94" ry="18"/>
<text text-anchor="middle" x="1086" y="-99.8" font-family="Times,serif" font-size="14.00">CredentialsService</text>
</g>
<!-- CredentialsService&#45;&gt;ConfigurationModule -->
<g id="edge13" class="edge">
<title>CredentialsService&#45;&gt;ConfigurationModule</title>
<path fill="none" stroke="black" d="M1145.46,-116.84C1145.46,-116.84 1145.46,-140.52 1145.46,-140.52"/>
<polygon fill="black" stroke="black" points="1141.96,-140.52 1145.46,-150.52 1148.96,-140.52 1141.96,-140.52"/>
</g>
<!-- IssuanceService -->
<g id="node15" class="node">
<title>IssuanceService</title>
<ellipse fill="#fdb462" stroke="black" cx="911" cy="-104" rx="73.47" ry="18"/>
<text text-anchor="middle" x="911" y="-99.8" font-family="Times,serif" font-size="14.00">IssuanceService</text>
</g>
<!-- IssuanceService&#45;&gt;ConfigurationModule -->
<g id="edge14" class="edge">
<title>IssuanceService&#45;&gt;ConfigurationModule</title>
<path fill="none" stroke="black" d="M957.85,-117.94C957.85,-133.34 957.85,-156 957.85,-156 957.85,-156 1110.66,-156 1110.66,-156"/>
<polygon fill="black" stroke="black" points="1110.66,-159.5 1120.66,-156 1110.66,-152.5 1110.66,-159.5"/>
</g>
<!-- MdocIssuerService -->
<g id="node16" class="node">
<title>MdocIssuerService</title>
<ellipse fill="#fdb462" stroke="black" cx="734" cy="-104" rx="85.65" ry="18"/>
<text text-anchor="middle" x="734" y="-99.8" font-family="Times,serif" font-size="14.00">MdocIssuerService</text>
</g>
<!-- MdocIssuerService&#45;&gt;ConfigurationModule -->
<g id="edge15" class="edge">
<title>MdocIssuerService&#45;&gt;ConfigurationModule</title>
<path fill="none" stroke="black" d="M782.98,-119.01C782.98,-135.59 782.98,-160 782.98,-160 782.98,-160 1110.49,-160 1110.49,-160"/>
<polygon fill="black" stroke="black" points="1110.49,-163.5 1120.49,-160 1110.49,-156.5 1110.49,-163.5"/>
</g>
<!-- SdjwtvcIssuerService -->
<g id="node17" class="node">
<title>SdjwtvcIssuerService</title>
<ellipse fill="#fdb462" stroke="black" cx="536" cy="-104" rx="94.9" ry="18"/>
<text text-anchor="middle" x="536" y="-99.8" font-family="Times,serif" font-size="14.00">SdjwtvcIssuerService</text>
</g>
<!-- SdjwtvcIssuerService&#45;&gt;ConfigurationModule -->
<g id="edge16" class="edge">
<title>SdjwtvcIssuerService&#45;&gt;ConfigurationModule</title>
<path fill="none" stroke="black" d="M536,-122.3C536,-140.27 536,-165 536,-165 536,-165 1110.94,-165 1110.94,-165"/>
<polygon fill="black" stroke="black" points="1110.94,-168.5 1120.94,-165 1110.94,-161.5 1110.94,-168.5"/>
</g>
<!-- WebhookEndpointService -->
<g id="node18" class="node">
<title>WebhookEndpointService</title>
<ellipse fill="#fdb462" stroke="black" cx="310" cy="-104" rx="112.89" ry="18"/>
<text text-anchor="middle" x="310" y="-99.8" font-family="Times,serif" font-size="14.00">WebhookEndpointService</text>
</g>
<!-- WebhookEndpointService&#45;&gt;ConfigurationModule -->
<g id="edge17" class="edge">
<title>WebhookEndpointService&#45;&gt;ConfigurationModule</title>
<path fill="none" stroke="black" d="M310,-122.11C310,-141.34 310,-169 310,-169 310,-169 1110.95,-169 1110.95,-169"/>
<polygon fill="black" stroke="black" points="1110.95,-172.5 1120.95,-169 1110.95,-165.5 1110.95,-172.5"/>
</g>
<!-- WebhookService -->
<g id="node19" class="node">
<title>WebhookService</title>
<ellipse fill="#fdb462" stroke="black" cx="102" cy="-104" rx="77.57" ry="18"/>
<text text-anchor="middle" x="102" y="-99.8" font-family="Times,serif" font-size="14.00">WebhookService</text>
</g>
<!-- WebhookService&#45;&gt;ConfigurationModule -->
<g id="edge18" class="edge">
<title>WebhookService&#45;&gt;ConfigurationModule</title>
<path fill="none" stroke="black" d="M102,-122.03C102,-142.77 102,-174 102,-174 102,-174 1110.7,-174 1110.7,-174"/>
<polygon fill="black" stroke="black" points="1110.7,-177.5 1120.7,-174 1110.7,-170.5 1110.7,-177.5"/>
</g>
</g>
</svg>
