<?xml version="1.0" encoding="UTF-8" standalone="no"?>
<!DOCTYPE svg PUBLIC "-//W3C//DTD SVG 1.1//EN"
 "http://www.w3.org/Graphics/SVG/1.1/DTD/svg11.dtd">
<!-- Generated by graphviz version 2.47.0 (20210316.0004)
 -->
<!-- Title: dependencies Pages: 1 -->
<svg width="1566pt" height="284pt"
 viewBox="0.00 0.00 1566.00 284.00" xmlns="http://www.w3.org/2000/svg" xmlns:xlink="http://www.w3.org/1999/xlink">
<g id="graph0" class="graph" transform="scale(1 1) rotate(0) translate(4 280)">
<title>dependencies</title>
<polygon fill="white" stroke="transparent" points="-4,4 -4,-280 1562,-280 1562,4 -4,4"/>
<text text-anchor="start" x="758.01" y="-42.4" font-family="Times-12" font-weight="bold" font-size="14.00">Legend</text>
<polygon fill="#ffffb3" stroke="transparent" points="545,-10 545,-30 565,-30 565,-10 545,-10"/>
<text text-anchor="start" x="568.63" y="-15.4" font-family="Times-12" font-size="14.00"> &#160;Declarations</text>
<polygon fill="#8dd3c7" stroke="transparent" points="658,-10 658,-30 678,-30 678,-10 658,-10"/>
<text text-anchor="start" x="681.73" y="-15.4" font-family="Times-12" font-size="14.00"> &#160;Module</text>
<polygon fill="#80b1d3" stroke="transparent" points="744,-10 744,-30 764,-30 764,-10 744,-10"/>
<text text-anchor="start" x="767.78" y="-15.4" font-family="Times-12" font-size="14.00"> &#160;Bootstrap</text>
<polygon fill="#fdb462" stroke="transparent" points="841,-10 841,-30 861,-30 861,-10 841,-10"/>
<text text-anchor="start" x="864.67" y="-15.4" font-family="Times-12" font-size="14.00"> &#160;Providers</text>
<polygon fill="#fb8072" stroke="transparent" points="937,-10 937,-30 957,-30 957,-10 937,-10"/>
<text text-anchor="start" x="960.73" y="-15.4" font-family="Times-12" font-size="14.00"> &#160;Exports</text>
<g id="clust1" class="cluster">
<title>cluster_ConfigurationModule</title>
<polygon fill="none" stroke="black" stroke-dasharray="1,5" points="8,-70 8,-268 1550,-268 1550,-70 8,-70"/>
</g>
<g id="clust6" class="cluster">
<title>cluster_ConfigurationModule_providers</title>
<polygon fill="none" stroke="black" points="392,-78 392,-130 1542,-130 1542,-78 392,-78"/>
</g>
<g id="clust3" class="cluster">
<title>cluster_ConfigurationModule_imports</title>
<polygon fill="none" stroke="black" points="16,-78 16,-130 384,-130 384,-78 16,-78"/>
</g>
<g id="clust4" class="cluster">
<title>cluster_ConfigurationModule_exports</title>
<polygon fill="none" stroke="black" points="470,-208 470,-260 915,-260 915,-208 470,-208"/>
</g>
<!-- CryptoModule -->
<g id="node1" class="node">
<title>CryptoModule</title>
<polygon fill="#8dd3c7" stroke="black" points="376.44,-122 373.44,-126 352.44,-126 349.44,-122 277.56,-122 277.56,-86 376.44,-86 376.44,-122"/>
<text text-anchor="middle" x="327" y="-99.8" font-family="Times,serif" font-size="14.00">CryptoModule</text>
</g>
<!-- ConfigurationModule -->
<g id="node4" class="node">
<title>ConfigurationModule</title>
<polygon fill="#8dd3c7" stroke="black" points="737.09,-187 734.09,-191 713.09,-191 710.09,-187 598.91,-187 598.91,-151 737.09,-151 737.09,-187"/>
<text text-anchor="middle" x="668" y="-164.8" font-family="Times,serif" font-size="14.00">ConfigurationModule</text>
</g>
<!-- CryptoModule&#45;&gt;ConfigurationModule -->
<g id="edge1" class="edge">
<title>CryptoModule&#45;&gt;ConfigurationModule</title>
<path fill="none" stroke="black" d="M327,-122.02C327,-139.37 327,-163 327,-163 327,-163 588.58,-163 588.58,-163"/>
<polygon fill="black" stroke="black" points="588.58,-166.5 598.58,-163 588.58,-159.5 588.58,-166.5"/>
</g>
<!-- SessionModule -->
<g id="node2" class="node">
<title>SessionModule</title>
<polygon fill="#8dd3c7" stroke="black" points="260.33,-122 257.33,-126 236.33,-126 233.33,-122 157.67,-122 157.67,-86 260.33,-86 260.33,-122"/>
<text text-anchor="middle" x="209" y="-99.8" font-family="Times,serif" font-size="14.00">SessionModule</text>
</g>
<!-- SessionModule&#45;&gt;ConfigurationModule -->
<g id="edge2" class="edge">
<title>SessionModule&#45;&gt;ConfigurationModule</title>
<path fill="none" stroke="black" d="M209,-122.11C209,-141.34 209,-169 209,-169 209,-169 588.79,-169 588.79,-169"/>
<polygon fill="black" stroke="black" points="588.79,-172.5 598.79,-169 588.79,-165.5 588.79,-172.5"/>
</g>
<!-- StatusListModule -->
<g id="node3" class="node">
<title>StatusListModule</title>
<polygon fill="#8dd3c7" stroke="black" points="139.55,-122 136.55,-126 115.55,-126 112.55,-122 24.45,-122 24.45,-86 139.55,-86 139.55,-122"/>
<text text-anchor="middle" x="82" y="-99.8" font-family="Times,serif" font-size="14.00">StatusListModule</text>
</g>
<!-- StatusListModule&#45;&gt;ConfigurationModule -->
<g id="edge3" class="edge">
<title>StatusListModule&#45;&gt;ConfigurationModule</title>
<path fill="none" stroke="black" d="M82,-122.28C82,-143.32 82,-175 82,-175 82,-175 588.77,-175 588.77,-175"/>
<polygon fill="black" stroke="black" points="588.77,-178.5 598.77,-175 588.77,-171.5 588.77,-178.5"/>
</g>
<!-- CredentialConfigService  -->
<g id="node5" class="node">
<title>CredentialConfigService </title>
<polygon fill="#fb8072" stroke="black" points="907.18,-252 748.82,-252 748.82,-216 907.18,-216 907.18,-252"/>
<text text-anchor="middle" x="828" y="-229.8" font-family="Times,serif" font-size="14.00">CredentialConfigService </text>
</g>
<!-- ConfigurationModule&#45;&gt;CredentialConfigService  -->
<g id="edge4" class="edge">
<title>ConfigurationModule&#45;&gt;CredentialConfigService </title>
<path fill="none" stroke="black" stroke-dasharray="5,2" d="M737.09,-181C747.95,-181 755.68,-181 755.68,-181 755.68,-181 755.68,-205.76 755.68,-205.76"/>
<polygon fill="black" stroke="black" points="752.18,-205.76 755.68,-215.76 759.18,-205.76 752.18,-205.76"/>
</g>
<!-- CredentialsService  -->
<g id="node6" class="node">
<title>CredentialsService </title>
<polygon fill="#fb8072" stroke="black" points="730.74,-252 605.26,-252 605.26,-216 730.74,-216 730.74,-252"/>
<text text-anchor="middle" x="668" y="-229.8" font-family="Times,serif" font-size="14.00">CredentialsService </text>
</g>
<!-- ConfigurationModule&#45;&gt;CredentialsService  -->
<g id="edge5" class="edge">
<title>ConfigurationModule&#45;&gt;CredentialsService </title>
<path fill="none" stroke="black" stroke-dasharray="5,2" d="M668,-187.11C668,-187.11 668,-205.99 668,-205.99"/>
<polygon fill="black" stroke="black" points="664.5,-205.99 668,-215.99 671.5,-205.99 664.5,-205.99"/>
</g>
<!-- IssuanceService  -->
<g id="node7" class="node">
<title>IssuanceService </title>
<polygon fill="#fb8072" stroke="black" points="587.67,-252 478.33,-252 478.33,-216 587.67,-216 587.67,-252"/>
<text text-anchor="middle" x="533" y="-229.8" font-family="Times,serif" font-size="14.00">IssuanceService </text>
</g>
<!-- ConfigurationModule&#45;&gt;IssuanceService  -->
<g id="edge6" class="edge">
<title>ConfigurationModule&#45;&gt;IssuanceService </title>
<path fill="none" stroke="black" stroke-dasharray="5,2" d="M598.68,-181C588.07,-181 580.57,-181 580.57,-181 580.57,-181 580.57,-205.76 580.57,-205.76"/>
<polygon fill="black" stroke="black" points="577.07,-205.76 580.57,-215.76 584.07,-205.76 577.07,-205.76"/>
</g>
<!-- CredentialConfigService -->
<g id="node8" class="node">
<title>CredentialConfigService</title>
<ellipse fill="#fdb462" stroke="black" cx="1427" cy="-104" rx="107.08" ry="18"/>
<text text-anchor="middle" x="1427" y="-99.8" font-family="Times,serif" font-size="14.00">CredentialConfigService</text>
</g>
<!-- CredentialConfigService&#45;&gt;ConfigurationModule -->
<g id="edge7" class="edge">
<title>CredentialConfigService&#45;&gt;ConfigurationModule</title>
<path fill="none" stroke="black" d="M1427,-122.28C1427,-143.32 1427,-175 1427,-175 1427,-175 747.37,-175 747.37,-175"/>
<polygon fill="black" stroke="black" points="747.37,-171.5 737.37,-175 747.37,-178.5 747.37,-171.5"/>
</g>
<!-- CredentialsService -->
<g id="node9" class="node">
<title>CredentialsService</title>
<ellipse fill="#fdb462" stroke="black" cx="1218" cy="-104" rx="83.94" ry="18"/>
<text text-anchor="middle" x="1218" y="-99.8" font-family="Times,serif" font-size="14.00">CredentialsService</text>
</g>
<!-- CredentialsService&#45;&gt;ConfigurationModule -->
<g id="edge8" class="edge">
<title>CredentialsService&#45;&gt;ConfigurationModule</title>
<path fill="none" stroke="black" d="M1218,-122.11C1218,-141.34 1218,-169 1218,-169 1218,-169 747.1,-169 747.1,-169"/>
<polygon fill="black" stroke="black" points="747.1,-165.5 737.1,-169 747.1,-172.5 747.1,-165.5"/>
</g>
<!-- IssuanceService -->
<g id="node10" class="node">
<title>IssuanceService</title>
<ellipse fill="#fdb462" stroke="black" cx="1043" cy="-104" rx="73.47" ry="18"/>
<text text-anchor="middle" x="1043" y="-99.8" font-family="Times,serif" font-size="14.00">IssuanceService</text>
</g>
<!-- IssuanceService&#45;&gt;ConfigurationModule -->
<g id="edge9" class="edge">
<title>IssuanceService&#45;&gt;ConfigurationModule</title>
<path fill="none" stroke="black" d="M1043,-122.02C1043,-139.37 1043,-163 1043,-163 1043,-163 747.22,-163 747.22,-163"/>
<polygon fill="black" stroke="black" points="747.22,-159.5 737.22,-163 747.22,-166.5 747.22,-159.5"/>
</g>
<!-- MdocIssuerService -->
<g id="node11" class="node">
<title>MdocIssuerService</title>
<ellipse fill="#fdb462" stroke="black" cx="866" cy="-104" rx="85.65" ry="18"/>
<text text-anchor="middle" x="866" y="-99.8" font-family="Times,serif" font-size="14.00">MdocIssuerService</text>
</g>
<!-- MdocIssuerService&#45;&gt;ConfigurationModule -->
<g id="edge10" class="edge">
<title>MdocIssuerService&#45;&gt;ConfigurationModule</title>
<path fill="none" stroke="black" d="M843.88,-121.65C843.88,-137.07 843.88,-157 843.88,-157 843.88,-157 747.26,-157 747.26,-157"/>
<polygon fill="black" stroke="black" points="747.26,-153.5 737.26,-157 747.26,-160.5 747.26,-153.5"/>
</g>
<!-- SdjwtvcIssuerService -->
<g id="node12" class="node">
<title>SdjwtvcIssuerService</title>
<ellipse fill="#fdb462" stroke="black" cx="668" cy="-104" rx="94.9" ry="18"/>
<text text-anchor="middle" x="668" y="-99.8" font-family="Times,serif" font-size="14.00">SdjwtvcIssuerService</text>
</g>
<!-- SdjwtvcIssuerService&#45;&gt;ConfigurationModule -->
<g id="edge11" class="edge">
<title>SdjwtvcIssuerService&#45;&gt;ConfigurationModule</title>
<path fill="none" stroke="black" d="M668,-122.11C668,-122.11 668,-140.99 668,-140.99"/>
<polygon fill="black" stroke="black" points="664.5,-140.99 668,-150.99 671.5,-140.99 664.5,-140.99"/>
</g>
<!-- WebhookService -->
<g id="node13" class="node">
<title>WebhookService</title>
<ellipse fill="#fdb462" stroke="black" cx="478" cy="-104" rx="77.57" ry="18"/>
<text text-anchor="middle" x="478" y="-99.8" font-family="Times,serif" font-size="14.00">WebhookService</text>
</g>
<!-- WebhookService&#45;&gt;ConfigurationModule -->
<g id="edge12" class="edge">
<title>WebhookService&#45;&gt;ConfigurationModule</title>
<path fill="none" stroke="black" d="M516.85,-119.62C516.85,-135.25 516.85,-157 516.85,-157 516.85,-157 588.62,-157 588.62,-157"/>
<polygon fill="black" stroke="black" points="588.62,-160.5 598.62,-157 588.62,-153.5 588.62,-160.5"/>
</g>
</g>
</svg>
