<?xml version="1.0" encoding="UTF-8" standalone="no"?>
<!DOCTYPE svg PUBLIC "-//W3C//DTD SVG 1.1//EN"
 "http://www.w3.org/Graphics/SVG/1.1/DTD/svg11.dtd">
<!-- Generated by graphviz version 2.47.0 (20210316.0004)
 -->
<!-- Title: dependencies Pages: 1 -->
<svg width="1170pt" height="284pt"
 viewBox="0.00 0.00 1170.00 284.00" xmlns="http://www.w3.org/2000/svg" xmlns:xlink="http://www.w3.org/1999/xlink">
<g id="graph0" class="graph" transform="scale(1 1) rotate(0) translate(4 280)">
<title>dependencies</title>
<polygon fill="white" stroke="transparent" points="-4,4 -4,-280 1166,-280 1166,4 -4,4"/>
<text text-anchor="start" x="560.01" y="-42.4" font-family="Times-12" font-weight="bold" font-size="14.00">Legend</text>
<polygon fill="#ffffb3" stroke="transparent" points="347,-10 347,-30 367,-30 367,-10 347,-10"/>
<text text-anchor="start" x="370.63" y="-15.4" font-family="Times-12" font-size="14.00"> &#160;Declarations</text>
<polygon fill="#8dd3c7" stroke="transparent" points="460,-10 460,-30 480,-30 480,-10 460,-10"/>
<text text-anchor="start" x="483.73" y="-15.4" font-family="Times-12" font-size="14.00"> &#160;Module</text>
<polygon fill="#80b1d3" stroke="transparent" points="546,-10 546,-30 566,-30 566,-10 546,-10"/>
<text text-anchor="start" x="569.78" y="-15.4" font-family="Times-12" font-size="14.00"> &#160;Bootstrap</text>
<polygon fill="#fdb462" stroke="transparent" points="643,-10 643,-30 663,-30 663,-10 643,-10"/>
<text text-anchor="start" x="666.67" y="-15.4" font-family="Times-12" font-size="14.00"> &#160;Providers</text>
<polygon fill="#fb8072" stroke="transparent" points="739,-10 739,-30 759,-30 759,-10 739,-10"/>
<text text-anchor="start" x="762.73" y="-15.4" font-family="Times-12" font-size="14.00"> &#160;Exports</text>
<g id="clust1" class="cluster">
<title>cluster_ConfigurationModule</title>
<polygon fill="none" stroke="black" stroke-dasharray="1,5" points="8,-70 8,-268 1154,-268 1154,-70 8,-70"/>
</g>
<g id="clust6" class="cluster">
<title>cluster_ConfigurationModule_providers</title>
<polygon fill="none" stroke="black" points="392,-78 392,-130 1146,-130 1146,-78 392,-78"/>
</g>
<g id="clust4" class="cluster">
<title>cluster_ConfigurationModule_exports</title>
<polygon fill="none" stroke="black" points="280,-208 280,-260 725,-260 725,-208 280,-208"/>
</g>
<g id="clust3" class="cluster">
<title>cluster_ConfigurationModule_imports</title>
<polygon fill="none" stroke="black" points="16,-78 16,-130 384,-130 384,-78 16,-78"/>
</g>
<!-- CryptoModule -->
<g id="node1" class="node">
<title>CryptoModule</title>
<polygon fill="#8dd3c7" stroke="black" points="376.44,-122 373.44,-126 352.44,-126 349.44,-122 277.56,-122 277.56,-86 376.44,-86 376.44,-122"/>
<text text-anchor="middle" x="327" y="-99.8" font-family="Times,serif" font-size="14.00">CryptoModule</text>
</g>
<!-- ConfigurationModule -->
<g id="node4" class="node">
<title>ConfigurationModule</title>
<polygon fill="#8dd3c7" stroke="black" points="547.09,-187 544.09,-191 523.09,-191 520.09,-187 408.91,-187 408.91,-151 547.09,-151 547.09,-187"/>
<text text-anchor="middle" x="478" y="-164.8" font-family="Times,serif" font-size="14.00">ConfigurationModule</text>
</g>
<!-- CryptoModule&#45;&gt;ConfigurationModule -->
<g id="edge1" class="edge">
<title>CryptoModule&#45;&gt;ConfigurationModule</title>
<path fill="none" stroke="black" d="M332.19,-122.01C332.19,-138.05 332.19,-159 332.19,-159 332.19,-159 398.94,-159 398.94,-159"/>
<polygon fill="black" stroke="black" points="398.94,-162.5 408.94,-159 398.94,-155.5 398.94,-162.5"/>
</g>
<!-- SessionModule -->
<g id="node2" class="node">
<title>SessionModule</title>
<polygon fill="#8dd3c7" stroke="black" points="260.33,-122 257.33,-126 236.33,-126 233.33,-122 157.67,-122 157.67,-86 260.33,-86 260.33,-122"/>
<text text-anchor="middle" x="209" y="-99.8" font-family="Times,serif" font-size="14.00">SessionModule</text>
</g>
<!-- SessionModule&#45;&gt;ConfigurationModule -->
<g id="edge2" class="edge">
<title>SessionModule&#45;&gt;ConfigurationModule</title>
<path fill="none" stroke="black" d="M209,-122.27C209,-140.56 209,-166 209,-166 209,-166 398.73,-166 398.73,-166"/>
<polygon fill="black" stroke="black" points="398.73,-169.5 408.73,-166 398.73,-162.5 398.73,-169.5"/>
</g>
<!-- StatusListModule -->
<g id="node3" class="node">
<title>StatusListModule</title>
<polygon fill="#8dd3c7" stroke="black" points="139.55,-122 136.55,-126 115.55,-126 112.55,-122 24.45,-122 24.45,-86 139.55,-86 139.55,-122"/>
<text text-anchor="middle" x="82" y="-99.8" font-family="Times,serif" font-size="14.00">StatusListModule</text>
</g>
<!-- StatusListModule&#45;&gt;ConfigurationModule -->
<g id="edge3" class="edge">
<title>StatusListModule&#45;&gt;ConfigurationModule</title>
<path fill="none" stroke="black" d="M82,-122.13C82,-142.57 82,-173 82,-173 82,-173 398.57,-173 398.57,-173"/>
<polygon fill="black" stroke="black" points="398.57,-176.5 408.57,-173 398.57,-169.5 398.57,-176.5"/>
</g>
<!-- CredentialConfigService  -->
<g id="node5" class="node">
<title>CredentialConfigService </title>
<polygon fill="#fb8072" stroke="black" points="717.18,-252 558.82,-252 558.82,-216 717.18,-216 717.18,-252"/>
<text text-anchor="middle" x="638" y="-229.8" font-family="Times,serif" font-size="14.00">CredentialConfigService </text>
</g>
<!-- ConfigurationModule&#45;&gt;CredentialConfigService  -->
<g id="edge4" class="edge">
<title>ConfigurationModule&#45;&gt;CredentialConfigService </title>
<path fill="none" stroke="black" stroke-dasharray="5,2" d="M547.07,-180C558.23,-180 566.21,-180 566.21,-180 566.21,-180 566.21,-205.72 566.21,-205.72"/>
<polygon fill="black" stroke="black" points="562.71,-205.72 566.21,-215.72 569.71,-205.72 562.71,-205.72"/>
</g>
<!-- CredentialsService  -->
<g id="node6" class="node">
<title>CredentialsService </title>
<polygon fill="#fb8072" stroke="black" points="540.74,-252 415.26,-252 415.26,-216 540.74,-216 540.74,-252"/>
<text text-anchor="middle" x="478" y="-229.8" font-family="Times,serif" font-size="14.00">CredentialsService </text>
</g>
<!-- ConfigurationModule&#45;&gt;CredentialsService  -->
<g id="edge5" class="edge">
<title>ConfigurationModule&#45;&gt;CredentialsService </title>
<path fill="none" stroke="black" stroke-dasharray="5,2" d="M478,-187.11C478,-187.11 478,-205.99 478,-205.99"/>
<polygon fill="black" stroke="black" points="474.5,-205.99 478,-215.99 481.5,-205.99 474.5,-205.99"/>
</g>
<!-- IssuanceService  -->
<g id="node7" class="node">
<title>IssuanceService </title>
<polygon fill="#fb8072" stroke="black" points="397.67,-252 288.33,-252 288.33,-216 397.67,-216 397.67,-252"/>
<text text-anchor="middle" x="343" y="-229.8" font-family="Times,serif" font-size="14.00">IssuanceService </text>
</g>
<!-- ConfigurationModule&#45;&gt;IssuanceService  -->
<g id="edge6" class="edge">
<title>ConfigurationModule&#45;&gt;IssuanceService </title>
<path fill="none" stroke="black" stroke-dasharray="5,2" d="M408.59,-180C396.13,-180 387.03,-180 387.03,-180 387.03,-180 387.03,-205.72 387.03,-205.72"/>
<polygon fill="black" stroke="black" points="383.53,-205.72 387.03,-215.72 390.53,-205.72 383.53,-205.72"/>
</g>
<!-- CredentialConfigService -->
<g id="node8" class="node">
<title>CredentialConfigService</title>
<ellipse fill="#fdb462" stroke="black" cx="1031" cy="-104" rx="107.08" ry="18"/>
<text text-anchor="middle" x="1031" y="-99.8" font-family="Times,serif" font-size="14.00">CredentialConfigService</text>
</g>
<!-- CredentialConfigService&#45;&gt;ConfigurationModule -->
<g id="edge7" class="edge">
<title>CredentialConfigService&#45;&gt;ConfigurationModule</title>
<path fill="none" stroke="black" d="M1031,-122.13C1031,-142.57 1031,-173 1031,-173 1031,-173 557.2,-173 557.2,-173"/>
<polygon fill="black" stroke="black" points="557.2,-169.5 547.2,-173 557.2,-176.5 557.2,-169.5"/>
</g>
<!-- CredentialsService -->
<g id="node9" class="node">
<title>CredentialsService</title>
<ellipse fill="#fdb462" stroke="black" cx="822" cy="-104" rx="83.94" ry="18"/>
<text text-anchor="middle" x="822" y="-99.8" font-family="Times,serif" font-size="14.00">CredentialsService</text>
</g>
<!-- CredentialsService&#45;&gt;ConfigurationModule -->
<g id="edge8" class="edge">
<title>CredentialsService&#45;&gt;ConfigurationModule</title>
<path fill="none" stroke="black" d="M822,-122.27C822,-140.56 822,-166 822,-166 822,-166 557.2,-166 557.2,-166"/>
<polygon fill="black" stroke="black" points="557.2,-162.5 547.2,-166 557.2,-169.5 557.2,-162.5"/>
</g>
<!-- IssuanceService -->
<g id="node10" class="node">
<title>IssuanceService</title>
<ellipse fill="#fdb462" stroke="black" cx="647" cy="-104" rx="73.47" ry="18"/>
<text text-anchor="middle" x="647" y="-99.8" font-family="Times,serif" font-size="14.00">IssuanceService</text>
</g>
<!-- IssuanceService&#45;&gt;ConfigurationModule -->
<g id="edge9" class="edge">
<title>IssuanceService&#45;&gt;ConfigurationModule</title>
<path fill="none" stroke="black" d="M645.55,-122.01C645.55,-138.05 645.55,-159 645.55,-159 645.55,-159 557.12,-159 557.12,-159"/>
<polygon fill="black" stroke="black" points="557.12,-155.5 547.12,-159 557.12,-162.5 557.12,-155.5"/>
</g>
<!-- WebhookService -->
<g id="node11" class="node">
<title>WebhookService</title>
<ellipse fill="#fdb462" stroke="black" cx="478" cy="-104" rx="77.57" ry="18"/>
<text text-anchor="middle" x="478" y="-99.8" font-family="Times,serif" font-size="14.00">WebhookService</text>
</g>
<!-- WebhookService&#45;&gt;ConfigurationModule -->
<g id="edge10" class="edge">
<title>WebhookService&#45;&gt;ConfigurationModule</title>
<path fill="none" stroke="black" d="M478,-122.11C478,-122.11 478,-140.99 478,-140.99"/>
<polygon fill="black" stroke="black" points="474.5,-140.99 478,-150.99 481.5,-140.99 474.5,-140.99"/>
</g>
</g>
</svg>
