<?xml version="1.0" encoding="UTF-8" standalone="no"?>
<!DOCTYPE svg PUBLIC "-//W3C//DTD SVG 1.1//EN"
 "http://www.w3.org/Graphics/SVG/1.1/DTD/svg11.dtd">
<!-- Generated by graphviz version 2.47.0 (20210316.0004)
 -->
<!-- Title: dependencies Pages: 1 -->
<svg width="2196pt" height="284pt"
 viewBox="0.00 0.00 2196.00 284.00" xmlns="http://www.w3.org/2000/svg" xmlns:xlink="http://www.w3.org/1999/xlink">
<g id="graph0" class="graph" transform="scale(1 1) rotate(0) translate(4 280)">
<title>dependencies</title>
<polygon fill="white" stroke="transparent" points="-4,4 -4,-280 2192,-280 2192,4 -4,4"/>
<text text-anchor="start" x="1073.01" y="-42.4" font-family="Times-12" font-weight="bold" font-size="14.00">Legend</text>
<polygon fill="#ffffb3" stroke="transparent" points="860,-10 860,-30 880,-30 880,-10 860,-10"/>
<text text-anchor="start" x="883.63" y="-15.4" font-family="Times-12" font-size="14.00"> &#160;Declarations</text>
<polygon fill="#8dd3c7" stroke="transparent" points="973,-10 973,-30 993,-30 993,-10 973,-10"/>
<text text-anchor="start" x="996.73" y="-15.4" font-family="Times-12" font-size="14.00"> &#160;Module</text>
<polygon fill="#80b1d3" stroke="transparent" points="1059,-10 1059,-30 1079,-30 1079,-10 1059,-10"/>
<text text-anchor="start" x="1082.78" y="-15.4" font-family="Times-12" font-size="14.00"> &#160;Bootstrap</text>
<polygon fill="#fdb462" stroke="transparent" points="1156,-10 1156,-30 1176,-30 1176,-10 1156,-10"/>
<text text-anchor="start" x="1179.67" y="-15.4" font-family="Times-12" font-size="14.00"> &#160;Providers</text>
<polygon fill="#fb8072" stroke="transparent" points="1252,-10 1252,-30 1272,-30 1272,-10 1252,-10"/>
<text text-anchor="start" x="1275.73" y="-15.4" font-family="Times-12" font-size="14.00"> &#160;Exports</text>
<g id="clust1" class="cluster">
<title>cluster_ConfigurationModule</title>
<polygon fill="none" stroke="black" stroke-dasharray="1,5" points="8,-70 8,-268 2180,-268 2180,-70 8,-70"/>
</g>
<g id="clust4" class="cluster">
<title>cluster_ConfigurationModule_exports</title>
<polygon fill="none" stroke="black" points="499,-208 499,-260 1444,-260 1444,-208 499,-208"/>
</g>
<g id="clust6" class="cluster">
<title>cluster_ConfigurationModule_providers</title>
<polygon fill="none" stroke="black" points="544,-78 544,-130 2172,-130 2172,-78 544,-78"/>
</g>
<g id="clust3" class="cluster">
<title>cluster_ConfigurationModule_imports</title>
<polygon fill="none" stroke="black" points="16,-78 16,-130 536,-130 536,-78 16,-78"/>
</g>
<!-- CryptoModule -->
<g id="node1" class="node">
<title>CryptoModule</title>
<polygon fill="#8dd3c7" stroke="black" points="528.44,-122 525.44,-126 504.44,-126 501.44,-122 429.56,-122 429.56,-86 528.44,-86 528.44,-122"/>
<text text-anchor="middle" x="479" y="-99.8" font-family="Times,serif" font-size="14.00">CryptoModule</text>
</g>
<!-- ConfigurationModule -->
<g id="node5" class="node">
<title>ConfigurationModule</title>
<polygon fill="#8dd3c7" stroke="black" points="1020.09,-187 1017.09,-191 996.09,-191 993.09,-187 881.91,-187 881.91,-151 1020.09,-151 1020.09,-187"/>
<text text-anchor="middle" x="951" y="-164.8" font-family="Times,serif" font-size="14.00">ConfigurationModule</text>
</g>
<!-- CryptoModule&#45;&gt;ConfigurationModule -->
<g id="edge1" class="edge">
<title>CryptoModule&#45;&gt;ConfigurationModule</title>
<path fill="none" stroke="black" d="M517.8,-122.03C517.8,-138.4 517.8,-160 517.8,-160 517.8,-160 871.88,-160 871.88,-160"/>
<polygon fill="black" stroke="black" points="871.88,-163.5 881.88,-160 871.88,-156.5 871.88,-163.5"/>
</g>
<!-- PresentationsModule -->
<g id="node2" class="node">
<title>PresentationsModule</title>
<polygon fill="#8dd3c7" stroke="black" points="412.2,-122 409.2,-126 388.2,-126 385.2,-122 277.8,-122 277.8,-86 412.2,-86 412.2,-122"/>
<text text-anchor="middle" x="345" y="-99.8" font-family="Times,serif" font-size="14.00">PresentationsModule</text>
</g>
<!-- PresentationsModule&#45;&gt;ConfigurationModule -->
<g id="edge2" class="edge">
<title>PresentationsModule&#45;&gt;ConfigurationModule</title>
<path fill="none" stroke="black" d="M345,-122.3C345,-140.27 345,-165 345,-165 345,-165 871.78,-165 871.78,-165"/>
<polygon fill="black" stroke="black" points="871.78,-168.5 881.78,-165 871.78,-161.5 871.78,-168.5"/>
</g>
<!-- SessionModule -->
<g id="node3" class="node">
<title>SessionModule</title>
<polygon fill="#8dd3c7" stroke="black" points="260.33,-122 257.33,-126 236.33,-126 233.33,-122 157.67,-122 157.67,-86 260.33,-86 260.33,-122"/>
<text text-anchor="middle" x="209" y="-99.8" font-family="Times,serif" font-size="14.00">SessionModule</text>
</g>
<!-- SessionModule&#45;&gt;ConfigurationModule -->
<g id="edge3" class="edge">
<title>SessionModule&#45;&gt;ConfigurationModule</title>
<path fill="none" stroke="black" d="M209,-122.11C209,-141.34 209,-169 209,-169 209,-169 871.86,-169 871.86,-169"/>
<polygon fill="black" stroke="black" points="871.86,-172.5 881.86,-169 871.86,-165.5 871.86,-172.5"/>
</g>
<!-- StatusListModule -->
<g id="node4" class="node">
<title>StatusListModule</title>
<polygon fill="#8dd3c7" stroke="black" points="139.55,-122 136.55,-126 115.55,-126 112.55,-122 24.45,-122 24.45,-86 139.55,-86 139.55,-122"/>
<text text-anchor="middle" x="82" y="-99.8" font-family="Times,serif" font-size="14.00">StatusListModule</text>
</g>
<!-- StatusListModule&#45;&gt;ConfigurationModule -->
<g id="edge4" class="edge">
<title>StatusListModule&#45;&gt;ConfigurationModule</title>
<path fill="none" stroke="black" d="M82,-122.03C82,-142.77 82,-174 82,-174 82,-174 871.72,-174 871.72,-174"/>
<polygon fill="black" stroke="black" points="871.72,-177.5 881.72,-174 871.72,-170.5 871.72,-177.5"/>
</g>
<!-- AttributeProviderService  -->
<g id="node6" class="node">
<title>AttributeProviderService </title>
<polygon fill="#fb8072" stroke="black" points="1436.23,-252 1275.77,-252 1275.77,-216 1436.23,-216 1436.23,-252"/>
<text text-anchor="middle" x="1356" y="-229.8" font-family="Times,serif" font-size="14.00">AttributeProviderService </text>
</g>
<!-- ConfigurationModule&#45;&gt;AttributeProviderService  -->
<g id="edge5" class="edge">
<title>ConfigurationModule&#45;&gt;AttributeProviderService </title>
<path fill="none" stroke="black" stroke-dasharray="5,2" d="M1020.13,-178C1124.87,-178 1311.73,-178 1311.73,-178 1311.73,-178 1311.73,-205.97 1311.73,-205.97"/>
<polygon fill="black" stroke="black" points="1308.23,-205.97 1311.73,-215.97 1315.23,-205.97 1308.23,-205.97"/>
</g>
<!-- CredentialConfigService  -->
<g id="node7" class="node">
<title>CredentialConfigService </title>
<polygon fill="#fb8072" stroke="black" points="1258.18,-252 1099.82,-252 1099.82,-216 1258.18,-216 1258.18,-252"/>
<text text-anchor="middle" x="1179" y="-229.8" font-family="Times,serif" font-size="14.00">CredentialConfigService </text>
</g>
<!-- ConfigurationModule&#45;&gt;CredentialConfigService  -->
<g id="edge6" class="edge">
<title>ConfigurationModule&#45;&gt;CredentialConfigService </title>
<path fill="none" stroke="black" stroke-dasharray="5,2" d="M1020.14,-183C1070.23,-183 1129.18,-183 1129.18,-183 1129.18,-183 1129.18,-205.88 1129.18,-205.88"/>
<polygon fill="black" stroke="black" points="1125.68,-205.88 1129.18,-215.88 1132.68,-205.88 1125.68,-205.88"/>
</g>
<!-- CredentialsService  -->
<g id="node8" class="node">
<title>CredentialsService </title>
<polygon fill="#fb8072" stroke="black" points="1081.74,-252 956.26,-252 956.26,-216 1081.74,-216 1081.74,-252"/>
<text text-anchor="middle" x="1019" y="-229.8" font-family="Times,serif" font-size="14.00">CredentialsService </text>
</g>
<!-- ConfigurationModule&#45;&gt;CredentialsService  -->
<g id="edge7" class="edge">
<title>ConfigurationModule&#45;&gt;CredentialsService </title>
<path fill="none" stroke="black" stroke-dasharray="5,2" d="M988.21,-187.11C988.21,-187.11 988.21,-205.99 988.21,-205.99"/>
<polygon fill="black" stroke="black" points="984.71,-205.99 988.21,-215.99 991.71,-205.99 984.71,-205.99"/>
</g>
<!-- IssuanceService  -->
<g id="node9" class="node">
<title>IssuanceService </title>
<polygon fill="#fb8072" stroke="black" points="938.67,-252 829.33,-252 829.33,-216 938.67,-216 938.67,-252"/>
<text text-anchor="middle" x="884" y="-229.8" font-family="Times,serif" font-size="14.00">IssuanceService </text>
</g>
<!-- ConfigurationModule&#45;&gt;IssuanceService  -->
<g id="edge8" class="edge">
<title>ConfigurationModule&#45;&gt;IssuanceService </title>
<path fill="none" stroke="black" stroke-dasharray="5,2" d="M910.39,-187.11C910.39,-187.11 910.39,-205.99 910.39,-205.99"/>
<polygon fill="black" stroke="black" points="906.89,-205.99 910.39,-215.99 913.89,-205.99 906.89,-205.99"/>
</g>
<!-- StatusListModule  -->
<g id="node10" class="node">
<title>StatusListModule </title>
<polygon fill="#fb8072" stroke="black" points="811.55,-252 692.45,-252 692.45,-216 811.55,-216 811.55,-252"/>
<text text-anchor="middle" x="752" y="-229.8" font-family="Times,serif" font-size="14.00">StatusListModule </text>
</g>
<!-- ConfigurationModule&#45;&gt;StatusListModule  -->
<g id="edge9" class="edge">
<title>ConfigurationModule&#45;&gt;StatusListModule </title>
<path fill="none" stroke="black" stroke-dasharray="5,2" d="M881.93,-183C830.19,-183 768.29,-183 768.29,-183 768.29,-183 768.29,-205.88 768.29,-205.88"/>
<polygon fill="black" stroke="black" points="764.79,-205.88 768.29,-215.88 771.79,-205.88 764.79,-205.88"/>
</g>
<!-- WebhookEndpointService  -->
<g id="node11" class="node">
<title>WebhookEndpointService </title>
<polygon fill="#fb8072" stroke="black" points="674.74,-252 507.26,-252 507.26,-216 674.74,-216 674.74,-252"/>
<text text-anchor="middle" x="591" y="-229.8" font-family="Times,serif" font-size="14.00">WebhookEndpointService </text>
</g>
<!-- ConfigurationModule&#45;&gt;WebhookEndpointService  -->
<g id="edge10" class="edge">
<title>ConfigurationModule&#45;&gt;WebhookEndpointService </title>
<path fill="none" stroke="black" stroke-dasharray="5,2" d="M881.9,-178C783.17,-178 613.54,-178 613.54,-178 613.54,-178 613.54,-205.97 613.54,-205.97"/>
<polygon fill="black" stroke="black" points="610.04,-205.97 613.54,-215.97 617.04,-205.97 610.04,-205.97"/>
</g>
<!-- AttributeProviderService -->
<g id="node12" class="node">
<title>AttributeProviderService</title>
<ellipse fill="#fdb462" stroke="black" cx="2056" cy="-104" rx="108.22" ry="18"/>
<text text-anchor="middle" x="2056" y="-99.8" font-family="Times,serif" font-size="14.00">AttributeProviderService</text>
</g>
<!-- AttributeProviderService&#45;&gt;ConfigurationModule -->
<g id="edge11" class="edge">
<title>AttributeProviderService&#45;&gt;ConfigurationModule</title>
<path fill="none" stroke="black" d="M2056,-122.03C2056,-142.77 2056,-174 2056,-174 2056,-174 1030.12,-174 1030.12,-174"/>
<polygon fill="black" stroke="black" points="1030.12,-170.5 1020.12,-174 1030.12,-177.5 1030.12,-170.5"/>
</g>
<!-- CredentialConfigService -->
<g id="node13" class="node">
<title>CredentialConfigService</title>
<ellipse fill="#fdb462" stroke="black" cx="1823" cy="-104" rx="107.08" ry="18"/>
<text text-anchor="middle" x="1823" y="-99.8" font-family="Times,serif" font-size="14.00">CredentialConfigService</text>
</g>
<!-- CredentialConfigService&#45;&gt;ConfigurationModule -->
<g id="edge12" class="edge">
<title>CredentialConfigService&#45;&gt;ConfigurationModule</title>
<path fill="none" stroke="black" d="M1823,-122.11C1823,-141.34 1823,-169 1823,-169 1823,-169 1030.15,-169 1030.15,-169"/>
<polygon fill="black" stroke="black" points="1030.15,-165.5 1020.15,-169 1030.15,-172.5 1030.15,-165.5"/>
</g>
<!-- CredentialsService -->
<g id="node14" class="node">
<title>CredentialsService</title>
<ellipse fill="#fdb462" stroke="black" cx="1614" cy="-104" rx="83.94" ry="18"/>
<text text-anchor="middle" x="1614" y="-99.8" font-family="Times,serif" font-size="14.00">CredentialsService</text>
</g>
<!-- CredentialsService&#45;&gt;ConfigurationModule -->
<g id="edge13" class="edge">
<title>CredentialsService&#45;&gt;ConfigurationModule</title>
<path fill="none" stroke="black" d="M1614,-122.3C1614,-140.27 1614,-165 1614,-165 1614,-165 1030.08,-165 1030.08,-165"/>
<polygon fill="black" stroke="black" points="1030.08,-161.5 1020.08,-165 1030.08,-168.5 1030.08,-161.5"/>
</g>
<!-- IssuanceService -->
<g id="node15" class="node">
<title>IssuanceService</title>
<ellipse fill="#fdb462" stroke="black" cx="1439" cy="-104" rx="73.47" ry="18"/>
<text text-anchor="middle" x="1439" y="-99.8" font-family="Times,serif" font-size="14.00">IssuanceService</text>
</g>
<!-- IssuanceService&#45;&gt;ConfigurationModule -->
<g id="edge14" class="edge">
<title>IssuanceService&#45;&gt;ConfigurationModule</title>
<path fill="none" stroke="black" d="M1400.94,-119.6C1400.94,-136.17 1400.94,-160 1400.94,-160 1400.94,-160 1030.32,-160 1030.32,-160"/>
<polygon fill="black" stroke="black" points="1030.32,-156.5 1020.32,-160 1030.32,-163.5 1030.32,-156.5"/>
</g>
<!-- MdocIssuerService -->
<g id="node16" class="node">
<title>MdocIssuerService</title>
<ellipse fill="#fdb462" stroke="black" cx="1262" cy="-104" rx="85.65" ry="18"/>
<text text-anchor="middle" x="1262" y="-99.8" font-family="Times,serif" font-size="14.00">MdocIssuerService</text>
</g>
<!-- MdocIssuerService&#45;&gt;ConfigurationModule -->
<g id="edge15" class="edge">
<title>MdocIssuerService&#45;&gt;ConfigurationModule</title>
<path fill="none" stroke="black" d="M1217.38,-119.6C1217.38,-134.92 1217.38,-156 1217.38,-156 1217.38,-156 1030.29,-156 1030.29,-156"/>
<polygon fill="black" stroke="black" points="1030.29,-152.5 1020.29,-156 1030.29,-159.5 1030.29,-152.5"/>
</g>
<!-- SdjwtvcIssuerService -->
<g id="node17" class="node">
<title>SdjwtvcIssuerService</title>
<ellipse fill="#fdb462" stroke="black" cx="1064" cy="-104" rx="94.9" ry="18"/>
<text text-anchor="middle" x="1064" y="-99.8" font-family="Times,serif" font-size="14.00">SdjwtvcIssuerService</text>
</g>
<!-- SdjwtvcIssuerService&#45;&gt;ConfigurationModule -->
<g id="edge16" class="edge">
<title>SdjwtvcIssuerService&#45;&gt;ConfigurationModule</title>
<path fill="none" stroke="black" d="M994.67,-116.53C994.67,-116.53 994.67,-140.85 994.67,-140.85"/>
<polygon fill="black" stroke="black" points="991.17,-140.85 994.67,-150.85 998.17,-140.85 991.17,-140.85"/>
</g>
<!-- WebhookEndpointService -->
<g id="node18" class="node">
<title>WebhookEndpointService</title>
<ellipse fill="#fdb462" stroke="black" cx="838" cy="-104" rx="112.89" ry="18"/>
<text text-anchor="middle" x="838" y="-99.8" font-family="Times,serif" font-size="14.00">WebhookEndpointService</text>
</g>
<!-- WebhookEndpointService&#45;&gt;ConfigurationModule -->
<g id="edge17" class="edge">
<title>WebhookEndpointService&#45;&gt;ConfigurationModule</title>
<path fill="none" stroke="black" d="M916.45,-117.15C916.45,-117.15 916.45,-140.69 916.45,-140.69"/>
<polygon fill="black" stroke="black" points="912.95,-140.69 916.45,-150.69 919.95,-140.69 912.95,-140.69"/>
</g>
<!-- WebhookService -->
<g id="node19" class="node">
<title>WebhookService</title>
<ellipse fill="#fdb462" stroke="black" cx="630" cy="-104" rx="77.57" ry="18"/>
<text text-anchor="middle" x="630" y="-99.8" font-family="Times,serif" font-size="14.00">WebhookService</text>
</g>
<!-- WebhookService&#45;&gt;ConfigurationModule -->
<g id="edge18" class="edge">
<title>WebhookService&#45;&gt;ConfigurationModule</title>
<path fill="none" stroke="black" d="M700.01,-112.12C700.01,-126.75 700.01,-156 700.01,-156 700.01,-156 871.75,-156 871.75,-156"/>
<polygon fill="black" stroke="black" points="871.75,-159.5 881.75,-156 871.75,-152.5 871.75,-159.5"/>
</g>
</g>
</svg>
