<?xml version="1.0" encoding="UTF-8" standalone="no"?>
<!DOCTYPE svg PUBLIC "-//W3C//DTD SVG 1.1//EN"
 "http://www.w3.org/Graphics/SVG/1.1/DTD/svg11.dtd">
<!-- Generated by graphviz version 2.47.0 (20210316.0004)
 -->
<!-- Title: dependencies Pages: 1 -->
<svg width="2587pt" height="284pt"
 viewBox="0.00 0.00 2587.00 284.00" xmlns="http://www.w3.org/2000/svg" xmlns:xlink="http://www.w3.org/1999/xlink">
<g id="graph0" class="graph" transform="scale(1 1) rotate(0) translate(4 280)">
<title>dependencies</title>
<polygon fill="white" stroke="transparent" points="-4,4 -4,-280 2583,-280 2583,4 -4,4"/>
<text text-anchor="start" x="1268.51" y="-42.4" font-family="Times-12" font-weight="bold" font-size="14.00">Legend</text>
<polygon fill="#ffffb3" stroke="transparent" points="1055.5,-10 1055.5,-30 1075.5,-30 1075.5,-10 1055.5,-10"/>
<text text-anchor="start" x="1079.13" y="-15.4" font-family="Times-12" font-size="14.00"> &#160;Declarations</text>
<polygon fill="#8dd3c7" stroke="transparent" points="1168.5,-10 1168.5,-30 1188.5,-30 1188.5,-10 1168.5,-10"/>
<text text-anchor="start" x="1192.23" y="-15.4" font-family="Times-12" font-size="14.00"> &#160;Module</text>
<polygon fill="#80b1d3" stroke="transparent" points="1254.5,-10 1254.5,-30 1274.5,-30 1274.5,-10 1254.5,-10"/>
<text text-anchor="start" x="1278.28" y="-15.4" font-family="Times-12" font-size="14.00"> &#160;Bootstrap</text>
<polygon fill="#fdb462" stroke="transparent" points="1351.5,-10 1351.5,-30 1371.5,-30 1371.5,-10 1351.5,-10"/>
<text text-anchor="start" x="1375.17" y="-15.4" font-family="Times-12" font-size="14.00"> &#160;Providers</text>
<polygon fill="#fb8072" stroke="transparent" points="1447.5,-10 1447.5,-30 1467.5,-30 1467.5,-10 1447.5,-10"/>
<text text-anchor="start" x="1471.23" y="-15.4" font-family="Times-12" font-size="14.00"> &#160;Exports</text>
<g id="clust1" class="cluster">
<title>cluster_ConfigurationModule</title>
<polygon fill="none" stroke="black" stroke-dasharray="1,5" points="8,-70 8,-268 2571,-268 2571,-70 8,-70"/>
</g>
<g id="clust4" class="cluster">
<title>cluster_ConfigurationModule_exports</title>
<polygon fill="none" stroke="black" points="999,-208 999,-260 1944,-260 1944,-208 999,-208"/>
</g>
<g id="clust3" class="cluster">
<title>cluster_ConfigurationModule_imports</title>
<polygon fill="none" stroke="black" points="1913,-78 1913,-130 2563,-130 2563,-78 1913,-78"/>
</g>
<g id="clust6" class="cluster">
<title>cluster_ConfigurationModule_providers</title>
<polygon fill="none" stroke="black" points="16,-78 16,-130 1905,-130 1905,-78 16,-78"/>
</g>
<!-- CryptoModule -->
<g id="node1" class="node">
<title>CryptoModule</title>
<polygon fill="#8dd3c7" stroke="black" points="2555.44,-122 2552.44,-126 2531.44,-126 2528.44,-122 2456.56,-122 2456.56,-86 2555.44,-86 2555.44,-122"/>
<text text-anchor="middle" x="2506" y="-99.8" font-family="Times,serif" font-size="14.00">CryptoModule</text>
</g>
<!-- ConfigurationModule -->
<g id="node6" class="node">
<title>ConfigurationModule</title>
<polygon fill="#8dd3c7" stroke="black" points="1520.09,-187 1517.09,-191 1496.09,-191 1493.09,-187 1381.91,-187 1381.91,-151 1520.09,-151 1520.09,-187"/>
<text text-anchor="middle" x="1451" y="-164.8" font-family="Times,serif" font-size="14.00">ConfigurationModule</text>
</g>
<!-- CryptoModule&#45;&gt;ConfigurationModule -->
<g id="edge1" class="edge">
<title>CryptoModule&#45;&gt;ConfigurationModule</title>
<path fill="none" stroke="black" d="M2506,-122.28C2506,-143.32 2506,-175 2506,-175 2506,-175 1530.22,-175 1530.22,-175"/>
<polygon fill="black" stroke="black" points="1530.22,-171.5 1520.22,-175 1530.22,-178.5 1530.22,-171.5"/>
</g>
<!-- PresentationsModule -->
<g id="node2" class="node">
<title>PresentationsModule</title>
<polygon fill="#8dd3c7" stroke="black" points="2439.2,-122 2436.2,-126 2415.2,-126 2412.2,-122 2304.8,-122 2304.8,-86 2439.2,-86 2439.2,-122"/>
<text text-anchor="middle" x="2372" y="-99.8" font-family="Times,serif" font-size="14.00">PresentationsModule</text>
</g>
<!-- PresentationsModule&#45;&gt;ConfigurationModule -->
<g id="edge2" class="edge">
<title>PresentationsModule&#45;&gt;ConfigurationModule</title>
<path fill="none" stroke="black" d="M2372,-122.31C2372,-142.15 2372,-171 2372,-171 2372,-171 1530.22,-171 1530.22,-171"/>
<polygon fill="black" stroke="black" points="1530.22,-167.5 1520.22,-171 1530.22,-174.5 1530.22,-167.5"/>
</g>
<!-- RegistrarModule -->
<g id="node3" class="node">
<title>RegistrarModule</title>
<polygon fill="#8dd3c7" stroke="black" points="2286.36,-122 2283.36,-126 2262.36,-126 2259.36,-122 2175.64,-122 2175.64,-86 2286.36,-86 2286.36,-122"/>
<text text-anchor="middle" x="2231" y="-99.8" font-family="Times,serif" font-size="14.00">RegistrarModule</text>
</g>
<!-- RegistrarModule&#45;&gt;ConfigurationModule -->
<g id="edge3" class="edge">
<title>RegistrarModule&#45;&gt;ConfigurationModule</title>
<path fill="none" stroke="black" d="M2231,-122.22C2231,-140.83 2231,-167 2231,-167 2231,-167 1530.22,-167 1530.22,-167"/>
<polygon fill="black" stroke="black" points="1530.22,-163.5 1520.22,-167 1530.22,-170.5 1530.22,-163.5"/>
</g>
<!-- SessionModule -->
<g id="node4" class="node">
<title>SessionModule</title>
<polygon fill="#8dd3c7" stroke="black" points="2157.33,-122 2154.33,-126 2133.33,-126 2130.33,-122 2054.67,-122 2054.67,-86 2157.33,-86 2157.33,-122"/>
<text text-anchor="middle" x="2106" y="-99.8" font-family="Times,serif" font-size="14.00">SessionModule</text>
</g>
<!-- SessionModule&#45;&gt;ConfigurationModule -->
<g id="edge4" class="edge">
<title>SessionModule&#45;&gt;ConfigurationModule</title>
<path fill="none" stroke="black" d="M2106,-122.02C2106,-139.37 2106,-163 2106,-163 2106,-163 1530.17,-163 1530.17,-163"/>
<polygon fill="black" stroke="black" points="1530.17,-159.5 1520.17,-163 1530.17,-166.5 1530.17,-159.5"/>
</g>
<!-- StatusListModule -->
<g id="node5" class="node">
<title>StatusListModule</title>
<polygon fill="#8dd3c7" stroke="black" points="2036.55,-122 2033.55,-126 2012.55,-126 2009.55,-122 1921.45,-122 1921.45,-86 2036.55,-86 2036.55,-122"/>
<text text-anchor="middle" x="1979" y="-99.8" font-family="Times,serif" font-size="14.00">StatusListModule</text>
</g>
<!-- StatusListModule&#45;&gt;ConfigurationModule -->
<g id="edge5" class="edge">
<title>StatusListModule&#45;&gt;ConfigurationModule</title>
<path fill="none" stroke="black" d="M1928.67,-122.01C1928.67,-138.05 1928.67,-159 1928.67,-159 1928.67,-159 1530.2,-159 1530.2,-159"/>
<polygon fill="black" stroke="black" points="1530.2,-155.5 1520.2,-159 1530.2,-162.5 1530.2,-155.5"/>
</g>
<!-- AttributeProviderService  -->
<g id="node7" class="node">
<title>AttributeProviderService </title>
<polygon fill="#fb8072" stroke="black" points="1936.23,-252 1775.77,-252 1775.77,-216 1936.23,-216 1936.23,-252"/>
<text text-anchor="middle" x="1856" y="-229.8" font-family="Times,serif" font-size="14.00">AttributeProviderService </text>
</g>
<!-- ConfigurationModule&#45;&gt;AttributeProviderService  -->
<g id="edge6" class="edge">
<title>ConfigurationModule&#45;&gt;AttributeProviderService </title>
<path fill="none" stroke="black" stroke-dasharray="5,2" d="M1520.36,-179C1631.35,-179 1836.5,-179 1836.5,-179 1836.5,-179 1836.5,-205.99 1836.5,-205.99"/>
<polygon fill="black" stroke="black" points="1833,-205.99 1836.5,-215.99 1840,-205.99 1833,-205.99"/>
</g>
<!-- CredentialConfigService  -->
<g id="node8" class="node">
<title>CredentialConfigService </title>
<polygon fill="#fb8072" stroke="black" points="1758.18,-252 1599.82,-252 1599.82,-216 1758.18,-216 1758.18,-252"/>
<text text-anchor="middle" x="1679" y="-229.8" font-family="Times,serif" font-size="14.00">CredentialConfigService </text>
</g>
<!-- ConfigurationModule&#45;&gt;CredentialConfigService  -->
<g id="edge7" class="edge">
<title>ConfigurationModule&#45;&gt;CredentialConfigService </title>
<path fill="none" stroke="black" stroke-dasharray="5,2" d="M1520.21,-183C1571.07,-183 1631.35,-183 1631.35,-183 1631.35,-183 1631.35,-205.88 1631.35,-205.88"/>
<polygon fill="black" stroke="black" points="1627.85,-205.88 1631.35,-215.88 1634.85,-205.88 1627.85,-205.88"/>
</g>
<!-- CredentialsService  -->
<g id="node9" class="node">
<title>CredentialsService </title>
<polygon fill="#fb8072" stroke="black" points="1581.74,-252 1456.26,-252 1456.26,-216 1581.74,-216 1581.74,-252"/>
<text text-anchor="middle" x="1519" y="-229.8" font-family="Times,serif" font-size="14.00">CredentialsService </text>
</g>
<!-- ConfigurationModule&#45;&gt;CredentialsService  -->
<g id="edge8" class="edge">
<title>ConfigurationModule&#45;&gt;CredentialsService </title>
<path fill="none" stroke="black" stroke-dasharray="5,2" d="M1488.21,-187.11C1488.21,-187.11 1488.21,-205.99 1488.21,-205.99"/>
<polygon fill="black" stroke="black" points="1484.71,-205.99 1488.21,-215.99 1491.71,-205.99 1484.71,-205.99"/>
</g>
<!-- IssuanceService  -->
<g id="node10" class="node">
<title>IssuanceService </title>
<polygon fill="#fb8072" stroke="black" points="1438.67,-252 1329.33,-252 1329.33,-216 1438.67,-216 1438.67,-252"/>
<text text-anchor="middle" x="1384" y="-229.8" font-family="Times,serif" font-size="14.00">IssuanceService </text>
</g>
<!-- ConfigurationModule&#45;&gt;IssuanceService  -->
<g id="edge9" class="edge">
<title>ConfigurationModule&#45;&gt;IssuanceService </title>
<path fill="none" stroke="black" stroke-dasharray="5,2" d="M1410.39,-187.11C1410.39,-187.11 1410.39,-205.99 1410.39,-205.99"/>
<polygon fill="black" stroke="black" points="1406.89,-205.99 1410.39,-215.99 1413.89,-205.99 1406.89,-205.99"/>
</g>
<!-- StatusListModule  -->
<g id="node11" class="node">
<title>StatusListModule </title>
<polygon fill="#fb8072" stroke="black" points="1311.55,-252 1192.45,-252 1192.45,-216 1311.55,-216 1311.55,-252"/>
<text text-anchor="middle" x="1252" y="-229.8" font-family="Times,serif" font-size="14.00">StatusListModule </text>
</g>
<!-- ConfigurationModule&#45;&gt;StatusListModule  -->
<g id="edge10" class="edge">
<title>ConfigurationModule&#45;&gt;StatusListModule </title>
<path fill="none" stroke="black" stroke-dasharray="5,2" d="M1381.57,-183C1336.94,-183 1287.28,-183 1287.28,-183 1287.28,-183 1287.28,-205.88 1287.28,-205.88"/>
<polygon fill="black" stroke="black" points="1283.78,-205.88 1287.28,-215.88 1290.78,-205.88 1283.78,-205.88"/>
</g>
<!-- WebhookEndpointService  -->
<g id="node12" class="node">
<title>WebhookEndpointService </title>
<polygon fill="#fb8072" stroke="black" points="1174.74,-252 1007.26,-252 1007.26,-216 1174.74,-216 1174.74,-252"/>
<text text-anchor="middle" x="1091" y="-229.8" font-family="Times,serif" font-size="14.00">WebhookEndpointService </text>
</g>
<!-- ConfigurationModule&#45;&gt;WebhookEndpointService  -->
<g id="edge11" class="edge">
<title>ConfigurationModule&#45;&gt;WebhookEndpointService </title>
<path fill="none" stroke="black" stroke-dasharray="5,2" d="M1381.63,-179C1289.07,-179 1136.69,-179 1136.69,-179 1136.69,-179 1136.69,-205.99 1136.69,-205.99"/>
<polygon fill="black" stroke="black" points="1133.19,-205.99 1136.69,-215.99 1140.19,-205.99 1133.19,-205.99"/>
</g>
<!-- AttributeProviderService -->
<g id="node13" class="node">
<title>AttributeProviderService</title>
<ellipse fill="#fdb462" stroke="black" cx="1789" cy="-104" rx="108.22" ry="18"/>
<text text-anchor="middle" x="1789" y="-99.8" font-family="Times,serif" font-size="14.00">AttributeProviderService</text>
</g>
<!-- AttributeProviderService&#45;&gt;ConfigurationModule -->
<g id="edge12" class="edge">
<title>AttributeProviderService&#45;&gt;ConfigurationModule</title>
<path fill="none" stroke="black" d="M1719.61,-117.94C1719.61,-133.04 1719.61,-155 1719.61,-155 1719.61,-155 1530.17,-155 1530.17,-155"/>
<polygon fill="black" stroke="black" points="1530.17,-151.5 1520.17,-155 1530.17,-158.5 1530.17,-151.5"/>
</g>
<!-- CredentialConfigService -->
<g id="node14" class="node">
<title>CredentialConfigService</title>
<ellipse fill="#fdb462" stroke="black" cx="1556" cy="-104" rx="107.08" ry="18"/>
<text text-anchor="middle" x="1556" y="-99.8" font-family="Times,serif" font-size="14.00">CredentialConfigService</text>
</g>
<!-- CredentialConfigService&#45;&gt;ConfigurationModule -->
<g id="edge13" class="edge">
<title>CredentialConfigService&#45;&gt;ConfigurationModule</title>
<path fill="none" stroke="black" d="M1484.5,-117.47C1484.5,-117.47 1484.5,-140.86 1484.5,-140.86"/>
<polygon fill="black" stroke="black" points="1481,-140.86 1484.5,-150.86 1488,-140.86 1481,-140.86"/>
</g>
<!-- CredentialsService -->
<g id="node15" class="node">
<title>CredentialsService</title>
<ellipse fill="#fdb462" stroke="black" cx="1347" cy="-104" rx="83.94" ry="18"/>
<text text-anchor="middle" x="1347" y="-99.8" font-family="Times,serif" font-size="14.00">CredentialsService</text>
</g>
<!-- CredentialsService&#45;&gt;ConfigurationModule -->
<g id="edge14" class="edge">
<title>CredentialsService&#45;&gt;ConfigurationModule</title>
<path fill="none" stroke="black" d="M1406.46,-116.84C1406.46,-116.84 1406.46,-140.52 1406.46,-140.52"/>
<polygon fill="black" stroke="black" points="1402.96,-140.52 1406.46,-150.52 1409.96,-140.52 1402.96,-140.52"/>
</g>
<!-- IssuanceService -->
<g id="node16" class="node">
<title>IssuanceService</title>
<ellipse fill="#fdb462" stroke="black" cx="1172" cy="-104" rx="73.47" ry="18"/>
<text text-anchor="middle" x="1172" y="-99.8" font-family="Times,serif" font-size="14.00">IssuanceService</text>
</g>
<!-- IssuanceService&#45;&gt;ConfigurationModule -->
<g id="edge15" class="edge">
<title>IssuanceService&#45;&gt;ConfigurationModule</title>
<path fill="none" stroke="black" d="M1218.85,-117.94C1218.85,-133.04 1218.85,-155 1218.85,-155 1218.85,-155 1371.66,-155 1371.66,-155"/>
<polygon fill="black" stroke="black" points="1371.66,-158.5 1381.66,-155 1371.66,-151.5 1371.66,-158.5"/>
</g>
<!-- MdocIssuerService -->
<g id="node17" class="node">
<title>MdocIssuerService</title>
<ellipse fill="#fdb462" stroke="black" cx="995" cy="-104" rx="85.65" ry="18"/>
<text text-anchor="middle" x="995" y="-99.8" font-family="Times,serif" font-size="14.00">MdocIssuerService</text>
</g>
<!-- MdocIssuerService&#45;&gt;ConfigurationModule -->
<g id="edge16" class="edge">
<title>MdocIssuerService&#45;&gt;ConfigurationModule</title>
<path fill="none" stroke="black" d="M1043.98,-119.03C1043.98,-135.31 1043.98,-159 1043.98,-159 1043.98,-159 1371.49,-159 1371.49,-159"/>
<polygon fill="black" stroke="black" points="1371.49,-162.5 1381.49,-159 1371.49,-155.5 1371.49,-162.5"/>
</g>
<!-- SchemaMetaAdapterService -->
<g id="node18" class="node">
<title>SchemaMetaAdapterService</title>
<ellipse fill="#fdb462" stroke="black" cx="770" cy="-104" rx="121.5" ry="18"/>
<text text-anchor="middle" x="770" y="-99.8" font-family="Times,serif" font-size="14.00">SchemaMetaAdapterService</text>
</g>
<!-- SchemaMetaAdapterService&#45;&gt;ConfigurationModule -->
<g id="edge17" class="edge">
<title>SchemaMetaAdapterService&#45;&gt;ConfigurationModule</title>
<path fill="none" stroke="black" d="M770,-122.02C770,-139.37 770,-163 770,-163 770,-163 1371.64,-163 1371.64,-163"/>
<polygon fill="black" stroke="black" points="1371.64,-166.5 1381.64,-163 1371.64,-159.5 1371.64,-166.5"/>
</g>
<!-- SdjwtvcIssuerService -->
<g id="node19" class="node">
<title>SdjwtvcIssuerService</title>
<ellipse fill="#fdb462" stroke="black" cx="536" cy="-104" rx="94.9" ry="18"/>
<text text-anchor="middle" x="536" y="-99.8" font-family="Times,serif" font-size="14.00">SdjwtvcIssuerService</text>
</g>
<!-- SdjwtvcIssuerService&#45;&gt;ConfigurationModule -->
<g id="edge18" class="edge">
<title>SdjwtvcIssuerService&#45;&gt;ConfigurationModule</title>
<path fill="none" stroke="black" d="M536,-122.22C536,-140.83 536,-167 536,-167 536,-167 1371.85,-167 1371.85,-167"/>
<polygon fill="black" stroke="black" points="1371.85,-170.5 1381.85,-167 1371.85,-163.5 1371.85,-170.5"/>
</g>
<!-- WebhookEndpointService -->
<g id="node20" class="node">
<title>WebhookEndpointService</title>
<ellipse fill="#fdb462" stroke="black" cx="310" cy="-104" rx="112.89" ry="18"/>
<text text-anchor="middle" x="310" y="-99.8" font-family="Times,serif" font-size="14.00">WebhookEndpointService</text>
</g>
<!-- WebhookEndpointService&#45;&gt;ConfigurationModule -->
<g id="edge19" class="edge">
<title>WebhookEndpointService&#45;&gt;ConfigurationModule</title>
<path fill="none" stroke="black" d="M310,-122.31C310,-142.15 310,-171 310,-171 310,-171 1371.77,-171 1371.77,-171"/>
<polygon fill="black" stroke="black" points="1371.77,-174.5 1381.77,-171 1371.77,-167.5 1371.77,-174.5"/>
</g>
<!-- WebhookService -->
<g id="node21" class="node">
<title>WebhookService</title>
<ellipse fill="#fdb462" stroke="black" cx="102" cy="-104" rx="77.57" ry="18"/>
<text text-anchor="middle" x="102" y="-99.8" font-family="Times,serif" font-size="14.00">WebhookService</text>
</g>
<!-- WebhookService&#45;&gt;ConfigurationModule -->
<g id="edge20" class="edge">
<title>WebhookService&#45;&gt;ConfigurationModule</title>
<path fill="none" stroke="black" d="M102,-122.28C102,-143.32 102,-175 102,-175 102,-175 1371.78,-175 1371.78,-175"/>
<polygon fill="black" stroke="black" points="1371.78,-178.5 1381.78,-175 1371.78,-171.5 1371.78,-178.5"/>
</g>
</g>
</svg>
