<?xml version="1.0" encoding="UTF-8" standalone="no"?>
<!DOCTYPE svg PUBLIC "-//W3C//DTD SVG 1.1//EN"
 "http://www.w3.org/Graphics/SVG/1.1/DTD/svg11.dtd">
<!-- Generated by graphviz version 2.47.0 (20210316.0004)
 -->
<!-- Title: dependencies Pages: 1 -->
<svg width="1718pt" height="284pt"
 viewBox="0.00 0.00 1718.00 284.00" xmlns="http://www.w3.org/2000/svg" xmlns:xlink="http://www.w3.org/1999/xlink">
<g id="graph0" class="graph" transform="scale(1 1) rotate(0) translate(4 280)">
<title>dependencies</title>
<polygon fill="white" stroke="transparent" points="-4,4 -4,-280 1714,-280 1714,4 -4,4"/>
<text text-anchor="start" x="834.01" y="-42.4" font-family="Times-12" font-weight="bold" font-size="14.00">Legend</text>
<polygon fill="#ffffb3" stroke="transparent" points="621,-10 621,-30 641,-30 641,-10 621,-10"/>
<text text-anchor="start" x="644.63" y="-15.4" font-family="Times-12" font-size="14.00"> &#160;Declarations</text>
<polygon fill="#8dd3c7" stroke="transparent" points="734,-10 734,-30 754,-30 754,-10 734,-10"/>
<text text-anchor="start" x="757.73" y="-15.4" font-family="Times-12" font-size="14.00"> &#160;Module</text>
<polygon fill="#80b1d3" stroke="transparent" points="820,-10 820,-30 840,-30 840,-10 820,-10"/>
<text text-anchor="start" x="843.78" y="-15.4" font-family="Times-12" font-size="14.00"> &#160;Bootstrap</text>
<polygon fill="#fdb462" stroke="transparent" points="917,-10 917,-30 937,-30 937,-10 917,-10"/>
<text text-anchor="start" x="940.67" y="-15.4" font-family="Times-12" font-size="14.00"> &#160;Providers</text>
<polygon fill="#fb8072" stroke="transparent" points="1013,-10 1013,-30 1033,-30 1033,-10 1013,-10"/>
<text text-anchor="start" x="1036.73" y="-15.4" font-family="Times-12" font-size="14.00"> &#160;Exports</text>
<g id="clust1" class="cluster">
<title>cluster_ConfigurationModule</title>
<polygon fill="none" stroke="black" stroke-dasharray="1,5" points="8,-70 8,-268 1702,-268 1702,-70 8,-70"/>
</g>
<g id="clust3" class="cluster">
<title>cluster_ConfigurationModule_imports</title>
<polygon fill="none" stroke="black" points="1174,-78 1174,-130 1694,-130 1694,-78 1174,-78"/>
</g>
<g id="clust4" class="cluster">
<title>cluster_ConfigurationModule_exports</title>
<polygon fill="none" stroke="black" points="679,-208 679,-260 1261,-260 1261,-208 679,-208"/>
</g>
<g id="clust6" class="cluster">
<title>cluster_ConfigurationModule_providers</title>
<polygon fill="none" stroke="black" points="16,-78 16,-130 1166,-130 1166,-78 16,-78"/>
</g>
<!-- CryptoModule -->
<g id="node1" class="node">
<title>CryptoModule</title>
<polygon fill="#8dd3c7" stroke="black" points="1686.44,-122 1683.44,-126 1662.44,-126 1659.44,-122 1587.56,-122 1587.56,-86 1686.44,-86 1686.44,-122"/>
<text text-anchor="middle" x="1637" y="-99.8" font-family="Times,serif" font-size="14.00">CryptoModule</text>
</g>
<!-- ConfigurationModule -->
<g id="node5" class="node">
<title>ConfigurationModule</title>
<polygon fill="#8dd3c7" stroke="black" points="1015.09,-187 1012.09,-191 991.09,-191 988.09,-187 876.91,-187 876.91,-151 1015.09,-151 1015.09,-187"/>
<text text-anchor="middle" x="946" y="-164.8" font-family="Times,serif" font-size="14.00">ConfigurationModule</text>
</g>
<!-- CryptoModule&#45;&gt;ConfigurationModule -->
<g id="edge1" class="edge">
<title>CryptoModule&#45;&gt;ConfigurationModule</title>
<path fill="none" stroke="black" d="M1637,-122.28C1637,-143.32 1637,-175 1637,-175 1637,-175 1025.1,-175 1025.1,-175"/>
<polygon fill="black" stroke="black" points="1025.1,-171.5 1015.1,-175 1025.1,-178.5 1025.1,-171.5"/>
</g>
<!-- PresentationsModule -->
<g id="node2" class="node">
<title>PresentationsModule</title>
<polygon fill="#8dd3c7" stroke="black" points="1570.2,-122 1567.2,-126 1546.2,-126 1543.2,-122 1435.8,-122 1435.8,-86 1570.2,-86 1570.2,-122"/>
<text text-anchor="middle" x="1503" y="-99.8" font-family="Times,serif" font-size="14.00">PresentationsModule</text>
</g>
<!-- PresentationsModule&#45;&gt;ConfigurationModule -->
<g id="edge2" class="edge">
<title>PresentationsModule&#45;&gt;ConfigurationModule</title>
<path fill="none" stroke="black" d="M1503,-122.11C1503,-141.34 1503,-169 1503,-169 1503,-169 1025.14,-169 1025.14,-169"/>
<polygon fill="black" stroke="black" points="1025.14,-165.5 1015.14,-169 1025.14,-172.5 1025.14,-165.5"/>
</g>
<!-- SessionModule -->
<g id="node3" class="node">
<title>SessionModule</title>
<polygon fill="#8dd3c7" stroke="black" points="1418.33,-122 1415.33,-126 1394.33,-126 1391.33,-122 1315.67,-122 1315.67,-86 1418.33,-86 1418.33,-122"/>
<text text-anchor="middle" x="1367" y="-99.8" font-family="Times,serif" font-size="14.00">SessionModule</text>
</g>
<!-- SessionModule&#45;&gt;ConfigurationModule -->
<g id="edge3" class="edge">
<title>SessionModule&#45;&gt;ConfigurationModule</title>
<path fill="none" stroke="black" d="M1367,-122.02C1367,-139.37 1367,-163 1367,-163 1367,-163 1025.05,-163 1025.05,-163"/>
<polygon fill="black" stroke="black" points="1025.05,-159.5 1015.05,-163 1025.05,-166.5 1025.05,-159.5"/>
</g>
<!-- StatusListModule -->
<g id="node4" class="node">
<title>StatusListModule</title>
<polygon fill="#8dd3c7" stroke="black" points="1297.55,-122 1294.55,-126 1273.55,-126 1270.55,-122 1182.45,-122 1182.45,-86 1297.55,-86 1297.55,-122"/>
<text text-anchor="middle" x="1240" y="-99.8" font-family="Times,serif" font-size="14.00">StatusListModule</text>
</g>
<!-- StatusListModule&#45;&gt;ConfigurationModule -->
<g id="edge4" class="edge">
<title>StatusListModule&#45;&gt;ConfigurationModule</title>
<path fill="none" stroke="black" d="M1217.78,-122.24C1217.78,-137.57 1217.78,-157 1217.78,-157 1217.78,-157 1025.29,-157 1025.29,-157"/>
<polygon fill="black" stroke="black" points="1025.29,-153.5 1015.29,-157 1025.29,-160.5 1025.29,-153.5"/>
</g>
<!-- CredentialConfigService  -->
<g id="node6" class="node">
<title>CredentialConfigService </title>
<polygon fill="#fb8072" stroke="black" points="1253.18,-252 1094.82,-252 1094.82,-216 1253.18,-216 1253.18,-252"/>
<text text-anchor="middle" x="1174" y="-229.8" font-family="Times,serif" font-size="14.00">CredentialConfigService </text>
</g>
<!-- ConfigurationModule&#45;&gt;CredentialConfigService  -->
<g id="edge5" class="edge">
<title>ConfigurationModule&#45;&gt;CredentialConfigService </title>
<path fill="none" stroke="black" stroke-dasharray="5,2" d="M1015.21,-181C1066.07,-181 1126.35,-181 1126.35,-181 1126.35,-181 1126.35,-205.76 1126.35,-205.76"/>
<polygon fill="black" stroke="black" points="1122.85,-205.76 1126.35,-215.76 1129.85,-205.76 1122.85,-205.76"/>
</g>
<!-- CredentialsService  -->
<g id="node7" class="node">
<title>CredentialsService </title>
<polygon fill="#fb8072" stroke="black" points="1076.74,-252 951.26,-252 951.26,-216 1076.74,-216 1076.74,-252"/>
<text text-anchor="middle" x="1014" y="-229.8" font-family="Times,serif" font-size="14.00">CredentialsService </text>
</g>
<!-- ConfigurationModule&#45;&gt;CredentialsService  -->
<g id="edge6" class="edge">
<title>ConfigurationModule&#45;&gt;CredentialsService </title>
<path fill="none" stroke="black" stroke-dasharray="5,2" d="M983.21,-187.11C983.21,-187.11 983.21,-205.99 983.21,-205.99"/>
<polygon fill="black" stroke="black" points="979.71,-205.99 983.21,-215.99 986.71,-205.99 979.71,-205.99"/>
</g>
<!-- IssuanceService  -->
<g id="node8" class="node">
<title>IssuanceService </title>
<polygon fill="#fb8072" stroke="black" points="933.67,-252 824.33,-252 824.33,-216 933.67,-216 933.67,-252"/>
<text text-anchor="middle" x="879" y="-229.8" font-family="Times,serif" font-size="14.00">IssuanceService </text>
</g>
<!-- ConfigurationModule&#45;&gt;IssuanceService  -->
<g id="edge7" class="edge">
<title>ConfigurationModule&#45;&gt;IssuanceService </title>
<path fill="none" stroke="black" stroke-dasharray="5,2" d="M905.39,-187.11C905.39,-187.11 905.39,-205.99 905.39,-205.99"/>
<polygon fill="black" stroke="black" points="901.89,-205.99 905.39,-215.99 908.89,-205.99 901.89,-205.99"/>
</g>
<!-- StatusListModule  -->
<g id="node9" class="node">
<title>StatusListModule </title>
<polygon fill="#fb8072" stroke="black" points="806.55,-252 687.45,-252 687.45,-216 806.55,-216 806.55,-252"/>
<text text-anchor="middle" x="747" y="-229.8" font-family="Times,serif" font-size="14.00">StatusListModule </text>
</g>
<!-- ConfigurationModule&#45;&gt;StatusListModule  -->
<g id="edge8" class="edge">
<title>ConfigurationModule&#45;&gt;StatusListModule </title>
<path fill="none" stroke="black" stroke-dasharray="5,2" d="M876.57,-181C831.94,-181 782.28,-181 782.28,-181 782.28,-181 782.28,-205.76 782.28,-205.76"/>
<polygon fill="black" stroke="black" points="778.78,-205.76 782.28,-215.76 785.78,-205.76 778.78,-205.76"/>
</g>
<!-- CredentialConfigService -->
<g id="node10" class="node">
<title>CredentialConfigService</title>
<ellipse fill="#fdb462" stroke="black" cx="1051" cy="-104" rx="107.08" ry="18"/>
<text text-anchor="middle" x="1051" y="-99.8" font-family="Times,serif" font-size="14.00">CredentialConfigService</text>
</g>
<!-- CredentialConfigService&#45;&gt;ConfigurationModule -->
<g id="edge9" class="edge">
<title>CredentialConfigService&#45;&gt;ConfigurationModule</title>
<path fill="none" stroke="black" d="M979.5,-117.47C979.5,-117.47 979.5,-140.86 979.5,-140.86"/>
<polygon fill="black" stroke="black" points="976,-140.86 979.5,-150.86 983,-140.86 976,-140.86"/>
</g>
<!-- CredentialsService -->
<g id="node11" class="node">
<title>CredentialsService</title>
<ellipse fill="#fdb462" stroke="black" cx="842" cy="-104" rx="83.94" ry="18"/>
<text text-anchor="middle" x="842" y="-99.8" font-family="Times,serif" font-size="14.00">CredentialsService</text>
</g>
<!-- CredentialsService&#45;&gt;ConfigurationModule -->
<g id="edge10" class="edge">
<title>CredentialsService&#45;&gt;ConfigurationModule</title>
<path fill="none" stroke="black" d="M901.46,-116.84C901.46,-116.84 901.46,-140.52 901.46,-140.52"/>
<polygon fill="black" stroke="black" points="897.96,-140.52 901.46,-150.52 904.96,-140.52 897.96,-140.52"/>
</g>
<!-- IssuanceService -->
<g id="node12" class="node">
<title>IssuanceService</title>
<ellipse fill="#fdb462" stroke="black" cx="667" cy="-104" rx="73.47" ry="18"/>
<text text-anchor="middle" x="667" y="-99.8" font-family="Times,serif" font-size="14.00">IssuanceService</text>
</g>
<!-- IssuanceService&#45;&gt;ConfigurationModule -->
<g id="edge11" class="edge">
<title>IssuanceService&#45;&gt;ConfigurationModule</title>
<path fill="none" stroke="black" d="M713.85,-117.93C713.85,-133.63 713.85,-157 713.85,-157 713.85,-157 866.66,-157 866.66,-157"/>
<polygon fill="black" stroke="black" points="866.66,-160.5 876.66,-157 866.66,-153.5 866.66,-160.5"/>
</g>
<!-- MdocIssuerService -->
<g id="node13" class="node">
<title>MdocIssuerService</title>
<ellipse fill="#fdb462" stroke="black" cx="490" cy="-104" rx="85.65" ry="18"/>
<text text-anchor="middle" x="490" y="-99.8" font-family="Times,serif" font-size="14.00">MdocIssuerService</text>
</g>
<!-- MdocIssuerService&#45;&gt;ConfigurationModule -->
<g id="edge12" class="edge">
<title>MdocIssuerService&#45;&gt;ConfigurationModule</title>
<path fill="none" stroke="black" d="M490,-122.02C490,-139.37 490,-163 490,-163 490,-163 866.74,-163 866.74,-163"/>
<polygon fill="black" stroke="black" points="866.74,-166.5 876.74,-163 866.74,-159.5 866.74,-166.5"/>
</g>
<!-- SdjwtvcIssuerService -->
<g id="node14" class="node">
<title>SdjwtvcIssuerService</title>
<ellipse fill="#fdb462" stroke="black" cx="292" cy="-104" rx="94.9" ry="18"/>
<text text-anchor="middle" x="292" y="-99.8" font-family="Times,serif" font-size="14.00">SdjwtvcIssuerService</text>
</g>
<!-- SdjwtvcIssuerService&#45;&gt;ConfigurationModule -->
<g id="edge13" class="edge">
<title>SdjwtvcIssuerService&#45;&gt;ConfigurationModule</title>
<path fill="none" stroke="black" d="M292,-122.11C292,-141.34 292,-169 292,-169 292,-169 866.94,-169 866.94,-169"/>
<polygon fill="black" stroke="black" points="866.94,-172.5 876.94,-169 866.94,-165.5 866.94,-172.5"/>
</g>
<!-- WebhookService -->
<g id="node15" class="node">
<title>WebhookService</title>
<ellipse fill="#fdb462" stroke="black" cx="102" cy="-104" rx="77.57" ry="18"/>
<text text-anchor="middle" x="102" y="-99.8" font-family="Times,serif" font-size="14.00">WebhookService</text>
</g>
<!-- WebhookService&#45;&gt;ConfigurationModule -->
<g id="edge14" class="edge">
<title>WebhookService&#45;&gt;ConfigurationModule</title>
<path fill="none" stroke="black" d="M102,-122.28C102,-143.32 102,-175 102,-175 102,-175 866.93,-175 866.93,-175"/>
<polygon fill="black" stroke="black" points="866.93,-178.5 876.93,-175 866.93,-171.5 866.93,-178.5"/>
</g>
</g>
</svg>
