<?xml version="1.0" encoding="UTF-8" standalone="no"?>
<!DOCTYPE svg PUBLIC "-//W3C//DTD SVG 1.1//EN"
 "http://www.w3.org/Graphics/SVG/1.1/DTD/svg11.dtd">
<!-- Generated by graphviz version 2.47.0 (20210316.0004)
 -->
<!-- Title: dependencies Pages: 1 -->
<svg width="1566pt" height="284pt"
 viewBox="0.00 0.00 1566.00 284.00" xmlns="http://www.w3.org/2000/svg" xmlns:xlink="http://www.w3.org/1999/xlink">
<g id="graph0" class="graph" transform="scale(1 1) rotate(0) translate(4 280)">
<title>dependencies</title>
<polygon fill="white" stroke="transparent" points="-4,4 -4,-280 1562,-280 1562,4 -4,4"/>
<text text-anchor="start" x="758.01" y="-42.4" font-family="Times-12" font-weight="bold" font-size="14.00">Legend</text>
<polygon fill="#ffffb3" stroke="transparent" points="545,-10 545,-30 565,-30 565,-10 545,-10"/>
<text text-anchor="start" x="568.63" y="-15.4" font-family="Times-12" font-size="14.00"> &#160;Declarations</text>
<polygon fill="#8dd3c7" stroke="transparent" points="658,-10 658,-30 678,-30 678,-10 658,-10"/>
<text text-anchor="start" x="681.73" y="-15.4" font-family="Times-12" font-size="14.00"> &#160;Module</text>
<polygon fill="#80b1d3" stroke="transparent" points="744,-10 744,-30 764,-30 764,-10 744,-10"/>
<text text-anchor="start" x="767.78" y="-15.4" font-family="Times-12" font-size="14.00"> &#160;Bootstrap</text>
<polygon fill="#fdb462" stroke="transparent" points="841,-10 841,-30 861,-30 861,-10 841,-10"/>
<text text-anchor="start" x="864.67" y="-15.4" font-family="Times-12" font-size="14.00"> &#160;Providers</text>
<polygon fill="#fb8072" stroke="transparent" points="937,-10 937,-30 957,-30 957,-10 937,-10"/>
<text text-anchor="start" x="960.73" y="-15.4" font-family="Times-12" font-size="14.00"> &#160;Exports</text>
<g id="clust1" class="cluster">
<title>cluster_ConfigurationModule</title>
<polygon fill="none" stroke="black" stroke-dasharray="1,5" points="8,-70 8,-268 1550,-268 1550,-70 8,-70"/>
</g>
<g id="clust3" class="cluster">
<title>cluster_ConfigurationModule_imports</title>
<polygon fill="none" stroke="black" points="1174,-78 1174,-130 1542,-130 1542,-78 1174,-78"/>
</g>
<g id="clust4" class="cluster">
<title>cluster_ConfigurationModule_exports</title>
<polygon fill="none" stroke="black" points="575,-208 575,-260 1157,-260 1157,-208 575,-208"/>
</g>
<g id="clust6" class="cluster">
<title>cluster_ConfigurationModule_providers</title>
<polygon fill="none" stroke="black" points="16,-78 16,-130 1166,-130 1166,-78 16,-78"/>
</g>
<!-- CryptoModule -->
<g id="node1" class="node">
<title>CryptoModule</title>
<polygon fill="#8dd3c7" stroke="black" points="1534.44,-122 1531.44,-126 1510.44,-126 1507.44,-122 1435.56,-122 1435.56,-86 1534.44,-86 1534.44,-122"/>
<text text-anchor="middle" x="1485" y="-99.8" font-family="Times,serif" font-size="14.00">CryptoModule</text>
</g>
<!-- ConfigurationModule -->
<g id="node4" class="node">
<title>ConfigurationModule</title>
<polygon fill="#8dd3c7" stroke="black" points="911.09,-187 908.09,-191 887.09,-191 884.09,-187 772.91,-187 772.91,-151 911.09,-151 911.09,-187"/>
<text text-anchor="middle" x="842" y="-164.8" font-family="Times,serif" font-size="14.00">ConfigurationModule</text>
</g>
<!-- CryptoModule&#45;&gt;ConfigurationModule -->
<g id="edge1" class="edge">
<title>CryptoModule&#45;&gt;ConfigurationModule</title>
<path fill="none" stroke="black" d="M1485,-122.28C1485,-143.32 1485,-175 1485,-175 1485,-175 921.12,-175 921.12,-175"/>
<polygon fill="black" stroke="black" points="921.12,-171.5 911.12,-175 921.12,-178.5 921.12,-171.5"/>
</g>
<!-- SessionModule -->
<g id="node2" class="node">
<title>SessionModule</title>
<polygon fill="#8dd3c7" stroke="black" points="1418.33,-122 1415.33,-126 1394.33,-126 1391.33,-122 1315.67,-122 1315.67,-86 1418.33,-86 1418.33,-122"/>
<text text-anchor="middle" x="1367" y="-99.8" font-family="Times,serif" font-size="14.00">SessionModule</text>
</g>
<!-- SessionModule&#45;&gt;ConfigurationModule -->
<g id="edge2" class="edge">
<title>SessionModule&#45;&gt;ConfigurationModule</title>
<path fill="none" stroke="black" d="M1367,-122.11C1367,-141.34 1367,-169 1367,-169 1367,-169 921.17,-169 921.17,-169"/>
<polygon fill="black" stroke="black" points="921.17,-165.5 911.17,-169 921.17,-172.5 921.17,-165.5"/>
</g>
<!-- StatusListModule -->
<g id="node3" class="node">
<title>StatusListModule</title>
<polygon fill="#8dd3c7" stroke="black" points="1297.55,-122 1294.55,-126 1273.55,-126 1270.55,-122 1182.45,-122 1182.45,-86 1297.55,-86 1297.55,-122"/>
<text text-anchor="middle" x="1240" y="-99.8" font-family="Times,serif" font-size="14.00">StatusListModule</text>
</g>
<!-- StatusListModule&#45;&gt;ConfigurationModule -->
<g id="edge3" class="edge">
<title>StatusListModule&#45;&gt;ConfigurationModule</title>
<path fill="none" stroke="black" d="M1240,-122.02C1240,-139.37 1240,-163 1240,-163 1240,-163 921.33,-163 921.33,-163"/>
<polygon fill="black" stroke="black" points="921.33,-159.5 911.33,-163 921.33,-166.5 921.33,-159.5"/>
</g>
<!-- CredentialConfigService  -->
<g id="node5" class="node">
<title>CredentialConfigService </title>
<polygon fill="#fb8072" stroke="black" points="1149.18,-252 990.82,-252 990.82,-216 1149.18,-216 1149.18,-252"/>
<text text-anchor="middle" x="1070" y="-229.8" font-family="Times,serif" font-size="14.00">CredentialConfigService </text>
</g>
<!-- ConfigurationModule&#45;&gt;CredentialConfigService  -->
<g id="edge4" class="edge">
<title>ConfigurationModule&#45;&gt;CredentialConfigService </title>
<path fill="none" stroke="black" stroke-dasharray="5,2" d="M911.34,-181C978.42,-181 1070,-181 1070,-181 1070,-181 1070,-205.76 1070,-205.76"/>
<polygon fill="black" stroke="black" points="1066.5,-205.76 1070,-215.76 1073.5,-205.76 1066.5,-205.76"/>
</g>
<!-- CredentialsService  -->
<g id="node6" class="node">
<title>CredentialsService </title>
<polygon fill="#fb8072" stroke="black" points="972.74,-252 847.26,-252 847.26,-216 972.74,-216 972.74,-252"/>
<text text-anchor="middle" x="910" y="-229.8" font-family="Times,serif" font-size="14.00">CredentialsService </text>
</g>
<!-- ConfigurationModule&#45;&gt;CredentialsService  -->
<g id="edge5" class="edge">
<title>ConfigurationModule&#45;&gt;CredentialsService </title>
<path fill="none" stroke="black" stroke-dasharray="5,2" d="M879.21,-187.11C879.21,-187.11 879.21,-205.99 879.21,-205.99"/>
<polygon fill="black" stroke="black" points="875.71,-205.99 879.21,-215.99 882.71,-205.99 875.71,-205.99"/>
</g>
<!-- IssuanceService  -->
<g id="node7" class="node">
<title>IssuanceService </title>
<polygon fill="#fb8072" stroke="black" points="829.67,-252 720.33,-252 720.33,-216 829.67,-216 829.67,-252"/>
<text text-anchor="middle" x="775" y="-229.8" font-family="Times,serif" font-size="14.00">IssuanceService </text>
</g>
<!-- ConfigurationModule&#45;&gt;IssuanceService  -->
<g id="edge6" class="edge">
<title>ConfigurationModule&#45;&gt;IssuanceService </title>
<path fill="none" stroke="black" stroke-dasharray="5,2" d="M801.39,-187.11C801.39,-187.11 801.39,-205.99 801.39,-205.99"/>
<polygon fill="black" stroke="black" points="797.89,-205.99 801.39,-215.99 804.89,-205.99 797.89,-205.99"/>
</g>
<!-- StatusListModule  -->
<g id="node8" class="node">
<title>StatusListModule </title>
<polygon fill="#fb8072" stroke="black" points="702.55,-252 583.45,-252 583.45,-216 702.55,-216 702.55,-252"/>
<text text-anchor="middle" x="643" y="-229.8" font-family="Times,serif" font-size="14.00">StatusListModule </text>
</g>
<!-- ConfigurationModule&#45;&gt;StatusListModule  -->
<g id="edge7" class="edge">
<title>ConfigurationModule&#45;&gt;StatusListModule </title>
<path fill="none" stroke="black" stroke-dasharray="5,2" d="M772.84,-181C717.16,-181 648.15,-181 648.15,-181 648.15,-181 648.15,-205.76 648.15,-205.76"/>
<polygon fill="black" stroke="black" points="644.65,-205.76 648.15,-215.76 651.65,-205.76 644.65,-205.76"/>
</g>
<!-- CredentialConfigService -->
<g id="node9" class="node">
<title>CredentialConfigService</title>
<ellipse fill="#fdb462" stroke="black" cx="1051" cy="-104" rx="107.08" ry="18"/>
<text text-anchor="middle" x="1051" y="-99.8" font-family="Times,serif" font-size="14.00">CredentialConfigService</text>
</g>
<!-- CredentialConfigService&#45;&gt;ConfigurationModule -->
<g id="edge8" class="edge">
<title>CredentialConfigService&#45;&gt;ConfigurationModule</title>
<path fill="none" stroke="black" d="M958.29,-113.23C958.29,-128.42 958.29,-157 958.29,-157 958.29,-157 921.33,-157 921.33,-157"/>
<polygon fill="black" stroke="black" points="921.33,-153.5 911.33,-157 921.33,-160.5 921.33,-153.5"/>
</g>
<!-- CredentialsService -->
<g id="node10" class="node">
<title>CredentialsService</title>
<ellipse fill="#fdb462" stroke="black" cx="842" cy="-104" rx="83.94" ry="18"/>
<text text-anchor="middle" x="842" y="-99.8" font-family="Times,serif" font-size="14.00">CredentialsService</text>
</g>
<!-- CredentialsService&#45;&gt;ConfigurationModule -->
<g id="edge9" class="edge">
<title>CredentialsService&#45;&gt;ConfigurationModule</title>
<path fill="none" stroke="black" d="M842,-122.11C842,-122.11 842,-140.99 842,-140.99"/>
<polygon fill="black" stroke="black" points="838.5,-140.99 842,-150.99 845.5,-140.99 838.5,-140.99"/>
</g>
<!-- IssuanceService -->
<g id="node11" class="node">
<title>IssuanceService</title>
<ellipse fill="#fdb462" stroke="black" cx="667" cy="-104" rx="73.47" ry="18"/>
<text text-anchor="middle" x="667" y="-99.8" font-family="Times,serif" font-size="14.00">IssuanceService</text>
</g>
<!-- IssuanceService&#45;&gt;ConfigurationModule -->
<g id="edge10" class="edge">
<title>IssuanceService&#45;&gt;ConfigurationModule</title>
<path fill="none" stroke="black" d="M730.2,-113.23C730.2,-128.42 730.2,-157 730.2,-157 730.2,-157 762.79,-157 762.79,-157"/>
<polygon fill="black" stroke="black" points="762.79,-160.5 772.79,-157 762.79,-153.5 762.79,-160.5"/>
</g>
<!-- MdocIssuerService -->
<g id="node12" class="node">
<title>MdocIssuerService</title>
<ellipse fill="#fdb462" stroke="black" cx="490" cy="-104" rx="85.65" ry="18"/>
<text text-anchor="middle" x="490" y="-99.8" font-family="Times,serif" font-size="14.00">MdocIssuerService</text>
</g>
<!-- MdocIssuerService&#45;&gt;ConfigurationModule -->
<g id="edge11" class="edge">
<title>MdocIssuerService&#45;&gt;ConfigurationModule</title>
<path fill="none" stroke="black" d="M490,-122.02C490,-139.37 490,-163 490,-163 490,-163 762.88,-163 762.88,-163"/>
<polygon fill="black" stroke="black" points="762.88,-166.5 772.88,-163 762.88,-159.5 762.88,-166.5"/>
</g>
<!-- SdjwtvcIssuerService -->
<g id="node13" class="node">
<title>SdjwtvcIssuerService</title>
<ellipse fill="#fdb462" stroke="black" cx="292" cy="-104" rx="94.9" ry="18"/>
<text text-anchor="middle" x="292" y="-99.8" font-family="Times,serif" font-size="14.00">SdjwtvcIssuerService</text>
</g>
<!-- SdjwtvcIssuerService&#45;&gt;ConfigurationModule -->
<g id="edge12" class="edge">
<title>SdjwtvcIssuerService&#45;&gt;ConfigurationModule</title>
<path fill="none" stroke="black" d="M292,-122.11C292,-141.34 292,-169 292,-169 292,-169 762.9,-169 762.9,-169"/>
<polygon fill="black" stroke="black" points="762.9,-172.5 772.9,-169 762.9,-165.5 762.9,-172.5"/>
</g>
<!-- WebhookService -->
<g id="node14" class="node">
<title>WebhookService</title>
<ellipse fill="#fdb462" stroke="black" cx="102" cy="-104" rx="77.57" ry="18"/>
<text text-anchor="middle" x="102" y="-99.8" font-family="Times,serif" font-size="14.00">WebhookService</text>
</g>
<!-- WebhookService&#45;&gt;ConfigurationModule -->
<g id="edge13" class="edge">
<title>WebhookService&#45;&gt;ConfigurationModule</title>
<path fill="none" stroke="black" d="M102,-122.28C102,-143.32 102,-175 102,-175 102,-175 762.72,-175 762.72,-175"/>
<polygon fill="black" stroke="black" points="762.72,-178.5 772.72,-175 762.72,-171.5 762.72,-178.5"/>
</g>
</g>
</svg>
